<svg xmlns="http://www.w3.org/2000/svg" xmlns:xlink="http://www.w3.org/1999/xlink" viewBox="0 0 120 120"><defs><linearGradient id="linear-gradient" x1="49.67" y1="9.7" x2="60.57" y2="125.5" gradientUnits="userSpaceOnUse"><stop offset="0" stop-color="#e4af44"/><stop offset="0.28" stop-color="#e1ab42"/><stop offset="0.53" stop-color="#d8a03a"/><stop offset="0.77" stop-color="#c88e2e"/><stop offset="1" stop-color="#b3751d"/></linearGradient><linearGradient id="linear-gradient-2" x1="55.33" y1="17.27" x2="55.33" y2="114.1" gradientUnits="userSpaceOnUse"><stop offset="0" stop-color="#de721e"/><stop offset="0.23" stop-color="#da711f"/><stop offset="0.44" stop-color="#cf6d21"/><stop offset="0.64" stop-color="#bd6624"/><stop offset="0.83" stop-color="#a35d29"/><stop offset="0.99" stop-color="#89542e"/><stop offset="1" stop-color="#89542e"/></linearGradient><linearGradient id="linear-gradient-3" x1="55.14" y1="17.6" x2="55.14" y2="112.31" gradientUnits="userSpaceOnUse"><stop offset="0" stop-color="#fc4a3a"/><stop offset="1" stop-color="#c70300"/></linearGradient><linearGradient id="linear-gradient-4" x1="53.21" y1="23.95" x2="57.9" y2="107.24" gradientUnits="userSpaceOnUse"><stop offset="0" stop-color="#ffe998"/><stop offset="1" stop-color="#ffce75"/></linearGradient><radialGradient id="radial-gradient" cx="25.73" cy="51.49" r="7.43" gradientUnits="userSpaceOnUse"><stop offset="0.33" stop-color="#ff5d3d"/><stop offset="1" stop-color="#c70300"/></radialGradient><radialGradient id="radial-gradient-2" cx="-12.61" cy="824.25" r="7.43" gradientTransform="translate(305.02 -686.62) rotate(16.83)" xlink:href="#radial-gradient"/><radialGradient id="radial-gradient-3" cx="336.98" cy="1915.15" r="6.53" gradientTransform="translate(1160.68 -1559.86) rotate(45)" xlink:href="#radial-gradient"/><radialGradient id="radial-gradient-4" cx="85.03" cy="60.18" r="6.75" xlink:href="#radial-gradient"/><radialGradient id="radial-gradient-5" cx="909.32" cy="-1289.78" r="8.14" gradientTransform="translate(110.09 1657.28) rotate(-38.26)" xlink:href="#radial-gradient"/><radialGradient id="radial-gradient-6" cx="51.42" cy="55.12" r="5.09" xlink:href="#radial-gradient"/><radialGradient id="radial-gradient-7" cx="81.44" cy="86.66" r="6.08" xlink:href="#radial-gradient"/><radialGradient id="radial-gradient-8" cx="62.38" cy="76.92" r="6.08" xlink:href="#radial-gradient"/><linearGradient id="linear-gradient-5" x1="87.21" y1="-2.39" x2="93.17" y2="60.85" xlink:href="#linear-gradient"/><linearGradient id="linear-gradient-6" x1="65" y1="28.65" x2="120" y2="28.65" xlink:href="#linear-gradient-2"/><linearGradient id="linear-gradient-7" x1="89.27" y1="8.03" x2="89.27" y2="54.46" xlink:href="#linear-gradient-3"/><linearGradient id="linear-gradient-8" x1="85.48" y1="10.47" x2="87.98" y2="54.87" xlink:href="#linear-gradient-4"/><radialGradient id="radial-gradient-9" cx="94.94" cy="48.83" r="7.35" xlink:href="#radial-gradient"/><radialGradient id="radial-gradient-10" cx="67.18" cy="45.13" r="4.62" xlink:href="#radial-gradient"/><radialGradient id="radial-gradient-11" cx="82.7" cy="28.87" r="6.08" xlink:href="#radial-gradient"/><linearGradient id="linear-gradient-9" x1="69.76" y1="74.4" x2="69.76" y2="49.79" gradientUnits="userSpaceOnUse"><stop offset="0" stop-color="#ffe998"/><stop offset="0.04" stop-color="#ffe896"/><stop offset="0.63" stop-color="#ffd57e"/><stop offset="1" stop-color="#ffce75"/></linearGradient></defs><title>1F355</title><g id="Layer_2" data-name="Layer 2"><g id="pizza_U_1F355" data-name="pizza_U+1F355"><g id="_1F355" data-name="1F355"><path d="M55,10a55,55,0,1,0,55,55H55Z" fill="url(#linear-gradient)"/><path d="M55,65V13c-.09,0-2.16,3.07-3.1,3.05-5.77-.11-11.22-.34-16.31,1.81-5.91,2.5-9.32,6.62-15,10.58-5.17,3.64-9.47,11.13-11.16,17.33-1.77,6.5-6.88,15.41-5,22,1.54,5.4,3.2,10.33,5,16.49,1.84,6.32,5.22,12.87,10.08,16.91s10.46,6.08,16.22,9.39A39.08,39.08,0,0,0,55,115.4c6.82,0,12.91-3.74,19.23-4.87s12-5.59,15.71-10.59,9.75-9.09,11.44-15.34c1.48-5.5,3.07-11.54,3.41-17.6a2,2,0,0,1,1.81-2Z" fill="url(#linear-gradient-2)"/><path d="M55,65V18c-5.36-.52-11.14-1-15,1.35-4.67,2.81-8.87,5.6-14.19,8.84S15,36.35,12.47,41.92C9.83,47.66,9.4,53.25,7.76,59.48A37.85,37.85,0,0,0,8,78.72c1.72,6.39,6.75,11.15,9.41,16.79S26,104.44,31.6,106.65s10.89,7.1,17.17,7.1A74.83,74.83,0,0,0,68,111.34c6.39-1.72,11.86-6.15,17.49-8.81,5.84-2.75,8.54-8.88,11.6-14.19s3.35-9.61,5.61-15.77a17.46,17.46,0,0,0,.79-7.57Z" fill="url(#linear-gradient-3)"/><path d="M59,65a4,4,0,0,1-4-4,96.05,96.05,0,0,1,.4-13.19c.7-5.2.3-13.74-.07-24.36,0-.84,0-2.1,0-3a1,1,0,0,0-1.11-1c-5,.66-9.72,2.39-14.88,3.57a36.25,36.25,0,0,0-16.1,8.77c-4.62,4.28-6.4,10.64-10,15.37S9.53,58.28,10.16,64,9,76.32,11.79,81.62A71.49,71.49,0,0,0,22.36,96.8c4.28,4.62,10.45,7.27,15.18,10.84,4.91,3.7,11.28,3.26,17.12,3.48s9.58-1.43,15.78-2.26c5.87-.79,10.72-5.66,15.35-10S95.21,91.1,97.65,85.7s2.16-10.34,3.5-16.57a20.38,20.38,0,0,0,.32-2.67,2,2,0,0,0-2-2.13,60.77,60.77,0,0,0-7.15.32c-3.57.39-7.82-.45-13,0a71.73,71.73,0,0,1-14.3-.24A19.57,19.57,0,0,0,59,65Z" fill="url(#linear-gradient-4)"/><circle cx="25.73" cy="52.22" r="7.43" fill="#ff9a1a"/><circle cx="25.73" cy="51.49" r="7.43" fill="#c70300"/><path d="M25.73,44.06a7.43,7.43,0,1,0,7.43,7.43A7.43,7.43,0,0,0,25.73,44.06Zm5.56,4.85-4.82,1.57V45.4A6.13,6.13,0,0,1,31.29,48.91ZM25,45.4v5.08l-4.83-1.57A6.16,6.16,0,0,1,25,45.4Zm-5.4,6.09a6.56,6.56,0,0,1,.11-1.18l4.83,1.57-3,4.1A6.12,6.12,0,0,1,19.6,51.49Zm3.15,5.36,3-4.1,3,4.1a6.1,6.1,0,0,1-6,0ZM29.91,56l-3-4.1,4.82-1.57a5.76,5.76,0,0,1,.12,1.18A6.12,6.12,0,0,1,29.91,56Z" fill="url(#radial-gradient)"/><circle cx="54.24" cy="99.38" r="7.43" fill="#ff9a1a"/><circle cx="54.24" cy="98.65" r="7.43" fill="#c70300"/><path d="M56.39,91.54a7.43,7.43,0,1,0,5,9.26A7.43,7.43,0,0,0,56.39,91.54Zm3.92,6.25-5.07.1L56.71,93A6.12,6.12,0,0,1,60.31,97.79Zm-5-5.18-1.47,4.86-4.16-2.9A6.14,6.14,0,0,1,55.3,92.61Zm-6.93,4.26a6.57,6.57,0,0,1,.45-1.09L53,98.68l-4,3.06A6.13,6.13,0,0,1,48.37,96.87Zm1.47,6,4-3.07,1.66,4.8a6.11,6.11,0,0,1-3.08-.13A6,6,0,0,1,49.84,102.92Zm7.1,1.24-1.67-4.79,5.08-.1a6.21,6.21,0,0,1-3.41,4.89Z" fill="url(#radial-gradient-2)"/><circle cx="44.75" cy="33.28" r="6.53" fill="#ff9a1a"/><circle cx="44.75" cy="32.64" r="6.53" fill="#c70300"/><path d="M49.36,28a6.53,6.53,0,1,0,0,9.24A6.52,6.52,0,0,0,49.36,28Zm.45,6.47-4-2L49,29.31A5.42,5.42,0,0,1,49.81,34.49Zm-1.74-6.1-3.15,3.16-2-4A5.38,5.38,0,0,1,48.07,28.39Zm-7.14.43a5.08,5.08,0,0,1,.81-.66l2,4-4.4.69A5.41,5.41,0,0,1,40.93,28.82Zm-1.37,5.3,4.41-.7-.7,4.4a5.24,5.24,0,0,1-2.34-1.37A5.36,5.36,0,0,1,39.56,34.12Zm5,3.9.7-4.4,4,2a5.5,5.5,0,0,1-.66.8A5.31,5.31,0,0,1,44.55,38Z" fill="url(#radial-gradient-3)"/><path d="M90.17,64.75c-2,0-6.22-.32-8.26-.22-.51,0-1.61.08-3.11.18a7.62,7.62,0,0,0,12.26,0C90.76,64.73,90.47,64.75,90.17,64.75Z" fill="#ff9a1a"/><path d="M90.17,64.75c-2,0-6.22-.32-8.26-.22-.44,0-1.32.06-2.52.14a7.62,7.62,0,0,0,11,.07Z" fill="#c70300"/><path d="M90.41,64.74h-.24c-.5,0-1.12,0-1.8,0a6.38,6.38,0,0,1-3.47,1L85,64.56l-1.52,0-.13,1a6.15,6.15,0,0,1-2.11-1l-1.88.11c.1.1.19.21.3.31A7.63,7.63,0,0,0,90.41,64.74Z" fill="url(#radial-gradient-4)"/><circle cx="25.41" cy="82.25" r="8.14" fill="#ff9a1a"/><circle cx="25.41" cy="81.45" r="8.14" fill="#c70300"/><path d="M20.37,75.06A8.14,8.14,0,1,0,31.8,76.41,8.13,8.13,0,0,0,20.37,75.06Zm8.07.39-3.09,4.62-3.44-4.36A6.75,6.75,0,0,1,28.44,75.45Zm-7.8,1.26,3.44,4.36L18.87,83A6.74,6.74,0,0,1,20.64,76.71Zm-.51,8.9a6.71,6.71,0,0,1-.7-1.09l5.21-1.93.22,5.55A6.66,6.66,0,0,1,20.13,85.61Zm6.35,2.47-.22-5.55L31.61,84a6.69,6.69,0,0,1-5.13,4Zm5.57-5.6L26.7,81l3.09-4.62a7.94,7.94,0,0,1,.9.93A6.76,6.76,0,0,1,32.05,82.48Z" fill="url(#radial-gradient-5)"/><path d="M55.08,61.66a5.73,5.73,0,0,1-1.38.16,6.11,6.11,0,0,1,0-12.21,5.94,5.94,0,0,1,1.53.2A84.51,84.51,0,0,0,55.08,61.66Z" fill="#ff9a1a"/><path d="M55.24,49.22A6,6,0,0,0,53.7,49a6.1,6.1,0,0,0,0,12.2A5.83,5.83,0,0,0,55,61.07,83,83,0,0,1,55.24,49.22Z" fill="#c70300"/><path d="M54.91,57.31l-.41-1.54.42,0c0-.4,0-.8,0-1.21l-.37,0,.4-1c.05-1.48.14-3,.27-4.31A6.79,6.79,0,0,0,54,49a6.1,6.1,0,0,0-.66,12.19A5.71,5.71,0,0,0,55,61.07C55,60,54.92,58.73,54.91,57.31ZM54,50.08a5.06,5.06,0,0,1,1,.15l-1.5,3.89-3.23-2.63A5.08,5.08,0,0,1,54,50.08Zm-4.81,7.25a5,5,0,0,1-.5-2.49,4.84,4.84,0,0,1,.77-2.41l3.23,2.63Zm4.25,2.82a5,5,0,0,1-3.59-1.81l3.5-2.26,1.07,4A4.54,4.54,0,0,1,53.42,60.15Z" fill="url(#radial-gradient-6)"/><circle cx="81.44" cy="87.25" r="6.08" fill="#ff9a1a"/><circle cx="81.44" cy="86.66" r="6.08" fill="#c70300"/><path d="M81.44,80.57a6.09,6.09,0,1,0,6.08,6.09A6.09,6.09,0,0,0,81.44,80.57Zm4.55,4-3.94,1.28V81.67A5,5,0,0,1,86,84.54Zm-5.15-2.87v4.15l-4-1.28A5,5,0,0,1,80.84,81.67Zm-4.42,5a5.15,5.15,0,0,1,.09-1L80.46,87,78,90.33A5,5,0,0,1,76.42,86.66ZM79,91.05l2.44-3.37,2.44,3.37a5,5,0,0,1-4.88,0Zm5.86-.72L82.42,87l4-1.28a5.15,5.15,0,0,1,.1,1A5,5,0,0,1,84.86,90.33Z" fill="url(#radial-gradient-7)"/><circle cx="62.38" cy="77.52" r="6.08" fill="#ff9a1a"/><circle cx="62.38" cy="76.92" r="6.08" fill="#c70300"/><path d="M62.38,70.84a6.09,6.09,0,1,0,6.08,6.08A6.08,6.08,0,0,0,62.38,70.84Zm4.56,4L63,76.09V71.94A5,5,0,0,1,66.94,74.81Zm-5.16-2.87v4.15l-4-1.28A5,5,0,0,1,61.78,71.94Zm-4.42,5a5,5,0,0,1,.09-1l3.95,1.28L59,80.6A5,5,0,0,1,57.36,76.92Zm2.58,4.39L62.38,78l2.44,3.36a5,5,0,0,1-4.88,0Zm5.86-.71-2.44-3.36,4-1.28A4.94,4.94,0,0,1,65.8,80.6Z" fill="url(#radial-gradient-8)"/><path d="M27.06,63.42a2.06,2.06,0,1,0,2.06,2.06A2.06,2.06,0,0,0,27.06,63.42Zm0,3.08a1,1,0,1,1,0-2,1,1,0,0,1,0,2Z" fill="#2b201a"/><path d="M33.16,37.11a2.06,2.06,0,1,0,2.06,2.06A2.06,2.06,0,0,0,33.16,37.11Zm0,3.07a1,1,0,0,1,0-2,1,1,0,1,1,0,2Z" fill="#2b201a"/><path d="M51.57,42.73a2.06,2.06,0,1,0,2.06,2.06A2.06,2.06,0,0,0,51.57,42.73Zm0,3.08a1,1,0,1,1,1-1A1,1,0,0,1,51.57,45.81Z" fill="#2b201a"/><path d="M89.15,72A2.06,2.06,0,1,0,91.21,74,2.06,2.06,0,0,0,89.15,72Zm0,3.07a1,1,0,0,1,0-2,1,1,0,1,1,0,2Z" fill="#2b201a"/><path d="M72.7,67.14a2.06,2.06,0,1,0,2.06,2.06A2.07,2.07,0,0,0,72.7,67.14Zm0,3.07a1,1,0,1,1,1-1A1,1,0,0,1,72.7,70.21Z" fill="#2b201a"/><path d="M37.14,68.78a2.06,2.06,0,1,0,2.06,2.06A2.06,2.06,0,0,0,37.14,68.78Zm0,3.08a1,1,0,1,1,0-2,1,1,0,0,1,0,2Z" fill="#2b201a"/><path d="M14.29,70.61a2.06,2.06,0,1,0,2.06,2.06A2.06,2.06,0,0,0,14.29,70.61Zm0,3.07a1,1,0,0,1,0-2,1,1,0,1,1,0,2Z" fill="#2b201a"/><path d="M51.76,76.48a2.06,2.06,0,1,0,2.06,2.06A2.06,2.06,0,0,0,51.76,76.48Zm0,3.07a1,1,0,0,1,0-2,1,1,0,1,1,0,2Z" fill="#2b201a"/><path d="M38.51,92A2.06,2.06,0,1,0,40.57,94,2.06,2.06,0,0,0,38.51,92Zm0,3.08a1,1,0,1,1,1-1A1,1,0,0,1,38.51,95Z" fill="#2b201a"/><path d="M66.4,90.46a2.06,2.06,0,1,0,2.06,2.06A2.06,2.06,0,0,0,66.4,90.46Zm0,3.07a1,1,0,0,1,0-2,1,1,0,1,1,0,2Z" fill="#2b201a"/><path d="M120,55.17V55A55,55,0,0,0,65,0V55.17Z" fill="url(#linear-gradient-5)"/><path d="M99.21,18.63c-4.47-4.47-9.44-5.26-15-9.16-4.65-3.28-11-3.41-17.16-3.39-.7,0-1.82-1.76-2.07-3.94v53h55V54.3a9.06,9.06,0,0,1-2.7.38c-.6,0-2.45-1.18-2.49-1.77-.33-6.11-2.27-11.66-3.31-17.42C110.33,28.94,103.68,23.1,99.21,18.63Z" fill="url(#linear-gradient-6)"/><path d="M111,43.44c-1.72-6.39-2.65-12.57-6.49-17.48S96,18.9,90.83,14.62c-4.71-3.93-12.81-6.07-19-6.09-2,0-4.37-.26-6.79-.5V55.17h48.54A68.69,68.69,0,0,0,111,43.44Z" fill="url(#linear-gradient-7)"/><path d="M97.44,22.35c-4.44-2.7-8.66-5-13.75-8S72.08,8.86,66.25,9.17l-.5,0a1,1,0,0,0-.91,1.17,4.06,4.06,0,0,1,.16.9c.08,6-.86,13.48-.79,17.11s.65,5.5.53,9.13c-.11,3.42,0,11.88,0,13.07s-.37,3.05-.37,3.05a2,2,0,0,0,2.13,2.23s3.21-.34,5.27-.37,8.15.45,13.38.48,11.88-.34,15.08-.36,7.33.15,8.2.13,2.22-.12,2.22-.12a1,1,0,0,0,1-1,36,36,0,0,0-3.72-14.22C105,34.86,102.83,25.62,97.44,22.35Z" fill="url(#linear-gradient-8)"/><path d="M85.11,56c5.22,0,11.88-.34,15.08-.36s7.33.15,8.2.13,2.22-.12,2.22-.12a1,1,0,0,0,1-1c0-.76-.1-1.54-.19-2.33-.33.51-.67,1-1,1.5-1.14,1.65-6.37-.31-10.45-.25s-8.22.84-13.5.76-10.5-.57-18-.17c-2.58.13-3.84.32-3.79-2.43-.11,1-.26,2-.26,2a2,2,0,0,0,2.13,2.23s3.21-.34,5.27-.37S79.88,55.94,85.11,56Z" fill="#ff9a1a"/><path d="M89.88,55.9c3.54-.11,7.51-.27,9.15-.27h1.24a7.64,7.64,0,1,0-10.39.27Z" fill="#ff9a1a"/><path d="M90.85,55.87c3.26-.1,6.69-.24,8.18-.24h.35a7.64,7.64,0,1,0-8.53.24Z" fill="#c70300"/><path d="M90.84,55.87c3.27-.1,6.7-.24,8.19-.24h.36a7.63,7.63,0,0,0,.78-11.77A7.64,7.64,0,0,0,89.7,55,8,8,0,0,0,90.84,55.87Zm8.69-2.12a6.28,6.28,0,0,1-4.63,2l.66-5.17,4.71,2.22A6.22,6.22,0,0,1,99.53,53.75Zm1.39-2.34-4.71-2.23,3.57-3.79A6.29,6.29,0,0,1,100.92,51.41Zm-2.24-7.06L95.1,48.14l-2.5-4.57A6.31,6.31,0,0,1,98.68,44.35Zm-8.34.75a6.2,6.2,0,0,1,.92-.8l2.51,4.57-5.12,1A6.28,6.28,0,0,1,90.34,45.1Zm3.71,5.26-.66,5.18A6.36,6.36,0,0,1,90.61,54a6.42,6.42,0,0,1-1.69-2.69Z" fill="url(#radial-gradient-9)"/><path d="M64.74,39.72c0,2,0,4,0,6.36,0,2.54,0,4.18-.13,5.66a6.1,6.1,0,0,0,.15-12Z" fill="#ff9a1a"/><path d="M64.74,39.12c0,2.19,0,4.37,0,7,0,2.2,0,3.72-.09,5.05a6.1,6.1,0,0,0,.11-12Z" fill="#c70300"/><path d="M64.74,39.12v1.09l.13,0-.13.35c0,1.09,0,2.22,0,3.4L66,40.67a5.06,5.06,0,0,1,2.66,4.12l-3.94-.22v1.22l3.87.21a5,5,0,0,1-3.09,3.8l-.78-3c0,1.8,0,3.13-.09,4.3a6.1,6.1,0,0,0,.11-12Z" fill="url(#radial-gradient-10)"/><circle cx="82.7" cy="29.47" r="6.08" fill="#ff9a1a"/><circle cx="82.7" cy="28.87" r="6.08" fill="#c70300"/><path d="M82.7,22.79a6.08,6.08,0,1,0,6.08,6.08A6.09,6.09,0,0,0,82.7,22.79Zm4.55,4L83.3,28V23.89A5,5,0,0,1,87.25,26.76Zm-5.16-2.87V28l-4-1.28A5,5,0,0,1,82.09,23.89Zm-4.42,5a5.23,5.23,0,0,1,.1-1l4,1.29-2.44,3.36A5,5,0,0,1,77.67,28.87Zm2.58,4.39L82.7,29.9l2.44,3.36a5.06,5.06,0,0,1-4.89,0Zm5.86-.71-2.44-3.36,4-1.29a4.5,4.5,0,0,1,.1,1A5,5,0,0,1,86.11,32.55Z" fill="url(#radial-gradient-11)"/><path d="M71,16.38A2.06,2.06,0,1,0,73,18.44,2.06,2.06,0,0,0,71,16.38Zm0,3.07a1,1,0,0,1,0-2,1,1,0,1,1,0,2Z" fill="#2b201a"/><path d="M76.85,44a2.06,2.06,0,1,0,2.06,2.06A2.06,2.06,0,0,0,76.85,44Zm0,3.08a1,1,0,1,1,0-2,1,1,0,0,1,0,2Z" fill="#2b201a"/><path d="M96.67,31.83a2.07,2.07,0,1,0,2.06,2.06A2.06,2.06,0,0,0,96.67,31.83Zm0,3.08a1,1,0,1,1,1-1A1,1,0,0,1,96.67,34.91Z" fill="#2b201a"/><path d="M66.09,54.13a2.69,2.69,0,0,1,1.07,4.17c-1.33,1.9-2.12,5.15-5.38,6.19a14.71,14.71,0,0,0-5,2.65L68,66.94s1.23-10.85,5.64-11.89.38,4.08.38,4.08-2.72,6.06-3.72,6.66l3.51-.11s3-8.92,4.16-10.38,2.23-1.08,4.12-1.15-.46-1.89-.46-1.89l-11.45.17Z" fill="url(#linear-gradient-9)"/></g></g></g></svg>