<svg xmlns="http://www.w3.org/2000/svg" xmlns:xlink="http://www.w3.org/1999/xlink" viewBox="0 0 82 120.1"><defs><linearGradient id="Smiley_face" x1="42.08" y1="71.36" x2="69.2" y2="102.56" gradientUnits="userSpaceOnUse"><stop offset="0" stop-color="#ffd52d"/><stop offset="1" stop-color="#ff9a1a"/></linearGradient><linearGradient id="Smiley_face-2" x1="12.89" y1="60.26" x2="21.36" y2="94.94" xlink:href="#Smiley_face"/><linearGradient id="Smiley_face-3" x1="41.73" y1="19.65" x2="57" y2="40.12" xlink:href="#Smiley_face"/><linearGradient id="Smiley_face-4" x1="2.65" y1="26.1" x2="16.24" y2="34.3" xlink:href="#Smiley_face"/><linearGradient id="Smiley_face-5" x1="25.05" y1="20.98" x2="25.81" y2="15.32" xlink:href="#Smiley_face"/><linearGradient id="Smiley_face-6" x1="101.89" y1="-316.96" x2="103.71" y2="-301.84" gradientTransform="matrix(0.99, -0.13, 0.13, 0.99, -38.3, 331.2)" xlink:href="#Smiley_face"/><linearGradient id="linear-gradient" x1="101.84" y1="-319.25" x2="107.07" y2="-309.77" gradientTransform="matrix(0.99, -0.13, 0.13, 0.99, -38.3, 331.2)" gradientUnits="userSpaceOnUse"><stop offset="0" stop-color="#89542e"/><stop offset="1" stop-color="#582d24"/></linearGradient><radialGradient id="radial-gradient" cx="93.05" cy="-308.81" r="2.94" gradientTransform="translate(-74.3 320.88)" gradientUnits="userSpaceOnUse"><stop offset="0" stop-color="#ff7149"/><stop offset="1" stop-color="#ffd52d" stop-opacity="0"/></radialGradient><linearGradient id="_3ds_Corporate_blue_gradient" x1="16.77" y1="25.77" x2="18.18" y2="27.67" gradientUnits="userSpaceOnUse"><stop offset="0" stop-color="#005686"/><stop offset="1" stop-color="#003c5a"/></linearGradient><linearGradient id="_3ds_Corporate_blue_gradient-2" x1="18.75" y1="24.5" x2="41.11" y2="46.18" xlink:href="#_3ds_Corporate_blue_gradient"/><linearGradient id="linear-gradient-2" x1="45.11" y1="71.06" x2="35.71" y2="67.86" gradientUnits="userSpaceOnUse"><stop offset="0" stop-color="#3d3d3d"/><stop offset="0.81" stop-color="#2b201a"/></linearGradient><linearGradient id="linear-gradient-3" x1="29.07" y1="68.33" x2="25.47" y2="54.67" gradientUnits="userSpaceOnUse"><stop offset="0" stop-color="#3d3d3d"/><stop offset="1" stop-color="#2b201a"/></linearGradient><linearGradient id="Light_grey_gradient" x1="22.03" y1="91.41" x2="15.69" y2="105.03" gradientUnits="userSpaceOnUse"><stop offset="0" stop-color="#f4f5f6"/><stop offset="1" stop-color="#d1d4d4"/></linearGradient><linearGradient id="Light_grey_gradient-2" x1="1435.71" y1="-1668.11" x2="1429.29" y2="-1654.3" gradientTransform="translate(577.78 2239.68) rotate(-54)" xlink:href="#Light_grey_gradient"/></defs><title>1F3C3</title><g id="Layer_2" data-name="Layer 2"><g id="person_running_U_1F3C3" data-name="person_running_U+1F3C3"><g id="_1F3C3" data-name="1F3C3"><path d="M44.4,65.92a30.79,30.79,0,0,1,6.16,8.68c2.28,5,5.13,6.18,9.25,7.83s5.33,3.07,7.87,8C69.15,93.35,74,105,77,101.21l-1.8,9.06c-5.78-7.82-21.81-20.44-26-23.19-3.68-2.43-14-10.86-18.41-17.17Z" fill="url(#Smiley_face)"/><path d="M72,98.62a8.56,8.56,0,0,0,.22,2.24c.3.72,1.38,1.29,1,1.9s-1.23,1.72-2.06,2.85a47.93,47.93,0,0,1,4,4.66l1.8-9.06C75.57,103.05,73.68,101.27,72,98.62Z" fill="#de721e"/><path d="M49.85,73.18a27.58,27.58,0,0,0-1.66-2.72l-4.54.28-7.28,5.54c1,1,2.05,2,3.1,2.94C40.8,78.15,45.66,74.42,49.85,73.18Z" fill="#de721e"/><path d="M19.13,55.42C11.68,57,2.73,61.93,0,68.47c.71,4.7,4.53,11.88,7.88,16.07,4.24,5.28,4.87,6.87,6.42,12s.34,4.62.34,4.62l6.91-5.59s-1-1.63-2.94-4.33-2.67-7.78-3.86-12.65A17.58,17.58,0,0,0,10.3,70.3a1.29,1.29,0,0,1,1.56-.57c1.18.27,7.45,2.19,12.23,1.14a56.68,56.68,0,0,0,6-1.5Z" fill="url(#Smiley_face-2)"/><path d="M19.09,91.93,19,92c-.4.67-.23,1.88-.92,2-.85.12-2.92,0-4.58,0,.25.76.5,1.59.79,2.54.79,2.64.87,3.79.75,4.29l6.5-5.26S20.69,94.22,19.09,91.93Z" fill="#de721e"/><path d="M11.63,58a18.84,18.84,0,0,0,.25,7A17,17,0,0,0,14,70.27c.85.2,1.87.41,3,.59l-3.78-13.6C12.69,57.48,12.16,57.71,11.63,58Z" fill="#de721e"/><path d="M60.58,41.05c-.49-2.57-1.59-6.6-2.7-11.55s-6.13-10.29-6.13-10.29-5.55-1-9.66-1.26c-1.94-.13-3.28-.17-4.17-.17l-1.81,8.5c1.19,0,3.34.06,5.2,0,3-.12,6.47-.64,6.47-.64,1.11,2.49,2.46,3.53,4.82,5.87a13.5,13.5,0,0,1,3.33,6.81,2.69,2.69,0,0,1-1,2.72C54,41.55,54,43,54,43s-.06,1.36-.1,2.36a1.53,1.53,0,0,0,1,1.4l-.2,1.68a1.93,1.93,0,0,0,.83,1c0,.24.46.36.71.31a3.89,3.89,0,0,0,.71-.19,1.11,1.11,0,0,0,.63-.48,2.79,2.79,0,0,0,1.49-1.43,2,2,0,0,0,.64-.72S61.07,43.62,60.58,41.05Z" fill="url(#Smiley_face-3)"/><path d="M40.63,17.86l-1.24-.05L39,26.32l2.33,0,.91-.05A11.7,11.7,0,0,0,42.31,23,12.59,12.59,0,0,0,40.63,17.86Z" fill="#de721e"/><path d="M59.64,36.87s-.89,1.57-3.89.64l-.06,2.64s3.47.67,4.6-.47A7,7,0,0,0,59.64,36.87Z" fill="#2b201a"/><path d="M54.72,46.65a7,7,0,0,0,.5-1.71c.09-.58.14-1.21.21-1.82,0,.62,0,1.22,0,1.85a3.48,3.48,0,0,1-.59,1.76Z" fill="#de721e"/><path d="M55.51,49.42c.25-.79.45-1.42.64-2.23s.27-1.65.36-2.48a40.27,40.27,0,0,1-.57,5C55.49,49.66,55.51,49.42,55.51,49.42Z" fill="#de721e"/><path d="M56.93,49.54a12.56,12.56,0,0,0,.66-2.4,23.69,23.69,0,0,0,.11-2.38,23.76,23.76,0,0,1,.08,2.39,8.22,8.22,0,0,1-.22,1.91A1.19,1.19,0,0,1,56.93,49.54Z" fill="#de721e"/><path d="M58.54,48.41A10.46,10.46,0,0,0,59,44.82a6.1,6.1,0,0,1,.19,1.8,5.14,5.14,0,0,1-.14,1A4.2,4.2,0,0,1,58.54,48.41Z" fill="#de721e"/><path d="M14.33,28.29a15.79,15.79,0,0,0-2.41,6.56c-.07.55-.11,1-.14,1.47a7.31,7.31,0,0,0-.36-.84c-1.18-2.35-3.69-7.35-3.6-9a6.64,6.64,0,0,1,1-3.4,14.05,14.05,0,0,0,1.44-3.48s-.57-1.87-2,1.19c-.23.48-.53-1.87-.59-3-.06-1.47.13-2-.63-2-.21,0-.74.1-.65,0a.82.82,0,0,0-1.22.1,1.94,1.94,0,0,0-.51.71,1.23,1.23,0,0,0-.8,1.09,9.07,9.07,0,0,0-.55.73c-1,1.4-1.64,3.35.11,7.22.88,1.94.63,4.12.87,5.75A46,46,0,0,0,6.64,41c1.13,2.49,5.43,5.48,5.43,5.48s3.49-2.48,6.24-8.82a70.42,70.42,0,0,0,4.1-14.34S16,19.58,14.33,28.29Z" fill="url(#Smiley_face-4)"/><path d="M11.83,35.66a4.09,4.09,0,0,1,.15,4,5.86,5.86,0,0,0-.2-3.36Z" fill="#de721e"/><path d="M3.84,17.65c.87,0,.7.67.69.83-.09.69-.91,1.72-.53,3-.54-1.23.18-2.43.17-3a.44.44,0,0,0-.72-.33Z" fill="#de721e"/><path d="M4.64,16.56c1.2,0,.42,1.58.6,3.91A16.85,16.85,0,0,1,5,17.39c0-.3-.67-.6-1-.21A.94.94,0,0,1,4.64,16.56Z" fill="#de721e"/><path d="M5.57,15.57c.26-.06.67-.13.86.17s-.12,2,.11,4.44c-.41-2.34-.26-4.06-.44-4.22a.88.88,0,0,0-1,0A1.26,1.26,0,0,1,5.57,15.57Z" fill="#de721e"/><path d="M8.2,20.85A2.76,2.76,0,0,0,6,24.35c-.57-1.46-.29-3.45,2-3.94Z" fill="#de721e"/><path d="M20.25,32.3l-.19-.63L15,30l-1.41-.4c-.13.24-.26.52-.4.82A7.27,7.27,0,0,0,15.32,33a22.56,22.56,0,0,0,1.54,7.61,30.1,30.1,0,0,0,1.45-2.9A50.89,50.89,0,0,0,20.25,32.3Z" fill="#de721e"/><path d="M21.55,24.11,31.12,17a11.13,11.13,0,0,0-2.43.22c-2.47-.42-2.62-3.81-2.62-3.81l-5.85,2.46a48.26,48.26,0,0,0,1.23,6.06A7.58,7.58,0,0,1,21.55,24.11Z" fill="url(#Smiley_face-5)"/><path d="M25.32,14.4l-5,1.93c.09.67.23,1.44.43,2.37A11.87,11.87,0,0,0,24,17.65C24.94,17,25.32,14.4,25.32,14.4Z" fill="#de721e"/><path d="M21.87,2.13c-3.13.42-7.09,2.29-6.59,6l.17,1.24a2,2,0,0,1-.14,1,11.88,11.88,0,0,1-.61,1.27c-.27.44-.92,1.2-.6,1.71.16.27,1.4.36,1.4.36.54.68.79,3.62.79,3.62s.49,1.6,1.26,1.49,4.3-.77,6-2.32c2.86-2.63,6.86-4.44,6.06-10.33C29.14,2.78,24.84,1.73,21.87,2.13Z" fill="url(#Smiley_face-6)"/><path d="M16.29,5.28s-.34.83,1.62.78,3-.2,3.48.4.26,4.34.26,4.34l1-.38s.94-3,2.37-2.28-.16,4.33-.37,4.84a2.28,2.28,0,0,0,1.63,2.47l1.54,0,.17-1a1.33,1.33,0,0,0,1,.31c-.27-.93.74-1.82,1.27-3.1A7.14,7.14,0,0,0,31,7.19c-.12-1-.3-8.34-10-7-2.49.33-6.74,2.39-6.29,5.69,0,.24.72.56.72.56Z" fill="url(#linear-gradient)"/><ellipse cx="18.51" cy="12.19" rx="3.06" ry="2.79" transform="translate(-1.47 2.59) rotate(-7.7)" fill="url(#radial-gradient)"/><path d="M15.71,8.47a4.11,4.11,0,0,1,.82-.26,4.05,4.05,0,0,1,.66-.09A2.38,2.38,0,0,1,19.13,9a.1.1,0,0,1-.1.1H19a3.62,3.62,0,0,0-1.61-.37c-.43,0-.57.12-1.07.13a1.89,1.89,0,0,1-.57-.05.14.14,0,0,1-.11-.14.13.13,0,0,1,.08-.14Z" fill="#2b201a"/><circle cx="17.34" cy="9.9" r="0.85" transform="translate(-1.17 2.41) rotate(-7.7)" fill="#2b201a"/><path d="M17.32,15.9a4.27,4.27,0,0,1-1.21,0c0-.14-.05-.27-.09-.47a4,4,0,0,0,3.58-1.06c.09-.1.09-.14.19,0s.06.14,0,.24A3.79,3.79,0,0,1,17.32,15.9Z" fill="#2b201a"/><path d="M14.1,13.41c.16.27,1.4.36,1.4.36l0,0,.5-.16A7,7,0,0,0,14.1,13.41Z" fill="#de721e"/><path d="M13.25,30.14c.3,1.73,5.92,4.18,5.92,4.18l2-11.11s.39-1.06-.45-.95c-2.08.28-5.25-.19-6.47,6A9.57,9.57,0,0,0,13.25,30.14Z" fill="url(#_3ds_Corporate_blue_gradient)"/><path d="M23.61,20.44a6.24,6.24,0,0,1-2,2.4l-.13-1s-1.36.44-3,2.79c-2,2.89-3.28,7.38-1.93,11.14s3.65,7.61,4,10.67.84,6.33,2.16,8.85.93,1.53.93,1.53l15.75-5.59a12.38,12.38,0,0,1-1.72-2.1c-.35-.49-1.37-1.3-1.65-2A11.38,11.38,0,0,1,35.35,41c.57-3.24,1.63-5.16,2.14-8.1a31.11,31.11,0,0,0,.32-6.17s1.66.25,2.56.32c0,0,2.82-5.84-.12-9.46a50,50,0,0,1-8.13-.69C31.25,16.69,25.65,16.91,23.61,20.44Z" fill="url(#_3ds_Corporate_blue_gradient-2)"/><path d="M35.09,26.85c-.6.51-5.27,5.59-10.59,5.33,0,0,4.43,1.16,7.92-.58l3.48-1.74a12.62,12.62,0,0,1-4.64,4.66s4.08-.1,4.75-.93a25.33,25.33,0,0,0-2.48,8c-.54,4.44,0,5.94,0,5.94l1.52.25-4.13,1.29,6.36,3,2.09-.75a12.38,12.38,0,0,1-1.72-2.1c-.35-.49-1.37-1.3-1.65-2A11.38,11.38,0,0,1,35.35,41c.57-3.24,1.63-5.16,2.14-8.1a31.11,31.11,0,0,0,.32-6.17S35.7,26.34,35.09,26.85Z" fill="#003c5a"/><path d="M27,66.37S33.94,76.61,38.75,80A42.14,42.14,0,0,1,50,71.71a47.69,47.69,0,0,0-5.36-7.26c-2.91-2.93-3.43-4.49-3.76-6Z" fill="url(#linear-gradient-2)"/><path d="M28.71,65.4c-.53.42-1,.84-1.52,1.25.36.53,1.23,1.77,2.39,3.32a25.75,25.75,0,0,0,10-3.54,6.61,6.61,0,0,0,2.95-4.38,9.59,9.59,0,0,1-1.32-2.33l-3.17.37Z" fill="#2b201a"/><path d="M11.89,57.84s-.14,9.53,5.06,15c0,0,4.14-.76,8.16-1.54S36,68,39,64.45s3.72-8.67-.45-12.93a19.49,19.49,0,0,1-5.44.3c-2.34-.33-7.21,1.86-8.26,2.55s-1.23.84-1.23.84S18.51,54.55,11.89,57.84Z" fill="url(#linear-gradient-3)"/><path d="M12.85,64.94l-.25-1a58.25,58.25,0,0,1,9.8-1.32,42.12,42.12,0,0,0,7-.9c2.91-.82,4.43-2.38,4.16-4.26a37.25,37.25,0,0,0-1.84-5.64l1.08,0a35,35,0,0,1,1.75,5.53c.13.9.14,3.94-4.88,5.37a42.82,42.82,0,0,1-7.18.93A56.57,56.57,0,0,0,12.85,64.94Z" fill="#2b201a"/><path d="M7,108.64s.69.06,2.88,0c2.34,0,4.15.06,6.2-1.86a63.11,63.11,0,0,1,6-4.61s3.54-2,4-2.94-1.25-3.05-2.95-4.49S21,93,21,93a1.75,1.75,0,0,0-.74.74c-.4.67-.23,1.87-.92,2-1.32.18-5.58-.27-6.69.36a16,16,0,0,1,.47,2.31s-.41,1.07-1.5,3.45a9.47,9.47,0,0,1-3.88,4.54A2,2,0,0,0,7,108.64Z" fill="url(#Light_grey_gradient)"/><path d="M26,99.26c.27-.55-.23-1.53-1-2.53a2.12,2.12,0,0,1,0,1.76c-.53,1.33-3.84,3.37-7.22,6.1-2.55,2-3.84,3.29-7,3.29-2,0-3.2,0-3.87.05a1.91,1.91,0,0,0,.1.71l.12.34s.39.38,2.58.3c2.36-.08,4.78,0,6.82-1.89S25.59,100.19,26,99.26Z" fill="#2b201a"/><path d="M13.65,103.86a.5.5,0,0,0,0-1l-2.46-.27a10.8,10.8,0,0,1-.56,1l2.91.31Z" fill="#2b201a"/><path d="M14.23,102.33h0a.5.5,0,0,0,0-1l-2.38-.13-.25.57c-.06.13-.13.25-.18.37a.34.34,0,0,0,.17,0Z" fill="#2b201a"/><path d="M14.86,100.81a.51.51,0,0,0,.5-.48.5.5,0,0,0-.47-.52l-2.31-.12-.43,1,2.68.14Z" fill="#2b201a"/><path d="M15.31,99.33a.5.5,0,0,0,0-1l-2.22-.14a.78.78,0,0,1,0,.14s-.1.27-.34.85l2.48.15Z" fill="#2b201a"/><path d="M77.37,120l.34.1s.5-.12,1.76-1.92,2.83-3.85,2.48-6.64-2.53-5.08-1.73-6A8,8,0,0,0,81.33,104s.16-4.09-.33-5-3.2-.78-5.36-.24-2.7.62-2.7.62a1.76,1.76,0,0,0,.17,1c.3.72,1.37,1.29,1,1.9-.64,1.18-3.51,4.37-3.65,5.64a14.75,14.75,0,0,1,2.15,1s.62,1,1.9,3.24A9.45,9.45,0,0,1,75.94,118,2,2,0,0,0,77.37,120Z" fill="url(#Light_grey_gradient-2)"/><path d="M81,99c-.29-.54-1.37-.71-2.64-.65a12.7,12.7,0,0,0,.92,1.49,7.94,7.94,0,0,1,.37,5c-.5,1.77-.22,1.32.36,4.54s.84,4.45-1,7c-1.15,1.58-1.86,2.6-2.25,3.16a2.12,2.12,0,0,0,.65.34l.34,0s.53,0,1.76-1.87,2.83-3.85,2.48-6.64-2.53-5.08-1.73-6A8,8,0,0,0,81.33,104S81.49,99.93,81,99Z" fill="#2b201a"/><path d="M77.43,111.78a.51.51,0,0,0-.07-.67.49.49,0,0,0-.7,0L75,113a9.41,9.41,0,0,1,.43,1l2-2.17Z" fill="#2b201a"/><path d="M76.54,110.41v0a.5.5,0,0,0-.79-.6l-1.5,1.85.31.54.2.37a.53.53,0,0,0,.14-.12Z" fill="#2b201a"/><path d="M75.68,109a.5.5,0,0,0-.8-.6l-1.45,1.8.54.92L75.66,109Z" fill="#2b201a"/><path d="M74.74,107.76a.5.5,0,0,0-.08-.68.52.52,0,0,0-.71.07l-1.4,1.71.12.07.48.78,1.57-1.92Z" fill="#2b201a"/></g></g></g></svg>