<svg xmlns="http://www.w3.org/2000/svg" xmlns:xlink="http://www.w3.org/1999/xlink" viewBox="0 0 120 100"><defs><linearGradient id="linear-gradient" x1="82" x2="82" y2="100" gradientUnits="userSpaceOnUse"><stop offset="0" stop-color="#ffd52d"/><stop offset="1" stop-color="#ff9a1a"/></linearGradient><linearGradient id="Light_grey_gradient" x1="32" y1="40" x2="32" y2="96" gradientUnits="userSpaceOnUse"><stop offset="0" stop-color="#f4f5f6"/><stop offset="1" stop-color="#d1d4d4"/></linearGradient><linearGradient id="_3ds_Corporate_blue_gradient" x1="16" y1="36" x2="16" y2="100" gradientUnits="userSpaceOnUse"><stop offset="0" stop-color="#005686"/><stop offset="1" stop-color="#003c5a"/></linearGradient></defs><title>1F44D</title><g id="Layer_2" data-name="Layer 2"><g id="thumbs_up_U_1F44D" data-name="thumbs_up_U+1F44D"><g id="_1F44D" data-name="1F44D"><path d="M117.5,43.62A8.92,8.92,0,0,0,108.75,36H88V20c0-6.87-3.62-20-12-20-4.17,0-4,5.61-4,8,0,7.22-.84,30-28,37.37V92H56.25a10.05,10.05,0,0,1,5.88,2.07A23.6,23.6,0,0,0,77.5,100h10a23.17,23.17,0,0,0,21.25-13.25L119.12,65.5a9.3,9.3,0,0,0,.88-3.75C120,59.88,117.76,45.52,117.5,43.62Z" fill="url(#linear-gradient)"/><polygon points="48 92 40 92 40 46.52 48 44.2 48 92" fill="#de721e"/><rect x="20" y="40" width="24" height="56" fill="url(#Light_grey_gradient)"/><path d="M0,100H31a1,1,0,0,0,1-1V37a1,1,0,0,0-1-1H0Z" fill="url(#_3ds_Corporate_blue_gradient)"/><circle cx="16" cy="88" r="6" fill="#d1d4d4"/></g></g></g></svg>