<svg xmlns="http://www.w3.org/2000/svg" xmlns:xlink="http://www.w3.org/1999/xlink" viewBox="0 0 116 120"><defs><linearGradient id="linear-gradient" x1="58" y1="120" x2="58" gradientUnits="userSpaceOnUse"><stop offset="0" stop-color="#ff9a1a"/><stop offset="1" stop-color="#ffd52d"/></linearGradient><symbol id="Smiley_shape" data-name="Smiley shape" viewBox="0 0 116 120"><path d="M110.33,30C102.78,17,76.13,0,58,0S13.22,17,5.67,30s-7.56,47,0,60S39.87,120,58,120s44.78-17,52.33-30S117.89,43,110.33,30Z" fill="url(#linear-gradient)"/></symbol><symbol id="Smiley_eyes" data-name="Smiley eyes" viewBox="0 0 56 24"><rect width="16" height="24" rx="8" fill="#2b201a"/><circle cx="11" cy="5" r="3" fill="#af9d94"/><rect x="40" width="16" height="24" rx="8" fill="#2b201a"/><circle cx="51" cy="5" r="3" fill="#af9d94"/></symbol></defs><title>1F600</title><g id="Layer_2" data-name="Layer 2"><g id="grinning_face_U_1F600" data-name="grinning_face_U+1F600"><g id="_1F600" data-name="1F600"><use width="116" height="120" xlink:href="#Smiley_shape"/><use width="56" height="24" transform="translate(30 36)" xlink:href="#Smiley_eyes"/><path d="M22,72H94c0,13.71-12.43,32-36,32S22,85.71,22,72Z" fill="#de721e"/><path d="M92.31,80H23.68C27.8,90.08,39.44,100,58,100s30.24-9.88,34.34-20Z" fill="#2b201a"/><path d="M82.64,92.36C76.2,89.66,67.54,88,58,88s-18.17,1.66-24.61,4.34C39.35,96.87,47.58,100,58,100S76.68,96.88,82.64,92.36Z" fill="#fc4a3a"/><path d="M23.71,80h68.6A21.49,21.49,0,0,0,94,72H22A21.42,21.42,0,0,0,23.71,80Z" fill="#fff"/></g></g></g></svg>