<svg xmlns="http://www.w3.org/2000/svg" xmlns:xlink="http://www.w3.org/1999/xlink" viewBox="0 0 116 120"><defs><linearGradient id="linear-gradient" x1="58" y1="120" x2="58" gradientUnits="userSpaceOnUse"><stop offset="0" stop-color="#ff9a1a"/><stop offset="1" stop-color="#ffd52d"/></linearGradient><radialGradient id="radial-gradient" cx="61.66" cy="27.88" r="26.6" gradientTransform="translate(0 6.94) scale(1 0.75)" gradientUnits="userSpaceOnUse"><stop offset="0.74" stop-color="#ff7149" stop-opacity="0"/><stop offset="1" stop-color="#ff7149"/></radialGradient><radialGradient id="radial-gradient-2" cx="17.66" cy="27.88" r="26.6" xlink:href="#radial-gradient"/><symbol id="Smiley_shape" data-name="Smiley shape" viewBox="0 0 116 120"><path d="M110.33,30C102.78,17,76.13,0,58,0S13.22,17,5.67,30s-7.56,47,0,60S39.87,120,58,120s44.78-17,52.33-30S117.89,43,110.33,30Z" fill="url(#linear-gradient)"/></symbol><symbol id="Smiley_smiling_eyes" data-name="Smiley smiling eyes" viewBox="0 0 80 27.74"><path d="M80,27.74H44s.32-20,18-20S80,27.74,80,27.74Z" fill="url(#radial-gradient)"/><path d="M36,27.74H0s.32-20,18-20S36,27.74,36,27.74Z" fill="url(#radial-gradient-2)"/><path d="M18,7.74c7.13,0,11.44,3.26,14,7.15,0-.27,0-.54,0-.81C32.08,6.3,28,0,18,0S3.92,6.3,3.92,14.08c0,.27,0,.54,0,.81C6.56,11,10.87,7.74,18,7.74Z" fill="#2b201a"/><path d="M62,7.74c7.13,0,11.44,3.26,14,7.15,0-.27,0-.54,0-.81C76.08,6.3,72,0,62,0S47.92,6.3,47.92,14.08c0,.27,0,.54,0,.81C50.56,11,54.87,7.74,62,7.74Z" fill="#2b201a"/></symbol></defs><title>1F604</title><g id="Layer_2" data-name="Layer 2"><g id="grinning_face_with_smiling_eyes_U_1F604" data-name="grinning_face_with_smiling_eyes_U+1F604"><g id="_1F604" data-name="1F604"><use width="116" height="120" xlink:href="#Smiley_shape"/><path d="M22,67H94c0,13.71-12.43,32-36,32S22,80.71,22,67Z" fill="#de721e"/><path d="M92.31,75H23.68C27.8,85.08,39.44,95,58,95s30.24-9.88,34.34-20Z" fill="#2b201a"/><path d="M82.64,87.36C76.2,84.66,67.54,83,58,83s-18.17,1.66-24.61,4.34C39.35,91.87,47.58,95,58,95S76.68,91.88,82.64,87.36Z" fill="#fc4a3a"/><path d="M23.71,75h68.6A21.49,21.49,0,0,0,94,67H22A21.42,21.42,0,0,0,23.71,75Z" fill="#fff"/><use width="80" height="27.74" transform="translate(18 35)" xlink:href="#Smiley_smiling_eyes"/></g></g></g></svg>