<svg xmlns="http://www.w3.org/2000/svg" xmlns:xlink="http://www.w3.org/1999/xlink" viewBox="0 0 116 120"><defs><linearGradient id="linear-gradient" x1="58" y1="120" x2="58" gradientUnits="userSpaceOnUse"><stop offset="0" stop-color="#ff9a1a"/><stop offset="1" stop-color="#ffd52d"/></linearGradient><linearGradient id="_3ds_Corporate_blue_gradient" x1="58" y1="32.36" x2="58" y2="72.57" gradientUnits="userSpaceOnUse"><stop offset="0" stop-color="#005686"/><stop offset="1" stop-color="#003c5a"/></linearGradient><symbol id="Smiley_shape" data-name="Smiley shape" viewBox="0 0 116 120"><path d="M110.33,30C102.78,17,76.13,0,58,0S13.22,17,5.67,30s-7.56,47,0,60S39.87,120,58,120s44.78-17,52.33-30S117.89,43,110.33,30Z" fill="url(#linear-gradient)"/></symbol></defs><title>1F60E</title><g id="Layer_2" data-name="Layer 2"><g id="smiling_face_with_sunglasses_U_1F60E" data-name="smiling_face_with_sunglasses_U+1F60E"><g id="_1F60E" data-name="1F60E"><use width="116" height="120" xlink:href="#Smiley_shape"/><path d="M93.2,33.63C73.46,33.63,64,37.2,58,37.2s-15.46-3.57-35.2-3.57C11,33.63,2,41.54,2,41.54c.16,1.4,1.32,11.77,1.56,14,1.24,11.54,5.1,18.57,22,18.57,7.52,0,16.45-.43,21.15-7.9a53.49,53.49,0,0,0,7-16.73c.33-2,1.55-3.9,4.18-3.9s3.85,1.88,4.18,3.9A53.49,53.49,0,0,0,69.23,66.2c4.7,7.47,13.63,7.9,21.15,7.9,16.94,0,20.8-7,22-18.57.24-2.21,1.38-13.1,1.53-14.5C114,41,105,33.63,93.2,33.63Z" fill="#de721e"/><path d="M114,33.72a103.32,103.32,0,0,0-20.8-2.07C73.45,31.65,64,35.22,58,35.22s-15.45-3.57-35.17-3.57A103.32,103.32,0,0,0,2,33.72l-1.69.34,0,7.73s1.57-.07,1.88.71c.14.37.31,1.33,1.36,11,1.24,11.53,5.09,18.55,22,18.55,7.51,0,16.43-.42,21.13-7.89a53.61,53.61,0,0,0,7-16.72c.33-2,1.55-3.89,4.18-3.89s3.85,1.88,4.18,3.89a53.61,53.61,0,0,0,7,16.72c4.7,7.47,13.62,7.89,21.13,7.89,16.93,0,20.78-7,22-18.55,1-9.7,1.22-10.66,1.36-11,.31-.78,1.93-.52,1.93-.52V34.06Z" fill="url(#_3ds_Corporate_blue_gradient)"/><path d="M27.22,34.63c10.21,0,19.21,1.79,22.35,5.24s.19,13.4-2,17.63-5.35,12.72-21.9,12.72-17.49-10.47-18.2-16-1-14.86,2.82-17.19C13.32,35.26,16.92,34.63,27.22,34.63Z" fill="#2b201a"/><path d="M88.78,34.63c-10.21,0-19.21,1.79-22.35,5.24s-.19,13.4,1.95,17.63,5.35,12.72,21.9,12.72,17.49-10.47,18.2-16,1-14.86-2.82-17.19C102.68,35.26,99.08,34.63,88.78,34.63Z" fill="#2b201a"/><path d="M46.19,41.42c3.12,3.12,2.81,8.78-.3,11.89s-8.21-.52-11.33-3.64-5.31-6.83-2.19-9.94S43.08,38.31,46.19,41.42Z" fill="#af9d94"/><path d="M104.66,40.14c3.12,3.12,2.82,8.78-.3,11.89S96.15,51.51,93,48.39s-5.31-6.82-2.19-9.94S101.55,37,104.66,40.14Z" fill="#af9d94"/><path d="M30,75c8.79,5.12,17.44,8.51,28,8.51S77.08,80.2,86,75c-3.58,9.58-14.72,17.51-27.91,17.51H58C44.89,92.54,33.65,84.74,30,75Z" fill="#2b201a"/></g></g></g></svg>