<svg xmlns="http://www.w3.org/2000/svg" xmlns:xlink="http://www.w3.org/1999/xlink" viewBox="0 0 116 120"><defs><linearGradient id="linear-gradient" x1="58" y1="120" x2="58" gradientUnits="userSpaceOnUse"><stop offset="0" stop-color="#ff9a1a"/><stop offset="1" stop-color="#ffd52d"/></linearGradient><radialGradient id="radial-gradient" cx="80.87" cy="66.79" r="34.75" gradientTransform="translate(2.79 28.67) rotate(4.57) scale(1 0.48)" gradientUnits="userSpaceOnUse"><stop offset="0.74" stop-color="#ff7149" stop-opacity="0"/><stop offset="1" stop-color="#ff7149"/></radialGradient><symbol id="Smiley_shape" data-name="Smiley shape" viewBox="0 0 116 120"><path d="M110.33,30C102.78,17,76.13,0,58,0S13.22,17,5.67,30s-7.56,47,0,60S39.87,120,58,120s44.78-17,52.33-30S117.89,43,110.33,30Z" fill="url(#linear-gradient)"/></symbol></defs><title>1F609</title><g id="Layer_2" data-name="Layer 2"><g id="winking_face_U_1F609" data-name="winking_face_U+1F609"><g id="_1F609" data-name="1F609"><use width="116" height="120" xlink:href="#Smiley_shape"/><rect x="30" y="36" width="16" height="24" rx="8" fill="#2b201a"/><circle cx="41" cy="41" r="3" fill="#af9d94"/><path d="M103.9,70.11,56.2,68s6.33-17.87,24-17.87S103.9,70.11,103.9,70.11Z" fill="url(#radial-gradient)"/><path d="M96,57c-1-6.3-8.37-12.29-16.52-12.29a14.35,14.35,0,0,0-5.83,1.26c1.43-3.07,3.23-6.11,12.63-10.43a14.36,14.36,0,0,0-4-.57c-9.51,0-16.84,8.09-16.84,17.35a15.26,15.26,0,0,0,.26,2.85,25.26,25.26,0,0,1,14.56-5C86.58,50.13,91.37,52.62,96,57Z" fill="#2b201a"/><path d="M33.83,78.77a48,48,0,0,0,20.46,4.41c13.33,0,27.48-5.17,36.41-17.76C88.42,82.87,74.48,92.54,58.09,92.54H58C47.48,92.54,36.91,86.25,33.83,78.77Z" fill="#2b201a"/></g></g></g></svg>