<svg xmlns="http://www.w3.org/2000/svg" xmlns:xlink="http://www.w3.org/1999/xlink" viewBox="0 0 116 120.01"><defs><linearGradient id="linear-gradient" x1="58" y1="120" x2="58" gradientUnits="userSpaceOnUse"><stop offset="0" stop-color="#ff9a1a"/><stop offset="1" stop-color="#ffd52d"/></linearGradient><radialGradient id="radial-gradient" cx="80.87" cy="66.79" r="34.75" gradientTransform="translate(2.79 28.67) rotate(4.57) scale(1 0.48)" gradientUnits="userSpaceOnUse"><stop offset="0.74" stop-color="#ff7149" stop-opacity="0"/><stop offset="1" stop-color="#ff7149"/></radialGradient><radialGradient id="radial-gradient-2" cx="58" cy="101.48" r="41.23" gradientTransform="translate(0 54.55) scale(1 0.46)" gradientUnits="userSpaceOnUse"><stop offset="0.21" stop-color="#fc4a3a"/><stop offset="0.52" stop-color="#fa4838"/><stop offset="0.67" stop-color="#f54032"/><stop offset="0.79" stop-color="#eb3327"/><stop offset="0.89" stop-color="#dd2018"/><stop offset="0.98" stop-color="#cb0804"/><stop offset="1" stop-color="#c70300"/></radialGradient><symbol id="Smiley_shape" data-name="Smiley shape" viewBox="0 0 116 120"><path d="M110.33,30C102.78,17,76.13,0,58,0S13.22,17,5.67,30s-7.56,47,0,60S39.87,120,58,120s44.78-17,52.33-30S117.89,43,110.33,30Z" fill="url(#linear-gradient)"/></symbol></defs><title>1F61C</title><g id="Layer_2" data-name="Layer 2"><g id="winking_face_with_tongue_U_1F61C" data-name="winking_face_with_tongue_U+1F61C"><g id="_1F61C" data-name="1F61C"><use width="116" height="120" xlink:href="#Smiley_shape"/><rect x="30" y="36" width="16" height="24" rx="8" fill="#2b201a"/><circle cx="41" cy="41" r="3" fill="#af9d94"/><path d="M103.9,70.11,56.2,68s6.33-17.87,24-17.87S103.9,70.11,103.9,70.11Z" fill="url(#radial-gradient)"/><path d="M96,57c-1-6.3-8.37-12.29-16.52-12.29a14.35,14.35,0,0,0-5.83,1.26c1.43-3.07,3.23-6.11,12.63-10.43a14.36,14.36,0,0,0-4-.57c-9.51,0-16.84,8.09-16.84,17.35a15.26,15.26,0,0,0,.26,2.85,25.26,25.26,0,0,1,14.56-5C86.58,50.13,91.37,52.62,96,57Z" fill="#2b201a"/><path d="M28.68,75,58,88l29.3-13a4,4,0,0,1,5.47,4.77C89.15,91.72,77.32,104,58,104S26.85,91.72,23.21,79.74A4,4,0,0,1,28.68,75Z" fill="#de721e"/><path d="M92.34,80a5.36,5.36,0,0,0-6.21-7c-7.7,1.7-16.25,5-28.11,5s-20.39-3.28-28.08-5a5.37,5.37,0,0,0-6.26,7h0C27.8,90.08,39.44,100,58,100s30.24-9.88,34.34-20Z" fill="#2b201a"/><path d="M58,81a71.93,71.93,0,0,1-16-1.86,2,2,0,0,0-2.43,2v24.84a10.1,10.1,0,0,0,2.87,7C46.9,117.5,52.35,120,58,120h0c5.64,0,11.08-2.51,15.5-7.06a10.1,10.1,0,0,0,2.87-7V81.09a2,2,0,0,0-2.43-2A71.65,71.65,0,0,1,58,81Z" fill="url(#radial-gradient-2)"/><path d="M56.9,81a28.21,28.21,0,0,0-.36,5.18c0,2.72.35,5.43.43,8.15l.23,8.16c0,1.36.09,2.72.16,4.08l.1,2a4.56,4.56,0,0,0,.44,2l.05,0a.11.11,0,0,0,.15,0,4.44,4.44,0,0,0,.45-2l.1-2c.07-1.36.11-2.72.16-4.08L59,94.31c.08-2.72.39-5.43.42-8.15A28.2,28.2,0,0,0,59.11,81L58,81Z" fill="#c70300"/></g></g></g></svg>