<svg xmlns="http://www.w3.org/2000/svg" xmlns:xlink="http://www.w3.org/1999/xlink" viewBox="0 0 116 120"><defs><linearGradient id="linear-gradient" x1="58" y1="120" x2="58" gradientUnits="userSpaceOnUse"><stop offset="0" stop-color="#c70300"/><stop offset="0.57" stop-color="#e63522"/><stop offset="1" stop-color="#ff5d3d"/></linearGradient><radialGradient id="radial-gradient" cx="38.11" cy="46.86" r="18.2" gradientTransform="translate(14.97 -2.07) rotate(19.45) scale(1 0.82)" gradientUnits="userSpaceOnUse"><stop offset="0" stop-color="#c70300"/><stop offset="0.13" stop-color="#c70300" stop-opacity="0.98"/><stop offset="0.27" stop-color="#c70300" stop-opacity="0.91"/><stop offset="0.42" stop-color="#c70300" stop-opacity="0.79"/><stop offset="0.57" stop-color="#c70300" stop-opacity="0.63"/><stop offset="0.73" stop-color="#c70300" stop-opacity="0.43"/><stop offset="0.9" stop-color="#c70300" stop-opacity="0.18"/><stop offset="1" stop-color="#c70300" stop-opacity="0"/></radialGradient><radialGradient id="radial-gradient-2" cx="3122.87" cy="46.86" r="18.2" gradientTransform="matrix(-0.94, 0.33, 0.27, 0.77, 3009.66, -1029.5)" xlink:href="#radial-gradient"/><symbol id="Red_smiley_shape" data-name="Red smiley shape" viewBox="0 0 116 120"><path d="M110.33,30C102.78,17,76.13,0,58,0S13.22,17,5.67,30s-7.56,47,0,60S39.87,120,58,120s44.78-17,52.33-30S117.89,43,110.33,30Z" fill="url(#linear-gradient)"/></symbol><symbol id="Smiley_eyes" data-name="Smiley eyes" viewBox="0 0 56 24"><rect width="16" height="24" rx="8" fill="#2b201a"/><circle cx="11" cy="5" r="3" fill="#af9d94"/><rect x="40" width="16" height="24" rx="8" fill="#2b201a"/><circle cx="51" cy="5" r="3" fill="#af9d94"/></symbol></defs><title>1F620</title><g id="Layer_2" data-name="Layer 2"><g id="angry_face_U_1F620" data-name="angry_face_U+1F620"><g id="_1F620" data-name="1F620"><use width="116" height="120" xlink:href="#Red_smiley_shape"/><use width="56" height="24" transform="translate(30 44)" xlink:href="#Smiley_eyes"/><circle cx="81" cy="49.25" r="3.25" fill="#2b201a"/><path d="M30,97.49a20.25,20.25,0,0,1,3.24-8.63,28.79,28.79,0,0,1,6.38-7,30.68,30.68,0,0,1,18.21-6.72A28.72,28.72,0,0,1,67.7,77a32,32,0,0,1,8.45,4.63,29,29,0,0,1,6.49,6.88A20.28,20.28,0,0,1,86,97.07a48.07,48.07,0,0,0-13.88-8.72,38.67,38.67,0,0,0-14.21-3.19,38.36,38.36,0,0,0-14.17,3.39A47.74,47.74,0,0,0,30,97.49Z" fill="#2b201a"/><path d="M18,44.82a18.54,18.54,0,0,1,37,2.39s-3.34,10.61-21.21-4.29C26.94,39.12,18,44.82,18,44.82Z" fill="url(#radial-gradient)"/><path d="M98,44.82a18.54,18.54,0,0,0-37,2.39s3.35,10.61,21.22-4.29C89.05,39.12,98,44.82,98,44.82Z" fill="url(#radial-gradient-2)"/><path d="M18,44.82a15.17,15.17,0,0,1,4.67-3.31A16.6,16.6,0,0,1,28.41,40a18.1,18.1,0,0,1,6.12.64A24.48,24.48,0,0,1,39.91,43c1.6.9,3,1.85,4.24,2.65a32.39,32.39,0,0,0,3.32,2,12.89,12.89,0,0,0,3.69,1.08,5.75,5.75,0,0,0,1.94,0A2.89,2.89,0,0,0,55,47.21a3.36,3.36,0,0,1,.07,3.24,6.63,6.63,0,0,1-2.37,2.63,11.19,11.19,0,0,1-6.44,1.78A16.45,16.45,0,0,1,40,53.25a51.34,51.34,0,0,1-4.61-2.51,38.81,38.81,0,0,0-7.67-3.81C25,45.93,21.81,45.51,18,44.82Z" fill="#2b201a"/><path d="M98,44.82c-3.81.69-7,1.11-9.76,2.11a38.81,38.81,0,0,0-7.67,3.81A51.34,51.34,0,0,1,76,53.25a16.4,16.4,0,0,1-6.22,1.61,11.23,11.23,0,0,1-6.44-1.78,6.71,6.71,0,0,1-2.37-2.63A3.39,3.39,0,0,1,61,47.21a2.89,2.89,0,0,0,1.9,1.41,5.8,5.8,0,0,0,2,0,12.82,12.82,0,0,0,3.68-1.08,33.53,33.53,0,0,0,3.33-2c1.24-.8,2.64-1.75,4.24-2.65a24.27,24.27,0,0,1,5.38-2.29A18,18,0,0,1,87.58,40a16.6,16.6,0,0,1,5.74,1.49A14.93,14.93,0,0,1,98,44.82Z" fill="#2b201a"/></g></g></g></svg>