<svg xmlns="http://www.w3.org/2000/svg" xmlns:xlink="http://www.w3.org/1999/xlink" viewBox="0 0 116 120"><defs><linearGradient id="linear-gradient" x1="58" y1="120" x2="58" gradientUnits="userSpaceOnUse"><stop offset="0" stop-color="#ff9a1a"/><stop offset="1" stop-color="#ffd52d"/></linearGradient><radialGradient id="radial-gradient" cx="30" cy="65.37" r="15.14" gradientTransform="translate(0 -19.99) scale(1 1.31)" gradientUnits="userSpaceOnUse"><stop offset="0" stop-color="#de721e"/><stop offset="0.09" stop-color="#de721e" stop-opacity="0.96"/><stop offset="0.25" stop-color="#de721e" stop-opacity="0.85"/><stop offset="0.44" stop-color="#de721e" stop-opacity="0.68"/><stop offset="0.66" stop-color="#de721e" stop-opacity="0.43"/><stop offset="0.91" stop-color="#de721e" stop-opacity="0.13"/><stop offset="1" stop-color="#de721e" stop-opacity="0"/></radialGradient><radialGradient id="radial-gradient-2" cx="4027" cy="65.37" r="15.14" gradientTransform="matrix(-1, 0, 0, 1.31, 4112.74, -19.99)" xlink:href="#radial-gradient"/><linearGradient id="linear-gradient-2" x1="89.82" y1="-534.23" x2="80.31" y2="-491.07" gradientTransform="translate(47.99 606.33) rotate(-12.45)" gradientUnits="userSpaceOnUse"><stop offset="0" stop-color="#45c2f8"/><stop offset="1" stop-color="#1d8bff"/></linearGradient><symbol id="Smiley_shape" data-name="Smiley shape" viewBox="0 0 116 120"><path d="M110.33,30C102.78,17,76.13,0,58,0S13.22,17,5.67,30s-7.56,47,0,60S39.87,120,58,120s44.78-17,52.33-30S117.89,43,110.33,30Z" fill="url(#linear-gradient)"/></symbol></defs><title>1F622</title><g id="Layer_2" data-name="Layer 2"><g id="crying_face_U_1F622" data-name="crying_face_U+1F622"><g id="_1F622" data-name="1F622"><use width="116" height="120" xlink:href="#Smiley_shape"/><ellipse cx="30" cy="65.37" rx="16.2" ry="20.37" opacity="0.6" fill="url(#radial-gradient)"/><ellipse cx="85.74" cy="65.37" rx="16.2" ry="20.37" opacity="0.6" fill="url(#radial-gradient-2)"/><rect x="70" y="49.2" width="16" height="24" rx="8" fill="#2b201a"/><circle cx="79.28" cy="55.92" r="5.92" fill="#af9d94"/><circle cx="75.16" cy="65.83" r="3.93" fill="#af9d94"/><path d="M78,51.2a6,6,0,0,1,6,6v8a6,6,0,0,1-12,0v-8a6,6,0,0,1,6-6m0-2a8,8,0,0,0-8,8v8a8,8,0,0,0,16,0v-8a8,8,0,0,0-8-8Z" fill="#2b201a"/><rect x="30" y="49.2" width="16" height="24" rx="8" fill="#2b201a"/><circle cx="39.28" cy="55.92" r="5.92" fill="#af9d94"/><circle cx="35.16" cy="65.83" r="3.93" fill="#af9d94"/><path d="M38,51.2a6,6,0,0,1,6,6v8a6,6,0,0,1-12,0v-8a6,6,0,0,1,6-6m0-2a8,8,0,0,0-8,8v8a8,8,0,0,0,16,0v-8a8,8,0,0,0-8-8Z" fill="#2b201a"/><path d="M23.31,51c-3.16,2.86-3.17,4.52-3.71,4.48C19.49,52.41,25,42,38.53,40.66h.07a3,3,0,1,1,.6,6C38.45,46.74,30,45,23.31,51Z" fill="#2b201a"/><path d="M92.79,51C96,53.87,96,55.53,96.5,55.49c.11-3.08-5.44-13.49-18.93-14.83H77.5a3,3,0,0,0-.6,6C77.66,46.74,86.11,45,92.79,51Z" fill="#2b201a"/><path d="M37.41,96.63a8.44,8.44,0,0,1,2.71-5.93A18.82,18.82,0,0,1,45.54,87a28.46,28.46,0,0,1,6-2,32.43,32.43,0,0,1,6.32-.77c1.14,0,2.17.07,3.22.16s2.08.27,3.11.48a29.1,29.1,0,0,1,6.06,1.89,18.87,18.87,0,0,1,5.5,3.62,8.34,8.34,0,0,1,2.82,5.88,11.25,11.25,0,0,0-4.9-2.55,34.15,34.15,0,0,0-5.16-.9c-1.76-.19-3.53-.33-5.32-.42-.89,0-1.78-.11-2.67-.12s-1.78-.06-2.59,0-1.69,0-2.57.09-1.78.11-2.67.16c-1.78.13-3.55.31-5.3.53a35.57,35.57,0,0,0-5.15,1A11.24,11.24,0,0,0,37.41,96.63Z" fill="#de721e"/><path d="M37.41,96.63A13,13,0,0,1,39.31,90a16,16,0,0,1,5.06-5.15,25.28,25.28,0,0,1,13.49-3.72,25.25,25.25,0,0,1,13.55,3.42,15.8,15.8,0,0,1,5.18,5,13,13,0,0,1,2,6.57,21.11,21.11,0,0,0-9.82-5.9,40.17,40.17,0,0,0-10.84-1.13,39.36,39.36,0,0,0-10.79,1.35A21.33,21.33,0,0,0,37.41,96.63Z" fill="#2b201a"/><path d="M35.83,95.17a15.31,15.31,0,0,1-30.62-.43C5.33,86.29,21,62.19,21,62.19S36,86.71,35.83,95.17Z" fill="url(#linear-gradient-2)"/></g></g></g></svg>