<svg xmlns="http://www.w3.org/2000/svg" xmlns:xlink="http://www.w3.org/1999/xlink" viewBox="0 0 116 120"><defs><linearGradient id="linear-gradient" x1="58" y1="120" x2="58" gradientUnits="userSpaceOnUse"><stop offset="0" stop-color="#ff9a1a"/><stop offset="1" stop-color="#ffd52d"/></linearGradient><symbol id="Smiley_shape" data-name="Smiley shape" viewBox="0 0 116 120"><path d="M110.33,30C102.78,17,76.13,0,58,0S13.22,17,5.67,30s-7.56,47,0,60S39.87,120,58,120s44.78-17,52.33-30S117.89,43,110.33,30Z" fill="url(#linear-gradient)"/></symbol><symbol id="Smiley_eyes" data-name="Smiley eyes" viewBox="0 0 56 24"><rect width="16" height="24" rx="8" fill="#2b201a"/><circle cx="11" cy="5" r="3" fill="#af9d94"/><rect x="40" width="16" height="24" rx="8" fill="#2b201a"/><circle cx="51" cy="5" r="3" fill="#af9d94"/></symbol></defs><title>1F642</title><g id="Layer_2" data-name="Layer 2"><g id="slightly_smiling_face_U_1F642" data-name="slightly_smiling_face_U+1F642"><g id="_1F642" data-name="1F642"><use width="116" height="120" xlink:href="#Smiley_shape"/><use width="56" height="24" transform="translate(30 36)" xlink:href="#Smiley_eyes"/><path d="M30,75c8.79,5.12,17.44,8.51,28,8.51S77.08,80.2,86,75c-3.58,9.58-14.72,17.51-27.91,17.51H58C44.89,92.54,33.65,84.74,30,75Z" fill="#2b201a"/></g></g></g></svg>