<svg xmlns="http://www.w3.org/2000/svg" xmlns:xlink="http://www.w3.org/1999/xlink" viewBox="0 0 88 120"><defs><radialGradient id="radial-gradient" cx="44" cy="104" r="32.25" gradientUnits="userSpaceOnUse"><stop offset="0" stop-color="#003c5a"/><stop offset="1" stop-color="#005686"/></radialGradient><linearGradient id="Light_grey_gradient" x1="44" y1="16.32" x2="44" y2="108.69" gradientUnits="userSpaceOnUse"><stop offset="0" stop-color="#f4f5f6"/><stop offset="1" stop-color="#d1d4d4"/></linearGradient><linearGradient id="linear-gradient" x1="44" y1="40.12" x2="44" y2="109.84" gradientUnits="userSpaceOnUse"><stop offset="0" stop-color="#c6ac73"/><stop offset="0.13" stop-color="#be9b64"/><stop offset="0.25" stop-color="#b58852"/><stop offset="0.53" stop-color="#c6ac73"/><stop offset="0.76" stop-color="#be9b64"/><stop offset="0.97" stop-color="#b58852"/></linearGradient><radialGradient id="radial-gradient-2" cx="46.03" cy="10.99" r="46.83" gradientTransform="translate(0 7.28) scale(1 0.34)" xlink:href="#radial-gradient"/></defs><title>23F3</title><g id="Layer_2" data-name="Layer 2"><g id="hourglass_not_done_U_23F3" data-name="hourglass_not_done_U+23F3"><g id="_23F3" data-name="23F3"><path d="M85.44,104c-6-4.66-22.29-8-41.44-8S8.6,99.34,2.56,104H0v4c0,6.63,19.7,12,44,12s44-5.37,44-12v-4Z" fill="#003c5a"/><ellipse cx="44" cy="104" rx="44" ry="12" fill="url(#radial-gradient)"/><path d="M59.26,66c-2.67-2.24-3.51-4.44-3.51-6,0-2.65,2.25-5.32,4.49-6.64C67.13,48.42,80,36,80,16H8C8,36.52,20.87,48.42,27.76,53.33c2.24,1.32,4.49,4,4.49,6.64,0,1.57-.84,3.77-3.51,6C22.2,70.4,8,82.44,8,104c0,4.42,16.12,8,36,8s36-3.58,36-8C80,82.44,65.8,70.4,59.26,66Z" fill="url(#Light_grey_gradient)"/><ellipse cx="44" cy="104" rx="36" ry="8" fill="#003c5a"/><path d="M48.45,77.55c-3.27-3.09-3.4-16.24-.24-19.45C52.71,53.54,60,47.45,60,44c0-2.21-7.16-4-16-4s-16,1.79-16,4c0,3.45,7.29,9.54,11.79,14.1,3.16,3.21,3,16.36-.24,19.45C32.44,84.26,15,85,15,100c0,6,11,10,29,10s29-4,29-10C73,85,55.56,84.26,48.45,77.55Z" fill="url(#linear-gradient)"/><path d="M85.44,12C79.4,7.34,63.15,4,44,4S8.6,7.34,2.56,12H0v4c0,6.63,19.7,12,44,12s44-5.37,44-12V12Z" fill="#003c5a"/><ellipse cx="44" cy="12" rx="44" ry="12" fill="url(#radial-gradient-2)"/></g></g></g></svg>