<svg xmlns="http://www.w3.org/2000/svg" xmlns:xlink="http://www.w3.org/1999/xlink" viewBox="0 0 120 120"><defs><linearGradient id="linear-gradient" x1="98.16" y1="16.09" x2="98.16" y2="118.46" gradientUnits="userSpaceOnUse"><stop offset="0" stop-color="#d1d4d4"/><stop offset="0.22" stop-color="#cdd0d0"/><stop offset="0.43" stop-color="#c2c5c6"/><stop offset="0.63" stop-color="#b0b3b4"/><stop offset="0.82" stop-color="#96999a"/><stop offset="1" stop-color="#77797c"/></linearGradient><linearGradient id="linear-gradient-2" x1="44" y1="14" x2="44" y2="120" xlink:href="#linear-gradient"/><radialGradient id="radial-gradient" cx="43.62" cy="37.68" r="38.44" gradientTransform="translate(0 27.08) scale(1 0.28)" gradientUnits="userSpaceOnUse"><stop offset="0" stop-color="#502f0b"/><stop offset="1" stop-color="#2b201a"/></radialGradient></defs><title>2615</title><g id="Layer_2" data-name="Layer 2"><g id="hot_beverage_U_2615" data-name="hot_beverage_U+2615"><g id="_2615" data-name="2615"><path d="M88,42V54h16a4,4,0,0,1,4,4V78A12,12,0,0,1,96,90H76.31v12H96a24,24,0,0,0,24-24V58a16,16,0,0,0-16-16Z" fill="url(#linear-gradient)"/><rect x="83.73" y="42" width="7.54" height="12" fill="#77797c"/><path d="M74.32,102h8.5s3.05-6.93,3.05-12H78.32Z" fill="#77797c"/><path d="M88,30c0-8.84-19.7-16-44-16S0,21.16,0,30V60.82c0,2-.07,27.19,12.36,48.72C15.36,114.73,27.46,120,44,120s28.64-5.27,31.64-10.46C88.07,88,88,62.82,88,60.82Z" fill="url(#linear-gradient-2)"/><path d="M44,19c25.68,0,39,7.8,39,11S69.68,41,44,41,5,33.2,5,30,18.32,19,44,19" fill="#77797c"/><path d="M79.08,34C73.4,30.66,61.6,27,44,27S14.6,30.66,8.92,34C14.6,37.34,26.4,41,44,41S73.4,37.34,79.08,34Z" fill="url(#radial-gradient)"/><path d="M31.48,0s-9.89,1.47-9.89,9.89,4.95,8.43,4.95,14.84a12.79,12.79,0,0,1-4.95,9.9s9.89-1.47,9.89-9.9-4.94-7.26-4.94-14.84S31.48,0,31.48,0Z" fill="#c4d4d4" opacity="0.6"/><path d="M47.11,0s-9.89,1.47-9.89,9.89,4.94,8.43,4.94,14.84a12.8,12.8,0,0,1-4.94,9.9s9.89-1.47,9.89-9.9-5-7.26-5-14.84S47.11,0,47.11,0Z" fill="#c4d4d4" opacity="0.6"/><path d="M62.73,0s-9.89,1.47-9.89,9.89,4.95,8.43,4.95,14.84a12.79,12.79,0,0,1-4.95,9.9s9.89-1.47,9.89-9.9-4.94-7.26-4.94-14.84S62.73,0,62.73,0Z" fill="#c4d4d4" opacity="0.6"/></g></g></g></svg>