<svg xmlns="http://www.w3.org/2000/svg" xmlns:xlink="http://www.w3.org/1999/xlink" viewBox="0 0 116 120"><defs><linearGradient id="linear-gradient" x1="58" y1="120" x2="58" gradientUnits="userSpaceOnUse"><stop offset="0" stop-color="#ff9a1a"/><stop offset="1" stop-color="#ffd52d"/></linearGradient><radialGradient id="radial-gradient" cx="30" cy="60.37" r="15.14" gradientTransform="translate(0 -18.46) scale(1 1.31)" gradientUnits="userSpaceOnUse"><stop offset="0" stop-color="#de721e"/><stop offset="0.09" stop-color="#de721e" stop-opacity="0.96"/><stop offset="0.25" stop-color="#de721e" stop-opacity="0.85"/><stop offset="0.44" stop-color="#de721e" stop-opacity="0.68"/><stop offset="0.66" stop-color="#de721e" stop-opacity="0.43"/><stop offset="0.91" stop-color="#de721e" stop-opacity="0.13"/><stop offset="1" stop-color="#de721e" stop-opacity="0"/></radialGradient><radialGradient id="radial-gradient-2" cx="4027" cy="60.37" r="15.14" gradientTransform="matrix(-1, 0, 0, 1.31, 4112.74, -18.46)" xlink:href="#radial-gradient"/><symbol id="Smiley_shape" data-name="Smiley shape" viewBox="0 0 116 120"><path d="M110.33,30C102.78,17,76.13,0,58,0S13.22,17,5.67,30s-7.56,47,0,60S39.87,120,58,120s44.78-17,52.33-30S117.89,43,110.33,30Z" fill="url(#linear-gradient)"/></symbol><symbol id="Smiley_eyes" data-name="Smiley eyes" viewBox="0 0 56 24"><rect width="16" height="24" rx="8" fill="#2b201a"/><circle cx="11" cy="5" r="3" fill="#af9d94"/><rect x="40" width="16" height="24" rx="8" fill="#2b201a"/><circle cx="51" cy="5" r="3" fill="#af9d94"/></symbol></defs><title>2639</title><g id="Layer_2" data-name="Layer 2"><g id="frowning_face_U_2639" data-name="frowning_face_U+2639"><g id="_2639" data-name="2639"><use width="116" height="120" xlink:href="#Smiley_shape"/><ellipse cx="30" cy="60.37" rx="16.2" ry="20.37" opacity="0.6" fill="url(#radial-gradient)"/><ellipse cx="85.74" cy="60.37" rx="16.2" ry="20.37" opacity="0.6" fill="url(#radial-gradient-2)"/><use width="56" height="24" transform="translate(30 44.2)" xlink:href="#Smiley_eyes"/><path d="M30,98.63A26.54,26.54,0,0,1,33.15,90a24.33,24.33,0,0,1,6.34-7.23,26.37,26.37,0,0,1,8.84-4.32,37.5,37.5,0,0,1,9.51-1.3c1.58,0,3.16.07,4.76.26.79.07,1.59.21,2.39.36a18.11,18.11,0,0,1,2.38.53,26.39,26.39,0,0,1,8.91,4.19,24.26,24.26,0,0,1,6.45,7.13A26.55,26.55,0,0,1,86,98.2a80,80,0,0,0-6.28-6A29.56,29.56,0,0,0,73,87.89c-4.64-2.14-9.76-2.71-15.12-2.72s-10.48.73-15.09,2.94a29.67,29.67,0,0,0-6.63,4.37A77.76,77.76,0,0,0,30,98.63Z" fill="#de721e"/><path d="M30,98.63a35.36,35.36,0,0,1,3.07-9,29.51,29.51,0,0,1,5.82-8A25.76,25.76,0,0,1,47.63,76a29.07,29.07,0,0,1,5-1.38,34.47,34.47,0,0,1,5.14-.47,35.8,35.8,0,0,1,5.15.38A29,29,0,0,1,68,75.85a25.63,25.63,0,0,1,8.84,5.43,29.79,29.79,0,0,1,5.93,7.94,35.4,35.4,0,0,1,3.19,9c-4.3-4.63-8.34-9.1-13-12a27.09,27.09,0,0,0-15.1-4.06,27.06,27.06,0,0,0-15.06,4.29C38.2,89.39,34.22,93.93,30,98.63Z" fill="#2b201a"/></g></g></g></svg>