<?xml version="1.0" encoding="utf-8"?>
<!-- Generator: Adobe Illustrator 18.1.0, SVG Export Plug-In . SVG Version: 6.00 Build 0)  -->
<svg version="1.1" xmlns="http://www.w3.org/2000/svg" xmlns:xlink="http://www.w3.org/1999/xlink" x="0px" y="0px"
	 viewBox="0 0 560 380" enable-background="new 0 0 560 380" xml:space="preserve">
<symbol  id="ab" viewBox="-251.9 -33.8 504.1 67.6">
	<path fill="#D1D4D4" d="M-61.5,14.7h-75.7v15.1c0,0.5,0.5,1,1,1h74.7V14.7z"/>
	<g>
		<path d="M-123.2,21.6l1.3,0.2c0-0.3,0.2-0.6,0.3-0.8c0.2-0.2,0.4-0.3,0.7-0.3c0.3,0,0.5,0.1,0.7,0.3s0.3,0.5,0.3,0.9
			c0,0.3-0.1,0.6-0.3,0.8c-0.2,0.2-0.4,0.3-0.7,0.3c-0.2,0-0.4,0-0.6-0.1l0.2,1.1c0.4,0,0.7,0.1,0.8,0.2s0.3,0.4,0.3,0.7
			c0,0.2-0.1,0.4-0.2,0.6c-0.1,0.1-0.3,0.2-0.6,0.2c-0.2,0-0.4-0.1-0.6-0.2c-0.2-0.2-0.3-0.4-0.3-0.7l-1.3,0.2
			c0.1,0.4,0.2,0.8,0.4,1s0.4,0.5,0.7,0.6s0.7,0.2,1.1,0.2c0.7,0,1.2-0.2,1.6-0.6c0.3-0.4,0.5-0.7,0.5-1.2c0-0.6-0.3-1.1-1-1.5
			c0.4-0.1,0.7-0.3,1-0.6c0.2-0.3,0.4-0.7,0.4-1.1c0-0.6-0.2-1.2-0.7-1.6c-0.5-0.4-1-0.7-1.7-0.7c-0.6,0-1.2,0.2-1.6,0.6
			S-123.1,21-123.2,21.6z"/>
		<path d="M-117.3,26.9h2.6c0.6,0,1,0,1.4-0.1c0.4-0.1,0.8-0.3,1.1-0.7c0.3-0.3,0.5-0.7,0.7-1.2s0.2-1,0.2-1.7
			c0-0.6-0.1-1.1-0.2-1.5c-0.2-0.5-0.4-0.9-0.8-1.3c-0.3-0.2-0.6-0.4-1-0.6c-0.3-0.1-0.7-0.2-1.3-0.2h-2.7V26.9z M-115.8,25.7V21
			h1.1c0.4,0,0.7,0,0.9,0.1c0.2,0.1,0.4,0.2,0.6,0.3c0.2,0.1,0.3,0.4,0.4,0.7s0.1,0.8,0.1,1.3c0,0.6,0,1-0.1,1.3
			c-0.1,0.3-0.2,0.5-0.4,0.7s-0.4,0.3-0.7,0.3c-0.2,0-0.6,0.1-1.2,0.1H-115.8z"/>
		<path d="M-107.6,22.1l1.4,0.1c0.1-0.5,0.3-0.8,0.5-1c0.3-0.2,0.6-0.3,1-0.3c0.5,0,0.8,0.1,1.1,0.3s0.4,0.4,0.4,0.7
			c0,0.2,0,0.3-0.1,0.4s-0.3,0.2-0.5,0.3c-0.2,0.1-0.6,0.2-1.2,0.3c-0.8,0.2-1.3,0.4-1.6,0.7c-0.4,0.4-0.7,0.9-0.7,1.4
			c0,0.4,0.1,0.7,0.3,1s0.5,0.6,0.9,0.7s0.9,0.2,1.4,0.2c0.9,0,1.6-0.2,2-0.6c0.5-0.4,0.7-0.9,0.7-1.6l-1.4-0.1
			c-0.1,0.4-0.2,0.6-0.4,0.8s-0.5,0.2-0.9,0.2c-0.4,0-0.7-0.1-1-0.3c-0.2-0.1-0.2-0.3-0.2-0.4c0-0.2,0.1-0.3,0.2-0.4
			c0.2-0.2,0.6-0.3,1.3-0.5s1.2-0.3,1.6-0.5s0.6-0.4,0.8-0.7s0.3-0.7,0.3-1.1c0-0.4-0.1-0.8-0.3-1.2c-0.2-0.4-0.6-0.6-1-0.8
			s-0.9-0.3-1.6-0.3c-0.9,0-1.6,0.2-2.1,0.6S-107.5,21.3-107.6,22.1z"/>
		<path d="M-99.2,26.9v-2.6c0.4,0.5,1,0.8,1.6,0.8c0.3,0,0.6-0.1,0.9-0.2s0.4-0.3,0.6-0.4c0.1-0.2,0.2-0.4,0.3-0.6
			c0-0.2,0.1-0.6,0.1-1v-3h-1.4v2.7c0,0.5,0,0.9-0.1,1s-0.1,0.3-0.3,0.3s-0.3,0.1-0.5,0.1c-0.2,0-0.4-0.1-0.6-0.2
			c-0.2-0.1-0.3-0.3-0.4-0.5s-0.1-0.6-0.1-1v-2.6h-1.4v7.2H-99.2z"/>
		<path d="M-93.5,23.4l-1.2,0.2c0.1,0.5,0.4,0.9,0.7,1.1c0.3,0.2,0.8,0.4,1.5,0.4c0.6,0,1.1-0.1,1.4-0.2s0.5-0.3,0.6-0.6
			s0.2-0.6,0.2-1.2l0-1.6c0-0.5,0-0.8,0.1-1s0.1-0.4,0.2-0.7h-1.4c0,0.1-0.1,0.2-0.1,0.4c0,0.1,0,0.1,0,0.2
			c-0.2-0.2-0.5-0.4-0.8-0.5c-0.3-0.1-0.6-0.2-0.9-0.2c-0.5,0-1,0.1-1.3,0.4c-0.3,0.3-0.5,0.7-0.5,1.1c0,0.3,0.1,0.6,0.2,0.8
			s0.3,0.4,0.6,0.5s0.6,0.2,1.1,0.3c0.6,0.1,1.1,0.2,1.3,0.3v0.1c0,0.3-0.1,0.5-0.2,0.6s-0.4,0.2-0.7,0.2c-0.2,0-0.4,0-0.6-0.1
			S-93.4,23.6-93.5,23.4z M-91.6,22.2c-0.2-0.1-0.5-0.1-0.8-0.2c-0.4-0.1-0.6-0.2-0.7-0.2c-0.2-0.1-0.3-0.3-0.3-0.5
			c0-0.2,0.1-0.4,0.2-0.5c0.1-0.1,0.3-0.2,0.5-0.2c0.2,0,0.5,0.1,0.7,0.2c0.2,0.1,0.3,0.3,0.3,0.5c0,0.1,0.1,0.3,0.1,0.7V22.2z"/>
		<path d="M-89,24.9h1.3v-0.8c0.2,0.3,0.4,0.5,0.7,0.6c0.3,0.2,0.6,0.2,0.9,0.2c0.6,0,1.1-0.2,1.5-0.7c0.4-0.5,0.6-1.1,0.6-2
			c0-0.9-0.2-1.5-0.6-2s-0.9-0.7-1.5-0.7c-0.3,0-0.5,0.1-0.8,0.2c-0.2,0.1-0.5,0.3-0.7,0.6v-2.6H-89V24.9z M-87.6,22.4
			c0-0.6,0.1-1,0.3-1.3s0.5-0.4,0.8-0.4c0.3,0,0.6,0.1,0.8,0.4s0.3,0.7,0.3,1.3c0,0.5-0.1,0.9-0.3,1.2s-0.5,0.4-0.8,0.4
			c-0.3,0-0.6-0.1-0.8-0.4S-87.6,22.9-87.6,22.4z"/>
		<path d="M-79.8,21.4l1.4-0.2c-0.2-0.5-0.5-0.9-0.8-1.1s-0.9-0.4-1.4-0.4c-0.9,0-1.6,0.3-2,0.9c-0.3,0.5-0.5,1.1-0.5,1.8
			c0,0.9,0.2,1.5,0.7,2s1,0.7,1.7,0.7c0.8,0,1.4-0.3,1.8-0.8s0.7-1.3,0.6-2.3h-3.4c0-0.4,0.1-0.7,0.3-1s0.5-0.3,0.8-0.3
			c0.2,0,0.4,0.1,0.5,0.2S-79.9,21.1-79.8,21.4z M-79.7,22.8c0,0.4-0.1,0.7-0.3,0.9s-0.4,0.3-0.7,0.3c-0.3,0-0.5-0.1-0.7-0.3
			c-0.2-0.2-0.3-0.5-0.3-0.9H-79.7z"/>
		<path d="M-77.7,21.2l1.4,0.2c0.1-0.3,0.2-0.5,0.4-0.6s0.4-0.2,0.8-0.2c0.4,0,0.6,0.1,0.8,0.2c0.1,0.1,0.2,0.2,0.2,0.4
			c0,0.1,0,0.2-0.1,0.3c-0.1,0.1-0.2,0.1-0.5,0.2c-1.1,0.2-1.8,0.5-2.1,0.7c-0.4,0.3-0.6,0.7-0.6,1.2c0,0.4,0.2,0.8,0.5,1.1
			c0.4,0.3,0.9,0.5,1.7,0.5c0.7,0,1.2-0.1,1.6-0.3c0.3-0.2,0.6-0.6,0.7-1l-1.3-0.2c-0.1,0.2-0.2,0.4-0.3,0.5s-0.4,0.2-0.7,0.2
			c-0.4,0-0.6-0.1-0.8-0.2c-0.1-0.1-0.2-0.2-0.2-0.3c0-0.1,0-0.2,0.1-0.3c0.1-0.1,0.6-0.2,1.3-0.4s1.2-0.4,1.5-0.6
			c0.3-0.2,0.4-0.6,0.4-1c0-0.5-0.2-0.9-0.6-1.2s-1-0.5-1.8-0.5c-0.7,0-1.3,0.1-1.7,0.4C-77.3,20.3-77.6,20.7-77.7,21.2z"/>
	</g>
	<g>
		<path d="M-49.3,19.5v7.2h1.4l1.7-5.1c0.2-0.5,0.3-0.8,0.3-1.1c0.1,0.3,0.2,0.6,0.4,1.1l1.7,5h1.3v-7.2h-0.9v6l-2.1-6h-0.9
			l-2.1,6.1v-6.1H-49.3z"/>
		<path d="M-37.7,20.1c-0.3-0.3-0.6-0.5-0.9-0.6c-0.3-0.1-0.6-0.2-1-0.2c-0.6,0-1,0.1-1.3,0.4s-0.5,0.6-0.5,1.1
			c0,0.3,0.1,0.5,0.2,0.7s0.3,0.4,0.5,0.5s0.4,0.2,0.6,0.3c0.2,0,0.4,0.1,0.8,0.1c0.7,0.1,1.2,0.2,1.6,0.3c0,0.1,0,0.2,0,0.2
			c0,0.4-0.1,0.6-0.2,0.8c-0.2,0.2-0.6,0.3-1,0.3c-0.4,0-0.7-0.1-0.9-0.2s-0.3-0.4-0.4-0.8l-0.9,0.1c0.1,0.4,0.2,0.7,0.4,0.9
			s0.4,0.4,0.8,0.5s0.7,0.2,1.2,0.2c0.4,0,0.8-0.1,1.1-0.2c0.3-0.1,0.5-0.2,0.6-0.4s0.2-0.4,0.3-0.6c0-0.1,0-0.4,0-0.8v-1.2
			c0-0.8,0-1.3,0.1-1.5s0.1-0.4,0.2-0.6h-0.9C-37.6,19.7-37.7,19.9-37.7,20.1z M-37.8,22.1c-0.3-0.1-0.8-0.2-1.4-0.3
			c-0.4-0.1-0.6-0.1-0.8-0.2c-0.1-0.1-0.3-0.2-0.3-0.3s-0.1-0.3-0.1-0.4c0-0.2,0.1-0.4,0.3-0.6s0.4-0.2,0.8-0.2
			c0.3,0,0.6,0.1,0.9,0.2s0.5,0.4,0.6,0.6c0.1,0.2,0.1,0.5,0.1,0.9V22.1z"/>
		<path d="M-33.6,20.3l0.1-0.8c-0.2-0.1-0.5-0.1-0.7-0.1c-0.3,0-0.6,0-0.7,0.2c-0.2,0.1-0.3,0.2-0.4,0.4s-0.1,0.5-0.1,1v3H-36v0.7
			h0.6V26l0.9,0.5v-1.8h0.9V24h-0.9v-3c0-0.3,0-0.4,0-0.5c0-0.1,0.1-0.1,0.2-0.2c0.1,0,0.2-0.1,0.3-0.1
			C-33.9,20.3-33.8,20.3-33.6,20.3z"/>
		<path d="M-29.2,21.2l0.9-0.1c-0.1-0.5-0.4-0.9-0.8-1.2s-0.9-0.4-1.5-0.4c-0.8,0-1.4,0.2-1.8,0.7s-0.7,1.1-0.7,2
			c0,0.9,0.2,1.5,0.7,2c0.4,0.5,1,0.7,1.7,0.7c0.7,0,1.3-0.2,1.7-0.7c0.4-0.5,0.7-1.1,0.7-2c0-0.1,0-0.1,0-0.2h-3.9
			c0-0.6,0.2-1,0.5-1.3s0.7-0.5,1.1-0.5c0.3,0,0.6,0.1,0.8,0.3C-29.5,20.5-29.3,20.8-29.2,21.2z M-32.1,22.6h2.9
			c0,0.4-0.1,0.8-0.3,1c-0.3,0.3-0.6,0.5-1.1,0.5c-0.4,0-0.7-0.1-1-0.4C-31.9,23.4-32.1,23-32.1,22.6z"/>
		<path d="M-27.2,19.5v5.2h0.8v-0.8c0.2,0.4,0.4,0.6,0.6,0.7s0.4,0.2,0.6,0.2c0.3,0,0.6-0.1,0.9-0.3l-0.3-0.8
			c-0.2,0.1-0.4,0.2-0.6,0.2c-0.2,0-0.4-0.1-0.5-0.2s-0.3-0.3-0.3-0.5c-0.1-0.3-0.1-0.7-0.1-1v-2.7H-27.2z"/>
		<path d="M-23.9,25.6v1h0.9v-1H-23.9z M-23.9,19.5v5.2h0.9v-5.2H-23.9z"/>
		<path d="M-18.3,20.1c-0.3-0.3-0.6-0.5-0.9-0.6c-0.3-0.1-0.6-0.2-1-0.2c-0.6,0-1,0.1-1.3,0.4s-0.5,0.6-0.5,1.1
			c0,0.3,0.1,0.5,0.2,0.7s0.3,0.4,0.5,0.5s0.4,0.2,0.6,0.3c0.2,0,0.4,0.1,0.8,0.1c0.7,0.1,1.2,0.2,1.6,0.3c0,0.1,0,0.2,0,0.2
			c0,0.4-0.1,0.6-0.2,0.8c-0.2,0.2-0.6,0.3-1,0.3c-0.4,0-0.7-0.1-0.9-0.2s-0.3-0.4-0.4-0.8l-0.9,0.1c0.1,0.4,0.2,0.7,0.4,0.9
			s0.4,0.4,0.8,0.5s0.7,0.2,1.2,0.2c0.4,0,0.8-0.1,1.1-0.2c0.3-0.1,0.5-0.2,0.6-0.4s0.2-0.4,0.3-0.6c0-0.1,0-0.4,0-0.8v-1.2
			c0-0.8,0-1.3,0.1-1.5s0.1-0.4,0.2-0.6h-0.9C-18.2,19.7-18.2,19.9-18.3,20.1z M-18.3,22.1c-0.3-0.1-0.8-0.2-1.4-0.3
			c-0.4-0.1-0.6-0.1-0.8-0.2c-0.1-0.1-0.3-0.2-0.3-0.3S-21,21-21,20.9c0-0.2,0.1-0.4,0.3-0.6s0.4-0.2,0.8-0.2c0.3,0,0.6,0.1,0.9,0.2
			s0.5,0.4,0.6,0.6c0.1,0.2,0.1,0.5,0.1,0.9V22.1z"/>
		<path d="M-16.1,19.5v7.2h0.9v-7.2H-16.1z"/>
		<path d="M-14.2,21l0.9,0.1c0-0.3,0.2-0.6,0.4-0.8s0.5-0.3,0.9-0.3c0.4,0,0.7,0.1,0.9,0.2s0.3,0.4,0.3,0.6c0,0.2-0.1,0.4-0.3,0.5
			c-0.1,0.1-0.4,0.2-0.9,0.3c-0.6,0.2-1.1,0.3-1.3,0.4s-0.4,0.3-0.6,0.5s-0.2,0.4-0.2,0.7c0,0.2,0.1,0.4,0.2,0.6s0.3,0.4,0.4,0.5
			c0.1,0.1,0.3,0.2,0.6,0.3s0.5,0.1,0.8,0.1c0.4,0,0.8-0.1,1.1-0.2s0.5-0.3,0.7-0.5s0.2-0.5,0.3-0.8l-0.9-0.1c0,0.3-0.2,0.5-0.3,0.6
			c-0.2,0.1-0.5,0.2-0.8,0.2c-0.4,0-0.7-0.1-0.9-0.2c-0.2-0.1-0.3-0.3-0.3-0.5c0-0.1,0-0.2,0.1-0.3c0.1-0.1,0.2-0.2,0.3-0.2
			c0.1,0,0.3-0.1,0.8-0.2c0.6-0.2,1.1-0.3,1.3-0.4s0.4-0.3,0.6-0.5c0.1-0.2,0.2-0.5,0.2-0.8c0-0.3-0.1-0.6-0.3-0.8s-0.4-0.5-0.7-0.6
			s-0.7-0.2-1.1-0.2c-0.7,0-1.2,0.1-1.5,0.4C-13.9,20.1-14.1,20.5-14.2,21z"/>
	</g>
	<g>
		<path d="M30.4,19.5l-2.8,7.2h1l1.9-5.2c0.1-0.4,0.3-0.8,0.4-1.2c0.1,0.4,0.2,0.8,0.4,1.2l1.9,5.2h1l-2.8-7.2H30.4z"/>
		<path d="M34.8,25.6v1h0.9v-1H34.8z M34.8,19.5v5.2h0.9v-5.2H34.8z"/>
		<path d="M40.5,21.2l0.9-0.1c-0.1-0.5-0.4-0.9-0.8-1.2s-0.9-0.4-1.5-0.4c-0.8,0-1.4,0.2-1.8,0.7s-0.7,1.1-0.7,2
			c0,0.9,0.2,1.5,0.7,2c0.4,0.5,1,0.7,1.7,0.7c0.7,0,1.3-0.2,1.7-0.7c0.4-0.5,0.7-1.1,0.7-2c0-0.1,0-0.1,0-0.2h-3.9
			c0-0.6,0.2-1,0.5-1.3s0.7-0.5,1.1-0.5c0.3,0,0.6,0.1,0.8,0.3C40.2,20.5,40.4,20.8,40.5,21.2z M37.7,22.6h2.9c0,0.4-0.1,0.8-0.3,1
			c-0.3,0.3-0.6,0.5-1.1,0.5c-0.4,0-0.7-0.1-1-0.4C37.8,23.4,37.7,23,37.7,22.6z"/>
		<path d="M43.5,19.5l-1.6,5.2h0.9l0.8-3l0.3-1.1c0,0.1,0.1,0.4,0.3,1.1l0.8,3H46l0.8-3l0.3-1l0.3,1l0.9,3H49l-1.6-5.2h-0.9
			l-0.8,3.1l-0.2,0.9l-1-4H43.5z"/>
	</g>
	<g>
		<path d="M87.8,19.5v7.2h0.9v-6.3h3.5v-0.8H87.8z"/>
		<path d="M93.3,25.6v1h0.9v-1H93.3z M93.3,19.5v5.2h0.9v-5.2H93.3z"/>
		<path d="M95.7,19.5V24H95v0.7h0.8v0.6c0,0.3,0,0.6,0.1,0.8c0.1,0.2,0.2,0.4,0.4,0.6s0.5,0.2,0.9,0.2c0.2,0,0.5,0,0.8-0.1l-0.1-0.8
			c-0.2,0-0.4,0-0.5,0c-0.3,0-0.5-0.1-0.6-0.2c-0.1-0.1-0.2-0.3-0.2-0.6v-0.5h1V24h-1v-4.5H95.7z"/>
		<path d="M101.9,21.2l0.9-0.1c-0.1-0.5-0.4-0.9-0.8-1.2s-0.9-0.4-1.5-0.4c-0.8,0-1.4,0.2-1.8,0.7S98,21.2,98,22
			c0,0.9,0.2,1.5,0.7,2c0.4,0.5,1,0.7,1.7,0.7c0.7,0,1.3-0.2,1.7-0.7c0.4-0.5,0.7-1.1,0.7-2c0-0.1,0-0.1,0-0.2h-3.9
			c0-0.6,0.2-1,0.5-1.3s0.7-0.5,1.1-0.5c0.3,0,0.6,0.1,0.8,0.3C101.5,20.5,101.7,20.8,101.9,21.2z M99,22.6h2.9c0,0.4-0.1,0.8-0.3,1
			c-0.3,0.3-0.6,0.5-1.1,0.5c-0.4,0-0.7-0.1-1-0.4C99.2,23.4,99,23,99,22.6z"/>
		<path d="M107.3,21.4l0.9-0.1c-0.1-0.6-0.3-1.1-0.7-1.4s-0.9-0.5-1.4-0.5c-0.7,0-1.3,0.2-1.7,0.7s-0.6,1.1-0.6,2
			c0,0.6,0.1,1.1,0.3,1.5s0.5,0.7,0.8,0.9s0.8,0.3,1.2,0.3c0.6,0,1-0.1,1.4-0.4s0.6-0.7,0.7-1.2l-0.9-0.1c-0.1,0.3-0.2,0.6-0.4,0.8
			s-0.5,0.3-0.7,0.3c-0.4,0-0.8-0.2-1.1-0.5s-0.4-0.8-0.4-1.5c0-0.7,0.1-1.2,0.4-1.5c0.3-0.3,0.6-0.5,1-0.5c0.3,0,0.6,0.1,0.9,0.3
			C107,20.6,107.2,21,107.3,21.4z"/>
		<path d="M108.8,17.5l-0.1,0.8c0.2-0.1,0.4-0.1,0.5-0.1c0.2,0,0.4,0,0.5,0.1c0.1,0.1,0.2,0.2,0.3,0.3c0.1,0.1,0.1,0.3,0.3,0.7
			c0,0,0,0.1,0.1,0.2l-2,5.2h0.9l1.1-3c0.1-0.4,0.3-0.8,0.4-1.2c0.1,0.4,0.2,0.8,0.4,1.2l1.1,3h0.9l-2-5.3c-0.2-0.6-0.4-1-0.5-1.2
			c-0.2-0.3-0.3-0.5-0.5-0.6s-0.4-0.2-0.7-0.2C109.2,17.4,109,17.4,108.8,17.5z"/>
		<path d="M117.3,21.4l0.9-0.1c-0.1-0.6-0.3-1.1-0.7-1.4s-0.9-0.5-1.4-0.5c-0.7,0-1.3,0.2-1.7,0.7s-0.6,1.1-0.6,2
			c0,0.6,0.1,1.1,0.3,1.5s0.5,0.7,0.8,0.9s0.8,0.3,1.2,0.3c0.6,0,1-0.1,1.4-0.4s0.6-0.7,0.7-1.2l-0.9-0.1c-0.1,0.3-0.2,0.6-0.4,0.8
			s-0.5,0.3-0.7,0.3c-0.4,0-0.8-0.2-1.1-0.5s-0.4-0.8-0.4-1.5c0-0.7,0.1-1.2,0.4-1.5c0.3-0.3,0.6-0.5,1-0.5c0.3,0,0.6,0.1,0.9,0.3
			C117,20.6,117.2,21,117.3,21.4z"/>
		<path d="M118.8,19.5v7.2h0.9v-7.2H118.8z"/>
		<path d="M124.6,21.2l0.9-0.1c-0.1-0.5-0.4-0.9-0.8-1.2s-0.9-0.4-1.5-0.4c-0.8,0-1.4,0.2-1.8,0.7s-0.7,1.1-0.7,2
			c0,0.9,0.2,1.5,0.7,2c0.4,0.5,1,0.7,1.7,0.7c0.7,0,1.3-0.2,1.7-0.7c0.4-0.5,0.7-1.1,0.7-2c0-0.1,0-0.1,0-0.2h-3.9
			c0-0.6,0.2-1,0.5-1.3s0.7-0.5,1.1-0.5c0.3,0,0.6,0.1,0.8,0.3C124.3,20.5,124.5,20.8,124.6,21.2z M121.8,22.6h2.9
			c0,0.4-0.1,0.8-0.3,1c-0.3,0.3-0.6,0.5-1.1,0.5c-0.4,0-0.7-0.1-1-0.4C121.9,23.4,121.8,23,121.8,22.6z"/>
	</g>
	<g>
		<g>
			<g>
				<g>
					<g>
						<path fill="#202020" d="M251.3-31c0-0.6,0.1-0.3,0.1,1.3l-0.2,1.1L251.3-31z"/>
						<path fill="#202020" d="M251.6-20.3c-0.1,1.9-0.2,4-0.4,2.8c0.2-1.8,0.1-2.3,0.3-4.3c0-1.6-0.1-2.8-0.1-2.5
							c0-0.6,0-2.5,0.1-3.3c0.1,2.1,0.1,4.7,0,7.4C251.6-19.6,251.6-20.2,251.6-20.3z"/>
						<path fill="#202020" d="M128.9,13.2l1,0C129.6,13.2,129.3,13.2,128.9,13.2z"/>
						<path fill="#202020" d="M32.7,13.3c0.7,0,1,0,1.1,0C33.1,13.3,32.6,13.3,32.7,13.3z"/>
						<path fill="#202020" d="M16.3,13.5c0.4,0,0.6,0,1,0C16.9,13.5,16.5,13.5,16.3,13.5z"/>
						<path fill="#202020" d="M128.9,13.2l-2.6,0.1C126.2,13.2,127.7,13.2,128.9,13.2z"/>
						<path fill="#202020" d="M251.2,1.1c0-0.5,0-1,0-1.4C251.3,0.1,251.3,0.6,251.2,1.1C251.3,1,251.3,1,251.2,1.1z"/>
						<path fill="#202020" d="M171.3,13.4l0.8,0c0.2,0,0.4,0,0.6,0.1L171.3,13.4z"/>
						<path fill="#202020" d="M203.8,13.4c-0.7,0-1-0.1-1.3-0.2c0.4,0.1,1,0.1,1.6,0.1C204.2,13.3,204.1,13.4,203.8,13.4z"/>
						<path fill="#202020" d="M251.8,8.4l0-0.9C251.8,7.7,251.8,8.1,251.8,8.4z"/>
						<path fill="#202020" d="M148,13.4c-0.1,0-0.2,0-0.3,0.1C147.7,13.4,147.8,13.4,148,13.4z"/>
						<path fill="#202020" d="M215.1-32.3C215.1-32.4,215.1-32.4,215.1-32.3C215.3-32.4,215.3-32.3,215.1-32.3z"/>
						<path fill="#202020" d="M251.7-31c0,0,0-0.5-0.1-0.5c0-0.1,0-0.1,0-0.1C251.7-31.7,251.7-31,251.7-31z"/>
						<path fill="#202020" d="M-13.7,13.7c0.1,0,0.1,0,0.1,0C-12.8,13.7-13.3,13.7-13.7,13.7z"/>
						<path fill="#202020" d="M-251.9-26.1c0.1,3.1,0.2-5.1,0.3-0.4C-251.7-27-251.8-22.2-251.9-26.1z"/>
						<path fill="#202020" d="M251.3,1.9c0,0.4,0,0.9,0,1.3C251.3,2.7,251.3,2.2,251.3,1.9z"/>
						<path fill="#202020" d="M-251.6-26.5L-251.6-26.5l0,0.5C-251.6-26.2-251.6-26.4-251.6-26.5z"/>
						<path fill="#202020" d="M-83,13.6c0.1,0,0.4,0,0.7-0.1C-82.3,13.6-82.5,13.6-83,13.6z"/>
						<path fill="#202020" d="M-31.4,13.4l-1.3,0C-32.2,13.4-31.8,13.4-31.4,13.4z"/>
						<path fill="#202020" d="M-109.8,13.4c-0.7,0-0.9,0-1.9,0c0.1,0,0.2,0,0.3,0C-111,13.4-110.6,13.4-109.8,13.4z"/>
						<path fill="#202020" d="M-137.6,13.4c0.1,0,0.3,0,0.5,0c0.3,0,0.6,0,0.9,0L-137.6,13.4z"/>
						<path fill="#202020" d="M130.4-32.4c0.6,0,1-0.1,1.3-0.1C131.2-32.4,135.3-32.4,130.4-32.4z"/>
						<path fill="#202020" d="M251.3,1.1c0,0.2-0.1,0.4-0.1,0.8C251.3,1.6,251.3,1.3,251.3,1.1C251.3,0.9,251.3,0.9,251.3,1.1z"/>
						<path fill="#202020" d="M-110.9,12.3l-4.4,0C-114.1,12.3-112.5,12.3-110.9,12.3z"/>
						<path fill="#202020" d="M-69.6-32.4l1,0C-69-32.4-69.4-32.4-69.6-32.4z"/>
						<path fill="#202020" d="M-128.5,12.3c-0.8,0-1.6,0.1-2.5,0.1c-0.2,0-0.4,0-0.5,0L-128.5,12.3z"/>
						<path fill="#202020" d="M131.7-32.5C131.7-32.5,131.7-32.5,131.7-32.5C131.7-32.5,131.7-32.5,131.7-32.5z"/>
						<path fill="#202020" d="M160.8-32.2c-4.2,0-2-0.2-2.9-0.3c-5-0.1-2.3,0.1-4,0.2c-3.1,0-5.6-0.2-7.9-0.2c-0.2,0-0.6,0-0.1,0.1
							c-3.3-0.1-9.9,0-13.7-0.2c-0.3,0-0.4,0-0.5,0c0.6-0.1,0.7-0.2,0.6-0.3c-1.9,0-3.5-0.1-4.2,0c1.2,0,1.3,0,1.8,0.1l-2-0.1
							c-1.8,0.2,2.7,0.1,2.7,0.2c-3.9-0.1-8.4-0.2-11.3-0.2c-0.6,0.2,6.9,0.1,3,0.2l4.6-0.1c-3.5,0.3,2.8,0-0.4,0.3
							c-6,0-6.7-0.1-12.8,0c-1.4-0.1,0.4-0.1-0.9-0.2c-8.6-0.2-6.7,0.4-13,0.2c-1.6-0.1-2.3-0.3-6.7-0.2l1.5,0.2
							c-5.8,0-3.3-0.3-9.4-0.1c1.1,0.1,4.6,0.1,3.7,0.1c-4,0.2-2.8-0.1-5.8-0.1l-0.6,0.2c-6.2-0.1-13.1-0.1-20-0.2
							c0.4,0.1,1.6,0.1-0.1,0.2c-8.7-0.1-18.5,0-26.9,0.1l-3.2-0.1c-0.7,0-1.4,0.1-0.6,0.1c-3.3,0.1-0.2-0.1-1.7-0.2
							c-1.9,0-2.5,0.1-1.3,0.1c-5.8-0.1-16.4-0.3-22.5-0.1l1.2,0c-4.7,0.1-5.3-0.3-9.7-0.2l0.8,0c-10.3,0.1-21.6-0.1-29.4,0.2
							c-1.5-0.2-10.2,0.1-10.8-0.2c-5.9,0.1-4.2,0.2-12.4,0.3c-2.2,0-3.3-0.2-6-0.2l-0.1,0.2l-3.7-0.2l-2,0.2l-2.6,0
							c1,0,2.2-0.1,2-0.1c-2,0-4.4,0-6.4,0c-1,0-1.8,0.1-2.4,0.1c-0.6,0-1,0.1-1,0.1l-9.4-0.1c0.2,0.1,1.8,0.1,3,0.1
							c-5-0.2-0.9,0.2-5.5,0c0.6,0-0.3-0.1-0.4-0.1c-2.3,0.1-7.5,0.1-11.4,0.1l0.7,0.1c-7,0-14.8,0-22.6,0c2.8,0,2.2-0.2-0.1-0.3
							l-0.9,0.2c-1.5-0.1,2.4-0.1-0.6-0.2c-2.9,0-2,0.2-0.3,0.2l-3.6-0.1c-0.2,0,0.6,0.1,0.8,0.1c-1.5-0.1-6.2,0.2-8.3,0l-0.2,0
							c-7.9,0-11.4,0-17.8-0.1c-0.1-0.1-2.6-0.1-4.5-0.2c-4.7,0-9.9,0.2-15.6,0.1c-4-0.1-1.2-0.1-3-0.2c-0.3,0.1-6,0.1-3,0.2
							c-6.8,0-8.7,0-17.3-0.1c0.9-0.1,2-0.1,1.4-0.1c-1.6,0-3.6,0.1-3.3,0.1l0.4,0c-9.7-0.2-22.3,0.4-30,0.1l0.4,0l-8-0.1
							c-3.7,0,2.2,0.1-0.5,0.2c-4.3-0.1-7.7-0.1-10.9-0.1c-0.8,0-1.6,0-2.4,0c-0.6,0-1.1,0.3-1.4,0.9c-0.1,0.3-0.1,0.5-0.1,1
							c0,0.4,0,0.8,0,1.2c0,0.8,0,1.7,0,2.6c0.4,5.5,0,19.5,0.2,26.9l-0.1-0.4c-0.1,1.9,0.1,2.3,0.1,3.7c-0.1-0.2-0.1-2.1-0.1-0.9
							c0,2,0,4.1,0,6.1l0,1.5l0,0.8c0,0.2,0,0.4,0.1,0.6c0.1,0.3,0.4,0.6,0.7,0.8c0.2,0.1,0.3,0.1,0.5,0.1c0.2,0,0.5,0,0.7,0
							c4.2,0,8.3,0,12.6-0.1c8.4-0.1,16.9-0.1,25.2-0.2c6.1,0,3.4,0.5,11.1,0.2l-2.2-0.2c12.3,0.2,25.1,0,37.1,0.2
							c-0.7,0-0.7-0.1-1.9-0.1c1.3-0.1,3.6-0.1,5.6,0c1,0,2,0,2.6,0.1c0.7,0,1.1,0,1.1,0.1c1.9,0,0.4-0.1,1.6-0.1
							c2.5-0.1,6.4,0.2,7.7,0c0.2,0-0.7,0-1.2,0c1.7,0.1,7.7,0,6.1,0.1c4.5-0.1,8.6,0.1,12.2,0c2.3,0.2,7.7-0.1,8.5,0.1
							c-0.3-0.2,7.9-0.2,10.7-0.1c-1-0.1,2.5-0.1,1.4-0.2c3.3,0,6.2,0,5.7,0.2c6-0.3,12,0.2,15.4-0.1c9.7,0.1,18.6,0.2,27.3,0.3
							c-0.3-0.2-9.6,0-9.2-0.3c8.2,0.1,13,0.3,21.2,0.2c2.1,0-1.2-0.1-1.9-0.1c8.2,0.1,15.9,0,23.2,0.1c0,0-0.2,0-0.5,0
							c-0.3,0-0.7,0-1.1,0c1.4,0,3.4,0,3.2,0.1l-1.4,0c-2.3,0.1,5.7,0.3,6,0.4c-2.5-0.3,7.2-0.1,3.3-0.4c1,0,2.1,0.1,1.9,0.1
							c1.4,0,1.9-0.1,0.4-0.1c5.2,0.1,3.3,0.2,8,0.2c0,0-1-0.1-1.4-0.1c2.4,0.1,4.8,0.2,8.7,0.2c-0.2,0,0.2-0.1-1-0.1
							c6.8,0,11.6,0.3,19,0.2c-2.2-0.2,2.5-0.1,2.9-0.3l4,0.1l-1.6,0.1c3.5,0,6.6,0.1,9.6,0.1l-2.6-0.1l6.6,0l-3.7,0.1
							c3.6,0.1-0.4,0.2,4.3,0.2c-1,0,3.5,0,5.3-0.1l0,0c1.7,0.1,3.5,0.1,6.1,0.1c0.7-0.1-0.5-0.2-0.1-0.2c1.7,0.2,8.2,0,10.4,0.2
							c-0.7,0-0.8-0.1-0.5-0.2l1.4,0.1c1.6,0,1.9-0.1,1.6-0.1c4.9,0-1.6,0.2,4.3,0.1c-0.5,0-0.2,0-1.2,0c5.8-0.1,11.3,0.1,16.6,0
							c1.6-0.2-4.7,0-2.9-0.2c7.7,0,16,0.2,23.5,0.2l-1.4,0c1,0.3,5.6-0.1,9.4,0c-0.9,0-1.2-0.1-1-0.1c5.1,0,10.5,0.1,18.2,0.1
							l-1-0.1c3-0.1,8,0,11.2-0.1c1,0.1,2.8,0.1,1.7,0.2c10.1-0.4,19.2,0.2,28.1-0.1c-1.1,0-2.5-0.1-1.7-0.1l7.6,0.1
							c-0.6,0.1-1,0.1-2.6,0.2c1,0.1,3.1,0.1,5,0.1c-3.4-0.1,0-0.2,1.5-0.3c-0.2,0,0.3,0.1,0.1,0.1c4-0.2,0.7,0.2,6.1,0.1l-0.3-0.1
							c2,0,3.9,0.1,6.1,0.1c0.9-0.1-2.2-0.1-2.3-0.2c3.1,0,6.1,0.3,8.8,0.1c-1.3,0-3.2-0.1-4.5-0.1c3-0.2,3.4-0.1,5.6-0.1l-0.2,0
							l5.2-0.1l-1.3,0c3.8,0.3,7.8,0.1,13,0.3c-5-0.2-0.8-0.1-1.2-0.3c1.3,0,3.3-0.1,2.8-0.1c2.4,0.1,4.1-0.1,7.5,0.1
							c0.2,0,2.6,0,2.1-0.1c3.2,0-0.8,0.1-0.5,0.1c4.9,0.2,11.5-0.2,18.6,0c3,0,4.8,0.1,6.6,0.2c0.4,0,0.9,0,1.3,0
							c0.5,0,0.9,0,1.3-0.2c0.4-0.2,0.8-0.6,1-1.2c0.2-0.6,0.1-1.2,0.1-1.9c-0.1-1.9-0.2,1.6-0.2,1.5c-0.1-3-0.1-5.4,0-8.3
							c0,0.6-0.1,0-0.1-0.9c0-2.3,0.2-1.6,0.1-4.6c-0.1,0.5-0.1,1.2-0.2,2.3c0.1-2.7,0.1-5.4,0.2-8.3c-0.1-0.8-0.1,1.7-0.2,2.7
							c0-3.2,0.1-8.3,0.2-9.2l0,2c0-1.2-0.1-0.6-0.1,0.3c-0.1,2.7,0,3.9,0.1,4.1l0-2c0.3,2.1,0,8.1,0,12.2l0.2-1.7l-0.2,4.2
							c0.1,0.9,0.2,1.5,0.2-0.5c0.1,2.9-0.1,2.6,0,5.1c0,0.3,0,0.2,0-0.1c0,0,0,0.7,0,1.4c0,0.4,0,0.7,0,1c0,0.3,0,0.5,0,0.5
							c0.1-0.6,0.2,0.5,0.1-1.3c0,0.3,0,0.6,0,0.9c0,0.3,0,0.7-0.2,1c-0.2,0.6-0.7,1-1.3,1.2c-0.3,0.1-0.6,0.1-0.8,0.1
							c-0.2,0-0.5,0-0.7,0c-0.5,0-0.9,0-1.3,0c-1.7,0-2.9-0.1-3.9,0l0.4,0c-7.1-0.1-0.7-0.2-6-0.3l-3.6,0.4l-0.7-0.2
							c-0.7,0-2.2,0-1.9,0.1c-2.7-0.1,0.5-0.1-1.1-0.2c-3.5,0.1-9.7-0.1-10.5,0.2c-1.3-0.1,3.4-0.1-0.4-0.2c-1.1,0.3-4.3,0-7.6,0.1
							c1,0.1,4,0.1,0.8,0.2c-1.9-0.2-6.3,0-9,0c-0.1-0.2-5.9-0.1-10.5-0.1c0.3,0.1-8.6,0.1-12.8,0.2l0.1,0c-0.8-0.2-5.2-0.1-8.4-0.2
							c0.1,0.1,0.7,0.2,2.4,0.2l-3,0c-0.7-0.1-1.6-0.1-3.6-0.1l0.8,0.1c-4,0-8-0.2-13.1-0.1c-0.3-0.1,4.1-0.4-1.3-0.4
							c-0.2,0.1-0.4,0.2,1,0.2c-0.5,0-1.7-0.1-2.6,0l2.2,0.1c-2.3,0.1-1.2-0.1-3.1-0.1c0,0.1-1.4,0.1-1.1,0.1c0.5,0,1.6,0,2.3,0
							c-2.1,0-4.6,0.1-5.5,0.2c0.2-0.1,0-0.1-1.5-0.1c-4,0-1.4,0.1-3.7,0.2c-1-0.1-3.5,0-3.6-0.1c-1.2,0-1.4,0.1-1.8,0.1
							c-2.1-0.1-9.6,0-7.3-0.2l0.5,0c-0.1,0-0.2,0-0.3,0c0,0,0,0,0,0h0c-6.8-0.1-14,0.1-20.7,0l0,0c-4-0.1-8.9,0-11.8-0.1
							c-1.2,0-2.8,0.1-2.3,0.1c-3.1,0-3.4-0.1-7.8,0c3.1,0.1-1.1,0.1,3.2,0.1c-4,0-4.9,0.1-9.1,0c1.5,0.1-3,0.2-4.9,0.1l2.8-0.1
							c-2.1,0-4,0-5.9,0l1,0.2c-8.1,0.2-14.7-0.3-20.9,0c-2.2-0.1,4.4-0.1,2.5-0.2c-3.7,0-7.6,0.3-8.8,0.3
							c-5.1,0.1-4.8-0.2-10.1-0.2c0.7-0.1,1.3-0.2-2.7-0.3c-3.7,0-4.6,0.2-2.2,0.3c0.9,0,1.3,0,1.3,0c1.2,0,2.8,0,1.3,0.1l-0.5-0.1
							c-1.9,0.1-7,0.1-5.8,0.2c-2.8-0.1-1.2-0.1,0.9-0.1c-4.8,0.1-7.5,0-12.4,0.1c0.8,0,1.5-0.1,0.7-0.1c-7.2,0.1-3.2-0.1-8.1-0.1
							c-2.8,0.1,1,0.2-3.9,0.1c-3,0.1-0.6,0.2,0.6,0.2c-4.5-0.1-8.4,0.1-11,0.1l2.4,0c-1.4,0-2.6,0-3.8,0l1.4-0.1
							c-1.4,0-2.6,0-2.5,0.1c-1.4-0.1,1.1-0.2-1.8-0.3c-1.9,0.1-5.7-0.1-6.3,0.1c5.8-0.1-0.6,0.2,4.3,0.2c-1,0-2.1,0-3.5,0
							c-0.2,0,0.2,0,0.6,0c-5.6,0.1-2.6-0.2-8.4-0.2c0.7,0.1-1.3,0.2-2.3,0.1c2.3,0,1.1-0.1-1-0.2c-3.7,0.1-4-0.1-6,0l2.2,0
							c-0.8-0.1-2.6-0.1-5.2-0.1c-0.2,0.1,2.4,0,1.4,0.1c-2.9-0.2-6.5,0.2-10.5,0.1c-1.9,0.1-0.2,0.2-1.8,0.2
							c-4.5-0.1-4.9,0.1-9.6,0c1.4-0.1,1.6-0.1-1.7-0.2l7.8,0.1l-5-0.2c2.3,0,4.9,0.1,6.3,0.1c-2.4-0.1-2.1-0.1-1-0.2
							c-3.2,0.2-6.4-0.1-10.1,0l0.1,0.3c-5.6,0.1-9.9-0.2-17.1-0.1l2.3-0.1c-1-0.1-4.5,0-6.8-0.1c0.2,0.1-1.2,0.1-2.2,0.2
							c0.1-0.1-5.3,0-6-0.2l-3.2,0.1c-5.8,0.1-6.7-0.3-12.3-0.2c1.7,0.1-0.9,0.2,2.9,0.3c-1.9,0-3.6,0-3.6,0c-1.1,0.1-5.2-0.1-6.9,0
							c-0.8,0-1-0.1-3.2-0.1c-0.2,0,0,0,0,0c0,0-3.3-0.1-1.5-0.2c-5.8,0.3-16.1,0-21.2,0.2c-4.1,0-9-0.1-12.7-0.1c0.2,0,0,0,0.7,0
							c-5.1,0.1-3.2-0.3-9-0.2c-3,0.2,3.1,0.1,1.2,0.1c-0.8,0.3-7,0-11,0.1l1,0c-3,0.1-7.3-0.1-12.2-0.1c0,0,0.2,0,0,0
							c-3.4-0.2-9.7-0.2-14.4-0.3c1.5,0.1,2.1,0.1,1.2,0.2c-2.1,0,0.6-0.2-3.6-0.2c-1.4,0.1-4.4,0.1-4.8,0.3l4,0c-2,0.2-5.2,0-7.2,0
							l0.3,0.1c-6.1,0-6.2-0.2-12.7-0.2l0.7-0.1c-3.6-0.2-3,0.1-6.6,0l-1.1,0.2c-2.4,0-8.3-0.2-12.5-0.2c2.4,0.1,7.4,0.2,10.4,0.3
							c-2.3,0-8,0-9.2-0.1c0.9,0,2.1,0.1,3.1,0c-2.9-0.2-6.7-0.2-11.3-0.2c0.4,0.2-2.6,0.2-6.2,0.2c-0.4,0-1.1-0.1-1.5-0.4
							c-0.5-0.3-0.8-0.7-1-1.3c-0.1-0.3-0.1-0.5-0.1-0.8c0-0.2,0-0.4,0-0.7c0-0.4,0-0.9,0-1.3c0-1.7-0.1-3.1-0.1-4
							c0.1-8.3-0.1-16.4,0-26c0.3,3.4,0-2.8,0.3-2.2c0-2.2,0-3.1,0-3.3c0,0,0-1.7-0.1-3.4c0-0.4,0-0.8,0-1.3c0-0.5,0.2-0.9,0.4-1.2
							c0.2-0.3,0.5-0.5,0.7-0.7c0.2-0.1,0.3-0.2,0.3-0.2c0.5-0.2,0.6-0.2,0.4-0.2c-0.2,0-0.5,0.1-0.9,0.4c-0.4,0.3-0.7,0.7-0.8,1
							c-0.2,0.3-0.2,0.6-0.2,0.5c0.2-0.8,0.6-1.3,1-1.6c0.4-0.3,0.8-0.4,1.1-0.5c0.2,0,0.3,0,0.4,0c0.1,0,0.2,0,0.2,0
							c0.1,0,0.2,0,0.3,0c0.3,0,0.4-0.1,2-0.1c-0.7,0.1,1.7,0.2,4.5,0.1l-3.9,0.1c6.9,0.2,5.9-0.3,12.8-0.1l-2.2-0.1
							c3.5,0.1,13.1,0,16.6,0.2c0.6,0,1.5-0.1-0.1-0.1c8.5,0,18.9,0.3,25.5,0.1l-0.6-0.1c1.6,0,2.8,0.1,4.7,0.1
							c-0.1,0-0.6-0.1,0.1-0.1c0.8,0,4.2,0.1,6.3,0.1l-1.8-0.1c8.3-0.1,12.7,0.2,19.6,0.3c0-0.2,6.5-0.3,9.7-0.3l-0.1,0
							c9.6,0,16.4,0.2,25.3,0.3c5.5-0.2,18.7-0.1,27.6-0.2c-1.4,0,0.2,0.2,1.8,0.2c2.1,0,5.8,0.2,5.4,0l-0.7,0
							c1.6-0.2,5.9-0.1,9.2-0.2l0.6,0.3c8.8-0.4,23,0.1,27.7-0.2c2.1,0,4.7,0.1,6.8,0.1l-0.1-0.1c5.9,0,8.8-0.1,16,0l-1.5-0.1
							c4.1,0,5.2,0.4,8.9,0.4l1.1-0.2c7.1,0,14.3-0.2,21.4,0c-0.1,0-0.3-0.1-1.5-0.1c3.4,0,13-0.1,11.8,0.1c0-0.1,1.9-0.1,4.2-0.1
							c2.3,0,5.1,0.1,7,0.1l-0.6-0.1c3.2,0.2,3.4,0.2,7.9,0.3c1.1,0,0.9-0.1-0.5-0.1c3.6-0.1,2.8,0.1,7.1,0.1l-1.6-0.1
							c3.7,0,3.4,0,5.4,0.1c2.3,0.1,7,0,7.5-0.2c0.5,0.1,2.5,0.2,4.7,0.1c0.3,0-0.5-0.1-0.9-0.1c6.2-0.1,9.2,0.2,13.4,0
							c0.1,0,0.4-0.1,0.7-0.1c-4.9,0-8.1,0-8.5,0c0-0.1,4-0.2,0.8-0.3c3.2,0.1,8.6,0.3,12.5,0.2c0.2,0,0.4,0,0.5,0l-0.4,0
							c0.9,0,1.7,0,2.4,0c1.2,0,2,0,3.2,0c0.5-0.1,4.5-0.1,6.5-0.1c-0.2,0.1,2.4,0.1,0,0.2c0.3,0-0.4,0-1.7,0c-0.3,0-0.6,0-0.8,0
							c0,0,0.1,0,0.1,0c-1.3,0-3,0-4.9,0c1.6,0.1,3.2,0.1,5.4,0.1c1,0.1,2.1,0.2,2.8,0.2c2.7-0.2,7.9-0.3,8.6-0.4
							c6,0.1,14.2,0.1,18,0.3c1.7,0,2-0.1,2.6-0.1c-1,0-2.2,0-2.7-0.1c3.4,0.1,10.1,0,11,0.2c4.3-0.1-2.4-0.2,3.5-0.1l-0.8-0.1
							c11.7-0.3,19,0.5,31.9,0.1c-0.9,0-1.3,0-1.5,0.1c14.7-0.2,30.4,0.2,44.9-0.1c4.1-0.1,4.6,0.1,7.1,0.2l0.9-0.2l4.3,0.2
							c6.1,0.1,10.6-0.4,18.3-0.1l-1,0.1c2.8,0,8.8,0.1,8.3-0.1c0.3,0,0.9,0.1,2,0.1l0.1-0.1l6.8,0.1c5.3-0.1-0.8-0.3,6.9-0.3
							c0.7,0,1.6,0,2.5,0c0.4,0,0.9,0,1.3,0c0.2,0,0.5,0,0.7,0.1c0.2,0.1,0.5,0.1,0.7,0.3c0.8,0.5,1.1,1.3,1.1,1.7
							c0,0.4,0,0.6,0,0.3c0-0.7-0.5-1.4-1.1-1.7c-0.6-0.3-1.1-0.3-1.2-0.2c0,0,0.2,0,0.4,0c0.3,0.1,0.6,0.2,0.8,0.4
							c0.3,0.2,0.5,0.5,0.6,0.7c0.1,0.2,0.1,0.4,0.1,0.4c0,0.3-0.2,0.9-0.3,0.6c-0.1-0.1-0.1-0.4-0.4-0.9c-0.2-0.2-0.4-0.5-0.8-0.6
							c-0.1,0-0.2-0.1-0.3-0.1c-0.1,0-0.2,0-0.4,0c-0.3,0-0.7,0-1.1,0l-4.5-0.1l-1.4,0.1l3.8,0c-2.1,0.1-3.5,0-5-0.1
							c-0.4,0.1-1,0.1-1.9,0.1l-4.4-0.2c-0.5,0.1,2,0.2-1,0.2c-2.1-0.1,2-0.2-1.4-0.3c-2.2,0.1-1.5,0.2-4,0.1
							c-0.4,0.1,0.2,0.1,1.2,0.1c-2.2-0.1-5.9,0-7.1-0.2c-2.2,0.1-7.6,0-7.4,0.2c-0.7-0.1-4-0.2-6-0.2c3.8,0.3-7.7,0-6.7,0.3
							c-2.8-0.2-10.1-0.1-15-0.2c0.3,0,0.8,0.1,1.3,0c-2.8,0-3.6,0.1-5.4,0.1c-0.4-0.2-4.7-0.2-7-0.4c-3.4,0.2,2.1,0.2,1,0.4
							c0.2-0.2-5.9-0.2-4.8-0.3c-2.6,0.1-2.2,0.1-3.6,0.2c-0.5-0.2-2.4,0-4.6-0.2c-3.8,0.1-1,0.2-5.1,0.2
							C157.2-32.3,160.8-32.2,160.8-32.2z M62.3-32.6L62.3-32.6c0.8,0,1.6,0,2,0C63.9-32.6,63.3-32.6,62.3-32.6z M54-32.6
							c1,0,2.3,0,3.6,0c0.3,0,0-0.1-0.9-0.1C57.2-32.7,55.2-32.7,54-32.6z M71.5-33.6c-1.3,0-1.8,0-1.9,0c0.6,0,1.3,0,2.3,0
							c0,0,0.1,0,0.2,0C71.9-33.6,71.8-33.6,71.5-33.6z"/>
						<path fill="#202020" d="M73.9-33.4c0.2,0,0.3,0,0.5,0c-0.3,0-0.5,0-0.8,0c-0.2,0-0.3,0-0.5,0C73.4-33.4,73.6-33.4,73.9-33.4z"
							/>
						<path fill="#202020" d="M130.1,13.2l-0.2,0c0.1,0,0.3,0,0.4,0C130.2,13.2,130.2,13.2,130.1,13.2z"/>
						<polygon fill="#202020" points="-60.4,-32.4 -60.4,-32.4 -59.7,-32.4 						"/>
						<path fill="#202020" d="M175.7,12.7c0.1,0,0.3,0,0.6,0C176.3,12.7,176,12.7,175.7,12.7z"/>
						<path fill="#202020" d="M195.4,12.7l2.8-0.1C197,12.7,196.1,12.7,195.4,12.7z"/>
						<path fill="#202020" d="M210.6,12.6c0.2,0,0.2,0,0.3,0.1c0,0,0,0,0,0L210.6,12.6z"/>
						<path fill="#202020" d="M-30.4,12.5c-0.2,0-0.4,0-0.6,0C-32.3,12.4-31.4,12.4-30.4,12.5z"/>
						<path fill="#202020" d="M41.3,12.8c-0.8,0-1.5,0-2.3-0.1C40.3,12.7,41.3,12.7,41.3,12.8z"/>
						<path fill="#202020" d="M-110.4,12.3C-110.4,12.3-110.4,12.3-110.4,12.3c-0.2,0-0.3,0-0.5,0L-110.4,12.3z"/>
						<path fill="#202020" d="M35.7,12.7c1.3,0,2.3,0,3.3,0C38,12.7,36.8,12.7,35.7,12.7z"/>
						<path fill="#202020" d="M251.2-12.4l0-0.7c0,0,0,0,0-0.1L251.2-12.4z"/>
						<path fill="#202020" d="M251.2-13.2l0-0.8C251.3-13.7,251.3-13.4,251.2-13.2z"/>
						<path fill="#202020" d="M251.3-15.8l0,1.7C251.3-14.6,251.3-15.4,251.3-15.8z"/>
						<path fill="#202020" d="M251.3,7.6l-0.1,0.2C251.3,7.7,251.3,7.7,251.3,7.6z"/>
						<path fill="#202020" d="M250,12.6c0.6-0.1,1.2-0.7,1.2-1.5c0-0.9,0-2,0-3l0-0.2c0,0.5,0,1.6,0,2.8c0,0.3,0,0.6,0,0.8
							c-0.1,0.2-0.2,0.4-0.3,0.6C250.7,12.4,250.3,12.5,250,12.6z"/>
						<path fill="#202020" d="M224.6,13.2l5.1,0c-0.9,0.1-2.1,0.1,0.3,0.1C223.6,13.5,231.3,13.2,224.6,13.2z"/>
						<path fill="#202020" d="M208.8,13.3c2.7,0,0,0.1,0.1,0.1C207.2,13.4,206.8,13.4,208.8,13.3z"/>
						<path fill="#202020" d="M94.3,13.3l0.3,0.1C92.5,13.4,94.6,13.4,94.3,13.3z"/>
						<polygon fill="#202020" points="72.5,12.7 74.5,12.6 75.5,12.7 						"/>
						<polygon fill="#202020" points="59.5,13.6 60.5,13.6 56.9,13.5 						"/>
						<path fill="#202020" d="M-132.7,13.5l0.6-0.2C-130.6,13.4-130.3,13.6-132.7,13.5z"/>
						<path fill="#202020" d="M-215.7,13.4c-0.9,0.1-3.2,0.1-4.7,0.1C-218.5,13.4-216.6,13.3-215.7,13.4z"/>
						<polygon fill="#202020" points="-82.4,-33.6 -84.1,-33.7 -80.9,-33.6 						"/>
					</g>
				</g>
			</g>
		</g>
	</g>
	<g>
		<g>
			<g>
				<g>
					<g>
						<path fill="#202020" d="M142.3,13.5c0-0.2,0.1-0.1,0.1,0.4l-0.2,0.3L142.3,13.5z"/>
						<path fill="#202020" d="M142.6,16.6c-0.1,0.5-0.2,1.2-0.4,0.8c0.2-0.5,0.1-0.7,0.3-1.2c0-0.5-0.1-0.8-0.1-0.7
							c0-0.2,0-0.7,0.1-1c0.1,0.6,0.1,1.4,0,2.2C142.6,16.8,142.6,16.6,142.6,16.6z"/>
						<path fill="#202020" d="M113.1,33.2l0.3,0C113.3,33.2,113.2,33.2,113.1,33.2z"/>
						<path fill="#202020" d="M85.1,33.3c0.2,0,0.3,0,0.3,0C85.2,33.3,85.1,33.3,85.1,33.3z"/>
						<path fill="#202020" d="M80.3,33.5c0.1,0,0.2,0,0.3,0C80.5,33.5,80.4,33.5,80.3,33.5z"/>
						<path fill="#202020" d="M113.1,33.2l-0.7,0.1C112.3,33.2,112.7,33.2,113.1,33.2z"/>
						<path fill="#202020" d="M142.2,22.8c0-0.2,0-0.3,0-0.4L142.2,22.8C142.3,22.8,142.3,22.8,142.2,22.8z"/>
						<path fill="#202020" d="M125.4,33.4l0.2,0c0.1,0,0.1,0,0.2,0.1L125.4,33.4z"/>
						<path fill="#202020" d="M134.9,33.4c-0.2,0-0.3-0.1-0.4-0.2C134.6,33.3,134.8,33.3,134.9,33.4C135,33.3,134.9,33.4,134.9,33.4
							z"/>
						<path fill="#202020" d="M142.8,25l0-0.3C142.8,24.8,142.8,24.9,142.8,25z"/>
						<path fill="#202020" d="M118.6,33.4C118.6,33.4,118.6,33.4,118.6,33.4C118.5,33.4,118.6,33.4,118.6,33.4z"/>
						<path fill="#202020" d="M-138.7,25.5C-138.7,25.5-138.7,25.5-138.7,25.5C-138.7,25.4-138.7,25.4-138.7,25.5z"/>
						<path fill="#202020" d="M-139.4,14.5l0,0.2c0,0-0.1,0-0.1,0L-139.4,14.5z"/>
						<path fill="#202020" d="M71.6,33.7C71.6,33.7,71.6,33.7,71.6,33.7C71.9,33.7,71.7,33.7,71.6,33.7z"/>
						<path fill="#202020" d="M-8.6,33.6c0.9-0.1-1.5-0.2-0.1-0.3C-8.9,33.3-7.5,33.5-8.6,33.6z"/>
						<path fill="#202020" d="M142.3,23.1l0,0.4C142.3,23.3,142.3,23.2,142.3,23.1z"/>
						<path fill="#202020" d="M-8.7,33.3L-8.7,33.3l0.1,0C-8.7,33.3-8.7,33.3-8.7,33.3z"/>
						<path fill="#202020" d="M51.5,33.6c0,0,0.1,0,0.2-0.1C51.7,33.6,51.6,33.6,51.5,33.6z"/>
						<path fill="#202020" d="M66.5,33.4l-0.4,0C66.2,33.4,66.3,33.4,66.5,33.4z"/>
						<path fill="#202020" d="M43.7,33.4c-0.2,0-0.3,0-0.5,0c0,0,0.1,0,0.1,0C43.3,33.4,43.4,33.4,43.7,33.4z"/>
						<path fill="#202020" d="M35.6,33.4c0,0,0.1,0,0.1,0c0.1,0,0.2,0,0.3,0L35.6,33.4z"/>
						<path fill="#202020" d="M-121.4,32.4c-0.2,0-0.3,0.1-0.4,0.1C-121.6,32.4-122.8,32.4-121.4,32.4z"/>
						<path fill="#202020" d="M142.3,22.8c0,0-0.1,0.1-0.1,0.2C142.3,23,142.3,22.9,142.3,22.8C142.3,22.8,142.3,22.8,142.3,22.8z"
							/>
						<path fill="#202020" d="M43.3,32.3l-1.3,0C42.4,32.3,42.9,32.3,43.3,32.3z"/>
						<path fill="#202020" d="M-63.2,32.4l-0.3,0C-63.4,32.4-63.3,32.4-63.2,32.4z"/>
						<path fill="#202020" d="M38.2,32.3c-0.2,0-0.5,0.1-0.7,0.1c-0.1,0-0.1,0-0.1,0L38.2,32.3z"/>
						<path fill="#202020" d="M-121.7,32.5L-121.7,32.5L-121.7,32.5z"/>
						<path fill="#202020" d="M-130.2,32.2c1.2,0,0.6,0.2,0.8,0.3c1.5,0.1,0.7-0.1,1.2-0.2c0.9,0,1.6,0.2,2.3,0.2c0.1,0,0.2,0,0-0.1
							c1,0.1,2.9,0,4,0.2c0.1,0,0.1,0,0.1,0c-0.2,0.1-0.2,0.2-0.2,0.3c0.6,0,1,0.1,1.2,0c-0.3,0-0.4,0-0.5-0.1l0.6,0.1
							c0.5-0.2-0.8-0.1-0.8-0.2c1.1,0.1,2.4,0.2,3.3,0.2c0.2-0.2-2-0.1-0.9-0.2l-1.3,0.1c1-0.3-0.8,0,0.1-0.3c1.8,0,2,0.1,3.7,0
							c0.4,0.1-0.1,0.1,0.3,0.2c2.5,0.2,2-0.4,3.8-0.2c0.5,0.1,0.7,0.3,2,0.2l-0.4-0.2c1.7,0,1,0.3,2.7,0.1
							c-0.3-0.1-1.3-0.1-1.1-0.1c1.2-0.2,0.8,0.1,1.7,0.1l0.2-0.2c1.8,0.1,3.8,0.1,5.8,0.2c-0.1-0.1-0.5-0.1,0-0.2
							c2.5,0.1,5.4,0,7.8-0.1l0.9,0.1c0.2,0,0.4-0.1,0.2-0.1c0.9-0.1,0,0.1,0.5,0.2c0.5,0,0.7-0.1,0.4-0.1c1.7,0.1,4.8,0.3,6.5,0.1
							l-0.3,0c1.4-0.1,1.6,0.3,2.8,0.2l-0.2,0c3-0.1,6.3,0.1,8.6-0.2c0.4,0.2,3-0.1,3.1,0.2c1.7-0.1,1.2-0.2,3.6-0.3
							c0.6,0,1,0.2,1.7,0.2l0-0.2l1.1,0.2l0.6-0.2l0.7,0c-0.3,0-0.6,0.1-0.6,0.1c1.2,0.1,2.8-0.1,2.9-0.2l2.7,0.1
							c-0.1-0.1-0.5-0.1-0.9-0.1c1.5,0.2,0.3-0.2,1.6,0c-0.2,0,0.1,0.1,0.1,0.1c0.7-0.1,2.2-0.1,3.3-0.1l-0.2-0.1c2,0,4.3,0.1,6.6,0
							c-0.8,0-0.6,0.2,0,0.3l0.3-0.2c0.4,0.1-0.7,0.1,0.2,0.2c0.9,0,0.6-0.2,0.1-0.2l1,0.1c0.1,0-0.2-0.1-0.2-0.1
							c0.4,0.1,1.8-0.2,2.4,0l0.1,0c2.3,0,3.3,0,5.2,0.1c0,0.1,0.8,0.1,1.3,0.2c1.4,0,2.9-0.2,4.5-0.1c1.2,0.1,0.3,0.1,0.9,0.2
							c0.1-0.1,1.7-0.1,0.9-0.2c2,0,2.5,0,5,0.1c-0.3,0.1-0.6,0.1-0.4,0.1c0.5,0,1-0.1,1-0.1l-0.1,0c2.8,0.2,6.5-0.4,8.7-0.1l-0.1,0
							l2.3,0.1c1.1,0-0.6-0.1,0.1-0.2c2.5,0.2,4,0,6,0.1c1.6-0.4,5.7,0,7.8-0.2l-0.1,0.1c0.6,0.1,0.7-0.1,1.1-0.1
							c-0.1,0.1-0.6,0.1-0.3,0.1c4.7,0.1,9.7-0.1,14.6-0.2c1.8,0,1,0.5,3.2,0.2l-0.6-0.2c3.6,0.2,7.3,0,10.8,0.2
							c-0.2,0-0.2-0.1-0.6-0.1c0.7-0.1,2.7,0,2.7,0.1c0.5,0,0.1-0.1,0.5-0.1c0.7-0.1,1.9,0.2,2.2,0c0.1,0-0.2,0-0.3,0
							c0.5,0.1,2.2,0,1.8,0.1c1.3-0.1,2.5,0.1,3.6,0c0.7,0.2,2.2-0.1,2.5,0.1c-0.1-0.2,2.3-0.2,3.1-0.1c-0.3-0.1,0.7-0.1,0.4-0.2
							c0.9,0,1.8,0,1.6,0.2c1.7-0.3,3.5,0.2,4.5-0.1c2.8,0.1,5.4,0.2,7.9,0.3c-0.1-0.2-2.8,0-2.7-0.3c2.4,0.1,3.8,0.3,6.2,0.2
							c0.6,0-0.3-0.1-0.6-0.1c2.4,0.1,4.6,0,6.8,0.1c0,0-0.2,0-0.5-0.1c0.4,0,1,0,0.9,0.1l-0.4,0c-0.7,0.1,1.7,0.3,1.7,0.4
							c-0.7-0.3,2.1-0.1,1-0.4c0.3,0,0.6,0.1,0.6,0.1c0.4,0,0.5-0.1,0.1-0.1c1.5,0.1,1,0.2,2.3,0.2c0,0-0.3-0.1-0.4-0.1
							c0.7,0.1,1.4,0.2,2.5,0.2c-0.1,0,0.1-0.1-0.3-0.1c2,0,3.4,0.3,5.5,0.2c-0.6-0.2,0.7-0.1,0.9-0.3l1.2,0.1l-0.5,0.1
							c1,0,1.9,0.1,2.8,0.1L84,32.6l1.9,0l-1.1,0.1c1,0.1-0.1,0.2,1.2,0.2c-0.3,0,1,0,1.6-0.1l0,0c0.5,0.1,1,0.1,1.8,0.1
							c0.2-0.1-0.2-0.2,0-0.2c0.5,0.2,2.4,0,3,0.2c-0.2,0-0.2-0.1-0.2-0.2l0.4,0.1c0.5,0,0.5-0.1,0.5-0.1c1.4,0-0.5,0.2,1.2,0.1
							c-0.1,0-0.1,0-0.3,0c1.7-0.1,3.3,0.1,4.8,0c0.5-0.2-1.4,0-0.8-0.2c2.2,0,4.7,0.2,6.8,0.2l-0.4,0c0.3,0.3,1.6-0.1,2.7,0
							c-0.3,0-0.4-0.1-0.3-0.1c1.5,0,3,0.1,5.3,0.1l-0.3-0.1c0.9-0.1,2.3,0,3.3-0.1c0.3,0.1,0.8,0.1,0.5,0.2
							c2.9-0.4,5.6,0.2,8.2-0.1c-0.3,0-0.7-0.1-0.5-0.1l2.2,0.1c-0.2,0.1-0.3,0.1-0.8,0.2c0.3,0.1,0.9,0.1,1.5,0.1
							c-1-0.1,0-0.2,0.4-0.3c-0.1,0,0.1,0.1,0,0.1c1.2-0.2,0.2,0.2,1.8,0.1l-0.1-0.1c0.6,0,1.1,0.1,1.8,0.1c0.3-0.1-0.6-0.1-0.7-0.2
							c0.9,0,1.8,0.3,2.6,0.1c-0.4,0-0.9-0.1-1.3-0.1c0.9-0.2,1-0.1,1.6-0.1l-0.1,0l1.5-0.1l-0.4,0c1.1,0.3,2.3,0.1,3.8,0.3
							c-1.5-0.2-0.2-0.1-0.4-0.3c0.4,0,1-0.1,0.8-0.1c0.7,0.1,1.2-0.1,2.2,0.1c0,0,0.8,0,0.6-0.1c0.4,0,0.3,0,0.2,0.1
							c-0.1,0-0.4,0.1-0.4,0.1c0.4,0,0.7,0.1,1-0.1c0.3-0.1,0.6-0.4,0.8-0.8c0.2-0.4,0.2-0.7,0.2-1.2c0-0.5,0-1,0.1-1.5
							c0.1-1.8,0.3-2.1,0.3-3.7c-0.1-0.6-0.2,0.5-0.2,0.5c-0.1-0.9-0.1-1.6,0-2.4c0,0.2-0.1,0-0.1-0.3c0-0.7,0.2-0.5,0.1-1.3
							c-0.1,0.2-0.1,0.3-0.2,0.7c0.1-0.8,0.1-1.6,0.2-2.4c-0.1-0.2-0.1,0.5-0.2,0.8c0-0.9,0.1-2.4,0.2-2.7l0,0.6
							c0-0.3-0.1-0.2-0.1,0.1c-0.1,0.8,0,1.1,0.1,1.2l0-0.6c0.3,0.6,0,2.4,0,3.5l0.2-0.5l-0.2,1.2c0.1,0.3,0.2,0.4,0.2-0.1
							c0.1,0.8-0.1,0.8,0,1.5c0,0.1,0,0,0,0l-0.1,0.8c0-0.2,0.1,0.1,0.1-0.4c0.1,1.5-0.2,2.4,0,3l0-0.1c-0.1,2.1-0.2,0.2-0.3,1.7
							l0.4,1c0,0-0.2,0.2-0.2,0.2c0,0.2-0.2,0.6-0.1,0.6c-0.5,0.7,0-0.1-0.3,0.2c-0.2,0.5-0.9,1-1.5,1c-0.6,0-1.1,0-1.2,0.1
							c-0.4-0.1,1-0.1-0.1-0.2c-0.3,0.3-1.3,0-2.2,0.1c0.3,0.1,1.2,0.1,0.2,0.2c-0.6-0.2-1.8,0-2.6,0c0-0.2-1.7-0.1-3-0.1
							c0.1,0.1-2.5,0.1-3.7,0.2l0,0c-0.2-0.2-1.5-0.1-2.4-0.2c0,0.1,0.2,0.2,0.7,0.2l-0.9,0c-0.2-0.1-0.5-0.1-1-0.1l0.2,0.1
							c-1.2,0-2.3-0.2-3.8-0.1c-0.1-0.1,1.2-0.4-0.4-0.4c-0.1,0.1-0.1,0.2,0.3,0.2c-0.1,0-0.5-0.1-0.8,0l0.6,0.1
							c-0.7,0.1-0.4-0.1-0.9-0.1c0,0.1-0.4,0.1-0.3,0.1c0.1,0,0.5,0,0.7,0c-0.6,0-1.4,0.1-1.6,0.2c0.1-0.1,0-0.1-0.4-0.1
							c-1.2,0-0.4,0.1-1.1,0.2c-0.3-0.1-1,0-1-0.1c-0.3,0-0.4,0.1-0.5,0.1c-0.6-0.1-2.8,0-2.1-0.2l0.2,0c0,0-0.1,0-0.1,0h0h0
							c-2-0.1-4.1,0.1-6,0l0,0c-1.2-0.1-2.6,0-3.4-0.1c-0.3,0-0.8,0.1-0.7,0.1c-0.9,0-1-0.1-2.3,0c0.9,0.1-0.3,0.1,0.9,0.1
							c-1.2,0-1.4,0.1-2.7,0c0.4,0.1-0.9,0.2-1.4,0.1l0.8-0.1c-0.6,0-1.2,0-1.7,0l0.3,0.2c-2.4,0.2-4.3-0.3-6.1,0
							c-0.6-0.1,1.3-0.1,0.7-0.2c-1.1,0-2.2,0.3-2.6,0.3c-1.5,0.1-1.4-0.2-2.9-0.2c0.2-0.1,0.4-0.2-0.8-0.3c-1.1,0-1.3,0.2-0.7,0.3
							c0.3,0,0.4,0,0.4,0c0.4,0,0.8,0,0.4,0.1l-0.1-0.1c-0.5,0.1-2,0.1-1.7,0.2c-0.8-0.1-0.4-0.1,0.3-0.1c-1.4,0.1-2.2,0-3.6,0.1
							c0.2,0,0.4-0.1,0.2-0.1c-2.1,0.1-0.9-0.1-2.4-0.1c-0.8,0.1,0.3,0.2-1.1,0.1c-0.9,0.1-0.2,0.2,0.2,0.2
							c-1.3-0.1-2.4,0.1-3.2,0.1l0.7,0c-0.4,0-0.8,0-1.1,0l0.4-0.1c-0.4,0-0.7,0-0.7,0.1c-0.4-0.1,0.3-0.2-0.5-0.3
							c-0.5,0.1-1.6-0.1-1.8,0.1c1.7-0.1-0.2,0.2,1.3,0.2c-0.3,0-0.6,0-1,0c-0.1,0,0.1,0,0.2,0c-1.6,0.1-0.7-0.2-2.4-0.2
							c0.2,0.1-0.4,0.2-0.7,0.1c0.7,0,0.3-0.1-0.3-0.2c-1.1,0.1-1.2-0.1-1.7,0l0.6,0c-0.2-0.1-0.8-0.1-1.5-0.1
							c-0.1,0.1,0.7,0,0.4,0.1c-0.8-0.2-1.9,0.2-3.1,0.1c-0.5,0.1-0.1,0.2-0.5,0.2c-1.3-0.1-1.4,0.1-2.8,0c0.4-0.1,0.5-0.1-0.5-0.2
							l2.3,0.1l-1.4-0.2c0.7,0,1.4,0.1,1.8,0.1c-0.7-0.1-0.6-0.1-0.3-0.2c-0.9,0.2-1.8-0.1-2.9,0l0,0.3c-1.6,0.1-2.9-0.2-5-0.1
							l0.7-0.1c-0.3-0.1-1.3,0-2-0.1c0.1,0.1-0.4,0.1-0.7,0.2c0-0.1-1.5,0-1.7-0.2L49,33.5c-1.7,0.1-1.9-0.3-3.6-0.2
							c0.5,0.1-0.3,0.2,0.8,0.3c-0.5,0-1,0-1,0c-0.3,0.1-1.5-0.1-2,0c-0.2,0-0.3-0.1-0.9-0.1c-0.1,0,0,0,0,0c0,0-1-0.1-0.4-0.2
							c-1.7,0.3-4.7,0-6.2,0.2c-1.2,0-2.6-0.1-3.7-0.1c0.1,0,0,0,0.2,0c-1.5,0.1-0.9-0.3-2.6-0.2c-0.9,0.2,0.9,0.1,0.4,0.1
							c-0.2,0.3-2,0-3.2,0.1l0.3,0c-0.9,0.1-2.1-0.1-3.6-0.1c0,0,0.1,0,0,0c-1-0.2-2.8-0.2-4.2-0.3c0.4,0.1,0.6,0.1,0.4,0.2
							c-0.6,0,0.2-0.2-1-0.2c-0.4,0.1-1.3,0.1-1.4,0.3l1.2,0c-0.6,0.2-1.5,0-2.1,0l0.1,0.1c-1.8,0-1.8-0.2-3.7-0.2l0.2-0.1
							c-1-0.2-0.9,0.1-1.9,0l-0.3,0.2c-0.7,0-2.4-0.2-3.6-0.2c0.7,0.1,2.1,0.2,3,0.3c-0.7,0-2.3,0-2.7-0.1c0.3,0,0.6,0.1,0.9,0
							c-0.8-0.2-1.9-0.2-3.3-0.2c0.2,0.4-3.5,0.1-4.5,0.4c-2.4-0.1-4.8,0.1-7.6,0c1-0.3-0.8,0-0.6-0.3c-0.7,0-0.9,0-1,0l-2,0.2
							c-0.5,0.1,0.6,0.1,0.6,0.1c-1.4,0-0.6,0.1-1.5,0.2c0.2-0.1-0.5-0.2-1.3-0.1l1.1-0.1c-2-0.2-1.7,0.3-3.7,0.1l0.6,0.1
							c-1-0.1-3.8,0-4.8-0.2c-0.2,0-0.4,0.1,0,0.1c-2.5,0-5.5-0.3-7.4-0.1l0.2,0.1c-0.5,0-0.8-0.1-1.4-0.1c0,0,0.2,0.1,0,0.1
							c-0.2,0-1.2-0.1-1.8-0.1l0.5,0.1c-2.4,0.1-3.7-0.2-5.7-0.3c0,0.2-1.9,0.3-2.8,0.3l0,0c-2.8,0-4.8-0.2-7.3-0.3
							c-1.6,0.2-5.5,0.1-8,0.2c0.4,0-0.1-0.2-0.5-0.2c-0.6,0-1.7-0.2-1.6,0l0.2,0c-0.5,0.2-1.7,0.1-2.7,0.2l-0.2-0.3
							c-2.5,0.4-6.7-0.1-8.1,0.2c-0.6-0.1-1.4-0.1-2-0.1l0,0.1c-1.7,0-2.6,0.1-4.7,0l0.4,0.1c-1.2,0-1.5-0.4-2.6-0.4l-0.3,0.2
							c-2.1,0-4.2,0.2-6.2,0c0,0,0.1,0.1,0.4,0.1c-1,0-3.8,0.1-3.4-0.1c0,0.2-2.1,0-3.3-0.1l0.2,0.1c-0.9-0.2-1-0.2-2.3-0.3
							c-0.3,0-0.3,0.1,0.1,0.1c-1,0.1-0.8-0.1-2.1-0.1l0.5,0.1c-1.1,0-1,0-1.6-0.1c-0.7-0.1-2,0-2.2,0.2c-0.1-0.1-0.7-0.2-1.4-0.1
							c-0.1,0,0.1,0.1,0.3,0.1c-1.8,0.1-2.7-0.2-3.9,0c0,0-0.1,0.1-0.2,0.1c1.4,0,2.6,0,2.5,0c0,0.1-1.1,0.2-0.2,0.3
							c-0.9-0.1-2.5-0.3-3.6-0.2c-0.1,0-0.1,0-0.1,0l0.1,0c-0.3,0-0.5,0-0.7,0c-0.4,0-0.6,0-0.9,0c-0.1,0.1-1.3,0.1-1.9,0.1
							c0-0.1-0.7-0.1,0-0.2c-0.1,0,0.1,0,0.5,0c0.1,0,0.2,0,0.2,0l0,0c0.4,0,0.9,0,1.4,0c-0.5-0.1-0.9-0.1-1.6-0.1
							c-0.3-0.1-0.6-0.2-0.8-0.2c-0.8,0.2-2.3,0.3-2.5,0.4c-1.8-0.1-4.1-0.1-5.2-0.3c-0.5,0-0.6,0.1-0.8,0.1c0.3,0,0.6,0,0.8,0.1
							c-1-0.1-2.9,0-3.2-0.2c-1.3,0.1,0.7,0.2-1,0.1l0.2,0.1c-3.4,0.3-5.5-0.5-9.3-0.1c0.3,0,0.4,0,0.4-0.1c-2.1,0.1-4.4,0-6.6,0
							c-1.1,0-2.2,0-3.3,0c-0.6,0-1,0-1.7,0c-0.6-0.1-1.2-0.4-1.6-0.9c-0.4-0.6-0.4-1-0.4-1.3c0-0.3,0.1-0.5,0.1-0.9l-0.2-0.3
							l0.2-1.3c0.1-1.8-0.4-3.1-0.1-5.3l0.1,0.3c0-0.8,0.1-2.6-0.1-2.4c0-0.1,0.1-0.3,0.1-0.6l-0.1,0l0.1-2c-0.1-1.5-0.3,0.2-0.3-2
							c0-0.8,0.2-2.4,0.3-2.1c0,0.3,0,0.9,0.1,0.9l0-0.8c0.2-0.1,0.5-0.7,0.6,1.1l-0.1,1.3l0.1,0.4l0-1.1c0.1,0.6,0,1-0.1,1.5
							c0.1,0.1,0.1,0.3,0.1,0.5l-0.2,1.3c0.1,0.2,0.2-0.6,0.2,0.3c-0.1,0.6-0.2-0.6-0.3,0.4c0.1,0.6,0.2,0.4,0.1,1.2
							c0.1,0.1,0.1-0.1,0.1-0.3c-0.1,0.7,0,1.7-0.2,2.1c0.1,0.7,0,2.2,0.2,2.1c-0.1,0.2-0.2,1.2-0.2,1.8c0.3-1.1,0,2.2,0.3,2
							c-0.1,0.4-0.1,1.2-0.2,1.9c0,0.6,0.5,1.1,1,1.3c-0.1,0-0.1-0.1-0.2-0.1c0.3,0.1,0.5,0.1,0.6,0.1c0.2,0,0.4,0,0.7-0.1
							c0.1,0.2,1.4,0.2,2,0.4c1-0.2-0.6-0.2-0.3-0.4c0,0.2,1.7,0.2,1.4,0.3c0.8-0.1,0.7-0.1,1-0.2c0.1,0.2,0.7,0,1.3,0.2
							c1.1-0.1,0.3-0.2,1.5-0.2C-129.2,32.3-130.2,32.2-130.2,32.2z M-101.6,32.6L-101.6,32.6c-0.2,0-0.5,0-0.6,0
							C-102,32.6-101.9,32.6-101.6,32.6z M-99.2,32.6c-0.3,0-0.7,0-1,0c-0.1,0,0,0.1,0.2,0.1C-100.1,32.7-99.5,32.7-99.2,32.6z
							 M-104.3,33.6c0.4,0,0.5,0,0.6,0c-0.2,0-0.4,0-0.7,0c0,0,0,0,0,0C-104.4,33.6-104.3,33.6-104.3,33.6z"/>
						<path fill="#202020" d="M-104.9,33.4c-0.1,0-0.1,0-0.2,0C-105,33.4-104.9,33.4-104.9,33.4c0.1,0,0.2,0,0.2,0
							C-104.8,33.4-104.9,33.4-104.9,33.4z"/>
						<path fill="#202020" d="M113.4,33.2L113.4,33.2C113.4,33.2,113.4,33.2,113.4,33.2C113.4,33.2,113.4,33.2,113.4,33.2z"/>
						<polygon fill="#202020" points="-65.9,32.4 -65.9,32.4 -66.1,32.4 						"/>
						<path fill="#202020" d="M126.7,32.7c0,0,0.1,0,0.2,0C126.8,32.7,126.8,32.7,126.7,32.7z"/>
						<path fill="#202020" d="M132.4,32.7l0.8-0.1C132.9,32.7,132.6,32.7,132.4,32.7z"/>
						<path fill="#202020" d="M136.8,32.6C136.9,32.6,136.9,32.7,136.8,32.6L136.8,32.6L136.8,32.6z"/>
						<path fill="#202020" d="M66.8,32.5c-0.1,0-0.1,0-0.2,0C66.2,32.4,66.5,32.4,66.8,32.5z"/>
						<path fill="#202020" d="M87.6,32.8c-0.2,0-0.4,0-0.7-0.1C87.3,32.7,87.6,32.7,87.6,32.8z"/>
						<path fill="#202020" d="M43.5,32.3L43.5,32.3c0,0-0.1,0-0.1,0L43.5,32.3z"/>
						<path fill="#202020" d="M86,32.7c0.4,0,0.7,0,1,0C86.6,32.7,86.3,32.7,86,32.7z"/>
						<path fill="#202020" d="M142.2,18.9l0-0.2c0,0,0,0,0,0L142.2,18.9z"/>
						<path fill="#202020" d="M142.2,18.7l0-0.2C142.3,18.5,142.3,18.6,142.2,18.7z"/>
						<path fill="#202020" d="M142.3,17.9l0,0.5C142.3,18.3,142.3,18,142.3,17.9z"/>
						<path fill="#202020" d="M142.3,24.7L142.3,24.7C142.3,24.8,142.3,24.7,142.3,24.7z"/>
						<path fill="#202020" d="M142.3,26.5c0-0.4-0.1-1.1-0.1-1.7l0-0.1C142.2,25.1,142.4,26.1,142.3,26.5z"/>
						<path fill="#202020" d="M140.9,33.2c0,0,0.4-0.1,0.8-0.3c0.4-0.2,0.6-0.5,0.6-0.5c-0.2,0.2-0.4,0.6,0.2,0
							c-0.3,0.4-0.6,0.6-0.6,0.6c-0.1,0,0,0,0,0c0,0,0.1-0.1,0-0.1C141.7,33,141.5,33.1,140.9,33.2z"/>
						<path fill="#202020" d="M136.3,33.3c0.8,0,0,0.1,0,0.1C135.8,33.4,135.7,33.4,136.3,33.3z"/>
						<path fill="#202020" d="M103,33.3l0.1,0.1C102.5,33.4,103.1,33.4,103,33.3z"/>
						<polygon fill="#202020" points="96.7,32.7 97.3,32.6 97.5,32.7 						"/>
						<polygon fill="#202020" points="92.9,33.6 93.2,33.6 92.1,33.5 						"/>
						<path fill="#202020" d="M37,33.5l0.2-0.2C37.6,33.4,37.7,33.6,37,33.5z"/>
						<path fill="#202020" d="M12.9,33.4c-0.3,0.1-0.9,0.1-1.4,0.1C12.1,33.4,12.6,33.3,12.9,33.4z"/>
						<polygon fill="#202020" points="-59.5,33.6 -59,33.7 -59.9,33.6 						"/>
					</g>
				</g>
			</g>
		</g>
	</g>
	<g>
		<path fill="none" stroke="#000300" stroke-miterlimit="10" d="M-89.5,2.3c-1,0.8-2.1,0.9-2.6,0.3l-15.8-19.3
			c-1.2-1.5-1.9-5.9-1.9-5.9s4.1,1.6,5.3,3.1l15.8,19.3C-88.1,0.4-88.5,1.5-89.5,2.3z"/>
		<line fill="none" stroke="#000300" stroke-miterlimit="10" x1="-104.4" y1="-19.4" x2="-107.8" y2="-16.6"/>
		<line fill="none" stroke="#000300" stroke-miterlimit="10" x1="-94.8" y1="-0.8" x2="-91.4" y2="-3.6"/>
		<path fill="none" stroke="#000300" stroke-miterlimit="10" d="M-107.3-21.5l-1.8,1.5c-0.3-1.3-0.5-2.5-0.5-2.5
			S-108.6-22.1-107.3-21.5z"/>
		<path fill="none" stroke="#000300" stroke-miterlimit="10" d="M-88.6-0.2c0.5,0.6,0.1,1.7-0.9,2.5c-1,0.8-2.1,0.9-2.6,0.3
			l-1.1-1.4l3.5-2.8L-88.6-0.2z"/>
	</g>
	<path fill="none" stroke="#000300" stroke-miterlimit="10" d="M-47.6-15.3c4.8,5.4,5,13.1,0.3,17.2c-4.6,4.2-12.3,3.2-17.1-2.2
		c-4.8-5.4-5-13.1-0.3-17.2C-60-21.6-52.4-20.6-47.6-15.3z"/>
	<path fill="none" stroke="#000300" stroke-miterlimit="10" d="M-54.5-9c0.8,0.9,0.8,2.2,0.1,2.9c-0.8,0.7-2.1,0.5-2.9-0.4
		c-0.8-0.9-0.8-2.2-0.1-2.9C-56.7-10.1-55.4-9.9-54.5-9z"/>
	<path fill="none" stroke="#000300" stroke-miterlimit="10" d="M-12.5-16c0.8,0.9,0.8,2.2,0.1,2.9c-0.8,0.7-2.1,0.5-2.9-0.4
		c-0.8-0.9-0.8-2.2-0.1-2.9C-14.7-17.1-13.4-16.9-12.5-16z"/>
	<path fill="none" stroke="#000300" stroke-miterlimit="10" d="M1.5-21c0.8,0.9,0.8,2.2,0.1,2.9c-0.8,0.7-2.1,0.5-2.9-0.4
		c-0.8-0.9-0.8-2.2-0.1-2.9C-0.7-22.1,0.6-21.9,1.5-21z"/>
	<path fill="none" stroke="#000300" stroke-miterlimit="10" d="M9.5-1c0.8,0.9,0.8,2.2,0.1,2.9C8.7,2.6,7.4,2.4,6.6,1.5
		C5.8,0.6,5.8-0.7,6.6-1.4C7.3-2.1,8.6-1.9,9.5-1z"/>
	<path fill="none" stroke="#000300" stroke-miterlimit="10" d="M-4.5,3c0.8,0.9,0.8,2.2,0.1,2.9c-0.8,0.7-2.1,0.5-2.9-0.4
		c-0.8-0.9-0.8-2.2-0.1-2.9C-6.7,1.9-5.4,2.1-4.5,3z"/>
	<line fill="none" stroke="#000300" stroke-miterlimit="10" x1="-4.8" y1="3.5" x2="7.2" y2="0.5"/>
	<line fill="none" stroke="#000300" stroke-miterlimit="10" x1="-12.8" y1="-16.5" x2="-0.8" y2="-20.5"/>
	<line fill="none" stroke="#000300" stroke-miterlimit="10" x1="8.2" y1="-1.5" x2="1.2" y2="-18.5"/>
	<line fill="none" stroke="#000300" stroke-miterlimit="10" x1="-6.8" y1="3.5" x2="-13.8" y2="-13.5"/>
	<path fill="none" stroke="#000300" stroke-miterlimit="10" d="M64.2-9.5c0,6.6-5.4,12-12,12c-6.6,0-12-5.4-12-12s5.4-12,12-12
		C58.8-21.5,64.2-16.1,64.2-9.5z"/>
	<path fill="none" stroke="#000300" stroke-miterlimit="10" d="M49.3-18.2c0.1-1.1,4.5,0,5.1,0.2c1.8,0.6,3.9,2,5,3.6
		c1,1.4,1.3,3.1,1.6,4.7c0.1,0.7,0.4,1.7,0.3,2.4c-0.2,0.8-0.8,1.5-1.1,2.3"/>
	<path fill="none" stroke="#000300" stroke-miterlimit="10" d="M54.6-13.9c1.1-0.3,2.6,1.9,3.1,2.7c0.5,0.8,1,2.9,0.4,3.9"/>
	<path fill="none" stroke="#000300" stroke-miterlimit="10" d="M99.8-9.2c-1.1-6.1,2-11.8,7-12.7c5-0.9,10,3.3,11.1,9.4
		c1.1,6.1-2,11.8-7,12.7C105.9,1.1,100.9-3.1,99.8-9.2z"/>
	<path fill="none" stroke="#000300" stroke-miterlimit="10" d="M110.9,0.1l-9.8,2.4c-4,0.7-8.3-3.1-9.4-7.9
		c-1.6-7.1,2.5-8.1,5.4-11.1l7-5"/>
	<path fill="none" stroke="#000300" stroke-miterlimit="10" d="M93.4-10.1c0.9-0.9,5.5-3.9,6.3-4.9"/>
</symbol>
<g id="Layer_1">
	<g>
		<path d="M170.3,299h-1.2V298h-10.4v-1.1h10.4v-2.4h-9.5v-1.1h9.5v-2.2h-10.3v-1.1h5.6v-5.5h1.2v5.5h4.6V299z M163.4,289l-1.1,0.8
			c-1-1.3-2.1-2.5-3.3-3.4l0.9-0.8C161.2,286.6,162.4,287.7,163.4,289z M170.8,286.2c-0.9,1.4-1.9,2.6-3,3.6l-1.1-0.9
			c1.1-0.9,2.2-2,3.1-3.4L170.8,286.2z"/>
		<path d="M187.5,288.1H174v-1.1h3.9c-0.4-0.8-1-1.3-1.6-1.7l1.2-0.7c0.6,0.4,1.3,1.2,2,2.4h2.5c0.6-0.6,1.1-1.5,1.5-2.5l1.2,0.6
			c-0.3,0.7-0.7,1.4-1.2,1.9h4.1V288.1z M180.8,297.4c0,0.4-0.2,0.8-0.5,1s-0.7,0.3-1.2,0.3l-1.1,0l-0.4-1.2l1.6,0
			c0.2,0,0.3-0.1,0.3-0.3v-1.9h-2.9v3.2h-1.2v-9.3h5.4V297.4z M179.5,291.8v-1.3h-2.9v1.3H179.5z M179.5,294.3v-1.4h-2.9v1.4H179.5z
			 M183.4,296.1h-1.2v-6.3h1.2V296.1z M186.2,297.7c0,0.8-0.6,1.3-1.6,1.3l-1.2,0l-0.4-1.2c0.9,0,1.5,0,1.7-0.1s0.3-0.2,0.3-0.4
			v-8.5h1.3V297.7z"/>
		<path d="M203.7,298h-11.6v0.9h-1.2v-13.5h12.3v1.2h-11.1v10.2h11.6V298z M202,295.8l-1.1,0.7c-0.7-1.3-1.7-2.6-2.9-4
			c-1,1.3-2.4,2.7-4.3,4.1l-0.9-1c1.8-1.1,3.3-2.5,4.4-4c-1.1-1.3-2.5-2.5-4.1-3.7l0.9-0.8c1.6,1.3,2.9,2.4,3.9,3.4
			c0.8-1.2,1.5-2.3,2.2-3.5l1,0.6c-0.3,0.7-1.1,2-2.3,3.8C200.2,292.9,201.2,294.3,202,295.8z"/>
		<path d="M212.7,295.3l-4.3,0.9v3h-1.2v-2.8l-1.1,0.2l-0.7-1.1l1.7-0.3v-8.7c2-0.4,3.5-1,4.7-1.9l0.8,0.9c-1.3,0.9-2.7,1.6-4.3,2
			v1.2h3.4v1.2h-3.4v1.9h3.4v1.2h-3.4v2.1l4.3-0.8V295.3z M220,298l-0.7,1c-1.3-0.3-2.6-1-3.6-2.1c-1.1,0.9-2.3,1.7-3.8,2.2l-0.8-1
			c1.6-0.6,2.9-1.3,3.7-2.1c-0.6-0.9-1.2-2.1-1.5-3.6h-0.5v-1.2h5.6c-0.1,1.9-0.7,3.5-1.9,4.8C217.4,297,218.6,297.6,220,298z
			 M220.2,289c-0.3,1-0.7,1.6-1.3,1.6h-1c-0.8,0-1.2-0.4-1.2-1.3v-2.7h-2.5c0.1,1.5-0.1,2.6-0.4,3.2s-0.8,1.2-1.5,1.6l-1-0.8
			c1.2-0.7,1.7-1.6,1.7-2.6v-2.6h4.9v3.4c0,0.3,0.1,0.5,0.4,0.5h0.3c0.2,0,0.4-0.4,0.5-1.1L220.2,289z M217,292.4h-2.6
			c0.3,1.1,0.7,2,1.2,2.7C216.3,294.4,216.8,293.5,217,292.4z"/>
		<path d="M234.5,294.7h-1.3v-1.1h-3.9v5.4h-1.3v-5.4h-3.9l0,1.1h-1.3v-7.1h5.2v-2.9h1.3l0,2.9h5.2V294.7z M228.1,292.5v-3.6h-4v3.6
			H228.1z M233.2,292.5v-3.6h-3.9v3.6H233.2z"/>
		<path d="M250.9,287.3c0,4.3-0.3,7.3-0.6,9c-0.4,1.7-1,2.6-2,2.6c-0.4,0-1.3-0.2-2.5-0.5l-0.2-1.3c1.2,0.4,2,0.7,2.5,0.7
			c0.5,0,0.8-0.8,1.1-2.5c0.3-1.7,0.4-3.9,0.5-6.7h-3.4c-0.4,1.1-1,2.2-1.9,3.4l-0.8-0.5v7.1h-1.3v-1h-2.7v1.3h-1.3v-11.1h1.5
			c0.4-0.8,0.8-1.7,1-2.8l1.2,0.5c-0.3,1.1-0.6,1.9-0.9,2.4h2.4v3.3c1.2-1.7,2-3.7,2.4-6.2l1.3,0.3c-0.1,0.6-0.4,1.4-0.7,2.4H250.9z
			 M242.3,291.8v-3.1h-2.7v3.1H242.3z M242.3,296.2V293h-2.7v3.2H242.3z M248.7,294.6l-1.2,0.5c-0.5-1.3-1.2-2.5-2.2-3.8l1-0.7
			C247.4,291.9,248.2,293.2,248.7,294.6z"/>
		<path d="M258.2,289h-1.6v3l1.1-0.6v1.2l-1.1,0.6v4.5c0,0.3-0.1,0.6-0.3,0.8s-0.4,0.4-0.6,0.4c-0.2,0.1-0.7,0.1-1.6,0.1l-0.4-1.2
			l1.3,0c0.2-0.1,0.3-0.2,0.3-0.3v-3.8l-1.5,0.7l-0.6-1c1.1-0.5,1.8-0.8,2-0.9V289h-1.7v-1.2h1.7v-3h1.2v3h1.6V289z M268,297.4
			l-0.9,1c-2.2-0.9-3.6-1.9-4.2-3.1v3.7h-1.2v-3.7c-0.7,1.1-2.1,2.2-4,3.1l-0.8-1c1.6-0.7,2.8-1.6,3.6-2.5h-3.1v-1.1h4.3v-0.6h1.2
			v0.6h4.3v1.1h-3.1C264.7,295.9,266,296.7,268,297.4z M262.1,292.9H258v-3.5h4.1V292.9z M260.9,291.8v-1.2h-1.7v1.2H260.9z
			 M265.6,288.8h-6.4v-3.3h6.4V288.8z M264.5,287.7v-1.1h-4.1v1.1H264.5z M266.7,292.9h-4.1v-3.5h4.1V292.9z M265.6,291.8v-1.2h-1.8
			v1.2H265.6z"/>
		<path d="M274.5,285.2c-0.1,0.4-0.3,1-0.7,1.9l-0.5,1.2v10.8h-1.2v-8.7c-0.5,0.9-1.1,1.7-1.7,2.4l-1.1-0.6c1.8-2,3.2-4.4,4.1-7.5
			L274.5,285.2z M284,288.7h-5.8v1.9h5.2v1.2h-5.2v2h5.5l0,1.2h-5.5v4.2H277v-10.3c-0.4,1.2-1.2,2.4-2.5,3.6l-1.1-0.6
			c1.8-2.3,3-4.8,3.3-7.3l1.2,0.4c-0.1,0.7-0.4,1.6-0.8,2.7h6.8V288.7z"/>
	</g>
	<g>
		<g>
			<path fill="none" stroke="#000000" stroke-miterlimit="10" d="M288.5,292c0,0,23.2,5.9,33.4-32.9"/>
			<g>
				<polygon points="324.8,263.4 323.9,263.8 321.7,259.4 317.5,261.9 317,261.1 322.1,258 				"/>
			</g>
		</g>
	</g>
	<g>
		<path d="M353.7,167.5l-2.5,1.5l-0.7-1c0.2-0.2,0.3-0.5,0.3-0.7v-6.1h-2.2v-1.2h3.4v7.2l1.7-1.1V167.5z M352.5,158l-1.1,0.8
			c-0.4-0.8-1.1-1.7-2-2.4l0.8-0.7C351.2,156.3,351.9,157,352.5,158z M362.4,159.8h-5.6c0,0.8,0,1.6,0,2.3h4.6
			c-0.1,1.9-0.2,3.5-0.5,4.8c-0.2,1.3-0.5,2.1-0.8,2.4c-0.3,0.3-0.6,0.5-1.1,0.5c-0.4,0-1-0.1-1.8-0.2l-0.4-1.4
			c1.1,0.3,1.8,0.4,2.1,0.4c0.1,0,0.2-0.1,0.3-0.2c0.1-0.1,0.3-0.7,0.5-1.8c0.2-1.1,0.3-2.2,0.4-3.4h-3.4c-0.3,3-1.4,5.3-3.3,6.9
			l-0.9-1c0.8-0.6,1.4-1.4,1.9-2.3s0.8-1.9,0.9-3c0.1-1.1,0.2-2.4,0.2-4h-2.8v-1.2h9.6V159.8z M359.1,157.7l-1,0.8
			c-0.7-1.1-1.5-1.8-2.3-2.2l0.8-0.9C357.7,156.1,358.6,156.8,359.1,157.7z"/>
		<path d="M366.4,170h-1.2v-11.6h1.2V170z M369.8,158.2l-0.9,0.9c-0.6-0.8-1.4-1.5-2.5-2.1l0.8-0.8
			C368.2,156.7,369.1,157.3,369.8,158.2z M374.1,166.4h-1.2v-0.6h-3.3v1h-1.2v-6.4h5.7V166.4z M372.9,164.6v-3.1h-3.3v3.1H372.9z
			 M377.3,168.6c0,0.3-0.1,0.6-0.3,0.9c-0.2,0.2-0.5,0.4-0.8,0.4h-1.6l-0.4-1.2l1.7,0.1c0.2,0,0.3-0.1,0.3-0.3v-10.7h-5.6v-1.2h6.8
			V168.6z"/>
		<path d="M386.6,167.4c-1.3,1.1-3.1,2-5.4,2.7l-0.7-1.1c2.4-0.6,4.1-1.4,5.2-2.4L386.6,167.4z M394.1,166.4h-13.3v-1.2h2.7v-6.5
			h-2.2v-1.2h2.2v-1.9h1.3v1.9h5.4v-1.9h1.3v1.9h2.3v1.2h-2.3v6.5h2.8V166.4z M390.1,160.1v-1.3h-5.4v1.3H390.1z M390.1,162.6v-1.3
			h-5.4v1.3H390.1z M390.1,165.2v-1.5h-5.4v1.5H390.1z M394.4,169l-0.9,1c-1.5-1.2-3.2-2-5.2-2.3l0.7-1
			C390.9,167,392.7,167.7,394.4,169z"/>
		<path d="M409.9,161.5h-1.3v-2.3h-10.1v2.4h-1.3V158h5.8v-2.1h1.4v2.1h5.5V161.5z M409.5,165.7c-0.2,0.5-0.4,1.1-0.6,1.8
			c-0.4,1.3-1,2-2,2h-5.6c-0.6-0.1-1.1-0.3-1.3-0.6c-0.3-0.4-0.4-0.7-0.4-1v-7.2h1.3v3.4c1.8-0.2,3.9-1.2,6.2-2.8l1,0.8
			c-2.7,2-5.1,3.1-7.2,3.3v2c0,0.3,0.1,0.5,0.2,0.6c0.1,0.1,0.2,0.2,0.3,0.2h5.5c0.4,0,0.9-1,1.4-2.9L409.5,165.7z"/>
		<path d="M426.4,169h-11.6v0.9h-1.2v-13.5h12.3v1.2h-11.1v10.2h11.6V169z M424.7,166.8l-1.1,0.7c-0.7-1.3-1.7-2.6-2.9-4
			c-1,1.3-2.4,2.7-4.3,4.1l-0.9-1c1.8-1.1,3.3-2.5,4.4-4c-1.1-1.3-2.5-2.5-4.1-3.7l0.9-0.8c1.6,1.3,2.9,2.4,3.9,3.4
			c0.8-1.2,1.5-2.3,2.2-3.5l1,0.6c-0.3,0.7-1.1,2-2.3,3.8C422.9,163.9,423.9,165.3,424.7,166.8z"/>
		<path d="M435.4,166.3l-4.3,0.9v3h-1.2v-2.8l-1.1,0.2l-0.7-1.1l1.7-0.3v-8.7c2-0.4,3.5-1,4.7-1.9l0.8,0.9c-1.3,0.9-2.7,1.6-4.3,2
			v1.2h3.4v1.2h-3.4v1.9h3.4v1.2h-3.4v2.1l4.3-0.8V166.3z M442.7,169l-0.7,1c-1.3-0.3-2.6-1-3.6-2.1c-1.1,0.9-2.3,1.7-3.8,2.2
			l-0.8-1c1.6-0.6,2.9-1.3,3.7-2.1c-0.6-0.9-1.2-2.1-1.5-3.6h-0.5v-1.2h5.6c-0.1,1.9-0.7,3.5-1.9,4.8
			C440.1,168,441.3,168.6,442.7,169z M442.9,160c-0.3,1-0.7,1.6-1.3,1.6h-1c-0.8,0-1.2-0.4-1.2-1.3v-2.7h-2.5
			c0.1,1.5-0.1,2.6-0.4,3.2s-0.8,1.2-1.5,1.6l-1-0.8c1.2-0.7,1.7-1.6,1.7-2.6v-2.6h4.9v3.4c0,0.3,0.1,0.5,0.4,0.5h0.3
			c0.2,0,0.4-0.4,0.5-1.1L442.9,160z M439.7,163.4h-2.6c0.3,1.1,0.7,2,1.2,2.7C439,165.4,439.5,164.5,439.7,163.4z"/>
	</g>
	<g>
		<g>
			<path fill="none" stroke="#000000" stroke-miterlimit="10" d="M343.3,162.5c0,0-16.9,1.3-28.6,23.2"/>
			<g>
				<polygon points="312.7,180.8 313.7,180.6 314.9,185.4 319.6,183.9 319.9,184.8 314.2,186.7 				"/>
			</g>
		</g>
	</g>
	<g>
		<path d="M87.4,169H75.8v0.9h-1.2v-13.5h12.3v1.2H75.8v10.2h11.6V169z M85.7,166.8l-1.1,0.7c-0.7-1.3-1.7-2.6-2.9-4
			c-1,1.3-2.4,2.7-4.3,4.1l-0.9-1c1.8-1.1,3.3-2.5,4.4-4c-1.1-1.3-2.5-2.5-4.1-3.7l0.9-0.8c1.6,1.3,2.9,2.4,3.9,3.4
			c0.8-1.2,1.5-2.3,2.2-3.5l1,0.6c-0.3,0.7-1.1,2-2.3,3.8C83.9,163.9,84.9,165.3,85.7,166.8z"/>
		<path d="M96.4,166.3l-4.3,0.9v3h-1.2v-2.8l-1.1,0.2l-0.7-1.1l1.7-0.3v-8.7c2-0.4,3.5-1,4.7-1.9l0.8,0.9c-1.3,0.9-2.7,1.6-4.3,2
			v1.2h3.4v1.2h-3.4v1.9h3.4v1.2h-3.4v2.1l4.3-0.8V166.3z M103.7,169l-0.7,1c-1.3-0.3-2.6-1-3.6-2.1c-1.1,0.9-2.3,1.7-3.8,2.2
			l-0.8-1c1.6-0.6,2.9-1.3,3.7-2.1c-0.6-0.9-1.2-2.1-1.5-3.6h-0.5v-1.2h5.6c-0.1,1.9-0.7,3.5-1.9,4.8
			C101.1,168,102.3,168.6,103.7,169z M103.9,160c-0.3,1-0.7,1.6-1.3,1.6h-1c-0.8,0-1.2-0.4-1.2-1.3v-2.7h-2.5
			c0.1,1.5-0.1,2.6-0.4,3.2s-0.8,1.2-1.5,1.6l-1-0.8c1.2-0.7,1.7-1.6,1.7-2.6v-2.6h4.9v3.4c0,0.3,0.1,0.5,0.4,0.5h0.3
			c0.2,0,0.4-0.4,0.5-1.1L103.9,160z M100.7,163.4h-2.6c0.3,1.1,0.7,2,1.2,2.7C100,165.4,100.5,164.5,100.7,163.4z"/>
		<path d="M117.7,158.6c0,0.1-0.2,0.4-0.6,0.9s-0.9,1.1-1.6,1.6c-0.6,0.5-1.4,1-2.2,1.4s-1.7,0.8-2.7,1.1h7v6.4h-1.2v-0.9h-6v0.9
			h-1.2v-6c-1.4,0.4-2.3,0.6-2.8,0.7l-1-1.1c2.6-0.5,4.7-1.1,6.3-1.7c-0.3-0.5-1-0.8-1.8-1.2l1.1-0.9c0.8,0.4,1.4,0.9,1.8,1.5
			c1.3-0.6,2.5-1.5,3.4-2.7h-4.8c-1.2,1-2.6,1.9-4.2,2.5l-1.3-1c3-1,5.2-2.6,6.6-4.7l1.1,0.6c-0.2,0.4-0.6,0.8-1,1.3h5.2V158.6z
			 M116.4,168v-3.2h-6v3.2H116.4z"/>
		<path d="M127.7,164.2l-1,0.7c-0.4-1-0.9-1.7-1.4-2.2v7.3h-1.2v-6.6c-0.4,1.2-1,2.4-2,3.6l-0.9-0.9c1.3-1.8,2.3-3.5,2.9-5.3h-2.4
			v-1.1h2.5v-1.8c-0.5,0.1-1.2,0.3-2.3,0.5l-0.6-1.1c2.2-0.2,4-0.7,5.5-1.6l0.6,0.9c-0.9,0.5-1.6,0.9-2.1,1v2.2h2.2v1.1h-2.2v0.9
			l0.4-0.3C126.4,162.2,127.1,163.1,127.7,164.2z M130.1,163.3c-0.8,2-1.8,3.6-3,4.7l-1-0.9c1.1-0.9,2.1-2.3,3-4.3L130.1,163.3z
			 M135.4,159.6h-5.8c-0.4,1.1-1,2.1-1.7,3l-1-0.8c1.1-1.2,1.9-3.2,2.6-6.1l1.1,0.4c-0.2,1.1-0.4,1.9-0.6,2.4h5.4V159.6z M132,168.9
			c0,0.3-0.1,0.6-0.3,0.7s-0.4,0.3-0.7,0.3h-1.7l-0.4-1.3c0.6,0.1,1.1,0.2,1.8,0.2c0.2,0,0.3-0.1,0.3-0.2v-8.3h1.1V168.9z
			 M135.8,167.3l-1,0.7c-0.6-2-1.3-3.6-2.3-4.8l0.9-0.5C134.4,163.7,135.2,165.2,135.8,167.3z"/>
	</g>
	<g>
		<g>
			<path fill="none" stroke="#000000" stroke-miterlimit="10" d="M142.2,162.5c0,0,16.9,1.3,28.6,23.2"/>
			<g>
				<polygon points="165.6,184.8 165.9,183.9 170.6,185.4 171.7,180.6 172.7,180.8 171.3,186.7 				"/>
			</g>
		</g>
	</g>
	<g>
		<path d="M42.6,41.2H26.4v-1.5h7.3v-9.9h-6.2v-1.5h14.1v1.5h-6.2v9.9h7.3V41.2z"/>
		<path d="M51.7,26.3c-0.1,0.5-0.4,1.3-0.8,2.4l-0.6,1.5v13.4h-1.5V32.8c-0.6,1.1-1.3,2.1-2.1,3L45.2,35c2.2-2.4,3.9-5.5,5.1-9.3
			L51.7,26.3z M63.5,30.7h-7.3v2.3h6.5v1.5h-6.5V37h6.8l0,1.5h-6.9v5.2h-1.5V30.7c-0.5,1.5-1.6,3-3.1,4.5l-1.4-0.7
			c2.3-2.9,3.7-5.9,4.2-9.1l1.5,0.5c-0.1,0.9-0.5,2.1-0.9,3.4h8.5V30.7z"/>
		<path d="M83.3,42.7H74v1h-1.5v-7.9l-0.9,0.6c-0.6-1.5-1-2.3-1.2-2.4v9.7h-1.5v-8.1c-0.5,1-1.4,2.2-2.6,3.6L65.1,38
			c2.1-2.2,3.4-4.5,3.8-6.9H66v-1.5h2.9v-3.8h1.5v3.8h1.8v1.5h-1.8v1.8l0.8-0.5c0.6,0.6,1,1.4,1.3,2.4v-8.2h10.3v1.5H74v13.1h9.3
			V42.7z M82.5,39.5h-8.2V38h3.4v-2.8h-2.5v-1.5h2.5v-2.7h-3.2v-1.5H82v1.5h-2.8v2.7h2.3v1.5h-2.3V38h3.3V39.5z"/>
		<path d="M92.5,34.9l-1.3,0.7c-0.2-1.1-0.6-2-1.2-2.7v10.6h-1.5v-9h0c-0.7,1.5-1.4,2.7-2.1,3.7l-1.2-1c1.3-1.6,2.4-3.8,3.3-6.6
			h-2.7v-1.5h2.8v-3.4H90v3.4h2.5v1.5H90v1.5l0.7-0.4C91.6,32.7,92.2,33.7,92.5,34.9z M103,42.3H91.2v-1.5H103V42.3z M102.7,32.4
			H92.1V31h5.4c1-1.5,1.7-3.2,2.4-5l1.4,0.6c-0.7,1.9-1.4,3.4-2.1,4.4h3.5V32.4z M96.6,29.9l-1.5,0.7c-0.5-1.5-1.4-2.9-2.6-4
			l1.3-0.6C94.9,26.8,95.8,28.1,96.6,29.9z M102.1,36.9h-9.4v-1.4h9.4V36.9z"/>
		<path d="M108.3,34h-2v-2h2V34z M108.3,42.3h-2v-2h2V42.3z"/>
		<path d="M139.1,30.1H129c-0.7,1.3-1.2,2.2-1.5,2.7v10.8H126v-8.8c-0.6,0.7-1.5,1.7-2.7,2.8l-1.2-1.2c2.2-1.8,3.9-3.9,5.1-6.4h-4.1
			v-1.5h4.8c0.5-1.1,0.8-2.1,0.9-3l1.6,0.5l-0.8,2.6h9.4V30.1z M139.5,42.5h-11.4V41h4.5v-4.9h-3.9v-1.5h3.9v-3.3h1.5v3.3h4.3v1.5
			h-4.3V41h5.4V42.5z"/>
		<path d="M159,35.2h-15.5v-1.7H159V35.2z"/>
		<path d="M180.2,34.5l-1.2,1.1c-3.7-2.1-6.3-4.5-7.9-7.2c-0.9,1.5-2,2.9-3.5,4.2s-3,2.3-4.6,3l-1.3-1c4.2-2,7.2-4.9,9.1-8.9
			l1.3,0.6l-0.3,0.6C173.2,29.5,176,32,180.2,34.5z M171.8,43.7h-1.5V31.3h1.5V43.7z"/>
		<path d="M199.6,30h-13.4l-0.1,5c0,1.6-0.1,2.9-0.3,3.8c-0.2,0.9-0.5,1.7-0.9,2.4c-0.4,0.7-1,1.5-1.7,2.3l-1.2-1.1
			c0.8-0.7,1.4-1.5,1.8-2.4s0.7-2.1,0.8-3.5c0.1-1.4,0.2-4,0.1-7.9h7.3c-0.3-0.6-0.9-1.2-2-2l1.1-1c1.1,0.6,1.9,1.4,2.6,2.4
			l-0.5,0.5h6.4V30z M199.7,42.7h-14.1v-1.5h8.4c1.6-2.7,2.6-5.9,3-9.6l1.4,0.5c-0.4,3.7-1.3,6.7-2.7,9.1h4V42.7z M191.1,39.6
			l-1.5,0.9c-0.5-2.5-1.5-4.8-3.1-6.9l1.4-0.6C189.5,34.9,190.6,37.2,191.1,39.6z M194,37.8l-1.5,0.7c-0.3-2.3-1.1-4.6-2.5-6.7
			l1.3-0.7C192.8,33.1,193.7,35.3,194,37.8z"/>
		<path d="M218.2,41.8c0,0.5-0.1,0.9-0.4,1.2s-0.6,0.5-1,0.5h-2.1l-0.5-1.6l1.7,0c0.5,0,0.8-0.1,0.8-0.4v-4.6h-4.4v5.3h-1.5v-5.3
			h-4.4c-0.2,2.6-1.2,4.9-2.9,6.8l-1.3-1c1-1.2,1.7-2.3,2.1-3.4c0.4-1.1,0.6-2.4,0.6-3.9v-8.9h13.3V41.8z M210.8,30.9V28h-4.3v2.9
			H210.8z M210.8,35.5v-3.1h-4.3v3.1H210.8z M216.6,30.9V28h-4.4v2.9H216.6z M216.6,35.5v-3.1h-4.4v3.1H216.6z"/>
		<path d="M229.8,36.6l-1.2,0.9c-0.5-1.1-1-1.9-1.7-2.5v8.7h-1.5V36h0c-0.5,1.4-1.4,2.7-2.5,4.2l-1.2-1c1.7-1.9,2.9-4.2,3.5-6.8
			h-2.9v-1.5h3v-2.3c-0.9,0.2-1.7,0.4-2.4,0.5l-0.7-1.3c2.7-0.4,4.9-0.9,6.6-1.7l1,1.1c-0.8,0.4-1.8,0.8-2.9,1.2v2.6h2.6v1.5h-2.6
			v1.6l0.5-0.5C228.1,34.1,228.9,35.1,229.8,36.6z M240.1,42.6h-11.8v-1.4h5.3v-2.4h-4.1v-1.5h4.1v-2.3h-4.3v-1.4h10.1v1.4h-4.3v2.3
			h3.8v1.5h-3.8v2.4h5V42.6z M238.5,32.3h-8.4v-5.8h8.4V32.3z M237,30.9v-3h-5.3v3H237z"/>
		<path d="M259.5,29.2h-13.7V36c0,2.9-0.8,5.4-2.5,7.8l-1.2-0.9c1.5-2.1,2.2-4.4,2.2-7v-8h7v-2h1.5v2h6.7V29.2z M259.5,35.1
			c-0.2,1.3-0.6,2.6-1.3,3.9l-1.4-0.4l0.9-2.1h-4.1V42c0,1.1-0.8,1.6-2.3,1.6l-1.7,0l-0.5-1.5l2.4,0.1c0.4,0,0.6-0.2,0.6-0.7v-4.9
			h-5.6v-1.5h6.1c-1-0.6-2.2-1.1-3.6-1.4l1.2-1.1c0.6,0.2,1.5,0.5,2.6,1c0.4-0.1,1.4-0.7,2.8-1.7h-8.1v-1.5h10.4v1.3
			c-1,1-2.2,1.9-3.6,2.7l0.9,0.6H259.5z"/>
		<path d="M278.4,42.1c0,0.9-0.7,1.3-2.1,1.3c-0.3,0-0.7,0-1.2,0l-0.6-1.5c0.7,0.1,1.2,0.1,1.6,0.1c0.6,0,0.9-0.2,0.9-0.5V30.7h-5.1
			c0,0.8,0,1.7-0.1,2.5c1.7,1.3,3.1,3,4.4,5.1l-1.2,0.9c-0.9-1.6-2.1-3-3.6-4.4c-0.9,2-2.5,3.6-4.7,4.8l-0.9-1.3
			c1.6-0.8,2.7-1.8,3.5-2.9s1.2-2.7,1.2-4.8h-5.2v12.9h-1.5V29.2h6.8v-3.4h1.4v3.4h6.5V42.1z"/>
		<path d="M289,40.5l-3.1,1.9l-0.9-1.3c0.2-0.3,0.3-0.6,0.3-0.9v-7.6h-2.7v-1.5h4.3v9l2.2-1.3V40.5z M287.4,28.5l-1.3,1
			c-0.5-1.1-1.3-2.1-2.5-3l1.1-0.9C285.8,26.4,286.7,27.4,287.4,28.5z M299.8,30.8h-7c0,1,0,2-0.1,2.9h5.7c-0.1,2.4-0.3,4.4-0.6,6
			c-0.3,1.6-0.6,2.6-1,3c-0.3,0.4-0.8,0.6-1.4,0.6c-0.5,0-1.3-0.1-2.3-0.3l-0.4-1.7c1.3,0.4,2.2,0.6,2.6,0.6c0.1,0,0.2-0.1,0.4-0.2
			c0.2-0.2,0.3-0.9,0.6-2.2c0.2-1.3,0.4-2.8,0.5-4.3h-4.2c-0.4,3.7-1.7,6.6-4.1,8.6l-1.1-1.2c1-0.8,1.8-1.7,2.4-2.9s1-2.4,1.2-3.8
			c0.2-1.3,0.3-3,0.3-5h-3.4v-1.5h11.9V30.8z M295.7,28.2l-1.3,1c-0.9-1.3-1.9-2.2-2.9-2.7l1-1.1C293.9,26.2,295,27.1,295.7,28.2z"
			/>
		<path d="M304.8,43.6h-1.4V29.2h1.4V43.6z M309.1,28.8L308,30c-0.7-1-1.8-1.9-3.1-2.6l1-1.1C307,26.9,308.1,27.7,309.1,28.8z
			 M314.4,39h-1.5v-0.8h-4.1v1.2h-1.5v-8h7.2V39z M312.9,36.8V33h-4.1v3.8H312.9z M318.4,41.8c0,0.4-0.1,0.8-0.4,1.1
			c-0.3,0.3-0.6,0.4-1,0.4h-2.1l-0.5-1.5l2.1,0.1c0.3,0,0.4-0.1,0.4-0.4V28.2h-6.9v-1.5h8.5V41.8z"/>
		<path d="M330.4,36.8h-4.8c0,2.7-0.8,5-2.4,6.8l-1.2-1.1c0.7-0.8,1.2-1.6,1.6-2.5s0.5-2.1,0.5-3.7v-5.6h6.4V36.8z M331.5,28.2h-8.7
			v-1.4h8.7V28.2z M328.8,35.3V32h-3.2v3.3H328.8z M340.3,33.4h-2.8v10.2H336V33.4h-2.4V36c0,3.5-0.9,6-2.7,7.7l-1.2-1
			c1.6-1.3,2.4-3.6,2.4-6.7v-8.2c2.2-0.2,4.4-0.9,6.5-2.3l1.2,1.2c-2.1,1.4-4.2,2.2-6.1,2.4v2.8h6.7V33.4z"/>
		<path d="M359.8,29.7h-10.8c-0.3,0.9-0.5,1.5-0.7,1.9h9.1v10.2c-0.1,0.9-0.8,1.4-2.1,1.4h-1.6l-0.7-1.5c0.6,0.1,1.3,0.1,2,0.1
			c0.6,0,0.9-0.1,0.9-0.4v-2h-7.5v4.2h-1.6V34c-0.4,0.6-1.5,1.9-3.4,3.8l-1.4-0.9c2.8-2.4,4.6-4.8,5.4-7.2h-4.2v-1.5h4.8
			c0.2-0.4,0.4-1.4,0.8-2.8l1.5,0.3c-0.1,0.5-0.3,1.4-0.7,2.5h10.2V29.7z M355.9,34.7V33h-7.5v1.6H355.9z M355.9,37.9v-1.8h-7.5v1.8
			H355.9z"/>
		<path d="M367.9,31.1h-2v3.7l1.4-0.8v1.5l-1.4,0.7v5.7c0,0.4-0.1,0.7-0.3,1s-0.4,0.4-0.7,0.6c-0.3,0.1-0.9,0.2-2,0.2l-0.5-1.5
			l1.6,0.1c0.3-0.1,0.4-0.2,0.4-0.3v-4.8l-1.8,0.9l-0.7-1.2c1.4-0.6,2.2-1,2.5-1.2v-4.4h-2.2v-1.5h2.2v-3.7h1.5v3.7h2V31.1z
			 M380.2,41.6l-1.1,1.2c-2.8-1.1-4.5-2.4-5.2-3.9v4.6h-1.5v-4.6c-0.9,1.4-2.6,2.7-5,3.9l-1-1.2c2-0.9,3.6-1.9,4.5-3.2h-3.8V37h5.3
			v-0.7h1.5V37h5.4v1.4h-3.9C376.1,39.7,377.7,40.7,380.2,41.6z M372.8,35.9h-5.1v-4.3h5.1V35.9z M371.3,34.6V33h-2.2v1.6H371.3z
			 M377.2,30.9h-8v-4.1h8V30.9z M375.8,29.5v-1.4h-5.2v1.4H375.8z M378.6,35.9h-5.1v-4.3h5.1V35.9z M377.2,34.6V33h-2.3v1.6H377.2z"
			/>
		<path d="M388.3,26.3c-0.1,0.5-0.4,1.3-0.8,2.4l-0.6,1.5v13.4h-1.5V32.8c-0.6,1.1-1.3,2.1-2.1,3l-1.4-0.8c2.2-2.4,3.9-5.5,5.1-9.3
			L388.3,26.3z M400.2,30.7h-7.3v2.3h6.5v1.5h-6.5V37h6.8l0,1.5h-6.9v5.2h-1.5V30.7c-0.5,1.5-1.6,3-3.1,4.5l-1.4-0.7
			c2.3-2.9,3.7-5.9,4.2-9.1l1.5,0.5c-0.1,0.9-0.5,2.1-0.9,3.4h8.5V30.7z"/>
		<path d="M405.7,37.6c0.8,0,1.5,0.3,2,0.8c0.6,0.6,0.8,1.3,0.8,2.1c0,0.8-0.3,1.5-0.8,2c-0.6,0.6-1.2,0.8-2,0.8
			c-0.8,0-1.5-0.3-2-0.8c-0.6-0.6-0.8-1.2-0.8-2c0-0.8,0.3-1.5,0.8-2.1C404.2,37.9,404.9,37.6,405.7,37.6z M405.7,42.2
			c0.5,0,0.9-0.2,1.2-0.5s0.5-0.7,0.5-1.2s-0.2-0.9-0.5-1.2c-0.3-0.3-0.7-0.5-1.2-0.5c-0.5,0-0.8,0.2-1.2,0.5
			c-0.3,0.3-0.5,0.7-0.5,1.2s0.2,0.9,0.5,1.2S405.3,42.2,405.7,42.2z"/>
		<path d="M428.6,35.5l-1.9,1v5.1c0,1.4-0.7,2-2.1,2c-0.6,0-0.9,0-1.1,0l-0.6-1.5l1.7,0.1c0.4,0,0.5-0.1,0.5-0.5v-4.6l-1.7,0.8
			l-1.3-1.1c1.1-0.4,2.1-0.9,3-1.3v-4.4h-2.6v-1.5h2.6v-4h1.5v4h1.9v1.5h-1.9v3.7c0.5-0.2,1.1-0.5,1.9-0.8V35.5z M440.1,42.3
			l-1.2,1.2c-1.6-1.3-3.1-2.2-4.6-2.9c-1.8,1.4-3.8,2.3-6,2.9l-1.2-1.3c2.4-0.6,4.2-1.3,5.5-2.3c-0.8-0.3-1.9-0.6-3.5-0.9
			c0.7-1.3,1.4-2.6,2.1-4.1h-2.5v-1.5h3.2c0.4-1.1,0.7-2.2,1-3.4l1.5,0.3c-0.2,0.8-0.5,1.8-0.9,3.1h6.3V35h-2.2
			c-0.6,2-1.3,3.5-2.2,4.4C436.9,40.1,438.4,41.1,440.1,42.3z M439.5,31.9H438v-2.3h-7.6v2.3h-1.5v-3.8h4.5v-2.4h1.6v2.4h4.5V31.9z
			 M436,35h-3.1l-1.5,3.1c0.7,0.2,1.5,0.4,2.5,0.8C434.9,37.9,435.6,36.6,436,35z"/>
		<path d="M459.8,42.3h-14.5v1.1h-1.5V26.6h15.3v1.4h-13.8v12.8h14.5V42.3z M457.7,39.6l-1.3,0.9c-0.9-1.7-2.1-3.3-3.6-5
			c-1.2,1.7-3,3.4-5.3,5.1l-1.2-1.3c2.3-1.4,4.1-3.1,5.5-5c-1.4-1.6-3.1-3.1-5.1-4.6l1.1-0.9c2,1.6,3.6,3,4.8,4.3
			c1-1.4,1.9-2.9,2.7-4.3l1.3,0.7c-0.4,0.9-1.4,2.5-2.9,4.8C455.4,36,456.7,37.8,457.7,39.6z"/>
		<path d="M471,38.9l-5.4,1.1v3.7h-1.5v-3.4l-1.3,0.2l-0.8-1.4l2.2-0.4V28c2.5-0.4,4.4-1.2,5.9-2.3l1,1.1c-1.6,1.2-3.3,2-5.3,2.5
			v1.5h4.3v1.5h-4.3v2.3h4.3v1.5h-4.3v2.6l5.4-1V38.9z M480.2,42.3l-0.8,1.3c-1.7-0.4-3.2-1.3-4.6-2.6c-1.4,1.2-2.9,2.1-4.7,2.8
			l-1-1.3c2.1-0.7,3.6-1.6,4.7-2.6c-0.8-1.1-1.4-2.6-1.9-4.4h-0.6v-1.5h6.9c-0.1,2.4-0.9,4.3-2.3,5.9
			C476.9,41.1,478.4,41.9,480.2,42.3z M480.4,31.1c-0.4,1.3-0.9,2-1.6,2h-1.3c-1,0-1.5-0.5-1.5-1.6v-3.3H473c0.1,1.9-0.1,3.3-0.5,4
			s-1.1,1.4-1.9,2.1l-1.3-1c1.5-0.9,2.2-2,2.2-3.3v-3.3h6.1V31c0,0.4,0.2,0.6,0.5,0.6h0.3c0.3,0,0.5-0.4,0.6-1.3L480.4,31.1z
			 M476.5,35.4h-3.2c0.4,1.4,0.9,2.5,1.5,3.4C475.6,37.8,476.2,36.7,476.5,35.4z"/>
		<path d="M500,42.7h-17.9v-1.4h3.3v-2.7h1.5v2.7h3.3v-3.6h-6.8v-1.5h15.5v1.5h-7.2v1h6.2v1.4h-6.2v1.2h8.3V42.7z M500,35.1
			l-0.7,1.2c-1.7-0.4-3-1-3.9-1.9c-1,0.7-2.1,1.3-3.3,1.9l-0.8-1.1c1.2-0.5,2.2-1.1,3.1-1.8c-0.4-0.6-0.7-1.2-1-1.9l-0.7,1.1
			l-1.1-0.6v1h-2.6c0.9,0.3,1.8,0.8,2.7,1.5l-0.9,1.1c-0.6-0.6-1.4-1.1-2.4-1.5v2h-1.5v-2.9c-0.6,1.3-1.9,2.3-3.9,3.1l-0.7-1.2
			c1.5-0.5,2.6-1.3,3.2-2.2h-2.1v-3.8h3.4v-0.6h-4.3v-1.5h4.3v-1.4h1.5v1.4h4.2v1.5h-4.2v0.6h3.3v2.4c1.1-1.6,1.9-3.6,2.3-6l1.5,0.4
			c-0.2,0.9-0.4,1.6-0.6,2.1h4.6v1.5h-1.1c-0.6,1.9-1.2,3.1-1.9,3.8C497.2,34.1,498.4,34.7,500,35.1z M486.9,31.6v-1h-2v1H486.9z
			 M490.2,31.6v-1h-1.7v1H490.2z M488.7,32.9h-0.2v0.3L488.7,32.9z M496.8,29.5h-2.4l-0.1,0.3c0.5,1.3,0.9,2.1,1.2,2.4
			C496.2,31.4,496.6,30.5,496.8,29.5z"/>
		<path d="M508.8,38.7l-5.7,2.3l-1.3-1.2c0.7-0.2,1.7-0.6,3-1.1v-4.6h-2v-1.5h2v-3.9h-2.4v-1.5h6.2v1.5h-2.3v3.9h2v1.5h-2v4
			c1.1-0.5,1.9-0.8,2.4-1V38.7z M520,42.6h-12.1v-1.5h5.3v-2.3h-4v-1.5h4v-1.9H509v-8.7h9.8v8.7h-4.1v1.9h4v1.5h-4v2.3h5.3V42.6z
			 M513.2,30.4v-2.1h-2.6v2.1H513.2z M513.2,34.1v-2.3h-2.6v2.3H513.2z M517.3,28.3h-2.7v2.1h2.6L517.3,28.3z M517.3,34.1v-2.3h-2.6
			v2.3H517.3z"/>
		<path d="M31.2,55.1h-2v3.7l1.4-0.8v1.5l-1.4,0.7v5.7c0,0.4-0.1,0.7-0.3,1s-0.4,0.4-0.7,0.6c-0.3,0.1-0.9,0.2-2,0.2L25.8,66
			l1.6,0.1c0.3-0.1,0.4-0.2,0.4-0.3v-4.8l-1.8,0.9l-0.7-1.2c1.4-0.6,2.2-1,2.5-1.2v-4.4h-2.2v-1.5h2.2v-3.7h1.5v3.7h2V55.1z
			 M43.5,65.6l-1.1,1.2c-2.8-1.1-4.5-2.4-5.2-3.9v4.6h-1.5v-4.6c-0.9,1.4-2.6,2.7-5,3.9l-1-1.2c2-0.9,3.6-1.9,4.5-3.2h-3.8V61h5.3
			v-0.7h1.5V61h5.4v1.4h-3.9C39.4,63.7,41,64.7,43.5,65.6z M36.1,59.9H31v-4.3h5.1V59.9z M34.6,58.6V57h-2.2v1.6H34.6z M40.5,54.9
			h-8v-4.1h8V54.9z M39.1,53.5v-1.4h-5.2v1.4H39.1z M41.9,59.9h-5.1v-4.3h5.1V59.9z M40.5,58.6V57h-2.3v1.6H40.5z"/>
		<path d="M51.7,50.3c-0.1,0.5-0.4,1.3-0.8,2.4l-0.6,1.5v13.4h-1.5V56.8c-0.6,1.1-1.3,2.1-2.1,3L45.2,59c2.2-2.4,3.9-5.5,5.1-9.3
			L51.7,50.3z M63.5,54.7h-7.3v2.3h6.5v1.5h-6.5V61h6.8l0,1.5h-6.9v5.2h-1.5V54.7c-0.5,1.5-1.6,3-3.1,4.5l-1.4-0.7
			c2.3-2.9,3.7-5.9,4.2-9.1l1.5,0.5c-0.1,0.9-0.5,2.1-0.9,3.4h8.5V54.7z"/>
		<path d="M72.5,58.9l-1.3,0.7c-0.2-1.1-0.6-2-1.2-2.7v10.6h-1.5v-9h0c-0.7,1.5-1.4,2.7-2.1,3.7l-1.2-1c1.3-1.6,2.4-3.8,3.3-6.6
			h-2.7v-1.5h2.8v-3.4H70v3.4h2.5v1.5H70v1.5l0.7-0.4C71.6,56.7,72.2,57.7,72.5,58.9z M83,66.3H71.2v-1.5H83V66.3z M82.7,56.4H72.1
			V55h5.4c1-1.5,1.7-3.2,2.4-5l1.4,0.6c-0.7,1.9-1.4,3.4-2.1,4.4h3.5V56.4z M76.6,53.9l-1.5,0.7c-0.5-1.5-1.4-2.9-2.6-4l1.3-0.6
			C74.9,50.8,75.8,52.1,76.6,53.9z M82.1,60.9h-9.4v-1.4h9.4V60.9z"/>
		<path d="M89,61.6c0.8,0,1.5,0.3,2,0.8c0.6,0.6,0.8,1.3,0.8,2.1c0,0.8-0.3,1.5-0.8,2c-0.6,0.6-1.2,0.8-2,0.8c-0.8,0-1.5-0.3-2-0.8
			c-0.6-0.6-0.8-1.2-0.8-2c0-0.8,0.3-1.5,0.8-2.1C87.6,61.9,88.3,61.6,89,61.6z M89,66.2c0.5,0,0.9-0.2,1.2-0.5s0.5-0.7,0.5-1.2
			s-0.2-0.9-0.5-1.2c-0.3-0.3-0.7-0.5-1.2-0.5c-0.5,0-0.8,0.2-1.2,0.5c-0.3,0.3-0.5,0.7-0.5,1.2s0.2,0.9,0.5,1.2S88.6,66.2,89,66.2z
			"/>
	</g>
	
		<use xlink:href="#ab"  width="504.1" height="67.6" x="-251.9" y="-33.8" transform="matrix(1 0 0 -1 275.5064 219.8333)" overflow="visible"/>
</g>
<g id="Layer_2">
</g>
</svg>
