<?xml version="1.0" encoding="utf-8"?>
<!-- Generator: Adobe Illustrator 18.1.0, SVG Export Plug-In . SVG Version: 6.00 Build 0)  -->
<svg version="1.1" xmlns="http://www.w3.org/2000/svg" xmlns:xlink="http://www.w3.org/1999/xlink" x="0px" y="0px"
	 viewBox="0 0 560 380" enable-background="new 0 0 560 380" xml:space="preserve">
<symbol  id="ab" viewBox="-251.9 -33.8 504.1 67.6">
	<path fill="#D1D4D4" d="M-61.5,14.7h-75.7v15.1c0,0.5,0.5,1,1,1h74.7V14.7z"/>
	<g>
		<path d="M-123.2,21.6l1.3,0.2c0-0.3,0.2-0.6,0.3-0.8c0.2-0.2,0.4-0.3,0.7-0.3c0.3,0,0.5,0.1,0.7,0.3s0.3,0.5,0.3,0.9
			c0,0.3-0.1,0.6-0.3,0.8c-0.2,0.2-0.4,0.3-0.7,0.3c-0.2,0-0.4,0-0.6-0.1l0.2,1.1c0.4,0,0.7,0.1,0.8,0.2s0.3,0.4,0.3,0.7
			c0,0.2-0.1,0.4-0.2,0.6c-0.1,0.1-0.3,0.2-0.6,0.2c-0.2,0-0.4-0.1-0.6-0.2c-0.2-0.2-0.3-0.4-0.3-0.7l-1.3,0.2
			c0.1,0.4,0.2,0.8,0.4,1s0.4,0.5,0.7,0.6s0.7,0.2,1.1,0.2c0.7,0,1.2-0.2,1.6-0.6c0.3-0.4,0.5-0.7,0.5-1.2c0-0.6-0.3-1.1-1-1.5
			c0.4-0.1,0.7-0.3,1-0.6c0.2-0.3,0.4-0.7,0.4-1.1c0-0.6-0.2-1.2-0.7-1.6c-0.5-0.4-1-0.7-1.7-0.7c-0.6,0-1.2,0.2-1.6,0.6
			S-123.1,21-123.2,21.6z"/>
		<path d="M-117.3,26.9h2.6c0.6,0,1,0,1.4-0.1c0.4-0.1,0.8-0.3,1.1-0.7c0.3-0.3,0.5-0.7,0.7-1.2s0.2-1,0.2-1.7
			c0-0.6-0.1-1.1-0.2-1.5c-0.2-0.5-0.4-0.9-0.8-1.3c-0.3-0.2-0.6-0.4-1-0.6c-0.3-0.1-0.7-0.2-1.3-0.2h-2.7V26.9z M-115.8,25.7V21
			h1.1c0.4,0,0.7,0,0.9,0.1c0.2,0.1,0.4,0.2,0.6,0.3c0.2,0.1,0.3,0.4,0.4,0.7s0.1,0.8,0.1,1.3c0,0.6,0,1-0.1,1.3
			c-0.1,0.3-0.2,0.5-0.4,0.7s-0.4,0.3-0.7,0.3c-0.2,0-0.6,0.1-1.2,0.1H-115.8z"/>
		<path d="M-107.6,22.1l1.4,0.1c0.1-0.5,0.3-0.8,0.5-1c0.3-0.2,0.6-0.3,1-0.3c0.5,0,0.8,0.1,1.1,0.3s0.4,0.4,0.4,0.7
			c0,0.2,0,0.3-0.1,0.4s-0.3,0.2-0.5,0.3c-0.2,0.1-0.6,0.2-1.2,0.3c-0.8,0.2-1.3,0.4-1.6,0.7c-0.4,0.4-0.7,0.9-0.7,1.4
			c0,0.4,0.1,0.7,0.3,1s0.5,0.6,0.9,0.7s0.9,0.2,1.4,0.2c0.9,0,1.6-0.2,2-0.6c0.5-0.4,0.7-0.9,0.7-1.6l-1.4-0.1
			c-0.1,0.4-0.2,0.6-0.4,0.8s-0.5,0.2-0.9,0.2c-0.4,0-0.7-0.1-1-0.3c-0.2-0.1-0.2-0.3-0.2-0.4c0-0.2,0.1-0.3,0.2-0.4
			c0.2-0.2,0.6-0.3,1.3-0.5s1.2-0.3,1.6-0.5s0.6-0.4,0.8-0.7s0.3-0.7,0.3-1.1c0-0.4-0.1-0.8-0.3-1.2c-0.2-0.4-0.6-0.6-1-0.8
			s-0.9-0.3-1.6-0.3c-0.9,0-1.6,0.2-2.1,0.6S-107.5,21.3-107.6,22.1z"/>
		<path d="M-99.2,26.9v-2.6c0.4,0.5,1,0.8,1.6,0.8c0.3,0,0.6-0.1,0.9-0.2s0.4-0.3,0.6-0.4c0.1-0.2,0.2-0.4,0.3-0.6
			c0-0.2,0.1-0.6,0.1-1v-3h-1.4v2.7c0,0.5,0,0.9-0.1,1s-0.1,0.3-0.3,0.3s-0.3,0.1-0.5,0.1c-0.2,0-0.4-0.1-0.6-0.2
			c-0.2-0.1-0.3-0.3-0.4-0.5s-0.1-0.6-0.1-1v-2.6h-1.4v7.2H-99.2z"/>
		<path d="M-93.5,23.4l-1.2,0.2c0.1,0.5,0.4,0.9,0.7,1.1c0.3,0.2,0.8,0.4,1.5,0.4c0.6,0,1.1-0.1,1.4-0.2s0.5-0.3,0.6-0.6
			s0.2-0.6,0.2-1.2l0-1.6c0-0.5,0-0.8,0.1-1s0.1-0.4,0.2-0.7h-1.4c0,0.1-0.1,0.2-0.1,0.4c0,0.1,0,0.1,0,0.2
			c-0.2-0.2-0.5-0.4-0.8-0.5c-0.3-0.1-0.6-0.2-0.9-0.2c-0.5,0-1,0.1-1.3,0.4c-0.3,0.3-0.5,0.7-0.5,1.1c0,0.3,0.1,0.6,0.2,0.8
			s0.3,0.4,0.6,0.5s0.6,0.2,1.1,0.3c0.6,0.1,1.1,0.2,1.3,0.3v0.1c0,0.3-0.1,0.5-0.2,0.6s-0.4,0.2-0.7,0.2c-0.2,0-0.4,0-0.6-0.1
			S-93.4,23.6-93.5,23.4z M-91.6,22.2c-0.2-0.1-0.5-0.1-0.8-0.2c-0.4-0.1-0.6-0.2-0.7-0.2c-0.2-0.1-0.3-0.3-0.3-0.5
			c0-0.2,0.1-0.4,0.2-0.5c0.1-0.1,0.3-0.2,0.5-0.2c0.2,0,0.5,0.1,0.7,0.2c0.2,0.1,0.3,0.3,0.3,0.5c0,0.1,0.1,0.3,0.1,0.7V22.2z"/>
		<path d="M-89,24.9h1.3v-0.8c0.2,0.3,0.4,0.5,0.7,0.6c0.3,0.2,0.6,0.2,0.9,0.2c0.6,0,1.1-0.2,1.5-0.7c0.4-0.5,0.6-1.1,0.6-2
			c0-0.9-0.2-1.5-0.6-2s-0.9-0.7-1.5-0.7c-0.3,0-0.5,0.1-0.8,0.2c-0.2,0.1-0.5,0.3-0.7,0.6v-2.6H-89V24.9z M-87.6,22.4
			c0-0.6,0.1-1,0.3-1.3s0.5-0.4,0.8-0.4c0.3,0,0.6,0.1,0.8,0.4s0.3,0.7,0.3,1.3c0,0.5-0.1,0.9-0.3,1.2s-0.5,0.4-0.8,0.4
			c-0.3,0-0.6-0.1-0.8-0.4S-87.6,22.9-87.6,22.4z"/>
		<path d="M-79.8,21.4l1.4-0.2c-0.2-0.5-0.5-0.9-0.8-1.1s-0.9-0.4-1.4-0.4c-0.9,0-1.6,0.3-2,0.9c-0.3,0.5-0.5,1.1-0.5,1.8
			c0,0.9,0.2,1.5,0.7,2s1,0.7,1.7,0.7c0.8,0,1.4-0.3,1.8-0.8s0.7-1.3,0.6-2.3h-3.4c0-0.4,0.1-0.7,0.3-1s0.5-0.3,0.8-0.3
			c0.2,0,0.4,0.1,0.5,0.2S-79.9,21.1-79.8,21.4z M-79.7,22.8c0,0.4-0.1,0.7-0.3,0.9s-0.4,0.3-0.7,0.3c-0.3,0-0.5-0.1-0.7-0.3
			c-0.2-0.2-0.3-0.5-0.3-0.9H-79.7z"/>
		<path d="M-77.7,21.2l1.4,0.2c0.1-0.3,0.2-0.5,0.4-0.6s0.4-0.2,0.8-0.2c0.4,0,0.6,0.1,0.8,0.2c0.1,0.1,0.2,0.2,0.2,0.4
			c0,0.1,0,0.2-0.1,0.3c-0.1,0.1-0.2,0.1-0.5,0.2c-1.1,0.2-1.8,0.5-2.1,0.7c-0.4,0.3-0.6,0.7-0.6,1.2c0,0.4,0.2,0.8,0.5,1.1
			c0.4,0.3,0.9,0.5,1.7,0.5c0.7,0,1.2-0.1,1.6-0.3c0.3-0.2,0.6-0.6,0.7-1l-1.3-0.2c-0.1,0.2-0.2,0.4-0.3,0.5s-0.4,0.2-0.7,0.2
			c-0.4,0-0.6-0.1-0.8-0.2c-0.1-0.1-0.2-0.2-0.2-0.3c0-0.1,0-0.2,0.1-0.3c0.1-0.1,0.6-0.2,1.3-0.4s1.2-0.4,1.5-0.6
			c0.3-0.2,0.4-0.6,0.4-1c0-0.5-0.2-0.9-0.6-1.2s-1-0.5-1.8-0.5c-0.7,0-1.3,0.1-1.7,0.4C-77.3,20.3-77.6,20.7-77.7,21.2z"/>
	</g>
	<g>
		<path d="M-49.3,19.5v7.2h1.4l1.7-5.1c0.2-0.5,0.3-0.8,0.3-1.1c0.1,0.3,0.2,0.6,0.4,1.1l1.7,5h1.3v-7.2h-0.9v6l-2.1-6h-0.9
			l-2.1,6.1v-6.1H-49.3z"/>
		<path d="M-37.7,20.1c-0.3-0.3-0.6-0.5-0.9-0.6c-0.3-0.1-0.6-0.2-1-0.2c-0.6,0-1,0.1-1.3,0.4s-0.5,0.6-0.5,1.1
			c0,0.3,0.1,0.5,0.2,0.7s0.3,0.4,0.5,0.5s0.4,0.2,0.6,0.3c0.2,0,0.4,0.1,0.8,0.1c0.7,0.1,1.2,0.2,1.6,0.3c0,0.1,0,0.2,0,0.2
			c0,0.4-0.1,0.6-0.2,0.8c-0.2,0.2-0.6,0.3-1,0.3c-0.4,0-0.7-0.1-0.9-0.2s-0.3-0.4-0.4-0.8l-0.9,0.1c0.1,0.4,0.2,0.7,0.4,0.9
			s0.4,0.4,0.8,0.5s0.7,0.2,1.2,0.2c0.4,0,0.8-0.1,1.1-0.2c0.3-0.1,0.5-0.2,0.6-0.4s0.2-0.4,0.3-0.6c0-0.1,0-0.4,0-0.8v-1.2
			c0-0.8,0-1.3,0.1-1.5s0.1-0.4,0.2-0.6h-0.9C-37.6,19.7-37.7,19.9-37.7,20.1z M-37.8,22.1c-0.3-0.1-0.8-0.2-1.4-0.3
			c-0.4-0.1-0.6-0.1-0.8-0.2c-0.1-0.1-0.3-0.2-0.3-0.3s-0.1-0.3-0.1-0.4c0-0.2,0.1-0.4,0.3-0.6s0.4-0.2,0.8-0.2
			c0.3,0,0.6,0.1,0.9,0.2s0.5,0.4,0.6,0.6c0.1,0.2,0.1,0.5,0.1,0.9V22.1z"/>
		<path d="M-33.6,20.3l0.1-0.8c-0.2-0.1-0.5-0.1-0.7-0.1c-0.3,0-0.6,0-0.7,0.2c-0.2,0.1-0.3,0.2-0.4,0.4s-0.1,0.5-0.1,1v3H-36v0.7
			h0.6V26l0.9,0.5v-1.8h0.9V24h-0.9v-3c0-0.3,0-0.4,0-0.5c0-0.1,0.1-0.1,0.2-0.2c0.1,0,0.2-0.1,0.3-0.1
			C-33.9,20.3-33.8,20.3-33.6,20.3z"/>
		<path d="M-29.2,21.2l0.9-0.1c-0.1-0.5-0.4-0.9-0.8-1.2s-0.9-0.4-1.5-0.4c-0.8,0-1.4,0.2-1.8,0.7s-0.7,1.1-0.7,2
			c0,0.9,0.2,1.5,0.7,2c0.4,0.5,1,0.7,1.7,0.7c0.7,0,1.3-0.2,1.7-0.7c0.4-0.5,0.7-1.1,0.7-2c0-0.1,0-0.1,0-0.2h-3.9
			c0-0.6,0.2-1,0.5-1.3s0.7-0.5,1.1-0.5c0.3,0,0.6,0.1,0.8,0.3C-29.5,20.5-29.3,20.8-29.2,21.2z M-32.1,22.6h2.9
			c0,0.4-0.1,0.8-0.3,1c-0.3,0.3-0.6,0.5-1.1,0.5c-0.4,0-0.7-0.1-1-0.4C-31.9,23.4-32.1,23-32.1,22.6z"/>
		<path d="M-27.2,19.5v5.2h0.8v-0.8c0.2,0.4,0.4,0.6,0.6,0.7s0.4,0.2,0.6,0.2c0.3,0,0.6-0.1,0.9-0.3l-0.3-0.8
			c-0.2,0.1-0.4,0.2-0.6,0.2c-0.2,0-0.4-0.1-0.5-0.2s-0.3-0.3-0.3-0.5c-0.1-0.3-0.1-0.7-0.1-1v-2.7H-27.2z"/>
		<path d="M-23.9,25.6v1h0.9v-1H-23.9z M-23.9,19.5v5.2h0.9v-5.2H-23.9z"/>
		<path d="M-18.3,20.1c-0.3-0.3-0.6-0.5-0.9-0.6c-0.3-0.1-0.6-0.2-1-0.2c-0.6,0-1,0.1-1.3,0.4s-0.5,0.6-0.5,1.1
			c0,0.3,0.1,0.5,0.2,0.7s0.3,0.4,0.5,0.5s0.4,0.2,0.6,0.3c0.2,0,0.4,0.1,0.8,0.1c0.7,0.1,1.2,0.2,1.6,0.3c0,0.1,0,0.2,0,0.2
			c0,0.4-0.1,0.6-0.2,0.8c-0.2,0.2-0.6,0.3-1,0.3c-0.4,0-0.7-0.1-0.9-0.2s-0.3-0.4-0.4-0.8l-0.9,0.1c0.1,0.4,0.2,0.7,0.4,0.9
			s0.4,0.4,0.8,0.5s0.7,0.2,1.2,0.2c0.4,0,0.8-0.1,1.1-0.2c0.3-0.1,0.5-0.2,0.6-0.4s0.2-0.4,0.3-0.6c0-0.1,0-0.4,0-0.8v-1.2
			c0-0.8,0-1.3,0.1-1.5s0.1-0.4,0.2-0.6h-0.9C-18.2,19.7-18.2,19.9-18.3,20.1z M-18.3,22.1c-0.3-0.1-0.8-0.2-1.4-0.3
			c-0.4-0.1-0.6-0.1-0.8-0.2c-0.1-0.1-0.3-0.2-0.3-0.3S-21,21-21,20.9c0-0.2,0.1-0.4,0.3-0.6s0.4-0.2,0.8-0.2c0.3,0,0.6,0.1,0.9,0.2
			s0.5,0.4,0.6,0.6c0.1,0.2,0.1,0.5,0.1,0.9V22.1z"/>
		<path d="M-16.1,19.5v7.2h0.9v-7.2H-16.1z"/>
		<path d="M-14.2,21l0.9,0.1c0-0.3,0.2-0.6,0.4-0.8s0.5-0.3,0.9-0.3c0.4,0,0.7,0.1,0.9,0.2s0.3,0.4,0.3,0.6c0,0.2-0.1,0.4-0.3,0.5
			c-0.1,0.1-0.4,0.2-0.9,0.3c-0.6,0.2-1.1,0.3-1.3,0.4s-0.4,0.3-0.6,0.5s-0.2,0.4-0.2,0.7c0,0.2,0.1,0.4,0.2,0.6s0.3,0.4,0.4,0.5
			c0.1,0.1,0.3,0.2,0.6,0.3s0.5,0.1,0.8,0.1c0.4,0,0.8-0.1,1.1-0.2s0.5-0.3,0.7-0.5s0.2-0.5,0.3-0.8l-0.9-0.1c0,0.3-0.2,0.5-0.3,0.6
			c-0.2,0.1-0.5,0.2-0.8,0.2c-0.4,0-0.7-0.1-0.9-0.2c-0.2-0.1-0.3-0.3-0.3-0.5c0-0.1,0-0.2,0.1-0.3c0.1-0.1,0.2-0.2,0.3-0.2
			c0.1,0,0.3-0.1,0.8-0.2c0.6-0.2,1.1-0.3,1.3-0.4s0.4-0.3,0.6-0.5c0.1-0.2,0.2-0.5,0.2-0.8c0-0.3-0.1-0.6-0.3-0.8s-0.4-0.5-0.7-0.6
			s-0.7-0.2-1.1-0.2c-0.7,0-1.2,0.1-1.5,0.4C-13.9,20.1-14.1,20.5-14.2,21z"/>
	</g>
	<g>
		<path d="M30.4,19.5l-2.8,7.2h1l1.9-5.2c0.1-0.4,0.3-0.8,0.4-1.2c0.1,0.4,0.2,0.8,0.4,1.2l1.9,5.2h1l-2.8-7.2H30.4z"/>
		<path d="M34.8,25.6v1h0.9v-1H34.8z M34.8,19.5v5.2h0.9v-5.2H34.8z"/>
		<path d="M40.5,21.2l0.9-0.1c-0.1-0.5-0.4-0.9-0.8-1.2s-0.9-0.4-1.5-0.4c-0.8,0-1.4,0.2-1.8,0.7s-0.7,1.1-0.7,2
			c0,0.9,0.2,1.5,0.7,2c0.4,0.5,1,0.7,1.7,0.7c0.7,0,1.3-0.2,1.7-0.7c0.4-0.5,0.7-1.1,0.7-2c0-0.1,0-0.1,0-0.2h-3.9
			c0-0.6,0.2-1,0.5-1.3s0.7-0.5,1.1-0.5c0.3,0,0.6,0.1,0.8,0.3C40.2,20.5,40.4,20.8,40.5,21.2z M37.7,22.6h2.9c0,0.4-0.1,0.8-0.3,1
			c-0.3,0.3-0.6,0.5-1.1,0.5c-0.4,0-0.7-0.1-1-0.4C37.8,23.4,37.7,23,37.7,22.6z"/>
		<path d="M43.5,19.5l-1.6,5.2h0.9l0.8-3l0.3-1.1c0,0.1,0.1,0.4,0.3,1.1l0.8,3H46l0.8-3l0.3-1l0.3,1l0.9,3H49l-1.6-5.2h-0.9
			l-0.8,3.1l-0.2,0.9l-1-4H43.5z"/>
	</g>
	<g>
		<path d="M87.8,19.5v7.2h0.9v-6.3h3.5v-0.8H87.8z"/>
		<path d="M93.3,25.6v1h0.9v-1H93.3z M93.3,19.5v5.2h0.9v-5.2H93.3z"/>
		<path d="M95.7,19.5V24H95v0.7h0.8v0.6c0,0.3,0,0.6,0.1,0.8c0.1,0.2,0.2,0.4,0.4,0.6s0.5,0.2,0.9,0.2c0.2,0,0.5,0,0.8-0.1l-0.1-0.8
			c-0.2,0-0.4,0-0.5,0c-0.3,0-0.5-0.1-0.6-0.2c-0.1-0.1-0.2-0.3-0.2-0.6v-0.5h1V24h-1v-4.5H95.7z"/>
		<path d="M101.9,21.2l0.9-0.1c-0.1-0.5-0.4-0.9-0.8-1.2s-0.9-0.4-1.5-0.4c-0.8,0-1.4,0.2-1.8,0.7S98,21.2,98,22
			c0,0.9,0.2,1.5,0.7,2c0.4,0.5,1,0.7,1.7,0.7c0.7,0,1.3-0.2,1.7-0.7c0.4-0.5,0.7-1.1,0.7-2c0-0.1,0-0.1,0-0.2h-3.9
			c0-0.6,0.2-1,0.5-1.3s0.7-0.5,1.1-0.5c0.3,0,0.6,0.1,0.8,0.3C101.5,20.5,101.7,20.8,101.9,21.2z M99,22.6h2.9c0,0.4-0.1,0.8-0.3,1
			c-0.3,0.3-0.6,0.5-1.1,0.5c-0.4,0-0.7-0.1-1-0.4C99.2,23.4,99,23,99,22.6z"/>
		<path d="M107.3,21.4l0.9-0.1c-0.1-0.6-0.3-1.1-0.7-1.4s-0.9-0.5-1.4-0.5c-0.7,0-1.3,0.2-1.7,0.7s-0.6,1.1-0.6,2
			c0,0.6,0.1,1.1,0.3,1.5s0.5,0.7,0.8,0.9s0.8,0.3,1.2,0.3c0.6,0,1-0.1,1.4-0.4s0.6-0.7,0.7-1.2l-0.9-0.1c-0.1,0.3-0.2,0.6-0.4,0.8
			s-0.5,0.3-0.7,0.3c-0.4,0-0.8-0.2-1.1-0.5s-0.4-0.8-0.4-1.5c0-0.7,0.1-1.2,0.4-1.5c0.3-0.3,0.6-0.5,1-0.5c0.3,0,0.6,0.1,0.9,0.3
			C107,20.6,107.2,21,107.3,21.4z"/>
		<path d="M108.8,17.5l-0.1,0.8c0.2-0.1,0.4-0.1,0.5-0.1c0.2,0,0.4,0,0.5,0.1c0.1,0.1,0.2,0.2,0.3,0.3c0.1,0.1,0.1,0.3,0.3,0.7
			c0,0,0,0.1,0.1,0.2l-2,5.2h0.9l1.1-3c0.1-0.4,0.3-0.8,0.4-1.2c0.1,0.4,0.2,0.8,0.4,1.2l1.1,3h0.9l-2-5.3c-0.2-0.6-0.4-1-0.5-1.2
			c-0.2-0.3-0.3-0.5-0.5-0.6s-0.4-0.2-0.7-0.2C109.2,17.4,109,17.4,108.8,17.5z"/>
		<path d="M117.3,21.4l0.9-0.1c-0.1-0.6-0.3-1.1-0.7-1.4s-0.9-0.5-1.4-0.5c-0.7,0-1.3,0.2-1.7,0.7s-0.6,1.1-0.6,2
			c0,0.6,0.1,1.1,0.3,1.5s0.5,0.7,0.8,0.9s0.8,0.3,1.2,0.3c0.6,0,1-0.1,1.4-0.4s0.6-0.7,0.7-1.2l-0.9-0.1c-0.1,0.3-0.2,0.6-0.4,0.8
			s-0.5,0.3-0.7,0.3c-0.4,0-0.8-0.2-1.1-0.5s-0.4-0.8-0.4-1.5c0-0.7,0.1-1.2,0.4-1.5c0.3-0.3,0.6-0.5,1-0.5c0.3,0,0.6,0.1,0.9,0.3
			C117,20.6,117.2,21,117.3,21.4z"/>
		<path d="M118.8,19.5v7.2h0.9v-7.2H118.8z"/>
		<path d="M124.6,21.2l0.9-0.1c-0.1-0.5-0.4-0.9-0.8-1.2s-0.9-0.4-1.5-0.4c-0.8,0-1.4,0.2-1.8,0.7s-0.7,1.1-0.7,2
			c0,0.9,0.2,1.5,0.7,2c0.4,0.5,1,0.7,1.7,0.7c0.7,0,1.3-0.2,1.7-0.7c0.4-0.5,0.7-1.1,0.7-2c0-0.1,0-0.1,0-0.2h-3.9
			c0-0.6,0.2-1,0.5-1.3s0.7-0.5,1.1-0.5c0.3,0,0.6,0.1,0.8,0.3C124.3,20.5,124.5,20.8,124.6,21.2z M121.8,22.6h2.9
			c0,0.4-0.1,0.8-0.3,1c-0.3,0.3-0.6,0.5-1.1,0.5c-0.4,0-0.7-0.1-1-0.4C121.9,23.4,121.8,23,121.8,22.6z"/>
	</g>
	<g>
		<g>
			<g>
				<g>
					<g>
						<path fill="#202020" d="M251.3-31c0-0.6,0.1-0.3,0.1,1.3l-0.2,1.1L251.3-31z"/>
						<path fill="#202020" d="M251.6-20.3c-0.1,1.9-0.2,4-0.4,2.8c0.2-1.8,0.1-2.3,0.3-4.3c0-1.6-0.1-2.8-0.1-2.5
							c0-0.6,0-2.5,0.1-3.3c0.1,2.1,0.1,4.7,0,7.4C251.6-19.6,251.6-20.2,251.6-20.3z"/>
						<path fill="#202020" d="M128.9,13.2l1,0C129.6,13.2,129.3,13.2,128.9,13.2z"/>
						<path fill="#202020" d="M32.7,13.3c0.7,0,1,0,1.1,0C33.1,13.3,32.6,13.3,32.7,13.3z"/>
						<path fill="#202020" d="M16.3,13.5c0.4,0,0.6,0,1,0C16.9,13.5,16.5,13.5,16.3,13.5z"/>
						<path fill="#202020" d="M128.9,13.2l-2.6,0.1C126.2,13.2,127.7,13.2,128.9,13.2z"/>
						<path fill="#202020" d="M251.2,1.1c0-0.5,0-1,0-1.4C251.3,0.1,251.3,0.6,251.2,1.1C251.3,1,251.3,1,251.2,1.1z"/>
						<path fill="#202020" d="M171.3,13.4l0.8,0c0.2,0,0.4,0,0.6,0.1L171.3,13.4z"/>
						<path fill="#202020" d="M203.8,13.4c-0.7,0-1-0.1-1.3-0.2c0.4,0.1,1,0.1,1.6,0.1C204.2,13.3,204.1,13.4,203.8,13.4z"/>
						<path fill="#202020" d="M251.8,8.4l0-0.9C251.8,7.7,251.8,8.1,251.8,8.4z"/>
						<path fill="#202020" d="M148,13.4c-0.1,0-0.2,0-0.3,0.1C147.7,13.4,147.8,13.4,148,13.4z"/>
						<path fill="#202020" d="M215.1-32.3C215.1-32.4,215.1-32.4,215.1-32.3C215.3-32.4,215.3-32.3,215.1-32.3z"/>
						<path fill="#202020" d="M251.7-31c0,0,0-0.5-0.1-0.5c0-0.1,0-0.1,0-0.1C251.7-31.7,251.7-31,251.7-31z"/>
						<path fill="#202020" d="M-13.7,13.7c0.1,0,0.1,0,0.1,0C-12.8,13.7-13.3,13.7-13.7,13.7z"/>
						<path fill="#202020" d="M-251.9-26.1c0.1,3.1,0.2-5.1,0.3-0.4C-251.7-27-251.8-22.2-251.9-26.1z"/>
						<path fill="#202020" d="M251.3,1.9c0,0.4,0,0.9,0,1.3C251.3,2.7,251.3,2.2,251.3,1.9z"/>
						<path fill="#202020" d="M-251.6-26.5L-251.6-26.5l0,0.5C-251.6-26.2-251.6-26.4-251.6-26.5z"/>
						<path fill="#202020" d="M-83,13.6c0.1,0,0.4,0,0.7-0.1C-82.3,13.6-82.5,13.6-83,13.6z"/>
						<path fill="#202020" d="M-31.4,13.4l-1.3,0C-32.2,13.4-31.8,13.4-31.4,13.4z"/>
						<path fill="#202020" d="M-109.8,13.4c-0.7,0-0.9,0-1.9,0c0.1,0,0.2,0,0.3,0C-111,13.4-110.6,13.4-109.8,13.4z"/>
						<path fill="#202020" d="M-137.6,13.4c0.1,0,0.3,0,0.5,0c0.3,0,0.6,0,0.9,0L-137.6,13.4z"/>
						<path fill="#202020" d="M130.4-32.4c0.6,0,1-0.1,1.3-0.1C131.2-32.4,135.3-32.4,130.4-32.4z"/>
						<path fill="#202020" d="M251.3,1.1c0,0.2-0.1,0.4-0.1,0.8C251.3,1.6,251.3,1.3,251.3,1.1C251.3,0.9,251.3,0.9,251.3,1.1z"/>
						<path fill="#202020" d="M-110.9,12.3l-4.4,0C-114.1,12.3-112.5,12.3-110.9,12.3z"/>
						<path fill="#202020" d="M-69.6-32.4l1,0C-69-32.4-69.4-32.4-69.6-32.4z"/>
						<path fill="#202020" d="M-128.5,12.3c-0.8,0-1.6,0.1-2.5,0.1c-0.2,0-0.4,0-0.5,0L-128.5,12.3z"/>
						<path fill="#202020" d="M131.7-32.5C131.7-32.5,131.7-32.5,131.7-32.5C131.7-32.5,131.7-32.5,131.7-32.5z"/>
						<path fill="#202020" d="M160.8-32.2c-4.2,0-2-0.2-2.9-0.3c-5-0.1-2.3,0.1-4,0.2c-3.1,0-5.6-0.2-7.9-0.2c-0.2,0-0.6,0-0.1,0.1
							c-3.3-0.1-9.9,0-13.7-0.2c-0.3,0-0.4,0-0.5,0c0.6-0.1,0.7-0.2,0.6-0.3c-1.9,0-3.5-0.1-4.2,0c1.2,0,1.3,0,1.8,0.1l-2-0.1
							c-1.8,0.2,2.7,0.1,2.7,0.2c-3.9-0.1-8.4-0.2-11.3-0.2c-0.6,0.2,6.9,0.1,3,0.2l4.6-0.1c-3.5,0.3,2.8,0-0.4,0.3
							c-6,0-6.7-0.1-12.8,0c-1.4-0.1,0.4-0.1-0.9-0.2c-8.6-0.2-6.7,0.4-13,0.2c-1.6-0.1-2.3-0.3-6.7-0.2l1.5,0.2
							c-5.8,0-3.3-0.3-9.4-0.1c1.1,0.1,4.6,0.1,3.7,0.1c-4,0.2-2.8-0.1-5.8-0.1l-0.6,0.2c-6.2-0.1-13.1-0.1-20-0.2
							c0.4,0.1,1.6,0.1-0.1,0.2c-8.7-0.1-18.5,0-26.9,0.1l-3.2-0.1c-0.7,0-1.4,0.1-0.6,0.1c-3.3,0.1-0.2-0.1-1.7-0.2
							c-1.9,0-2.5,0.1-1.3,0.1c-5.8-0.1-16.4-0.3-22.5-0.1l1.2,0c-4.7,0.1-5.3-0.3-9.7-0.2l0.8,0c-10.3,0.1-21.6-0.1-29.4,0.2
							c-1.5-0.2-10.2,0.1-10.8-0.2c-5.9,0.1-4.2,0.2-12.4,0.3c-2.2,0-3.3-0.2-6-0.2l-0.1,0.2l-3.7-0.2l-2,0.2l-2.6,0
							c1,0,2.2-0.1,2-0.1c-2,0-4.4,0-6.4,0c-1,0-1.8,0.1-2.4,0.1c-0.6,0-1,0.1-1,0.1l-9.4-0.1c0.2,0.1,1.8,0.1,3,0.1
							c-5-0.2-0.9,0.2-5.5,0c0.6,0-0.3-0.1-0.4-0.1c-2.3,0.1-7.5,0.1-11.4,0.1l0.7,0.1c-7,0-14.8,0-22.6,0c2.8,0,2.2-0.2-0.1-0.3
							l-0.9,0.2c-1.5-0.1,2.4-0.1-0.6-0.2c-2.9,0-2,0.2-0.3,0.2l-3.6-0.1c-0.2,0,0.6,0.1,0.8,0.1c-1.5-0.1-6.2,0.2-8.3,0l-0.2,0
							c-7.9,0-11.4,0-17.8-0.1c-0.1-0.1-2.6-0.1-4.5-0.2c-4.7,0-9.9,0.2-15.6,0.1c-4-0.1-1.2-0.1-3-0.2c-0.3,0.1-6,0.1-3,0.2
							c-6.8,0-8.7,0-17.3-0.1c0.9-0.1,2-0.1,1.4-0.1c-1.6,0-3.6,0.1-3.3,0.1l0.4,0c-9.7-0.2-22.3,0.4-30,0.1l0.4,0l-8-0.1
							c-3.7,0,2.2,0.1-0.5,0.2c-4.3-0.1-7.7-0.1-10.9-0.1c-0.8,0-1.6,0-2.4,0c-0.6,0-1.1,0.3-1.4,0.9c-0.1,0.3-0.1,0.5-0.1,1
							c0,0.4,0,0.8,0,1.2c0,0.8,0,1.7,0,2.6c0.4,5.5,0,19.5,0.2,26.9l-0.1-0.4c-0.1,1.9,0.1,2.3,0.1,3.7c-0.1-0.2-0.1-2.1-0.1-0.9
							c0,2,0,4.1,0,6.1l0,1.5l0,0.8c0,0.2,0,0.4,0.1,0.6c0.1,0.3,0.4,0.6,0.7,0.8c0.2,0.1,0.3,0.1,0.5,0.1c0.2,0,0.5,0,0.7,0
							c4.2,0,8.3,0,12.6-0.1c8.4-0.1,16.9-0.1,25.2-0.2c6.1,0,3.4,0.5,11.1,0.2l-2.2-0.2c12.3,0.2,25.1,0,37.1,0.2
							c-0.7,0-0.7-0.1-1.9-0.1c1.3-0.1,3.6-0.1,5.6,0c1,0,2,0,2.6,0.1c0.7,0,1.1,0,1.1,0.1c1.9,0,0.4-0.1,1.6-0.1
							c2.5-0.1,6.4,0.2,7.7,0c0.2,0-0.7,0-1.2,0c1.7,0.1,7.7,0,6.1,0.1c4.5-0.1,8.6,0.1,12.2,0c2.3,0.2,7.7-0.1,8.5,0.1
							c-0.3-0.2,7.9-0.2,10.7-0.1c-1-0.1,2.5-0.1,1.4-0.2c3.3,0,6.2,0,5.7,0.2c6-0.3,12,0.2,15.4-0.1c9.7,0.1,18.6,0.2,27.3,0.3
							c-0.3-0.2-9.6,0-9.2-0.3c8.2,0.1,13,0.3,21.2,0.2c2.1,0-1.2-0.1-1.9-0.1c8.2,0.1,15.9,0,23.2,0.1c0,0-0.2,0-0.5,0
							c-0.3,0-0.7,0-1.1,0c1.4,0,3.4,0,3.2,0.1l-1.4,0c-2.3,0.1,5.7,0.3,6,0.4c-2.5-0.3,7.2-0.1,3.3-0.4c1,0,2.1,0.1,1.9,0.1
							c1.4,0,1.9-0.1,0.4-0.1c5.2,0.1,3.3,0.2,8,0.2c0,0-1-0.1-1.4-0.1c2.4,0.1,4.8,0.2,8.7,0.2c-0.2,0,0.2-0.1-1-0.1
							c6.8,0,11.6,0.3,19,0.2c-2.2-0.2,2.5-0.1,2.9-0.3l4,0.1l-1.6,0.1c3.5,0,6.6,0.1,9.6,0.1l-2.6-0.1l6.6,0l-3.7,0.1
							c3.6,0.1-0.4,0.2,4.3,0.2c-1,0,3.5,0,5.3-0.1l0,0c1.7,0.1,3.5,0.1,6.1,0.1c0.7-0.1-0.5-0.2-0.1-0.2c1.7,0.2,8.2,0,10.4,0.2
							c-0.7,0-0.8-0.1-0.5-0.2l1.4,0.1c1.6,0,1.9-0.1,1.6-0.1c4.9,0-1.6,0.2,4.3,0.1c-0.5,0-0.2,0-1.2,0c5.8-0.1,11.3,0.1,16.6,0
							c1.6-0.2-4.7,0-2.9-0.2c7.7,0,16,0.2,23.5,0.2l-1.4,0c1,0.3,5.6-0.1,9.4,0c-0.9,0-1.2-0.1-1-0.1c5.1,0,10.5,0.1,18.2,0.1
							l-1-0.1c3-0.1,8,0,11.2-0.1c1,0.1,2.8,0.1,1.7,0.2c10.1-0.4,19.2,0.2,28.1-0.1c-1.1,0-2.5-0.1-1.7-0.1l7.6,0.1
							c-0.6,0.1-1,0.1-2.6,0.2c1,0.1,3.1,0.1,5,0.1c-3.4-0.1,0-0.2,1.5-0.3c-0.2,0,0.3,0.1,0.1,0.1c4-0.2,0.7,0.2,6.1,0.1l-0.3-0.1
							c2,0,3.9,0.1,6.1,0.1c0.9-0.1-2.2-0.1-2.3-0.2c3.1,0,6.1,0.3,8.8,0.1c-1.3,0-3.2-0.1-4.5-0.1c3-0.2,3.4-0.1,5.6-0.1l-0.2,0
							l5.2-0.1l-1.3,0c3.8,0.3,7.8,0.1,13,0.3c-5-0.2-0.8-0.1-1.2-0.3c1.3,0,3.3-0.1,2.8-0.1c2.4,0.1,4.1-0.1,7.5,0.1
							c0.2,0,2.6,0,2.1-0.1c3.2,0-0.8,0.1-0.5,0.1c4.9,0.2,11.5-0.2,18.6,0c3,0,4.8,0.1,6.6,0.2c0.4,0,0.9,0,1.3,0
							c0.5,0,0.9,0,1.3-0.2c0.4-0.2,0.8-0.6,1-1.2c0.2-0.6,0.1-1.2,0.1-1.9c-0.1-1.9-0.2,1.6-0.2,1.5c-0.1-3-0.1-5.4,0-8.3
							c0,0.6-0.1,0-0.1-0.9c0-2.3,0.2-1.6,0.1-4.6c-0.1,0.5-0.1,1.2-0.2,2.3c0.1-2.7,0.1-5.4,0.2-8.3c-0.1-0.8-0.1,1.7-0.2,2.7
							c0-3.2,0.1-8.3,0.2-9.2l0,2c0-1.2-0.1-0.6-0.1,0.3c-0.1,2.7,0,3.9,0.1,4.1l0-2c0.3,2.1,0,8.1,0,12.2l0.2-1.7l-0.2,4.2
							c0.1,0.9,0.2,1.5,0.2-0.5c0.1,2.9-0.1,2.6,0,5.1c0,0.3,0,0.2,0-0.1c0,0,0,0.7,0,1.4c0,0.4,0,0.7,0,1c0,0.3,0,0.5,0,0.5
							c0.1-0.6,0.2,0.5,0.1-1.3c0,0.3,0,0.6,0,0.9c0,0.3,0,0.7-0.2,1c-0.2,0.6-0.7,1-1.3,1.2c-0.3,0.1-0.6,0.1-0.8,0.1
							c-0.2,0-0.5,0-0.7,0c-0.5,0-0.9,0-1.3,0c-1.7,0-2.9-0.1-3.9,0l0.4,0c-7.1-0.1-0.7-0.2-6-0.3l-3.6,0.4l-0.7-0.2
							c-0.7,0-2.2,0-1.9,0.1c-2.7-0.1,0.5-0.1-1.1-0.2c-3.5,0.1-9.7-0.1-10.5,0.2c-1.3-0.1,3.4-0.1-0.4-0.2c-1.1,0.3-4.3,0-7.6,0.1
							c1,0.1,4,0.1,0.8,0.2c-1.9-0.2-6.3,0-9,0c-0.1-0.2-5.9-0.1-10.5-0.1c0.3,0.1-8.6,0.1-12.8,0.2l0.1,0c-0.8-0.2-5.2-0.1-8.4-0.2
							c0.1,0.1,0.7,0.2,2.4,0.2l-3,0c-0.7-0.1-1.6-0.1-3.6-0.1l0.8,0.1c-4,0-8-0.2-13.1-0.1c-0.3-0.1,4.1-0.4-1.3-0.4
							c-0.2,0.1-0.4,0.2,1,0.2c-0.5,0-1.7-0.1-2.6,0l2.2,0.1c-2.3,0.1-1.2-0.1-3.1-0.1c0,0.1-1.4,0.1-1.1,0.1c0.5,0,1.6,0,2.3,0
							c-2.1,0-4.6,0.1-5.5,0.2c0.2-0.1,0-0.1-1.5-0.1c-4,0-1.4,0.1-3.7,0.2c-1-0.1-3.5,0-3.6-0.1c-1.2,0-1.4,0.1-1.8,0.1
							c-2.1-0.1-9.6,0-7.3-0.2l0.5,0c-0.1,0-0.2,0-0.3,0c0,0,0,0,0,0h0c-6.8-0.1-14,0.1-20.7,0l0,0c-4-0.1-8.9,0-11.8-0.1
							c-1.2,0-2.8,0.1-2.3,0.1c-3.1,0-3.4-0.1-7.8,0c3.1,0.1-1.1,0.1,3.2,0.1c-4,0-4.9,0.1-9.1,0c1.5,0.1-3,0.2-4.9,0.1l2.8-0.1
							c-2.1,0-4,0-5.9,0l1,0.2c-8.1,0.2-14.7-0.3-20.9,0c-2.2-0.1,4.4-0.1,2.5-0.2c-3.7,0-7.6,0.3-8.8,0.3
							c-5.1,0.1-4.8-0.2-10.1-0.2c0.7-0.1,1.3-0.2-2.7-0.3c-3.7,0-4.6,0.2-2.2,0.3c0.9,0,1.3,0,1.3,0c1.2,0,2.8,0,1.3,0.1l-0.5-0.1
							c-1.9,0.1-7,0.1-5.8,0.2c-2.8-0.1-1.2-0.1,0.9-0.1c-4.8,0.1-7.5,0-12.4,0.1c0.8,0,1.5-0.1,0.7-0.1c-7.2,0.1-3.2-0.1-8.1-0.1
							c-2.8,0.1,1,0.2-3.9,0.1c-3,0.1-0.6,0.2,0.6,0.2c-4.5-0.1-8.4,0.1-11,0.1l2.4,0c-1.4,0-2.6,0-3.8,0l1.4-0.1
							c-1.4,0-2.6,0-2.5,0.1c-1.4-0.1,1.1-0.2-1.8-0.3c-1.9,0.1-5.7-0.1-6.3,0.1c5.8-0.1-0.6,0.2,4.3,0.2c-1,0-2.1,0-3.5,0
							c-0.2,0,0.2,0,0.6,0c-5.6,0.1-2.6-0.2-8.4-0.2c0.7,0.1-1.3,0.2-2.3,0.1c2.3,0,1.1-0.1-1-0.2c-3.7,0.1-4-0.1-6,0l2.2,0
							c-0.8-0.1-2.6-0.1-5.2-0.1c-0.2,0.1,2.4,0,1.4,0.1c-2.9-0.2-6.5,0.2-10.5,0.1c-1.9,0.1-0.2,0.2-1.8,0.2
							c-4.5-0.1-4.9,0.1-9.6,0c1.4-0.1,1.6-0.1-1.7-0.2l7.8,0.1l-5-0.2c2.3,0,4.9,0.1,6.3,0.1c-2.4-0.1-2.1-0.1-1-0.2
							c-3.2,0.2-6.4-0.1-10.1,0l0.1,0.3c-5.6,0.1-9.9-0.2-17.1-0.1l2.3-0.1c-1-0.1-4.5,0-6.8-0.1c0.2,0.1-1.2,0.1-2.2,0.2
							c0.1-0.1-5.3,0-6-0.2l-3.2,0.1c-5.8,0.1-6.7-0.3-12.3-0.2c1.7,0.1-0.9,0.2,2.9,0.3c-1.9,0-3.6,0-3.6,0c-1.1,0.1-5.2-0.1-6.9,0
							c-0.8,0-1-0.1-3.2-0.1c-0.2,0,0,0,0,0c0,0-3.3-0.1-1.5-0.2c-5.8,0.3-16.1,0-21.2,0.2c-4.1,0-9-0.1-12.7-0.1c0.2,0,0,0,0.7,0
							c-5.1,0.1-3.2-0.3-9-0.2c-3,0.2,3.1,0.1,1.2,0.1c-0.8,0.3-7,0-11,0.1l1,0c-3,0.1-7.3-0.1-12.2-0.1c0,0,0.2,0,0,0
							c-3.4-0.2-9.7-0.2-14.4-0.3c1.5,0.1,2.1,0.1,1.2,0.2c-2.1,0,0.6-0.2-3.6-0.2c-1.4,0.1-4.4,0.1-4.8,0.3l4,0c-2,0.2-5.2,0-7.2,0
							l0.3,0.1c-6.1,0-6.2-0.2-12.7-0.2l0.7-0.1c-3.6-0.2-3,0.1-6.6,0l-1.1,0.2c-2.4,0-8.3-0.2-12.5-0.2c2.4,0.1,7.4,0.2,10.4,0.3
							c-2.3,0-8,0-9.2-0.1c0.9,0,2.1,0.1,3.1,0c-2.9-0.2-6.7-0.2-11.3-0.2c0.4,0.2-2.6,0.2-6.2,0.2c-0.4,0-1.1-0.1-1.5-0.4
							c-0.5-0.3-0.8-0.7-1-1.3c-0.1-0.3-0.1-0.5-0.1-0.8c0-0.2,0-0.4,0-0.7c0-0.4,0-0.9,0-1.3c0-1.7-0.1-3.1-0.1-4
							c0.1-8.3-0.1-16.4,0-26c0.3,3.4,0-2.8,0.3-2.2c0-2.2,0-3.1,0-3.3c0,0,0-1.7-0.1-3.4c0-0.4,0-0.8,0-1.3c0-0.5,0.2-0.9,0.4-1.2
							c0.2-0.3,0.5-0.5,0.7-0.7c0.2-0.1,0.3-0.2,0.3-0.2c0.5-0.2,0.6-0.2,0.4-0.2c-0.2,0-0.5,0.1-0.9,0.4c-0.4,0.3-0.7,0.7-0.8,1
							c-0.2,0.3-0.2,0.6-0.2,0.5c0.2-0.8,0.6-1.3,1-1.6c0.4-0.3,0.8-0.4,1.1-0.5c0.2,0,0.3,0,0.4,0c0.1,0,0.2,0,0.2,0
							c0.1,0,0.2,0,0.3,0c0.3,0,0.4-0.1,2-0.1c-0.7,0.1,1.7,0.2,4.5,0.1l-3.9,0.1c6.9,0.2,5.9-0.3,12.8-0.1l-2.2-0.1
							c3.5,0.1,13.1,0,16.6,0.2c0.6,0,1.5-0.1-0.1-0.1c8.5,0,18.9,0.3,25.5,0.1l-0.6-0.1c1.6,0,2.8,0.1,4.7,0.1
							c-0.1,0-0.6-0.1,0.1-0.1c0.8,0,4.2,0.1,6.3,0.1l-1.8-0.1c8.3-0.1,12.7,0.2,19.6,0.3c0-0.2,6.5-0.3,9.7-0.3l-0.1,0
							c9.6,0,16.4,0.2,25.3,0.3c5.5-0.2,18.7-0.1,27.6-0.2c-1.4,0,0.2,0.2,1.8,0.2c2.1,0,5.8,0.2,5.4,0l-0.7,0
							c1.6-0.2,5.9-0.1,9.2-0.2l0.6,0.3c8.8-0.4,23,0.1,27.7-0.2c2.1,0,4.7,0.1,6.8,0.1l-0.1-0.1c5.9,0,8.8-0.1,16,0l-1.5-0.1
							c4.1,0,5.2,0.4,8.9,0.4l1.1-0.2c7.1,0,14.3-0.2,21.4,0c-0.1,0-0.3-0.1-1.5-0.1c3.4,0,13-0.1,11.8,0.1c0-0.1,1.9-0.1,4.2-0.1
							c2.3,0,5.1,0.1,7,0.1l-0.6-0.1c3.2,0.2,3.4,0.2,7.9,0.3c1.1,0,0.9-0.1-0.5-0.1c3.6-0.1,2.8,0.1,7.1,0.1l-1.6-0.1
							c3.7,0,3.4,0,5.4,0.1c2.3,0.1,7,0,7.5-0.2c0.5,0.1,2.5,0.2,4.7,0.1c0.3,0-0.5-0.1-0.9-0.1c6.2-0.1,9.2,0.2,13.4,0
							c0.1,0,0.4-0.1,0.7-0.1c-4.9,0-8.1,0-8.5,0c0-0.1,4-0.2,0.8-0.3c3.2,0.1,8.6,0.3,12.5,0.2c0.2,0,0.4,0,0.5,0l-0.4,0
							c0.9,0,1.7,0,2.4,0c1.2,0,2,0,3.2,0c0.5-0.1,4.5-0.1,6.5-0.1c-0.2,0.1,2.4,0.1,0,0.2c0.3,0-0.4,0-1.7,0c-0.3,0-0.6,0-0.8,0
							c0,0,0.1,0,0.1,0c-1.3,0-3,0-4.9,0c1.6,0.1,3.2,0.1,5.4,0.1c1,0.1,2.1,0.2,2.8,0.2c2.7-0.2,7.9-0.3,8.6-0.4
							c6,0.1,14.2,0.1,18,0.3c1.7,0,2-0.1,2.6-0.1c-1,0-2.2,0-2.7-0.1c3.4,0.1,10.1,0,11,0.2c4.3-0.1-2.4-0.2,3.5-0.1l-0.8-0.1
							c11.7-0.3,19,0.5,31.9,0.1c-0.9,0-1.3,0-1.5,0.1c14.7-0.2,30.4,0.2,44.9-0.1c4.1-0.1,4.6,0.1,7.1,0.2l0.9-0.2l4.3,0.2
							c6.1,0.1,10.6-0.4,18.3-0.1l-1,0.1c2.8,0,8.8,0.1,8.3-0.1c0.3,0,0.9,0.1,2,0.1l0.1-0.1l6.8,0.1c5.3-0.1-0.8-0.3,6.9-0.3
							c0.7,0,1.6,0,2.5,0c0.4,0,0.9,0,1.3,0c0.2,0,0.5,0,0.7,0.1c0.2,0.1,0.5,0.1,0.7,0.3c0.8,0.5,1.1,1.3,1.1,1.7
							c0,0.4,0,0.6,0,0.3c0-0.7-0.5-1.4-1.1-1.7c-0.6-0.3-1.1-0.3-1.2-0.2c0,0,0.2,0,0.4,0c0.3,0.1,0.6,0.2,0.8,0.4
							c0.3,0.2,0.5,0.5,0.6,0.7c0.1,0.2,0.1,0.4,0.1,0.4c0,0.3-0.2,0.9-0.3,0.6c-0.1-0.1-0.1-0.4-0.4-0.9c-0.2-0.2-0.4-0.5-0.8-0.6
							c-0.1,0-0.2-0.1-0.3-0.1c-0.1,0-0.2,0-0.4,0c-0.3,0-0.7,0-1.1,0l-4.5-0.1l-1.4,0.1l3.8,0c-2.1,0.1-3.5,0-5-0.1
							c-0.4,0.1-1,0.1-1.9,0.1l-4.4-0.2c-0.5,0.1,2,0.2-1,0.2c-2.1-0.1,2-0.2-1.4-0.3c-2.2,0.1-1.5,0.2-4,0.1
							c-0.4,0.1,0.2,0.1,1.2,0.1c-2.2-0.1-5.9,0-7.1-0.2c-2.2,0.1-7.6,0-7.4,0.2c-0.7-0.1-4-0.2-6-0.2c3.8,0.3-7.7,0-6.7,0.3
							c-2.8-0.2-10.1-0.1-15-0.2c0.3,0,0.8,0.1,1.3,0c-2.8,0-3.6,0.1-5.4,0.1c-0.4-0.2-4.7-0.2-7-0.4c-3.4,0.2,2.1,0.2,1,0.4
							c0.2-0.2-5.9-0.2-4.8-0.3c-2.6,0.1-2.2,0.1-3.6,0.2c-0.5-0.2-2.4,0-4.6-0.2c-3.8,0.1-1,0.2-5.1,0.2
							C157.2-32.3,160.8-32.2,160.8-32.2z M62.3-32.6L62.3-32.6c0.8,0,1.6,0,2,0C63.9-32.6,63.3-32.6,62.3-32.6z M54-32.6
							c1,0,2.3,0,3.6,0c0.3,0,0-0.1-0.9-0.1C57.2-32.7,55.2-32.7,54-32.6z M71.5-33.6c-1.3,0-1.8,0-1.9,0c0.6,0,1.3,0,2.3,0
							c0,0,0.1,0,0.2,0C71.9-33.6,71.8-33.6,71.5-33.6z"/>
						<path fill="#202020" d="M73.9-33.4c0.2,0,0.3,0,0.5,0c-0.3,0-0.5,0-0.8,0c-0.2,0-0.3,0-0.5,0C73.4-33.4,73.6-33.4,73.9-33.4z"
							/>
						<path fill="#202020" d="M130.1,13.2l-0.2,0c0.1,0,0.3,0,0.4,0C130.2,13.2,130.2,13.2,130.1,13.2z"/>
						<polygon fill="#202020" points="-60.4,-32.4 -60.4,-32.4 -59.7,-32.4 						"/>
						<path fill="#202020" d="M175.7,12.7c0.1,0,0.3,0,0.6,0C176.3,12.7,176,12.7,175.7,12.7z"/>
						<path fill="#202020" d="M195.4,12.7l2.8-0.1C197,12.7,196.1,12.7,195.4,12.7z"/>
						<path fill="#202020" d="M210.6,12.6c0.2,0,0.2,0,0.3,0.1c0,0,0,0,0,0L210.6,12.6z"/>
						<path fill="#202020" d="M-30.4,12.5c-0.2,0-0.4,0-0.6,0C-32.3,12.4-31.4,12.4-30.4,12.5z"/>
						<path fill="#202020" d="M41.3,12.8c-0.8,0-1.5,0-2.3-0.1C40.3,12.7,41.3,12.7,41.3,12.8z"/>
						<path fill="#202020" d="M-110.4,12.3C-110.4,12.3-110.4,12.3-110.4,12.3c-0.2,0-0.3,0-0.5,0L-110.4,12.3z"/>
						<path fill="#202020" d="M35.7,12.7c1.3,0,2.3,0,3.3,0C38,12.7,36.8,12.7,35.7,12.7z"/>
						<path fill="#202020" d="M251.2-12.4l0-0.7c0,0,0,0,0-0.1L251.2-12.4z"/>
						<path fill="#202020" d="M251.2-13.2l0-0.8C251.3-13.7,251.3-13.4,251.2-13.2z"/>
						<path fill="#202020" d="M251.3-15.8l0,1.7C251.3-14.6,251.3-15.4,251.3-15.8z"/>
						<path fill="#202020" d="M251.3,7.6l-0.1,0.2C251.3,7.7,251.3,7.7,251.3,7.6z"/>
						<path fill="#202020" d="M250,12.6c0.6-0.1,1.2-0.7,1.2-1.5c0-0.9,0-2,0-3l0-0.2c0,0.5,0,1.6,0,2.8c0,0.3,0,0.6,0,0.8
							c-0.1,0.2-0.2,0.4-0.3,0.6C250.7,12.4,250.3,12.5,250,12.6z"/>
						<path fill="#202020" d="M224.6,13.2l5.1,0c-0.9,0.1-2.1,0.1,0.3,0.1C223.6,13.5,231.3,13.2,224.6,13.2z"/>
						<path fill="#202020" d="M208.8,13.3c2.7,0,0,0.1,0.1,0.1C207.2,13.4,206.8,13.4,208.8,13.3z"/>
						<path fill="#202020" d="M94.3,13.3l0.3,0.1C92.5,13.4,94.6,13.4,94.3,13.3z"/>
						<polygon fill="#202020" points="72.5,12.7 74.5,12.6 75.5,12.7 						"/>
						<polygon fill="#202020" points="59.5,13.6 60.5,13.6 56.9,13.5 						"/>
						<path fill="#202020" d="M-132.7,13.5l0.6-0.2C-130.6,13.4-130.3,13.6-132.7,13.5z"/>
						<path fill="#202020" d="M-215.7,13.4c-0.9,0.1-3.2,0.1-4.7,0.1C-218.5,13.4-216.6,13.3-215.7,13.4z"/>
						<polygon fill="#202020" points="-82.4,-33.6 -84.1,-33.7 -80.9,-33.6 						"/>
					</g>
				</g>
			</g>
		</g>
	</g>
	<g>
		<g>
			<g>
				<g>
					<g>
						<path fill="#202020" d="M142.3,13.5c0-0.2,0.1-0.1,0.1,0.4l-0.2,0.3L142.3,13.5z"/>
						<path fill="#202020" d="M142.6,16.6c-0.1,0.5-0.2,1.2-0.4,0.8c0.2-0.5,0.1-0.7,0.3-1.2c0-0.5-0.1-0.8-0.1-0.7
							c0-0.2,0-0.7,0.1-1c0.1,0.6,0.1,1.4,0,2.2C142.6,16.8,142.6,16.6,142.6,16.6z"/>
						<path fill="#202020" d="M113.1,33.2l0.3,0C113.3,33.2,113.2,33.2,113.1,33.2z"/>
						<path fill="#202020" d="M85.1,33.3c0.2,0,0.3,0,0.3,0C85.2,33.3,85.1,33.3,85.1,33.3z"/>
						<path fill="#202020" d="M80.3,33.5c0.1,0,0.2,0,0.3,0C80.5,33.5,80.4,33.5,80.3,33.5z"/>
						<path fill="#202020" d="M113.1,33.2l-0.7,0.1C112.3,33.2,112.7,33.2,113.1,33.2z"/>
						<path fill="#202020" d="M142.2,22.8c0-0.2,0-0.3,0-0.4L142.2,22.8C142.3,22.8,142.3,22.8,142.2,22.8z"/>
						<path fill="#202020" d="M125.4,33.4l0.2,0c0.1,0,0.1,0,0.2,0.1L125.4,33.4z"/>
						<path fill="#202020" d="M134.9,33.4c-0.2,0-0.3-0.1-0.4-0.2C134.6,33.3,134.8,33.3,134.9,33.4C135,33.3,134.9,33.4,134.9,33.4
							z"/>
						<path fill="#202020" d="M142.8,25l0-0.3C142.8,24.8,142.8,24.9,142.8,25z"/>
						<path fill="#202020" d="M118.6,33.4C118.6,33.4,118.6,33.4,118.6,33.4C118.5,33.4,118.6,33.4,118.6,33.4z"/>
						<path fill="#202020" d="M-138.7,25.5C-138.7,25.5-138.7,25.5-138.7,25.5C-138.7,25.4-138.7,25.4-138.7,25.5z"/>
						<path fill="#202020" d="M-139.4,14.5l0,0.2c0,0-0.1,0-0.1,0L-139.4,14.5z"/>
						<path fill="#202020" d="M71.6,33.7C71.6,33.7,71.6,33.7,71.6,33.7C71.9,33.7,71.7,33.7,71.6,33.7z"/>
						<path fill="#202020" d="M-8.6,33.6c0.9-0.1-1.5-0.2-0.1-0.3C-8.9,33.3-7.5,33.5-8.6,33.6z"/>
						<path fill="#202020" d="M142.3,23.1l0,0.4C142.3,23.3,142.3,23.2,142.3,23.1z"/>
						<path fill="#202020" d="M-8.7,33.3L-8.7,33.3l0.1,0C-8.7,33.3-8.7,33.3-8.7,33.3z"/>
						<path fill="#202020" d="M51.5,33.6c0,0,0.1,0,0.2-0.1C51.7,33.6,51.6,33.6,51.5,33.6z"/>
						<path fill="#202020" d="M66.5,33.4l-0.4,0C66.2,33.4,66.3,33.4,66.5,33.4z"/>
						<path fill="#202020" d="M43.7,33.4c-0.2,0-0.3,0-0.5,0c0,0,0.1,0,0.1,0C43.3,33.4,43.4,33.4,43.7,33.4z"/>
						<path fill="#202020" d="M35.6,33.4c0,0,0.1,0,0.1,0c0.1,0,0.2,0,0.3,0L35.6,33.4z"/>
						<path fill="#202020" d="M-121.4,32.4c-0.2,0-0.3,0.1-0.4,0.1C-121.6,32.4-122.8,32.4-121.4,32.4z"/>
						<path fill="#202020" d="M142.3,22.8c0,0-0.1,0.1-0.1,0.2C142.3,23,142.3,22.9,142.3,22.8C142.3,22.8,142.3,22.8,142.3,22.8z"
							/>
						<path fill="#202020" d="M43.3,32.3l-1.3,0C42.4,32.3,42.9,32.3,43.3,32.3z"/>
						<path fill="#202020" d="M-63.2,32.4l-0.3,0C-63.4,32.4-63.3,32.4-63.2,32.4z"/>
						<path fill="#202020" d="M38.2,32.3c-0.2,0-0.5,0.1-0.7,0.1c-0.1,0-0.1,0-0.1,0L38.2,32.3z"/>
						<path fill="#202020" d="M-121.7,32.5L-121.7,32.5L-121.7,32.5z"/>
						<path fill="#202020" d="M-130.2,32.2c1.2,0,0.6,0.2,0.8,0.3c1.5,0.1,0.7-0.1,1.2-0.2c0.9,0,1.6,0.2,2.3,0.2c0.1,0,0.2,0,0-0.1
							c1,0.1,2.9,0,4,0.2c0.1,0,0.1,0,0.1,0c-0.2,0.1-0.2,0.2-0.2,0.3c0.6,0,1,0.1,1.2,0c-0.3,0-0.4,0-0.5-0.1l0.6,0.1
							c0.5-0.2-0.8-0.1-0.8-0.2c1.1,0.1,2.4,0.2,3.3,0.2c0.2-0.2-2-0.1-0.9-0.2l-1.3,0.1c1-0.3-0.8,0,0.1-0.3c1.8,0,2,0.1,3.7,0
							c0.4,0.1-0.1,0.1,0.3,0.2c2.5,0.2,2-0.4,3.8-0.2c0.5,0.1,0.7,0.3,2,0.2l-0.4-0.2c1.7,0,1,0.3,2.7,0.1
							c-0.3-0.1-1.3-0.1-1.1-0.1c1.2-0.2,0.8,0.1,1.7,0.1l0.2-0.2c1.8,0.1,3.8,0.1,5.8,0.2c-0.1-0.1-0.5-0.1,0-0.2
							c2.5,0.1,5.4,0,7.8-0.1l0.9,0.1c0.2,0,0.4-0.1,0.2-0.1c0.9-0.1,0,0.1,0.5,0.2c0.5,0,0.7-0.1,0.4-0.1c1.7,0.1,4.8,0.3,6.5,0.1
							l-0.3,0c1.4-0.1,1.6,0.3,2.8,0.2l-0.2,0c3-0.1,6.3,0.1,8.6-0.2c0.4,0.2,3-0.1,3.1,0.2c1.7-0.1,1.2-0.2,3.6-0.3
							c0.6,0,1,0.2,1.7,0.2l0-0.2l1.1,0.2l0.6-0.2l0.7,0c-0.3,0-0.6,0.1-0.6,0.1c1.2,0.1,2.8-0.1,2.9-0.2l2.7,0.1
							c-0.1-0.1-0.5-0.1-0.9-0.1c1.5,0.2,0.3-0.2,1.6,0c-0.2,0,0.1,0.1,0.1,0.1c0.7-0.1,2.2-0.1,3.3-0.1l-0.2-0.1c2,0,4.3,0.1,6.6,0
							c-0.8,0-0.6,0.2,0,0.3l0.3-0.2c0.4,0.1-0.7,0.1,0.2,0.2c0.9,0,0.6-0.2,0.1-0.2l1,0.1c0.1,0-0.2-0.1-0.2-0.1
							c0.4,0.1,1.8-0.2,2.4,0l0.1,0c2.3,0,3.3,0,5.2,0.1c0,0.1,0.8,0.1,1.3,0.2c1.4,0,2.9-0.2,4.5-0.1c1.2,0.1,0.3,0.1,0.9,0.2
							c0.1-0.1,1.7-0.1,0.9-0.2c2,0,2.5,0,5,0.1c-0.3,0.1-0.6,0.1-0.4,0.1c0.5,0,1-0.1,1-0.1l-0.1,0c2.8,0.2,6.5-0.4,8.7-0.1l-0.1,0
							l2.3,0.1c1.1,0-0.6-0.1,0.1-0.2c2.5,0.2,4,0,6,0.1c1.6-0.4,5.7,0,7.8-0.2l-0.1,0.1c0.6,0.1,0.7-0.1,1.1-0.1
							c-0.1,0.1-0.6,0.1-0.3,0.1c4.7,0.1,9.7-0.1,14.6-0.2c1.8,0,1,0.5,3.2,0.2l-0.6-0.2c3.6,0.2,7.3,0,10.8,0.2
							c-0.2,0-0.2-0.1-0.6-0.1c0.7-0.1,2.7,0,2.7,0.1c0.5,0,0.1-0.1,0.5-0.1c0.7-0.1,1.9,0.2,2.2,0c0.1,0-0.2,0-0.3,0
							c0.5,0.1,2.2,0,1.8,0.1c1.3-0.1,2.5,0.1,3.6,0c0.7,0.2,2.2-0.1,2.5,0.1c-0.1-0.2,2.3-0.2,3.1-0.1c-0.3-0.1,0.7-0.1,0.4-0.2
							c0.9,0,1.8,0,1.6,0.2c1.7-0.3,3.5,0.2,4.5-0.1c2.8,0.1,5.4,0.2,7.9,0.3c-0.1-0.2-2.8,0-2.7-0.3c2.4,0.1,3.8,0.3,6.2,0.2
							c0.6,0-0.3-0.1-0.6-0.1c2.4,0.1,4.6,0,6.8,0.1c0,0-0.2,0-0.5-0.1c0.4,0,1,0,0.9,0.1l-0.4,0c-0.7,0.1,1.7,0.3,1.7,0.4
							c-0.7-0.3,2.1-0.1,1-0.4c0.3,0,0.6,0.1,0.6,0.1c0.4,0,0.5-0.1,0.1-0.1c1.5,0.1,1,0.2,2.3,0.2c0,0-0.3-0.1-0.4-0.1
							c0.7,0.1,1.4,0.2,2.5,0.2c-0.1,0,0.1-0.1-0.3-0.1c2,0,3.4,0.3,5.5,0.2c-0.6-0.2,0.7-0.1,0.9-0.3l1.2,0.1l-0.5,0.1
							c1,0,1.9,0.1,2.8,0.1L84,32.6l1.9,0l-1.1,0.1c1,0.1-0.1,0.2,1.2,0.2c-0.3,0,1,0,1.6-0.1l0,0c0.5,0.1,1,0.1,1.8,0.1
							c0.2-0.1-0.2-0.2,0-0.2c0.5,0.2,2.4,0,3,0.2c-0.2,0-0.2-0.1-0.2-0.2l0.4,0.1c0.5,0,0.5-0.1,0.5-0.1c1.4,0-0.5,0.2,1.2,0.1
							c-0.1,0-0.1,0-0.3,0c1.7-0.1,3.3,0.1,4.8,0c0.5-0.2-1.4,0-0.8-0.2c2.2,0,4.7,0.2,6.8,0.2l-0.4,0c0.3,0.3,1.6-0.1,2.7,0
							c-0.3,0-0.4-0.1-0.3-0.1c1.5,0,3,0.1,5.3,0.1l-0.3-0.1c0.9-0.1,2.3,0,3.3-0.1c0.3,0.1,0.8,0.1,0.5,0.2
							c2.9-0.4,5.6,0.2,8.2-0.1c-0.3,0-0.7-0.1-0.5-0.1l2.2,0.1c-0.2,0.1-0.3,0.1-0.8,0.2c0.3,0.1,0.9,0.1,1.5,0.1
							c-1-0.1,0-0.2,0.4-0.3c-0.1,0,0.1,0.1,0,0.1c1.2-0.2,0.2,0.2,1.8,0.1l-0.1-0.1c0.6,0,1.1,0.1,1.8,0.1c0.3-0.1-0.6-0.1-0.7-0.2
							c0.9,0,1.8,0.3,2.6,0.1c-0.4,0-0.9-0.1-1.3-0.1c0.9-0.2,1-0.1,1.6-0.1l-0.1,0l1.5-0.1l-0.4,0c1.1,0.3,2.3,0.1,3.8,0.3
							c-1.5-0.2-0.2-0.1-0.4-0.3c0.4,0,1-0.1,0.8-0.1c0.7,0.1,1.2-0.1,2.2,0.1c0,0,0.8,0,0.6-0.1c0.4,0,0.3,0,0.2,0.1
							c-0.1,0-0.4,0.1-0.4,0.1c0.4,0,0.7,0.1,1-0.1c0.3-0.1,0.6-0.4,0.8-0.8c0.2-0.4,0.2-0.7,0.2-1.2c0-0.5,0-1,0.1-1.5
							c0.1-1.8,0.3-2.1,0.3-3.7c-0.1-0.6-0.2,0.5-0.2,0.5c-0.1-0.9-0.1-1.6,0-2.4c0,0.2-0.1,0-0.1-0.3c0-0.7,0.2-0.5,0.1-1.3
							c-0.1,0.2-0.1,0.3-0.2,0.7c0.1-0.8,0.1-1.6,0.2-2.4c-0.1-0.2-0.1,0.5-0.2,0.8c0-0.9,0.1-2.4,0.2-2.7l0,0.6
							c0-0.3-0.1-0.2-0.1,0.1c-0.1,0.8,0,1.1,0.1,1.2l0-0.6c0.3,0.6,0,2.4,0,3.5l0.2-0.5l-0.2,1.2c0.1,0.3,0.2,0.4,0.2-0.1
							c0.1,0.8-0.1,0.8,0,1.5c0,0.1,0,0,0,0l-0.1,0.8c0-0.2,0.1,0.1,0.1-0.4c0.1,1.5-0.2,2.4,0,3l0-0.1c-0.1,2.1-0.2,0.2-0.3,1.7
							l0.4,1c0,0-0.2,0.2-0.2,0.2c0,0.2-0.2,0.6-0.1,0.6c-0.5,0.7,0-0.1-0.3,0.2c-0.2,0.5-0.9,1-1.5,1c-0.6,0-1.1,0-1.2,0.1
							c-0.4-0.1,1-0.1-0.1-0.2c-0.3,0.3-1.3,0-2.2,0.1c0.3,0.1,1.2,0.1,0.2,0.2c-0.6-0.2-1.8,0-2.6,0c0-0.2-1.7-0.1-3-0.1
							c0.1,0.1-2.5,0.1-3.7,0.2l0,0c-0.2-0.2-1.5-0.1-2.4-0.2c0,0.1,0.2,0.2,0.7,0.2l-0.9,0c-0.2-0.1-0.5-0.1-1-0.1l0.2,0.1
							c-1.2,0-2.3-0.2-3.8-0.1c-0.1-0.1,1.2-0.4-0.4-0.4c-0.1,0.1-0.1,0.2,0.3,0.2c-0.1,0-0.5-0.1-0.8,0l0.6,0.1
							c-0.7,0.1-0.4-0.1-0.9-0.1c0,0.1-0.4,0.1-0.3,0.1c0.1,0,0.5,0,0.7,0c-0.6,0-1.4,0.1-1.6,0.2c0.1-0.1,0-0.1-0.4-0.1
							c-1.2,0-0.4,0.1-1.1,0.2c-0.3-0.1-1,0-1-0.1c-0.3,0-0.4,0.1-0.5,0.1c-0.6-0.1-2.8,0-2.1-0.2l0.2,0c0,0-0.1,0-0.1,0h0h0
							c-2-0.1-4.1,0.1-6,0l0,0c-1.2-0.1-2.6,0-3.4-0.1c-0.3,0-0.8,0.1-0.7,0.1c-0.9,0-1-0.1-2.3,0c0.9,0.1-0.3,0.1,0.9,0.1
							c-1.2,0-1.4,0.1-2.7,0c0.4,0.1-0.9,0.2-1.4,0.1l0.8-0.1c-0.6,0-1.2,0-1.7,0l0.3,0.2c-2.4,0.2-4.3-0.3-6.1,0
							c-0.6-0.1,1.3-0.1,0.7-0.2c-1.1,0-2.2,0.3-2.6,0.3c-1.5,0.1-1.4-0.2-2.9-0.2c0.2-0.1,0.4-0.2-0.8-0.3c-1.1,0-1.3,0.2-0.7,0.3
							c0.3,0,0.4,0,0.4,0c0.4,0,0.8,0,0.4,0.1l-0.1-0.1c-0.5,0.1-2,0.1-1.7,0.2c-0.8-0.1-0.4-0.1,0.3-0.1c-1.4,0.1-2.2,0-3.6,0.1
							c0.2,0,0.4-0.1,0.2-0.1c-2.1,0.1-0.9-0.1-2.4-0.1c-0.8,0.1,0.3,0.2-1.1,0.1c-0.9,0.1-0.2,0.2,0.2,0.2
							c-1.3-0.1-2.4,0.1-3.2,0.1l0.7,0c-0.4,0-0.8,0-1.1,0l0.4-0.1c-0.4,0-0.7,0-0.7,0.1c-0.4-0.1,0.3-0.2-0.5-0.3
							c-0.5,0.1-1.6-0.1-1.8,0.1c1.7-0.1-0.2,0.2,1.3,0.2c-0.3,0-0.6,0-1,0c-0.1,0,0.1,0,0.2,0c-1.6,0.1-0.7-0.2-2.4-0.2
							c0.2,0.1-0.4,0.2-0.7,0.1c0.7,0,0.3-0.1-0.3-0.2c-1.1,0.1-1.2-0.1-1.7,0l0.6,0c-0.2-0.1-0.8-0.1-1.5-0.1
							c-0.1,0.1,0.7,0,0.4,0.1c-0.8-0.2-1.9,0.2-3.1,0.1c-0.5,0.1-0.1,0.2-0.5,0.2c-1.3-0.1-1.4,0.1-2.8,0c0.4-0.1,0.5-0.1-0.5-0.2
							l2.3,0.1l-1.4-0.2c0.7,0,1.4,0.1,1.8,0.1c-0.7-0.1-0.6-0.1-0.3-0.2c-0.9,0.2-1.8-0.1-2.9,0l0,0.3c-1.6,0.1-2.9-0.2-5-0.1
							l0.7-0.1c-0.3-0.1-1.3,0-2-0.1c0.1,0.1-0.4,0.1-0.7,0.2c0-0.1-1.5,0-1.7-0.2L49,33.5c-1.7,0.1-1.9-0.3-3.6-0.2
							c0.5,0.1-0.3,0.2,0.8,0.3c-0.5,0-1,0-1,0c-0.3,0.1-1.5-0.1-2,0c-0.2,0-0.3-0.1-0.9-0.1c-0.1,0,0,0,0,0c0,0-1-0.1-0.4-0.2
							c-1.7,0.3-4.7,0-6.2,0.2c-1.2,0-2.6-0.1-3.7-0.1c0.1,0,0,0,0.2,0c-1.5,0.1-0.9-0.3-2.6-0.2c-0.9,0.2,0.9,0.1,0.4,0.1
							c-0.2,0.3-2,0-3.2,0.1l0.3,0c-0.9,0.1-2.1-0.1-3.6-0.1c0,0,0.1,0,0,0c-1-0.2-2.8-0.2-4.2-0.3c0.4,0.1,0.6,0.1,0.4,0.2
							c-0.6,0,0.2-0.2-1-0.2c-0.4,0.1-1.3,0.1-1.4,0.3l1.2,0c-0.6,0.2-1.5,0-2.1,0l0.1,0.1c-1.8,0-1.8-0.2-3.7-0.2l0.2-0.1
							c-1-0.2-0.9,0.1-1.9,0l-0.3,0.2c-0.7,0-2.4-0.2-3.6-0.2c0.7,0.1,2.1,0.2,3,0.3c-0.7,0-2.3,0-2.7-0.1c0.3,0,0.6,0.1,0.9,0
							c-0.8-0.2-1.9-0.2-3.3-0.2c0.2,0.4-3.5,0.1-4.5,0.4c-2.4-0.1-4.8,0.1-7.6,0c1-0.3-0.8,0-0.6-0.3c-0.7,0-0.9,0-1,0l-2,0.2
							c-0.5,0.1,0.6,0.1,0.6,0.1c-1.4,0-0.6,0.1-1.5,0.2c0.2-0.1-0.5-0.2-1.3-0.1l1.1-0.1c-2-0.2-1.7,0.3-3.7,0.1l0.6,0.1
							c-1-0.1-3.8,0-4.8-0.2c-0.2,0-0.4,0.1,0,0.1c-2.5,0-5.5-0.3-7.4-0.1l0.2,0.1c-0.5,0-0.8-0.1-1.4-0.1c0,0,0.2,0.1,0,0.1
							c-0.2,0-1.2-0.1-1.8-0.1l0.5,0.1c-2.4,0.1-3.7-0.2-5.7-0.3c0,0.2-1.9,0.3-2.8,0.3l0,0c-2.8,0-4.8-0.2-7.3-0.3
							c-1.6,0.2-5.5,0.1-8,0.2c0.4,0-0.1-0.2-0.5-0.2c-0.6,0-1.7-0.2-1.6,0l0.2,0c-0.5,0.2-1.7,0.1-2.7,0.2l-0.2-0.3
							c-2.5,0.4-6.7-0.1-8.1,0.2c-0.6-0.1-1.4-0.1-2-0.1l0,0.1c-1.7,0-2.6,0.1-4.7,0l0.4,0.1c-1.2,0-1.5-0.4-2.6-0.4l-0.3,0.2
							c-2.1,0-4.2,0.2-6.2,0c0,0,0.1,0.1,0.4,0.1c-1,0-3.8,0.1-3.4-0.1c0,0.2-2.1,0-3.3-0.1l0.2,0.1c-0.9-0.2-1-0.2-2.3-0.3
							c-0.3,0-0.3,0.1,0.1,0.1c-1,0.1-0.8-0.1-2.1-0.1l0.5,0.1c-1.1,0-1,0-1.6-0.1c-0.7-0.1-2,0-2.2,0.2c-0.1-0.1-0.7-0.2-1.4-0.1
							c-0.1,0,0.1,0.1,0.3,0.1c-1.8,0.1-2.7-0.2-3.9,0c0,0-0.1,0.1-0.2,0.1c1.4,0,2.6,0,2.5,0c0,0.1-1.1,0.2-0.2,0.3
							c-0.9-0.1-2.5-0.3-3.6-0.2c-0.1,0-0.1,0-0.1,0l0.1,0c-0.3,0-0.5,0-0.7,0c-0.4,0-0.6,0-0.9,0c-0.1,0.1-1.3,0.1-1.9,0.1
							c0-0.1-0.7-0.1,0-0.2c-0.1,0,0.1,0,0.5,0c0.1,0,0.2,0,0.2,0l0,0c0.4,0,0.9,0,1.4,0c-0.5-0.1-0.9-0.1-1.6-0.1
							c-0.3-0.1-0.6-0.2-0.8-0.2c-0.8,0.2-2.3,0.3-2.5,0.4c-1.8-0.1-4.1-0.1-5.2-0.3c-0.5,0-0.6,0.1-0.8,0.1c0.3,0,0.6,0,0.8,0.1
							c-1-0.1-2.9,0-3.2-0.2c-1.3,0.1,0.7,0.2-1,0.1l0.2,0.1c-3.4,0.3-5.5-0.5-9.3-0.1c0.3,0,0.4,0,0.4-0.1c-2.1,0.1-4.4,0-6.6,0
							c-1.1,0-2.2,0-3.3,0c-0.6,0-1,0-1.7,0c-0.6-0.1-1.2-0.4-1.6-0.9c-0.4-0.6-0.4-1-0.4-1.3c0-0.3,0.1-0.5,0.1-0.9l-0.2-0.3
							l0.2-1.3c0.1-1.8-0.4-3.1-0.1-5.3l0.1,0.3c0-0.8,0.1-2.6-0.1-2.4c0-0.1,0.1-0.3,0.1-0.6l-0.1,0l0.1-2c-0.1-1.5-0.3,0.2-0.3-2
							c0-0.8,0.2-2.4,0.3-2.1c0,0.3,0,0.9,0.1,0.9l0-0.8c0.2-0.1,0.5-0.7,0.6,1.1l-0.1,1.3l0.1,0.4l0-1.1c0.1,0.6,0,1-0.1,1.5
							c0.1,0.1,0.1,0.3,0.1,0.5l-0.2,1.3c0.1,0.2,0.2-0.6,0.2,0.3c-0.1,0.6-0.2-0.6-0.3,0.4c0.1,0.6,0.2,0.4,0.1,1.2
							c0.1,0.1,0.1-0.1,0.1-0.3c-0.1,0.7,0,1.7-0.2,2.1c0.1,0.7,0,2.2,0.2,2.1c-0.1,0.2-0.2,1.2-0.2,1.8c0.3-1.1,0,2.2,0.3,2
							c-0.1,0.4-0.1,1.2-0.2,1.9c0,0.6,0.5,1.1,1,1.3c-0.1,0-0.1-0.1-0.2-0.1c0.3,0.1,0.5,0.1,0.6,0.1c0.2,0,0.4,0,0.7-0.1
							c0.1,0.2,1.4,0.2,2,0.4c1-0.2-0.6-0.2-0.3-0.4c0,0.2,1.7,0.2,1.4,0.3c0.8-0.1,0.7-0.1,1-0.2c0.1,0.2,0.7,0,1.3,0.2
							c1.1-0.1,0.3-0.2,1.5-0.2C-129.2,32.3-130.2,32.2-130.2,32.2z M-101.6,32.6L-101.6,32.6c-0.2,0-0.5,0-0.6,0
							C-102,32.6-101.9,32.6-101.6,32.6z M-99.2,32.6c-0.3,0-0.7,0-1,0c-0.1,0,0,0.1,0.2,0.1C-100.1,32.7-99.5,32.7-99.2,32.6z
							 M-104.3,33.6c0.4,0,0.5,0,0.6,0c-0.2,0-0.4,0-0.7,0c0,0,0,0,0,0C-104.4,33.6-104.3,33.6-104.3,33.6z"/>
						<path fill="#202020" d="M-104.9,33.4c-0.1,0-0.1,0-0.2,0C-105,33.4-104.9,33.4-104.9,33.4c0.1,0,0.2,0,0.2,0
							C-104.8,33.4-104.9,33.4-104.9,33.4z"/>
						<path fill="#202020" d="M113.4,33.2L113.4,33.2C113.4,33.2,113.4,33.2,113.4,33.2C113.4,33.2,113.4,33.2,113.4,33.2z"/>
						<polygon fill="#202020" points="-65.9,32.4 -65.9,32.4 -66.1,32.4 						"/>
						<path fill="#202020" d="M126.7,32.7c0,0,0.1,0,0.2,0C126.8,32.7,126.8,32.7,126.7,32.7z"/>
						<path fill="#202020" d="M132.4,32.7l0.8-0.1C132.9,32.7,132.6,32.7,132.4,32.7z"/>
						<path fill="#202020" d="M136.8,32.6C136.9,32.6,136.9,32.7,136.8,32.6L136.8,32.6L136.8,32.6z"/>
						<path fill="#202020" d="M66.8,32.5c-0.1,0-0.1,0-0.2,0C66.2,32.4,66.5,32.4,66.8,32.5z"/>
						<path fill="#202020" d="M87.6,32.8c-0.2,0-0.4,0-0.7-0.1C87.3,32.7,87.6,32.7,87.6,32.8z"/>
						<path fill="#202020" d="M43.5,32.3L43.5,32.3c0,0-0.1,0-0.1,0L43.5,32.3z"/>
						<path fill="#202020" d="M86,32.7c0.4,0,0.7,0,1,0C86.6,32.7,86.3,32.7,86,32.7z"/>
						<path fill="#202020" d="M142.2,18.9l0-0.2c0,0,0,0,0,0L142.2,18.9z"/>
						<path fill="#202020" d="M142.2,18.7l0-0.2C142.3,18.5,142.3,18.6,142.2,18.7z"/>
						<path fill="#202020" d="M142.3,17.9l0,0.5C142.3,18.3,142.3,18,142.3,17.9z"/>
						<path fill="#202020" d="M142.3,24.7L142.3,24.7C142.3,24.8,142.3,24.7,142.3,24.7z"/>
						<path fill="#202020" d="M142.3,26.5c0-0.4-0.1-1.1-0.1-1.7l0-0.1C142.2,25.1,142.4,26.1,142.3,26.5z"/>
						<path fill="#202020" d="M140.9,33.2c0,0,0.4-0.1,0.8-0.3c0.4-0.2,0.6-0.5,0.6-0.5c-0.2,0.2-0.4,0.6,0.2,0
							c-0.3,0.4-0.6,0.6-0.6,0.6c-0.1,0,0,0,0,0c0,0,0.1-0.1,0-0.1C141.7,33,141.5,33.1,140.9,33.2z"/>
						<path fill="#202020" d="M136.3,33.3c0.8,0,0,0.1,0,0.1C135.8,33.4,135.7,33.4,136.3,33.3z"/>
						<path fill="#202020" d="M103,33.3l0.1,0.1C102.5,33.4,103.1,33.4,103,33.3z"/>
						<polygon fill="#202020" points="96.7,32.7 97.3,32.6 97.5,32.7 						"/>
						<polygon fill="#202020" points="92.9,33.6 93.2,33.6 92.1,33.5 						"/>
						<path fill="#202020" d="M37,33.5l0.2-0.2C37.6,33.4,37.7,33.6,37,33.5z"/>
						<path fill="#202020" d="M12.9,33.4c-0.3,0.1-0.9,0.1-1.4,0.1C12.1,33.4,12.6,33.3,12.9,33.4z"/>
						<polygon fill="#202020" points="-59.5,33.6 -59,33.7 -59.9,33.6 						"/>
					</g>
				</g>
			</g>
		</g>
	</g>
	<g>
		<path fill="none" stroke="#000300" stroke-miterlimit="10" d="M-89.5,2.3c-1,0.8-2.1,0.9-2.6,0.3l-15.8-19.3
			c-1.2-1.5-1.9-5.9-1.9-5.9s4.1,1.6,5.3,3.1l15.8,19.3C-88.1,0.4-88.5,1.5-89.5,2.3z"/>
		<line fill="none" stroke="#000300" stroke-miterlimit="10" x1="-104.4" y1="-19.4" x2="-107.8" y2="-16.6"/>
		<line fill="none" stroke="#000300" stroke-miterlimit="10" x1="-94.8" y1="-0.8" x2="-91.4" y2="-3.6"/>
		<path fill="none" stroke="#000300" stroke-miterlimit="10" d="M-107.3-21.5l-1.8,1.5c-0.3-1.3-0.5-2.5-0.5-2.5
			S-108.6-22.1-107.3-21.5z"/>
		<path fill="none" stroke="#000300" stroke-miterlimit="10" d="M-88.6-0.2c0.5,0.6,0.1,1.7-0.9,2.5c-1,0.8-2.1,0.9-2.6,0.3
			l-1.1-1.4l3.5-2.8L-88.6-0.2z"/>
	</g>
	<path fill="none" stroke="#000300" stroke-miterlimit="10" d="M-47.6-15.3c4.8,5.4,5,13.1,0.3,17.2c-4.6,4.2-12.3,3.2-17.1-2.2
		c-4.8-5.4-5-13.1-0.3-17.2C-60-21.6-52.4-20.6-47.6-15.3z"/>
	<path fill="none" stroke="#000300" stroke-miterlimit="10" d="M-54.5-9c0.8,0.9,0.8,2.2,0.1,2.9c-0.8,0.7-2.1,0.5-2.9-0.4
		c-0.8-0.9-0.8-2.2-0.1-2.9C-56.7-10.1-55.4-9.9-54.5-9z"/>
	<path fill="none" stroke="#000300" stroke-miterlimit="10" d="M-12.5-16c0.8,0.9,0.8,2.2,0.1,2.9c-0.8,0.7-2.1,0.5-2.9-0.4
		c-0.8-0.9-0.8-2.2-0.1-2.9C-14.7-17.1-13.4-16.9-12.5-16z"/>
	<path fill="none" stroke="#000300" stroke-miterlimit="10" d="M1.5-21c0.8,0.9,0.8,2.2,0.1,2.9c-0.8,0.7-2.1,0.5-2.9-0.4
		c-0.8-0.9-0.8-2.2-0.1-2.9C-0.7-22.1,0.6-21.9,1.5-21z"/>
	<path fill="none" stroke="#000300" stroke-miterlimit="10" d="M9.5-1c0.8,0.9,0.8,2.2,0.1,2.9C8.7,2.6,7.4,2.4,6.6,1.5
		C5.8,0.6,5.8-0.7,6.6-1.4C7.3-2.1,8.6-1.9,9.5-1z"/>
	<path fill="none" stroke="#000300" stroke-miterlimit="10" d="M-4.5,3c0.8,0.9,0.8,2.2,0.1,2.9c-0.8,0.7-2.1,0.5-2.9-0.4
		c-0.8-0.9-0.8-2.2-0.1-2.9C-6.7,1.9-5.4,2.1-4.5,3z"/>
	<line fill="none" stroke="#000300" stroke-miterlimit="10" x1="-4.8" y1="3.5" x2="7.2" y2="0.5"/>
	<line fill="none" stroke="#000300" stroke-miterlimit="10" x1="-12.8" y1="-16.5" x2="-0.8" y2="-20.5"/>
	<line fill="none" stroke="#000300" stroke-miterlimit="10" x1="8.2" y1="-1.5" x2="1.2" y2="-18.5"/>
	<line fill="none" stroke="#000300" stroke-miterlimit="10" x1="-6.8" y1="3.5" x2="-13.8" y2="-13.5"/>
	<path fill="none" stroke="#000300" stroke-miterlimit="10" d="M64.2-9.5c0,6.6-5.4,12-12,12c-6.6,0-12-5.4-12-12s5.4-12,12-12
		C58.8-21.5,64.2-16.1,64.2-9.5z"/>
	<path fill="none" stroke="#000300" stroke-miterlimit="10" d="M49.3-18.2c0.1-1.1,4.5,0,5.1,0.2c1.8,0.6,3.9,2,5,3.6
		c1,1.4,1.3,3.1,1.6,4.7c0.1,0.7,0.4,1.7,0.3,2.4c-0.2,0.8-0.8,1.5-1.1,2.3"/>
	<path fill="none" stroke="#000300" stroke-miterlimit="10" d="M54.6-13.9c1.1-0.3,2.6,1.9,3.1,2.7c0.5,0.8,1,2.9,0.4,3.9"/>
	<path fill="none" stroke="#000300" stroke-miterlimit="10" d="M99.8-9.2c-1.1-6.1,2-11.8,7-12.7c5-0.9,10,3.3,11.1,9.4
		c1.1,6.1-2,11.8-7,12.7C105.9,1.1,100.9-3.1,99.8-9.2z"/>
	<path fill="none" stroke="#000300" stroke-miterlimit="10" d="M110.9,0.1l-9.8,2.4c-4,0.7-8.3-3.1-9.4-7.9
		c-1.6-7.1,2.5-8.1,5.4-11.1l7-5"/>
	<path fill="none" stroke="#000300" stroke-miterlimit="10" d="M93.4-10.1c0.9-0.9,5.5-3.9,6.3-4.9"/>
</symbol>
<g id="Layer_1">
	<g>
		<path d="M30.9,294.6l-4.6,1.7l-0.9-1l2.4-0.8v-3.4h-1.6V290h1.6v-2.9h-2v-1.2h5v1.2h-1.8v2.9h1.5v1.2h-1.5v3l1.9-0.8V294.6z
			 M39.6,295.6c0,1.8-0.5,2.7-1.6,2.7h-1.6c-0.8,0-1.3-0.4-1.3-1.3v-2.7h-1c-0.1,2.1-1.7,3.7-4.8,4.7l-0.7-1.1
			c2.8-0.8,4.3-2,4.3-3.6h-1.7v-8.8h6.6v8.8h-1.6v2.2c0,0.2,0,0.4,0.1,0.5s0.2,0.1,0.4,0.1h1.1c0.2,0,0.3-0.1,0.4-0.3
			s0.1-0.8,0.2-1.6L39.6,295.6z M36.7,288v-1.3h-4.2v1.3H36.7z M36.7,290.5v-1.4h-4.2v1.4H36.7z M36.7,293.1v-1.5h-4.2v1.5H36.7z"/>
		<path d="M54.8,288.2h-8c-0.5,1.1-0.9,1.8-1.2,2.1v8.7h-1.2v-7c-0.4,0.6-1.2,1.3-2.2,2.3l-0.9-0.9c1.8-1.4,3.1-3.1,4.1-5.1h-3.3
			V287h3.8c0.4-0.9,0.6-1.7,0.8-2.4l1.3,0.4l-0.7,2h7.6V288.2z M55.2,298.1H46v-1.2h3.6V293h-3.1v-1.2h3.1v-2.7h1.2v2.7h3.5v1.2
			h-3.5v3.9h4.3V298.1z"/>
		<path d="M65,288c-0.4,3.1-0.9,5.4-1.6,7s-1.4,2.4-2.2,2.4c-0.7,0-1.4-0.5-2-1.5c-0.6-1-0.9-2.1-0.9-3.2c0-1.3,0.3-2.3,0.8-3.2
			c0.6-0.9,1.3-1.6,2.4-2.1c1-0.5,2.2-0.8,3.4-0.8c1.6,0,2.9,0.5,4,1.5c1.1,1,1.6,2.3,1.6,4c0,1.4-0.4,2.6-1.2,3.7
			c-0.8,1.1-1.9,1.9-3.4,2.6l-0.9-1.3c1.3-0.4,2.3-1.1,3-2c0.7-0.9,1.1-1.9,1.1-3c0-1.1-0.4-2-1.2-2.7C67.2,288.5,66.2,288.1,65,288
			z M63.6,288.2c-1.1,0.2-2,0.7-2.7,1.5c-0.7,0.8-1.1,1.8-1.1,2.9c0,0.7,0.2,1.4,0.5,2.2c0.3,0.7,0.7,1.1,0.9,1.1
			c0.3,0,0.7-0.8,1.2-2.4C63,291.8,63.4,290.1,63.6,288.2z"/>
		<path d="M87.1,296.5l-0.2,1.5H79c-0.4,0-0.7-0.1-1-0.4c-0.3-0.3-0.4-0.7-0.4-1.1V291l-3.6,0.3l-0.1-1.5l3.8-0.4v-4.1h1.4v4
			l6.4-0.6l1.1,0.7c-0.9,1.6-2,3.2-3.3,5l-1.4-0.7c1.1-1.3,1.9-2.5,2.5-3.4l-5.3,0.6v5.3c0,0.3,0.2,0.5,0.5,0.5
			C83.1,296.7,85.5,296.6,87.1,296.5z"/>
		<path d="M102.2,288c-1,5.4-3.9,9-8.9,10.8l-1-1.3c2.4-0.9,4.2-2,5.6-3.4c1.3-1.4,2.2-3.2,2.7-5.4h-5.9c-1,1.5-2.1,2.7-3.2,3.6
			l-1.1-1.2c1-0.7,1.9-1.6,2.8-2.7s1.5-2.3,1.8-3.4l1.4,0.6c-0.2,0.5-0.5,1.1-0.8,1.7h5.8L102.2,288z"/>
		<path d="M111.1,290.9l-0.6,1.5c-1.2-0.9-2.8-1.4-4.8-1.6l0.5-1.5C108.3,289.7,109.9,290.3,111.1,290.9z M118.9,290
			c-1.5,2.3-3.1,4.2-5,5.5s-4.1,2.4-6.7,3.1l-0.7-1.5c2.7-0.6,5-1.6,6.8-2.9c1.8-1.3,3.3-3.1,4.4-5.2L118.9,290z M112.7,286.9
			l-0.5,1.5c-1.4-0.8-3-1.3-4.9-1.5l0.5-1.5C109.9,285.8,111.5,286.3,112.7,286.9z"/>
		<path d="M132.7,296.7h-1.3v-0.5h-7.6v-1.3h7.6v-2.4h-7.1v-1.3h7.1v-2.1H124v-1.3h8.7V296.7z"/>
		<path d="M143.6,288.3l-0.9,1.3c-1.3-1.1-2.8-1.8-4.6-2.3l0.9-1.3C140.9,286.6,142.4,287.4,143.6,288.3z M150.8,289.9
			c-1.8,2.7-3.7,4.7-5.5,5.9c-1.8,1.2-3.9,2.1-6.1,2.8l-0.9-1.4c2.9-0.6,5.1-1.6,6.9-2.9c1.7-1.3,3.2-3.1,4.5-5.3L150.8,289.9z"/>
		<path d="M158.3,294.1c-0.6,1.3-1,2.6-1.4,4h-1.1c-0.9-1.6-1.3-3.6-1.3-6c0-2,0.3-4.2,0.9-6.6l1.6,0.5c-0.7,2.1-1,4.2-1,6.2
			c0,1.3,0.1,2.4,0.3,3.2h0c0.3-0.7,0.5-1.3,0.7-1.6L158.3,294.1z M166.5,295.9l-0.4,1.6c-1.5,0.1-2.7,0.2-3.6,0.2
			c-1.6,0-2.6-0.1-3.2-0.4c-0.6-0.3-0.8-0.8-0.8-1.7c0-0.4,0.1-0.9,0.2-1.4l1.5,0.3c-0.2,0.5-0.3,0.9-0.3,1.1c0,0.3,0.1,0.4,0.4,0.5
			s0.8,0.2,1.7,0.2C162.7,296.3,164.2,296.2,166.5,295.9z M165.5,286.9l-0.2,1.5c-0.7-0.1-1.6-0.2-2.8-0.2c-1,0-2.1,0.1-3.4,0.3
			l-0.2-1.5c1.6-0.2,2.8-0.2,3.6-0.2C163.8,286.8,164.8,286.9,165.5,286.9z"/>
		<path d="M175.7,290.3c0.4-0.1,1-0.2,1.7-0.2c1.3,0,2.5,0.4,3.4,1.2c1,0.8,1.5,1.7,1.5,2.9c0,0.9-0.4,1.9-1.2,2.7
			c-0.8,0.9-1.8,1.6-3,2.1l-0.8-1.4c2.4-1,3.6-2.1,3.6-3.3c0-0.5-0.2-1-0.5-1.5c-0.3-0.4-0.8-0.8-1.3-0.9c-0.7,2-1.6,3.4-2.7,4.3
			c0.1,0.3,0.2,0.6,0.4,0.9l-1.4,0.6l-0.2-0.6c-0.7,0.4-1.5,0.7-2.3,0.7c-0.7,0-1.3-0.2-1.8-0.7c-0.5-0.5-0.7-1.1-0.7-1.9
			c0-1,0.4-1.9,1.1-2.7c0.7-0.8,1.7-1.4,2.9-1.8c0-0.4,0-0.9,0-1.6l-3.1,0.4l-0.2-1.4l3.3-0.4l0.1-2l1.5,0.1
			c-0.1,0.4-0.1,0.9-0.2,1.7l4.7-0.6l0.2,1.5l-5,0.6L175.7,290.3z M174.8,295.6c-0.3-1.4-0.4-2.6-0.4-3.6c-0.8,0.3-1.4,0.7-1.9,1.2
			s-0.8,1.1-0.8,1.7c0,0.4,0.1,0.7,0.4,0.9s0.6,0.4,1,0.4C173.5,296.3,174.1,296.1,174.8,295.6z M177.6,291.6c-0.1,0-0.2,0-0.4,0
			c-0.5,0-1,0-1.5,0.1c0.1,1.2,0.2,2.1,0.3,2.8C176.6,294,177.1,293,177.6,291.6z"/>
		<path d="M191.8,290.1c0.7-0.2,1.5-0.4,2.3-0.4c1,0,1.9,0.3,2.6,1s1.1,1.5,1.1,2.5c0,1.1-0.3,2-1,2.8c-0.7,0.8-1.4,1.3-2.3,1.5
			c-0.8,0.2-1.6,0.4-2.3,0.4c-1,0-1.8-0.2-2.4-0.7c-0.6-0.4-0.9-1.1-0.9-1.8c0-0.6,0.2-1.1,0.6-1.5c0.4-0.4,0.9-0.6,1.5-0.6
			c0.7,0,1.4,0.2,2.1,0.7c0.7,0.5,1.2,1.1,1.6,1.8c0.5-0.2,0.8-0.6,1.1-1c0.3-0.4,0.4-0.9,0.4-1.4c0-0.7-0.3-1.3-0.8-1.6
			c-0.6-0.4-1.4-0.6-2.4-0.6c-1.1,0-2.2,0.3-3.2,0.8c-1.4,1.2-2.4,2.1-3.1,2.6l-1.1-1.2c2.3-1.6,4.5-3.6,6.6-5.9
			c-1.3,0.2-2.5,0.3-3.5,0.3c-0.4,0-0.9,0-1.3,0l-0.1-1.5c0.5,0.1,1,0.1,1.5,0.1c1.3,0,3.2-0.2,5.5-0.5l0.2,1.3L191.8,290.1
			L191.8,290.1z M193.5,296.3c-0.2-0.4-0.5-0.8-1-1.1s-0.9-0.5-1.3-0.5c-0.2,0-0.4,0.1-0.6,0.2c-0.2,0.1-0.2,0.3-0.2,0.5
			c0,0.3,0.2,0.6,0.5,0.8c0.4,0.2,0.8,0.3,1.3,0.3C192.8,296.4,193.1,296.4,193.5,296.3z"/>
		<path d="M215.2,286.9c-1.9,2.5-3.5,4.3-4.9,5.4l-1.1-1.1c1.3-0.9,2.5-2.2,3.7-3.8h-11V286h12.2L215.2,286.9z M209,287.9
			c0,1.7,0,3-0.1,3.8s-0.3,1.7-0.6,2.6c-0.3,0.9-0.8,1.8-1.4,2.6c-0.6,0.8-1.4,1.5-2.3,2.1l-1.1-1.2c2.7-1.7,4-4.6,4-8.6
			c0-0.6,0-1,0-1.2H209z"/>
		<path d="M230.2,288c-1,5.4-3.9,9-8.9,10.8l-1-1.3c2.4-0.9,4.2-2,5.6-3.4c1.3-1.4,2.2-3.2,2.7-5.4h-5.9c-1,1.5-2.1,2.7-3.2,3.6
			l-1.1-1.2c1-0.7,1.9-1.6,2.8-2.7s1.5-2.3,1.8-3.4l1.4,0.6c-0.2,0.5-0.5,1.1-0.8,1.7h5.8L230.2,288z"/>
		<path d="M239.1,290.9l-0.6,1.5c-1.2-0.9-2.8-1.4-4.8-1.6l0.5-1.5C236.3,289.7,237.9,290.3,239.1,290.9z M246.9,290
			c-1.5,2.3-3.1,4.2-5,5.5s-4.1,2.4-6.7,3.1l-0.7-1.5c2.7-0.6,5-1.6,6.8-2.9c1.8-1.3,3.3-3.1,4.4-5.2L246.9,290z M240.7,286.9
			l-0.5,1.5c-1.4-0.8-3-1.3-4.9-1.5l0.5-1.5C237.9,285.8,239.5,286.3,240.7,286.9z"/>
		<path d="M260.7,296.7h-1.3v-0.5h-7.6v-1.3h7.6v-2.4h-7.1v-1.3h7.1v-2.1H252v-1.3h8.7V296.7z"/>
		<path d="M271.6,288.3l-0.9,1.3c-1.3-1.1-2.8-1.8-4.6-2.3l0.9-1.3C268.9,286.6,270.4,287.4,271.6,288.3z M278.8,289.9
			c-1.8,2.7-3.7,4.7-5.5,5.9c-1.8,1.2-3.9,2.1-6.1,2.8l-0.9-1.4c2.9-0.6,5.1-1.6,6.9-2.9c1.7-1.3,3.2-3.1,4.5-5.3L278.8,289.9z"/>
	</g>
	<g>
		<g>
			<path fill="none" stroke="#000000" stroke-miterlimit="10" d="M288.5,292c0,0,23.2,5.9,33.4-32.9"/>
			<g>
				<polygon points="324.8,263.4 323.9,263.8 321.7,259.4 317.5,261.9 317,261.1 322.1,258 				"/>
			</g>
		</g>
	</g>
	<g>
		<path d="M362.1,167.5l-0.2,1.5H354c-0.4,0-0.7-0.1-1-0.4c-0.3-0.3-0.4-0.7-0.4-1.1V162l-3.6,0.3l-0.1-1.5l3.8-0.4v-4.1h1.4v4
			l6.4-0.6l1.1,0.7c-0.9,1.6-2,3.2-3.3,5l-1.4-0.7c1.1-1.3,1.9-2.5,2.5-3.4l-5.3,0.6v5.3c0,0.3,0.2,0.5,0.5,0.5
			C358.1,167.7,360.5,167.6,362.1,167.5z"/>
		<path d="M377.2,159c-1,5.4-3.9,9-8.9,10.8l-1-1.3c2.4-0.9,4.2-2,5.6-3.4c1.3-1.4,2.2-3.2,2.7-5.4h-5.9c-1,1.5-2.1,2.7-3.2,3.6
			l-1.1-1.2c1-0.7,1.9-1.6,2.8-2.7s1.5-2.3,1.8-3.4l1.4,0.6c-0.2,0.5-0.5,1.1-0.8,1.7h5.8L377.2,159z"/>
		<path d="M386.1,161.9l-0.6,1.5c-1.2-0.9-2.8-1.4-4.8-1.6l0.5-1.5C383.3,160.7,384.9,161.3,386.1,161.9z M393.9,161
			c-1.5,2.3-3.1,4.2-5,5.5s-4.1,2.4-6.7,3.1l-0.7-1.5c2.7-0.6,5-1.6,6.8-2.9c1.8-1.3,3.3-3.1,4.4-5.2L393.9,161z M387.7,157.9
			l-0.5,1.5c-1.4-0.8-3-1.3-4.9-1.5l0.5-1.5C384.9,156.8,386.5,157.3,387.7,157.9z"/>
		<path d="M407.7,167.7h-1.3v-0.5h-7.6v-1.3h7.6v-2.4h-7.1v-1.3h7.1v-2.1H399v-1.3h8.7V167.7z"/>
		<path d="M418.6,159.3l-0.9,1.3c-1.3-1.1-2.8-1.8-4.6-2.3l0.9-1.3C415.9,157.6,417.4,158.4,418.6,159.3z M425.8,160.9
			c-1.8,2.7-3.7,4.7-5.5,5.9c-1.8,1.2-3.9,2.1-6.1,2.8l-0.9-1.4c2.9-0.6,5.1-1.6,6.9-2.9c1.7-1.3,3.2-3.1,4.5-5.3L425.8,160.9z"/>
		<path d="M436,159c-0.4,3.1-0.9,5.4-1.6,7s-1.4,2.4-2.2,2.4c-0.7,0-1.4-0.5-2-1.5c-0.6-1-0.9-2.1-0.9-3.2c0-1.3,0.3-2.3,0.8-3.2
			c0.6-0.9,1.3-1.6,2.4-2.1c1-0.5,2.2-0.8,3.4-0.8c1.6,0,2.9,0.5,4,1.5c1.1,1,1.6,2.3,1.6,4c0,1.4-0.4,2.6-1.2,3.7
			c-0.8,1.1-1.9,1.9-3.4,2.6l-0.9-1.3c1.3-0.4,2.3-1.1,3-2c0.7-0.9,1.1-1.9,1.1-3c0-1.1-0.4-2-1.2-2.7
			C438.2,159.5,437.2,159.1,436,159z M434.6,159.2c-1.1,0.2-2,0.7-2.7,1.5c-0.7,0.8-1.1,1.8-1.1,2.9c0,0.7,0.2,1.4,0.5,2.2
			c0.3,0.7,0.7,1.1,0.9,1.1c0.3,0,0.7-0.8,1.2-2.4C434,162.8,434.4,161.1,434.6,159.2z"/>
		<path d="M451.1,165c-0.1,0.7-0.3,1.2-0.6,1.6c-0.3,0.4-0.7,0.6-1,0.6h-1.5c-0.9,0-1.3-0.5-1.3-1.5v-3.6l-1.9,0.5l-0.5-1.2l2.4-0.6
			v-4.6h1.2v4.3l3.2-0.9l0.1,1.2l-3.3,0.9v3.8c0,0.3,0.2,0.4,0.5,0.4h0.9c0.5,0,0.7-0.6,0.8-1.7L451.1,165z M457.8,156.8l-0.2,5.3
			c-0.1,3.5-0.4,5.6-0.7,6.3s-0.8,1.1-1.4,1.1c-0.6,0-1.4-0.1-2.3-0.4l-0.2-1.3c1.1,0.3,1.8,0.5,2.2,0.5c0.1,0,0.3-0.1,0.4-0.2
			c0.1-0.1,0.3-0.6,0.4-1.2s0.2-1.7,0.3-3.1c0.1-1.4,0.2-3.3,0.2-5.6h-2.6c0,3.8-0.4,6.6-1.2,8.3c-0.8,1.7-2,3-3.7,3.9l-0.9-1
			c1.4-0.9,2.5-1.8,3.1-2.9c0.6-1.1,1-2.1,1.2-3.3s0.2-2.8,0.2-5h-2.4v-1.2H457.8z"/>
		<path d="M466.2,161.8c-0.9,1.6-1.4,3.3-1.7,5.1h-1.1c-0.3-1-0.5-2.1-0.6-3.4c-0.2-1.3-0.3-2.3-0.3-3.1c0-1.4,0.1-2.5,0.3-3.4
			l1.5,0.3c-0.2,0.8-0.3,1.9-0.3,3.1c0,0.8,0.1,1.7,0.2,2.7h0c0.3-0.8,0.6-1.5,0.9-2L466.2,161.8z M471.7,156.7
			c0.1,1.8,0.2,3.2,0.2,4.4c0,2.8-0.3,4.8-1,6.1c-0.6,1.3-1.6,2.4-2.9,3.1l-1-1.2c1-0.5,1.7-1.2,2.2-2.1c0.5-0.8,0.8-1.7,1-2.7
			c0.2-1,0.2-2.1,0.2-3.4c0-1.7-0.1-3.1-0.3-4.2L471.7,156.7z"/>
		<path d="M483.5,160.4H481l0,0.2c0.6,0.2,1.4,0.5,2.3,0.9l-0.6,1c-0.7-0.5-1.4-0.8-2.2-1c-0.8,0.9-2,1.5-3.5,1.9
			c-0.1-0.1-0.2-0.3-0.3-0.5c-0.2-0.2-0.3-0.4-0.3-0.6c1.9-0.3,3-1,3.4-2h-2.5v-1.2h2.8v-0.9h-2.2v-1.2h2.2v-1.5h1.2l0,1.5l1.8,0
			v1.2h-1.9v0.9h2.4V160.4z M488.2,170h-1.2v-1h-6.7v1h-1.2v-7.2h9.1V170z M486.9,165.4V164h-6.6v1.3H486.9z M486.9,167.9v-1.4h-6.7
			v1.4H486.9z M490.7,162.2l-0.6,1.1c-1.5-0.5-2.6-1.2-3.2-2.1c-0.5,0.8-1.4,1.3-2.8,1.6l-0.8-0.9c1.3-0.2,2.1-0.7,2.5-1.4h-2v-1.2
			h2.4c0.1-0.4,0.1-0.7,0.1-1h-2v-1.1h2v-1.5h1.2v1.5h2.1l0,1.2h-2.1c0,0.3,0,0.6,0,0.9h2.7v1.2h-2.6
			C488.1,161,489.1,161.6,490.7,162.2z"/>
		<path d="M505.6,169.1c-1.4,0.2-2.4,0.2-3.1,0.2c-1.1,0-1.9-0.2-2.4-0.5c-0.5-0.3-0.7-0.8-0.7-1.4l0.1-1.9c0-0.3-0.1-0.5-0.2-0.6
			c-0.1-0.1-0.3-0.2-0.6-0.2c-0.4,0-0.8,0.2-1.1,0.5c-1.5,1.5-2.7,2.8-3.6,3.8l-1.2-0.9c0.8-1,2-2.2,3.4-3.6
			c1.4-1.4,2.7-2.4,3.7-3.2c-3,0.2-4.9,0.3-5.7,0.3l-0.3-1.6c0.9,0.1,1.7,0.1,2.4,0.1c2.2,0,4.4-0.2,6.6-0.5v1.1l-3.5,2.8
			c0.4,0,0.8,0.2,1.1,0.5c0.3,0.3,0.4,0.8,0.4,1.3l-0.1,1.9c0,0.2,0.1,0.4,0.3,0.5s0.7,0.2,1.3,0.2c0.6,0,1.5-0.1,2.9-0.3
			L505.6,169.1z M502.3,157.1l-0.3,1.5c-2.2,0-4.2-0.2-6-0.6l0.3-1.6c1.2,0.5,2.8,0.8,5,0.8C501.5,157.2,501.9,157.2,502.3,157.1z"
			/>
	</g>
	<g>
		<g>
			<path fill="none" stroke="#000000" stroke-miterlimit="10" d="M343.3,162.5c0,0-16.9,1.3-28.6,23.2"/>
			<g>
				<polygon points="312.7,180.8 313.7,180.6 314.9,185.4 319.6,183.9 319.9,184.8 314.2,186.7 				"/>
			</g>
		</g>
	</g>
	<g>
		<path d="M41.1,167.5l-0.2,1.5H33c-0.4,0-0.7-0.1-1-0.4c-0.3-0.3-0.4-0.7-0.4-1.1V162l-3.6,0.3l-0.1-1.5l3.8-0.4v-4.1h1.4v4
			l6.4-0.6l1.1,0.7c-0.9,1.6-2,3.2-3.3,5l-1.4-0.7c1.1-1.3,1.9-2.5,2.5-3.4l-5.3,0.6v5.3c0,0.3,0.2,0.5,0.5,0.5
			C37.1,167.7,39.5,167.6,41.1,167.5z"/>
		<path d="M56.2,159c-1,5.4-3.9,9-8.9,10.8l-1-1.3c2.4-0.9,4.2-2,5.6-3.4c1.3-1.4,2.2-3.2,2.7-5.4h-5.9c-1,1.5-2.1,2.7-3.2,3.6
			l-1.1-1.2c1-0.7,1.9-1.6,2.8-2.7s1.5-2.3,1.8-3.4l1.4,0.6c-0.2,0.5-0.5,1.1-0.8,1.7h5.8L56.2,159z"/>
		<path d="M65.1,161.9l-0.6,1.5c-1.2-0.9-2.8-1.4-4.8-1.6l0.5-1.5C62.3,160.7,63.9,161.3,65.1,161.9z M72.9,161
			c-1.5,2.3-3.1,4.2-5,5.5s-4.1,2.4-6.7,3.1l-0.7-1.5c2.7-0.6,5-1.6,6.8-2.9c1.8-1.3,3.3-3.1,4.4-5.2L72.9,161z M66.7,157.9
			l-0.5,1.5c-1.4-0.8-3-1.3-4.9-1.5l0.5-1.5C63.9,156.8,65.5,157.3,66.7,157.9z"/>
		<path d="M86.7,167.7h-1.3v-0.5h-7.6v-1.3h7.6v-2.4h-7.1v-1.3h7.1v-2.1H78v-1.3h8.7V167.7z"/>
		<path d="M97.6,159.3l-0.9,1.3c-1.3-1.1-2.8-1.8-4.6-2.3l0.9-1.3C94.9,157.6,96.4,158.4,97.6,159.3z M104.8,160.9
			c-1.8,2.7-3.7,4.7-5.5,5.9c-1.8,1.2-3.9,2.1-6.1,2.8l-0.9-1.4c2.9-0.6,5.1-1.6,6.9-2.9c1.7-1.3,3.2-3.1,4.5-5.3L104.8,160.9z"/>
		<path d="M119.7,158.6c0,0.1-0.2,0.4-0.6,0.9s-0.9,1.1-1.6,1.6c-0.6,0.5-1.4,1-2.2,1.4s-1.7,0.8-2.7,1.1h7v6.4h-1.2v-0.9h-6v0.9
			h-1.2v-6c-1.4,0.4-2.3,0.6-2.8,0.7l-1-1.1c2.6-0.5,4.7-1.1,6.3-1.7c-0.3-0.5-1-0.8-1.8-1.2l1.1-0.9c0.8,0.4,1.4,0.9,1.8,1.5
			c1.3-0.6,2.5-1.5,3.4-2.7h-4.8c-1.2,1-2.6,1.9-4.2,2.5l-1.3-1c3-1,5.2-2.6,6.6-4.7l1.1,0.6c-0.2,0.4-0.6,0.8-1,1.3h5.2V158.6z
			 M118.4,168v-3.2h-6v3.2H118.4z"/>
	</g>
	<g>
		<g>
			<path fill="none" stroke="#000000" stroke-miterlimit="10" d="M135.2,162.5c0,0,16.9,1.3,28.6,23.2"/>
			<g>
				<polygon points="158.6,184.8 158.9,183.9 163.6,185.4 164.7,180.6 165.7,180.8 164.3,186.7 				"/>
			</g>
		</g>
	</g>
	<g>
		<path d="M42.9,28.4c-2.3,3.1-4.4,5.4-6.1,6.8l-1.4-1.4c1.6-1.2,3.2-2.7,4.6-4.7H26.3v-1.8h15.3L42.9,28.4z M35.2,29.7
			c0,2.2-0.1,3.8-0.2,4.8s-0.4,2.1-0.8,3.2c-0.4,1.2-1,2.3-1.8,3.3c-0.8,1-1.7,1.9-2.8,2.6L28.3,42c3.4-2.1,5.1-5.7,5.1-10.8
			c0-0.7,0-1.2,0-1.5H35.2z"/>
		<path d="M61.6,29.8c-1.2,6.7-4.9,11.2-11.2,13.5l-1.2-1.6c3-1.1,5.3-2.5,7-4.3c1.7-1.8,2.8-4,3.4-6.8h-7.3c-1.2,1.8-2.6,3.3-4,4.5
			l-1.4-1.4c1.2-0.8,2.4-2,3.5-3.4s1.8-2.8,2.3-4.2l1.8,0.7c-0.3,0.7-0.6,1.4-1,2.1h7.2L61.6,29.8z"/>
		<path d="M72.8,33.5l-0.7,1.9c-1.5-1.1-3.5-1.7-6-2l0.6-1.8C69.2,32,71.2,32.6,72.8,33.5z M82.5,32.3c-1.8,2.9-3.9,5.2-6.2,6.9
			s-5.1,3-8.3,3.8l-0.9-1.8c3.4-0.8,6.2-2,8.5-3.7c2.3-1.7,4.1-3.8,5.4-6.5L82.5,32.3z M74.7,28.4l-0.6,1.8c-1.7-1-3.8-1.6-6.1-1.9
			l0.6-1.9C71.2,27.1,73.2,27.7,74.7,28.4z"/>
		<path d="M99.8,40.7h-1.7v-0.6h-9.5v-1.7h9.5v-3h-8.9v-1.7h8.9v-2.6h-9.1v-1.7h10.8V40.7z"/>
		<path d="M113.4,30.2l-1.1,1.6c-1.6-1.4-3.5-2.3-5.7-2.8l1.1-1.6C110,28.1,111.9,29,113.4,30.2z M122.4,32.2
			c-2.3,3.4-4.6,5.8-6.8,7.3c-2.3,1.5-4.8,2.6-7.7,3.4l-1.1-1.8c3.6-0.8,6.4-2,8.6-3.7c2.2-1.7,4-3.9,5.6-6.6L122.4,32.2z"/>
		<path d="M138,27.1c-0.4,3-1.1,6-2,8.9s-2.1,5.3-3.4,7l-1.6-1.1c1.4-2,2.6-4.3,3.5-7s1.5-5.5,1.7-8.3L138,27.1z M147.7,41.9
			l-1.9,0.5c-0.2-2.1-0.8-4.5-1.7-7.3c-0.9-2.8-2-5.3-3.3-7.7l1.7-0.8C145.2,32.3,147,37.4,147.7,41.9z M146.7,29.8l-1.4,0.6
			c-0.2-1.1-0.6-2-1-2.7l1.5-0.6C146.2,27.9,146.5,28.8,146.7,29.8z M148.9,29l-1.4,0.6c-0.2-1.1-0.6-2-1-2.7l1.5-0.6
			C148.4,27.1,148.7,28,148.9,29z"/>
		<path d="M168.4,35.5h-16.7v-1.8h16.7V35.5z"/>
		<path d="M181,34h-2v-2h2V34z M181,42.3h-2v-2h2V42.3z"/>
		<path d="M208.4,28.4c-2.3,3.1-4.4,5.4-6.1,6.8l-1.4-1.4c1.6-1.2,3.2-2.7,4.6-4.7h-13.7v-1.8h15.3L208.4,28.4z M200.7,29.7
			c0,2.2-0.1,3.8-0.2,4.8s-0.4,2.1-0.8,3.2c-0.4,1.2-1,2.3-1.8,3.3c-0.8,1-1.7,1.9-2.8,2.6l-1.3-1.5c3.4-2.1,5.1-5.7,5.1-10.8
			c0-0.7,0-1.2,0-1.5H200.7z"/>
		<path d="M224.9,28.9c-0.5,3.2-1.6,6-3.4,8.5c-1.8,2.5-4.2,4.5-7.1,6.1l-1.4-1.6c2.6-1.2,4.8-2.9,6.5-5c1.8-2.1,2.9-4.3,3.3-6.7
			h-11.1v-1.7l12.6,0L224.9,28.9z M227.1,25.2c0.6,0,1.1,0.2,1.5,0.6s0.6,0.9,0.6,1.5s-0.2,1.1-0.6,1.5s-0.9,0.6-1.5,0.6
			c-0.6,0-1.1-0.2-1.5-0.6s-0.6-0.9-0.6-1.5c0-0.6,0.2-1.1,0.6-1.5C226.1,25.4,226.6,25.2,227.1,25.2z M227.1,28.1
			c0.3,0,0.5-0.1,0.6-0.2s0.2-0.3,0.2-0.6s-0.1-0.4-0.2-0.6c-0.1-0.1-0.3-0.2-0.6-0.2c-0.2,0-0.4,0.1-0.6,0.2
			c-0.1,0.1-0.2,0.3-0.2,0.6s0.1,0.4,0.2,0.6S226.9,28.1,227.1,28.1z"/>
		<path d="M236.1,37h-1.8v-9.6h1.8V37z M245.8,34.8c0,1.9-0.7,3.6-2.1,5.1c-1.4,1.5-3.3,2.7-5.7,3.5l-1-1.7c2.4-0.7,4.2-1.7,5.3-2.9
			c1.2-1.2,1.7-2.8,1.7-4.8v-7h1.8V34.8z"/>
		<path d="M268.2,31.4h-5.6c0,0.3,0,0.5,0,0.7c0,2.6-0.6,4.9-1.7,6.9c-1.1,2-2.7,3.5-4.8,4.3l-1.3-1.5c2-0.8,3.5-2,4.4-3.7
			c1-1.7,1.5-3.6,1.5-5.9c0-0.1,0-0.4,0-0.7h-4.9c-0.9,1.6-1.9,2.9-2.9,3.8l-1.6-1.2c2.4-1.9,3.9-4.6,4.7-7.9l1.8,0.6
			c-0.2,0.8-0.6,1.8-1.1,3h11.4V31.4z"/>
		<path d="M288.4,35.5h-16.7v-1.8h16.7V35.5z"/>
		<path d="M298.4,33.5l-0.7,1.9c-1.5-1.1-3.5-1.7-6-2l0.6-1.8C294.8,32,296.8,32.6,298.4,33.5z M308.1,32.3
			c-1.8,2.9-3.9,5.2-6.2,6.9s-5.1,3-8.3,3.8l-0.9-1.8c3.4-0.8,6.2-2,8.5-3.7c2.3-1.7,4.1-3.8,5.4-6.5L308.1,32.3z M300.3,28.4
			l-0.6,1.8c-1.7-1-3.8-1.6-6.1-1.9l0.6-1.9C296.8,27.1,298.8,27.7,300.3,28.4z"/>
		<path d="M325.3,40.7h-1.7v-0.6h-9.5v-1.7h9.5v-3h-8.9v-1.7h8.9v-2.6h-9.1v-1.7h10.8V40.7z"/>
		<path d="M338.9,30.2l-1.1,1.6c-1.6-1.4-3.5-2.3-5.7-2.8l1.1-1.6C335.6,28.1,337.5,29,338.9,30.2z M347.9,32.2
			c-2.3,3.4-4.6,5.8-6.8,7.3c-2.3,1.5-4.8,2.6-7.7,3.4l-1.1-1.8c3.6-0.8,6.4-2,8.6-3.7c2.2-1.7,4-3.9,5.6-6.6L347.9,32.2z"/>
		<path d="M367.3,42.1c0,0.9-0.7,1.3-2.1,1.3c-0.3,0-0.7,0-1.2,0l-0.6-1.5c0.7,0.1,1.2,0.1,1.6,0.1c0.6,0,0.9-0.2,0.9-0.5V30.7h-5.1
			c0,0.8,0,1.7-0.1,2.5c1.7,1.3,3.1,3,4.4,5.1l-1.2,0.9c-0.9-1.6-2.1-3-3.6-4.4c-0.9,2-2.5,3.6-4.7,4.8l-0.9-1.3
			c1.6-0.8,2.7-1.8,3.5-2.9s1.2-2.7,1.2-4.8h-5.2v12.9h-1.5V29.2h6.8v-3.4h1.4v3.4h6.5V42.1z"/>
		<path d="M380.7,29.9c-0.5,3.8-1.1,6.8-1.9,8.8s-1.7,3-2.7,3c-0.9,0-1.8-0.6-2.5-1.9c-0.8-1.3-1.2-2.6-1.2-4c0-1.6,0.4-2.9,1.1-4
			c0.7-1.1,1.7-2,3-2.6c1.3-0.7,2.7-1,4.3-1c2,0,3.6,0.6,5,1.8c1.4,1.2,2,2.9,2,5c0,1.7-0.5,3.2-1.5,4.6c-1,1.3-2.4,2.4-4.2,3.3
			l-1.1-1.7c1.6-0.5,2.9-1.4,3.8-2.5c0.9-1.2,1.3-2.4,1.3-3.8c0-1.4-0.5-2.5-1.5-3.4C383.5,30.4,382.2,29.9,380.7,29.9z M378.9,30
			c-1.3,0.3-2.5,0.9-3.4,1.9c-0.9,1-1.4,2.2-1.4,3.6c0,0.9,0.2,1.8,0.7,2.7c0.4,0.9,0.8,1.4,1.2,1.4c0.4,0,0.9-1,1.5-3
			C378.2,34.6,378.6,32.4,378.9,30z"/>
		<path d="M407.7,31.2h-4.5v3.3c0.3,0.9,0.4,1.7,0.4,2.6c0,1.4-0.4,2.7-1.1,3.8c-0.8,1.1-1.9,2-3.3,2.6l-1.1-1.8
			c1-0.3,1.9-0.7,2.5-1.3c0.6-0.6,1-1.2,1.1-1.9c-0.6,0.5-1.3,0.7-2.1,0.7c-0.9,0-1.7-0.3-2.4-1s-1.1-1.5-1.1-2.6c0-1.1,0.3-2,1-2.7
			c0.7-0.7,1.5-1.1,2.5-1.1c0.7,0,1.2,0.2,1.7,0.5v-1.3h-9.1v-1.8h9.1v-2.5h1.8v2.5h4.5V31.2z M399.6,37.4c0.5,0,1-0.2,1.3-0.6
			c0.3-0.4,0.5-0.8,0.5-1.4c0-0.4-0.2-0.8-0.5-1.1s-0.7-0.5-1.2-0.5c-0.5,0-0.9,0.2-1.2,0.5c-0.3,0.3-0.5,0.8-0.5,1.3
			c0,0.6,0.1,1,0.4,1.3S399.1,37.4,399.6,37.4z"/>
		<path d="M428.2,39.5L427,41c-1.8-1.5-3.4-3-4.8-4.5c-1.4-1.5-2.7-3.2-4.1-5.1c-0.1-0.1-0.2-0.2-0.2-0.2s-0.3,0.3-0.9,0.8
			c-1.7,1.8-3,3.1-4,3.8l-1.4-1.5c2.1-1.5,4-3.3,5.6-5.2h1.5c1.4,2.1,2.8,4,4.2,5.5C424.4,36.2,426.1,37.8,428.2,39.5z M425.6,29.7
			l-1.4,0.6c-0.2-1.1-0.6-2-1-2.7l1.5-0.6C425.1,27.7,425.4,28.6,425.6,29.7z M427.9,28.9l-1.4,0.6c-0.2-1.1-0.6-2-1-2.7l1.5-0.6
			C427.3,26.9,427.6,27.8,427.9,28.9z"/>
		<path d="M447.1,29.7c-0.9,0.1-1.6,0.1-2.1,0.2c-0.5,0.1-1.2,0.4-2,0.9c-0.8,0.5-1.5,1.1-2.2,1.8c-0.6,0.7-1.1,1.4-1.5,2
			s-0.5,1.3-0.5,1.8c0,1.1,0.6,2,1.7,2.9s2.6,1.4,4.5,1.7l-0.9,1.8c-2.1-0.5-3.8-1.3-5.1-2.4c-1.3-1.1-1.9-2.4-1.9-3.9
			c0-1.1,0.3-2.1,1-3.2c0.7-1.1,1.6-2,2.7-2.8l0,0c-3.6,0.3-6.5,0.4-8.6,0.4l-0.5-2.1c1,0,1.9,0.1,2.8,0.1c3.2,0,7.3-0.3,12.3-0.9
			L447.1,29.7z"/>
		<path d="M460.7,29.9c-0.5,3.8-1.1,6.8-1.9,8.8s-1.7,3-2.7,3c-0.9,0-1.8-0.6-2.5-1.9c-0.8-1.3-1.2-2.6-1.2-4c0-1.6,0.4-2.9,1.1-4
			c0.7-1.1,1.7-2,3-2.6c1.3-0.7,2.7-1,4.3-1c2,0,3.6,0.6,5,1.8c1.4,1.2,2,2.9,2,5c0,1.7-0.5,3.2-1.5,4.6c-1,1.3-2.4,2.4-4.2,3.3
			l-1.1-1.7c1.6-0.5,2.9-1.4,3.8-2.5c0.9-1.2,1.3-2.4,1.3-3.8c0-1.4-0.5-2.5-1.5-3.4C463.5,30.4,462.2,29.9,460.7,29.9z M458.9,30
			c-1.3,0.3-2.5,0.9-3.4,1.9c-0.9,1-1.4,2.2-1.4,3.6c0,0.9,0.2,1.8,0.7,2.7c0.4,0.9,0.8,1.4,1.2,1.4c0.4,0,0.9-1,1.5-3
			C458.2,34.6,458.6,32.4,458.9,30z"/>
		<path d="M488.4,28.4c-2.3,3.1-4.4,5.4-6.1,6.8l-1.4-1.4c1.6-1.2,3.2-2.7,4.6-4.7h-13.7v-1.8h15.3L488.4,28.4z M480.7,29.7
			c0,2.2-0.1,3.8-0.2,4.8s-0.4,2.1-0.8,3.2c-0.4,1.2-1,2.3-1.8,3.3c-0.8,1-1.7,1.9-2.8,2.6l-1.3-1.5c3.4-2.1,5.1-5.7,5.1-10.8
			c0-0.7,0-1.2,0-1.5H480.7z"/>
		<path d="M507.2,29.8c-1.2,6.7-4.9,11.2-11.2,13.5l-1.2-1.6c3-1.1,5.3-2.5,7-4.3c1.7-1.8,2.8-4,3.4-6.8h-7.3
			c-1.2,1.8-2.6,3.3-4,4.5l-1.4-1.4c1.2-0.8,2.4-2,3.5-3.4s1.8-2.8,2.3-4.2l1.8,0.7c-0.3,0.7-0.6,1.4-1,2.1h7.2L507.2,29.8z"/>
		<path d="M518.4,33.5l-0.7,1.9c-1.5-1.1-3.5-1.7-6-2l0.6-1.8C514.8,32,516.8,32.6,518.4,33.5z M528.1,32.3
			c-1.8,2.9-3.9,5.2-6.2,6.9s-5.1,3-8.3,3.8l-0.9-1.8c3.4-0.8,6.2-2,8.5-3.7c2.3-1.7,4.1-3.8,5.4-6.5L528.1,32.3z M520.3,28.4
			l-0.6,1.8c-1.7-1-3.8-1.6-6.1-1.9l0.6-1.9C516.8,27.1,518.8,27.7,520.3,28.4z"/>
		<path d="M39.8,64.7h-1.7v-0.6h-9.5v-1.7h9.5v-3h-8.9v-1.7h8.9v-2.6h-9.1v-1.7h10.8V64.7z"/>
		<path d="M53.4,54.2l-1.1,1.6c-1.6-1.4-3.5-2.3-5.7-2.8l1.1-1.6C50,52.1,51.9,53,53.4,54.2z M62.4,56.2c-2.3,3.4-4.6,5.8-6.8,7.3
			c-2.3,1.5-4.8,2.6-7.7,3.4l-1.1-1.8c3.6-0.8,6.4-2,8.6-3.7c2.2-1.7,4-3.9,5.6-6.6L62.4,56.2z"/>
		<path d="M71.7,61.5c-0.7,1.6-1.3,3.3-1.7,5h-1.3c-1.1-2-1.6-4.5-1.6-7.5c0-2.5,0.4-5.2,1.1-8.3l1.9,0.6c-0.9,2.7-1.3,5.2-1.3,7.7
			c0,1.7,0.1,3,0.4,4h0c0.3-0.9,0.6-1.6,0.9-2.1L71.7,61.5z M82,63.7l-0.4,2C79.6,65.9,78.1,66,77,66c-1.9,0-3.3-0.2-3.9-0.5
			c-0.7-0.3-1-1-1-2.1c0-0.6,0.1-1.1,0.2-1.8l1.9,0.4c-0.2,0.6-0.3,1.1-0.3,1.4c0,0.3,0.2,0.5,0.5,0.7s1,0.2,2.1,0.2
			C77.3,64.2,79.1,64.1,82,63.7z M80.8,52.5l-0.2,1.9c-0.9-0.2-2-0.2-3.5-0.2c-1.2,0-2.7,0.1-4.3,0.4l-0.2-1.9
			c2-0.2,3.4-0.3,4.4-0.3C78.7,52.3,79.9,52.4,80.8,52.5z"/>
		<path d="M102.9,52.4c-2.3,3.1-4.4,5.4-6.1,6.8l-1.4-1.4c1.6-1.2,3.2-2.7,4.6-4.7H86.3v-1.8h15.3L102.9,52.4z M95.2,53.7
			c0,2.2-0.1,3.8-0.2,4.8s-0.4,2.1-0.8,3.2c-0.4,1.2-1,2.3-1.8,3.3c-0.8,1-1.7,1.9-2.8,2.6L88.3,66c3.4-2.1,5.1-5.7,5.1-10.8
			c0-0.7,0-1.2,0-1.5H95.2z"/>
		<path d="M121.6,53.8c-1.2,6.7-4.9,11.2-11.2,13.5l-1.2-1.6c3-1.1,5.3-2.5,7-4.3c1.7-1.8,2.8-4,3.4-6.8h-7.3
			c-1.2,1.8-2.6,3.3-4,4.5l-1.4-1.4c1.2-0.8,2.4-2,3.5-3.4s1.8-2.8,2.3-4.2l1.8,0.7c-0.3,0.7-0.6,1.4-1,2.1h7.2L121.6,53.8z"/>
		<path d="M142.7,64.5l-0.2,1.9h-9.8c-0.5,0-0.9-0.2-1.2-0.6c-0.3-0.4-0.5-0.8-0.5-1.4v-6.9l-4.6,0.4l-0.2-1.8l4.7-0.4v-5.2h1.8v5
			l8-0.8l1.3,0.9c-1.1,2-2.5,4-4.1,6.2l-1.7-0.9c1.4-1.6,2.4-3.1,3.1-4.3l-6.7,0.7V64c0,0.4,0.2,0.6,0.7,0.6
			C137.7,64.6,140.8,64.6,142.7,64.5z"/>
		<path d="M163.5,65.9l-1.6,1.1c-1.9-2.6-4.2-4.7-6.8-6.3c-2.1,2.6-4.7,4.8-7.7,6.7l-1.4-1.4c2.5-1.3,4.7-3,6.7-5.2
			c1.9-2.1,3.4-4.5,4.5-7.2h-10v-1.7l11.7,0l0.5,0.6c-0.7,2.6-1.8,4.9-3.2,6.9C159,61,161.4,63.2,163.5,65.9z"/>
		<path d="M181.6,60.4c-1,1.9-2.3,3.5-3.7,4.6c-1.5,1.1-3,1.7-4.6,1.7c-1.4,0-2.6-0.4-3.4-1.2c-0.9-0.8-1.3-1.8-1.3-2.9V50.9h1.8
			v10.5c0,2.3,1,3.5,3,3.5c1,0,2.2-0.4,3.3-1.3c1.2-0.8,2.2-2.2,3.1-4.1L181.6,60.4z"/>
		<path d="M202.3,63.8l-1.2,1.7c-2.2-1.6-4.1-2.6-5.6-3c0,1.2-0.3,2.2-1,3c-0.7,0.8-1.6,1.2-2.9,1.2c-1.1,0-2-0.3-2.8-0.9
			s-1.1-1.4-1.1-2.2c0-1,0.4-1.8,1.3-2.4c0.9-0.6,2-0.9,3.3-0.9c0.5,0,0.9,0,1.3,0.1v-2c-2.1,0-4.2-0.1-6.3-0.2v-1.8
			c2,0.1,4.1,0.2,6.3,0.2v-1.9c-2.4,0-4.7,0.1-6.6,0.3v-1.8c2-0.2,4.2-0.3,6.6-0.3v-2.5h1.8v2.5c2.4,0,4.5,0.1,6.3,0.3V55
			c-1.8-0.2-3.9-0.3-6.3-0.3v1.9c2.1,0,4.1-0.1,6.1-0.2v1.8c-1.9,0.1-4,0.2-6.1,0.2v2.2C197.7,61.2,200,62.2,202.3,63.8z
			 M193.6,62.2c-0.5,0-0.9,0-1.2,0c-0.8,0-1.5,0.1-2,0.4c-0.5,0.3-0.8,0.6-0.8,1.1c0,0.4,0.2,0.7,0.5,0.9c0.4,0.3,0.8,0.4,1.4,0.4
			c0.7,0,1.2-0.2,1.5-0.5S193.6,63.3,193.6,62.2z"/>
		<path d="M222.2,55.2h-4.5v3.3c0.3,0.9,0.4,1.7,0.4,2.6c0,1.4-0.4,2.7-1.1,3.8c-0.8,1.1-1.9,2-3.3,2.6l-1.1-1.8
			c1-0.3,1.9-0.7,2.5-1.3c0.6-0.6,1-1.2,1.1-1.9c-0.6,0.5-1.3,0.7-2.1,0.7c-0.9,0-1.7-0.3-2.4-1s-1.1-1.5-1.1-2.6c0-1.1,0.3-2,1-2.7
			c0.7-0.7,1.5-1.1,2.5-1.1c0.7,0,1.2,0.2,1.7,0.5v-1.3h-9.1v-1.8h9.1v-2.5h1.8v2.5h4.5V55.2z M214,61.4c0.5,0,1-0.2,1.3-0.6
			c0.3-0.4,0.5-0.8,0.5-1.4c0-0.4-0.2-0.8-0.5-1.1s-0.7-0.5-1.2-0.5c-0.5,0-0.9,0.2-1.2,0.5c-0.3,0.3-0.5,0.8-0.5,1.3
			c0,0.6,0.1,1,0.4,1.3S213.5,61.4,214,61.4z"/>
		<path d="M229,61.6c0.8,0,1.5,0.3,2,0.8c0.6,0.6,0.8,1.3,0.8,2.1c0,0.8-0.3,1.5-0.8,2c-0.6,0.6-1.2,0.8-2,0.8c-0.8,0-1.5-0.3-2-0.8
			c-0.6-0.6-0.8-1.2-0.8-2c0-0.8,0.3-1.5,0.8-2.1C227.6,61.9,228.3,61.6,229,61.6z M229,66.2c0.5,0,0.9-0.2,1.2-0.5s0.5-0.7,0.5-1.2
			s-0.2-0.9-0.5-1.2c-0.3-0.3-0.7-0.5-1.2-0.5c-0.5,0-0.8,0.2-1.2,0.5c-0.3,0.3-0.5,0.7-0.5,1.2s0.2,0.9,0.5,1.2
			S228.6,66.2,229,66.2z"/>
		<path d="M262.9,52.4c-2.3,3.1-4.4,5.4-6.1,6.8l-1.4-1.4c1.6-1.2,3.2-2.7,4.6-4.7h-13.7v-1.8h15.3L262.9,52.4z M255.2,53.7
			c0,2.2-0.1,3.8-0.2,4.8s-0.4,2.1-0.8,3.2c-0.4,1.2-1,2.3-1.8,3.3c-0.8,1-1.7,1.9-2.8,2.6l-1.3-1.5c3.4-2.1,5.1-5.7,5.1-10.8
			c0-0.7,0-1.2,0-1.5H255.2z"/>
		<path d="M281.6,53.8c-1.2,6.7-4.9,11.2-11.2,13.5l-1.2-1.6c3-1.1,5.3-2.5,7-4.3c1.7-1.8,2.8-4,3.4-6.8h-7.3
			c-1.2,1.8-2.6,3.3-4,4.5l-1.4-1.4c1.2-0.8,2.4-2,3.5-3.4s1.8-2.8,2.3-4.2l1.8,0.7c-0.3,0.7-0.6,1.4-1,2.1h7.2L281.6,53.8z"/>
		<path d="M292.8,57.5l-0.7,1.9c-1.5-1.1-3.5-1.7-6-2l0.6-1.8C289.2,56,291.2,56.6,292.8,57.5z M302.5,56.3
			c-1.8,2.9-3.9,5.2-6.2,6.9s-5.1,3-8.3,3.8l-0.9-1.8c3.4-0.8,6.2-2,8.5-3.7c2.3-1.7,4.1-3.8,5.4-6.5L302.5,56.3z M294.7,52.4
			l-0.6,1.8c-1.7-1-3.8-1.6-6.1-1.9l0.6-1.9C291.2,51.1,293.2,51.7,294.7,52.4z"/>
		<path d="M319.8,64.7h-1.7v-0.6h-9.5v-1.7h9.5v-3h-8.9v-1.7h8.9v-2.6h-9.1v-1.7h10.8V64.7z"/>
		<path d="M333.4,54.2l-1.1,1.6c-1.6-1.4-3.5-2.3-5.7-2.8l1.1-1.6C330,52.1,331.9,53,333.4,54.2z M342.4,56.2
			c-2.3,3.4-4.6,5.8-6.8,7.3c-2.3,1.5-4.8,2.6-7.7,3.4l-1.1-1.8c3.6-0.8,6.4-2,8.6-3.7c2.2-1.7,4-3.9,5.6-6.6L342.4,56.2z"/>
		<path d="M352.5,51.1c-0.4,3-1.1,6-2,8.9s-2.1,5.3-3.4,7l-1.6-1.1c1.4-2,2.6-4.3,3.5-7s1.5-5.5,1.7-8.3L352.5,51.1z M362.2,65.9
			l-1.9,0.5c-0.2-2.1-0.8-4.5-1.7-7.3c-0.9-2.8-2-5.3-3.3-7.7l1.7-0.8C359.7,56.3,361.4,61.4,362.2,65.9z M361.1,53.8l-1.4,0.6
			c-0.2-1.1-0.6-2-1-2.7l1.5-0.6C360.6,51.9,360.9,52.8,361.1,53.8z M363.3,53l-1.4,0.6c-0.2-1.1-0.6-2-1-2.7l1.5-0.6
			C362.8,51.1,363.1,52,363.3,53z"/>
		<path d="M382.8,59.5h-16.7v-1.8h16.7V59.5z"/>
		<path d="M391,61.7c-0.7,1.6-1.2,3.2-1.5,5h-1.7c-0.7-1.8-1.1-4.1-1.1-6.7c0-2.7,0.4-5.7,1.1-8.9l2,0.5c-0.9,2.5-1.3,5.3-1.3,8.4
			c0,1.2,0.1,2.3,0.2,3.2h0c0.3-0.9,0.5-1.5,0.7-2L391,61.7z M402.4,63l-1.2,1.8c-0.8-0.6-1.8-1.1-3.1-1.7c-0.1,1.3-0.4,2.2-1,2.9
			c-0.6,0.7-1.4,1-2.5,1c-1.1,0-2.1-0.3-2.8-0.9c-0.7-0.6-1.1-1.3-1.1-2.2c0-1,0.4-1.8,1.3-2.4c0.8-0.6,1.9-0.9,3-0.9
			c0.5,0,1,0,1.3,0.1v-4.2c-2.4,0-4.2-0.1-5.6-0.2l0.1-1.9c1.2,0.2,2.6,0.3,4.3,0.3c0.3,0,0.7,0,1.2,0v-3.7h1.8v3.6
			c0.7,0,1.8-0.2,3.2-0.5v1.9c-0.9,0.1-1.9,0.2-3.2,0.3V61C399.6,61.5,401,62.1,402.4,63z M396.3,62.5c-0.4-0.1-0.7-0.2-1.2-0.2
			c-0.7,0-1.3,0.1-1.8,0.4s-0.8,0.7-0.8,1.1c0,0.4,0.2,0.7,0.6,0.9s0.9,0.3,1.4,0.3c0.6,0,1-0.2,1.2-0.6
			C396.1,64.1,396.2,63.5,396.3,62.5z"/>
		<path d="M422.7,64.5l-0.2,1.9h-9.8c-0.5,0-0.9-0.2-1.2-0.6c-0.3-0.4-0.5-0.8-0.5-1.4v-6.9l-4.6,0.4l-0.2-1.8l4.7-0.4v-5.2h1.8v5
			l8-0.8l1.3,0.9c-1.1,2-2.5,4-4.1,6.2l-1.7-0.9c1.4-1.6,2.4-3.1,3.1-4.3l-6.7,0.7V64c0,0.4,0.2,0.6,0.7,0.6
			C417.7,64.6,420.8,64.6,422.7,64.5z"/>
		<path d="M441.6,53.8c-1.2,6.7-4.9,11.2-11.2,13.5l-1.2-1.6c3-1.1,5.3-2.5,7-4.3c1.7-1.8,2.8-4,3.4-6.8h-7.3
			c-1.2,1.8-2.6,3.3-4,4.5l-1.4-1.4c1.2-0.8,2.4-2,3.5-3.4s1.8-2.8,2.3-4.2l1.8,0.7c-0.3,0.7-0.6,1.4-1,2.1h7.2L441.6,53.8z"/>
		<path d="M452.8,57.5l-0.7,1.9c-1.5-1.1-3.5-1.7-6-2l0.6-1.8C449.2,56,451.2,56.6,452.8,57.5z M462.5,56.3
			c-1.8,2.9-3.9,5.2-6.2,6.9s-5.1,3-8.3,3.8l-0.9-1.8c3.4-0.8,6.2-2,8.5-3.7c2.3-1.7,4.1-3.8,5.4-6.5L462.5,56.3z M454.7,52.4
			l-0.6,1.8c-1.7-1-3.8-1.6-6.1-1.9l0.6-1.9C451.2,51.1,453.2,51.7,454.7,52.4z"/>
		<path d="M479.8,64.7h-1.7v-0.6h-9.5v-1.7h9.5v-3h-8.9v-1.7h8.9v-2.6h-9.1v-1.7h10.8V64.7z"/>
		<path d="M493.4,54.2l-1.1,1.6c-1.6-1.4-3.5-2.3-5.7-2.8l1.1-1.6C490,52.1,491.9,53,493.4,54.2z M502.4,56.2
			c-2.3,3.4-4.6,5.8-6.8,7.3c-2.3,1.5-4.8,2.6-7.7,3.4l-1.1-1.8c3.6-0.8,6.4-2,8.6-3.7c2.2-1.7,4-3.9,5.6-6.6L502.4,56.2z"/>
		<path d="M511.7,61.5c-0.7,1.6-1.3,3.3-1.7,5h-1.3c-1.1-2-1.6-4.5-1.6-7.5c0-2.5,0.4-5.2,1.1-8.3l1.9,0.6c-0.9,2.7-1.3,5.2-1.3,7.7
			c0,1.7,0.1,3,0.4,4h0c0.3-0.9,0.6-1.6,0.9-2.1L511.7,61.5z M522,63.7l-0.4,2c-1.9,0.1-3.4,0.2-4.6,0.2c-1.9,0-3.3-0.2-3.9-0.5
			c-0.7-0.3-1-1-1-2.1c0-0.6,0.1-1.1,0.2-1.8l1.9,0.4c-0.2,0.6-0.3,1.1-0.3,1.4c0,0.3,0.2,0.5,0.5,0.7s1,0.2,2.1,0.2
			C517.3,64.2,519.1,64.1,522,63.7z M520.8,52.5l-0.2,1.9c-0.9-0.2-2-0.2-3.5-0.2c-1.2,0-2.7,0.1-4.3,0.4l-0.2-1.9
			c2-0.2,3.4-0.3,4.4-0.3C518.7,52.3,519.9,52.4,520.8,52.5z"/>
		<path d="M43.5,88.3h-1.7c0,1.4-0.2,2.3-0.5,2.6s-0.8,0.5-1.5,0.5l-1.2-0.1l-0.5-1.5c0.1,0,0.3,0,0.7,0.1c0.3,0,0.6,0.1,0.8,0.1
			c0.5,0,0.7-0.2,0.7-0.5v-1.2H34v3.4h-1.5v-3.4h-1.4v-1.5h1.4V84l-1.1,0.5c-0.3-0.7-0.7-1.3-1.2-1.9v9.1h-1.5v-8h0
			c-0.4,1.1-1.1,2.2-2,3.4l-1.3-0.9c1.6-2,2.7-4.3,3.3-7.1h-2.4v-1.5h2.4v-3.8h1.5v3.8h2v1.5h-2V81l0.4-0.1c0.7,0.9,1.4,1.8,1.9,2.9
			h0v-2h3.9l0-0.7h-4.9v-1.5h2.9v-0.9h-1.5v-1.3h1.4l0-0.8h-2.3v-1.5h2.3v-1.4h1.5v1.4h2.6v-1.4H40v1.4h2.3v1.5H40v0.8h1.5v1.3H40
			v0.9h3v1.5h-5.1l0,0.7h4v5h1.7V88.3z M36.3,84.3v-1H34v1H36.3z M36.3,86.8v-1H34v1H36.3z M38.5,77.4v-0.8h-2.6v0.8H38.5z
			 M38.5,79.6v-0.9h-2.6v0.9H38.5z M40.3,84.3v-1h-2.5v1H40.3z M40.3,86.8v-1h-2.5v1H40.3z"/>
		<path d="M63.4,87.8c0,0.3-0.1,0.9-0.4,1.7c-0.3,0.8-0.5,1.4-0.7,1.7c-0.2,0.3-0.5,0.4-0.9,0.4c-0.6,0-1.3-0.5-2.1-1.4
			s-1.5-1.9-1.9-2.8c-1.3,1.4-2.7,2.5-4,3.4L52,89.7c1.9-1,3.5-2.3,4.7-3.7c-0.7-1.7-1.2-4.1-1.5-7.4h-6v2.7h5.3
			c-0.1,2.7-0.3,4.5-0.6,5.5c-0.3,1-1,1.5-2.1,1.5c-0.4,0-0.9-0.1-1.6-0.2l-0.7-1.7c0.8,0.3,1.6,0.4,2.4,0.4c0.5,0,0.8-0.4,0.9-1.2
			c0.1-0.8,0.2-1.8,0.2-2.9h-3.8c-0.1,2.8-0.3,4.8-0.7,6s-1,2.2-1.7,3l-1.3-1c1.4-1.4,2.1-3.7,2.2-6.8l0.1-7h7.4
			C55,75.5,55,74.4,55,73.7h1.5c0,1.5,0.1,2.6,0.1,3.4h5.8v1.5h-5.7c0.2,2.6,0.6,4.7,1.2,6c0.9-1.2,1.8-2.9,2.6-5l1.4,0.5
			c-0.9,2.5-2,4.6-3.3,6.1c0.5,1,1,1.8,1.6,2.6c0.6,0.8,1,1.2,1.3,1.2c0.1,0,0.2-0.3,0.3-1c0.1-0.7,0.2-1.3,0.2-1.9L63.4,87.8z
			 M62.1,75.8L61,76.7c-1.3-1-2.6-1.6-3.9-1.8l1.2-1.1C59.8,74.2,61.1,74.8,62.1,75.8z"/>
		<path d="M80.7,78.9c-1.8,0.5-3.4,0.9-4.7,1.1c0.7,1.2,1.6,2.5,2.7,4l-1.2,0.9c-1.3-0.4-2.5-0.6-3.7-0.6c-1.3,0-2.4,0.2-3.2,0.6
			s-1.2,0.9-1.2,1.7c0,0.7,0.4,1.4,1.2,1.9s1.9,0.8,3.3,0.8c1.7,0,3.3-0.3,5-1l0.7,1.7c-1.7,0.7-3.6,1.1-5.6,1.1
			c-1.9,0-3.5-0.4-4.7-1.2s-1.8-1.9-1.8-3.2c0-0.8,0.3-1.5,0.8-2.1c0.5-0.6,1.3-1.1,2.2-1.4s2-0.5,3.2-0.5c0.6,0,1.2,0.1,1.8,0.2
			c-0.6-0.9-1.1-1.6-1.4-2.2c-2.2,0.5-4.7,0.8-7.3,0.9l-0.5-1.9c0.2,0,0.6,0,1.2,0c1.7,0,3.6-0.2,5.7-0.7c-0.7-1.3-1.2-2.5-1.6-3.6
			l1.9-0.6c0.4,1.2,0.9,2.5,1.7,3.8c1.7-0.3,3.4-0.8,5-1.3L80.7,78.9z"/>
		<path d="M102.7,88.6c-0.9,0.6-1.7,0.9-2.5,0.9c-0.8,0-1.4-0.3-1.8-0.8c-0.4-0.5-0.6-1.2-0.6-2.1c0-0.6,0.1-1.5,0.4-2.8
			c0.3-1.4,0.4-2.3,0.4-2.9c0-0.4-0.1-0.8-0.3-1.1c-0.2-0.3-0.5-0.4-0.8-0.4c-1.2,0-2.9,1.2-5.2,3.6v7.9h-1.8V85
			c-0.7,0.8-1.5,2-2.5,3.4l-1.5-1.1c0.9-1.5,2.3-3.2,4-5.1V81h-3.4v-1.8h3.4v-4.3h1.8v4.3c0.2,0,0.3,0.1,0.5,0.2s0.2,0.2,0.2,0.2
			c0,0.1-0.1,0.3-0.2,0.6l0,0c0.8-0.7,1.6-1.3,2.4-1.8s1.6-0.7,2.2-0.7c0.8,0,1.5,0.3,2.1,0.9c0.6,0.6,0.8,1.4,0.8,2.3
			c0,0.6-0.2,1.6-0.5,2.9c-0.3,1.2-0.4,2.1-0.4,2.6c0,0.8,0.2,1.2,0.7,1.2c0.5,0,1.3-0.4,2.5-1.1V88.6z"/>
		<path d="M122.3,87.8l-1.2,1.7c-2.2-1.6-4.1-2.6-5.6-3c0,1.2-0.3,2.2-1,3c-0.7,0.8-1.6,1.2-2.9,1.2c-1.1,0-2-0.3-2.8-0.9
			s-1.1-1.4-1.1-2.2c0-1,0.4-1.8,1.3-2.4c0.9-0.6,2-0.9,3.3-0.9c0.5,0,0.9,0,1.3,0.1v-2c-2.1,0-4.2-0.1-6.3-0.2v-1.8
			c2,0.1,4.1,0.2,6.3,0.2v-1.9c-2.4,0-4.7,0.1-6.6,0.3v-1.8c2-0.2,4.2-0.3,6.6-0.3v-2.5h1.8v2.5c2.4,0,4.5,0.1,6.3,0.3V79
			c-1.8-0.2-3.9-0.3-6.3-0.3v1.9c2.1,0,4.1-0.1,6.1-0.2v1.8c-1.9,0.1-4,0.2-6.1,0.2v2.2C117.7,85.2,120,86.2,122.3,87.8z
			 M113.6,86.2c-0.5,0-0.9,0-1.2,0c-0.8,0-1.5,0.1-2,0.4c-0.5,0.3-0.8,0.6-0.8,1.1c0,0.4,0.2,0.7,0.5,0.9c0.4,0.3,0.8,0.4,1.4,0.4
			c0.7,0,1.2-0.2,1.5-0.5S113.6,87.3,113.6,86.2z"/>
		<path d="M142.2,79.2h-4.5v3.3c0.3,0.9,0.4,1.7,0.4,2.6c0,1.4-0.4,2.7-1.1,3.8c-0.8,1.1-1.9,2-3.3,2.6l-1.1-1.8
			c1-0.3,1.9-0.7,2.5-1.3c0.6-0.6,1-1.2,1.1-1.9c-0.6,0.5-1.3,0.7-2.1,0.7c-0.9,0-1.7-0.3-2.4-1s-1.1-1.5-1.1-2.6c0-1.1,0.3-2,1-2.7
			c0.7-0.7,1.5-1.1,2.5-1.1c0.7,0,1.2,0.2,1.7,0.5v-1.3h-9.1v-1.8h9.1v-2.5h1.8v2.5h4.5V79.2z M134,85.4c0.5,0,1-0.2,1.3-0.6
			c0.3-0.4,0.5-0.8,0.5-1.4c0-0.4-0.2-0.8-0.5-1.1s-0.7-0.5-1.2-0.5c-0.5,0-0.9,0.2-1.2,0.5c-0.3,0.3-0.5,0.8-0.5,1.3
			c0,0.6,0.1,1,0.4,1.3S133.5,85.4,134,85.4z"/>
		<path d="M149,85.6c0.8,0,1.5,0.3,2,0.8c0.6,0.6,0.8,1.3,0.8,2.1c0,0.8-0.3,1.5-0.8,2c-0.6,0.6-1.2,0.8-2,0.8c-0.8,0-1.5-0.3-2-0.8
			c-0.6-0.6-0.8-1.2-0.8-2c0-0.8,0.3-1.5,0.8-2.1C147.6,85.9,148.3,85.6,149,85.6z M149,90.2c0.5,0,0.9-0.2,1.2-0.5s0.5-0.7,0.5-1.2
			s-0.2-0.9-0.5-1.2c-0.3-0.3-0.7-0.5-1.2-0.5c-0.5,0-0.8,0.2-1.2,0.5c-0.3,0.3-0.5,0.7-0.5,1.2s0.2,0.9,0.5,1.2
			S148.6,90.2,149,90.2z"/>
	</g>
	
		<use xlink:href="#ab"  width="504.1" height="67.6" x="-251.9" y="-33.8" transform="matrix(1 0 0 -1 280.173 219.8333)" overflow="visible"/>
</g>
<g id="Layer_2">
</g>
</svg>
