<?xml version="1.0" encoding="utf-8"?>
<!-- Generator: Adobe Illustrator 18.1.0, SVG Export Plug-In . SVG Version: 6.00 Build 0)  -->
<svg version="1.1" xmlns="http://www.w3.org/2000/svg" xmlns:xlink="http://www.w3.org/1999/xlink" x="0px" y="0px"
	 viewBox="0 0 560 380" enable-background="new 0 0 560 380" xml:space="preserve">
<symbol  id="ab" viewBox="-251.9 -33.8 504.1 67.6">
	<path fill="#D1D4D4" d="M-61.5,14.7h-75.7v15.1c0,0.5,0.5,1,1,1h74.7V14.7z"/>
	<g>
		<path d="M-123.2,21.6l1.3,0.2c0-0.3,0.2-0.6,0.3-0.8c0.2-0.2,0.4-0.3,0.7-0.3c0.3,0,0.5,0.1,0.7,0.3s0.3,0.5,0.3,0.9
			c0,0.3-0.1,0.6-0.3,0.8c-0.2,0.2-0.4,0.3-0.7,0.3c-0.2,0-0.4,0-0.6-0.1l0.2,1.1c0.4,0,0.7,0.1,0.8,0.2s0.3,0.4,0.3,0.7
			c0,0.2-0.1,0.4-0.2,0.6c-0.1,0.1-0.3,0.2-0.6,0.2c-0.2,0-0.4-0.1-0.6-0.2c-0.2-0.2-0.3-0.4-0.3-0.7l-1.3,0.2
			c0.1,0.4,0.2,0.8,0.4,1s0.4,0.5,0.7,0.6s0.7,0.2,1.1,0.2c0.7,0,1.2-0.2,1.6-0.6c0.3-0.4,0.5-0.7,0.5-1.2c0-0.6-0.3-1.1-1-1.5
			c0.4-0.1,0.7-0.3,1-0.6c0.2-0.3,0.4-0.7,0.4-1.1c0-0.6-0.2-1.2-0.7-1.6c-0.5-0.4-1-0.7-1.7-0.7c-0.6,0-1.2,0.2-1.6,0.6
			S-123.1,21-123.2,21.6z"/>
		<path d="M-117.3,26.9h2.6c0.6,0,1,0,1.4-0.1c0.4-0.1,0.8-0.3,1.1-0.7c0.3-0.3,0.5-0.7,0.7-1.2s0.2-1,0.2-1.7
			c0-0.6-0.1-1.1-0.2-1.5c-0.2-0.5-0.4-0.9-0.8-1.3c-0.3-0.2-0.6-0.4-1-0.6c-0.3-0.1-0.7-0.2-1.3-0.2h-2.7V26.9z M-115.8,25.7V21
			h1.1c0.4,0,0.7,0,0.9,0.1c0.2,0.1,0.4,0.2,0.6,0.3c0.2,0.1,0.3,0.4,0.4,0.7s0.1,0.8,0.1,1.3c0,0.6,0,1-0.1,1.3
			c-0.1,0.3-0.2,0.5-0.4,0.7s-0.4,0.3-0.7,0.3c-0.2,0-0.6,0.1-1.2,0.1H-115.8z"/>
		<path d="M-107.6,22.1l1.4,0.1c0.1-0.5,0.3-0.8,0.5-1c0.3-0.2,0.6-0.3,1-0.3c0.5,0,0.8,0.1,1.1,0.3s0.4,0.4,0.4,0.7
			c0,0.2,0,0.3-0.1,0.4s-0.3,0.2-0.5,0.3c-0.2,0.1-0.6,0.2-1.2,0.3c-0.8,0.2-1.3,0.4-1.6,0.7c-0.4,0.4-0.7,0.9-0.7,1.4
			c0,0.4,0.1,0.7,0.3,1s0.5,0.6,0.9,0.7s0.9,0.2,1.4,0.2c0.9,0,1.6-0.2,2-0.6c0.5-0.4,0.7-0.9,0.7-1.6l-1.4-0.1
			c-0.1,0.4-0.2,0.6-0.4,0.8s-0.5,0.2-0.9,0.2c-0.4,0-0.7-0.1-1-0.3c-0.2-0.1-0.2-0.3-0.2-0.4c0-0.2,0.1-0.3,0.2-0.4
			c0.2-0.2,0.6-0.3,1.3-0.5s1.2-0.3,1.6-0.5s0.6-0.4,0.8-0.7s0.3-0.7,0.3-1.1c0-0.4-0.1-0.8-0.3-1.2c-0.2-0.4-0.6-0.6-1-0.8
			s-0.9-0.3-1.6-0.3c-0.9,0-1.6,0.2-2.1,0.6S-107.5,21.3-107.6,22.1z"/>
		<path d="M-99.2,26.9v-2.6c0.4,0.5,1,0.8,1.6,0.8c0.3,0,0.6-0.1,0.9-0.2s0.4-0.3,0.6-0.4c0.1-0.2,0.2-0.4,0.3-0.6
			c0-0.2,0.1-0.6,0.1-1v-3h-1.4v2.7c0,0.5,0,0.9-0.1,1s-0.1,0.3-0.3,0.3s-0.3,0.1-0.5,0.1c-0.2,0-0.4-0.1-0.6-0.2
			c-0.2-0.1-0.3-0.3-0.4-0.5s-0.1-0.6-0.1-1v-2.6h-1.4v7.2H-99.2z"/>
		<path d="M-93.5,23.4l-1.2,0.2c0.1,0.5,0.4,0.9,0.7,1.1c0.3,0.2,0.8,0.4,1.5,0.4c0.6,0,1.1-0.1,1.4-0.2s0.5-0.3,0.6-0.6
			s0.2-0.6,0.2-1.2l0-1.6c0-0.5,0-0.8,0.1-1s0.1-0.4,0.2-0.7h-1.4c0,0.1-0.1,0.2-0.1,0.4c0,0.1,0,0.1,0,0.2
			c-0.2-0.2-0.5-0.4-0.8-0.5c-0.3-0.1-0.6-0.2-0.9-0.2c-0.5,0-1,0.1-1.3,0.4c-0.3,0.3-0.5,0.7-0.5,1.1c0,0.3,0.1,0.6,0.2,0.8
			s0.3,0.4,0.6,0.5s0.6,0.2,1.1,0.3c0.6,0.1,1.1,0.2,1.3,0.3v0.1c0,0.3-0.1,0.5-0.2,0.6s-0.4,0.2-0.7,0.2c-0.2,0-0.4,0-0.6-0.1
			S-93.4,23.6-93.5,23.4z M-91.6,22.2c-0.2-0.1-0.5-0.1-0.8-0.2c-0.4-0.1-0.6-0.2-0.7-0.2c-0.2-0.1-0.3-0.3-0.3-0.5
			c0-0.2,0.1-0.4,0.2-0.5c0.1-0.1,0.3-0.2,0.5-0.2c0.2,0,0.5,0.1,0.7,0.2c0.2,0.1,0.3,0.3,0.3,0.5c0,0.1,0.1,0.3,0.1,0.7V22.2z"/>
		<path d="M-89,24.9h1.3v-0.8c0.2,0.3,0.4,0.5,0.7,0.6c0.3,0.2,0.6,0.2,0.9,0.2c0.6,0,1.1-0.2,1.5-0.7c0.4-0.5,0.6-1.1,0.6-2
			c0-0.9-0.2-1.5-0.6-2s-0.9-0.7-1.5-0.7c-0.3,0-0.5,0.1-0.8,0.2c-0.2,0.1-0.5,0.3-0.7,0.6v-2.6H-89V24.9z M-87.6,22.4
			c0-0.6,0.1-1,0.3-1.3s0.5-0.4,0.8-0.4c0.3,0,0.6,0.1,0.8,0.4s0.3,0.7,0.3,1.3c0,0.5-0.1,0.9-0.3,1.2s-0.5,0.4-0.8,0.4
			c-0.3,0-0.6-0.1-0.8-0.4S-87.6,22.9-87.6,22.4z"/>
		<path d="M-79.8,21.4l1.4-0.2c-0.2-0.5-0.5-0.9-0.8-1.1s-0.9-0.4-1.4-0.4c-0.9,0-1.6,0.3-2,0.9c-0.3,0.5-0.5,1.1-0.5,1.8
			c0,0.9,0.2,1.5,0.7,2s1,0.7,1.7,0.7c0.8,0,1.4-0.3,1.8-0.8s0.7-1.3,0.6-2.3h-3.4c0-0.4,0.1-0.7,0.3-1s0.5-0.3,0.8-0.3
			c0.2,0,0.4,0.1,0.5,0.2S-79.9,21.1-79.8,21.4z M-79.7,22.8c0,0.4-0.1,0.7-0.3,0.9s-0.4,0.3-0.7,0.3c-0.3,0-0.5-0.1-0.7-0.3
			c-0.2-0.2-0.3-0.5-0.3-0.9H-79.7z"/>
		<path d="M-77.7,21.2l1.4,0.2c0.1-0.3,0.2-0.5,0.4-0.6s0.4-0.2,0.8-0.2c0.4,0,0.6,0.1,0.8,0.2c0.1,0.1,0.2,0.2,0.2,0.4
			c0,0.1,0,0.2-0.1,0.3c-0.1,0.1-0.2,0.1-0.5,0.2c-1.1,0.2-1.8,0.5-2.1,0.7c-0.4,0.3-0.6,0.7-0.6,1.2c0,0.4,0.2,0.8,0.5,1.1
			c0.4,0.3,0.9,0.5,1.7,0.5c0.7,0,1.2-0.1,1.6-0.3c0.3-0.2,0.6-0.6,0.7-1l-1.3-0.2c-0.1,0.2-0.2,0.4-0.3,0.5s-0.4,0.2-0.7,0.2
			c-0.4,0-0.6-0.1-0.8-0.2c-0.1-0.1-0.2-0.2-0.2-0.3c0-0.1,0-0.2,0.1-0.3c0.1-0.1,0.6-0.2,1.3-0.4s1.2-0.4,1.5-0.6
			c0.3-0.2,0.4-0.6,0.4-1c0-0.5-0.2-0.9-0.6-1.2s-1-0.5-1.8-0.5c-0.7,0-1.3,0.1-1.7,0.4C-77.3,20.3-77.6,20.7-77.7,21.2z"/>
	</g>
	<g>
		<path d="M-49.3,19.5v7.2h1.4l1.7-5.1c0.2-0.5,0.3-0.8,0.3-1.1c0.1,0.3,0.2,0.6,0.4,1.1l1.7,5h1.3v-7.2h-0.9v6l-2.1-6h-0.9
			l-2.1,6.1v-6.1H-49.3z"/>
		<path d="M-37.7,20.1c-0.3-0.3-0.6-0.5-0.9-0.6c-0.3-0.1-0.6-0.2-1-0.2c-0.6,0-1,0.1-1.3,0.4s-0.5,0.6-0.5,1.1
			c0,0.3,0.1,0.5,0.2,0.7s0.3,0.4,0.5,0.5s0.4,0.2,0.6,0.3c0.2,0,0.4,0.1,0.8,0.1c0.7,0.1,1.2,0.2,1.6,0.3c0,0.1,0,0.2,0,0.2
			c0,0.4-0.1,0.6-0.2,0.8c-0.2,0.2-0.6,0.3-1,0.3c-0.4,0-0.7-0.1-0.9-0.2s-0.3-0.4-0.4-0.8l-0.9,0.1c0.1,0.4,0.2,0.7,0.4,0.9
			s0.4,0.4,0.8,0.5s0.7,0.2,1.2,0.2c0.4,0,0.8-0.1,1.1-0.2c0.3-0.1,0.5-0.2,0.6-0.4s0.2-0.4,0.3-0.6c0-0.1,0-0.4,0-0.8v-1.2
			c0-0.8,0-1.3,0.1-1.5s0.1-0.4,0.2-0.6h-0.9C-37.6,19.7-37.7,19.9-37.7,20.1z M-37.8,22.1c-0.3-0.1-0.8-0.2-1.4-0.3
			c-0.4-0.1-0.6-0.1-0.8-0.2c-0.1-0.1-0.3-0.2-0.3-0.3s-0.1-0.3-0.1-0.4c0-0.2,0.1-0.4,0.3-0.6s0.4-0.2,0.8-0.2
			c0.3,0,0.6,0.1,0.9,0.2s0.5,0.4,0.6,0.6c0.1,0.2,0.1,0.5,0.1,0.9V22.1z"/>
		<path d="M-33.6,20.3l0.1-0.8c-0.2-0.1-0.5-0.1-0.7-0.1c-0.3,0-0.6,0-0.7,0.2c-0.2,0.1-0.3,0.2-0.4,0.4s-0.1,0.5-0.1,1v3H-36v0.7
			h0.6V26l0.9,0.5v-1.8h0.9V24h-0.9v-3c0-0.3,0-0.4,0-0.5c0-0.1,0.1-0.1,0.2-0.2c0.1,0,0.2-0.1,0.3-0.1
			C-33.9,20.3-33.8,20.3-33.6,20.3z"/>
		<path d="M-29.2,21.2l0.9-0.1c-0.1-0.5-0.4-0.9-0.8-1.2s-0.9-0.4-1.5-0.4c-0.8,0-1.4,0.2-1.8,0.7s-0.7,1.1-0.7,2
			c0,0.9,0.2,1.5,0.7,2c0.4,0.5,1,0.7,1.7,0.7c0.7,0,1.3-0.2,1.7-0.7c0.4-0.5,0.7-1.1,0.7-2c0-0.1,0-0.1,0-0.2h-3.9
			c0-0.6,0.2-1,0.5-1.3s0.7-0.5,1.1-0.5c0.3,0,0.6,0.1,0.8,0.3C-29.5,20.5-29.3,20.8-29.2,21.2z M-32.1,22.6h2.9
			c0,0.4-0.1,0.8-0.3,1c-0.3,0.3-0.6,0.5-1.1,0.5c-0.4,0-0.7-0.1-1-0.4C-31.9,23.4-32.1,23-32.1,22.6z"/>
		<path d="M-27.2,19.5v5.2h0.8v-0.8c0.2,0.4,0.4,0.6,0.6,0.7s0.4,0.2,0.6,0.2c0.3,0,0.6-0.1,0.9-0.3l-0.3-0.8
			c-0.2,0.1-0.4,0.2-0.6,0.2c-0.2,0-0.4-0.1-0.5-0.2s-0.3-0.3-0.3-0.5c-0.1-0.3-0.1-0.7-0.1-1v-2.7H-27.2z"/>
		<path d="M-23.9,25.6v1h0.9v-1H-23.9z M-23.9,19.5v5.2h0.9v-5.2H-23.9z"/>
		<path d="M-18.3,20.1c-0.3-0.3-0.6-0.5-0.9-0.6c-0.3-0.1-0.6-0.2-1-0.2c-0.6,0-1,0.1-1.3,0.4s-0.5,0.6-0.5,1.1
			c0,0.3,0.1,0.5,0.2,0.7s0.3,0.4,0.5,0.5s0.4,0.2,0.6,0.3c0.2,0,0.4,0.1,0.8,0.1c0.7,0.1,1.2,0.2,1.6,0.3c0,0.1,0,0.2,0,0.2
			c0,0.4-0.1,0.6-0.2,0.8c-0.2,0.2-0.6,0.3-1,0.3c-0.4,0-0.7-0.1-0.9-0.2s-0.3-0.4-0.4-0.8l-0.9,0.1c0.1,0.4,0.2,0.7,0.4,0.9
			s0.4,0.4,0.8,0.5s0.7,0.2,1.2,0.2c0.4,0,0.8-0.1,1.1-0.2c0.3-0.1,0.5-0.2,0.6-0.4s0.2-0.4,0.3-0.6c0-0.1,0-0.4,0-0.8v-1.2
			c0-0.8,0-1.3,0.1-1.5s0.1-0.4,0.2-0.6h-0.9C-18.2,19.7-18.2,19.9-18.3,20.1z M-18.3,22.1c-0.3-0.1-0.8-0.2-1.4-0.3
			c-0.4-0.1-0.6-0.1-0.8-0.2c-0.1-0.1-0.3-0.2-0.3-0.3S-21,21-21,20.9c0-0.2,0.1-0.4,0.3-0.6s0.4-0.2,0.8-0.2c0.3,0,0.6,0.1,0.9,0.2
			s0.5,0.4,0.6,0.6c0.1,0.2,0.1,0.5,0.1,0.9V22.1z"/>
		<path d="M-16.1,19.5v7.2h0.9v-7.2H-16.1z"/>
		<path d="M-14.2,21l0.9,0.1c0-0.3,0.2-0.6,0.4-0.8s0.5-0.3,0.9-0.3c0.4,0,0.7,0.1,0.9,0.2s0.3,0.4,0.3,0.6c0,0.2-0.1,0.4-0.3,0.5
			c-0.1,0.1-0.4,0.2-0.9,0.3c-0.6,0.2-1.1,0.3-1.3,0.4s-0.4,0.3-0.6,0.5s-0.2,0.4-0.2,0.7c0,0.2,0.1,0.4,0.2,0.6s0.3,0.4,0.4,0.5
			c0.1,0.1,0.3,0.2,0.6,0.3s0.5,0.1,0.8,0.1c0.4,0,0.8-0.1,1.1-0.2s0.5-0.3,0.7-0.5s0.2-0.5,0.3-0.8l-0.9-0.1c0,0.3-0.2,0.5-0.3,0.6
			c-0.2,0.1-0.5,0.2-0.8,0.2c-0.4,0-0.7-0.1-0.9-0.2c-0.2-0.1-0.3-0.3-0.3-0.5c0-0.1,0-0.2,0.1-0.3c0.1-0.1,0.2-0.2,0.3-0.2
			c0.1,0,0.3-0.1,0.8-0.2c0.6-0.2,1.1-0.3,1.3-0.4s0.4-0.3,0.6-0.5c0.1-0.2,0.2-0.5,0.2-0.8c0-0.3-0.1-0.6-0.3-0.8s-0.4-0.5-0.7-0.6
			s-0.7-0.2-1.1-0.2c-0.7,0-1.2,0.1-1.5,0.4C-13.9,20.1-14.1,20.5-14.2,21z"/>
	</g>
	<g>
		<path d="M30.4,19.5l-2.8,7.2h1l1.9-5.2c0.1-0.4,0.3-0.8,0.4-1.2c0.1,0.4,0.2,0.8,0.4,1.2l1.9,5.2h1l-2.8-7.2H30.4z"/>
		<path d="M34.8,25.6v1h0.9v-1H34.8z M34.8,19.5v5.2h0.9v-5.2H34.8z"/>
		<path d="M40.5,21.2l0.9-0.1c-0.1-0.5-0.4-0.9-0.8-1.2s-0.9-0.4-1.5-0.4c-0.8,0-1.4,0.2-1.8,0.7s-0.7,1.1-0.7,2
			c0,0.9,0.2,1.5,0.7,2c0.4,0.5,1,0.7,1.7,0.7c0.7,0,1.3-0.2,1.7-0.7c0.4-0.5,0.7-1.1,0.7-2c0-0.1,0-0.1,0-0.2h-3.9
			c0-0.6,0.2-1,0.5-1.3s0.7-0.5,1.1-0.5c0.3,0,0.6,0.1,0.8,0.3C40.2,20.5,40.4,20.8,40.5,21.2z M37.7,22.6h2.9c0,0.4-0.1,0.8-0.3,1
			c-0.3,0.3-0.6,0.5-1.1,0.5c-0.4,0-0.7-0.1-1-0.4C37.8,23.4,37.7,23,37.7,22.6z"/>
		<path d="M43.5,19.5l-1.6,5.2h0.9l0.8-3l0.3-1.1c0,0.1,0.1,0.4,0.3,1.1l0.8,3H46l0.8-3l0.3-1l0.3,1l0.9,3H49l-1.6-5.2h-0.9
			l-0.8,3.1l-0.2,0.9l-1-4H43.5z"/>
	</g>
	<g>
		<path d="M87.8,19.5v7.2h0.9v-6.3h3.5v-0.8H87.8z"/>
		<path d="M93.3,25.6v1h0.9v-1H93.3z M93.3,19.5v5.2h0.9v-5.2H93.3z"/>
		<path d="M95.7,19.5V24H95v0.7h0.8v0.6c0,0.3,0,0.6,0.1,0.8c0.1,0.2,0.2,0.4,0.4,0.6s0.5,0.2,0.9,0.2c0.2,0,0.5,0,0.8-0.1l-0.1-0.8
			c-0.2,0-0.4,0-0.5,0c-0.3,0-0.5-0.1-0.6-0.2c-0.1-0.1-0.2-0.3-0.2-0.6v-0.5h1V24h-1v-4.5H95.7z"/>
		<path d="M101.9,21.2l0.9-0.1c-0.1-0.5-0.4-0.9-0.8-1.2s-0.9-0.4-1.5-0.4c-0.8,0-1.4,0.2-1.8,0.7S98,21.2,98,22
			c0,0.9,0.2,1.5,0.7,2c0.4,0.5,1,0.7,1.7,0.7c0.7,0,1.3-0.2,1.7-0.7c0.4-0.5,0.7-1.1,0.7-2c0-0.1,0-0.1,0-0.2h-3.9
			c0-0.6,0.2-1,0.5-1.3s0.7-0.5,1.1-0.5c0.3,0,0.6,0.1,0.8,0.3C101.5,20.5,101.7,20.8,101.9,21.2z M99,22.6h2.9c0,0.4-0.1,0.8-0.3,1
			c-0.3,0.3-0.6,0.5-1.1,0.5c-0.4,0-0.7-0.1-1-0.4C99.2,23.4,99,23,99,22.6z"/>
		<path d="M107.3,21.4l0.9-0.1c-0.1-0.6-0.3-1.1-0.7-1.4s-0.9-0.5-1.4-0.5c-0.7,0-1.3,0.2-1.7,0.7s-0.6,1.1-0.6,2
			c0,0.6,0.1,1.1,0.3,1.5s0.5,0.7,0.8,0.9s0.8,0.3,1.2,0.3c0.6,0,1-0.1,1.4-0.4s0.6-0.7,0.7-1.2l-0.9-0.1c-0.1,0.3-0.2,0.6-0.4,0.8
			s-0.5,0.3-0.7,0.3c-0.4,0-0.8-0.2-1.1-0.5s-0.4-0.8-0.4-1.5c0-0.7,0.1-1.2,0.4-1.5c0.3-0.3,0.6-0.5,1-0.5c0.3,0,0.6,0.1,0.9,0.3
			C107,20.6,107.2,21,107.3,21.4z"/>
		<path d="M108.8,17.5l-0.1,0.8c0.2-0.1,0.4-0.1,0.5-0.1c0.2,0,0.4,0,0.5,0.1c0.1,0.1,0.2,0.2,0.3,0.3c0.1,0.1,0.1,0.3,0.3,0.7
			c0,0,0,0.1,0.1,0.2l-2,5.2h0.9l1.1-3c0.1-0.4,0.3-0.8,0.4-1.2c0.1,0.4,0.2,0.8,0.4,1.2l1.1,3h0.9l-2-5.3c-0.2-0.6-0.4-1-0.5-1.2
			c-0.2-0.3-0.3-0.5-0.5-0.6s-0.4-0.2-0.7-0.2C109.2,17.4,109,17.4,108.8,17.5z"/>
		<path d="M117.3,21.4l0.9-0.1c-0.1-0.6-0.3-1.1-0.7-1.4s-0.9-0.5-1.4-0.5c-0.7,0-1.3,0.2-1.7,0.7s-0.6,1.1-0.6,2
			c0,0.6,0.1,1.1,0.3,1.5s0.5,0.7,0.8,0.9s0.8,0.3,1.2,0.3c0.6,0,1-0.1,1.4-0.4s0.6-0.7,0.7-1.2l-0.9-0.1c-0.1,0.3-0.2,0.6-0.4,0.8
			s-0.5,0.3-0.7,0.3c-0.4,0-0.8-0.2-1.1-0.5s-0.4-0.8-0.4-1.5c0-0.7,0.1-1.2,0.4-1.5c0.3-0.3,0.6-0.5,1-0.5c0.3,0,0.6,0.1,0.9,0.3
			C117,20.6,117.2,21,117.3,21.4z"/>
		<path d="M118.8,19.5v7.2h0.9v-7.2H118.8z"/>
		<path d="M124.6,21.2l0.9-0.1c-0.1-0.5-0.4-0.9-0.8-1.2s-0.9-0.4-1.5-0.4c-0.8,0-1.4,0.2-1.8,0.7s-0.7,1.1-0.7,2
			c0,0.9,0.2,1.5,0.7,2c0.4,0.5,1,0.7,1.7,0.7c0.7,0,1.3-0.2,1.7-0.7c0.4-0.5,0.7-1.1,0.7-2c0-0.1,0-0.1,0-0.2h-3.9
			c0-0.6,0.2-1,0.5-1.3s0.7-0.5,1.1-0.5c0.3,0,0.6,0.1,0.8,0.3C124.3,20.5,124.5,20.8,124.6,21.2z M121.8,22.6h2.9
			c0,0.4-0.1,0.8-0.3,1c-0.3,0.3-0.6,0.5-1.1,0.5c-0.4,0-0.7-0.1-1-0.4C121.9,23.4,121.8,23,121.8,22.6z"/>
	</g>
	<g>
		<g>
			<g>
				<g>
					<g>
						<path fill="#202020" d="M251.3-31c0-0.6,0.1-0.3,0.1,1.3l-0.2,1.1L251.3-31z"/>
						<path fill="#202020" d="M251.6-20.3c-0.1,1.9-0.2,4-0.4,2.8c0.2-1.8,0.1-2.3,0.3-4.3c0-1.6-0.1-2.8-0.1-2.5
							c0-0.6,0-2.5,0.1-3.3c0.1,2.1,0.1,4.7,0,7.4C251.6-19.6,251.6-20.2,251.6-20.3z"/>
						<path fill="#202020" d="M128.9,13.2l1,0C129.6,13.2,129.3,13.2,128.9,13.2z"/>
						<path fill="#202020" d="M32.7,13.3c0.7,0,1,0,1.1,0C33.1,13.3,32.6,13.3,32.7,13.3z"/>
						<path fill="#202020" d="M16.3,13.5c0.4,0,0.6,0,1,0C16.9,13.5,16.5,13.5,16.3,13.5z"/>
						<path fill="#202020" d="M128.9,13.2l-2.6,0.1C126.2,13.2,127.7,13.2,128.9,13.2z"/>
						<path fill="#202020" d="M251.2,1.1c0-0.5,0-1,0-1.4C251.3,0.1,251.3,0.6,251.2,1.1C251.3,1,251.3,1,251.2,1.1z"/>
						<path fill="#202020" d="M171.3,13.4l0.8,0c0.2,0,0.4,0,0.6,0.1L171.3,13.4z"/>
						<path fill="#202020" d="M203.8,13.4c-0.7,0-1-0.1-1.3-0.2c0.4,0.1,1,0.1,1.6,0.1C204.2,13.3,204.1,13.4,203.8,13.4z"/>
						<path fill="#202020" d="M251.8,8.4l0-0.9C251.8,7.7,251.8,8.1,251.8,8.4z"/>
						<path fill="#202020" d="M148,13.4c-0.1,0-0.2,0-0.3,0.1C147.7,13.4,147.8,13.4,148,13.4z"/>
						<path fill="#202020" d="M215.1-32.3C215.1-32.4,215.1-32.4,215.1-32.3C215.3-32.4,215.3-32.3,215.1-32.3z"/>
						<path fill="#202020" d="M251.7-31c0,0,0-0.5-0.1-0.5c0-0.1,0-0.1,0-0.1C251.7-31.7,251.7-31,251.7-31z"/>
						<path fill="#202020" d="M-13.7,13.7c0.1,0,0.1,0,0.1,0C-12.8,13.7-13.3,13.7-13.7,13.7z"/>
						<path fill="#202020" d="M-251.9-26.1c0.1,3.1,0.2-5.1,0.3-0.4C-251.7-27-251.8-22.2-251.9-26.1z"/>
						<path fill="#202020" d="M251.3,1.9c0,0.4,0,0.9,0,1.3C251.3,2.7,251.3,2.2,251.3,1.9z"/>
						<path fill="#202020" d="M-251.6-26.5L-251.6-26.5l0,0.5C-251.6-26.2-251.6-26.4-251.6-26.5z"/>
						<path fill="#202020" d="M-83,13.6c0.1,0,0.4,0,0.7-0.1C-82.3,13.6-82.5,13.6-83,13.6z"/>
						<path fill="#202020" d="M-31.4,13.4l-1.3,0C-32.2,13.4-31.8,13.4-31.4,13.4z"/>
						<path fill="#202020" d="M-109.8,13.4c-0.7,0-0.9,0-1.9,0c0.1,0,0.2,0,0.3,0C-111,13.4-110.6,13.4-109.8,13.4z"/>
						<path fill="#202020" d="M-137.6,13.4c0.1,0,0.3,0,0.5,0c0.3,0,0.6,0,0.9,0L-137.6,13.4z"/>
						<path fill="#202020" d="M130.4-32.4c0.6,0,1-0.1,1.3-0.1C131.2-32.4,135.3-32.4,130.4-32.4z"/>
						<path fill="#202020" d="M251.3,1.1c0,0.2-0.1,0.4-0.1,0.8C251.3,1.6,251.3,1.3,251.3,1.1C251.3,0.9,251.3,0.9,251.3,1.1z"/>
						<path fill="#202020" d="M-110.9,12.3l-4.4,0C-114.1,12.3-112.5,12.3-110.9,12.3z"/>
						<path fill="#202020" d="M-69.6-32.4l1,0C-69-32.4-69.4-32.4-69.6-32.4z"/>
						<path fill="#202020" d="M-128.5,12.3c-0.8,0-1.6,0.1-2.5,0.1c-0.2,0-0.4,0-0.5,0L-128.5,12.3z"/>
						<path fill="#202020" d="M131.7-32.5C131.7-32.5,131.7-32.5,131.7-32.5C131.7-32.5,131.7-32.5,131.7-32.5z"/>
						<path fill="#202020" d="M160.8-32.2c-4.2,0-2-0.2-2.9-0.3c-5-0.1-2.3,0.1-4,0.2c-3.1,0-5.6-0.2-7.9-0.2c-0.2,0-0.6,0-0.1,0.1
							c-3.3-0.1-9.9,0-13.7-0.2c-0.3,0-0.4,0-0.5,0c0.6-0.1,0.7-0.2,0.6-0.3c-1.9,0-3.5-0.1-4.2,0c1.2,0,1.3,0,1.8,0.1l-2-0.1
							c-1.8,0.2,2.7,0.1,2.7,0.2c-3.9-0.1-8.4-0.2-11.3-0.2c-0.6,0.2,6.9,0.1,3,0.2l4.6-0.1c-3.5,0.3,2.8,0-0.4,0.3
							c-6,0-6.7-0.1-12.8,0c-1.4-0.1,0.4-0.1-0.9-0.2c-8.6-0.2-6.7,0.4-13,0.2c-1.6-0.1-2.3-0.3-6.7-0.2l1.5,0.2
							c-5.8,0-3.3-0.3-9.4-0.1c1.1,0.1,4.6,0.1,3.7,0.1c-4,0.2-2.8-0.1-5.8-0.1l-0.6,0.2c-6.2-0.1-13.1-0.1-20-0.2
							c0.4,0.1,1.6,0.1-0.1,0.2c-8.7-0.1-18.5,0-26.9,0.1l-3.2-0.1c-0.7,0-1.4,0.1-0.6,0.1c-3.3,0.1-0.2-0.1-1.7-0.2
							c-1.9,0-2.5,0.1-1.3,0.1c-5.8-0.1-16.4-0.3-22.5-0.1l1.2,0c-4.7,0.1-5.3-0.3-9.7-0.2l0.8,0c-10.3,0.1-21.6-0.1-29.4,0.2
							c-1.5-0.2-10.2,0.1-10.8-0.2c-5.9,0.1-4.2,0.2-12.4,0.3c-2.2,0-3.3-0.2-6-0.2l-0.1,0.2l-3.7-0.2l-2,0.2l-2.6,0
							c1,0,2.2-0.1,2-0.1c-2,0-4.4,0-6.4,0c-1,0-1.8,0.1-2.4,0.1c-0.6,0-1,0.1-1,0.1l-9.4-0.1c0.2,0.1,1.8,0.1,3,0.1
							c-5-0.2-0.9,0.2-5.5,0c0.6,0-0.3-0.1-0.4-0.1c-2.3,0.1-7.5,0.1-11.4,0.1l0.7,0.1c-7,0-14.8,0-22.6,0c2.8,0,2.2-0.2-0.1-0.3
							l-0.9,0.2c-1.5-0.1,2.4-0.1-0.6-0.2c-2.9,0-2,0.2-0.3,0.2l-3.6-0.1c-0.2,0,0.6,0.1,0.8,0.1c-1.5-0.1-6.2,0.2-8.3,0l-0.2,0
							c-7.9,0-11.4,0-17.8-0.1c-0.1-0.1-2.6-0.1-4.5-0.2c-4.7,0-9.9,0.2-15.6,0.1c-4-0.1-1.2-0.1-3-0.2c-0.3,0.1-6,0.1-3,0.2
							c-6.8,0-8.7,0-17.3-0.1c0.9-0.1,2-0.1,1.4-0.1c-1.6,0-3.6,0.1-3.3,0.1l0.4,0c-9.7-0.2-22.3,0.4-30,0.1l0.4,0l-8-0.1
							c-3.7,0,2.2,0.1-0.5,0.2c-4.3-0.1-7.7-0.1-10.9-0.1c-0.8,0-1.6,0-2.4,0c-0.6,0-1.1,0.3-1.4,0.9c-0.1,0.3-0.1,0.5-0.1,1
							c0,0.4,0,0.8,0,1.2c0,0.8,0,1.7,0,2.6c0.4,5.5,0,19.5,0.2,26.9l-0.1-0.4c-0.1,1.9,0.1,2.3,0.1,3.7c-0.1-0.2-0.1-2.1-0.1-0.9
							c0,2,0,4.1,0,6.1l0,1.5l0,0.8c0,0.2,0,0.4,0.1,0.6c0.1,0.3,0.4,0.6,0.7,0.8c0.2,0.1,0.3,0.1,0.5,0.1c0.2,0,0.5,0,0.7,0
							c4.2,0,8.3,0,12.6-0.1c8.4-0.1,16.9-0.1,25.2-0.2c6.1,0,3.4,0.5,11.1,0.2l-2.2-0.2c12.3,0.2,25.1,0,37.1,0.2
							c-0.7,0-0.7-0.1-1.9-0.1c1.3-0.1,3.6-0.1,5.6,0c1,0,2,0,2.6,0.1c0.7,0,1.1,0,1.1,0.1c1.9,0,0.4-0.1,1.6-0.1
							c2.5-0.1,6.4,0.2,7.7,0c0.2,0-0.7,0-1.2,0c1.7,0.1,7.7,0,6.1,0.1c4.5-0.1,8.6,0.1,12.2,0c2.3,0.2,7.7-0.1,8.5,0.1
							c-0.3-0.2,7.9-0.2,10.7-0.1c-1-0.1,2.5-0.1,1.4-0.2c3.3,0,6.2,0,5.7,0.2c6-0.3,12,0.2,15.4-0.1c9.7,0.1,18.6,0.2,27.3,0.3
							c-0.3-0.2-9.6,0-9.2-0.3c8.2,0.1,13,0.3,21.2,0.2c2.1,0-1.2-0.1-1.9-0.1c8.2,0.1,15.9,0,23.2,0.1c0,0-0.2,0-0.5,0
							c-0.3,0-0.7,0-1.1,0c1.4,0,3.4,0,3.2,0.1l-1.4,0c-2.3,0.1,5.7,0.3,6,0.4c-2.5-0.3,7.2-0.1,3.3-0.4c1,0,2.1,0.1,1.9,0.1
							c1.4,0,1.9-0.1,0.4-0.1c5.2,0.1,3.3,0.2,8,0.2c0,0-1-0.1-1.4-0.1c2.4,0.1,4.8,0.2,8.7,0.2c-0.2,0,0.2-0.1-1-0.1
							c6.8,0,11.6,0.3,19,0.2c-2.2-0.2,2.5-0.1,2.9-0.3l4,0.1l-1.6,0.1c3.5,0,6.6,0.1,9.6,0.1l-2.6-0.1l6.6,0l-3.7,0.1
							c3.6,0.1-0.4,0.2,4.3,0.2c-1,0,3.5,0,5.3-0.1l0,0c1.7,0.1,3.5,0.1,6.1,0.1c0.7-0.1-0.5-0.2-0.1-0.2c1.7,0.2,8.2,0,10.4,0.2
							c-0.7,0-0.8-0.1-0.5-0.2l1.4,0.1c1.6,0,1.9-0.1,1.6-0.1c4.9,0-1.6,0.2,4.3,0.1c-0.5,0-0.2,0-1.2,0c5.8-0.1,11.3,0.1,16.6,0
							c1.6-0.2-4.7,0-2.9-0.2c7.7,0,16,0.2,23.5,0.2l-1.4,0c1,0.3,5.6-0.1,9.4,0c-0.9,0-1.2-0.1-1-0.1c5.1,0,10.5,0.1,18.2,0.1
							l-1-0.1c3-0.1,8,0,11.2-0.1c1,0.1,2.8,0.1,1.7,0.2c10.1-0.4,19.2,0.2,28.1-0.1c-1.1,0-2.5-0.1-1.7-0.1l7.6,0.1
							c-0.6,0.1-1,0.1-2.6,0.2c1,0.1,3.1,0.1,5,0.1c-3.4-0.1,0-0.2,1.5-0.3c-0.2,0,0.3,0.1,0.1,0.1c4-0.2,0.7,0.2,6.1,0.1l-0.3-0.1
							c2,0,3.9,0.1,6.1,0.1c0.9-0.1-2.2-0.1-2.3-0.2c3.1,0,6.1,0.3,8.8,0.1c-1.3,0-3.2-0.1-4.5-0.1c3-0.2,3.4-0.1,5.6-0.1l-0.2,0
							l5.2-0.1l-1.3,0c3.8,0.3,7.8,0.1,13,0.3c-5-0.2-0.8-0.1-1.2-0.3c1.3,0,3.3-0.1,2.8-0.1c2.4,0.1,4.1-0.1,7.5,0.1
							c0.2,0,2.6,0,2.1-0.1c3.2,0-0.8,0.1-0.5,0.1c4.9,0.2,11.5-0.2,18.6,0c3,0,4.8,0.1,6.6,0.2c0.4,0,0.9,0,1.3,0
							c0.5,0,0.9,0,1.3-0.2c0.4-0.2,0.8-0.6,1-1.2c0.2-0.6,0.1-1.2,0.1-1.9c-0.1-1.9-0.2,1.6-0.2,1.5c-0.1-3-0.1-5.4,0-8.3
							c0,0.6-0.1,0-0.1-0.9c0-2.3,0.2-1.6,0.1-4.6c-0.1,0.5-0.1,1.2-0.2,2.3c0.1-2.7,0.1-5.4,0.2-8.3c-0.1-0.8-0.1,1.7-0.2,2.7
							c0-3.2,0.1-8.3,0.2-9.2l0,2c0-1.2-0.1-0.6-0.1,0.3c-0.1,2.7,0,3.9,0.1,4.1l0-2c0.3,2.1,0,8.1,0,12.2l0.2-1.7l-0.2,4.2
							c0.1,0.9,0.2,1.5,0.2-0.5c0.1,2.9-0.1,2.6,0,5.1c0,0.3,0,0.2,0-0.1c0,0,0,0.7,0,1.4c0,0.4,0,0.7,0,1c0,0.3,0,0.5,0,0.5
							c0.1-0.6,0.2,0.5,0.1-1.3c0,0.3,0,0.6,0,0.9c0,0.3,0,0.7-0.2,1c-0.2,0.6-0.7,1-1.3,1.2c-0.3,0.1-0.6,0.1-0.8,0.1
							c-0.2,0-0.5,0-0.7,0c-0.5,0-0.9,0-1.3,0c-1.7,0-2.9-0.1-3.9,0l0.4,0c-7.1-0.1-0.7-0.2-6-0.3l-3.6,0.4l-0.7-0.2
							c-0.7,0-2.2,0-1.9,0.1c-2.7-0.1,0.5-0.1-1.1-0.2c-3.5,0.1-9.7-0.1-10.5,0.2c-1.3-0.1,3.4-0.1-0.4-0.2c-1.1,0.3-4.3,0-7.6,0.1
							c1,0.1,4,0.1,0.8,0.2c-1.9-0.2-6.3,0-9,0c-0.1-0.2-5.9-0.1-10.5-0.1c0.3,0.1-8.6,0.1-12.8,0.2l0.1,0c-0.8-0.2-5.2-0.1-8.4-0.2
							c0.1,0.1,0.7,0.2,2.4,0.2l-3,0c-0.7-0.1-1.6-0.1-3.6-0.1l0.8,0.1c-4,0-8-0.2-13.1-0.1c-0.3-0.1,4.1-0.4-1.3-0.4
							c-0.2,0.1-0.4,0.2,1,0.2c-0.5,0-1.7-0.1-2.6,0l2.2,0.1c-2.3,0.1-1.2-0.1-3.1-0.1c0,0.1-1.4,0.1-1.1,0.1c0.5,0,1.6,0,2.3,0
							c-2.1,0-4.6,0.1-5.5,0.2c0.2-0.1,0-0.1-1.5-0.1c-4,0-1.4,0.1-3.7,0.2c-1-0.1-3.5,0-3.6-0.1c-1.2,0-1.4,0.1-1.8,0.1
							c-2.1-0.1-9.6,0-7.3-0.2l0.5,0c-0.1,0-0.2,0-0.3,0c0,0,0,0,0,0h0c-6.8-0.1-14,0.1-20.7,0l0,0c-4-0.1-8.9,0-11.8-0.1
							c-1.2,0-2.8,0.1-2.3,0.1c-3.1,0-3.4-0.1-7.8,0c3.1,0.1-1.1,0.1,3.2,0.1c-4,0-4.9,0.1-9.1,0c1.5,0.1-3,0.2-4.9,0.1l2.8-0.1
							c-2.1,0-4,0-5.9,0l1,0.2c-8.1,0.2-14.7-0.3-20.9,0c-2.2-0.1,4.4-0.1,2.5-0.2c-3.7,0-7.6,0.3-8.8,0.3
							c-5.1,0.1-4.8-0.2-10.1-0.2c0.7-0.1,1.3-0.2-2.7-0.3c-3.7,0-4.6,0.2-2.2,0.3c0.9,0,1.3,0,1.3,0c1.2,0,2.8,0,1.3,0.1l-0.5-0.1
							c-1.9,0.1-7,0.1-5.8,0.2c-2.8-0.1-1.2-0.1,0.9-0.1c-4.8,0.1-7.5,0-12.4,0.1c0.8,0,1.5-0.1,0.7-0.1c-7.2,0.1-3.2-0.1-8.1-0.1
							c-2.8,0.1,1,0.2-3.9,0.1c-3,0.1-0.6,0.2,0.6,0.2c-4.5-0.1-8.4,0.1-11,0.1l2.4,0c-1.4,0-2.6,0-3.8,0l1.4-0.1
							c-1.4,0-2.6,0-2.5,0.1c-1.4-0.1,1.1-0.2-1.8-0.3c-1.9,0.1-5.7-0.1-6.3,0.1c5.8-0.1-0.6,0.2,4.3,0.2c-1,0-2.1,0-3.5,0
							c-0.2,0,0.2,0,0.6,0c-5.6,0.1-2.6-0.2-8.4-0.2c0.7,0.1-1.3,0.2-2.3,0.1c2.3,0,1.1-0.1-1-0.2c-3.7,0.1-4-0.1-6,0l2.2,0
							c-0.8-0.1-2.6-0.1-5.2-0.1c-0.2,0.1,2.4,0,1.4,0.1c-2.9-0.2-6.5,0.2-10.5,0.1c-1.9,0.1-0.2,0.2-1.8,0.2
							c-4.5-0.1-4.9,0.1-9.6,0c1.4-0.1,1.6-0.1-1.7-0.2l7.8,0.1l-5-0.2c2.3,0,4.9,0.1,6.3,0.1c-2.4-0.1-2.1-0.1-1-0.2
							c-3.2,0.2-6.4-0.1-10.1,0l0.1,0.3c-5.6,0.1-9.9-0.2-17.1-0.1l2.3-0.1c-1-0.1-4.5,0-6.8-0.1c0.2,0.1-1.2,0.1-2.2,0.2
							c0.1-0.1-5.3,0-6-0.2l-3.2,0.1c-5.8,0.1-6.7-0.3-12.3-0.2c1.7,0.1-0.9,0.2,2.9,0.3c-1.9,0-3.6,0-3.6,0c-1.1,0.1-5.2-0.1-6.9,0
							c-0.8,0-1-0.1-3.2-0.1c-0.2,0,0,0,0,0c0,0-3.3-0.1-1.5-0.2c-5.8,0.3-16.1,0-21.2,0.2c-4.1,0-9-0.1-12.7-0.1c0.2,0,0,0,0.7,0
							c-5.1,0.1-3.2-0.3-9-0.2c-3,0.2,3.1,0.1,1.2,0.1c-0.8,0.3-7,0-11,0.1l1,0c-3,0.1-7.3-0.1-12.2-0.1c0,0,0.2,0,0,0
							c-3.4-0.2-9.7-0.2-14.4-0.3c1.5,0.1,2.1,0.1,1.2,0.2c-2.1,0,0.6-0.2-3.6-0.2c-1.4,0.1-4.4,0.1-4.8,0.3l4,0c-2,0.2-5.2,0-7.2,0
							l0.3,0.1c-6.1,0-6.2-0.2-12.7-0.2l0.7-0.1c-3.6-0.2-3,0.1-6.6,0l-1.1,0.2c-2.4,0-8.3-0.2-12.5-0.2c2.4,0.1,7.4,0.2,10.4,0.3
							c-2.3,0-8,0-9.2-0.1c0.9,0,2.1,0.1,3.1,0c-2.9-0.2-6.7-0.2-11.3-0.2c0.4,0.2-2.6,0.2-6.2,0.2c-0.4,0-1.1-0.1-1.5-0.4
							c-0.5-0.3-0.8-0.7-1-1.3c-0.1-0.3-0.1-0.5-0.1-0.8c0-0.2,0-0.4,0-0.7c0-0.4,0-0.9,0-1.3c0-1.7-0.1-3.1-0.1-4
							c0.1-8.3-0.1-16.4,0-26c0.3,3.4,0-2.8,0.3-2.2c0-2.2,0-3.1,0-3.3c0,0,0-1.7-0.1-3.4c0-0.4,0-0.8,0-1.3c0-0.5,0.2-0.9,0.4-1.2
							c0.2-0.3,0.5-0.5,0.7-0.7c0.2-0.1,0.3-0.2,0.3-0.2c0.5-0.2,0.6-0.2,0.4-0.2c-0.2,0-0.5,0.1-0.9,0.4c-0.4,0.3-0.7,0.7-0.8,1
							c-0.2,0.3-0.2,0.6-0.2,0.5c0.2-0.8,0.6-1.3,1-1.6c0.4-0.3,0.8-0.4,1.1-0.5c0.2,0,0.3,0,0.4,0c0.1,0,0.2,0,0.2,0
							c0.1,0,0.2,0,0.3,0c0.3,0,0.4-0.1,2-0.1c-0.7,0.1,1.7,0.2,4.5,0.1l-3.9,0.1c6.9,0.2,5.9-0.3,12.8-0.1l-2.2-0.1
							c3.5,0.1,13.1,0,16.6,0.2c0.6,0,1.5-0.1-0.1-0.1c8.5,0,18.9,0.3,25.5,0.1l-0.6-0.1c1.6,0,2.8,0.1,4.7,0.1
							c-0.1,0-0.6-0.1,0.1-0.1c0.8,0,4.2,0.1,6.3,0.1l-1.8-0.1c8.3-0.1,12.7,0.2,19.6,0.3c0-0.2,6.5-0.3,9.7-0.3l-0.1,0
							c9.6,0,16.4,0.2,25.3,0.3c5.5-0.2,18.7-0.1,27.6-0.2c-1.4,0,0.2,0.2,1.8,0.2c2.1,0,5.8,0.2,5.4,0l-0.7,0
							c1.6-0.2,5.9-0.1,9.2-0.2l0.6,0.3c8.8-0.4,23,0.1,27.7-0.2c2.1,0,4.7,0.1,6.8,0.1l-0.1-0.1c5.9,0,8.8-0.1,16,0l-1.5-0.1
							c4.1,0,5.2,0.4,8.9,0.4l1.1-0.2c7.1,0,14.3-0.2,21.4,0c-0.1,0-0.3-0.1-1.5-0.1c3.4,0,13-0.1,11.8,0.1c0-0.1,1.9-0.1,4.2-0.1
							c2.3,0,5.1,0.1,7,0.1l-0.6-0.1c3.2,0.2,3.4,0.2,7.9,0.3c1.1,0,0.9-0.1-0.5-0.1c3.6-0.1,2.8,0.1,7.1,0.1l-1.6-0.1
							c3.7,0,3.4,0,5.4,0.1c2.3,0.1,7,0,7.5-0.2c0.5,0.1,2.5,0.2,4.7,0.1c0.3,0-0.5-0.1-0.9-0.1c6.2-0.1,9.2,0.2,13.4,0
							c0.1,0,0.4-0.1,0.7-0.1c-4.9,0-8.1,0-8.5,0c0-0.1,4-0.2,0.8-0.3c3.2,0.1,8.6,0.3,12.5,0.2c0.2,0,0.4,0,0.5,0l-0.4,0
							c0.9,0,1.7,0,2.4,0c1.2,0,2,0,3.2,0c0.5-0.1,4.5-0.1,6.5-0.1c-0.2,0.1,2.4,0.1,0,0.2c0.3,0-0.4,0-1.7,0c-0.3,0-0.6,0-0.8,0
							c0,0,0.1,0,0.1,0c-1.3,0-3,0-4.9,0c1.6,0.1,3.2,0.1,5.4,0.1c1,0.1,2.1,0.2,2.8,0.2c2.7-0.2,7.9-0.3,8.6-0.4
							c6,0.1,14.2,0.1,18,0.3c1.7,0,2-0.1,2.6-0.1c-1,0-2.2,0-2.7-0.1c3.4,0.1,10.1,0,11,0.2c4.3-0.1-2.4-0.2,3.5-0.1l-0.8-0.1
							c11.7-0.3,19,0.5,31.9,0.1c-0.9,0-1.3,0-1.5,0.1c14.7-0.2,30.4,0.2,44.9-0.1c4.1-0.1,4.6,0.1,7.1,0.2l0.9-0.2l4.3,0.2
							c6.1,0.1,10.6-0.4,18.3-0.1l-1,0.1c2.8,0,8.8,0.1,8.3-0.1c0.3,0,0.9,0.1,2,0.1l0.1-0.1l6.8,0.1c5.3-0.1-0.8-0.3,6.9-0.3
							c0.7,0,1.6,0,2.5,0c0.4,0,0.9,0,1.3,0c0.2,0,0.5,0,0.7,0.1c0.2,0.1,0.5,0.1,0.7,0.3c0.8,0.5,1.1,1.3,1.1,1.7
							c0,0.4,0,0.6,0,0.3c0-0.7-0.5-1.4-1.1-1.7c-0.6-0.3-1.1-0.3-1.2-0.2c0,0,0.2,0,0.4,0c0.3,0.1,0.6,0.2,0.8,0.4
							c0.3,0.2,0.5,0.5,0.6,0.7c0.1,0.2,0.1,0.4,0.1,0.4c0,0.3-0.2,0.9-0.3,0.6c-0.1-0.1-0.1-0.4-0.4-0.9c-0.2-0.2-0.4-0.5-0.8-0.6
							c-0.1,0-0.2-0.1-0.3-0.1c-0.1,0-0.2,0-0.4,0c-0.3,0-0.7,0-1.1,0l-4.5-0.1l-1.4,0.1l3.8,0c-2.1,0.1-3.5,0-5-0.1
							c-0.4,0.1-1,0.1-1.9,0.1l-4.4-0.2c-0.5,0.1,2,0.2-1,0.2c-2.1-0.1,2-0.2-1.4-0.3c-2.2,0.1-1.5,0.2-4,0.1
							c-0.4,0.1,0.2,0.1,1.2,0.1c-2.2-0.1-5.9,0-7.1-0.2c-2.2,0.1-7.6,0-7.4,0.2c-0.7-0.1-4-0.2-6-0.2c3.8,0.3-7.7,0-6.7,0.3
							c-2.8-0.2-10.1-0.1-15-0.2c0.3,0,0.8,0.1,1.3,0c-2.8,0-3.6,0.1-5.4,0.1c-0.4-0.2-4.7-0.2-7-0.4c-3.4,0.2,2.1,0.2,1,0.4
							c0.2-0.2-5.9-0.2-4.8-0.3c-2.6,0.1-2.2,0.1-3.6,0.2c-0.5-0.2-2.4,0-4.6-0.2c-3.8,0.1-1,0.2-5.1,0.2
							C157.2-32.3,160.8-32.2,160.8-32.2z M62.3-32.6L62.3-32.6c0.8,0,1.6,0,2,0C63.9-32.6,63.3-32.6,62.3-32.6z M54-32.6
							c1,0,2.3,0,3.6,0c0.3,0,0-0.1-0.9-0.1C57.2-32.7,55.2-32.7,54-32.6z M71.5-33.6c-1.3,0-1.8,0-1.9,0c0.6,0,1.3,0,2.3,0
							c0,0,0.1,0,0.2,0C71.9-33.6,71.8-33.6,71.5-33.6z"/>
						<path fill="#202020" d="M73.9-33.4c0.2,0,0.3,0,0.5,0c-0.3,0-0.5,0-0.8,0c-0.2,0-0.3,0-0.5,0C73.4-33.4,73.6-33.4,73.9-33.4z"
							/>
						<path fill="#202020" d="M130.1,13.2l-0.2,0c0.1,0,0.3,0,0.4,0C130.2,13.2,130.2,13.2,130.1,13.2z"/>
						<polygon fill="#202020" points="-60.4,-32.4 -60.4,-32.4 -59.7,-32.4 						"/>
						<path fill="#202020" d="M175.7,12.7c0.1,0,0.3,0,0.6,0C176.3,12.7,176,12.7,175.7,12.7z"/>
						<path fill="#202020" d="M195.4,12.7l2.8-0.1C197,12.7,196.1,12.7,195.4,12.7z"/>
						<path fill="#202020" d="M210.6,12.6c0.2,0,0.2,0,0.3,0.1c0,0,0,0,0,0L210.6,12.6z"/>
						<path fill="#202020" d="M-30.4,12.5c-0.2,0-0.4,0-0.6,0C-32.3,12.4-31.4,12.4-30.4,12.5z"/>
						<path fill="#202020" d="M41.3,12.8c-0.8,0-1.5,0-2.3-0.1C40.3,12.7,41.3,12.7,41.3,12.8z"/>
						<path fill="#202020" d="M-110.4,12.3C-110.4,12.3-110.4,12.3-110.4,12.3c-0.2,0-0.3,0-0.5,0L-110.4,12.3z"/>
						<path fill="#202020" d="M35.7,12.7c1.3,0,2.3,0,3.3,0C38,12.7,36.8,12.7,35.7,12.7z"/>
						<path fill="#202020" d="M251.2-12.4l0-0.7c0,0,0,0,0-0.1L251.2-12.4z"/>
						<path fill="#202020" d="M251.2-13.2l0-0.8C251.3-13.7,251.3-13.4,251.2-13.2z"/>
						<path fill="#202020" d="M251.3-15.8l0,1.7C251.3-14.6,251.3-15.4,251.3-15.8z"/>
						<path fill="#202020" d="M251.3,7.6l-0.1,0.2C251.3,7.7,251.3,7.7,251.3,7.6z"/>
						<path fill="#202020" d="M250,12.6c0.6-0.1,1.2-0.7,1.2-1.5c0-0.9,0-2,0-3l0-0.2c0,0.5,0,1.6,0,2.8c0,0.3,0,0.6,0,0.8
							c-0.1,0.2-0.2,0.4-0.3,0.6C250.7,12.4,250.3,12.5,250,12.6z"/>
						<path fill="#202020" d="M224.6,13.2l5.1,0c-0.9,0.1-2.1,0.1,0.3,0.1C223.6,13.5,231.3,13.2,224.6,13.2z"/>
						<path fill="#202020" d="M208.8,13.3c2.7,0,0,0.1,0.1,0.1C207.2,13.4,206.8,13.4,208.8,13.3z"/>
						<path fill="#202020" d="M94.3,13.3l0.3,0.1C92.5,13.4,94.6,13.4,94.3,13.3z"/>
						<polygon fill="#202020" points="72.5,12.7 74.5,12.6 75.5,12.7 						"/>
						<polygon fill="#202020" points="59.5,13.6 60.5,13.6 56.9,13.5 						"/>
						<path fill="#202020" d="M-132.7,13.5l0.6-0.2C-130.6,13.4-130.3,13.6-132.7,13.5z"/>
						<path fill="#202020" d="M-215.7,13.4c-0.9,0.1-3.2,0.1-4.7,0.1C-218.5,13.4-216.6,13.3-215.7,13.4z"/>
						<polygon fill="#202020" points="-82.4,-33.6 -84.1,-33.7 -80.9,-33.6 						"/>
					</g>
				</g>
			</g>
		</g>
	</g>
	<g>
		<g>
			<g>
				<g>
					<g>
						<path fill="#202020" d="M142.3,13.5c0-0.2,0.1-0.1,0.1,0.4l-0.2,0.3L142.3,13.5z"/>
						<path fill="#202020" d="M142.6,16.6c-0.1,0.5-0.2,1.2-0.4,0.8c0.2-0.5,0.1-0.7,0.3-1.2c0-0.5-0.1-0.8-0.1-0.7
							c0-0.2,0-0.7,0.1-1c0.1,0.6,0.1,1.4,0,2.2C142.6,16.8,142.6,16.6,142.6,16.6z"/>
						<path fill="#202020" d="M113.1,33.2l0.3,0C113.3,33.2,113.2,33.2,113.1,33.2z"/>
						<path fill="#202020" d="M85.1,33.3c0.2,0,0.3,0,0.3,0C85.2,33.3,85.1,33.3,85.1,33.3z"/>
						<path fill="#202020" d="M80.3,33.5c0.1,0,0.2,0,0.3,0C80.5,33.5,80.4,33.5,80.3,33.5z"/>
						<path fill="#202020" d="M113.1,33.2l-0.7,0.1C112.3,33.2,112.7,33.2,113.1,33.2z"/>
						<path fill="#202020" d="M142.2,22.8c0-0.2,0-0.3,0-0.4L142.2,22.8C142.3,22.8,142.3,22.8,142.2,22.8z"/>
						<path fill="#202020" d="M125.4,33.4l0.2,0c0.1,0,0.1,0,0.2,0.1L125.4,33.4z"/>
						<path fill="#202020" d="M134.9,33.4c-0.2,0-0.3-0.1-0.4-0.2C134.6,33.3,134.8,33.3,134.9,33.4C135,33.3,134.9,33.4,134.9,33.4
							z"/>
						<path fill="#202020" d="M142.8,25l0-0.3C142.8,24.8,142.8,24.9,142.8,25z"/>
						<path fill="#202020" d="M118.6,33.4C118.6,33.4,118.6,33.4,118.6,33.4C118.5,33.4,118.6,33.4,118.6,33.4z"/>
						<path fill="#202020" d="M-138.7,25.5C-138.7,25.5-138.7,25.5-138.7,25.5C-138.7,25.4-138.7,25.4-138.7,25.5z"/>
						<path fill="#202020" d="M-139.4,14.5l0,0.2c0,0-0.1,0-0.1,0L-139.4,14.5z"/>
						<path fill="#202020" d="M71.6,33.7C71.6,33.7,71.6,33.7,71.6,33.7C71.9,33.7,71.7,33.7,71.6,33.7z"/>
						<path fill="#202020" d="M-8.6,33.6c0.9-0.1-1.5-0.2-0.1-0.3C-8.9,33.3-7.5,33.5-8.6,33.6z"/>
						<path fill="#202020" d="M142.3,23.1l0,0.4C142.3,23.3,142.3,23.2,142.3,23.1z"/>
						<path fill="#202020" d="M-8.7,33.3L-8.7,33.3l0.1,0C-8.7,33.3-8.7,33.3-8.7,33.3z"/>
						<path fill="#202020" d="M51.5,33.6c0,0,0.1,0,0.2-0.1C51.7,33.6,51.6,33.6,51.5,33.6z"/>
						<path fill="#202020" d="M66.5,33.4l-0.4,0C66.2,33.4,66.3,33.4,66.5,33.4z"/>
						<path fill="#202020" d="M43.7,33.4c-0.2,0-0.3,0-0.5,0c0,0,0.1,0,0.1,0C43.3,33.4,43.4,33.4,43.7,33.4z"/>
						<path fill="#202020" d="M35.6,33.4c0,0,0.1,0,0.1,0c0.1,0,0.2,0,0.3,0L35.6,33.4z"/>
						<path fill="#202020" d="M-121.4,32.4c-0.2,0-0.3,0.1-0.4,0.1C-121.6,32.4-122.8,32.4-121.4,32.4z"/>
						<path fill="#202020" d="M142.3,22.8c0,0-0.1,0.1-0.1,0.2C142.3,23,142.3,22.9,142.3,22.8C142.3,22.8,142.3,22.8,142.3,22.8z"
							/>
						<path fill="#202020" d="M43.3,32.3l-1.3,0C42.4,32.3,42.9,32.3,43.3,32.3z"/>
						<path fill="#202020" d="M-63.2,32.4l-0.3,0C-63.4,32.4-63.3,32.4-63.2,32.4z"/>
						<path fill="#202020" d="M38.2,32.3c-0.2,0-0.5,0.1-0.7,0.1c-0.1,0-0.1,0-0.1,0L38.2,32.3z"/>
						<path fill="#202020" d="M-121.7,32.5L-121.7,32.5L-121.7,32.5z"/>
						<path fill="#202020" d="M-130.2,32.2c1.2,0,0.6,0.2,0.8,0.3c1.5,0.1,0.7-0.1,1.2-0.2c0.9,0,1.6,0.2,2.3,0.2c0.1,0,0.2,0,0-0.1
							c1,0.1,2.9,0,4,0.2c0.1,0,0.1,0,0.1,0c-0.2,0.1-0.2,0.2-0.2,0.3c0.6,0,1,0.1,1.2,0c-0.3,0-0.4,0-0.5-0.1l0.6,0.1
							c0.5-0.2-0.8-0.1-0.8-0.2c1.1,0.1,2.4,0.2,3.3,0.2c0.2-0.2-2-0.1-0.9-0.2l-1.3,0.1c1-0.3-0.8,0,0.1-0.3c1.8,0,2,0.1,3.7,0
							c0.4,0.1-0.1,0.1,0.3,0.2c2.5,0.2,2-0.4,3.8-0.2c0.5,0.1,0.7,0.3,2,0.2l-0.4-0.2c1.7,0,1,0.3,2.7,0.1
							c-0.3-0.1-1.3-0.1-1.1-0.1c1.2-0.2,0.8,0.1,1.7,0.1l0.2-0.2c1.8,0.1,3.8,0.1,5.8,0.2c-0.1-0.1-0.5-0.1,0-0.2
							c2.5,0.1,5.4,0,7.8-0.1l0.9,0.1c0.2,0,0.4-0.1,0.2-0.1c0.9-0.1,0,0.1,0.5,0.2c0.5,0,0.7-0.1,0.4-0.1c1.7,0.1,4.8,0.3,6.5,0.1
							l-0.3,0c1.4-0.1,1.6,0.3,2.8,0.2l-0.2,0c3-0.1,6.3,0.1,8.6-0.2c0.4,0.2,3-0.1,3.1,0.2c1.7-0.1,1.2-0.2,3.6-0.3
							c0.6,0,1,0.2,1.7,0.2l0-0.2l1.1,0.2l0.6-0.2l0.7,0c-0.3,0-0.6,0.1-0.6,0.1c1.2,0.1,2.8-0.1,2.9-0.2l2.7,0.1
							c-0.1-0.1-0.5-0.1-0.9-0.1c1.5,0.2,0.3-0.2,1.6,0c-0.2,0,0.1,0.1,0.1,0.1c0.7-0.1,2.2-0.1,3.3-0.1l-0.2-0.1c2,0,4.3,0.1,6.6,0
							c-0.8,0-0.6,0.2,0,0.3l0.3-0.2c0.4,0.1-0.7,0.1,0.2,0.2c0.9,0,0.6-0.2,0.1-0.2l1,0.1c0.1,0-0.2-0.1-0.2-0.1
							c0.4,0.1,1.8-0.2,2.4,0l0.1,0c2.3,0,3.3,0,5.2,0.1c0,0.1,0.8,0.1,1.3,0.2c1.4,0,2.9-0.2,4.5-0.1c1.2,0.1,0.3,0.1,0.9,0.2
							c0.1-0.1,1.7-0.1,0.9-0.2c2,0,2.5,0,5,0.1c-0.3,0.1-0.6,0.1-0.4,0.1c0.5,0,1-0.1,1-0.1l-0.1,0c2.8,0.2,6.5-0.4,8.7-0.1l-0.1,0
							l2.3,0.1c1.1,0-0.6-0.1,0.1-0.2c2.5,0.2,4,0,6,0.1c1.6-0.4,5.7,0,7.8-0.2l-0.1,0.1c0.6,0.1,0.7-0.1,1.1-0.1
							c-0.1,0.1-0.6,0.1-0.3,0.1c4.7,0.1,9.7-0.1,14.6-0.2c1.8,0,1,0.5,3.2,0.2l-0.6-0.2c3.6,0.2,7.3,0,10.8,0.2
							c-0.2,0-0.2-0.1-0.6-0.1c0.7-0.1,2.7,0,2.7,0.1c0.5,0,0.1-0.1,0.5-0.1c0.7-0.1,1.9,0.2,2.2,0c0.1,0-0.2,0-0.3,0
							c0.5,0.1,2.2,0,1.8,0.1c1.3-0.1,2.5,0.1,3.6,0c0.7,0.2,2.2-0.1,2.5,0.1c-0.1-0.2,2.3-0.2,3.1-0.1c-0.3-0.1,0.7-0.1,0.4-0.2
							c0.9,0,1.8,0,1.6,0.2c1.7-0.3,3.5,0.2,4.5-0.1c2.8,0.1,5.4,0.2,7.9,0.3c-0.1-0.2-2.8,0-2.7-0.3c2.4,0.1,3.8,0.3,6.2,0.2
							c0.6,0-0.3-0.1-0.6-0.1c2.4,0.1,4.6,0,6.8,0.1c0,0-0.2,0-0.5-0.1c0.4,0,1,0,0.9,0.1l-0.4,0c-0.7,0.1,1.7,0.3,1.7,0.4
							c-0.7-0.3,2.1-0.1,1-0.4c0.3,0,0.6,0.1,0.6,0.1c0.4,0,0.5-0.1,0.1-0.1c1.5,0.1,1,0.2,2.3,0.2c0,0-0.3-0.1-0.4-0.1
							c0.7,0.1,1.4,0.2,2.5,0.2c-0.1,0,0.1-0.1-0.3-0.1c2,0,3.4,0.3,5.5,0.2c-0.6-0.2,0.7-0.1,0.9-0.3l1.2,0.1l-0.5,0.1
							c1,0,1.9,0.1,2.8,0.1L84,32.6l1.9,0l-1.1,0.1c1,0.1-0.1,0.2,1.2,0.2c-0.3,0,1,0,1.6-0.1l0,0c0.5,0.1,1,0.1,1.8,0.1
							c0.2-0.1-0.2-0.2,0-0.2c0.5,0.2,2.4,0,3,0.2c-0.2,0-0.2-0.1-0.2-0.2l0.4,0.1c0.5,0,0.5-0.1,0.5-0.1c1.4,0-0.5,0.2,1.2,0.1
							c-0.1,0-0.1,0-0.3,0c1.7-0.1,3.3,0.1,4.8,0c0.5-0.2-1.4,0-0.8-0.2c2.2,0,4.7,0.2,6.8,0.2l-0.4,0c0.3,0.3,1.6-0.1,2.7,0
							c-0.3,0-0.4-0.1-0.3-0.1c1.5,0,3,0.1,5.3,0.1l-0.3-0.1c0.9-0.1,2.3,0,3.3-0.1c0.3,0.1,0.8,0.1,0.5,0.2
							c2.9-0.4,5.6,0.2,8.2-0.1c-0.3,0-0.7-0.1-0.5-0.1l2.2,0.1c-0.2,0.1-0.3,0.1-0.8,0.2c0.3,0.1,0.9,0.1,1.5,0.1
							c-1-0.1,0-0.2,0.4-0.3c-0.1,0,0.1,0.1,0,0.1c1.2-0.2,0.2,0.2,1.8,0.1l-0.1-0.1c0.6,0,1.1,0.1,1.8,0.1c0.3-0.1-0.6-0.1-0.7-0.2
							c0.9,0,1.8,0.3,2.6,0.1c-0.4,0-0.9-0.1-1.3-0.1c0.9-0.2,1-0.1,1.6-0.1l-0.1,0l1.5-0.1l-0.4,0c1.1,0.3,2.3,0.1,3.8,0.3
							c-1.5-0.2-0.2-0.1-0.4-0.3c0.4,0,1-0.1,0.8-0.1c0.7,0.1,1.2-0.1,2.2,0.1c0,0,0.8,0,0.6-0.1c0.4,0,0.3,0,0.2,0.1
							c-0.1,0-0.4,0.1-0.4,0.1c0.4,0,0.7,0.1,1-0.1c0.3-0.1,0.6-0.4,0.8-0.8c0.2-0.4,0.2-0.7,0.2-1.2c0-0.5,0-1,0.1-1.5
							c0.1-1.8,0.3-2.1,0.3-3.7c-0.1-0.6-0.2,0.5-0.2,0.5c-0.1-0.9-0.1-1.6,0-2.4c0,0.2-0.1,0-0.1-0.3c0-0.7,0.2-0.5,0.1-1.3
							c-0.1,0.2-0.1,0.3-0.2,0.7c0.1-0.8,0.1-1.6,0.2-2.4c-0.1-0.2-0.1,0.5-0.2,0.8c0-0.9,0.1-2.4,0.2-2.7l0,0.6
							c0-0.3-0.1-0.2-0.1,0.1c-0.1,0.8,0,1.1,0.1,1.2l0-0.6c0.3,0.6,0,2.4,0,3.5l0.2-0.5l-0.2,1.2c0.1,0.3,0.2,0.4,0.2-0.1
							c0.1,0.8-0.1,0.8,0,1.5c0,0.1,0,0,0,0l-0.1,0.8c0-0.2,0.1,0.1,0.1-0.4c0.1,1.5-0.2,2.4,0,3l0-0.1c-0.1,2.1-0.2,0.2-0.3,1.7
							l0.4,1c0,0-0.2,0.2-0.2,0.2c0,0.2-0.2,0.6-0.1,0.6c-0.5,0.7,0-0.1-0.3,0.2c-0.2,0.5-0.9,1-1.5,1c-0.6,0-1.1,0-1.2,0.1
							c-0.4-0.1,1-0.1-0.1-0.2c-0.3,0.3-1.3,0-2.2,0.1c0.3,0.1,1.2,0.1,0.2,0.2c-0.6-0.2-1.8,0-2.6,0c0-0.2-1.7-0.1-3-0.1
							c0.1,0.1-2.5,0.1-3.7,0.2l0,0c-0.2-0.2-1.5-0.1-2.4-0.2c0,0.1,0.2,0.2,0.7,0.2l-0.9,0c-0.2-0.1-0.5-0.1-1-0.1l0.2,0.1
							c-1.2,0-2.3-0.2-3.8-0.1c-0.1-0.1,1.2-0.4-0.4-0.4c-0.1,0.1-0.1,0.2,0.3,0.2c-0.1,0-0.5-0.1-0.8,0l0.6,0.1
							c-0.7,0.1-0.4-0.1-0.9-0.1c0,0.1-0.4,0.1-0.3,0.1c0.1,0,0.5,0,0.7,0c-0.6,0-1.4,0.1-1.6,0.2c0.1-0.1,0-0.1-0.4-0.1
							c-1.2,0-0.4,0.1-1.1,0.2c-0.3-0.1-1,0-1-0.1c-0.3,0-0.4,0.1-0.5,0.1c-0.6-0.1-2.8,0-2.1-0.2l0.2,0c0,0-0.1,0-0.1,0h0h0
							c-2-0.1-4.1,0.1-6,0l0,0c-1.2-0.1-2.6,0-3.4-0.1c-0.3,0-0.8,0.1-0.7,0.1c-0.9,0-1-0.1-2.3,0c0.9,0.1-0.3,0.1,0.9,0.1
							c-1.2,0-1.4,0.1-2.7,0c0.4,0.1-0.9,0.2-1.4,0.1l0.8-0.1c-0.6,0-1.2,0-1.7,0l0.3,0.2c-2.4,0.2-4.3-0.3-6.1,0
							c-0.6-0.1,1.3-0.1,0.7-0.2c-1.1,0-2.2,0.3-2.6,0.3c-1.5,0.1-1.4-0.2-2.9-0.2c0.2-0.1,0.4-0.2-0.8-0.3c-1.1,0-1.3,0.2-0.7,0.3
							c0.3,0,0.4,0,0.4,0c0.4,0,0.8,0,0.4,0.1l-0.1-0.1c-0.5,0.1-2,0.1-1.7,0.2c-0.8-0.1-0.4-0.1,0.3-0.1c-1.4,0.1-2.2,0-3.6,0.1
							c0.2,0,0.4-0.1,0.2-0.1c-2.1,0.1-0.9-0.1-2.4-0.1c-0.8,0.1,0.3,0.2-1.1,0.1c-0.9,0.1-0.2,0.2,0.2,0.2
							c-1.3-0.1-2.4,0.1-3.2,0.1l0.7,0c-0.4,0-0.8,0-1.1,0l0.4-0.1c-0.4,0-0.7,0-0.7,0.1c-0.4-0.1,0.3-0.2-0.5-0.3
							c-0.5,0.1-1.6-0.1-1.8,0.1c1.7-0.1-0.2,0.2,1.3,0.2c-0.3,0-0.6,0-1,0c-0.1,0,0.1,0,0.2,0c-1.6,0.1-0.7-0.2-2.4-0.2
							c0.2,0.1-0.4,0.2-0.7,0.1c0.7,0,0.3-0.1-0.3-0.2c-1.1,0.1-1.2-0.1-1.7,0l0.6,0c-0.2-0.1-0.8-0.1-1.5-0.1
							c-0.1,0.1,0.7,0,0.4,0.1c-0.8-0.2-1.9,0.2-3.1,0.1c-0.5,0.1-0.1,0.2-0.5,0.2c-1.3-0.1-1.4,0.1-2.8,0c0.4-0.1,0.5-0.1-0.5-0.2
							l2.3,0.1l-1.4-0.2c0.7,0,1.4,0.1,1.8,0.1c-0.7-0.1-0.6-0.1-0.3-0.2c-0.9,0.2-1.8-0.1-2.9,0l0,0.3c-1.6,0.1-2.9-0.2-5-0.1
							l0.7-0.1c-0.3-0.1-1.3,0-2-0.1c0.1,0.1-0.4,0.1-0.7,0.2c0-0.1-1.5,0-1.7-0.2L49,33.5c-1.7,0.1-1.9-0.3-3.6-0.2
							c0.5,0.1-0.3,0.2,0.8,0.3c-0.5,0-1,0-1,0c-0.3,0.1-1.5-0.1-2,0c-0.2,0-0.3-0.1-0.9-0.1c-0.1,0,0,0,0,0c0,0-1-0.1-0.4-0.2
							c-1.7,0.3-4.7,0-6.2,0.2c-1.2,0-2.6-0.1-3.7-0.1c0.1,0,0,0,0.2,0c-1.5,0.1-0.9-0.3-2.6-0.2c-0.9,0.2,0.9,0.1,0.4,0.1
							c-0.2,0.3-2,0-3.2,0.1l0.3,0c-0.9,0.1-2.1-0.1-3.6-0.1c0,0,0.1,0,0,0c-1-0.2-2.8-0.2-4.2-0.3c0.4,0.1,0.6,0.1,0.4,0.2
							c-0.6,0,0.2-0.2-1-0.2c-0.4,0.1-1.3,0.1-1.4,0.3l1.2,0c-0.6,0.2-1.5,0-2.1,0l0.1,0.1c-1.8,0-1.8-0.2-3.7-0.2l0.2-0.1
							c-1-0.2-0.9,0.1-1.9,0l-0.3,0.2c-0.7,0-2.4-0.2-3.6-0.2c0.7,0.1,2.1,0.2,3,0.3c-0.7,0-2.3,0-2.7-0.1c0.3,0,0.6,0.1,0.9,0
							c-0.8-0.2-1.9-0.2-3.3-0.2c0.2,0.4-3.5,0.1-4.5,0.4c-2.4-0.1-4.8,0.1-7.6,0c1-0.3-0.8,0-0.6-0.3c-0.7,0-0.9,0-1,0l-2,0.2
							c-0.5,0.1,0.6,0.1,0.6,0.1c-1.4,0-0.6,0.1-1.5,0.2c0.2-0.1-0.5-0.2-1.3-0.1l1.1-0.1c-2-0.2-1.7,0.3-3.7,0.1l0.6,0.1
							c-1-0.1-3.8,0-4.8-0.2c-0.2,0-0.4,0.1,0,0.1c-2.5,0-5.5-0.3-7.4-0.1l0.2,0.1c-0.5,0-0.8-0.1-1.4-0.1c0,0,0.2,0.1,0,0.1
							c-0.2,0-1.2-0.1-1.8-0.1l0.5,0.1c-2.4,0.1-3.7-0.2-5.7-0.3c0,0.2-1.9,0.3-2.8,0.3l0,0c-2.8,0-4.8-0.2-7.3-0.3
							c-1.6,0.2-5.5,0.1-8,0.2c0.4,0-0.1-0.2-0.5-0.2c-0.6,0-1.7-0.2-1.6,0l0.2,0c-0.5,0.2-1.7,0.1-2.7,0.2l-0.2-0.3
							c-2.5,0.4-6.7-0.1-8.1,0.2c-0.6-0.1-1.4-0.1-2-0.1l0,0.1c-1.7,0-2.6,0.1-4.7,0l0.4,0.1c-1.2,0-1.5-0.4-2.6-0.4l-0.3,0.2
							c-2.1,0-4.2,0.2-6.2,0c0,0,0.1,0.1,0.4,0.1c-1,0-3.8,0.1-3.4-0.1c0,0.2-2.1,0-3.3-0.1l0.2,0.1c-0.9-0.2-1-0.2-2.3-0.3
							c-0.3,0-0.3,0.1,0.1,0.1c-1,0.1-0.8-0.1-2.1-0.1l0.5,0.1c-1.1,0-1,0-1.6-0.1c-0.7-0.1-2,0-2.2,0.2c-0.1-0.1-0.7-0.2-1.4-0.1
							c-0.1,0,0.1,0.1,0.3,0.1c-1.8,0.1-2.7-0.2-3.9,0c0,0-0.1,0.1-0.2,0.1c1.4,0,2.6,0,2.5,0c0,0.1-1.1,0.2-0.2,0.3
							c-0.9-0.1-2.5-0.3-3.6-0.2c-0.1,0-0.1,0-0.1,0l0.1,0c-0.3,0-0.5,0-0.7,0c-0.4,0-0.6,0-0.9,0c-0.1,0.1-1.3,0.1-1.9,0.1
							c0-0.1-0.7-0.1,0-0.2c-0.1,0,0.1,0,0.5,0c0.1,0,0.2,0,0.2,0l0,0c0.4,0,0.9,0,1.4,0c-0.5-0.1-0.9-0.1-1.6-0.1
							c-0.3-0.1-0.6-0.2-0.8-0.2c-0.8,0.2-2.3,0.3-2.5,0.4c-1.8-0.1-4.1-0.1-5.2-0.3c-0.5,0-0.6,0.1-0.8,0.1c0.3,0,0.6,0,0.8,0.1
							c-1-0.1-2.9,0-3.2-0.2c-1.3,0.1,0.7,0.2-1,0.1l0.2,0.1c-3.4,0.3-5.5-0.5-9.3-0.1c0.3,0,0.4,0,0.4-0.1c-2.1,0.1-4.4,0-6.6,0
							c-1.1,0-2.2,0-3.3,0c-0.6,0-1,0-1.7,0c-0.6-0.1-1.2-0.4-1.6-0.9c-0.4-0.6-0.4-1-0.4-1.3c0-0.3,0.1-0.5,0.1-0.9l-0.2-0.3
							l0.2-1.3c0.1-1.8-0.4-3.1-0.1-5.3l0.1,0.3c0-0.8,0.1-2.6-0.1-2.4c0-0.1,0.1-0.3,0.1-0.6l-0.1,0l0.1-2c-0.1-1.5-0.3,0.2-0.3-2
							c0-0.8,0.2-2.4,0.3-2.1c0,0.3,0,0.9,0.1,0.9l0-0.8c0.2-0.1,0.5-0.7,0.6,1.1l-0.1,1.3l0.1,0.4l0-1.1c0.1,0.6,0,1-0.1,1.5
							c0.1,0.1,0.1,0.3,0.1,0.5l-0.2,1.3c0.1,0.2,0.2-0.6,0.2,0.3c-0.1,0.6-0.2-0.6-0.3,0.4c0.1,0.6,0.2,0.4,0.1,1.2
							c0.1,0.1,0.1-0.1,0.1-0.3c-0.1,0.7,0,1.7-0.2,2.1c0.1,0.7,0,2.2,0.2,2.1c-0.1,0.2-0.2,1.2-0.2,1.8c0.3-1.1,0,2.2,0.3,2
							c-0.1,0.4-0.1,1.2-0.2,1.9c0,0.6,0.5,1.1,1,1.3c-0.1,0-0.1-0.1-0.2-0.1c0.3,0.1,0.5,0.1,0.6,0.1c0.2,0,0.4,0,0.7-0.1
							c0.1,0.2,1.4,0.2,2,0.4c1-0.2-0.6-0.2-0.3-0.4c0,0.2,1.7,0.2,1.4,0.3c0.8-0.1,0.7-0.1,1-0.2c0.1,0.2,0.7,0,1.3,0.2
							c1.1-0.1,0.3-0.2,1.5-0.2C-129.2,32.3-130.2,32.2-130.2,32.2z M-101.6,32.6L-101.6,32.6c-0.2,0-0.5,0-0.6,0
							C-102,32.6-101.9,32.6-101.6,32.6z M-99.2,32.6c-0.3,0-0.7,0-1,0c-0.1,0,0,0.1,0.2,0.1C-100.1,32.7-99.5,32.7-99.2,32.6z
							 M-104.3,33.6c0.4,0,0.5,0,0.6,0c-0.2,0-0.4,0-0.7,0c0,0,0,0,0,0C-104.4,33.6-104.3,33.6-104.3,33.6z"/>
						<path fill="#202020" d="M-104.9,33.4c-0.1,0-0.1,0-0.2,0C-105,33.4-104.9,33.4-104.9,33.4c0.1,0,0.2,0,0.2,0
							C-104.8,33.4-104.9,33.4-104.9,33.4z"/>
						<path fill="#202020" d="M113.4,33.2L113.4,33.2C113.4,33.2,113.4,33.2,113.4,33.2C113.4,33.2,113.4,33.2,113.4,33.2z"/>
						<polygon fill="#202020" points="-65.9,32.4 -65.9,32.4 -66.1,32.4 						"/>
						<path fill="#202020" d="M126.7,32.7c0,0,0.1,0,0.2,0C126.8,32.7,126.8,32.7,126.7,32.7z"/>
						<path fill="#202020" d="M132.4,32.7l0.8-0.1C132.9,32.7,132.6,32.7,132.4,32.7z"/>
						<path fill="#202020" d="M136.8,32.6C136.9,32.6,136.9,32.7,136.8,32.6L136.8,32.6L136.8,32.6z"/>
						<path fill="#202020" d="M66.8,32.5c-0.1,0-0.1,0-0.2,0C66.2,32.4,66.5,32.4,66.8,32.5z"/>
						<path fill="#202020" d="M87.6,32.8c-0.2,0-0.4,0-0.7-0.1C87.3,32.7,87.6,32.7,87.6,32.8z"/>
						<path fill="#202020" d="M43.5,32.3L43.5,32.3c0,0-0.1,0-0.1,0L43.5,32.3z"/>
						<path fill="#202020" d="M86,32.7c0.4,0,0.7,0,1,0C86.6,32.7,86.3,32.7,86,32.7z"/>
						<path fill="#202020" d="M142.2,18.9l0-0.2c0,0,0,0,0,0L142.2,18.9z"/>
						<path fill="#202020" d="M142.2,18.7l0-0.2C142.3,18.5,142.3,18.6,142.2,18.7z"/>
						<path fill="#202020" d="M142.3,17.9l0,0.5C142.3,18.3,142.3,18,142.3,17.9z"/>
						<path fill="#202020" d="M142.3,24.7L142.3,24.7C142.3,24.8,142.3,24.7,142.3,24.7z"/>
						<path fill="#202020" d="M142.3,26.5c0-0.4-0.1-1.1-0.1-1.7l0-0.1C142.2,25.1,142.4,26.1,142.3,26.5z"/>
						<path fill="#202020" d="M140.9,33.2c0,0,0.4-0.1,0.8-0.3c0.4-0.2,0.6-0.5,0.6-0.5c-0.2,0.2-0.4,0.6,0.2,0
							c-0.3,0.4-0.6,0.6-0.6,0.6c-0.1,0,0,0,0,0c0,0,0.1-0.1,0-0.1C141.7,33,141.5,33.1,140.9,33.2z"/>
						<path fill="#202020" d="M136.3,33.3c0.8,0,0,0.1,0,0.1C135.8,33.4,135.7,33.4,136.3,33.3z"/>
						<path fill="#202020" d="M103,33.3l0.1,0.1C102.5,33.4,103.1,33.4,103,33.3z"/>
						<polygon fill="#202020" points="96.7,32.7 97.3,32.6 97.5,32.7 						"/>
						<polygon fill="#202020" points="92.9,33.6 93.2,33.6 92.1,33.5 						"/>
						<path fill="#202020" d="M37,33.5l0.2-0.2C37.6,33.4,37.7,33.6,37,33.5z"/>
						<path fill="#202020" d="M12.9,33.4c-0.3,0.1-0.9,0.1-1.4,0.1C12.1,33.4,12.6,33.3,12.9,33.4z"/>
						<polygon fill="#202020" points="-59.5,33.6 -59,33.7 -59.9,33.6 						"/>
					</g>
				</g>
			</g>
		</g>
	</g>
	<g>
		<path fill="none" stroke="#000300" stroke-miterlimit="10" d="M-89.5,2.3c-1,0.8-2.1,0.9-2.6,0.3l-15.8-19.3
			c-1.2-1.5-1.9-5.9-1.9-5.9s4.1,1.6,5.3,3.1l15.8,19.3C-88.1,0.4-88.5,1.5-89.5,2.3z"/>
		<line fill="none" stroke="#000300" stroke-miterlimit="10" x1="-104.4" y1="-19.4" x2="-107.8" y2="-16.6"/>
		<line fill="none" stroke="#000300" stroke-miterlimit="10" x1="-94.8" y1="-0.8" x2="-91.4" y2="-3.6"/>
		<path fill="none" stroke="#000300" stroke-miterlimit="10" d="M-107.3-21.5l-1.8,1.5c-0.3-1.3-0.5-2.5-0.5-2.5
			S-108.6-22.1-107.3-21.5z"/>
		<path fill="none" stroke="#000300" stroke-miterlimit="10" d="M-88.6-0.2c0.5,0.6,0.1,1.7-0.9,2.5c-1,0.8-2.1,0.9-2.6,0.3
			l-1.1-1.4l3.5-2.8L-88.6-0.2z"/>
	</g>
	<path fill="none" stroke="#000300" stroke-miterlimit="10" d="M-47.6-15.3c4.8,5.4,5,13.1,0.3,17.2c-4.6,4.2-12.3,3.2-17.1-2.2
		c-4.8-5.4-5-13.1-0.3-17.2C-60-21.6-52.4-20.6-47.6-15.3z"/>
	<path fill="none" stroke="#000300" stroke-miterlimit="10" d="M-54.5-9c0.8,0.9,0.8,2.2,0.1,2.9c-0.8,0.7-2.1,0.5-2.9-0.4
		c-0.8-0.9-0.8-2.2-0.1-2.9C-56.7-10.1-55.4-9.9-54.5-9z"/>
	<path fill="none" stroke="#000300" stroke-miterlimit="10" d="M-12.5-16c0.8,0.9,0.8,2.2,0.1,2.9c-0.8,0.7-2.1,0.5-2.9-0.4
		c-0.8-0.9-0.8-2.2-0.1-2.9C-14.7-17.1-13.4-16.9-12.5-16z"/>
	<path fill="none" stroke="#000300" stroke-miterlimit="10" d="M1.5-21c0.8,0.9,0.8,2.2,0.1,2.9c-0.8,0.7-2.1,0.5-2.9-0.4
		c-0.8-0.9-0.8-2.2-0.1-2.9C-0.7-22.1,0.6-21.9,1.5-21z"/>
	<path fill="none" stroke="#000300" stroke-miterlimit="10" d="M9.5-1c0.8,0.9,0.8,2.2,0.1,2.9C8.7,2.6,7.4,2.4,6.6,1.5
		C5.8,0.6,5.8-0.7,6.6-1.4C7.3-2.1,8.6-1.9,9.5-1z"/>
	<path fill="none" stroke="#000300" stroke-miterlimit="10" d="M-4.5,3c0.8,0.9,0.8,2.2,0.1,2.9c-0.8,0.7-2.1,0.5-2.9-0.4
		c-0.8-0.9-0.8-2.2-0.1-2.9C-6.7,1.9-5.4,2.1-4.5,3z"/>
	<line fill="none" stroke="#000300" stroke-miterlimit="10" x1="-4.8" y1="3.5" x2="7.2" y2="0.5"/>
	<line fill="none" stroke="#000300" stroke-miterlimit="10" x1="-12.8" y1="-16.5" x2="-0.8" y2="-20.5"/>
	<line fill="none" stroke="#000300" stroke-miterlimit="10" x1="8.2" y1="-1.5" x2="1.2" y2="-18.5"/>
	<line fill="none" stroke="#000300" stroke-miterlimit="10" x1="-6.8" y1="3.5" x2="-13.8" y2="-13.5"/>
	<path fill="none" stroke="#000300" stroke-miterlimit="10" d="M64.2-9.5c0,6.6-5.4,12-12,12c-6.6,0-12-5.4-12-12s5.4-12,12-12
		C58.8-21.5,64.2-16.1,64.2-9.5z"/>
	<path fill="none" stroke="#000300" stroke-miterlimit="10" d="M49.3-18.2c0.1-1.1,4.5,0,5.1,0.2c1.8,0.6,3.9,2,5,3.6
		c1,1.4,1.3,3.1,1.6,4.7c0.1,0.7,0.4,1.7,0.3,2.4c-0.2,0.8-0.8,1.5-1.1,2.3"/>
	<path fill="none" stroke="#000300" stroke-miterlimit="10" d="M54.6-13.9c1.1-0.3,2.6,1.9,3.1,2.7c0.5,0.8,1,2.9,0.4,3.9"/>
	<path fill="none" stroke="#000300" stroke-miterlimit="10" d="M99.8-9.2c-1.1-6.1,2-11.8,7-12.7c5-0.9,10,3.3,11.1,9.4
		c1.1,6.1-2,11.8-7,12.7C105.9,1.1,100.9-3.1,99.8-9.2z"/>
	<path fill="none" stroke="#000300" stroke-miterlimit="10" d="M110.9,0.1l-9.8,2.4c-4,0.7-8.3-3.1-9.4-7.9
		c-1.6-7.1,2.5-8.1,5.4-11.1l7-5"/>
	<path fill="none" stroke="#000300" stroke-miterlimit="10" d="M93.4-10.1c0.9-0.9,5.5-3.9,6.3-4.9"/>
</symbol>
<g id="Layer_1">
	<g>
		<path d="M86.2,286.7v9.7l0.9,0l-0.1,3.7h-1.1l-0.1-2.6H79l-0.1,2.6h-1.1l-0.1-3.7l0.8,0c0.4-0.7,0.8-1.5,1.1-2.4
			c0.4-1.2,0.5-2.7,0.5-4.5v-2.7H86.2z M81.4,289.9c0,1.7-0.2,3.2-0.5,4.4c-0.2,0.8-0.6,1.5-0.9,2h4.8v-8.5h-3.3V289.9z"/>
		<path d="M89.5,293.9c0,1.9,1.2,2.7,2.7,2.7c1,0,1.6-0.2,2.1-0.4l0.2,1c-0.5,0.2-1.3,0.5-2.6,0.5c-2.4,0-3.8-1.6-3.8-3.9
			c0-2.3,1.4-4.2,3.6-4.2c2.5,0,3.2,2.2,3.2,3.6c0,0.3,0,0.5,0,0.7H89.5z M93.6,292.9c0-0.9-0.4-2.3-2-2.3c-1.4,0-2,1.3-2.2,2.3
			H93.6z"/>
		<path d="M98,289.8v3.3c0,1.2,0,2-0.1,3.1l0,0c0.5-0.9,0.7-1.5,1.2-2.4l2.4-4h1.6v7.7H102v-3.3c0-1.3,0-1.9,0.1-3.2h0
			c-0.5,1-0.8,1.6-1.3,2.4c-0.7,1.2-1.6,2.7-2.4,4h-1.6v-7.7H98z M98.9,286.6c0,0.7,0.4,1.2,1,1.2c0.7,0,1-0.5,1.1-1.2h1
			c-0.1,1.3-0.9,2-2.1,2c-1.4,0-2-0.9-2-2H98.9z"/>
		<path d="M111.1,297.2c-0.4,0.2-1.2,0.4-2.2,0.4c-2.3,0-3.9-1.6-3.9-4c0-2.4,1.6-4.1,4.2-4.1c0.8,0,1.6,0.2,2,0.4l-0.3,1.1
			c-0.3-0.2-0.9-0.4-1.6-0.4c-1.8,0-2.7,1.3-2.7,2.9c0,1.8,1.2,2.9,2.7,2.9c0.8,0,1.3-0.2,1.7-0.4L111.1,297.2z"/>
		<path d="M118.3,289.8v1.1h-2.4v6.6h-1.4v-6.6H112v-1.1H118.3z"/>
		<path d="M119.4,289.8c0.5-0.1,1.6-0.2,2.5-0.2c1.3,0,3.4,0.2,3.4,1.9c0,1-0.7,1.6-1.6,1.7v0c1.1,0.2,2,0.8,2,1.9
			c0,2-2.6,2.3-4.1,2.3c-0.9,0-1.8-0.1-2.2-0.1V289.8z M120.8,296.6c0.4,0,0.7,0.1,1.1,0.1c0.9,0,2.4-0.2,2.4-1.3s-1.1-1.4-2.5-1.4
			h-1V296.6z M120.8,293h1.1c1,0,2.1-0.3,2.1-1.2c0-0.8-0.7-1.1-2.1-1.1c-0.5,0-0.8,0-1.1,0.1V293z"/>
		<path d="M128.8,289.8v3.3c0,1.2,0,2-0.1,3.1l0,0c0.5-0.9,0.7-1.5,1.2-2.4l2.4-4h1.6v7.7h-1.3v-3.3c0-1.3,0-1.9,0.1-3.2h0
			c-0.5,1-0.8,1.6-1.3,2.4c-0.7,1.2-1.6,2.7-2.4,4h-1.6v-7.7H128.8z"/>
		<path d="M142.1,297.5h-1.4v-3.2h-1c-0.6,0-1,0.2-1.3,0.4c-0.6,0.5-0.8,1.4-1.1,2.2c-0.1,0.2-0.2,0.4-0.3,0.6h-1.5
			c0.2-0.3,0.3-0.5,0.5-0.9c0.3-0.8,0.5-1.8,1.2-2.3c0.2-0.2,0.5-0.4,0.9-0.4v0c-1-0.1-2-0.7-2-1.9c0-0.8,0.4-1.3,1-1.7
			c0.6-0.4,1.6-0.5,2.6-0.5c0.9,0,1.8,0.1,2.5,0.2V297.5z M140.7,290.7c-0.4,0-0.7-0.1-1.2-0.1c-1,0-2.1,0.3-2.1,1.3
			c0,1,1.2,1.3,2.1,1.3c0.6,0,0.9,0,1.2,0V290.7z"/>
		<path d="M147.7,289.8c0.5-0.1,1.6-0.2,2.5-0.2c1.3,0,3.4,0.2,3.4,1.9c0,1-0.7,1.6-1.6,1.7v0c1.1,0.2,2,0.8,2,1.9
			c0,2-2.6,2.3-4.1,2.3c-0.9,0-1.8-0.1-2.2-0.1V289.8z M149,296.6c0.4,0,0.7,0.1,1.1,0.1c0.9,0,2.4-0.2,2.4-1.3s-1.1-1.4-2.5-1.4h-1
			V296.6z M149,293h1.1c1,0,2.1-0.3,2.1-1.2c0-0.8-0.7-1.1-2.1-1.1c-0.5,0-0.8,0-1.1,0.1V293z"/>
		<path d="M164.4,289.8v1.1h-2.4v6.6h-1.4v-6.6h-2.4v-1.1H164.4z"/>
		<path d="M166.2,293.9c0,1.9,1.2,2.7,2.7,2.7c1,0,1.6-0.2,2.1-0.4l0.2,1c-0.5,0.2-1.3,0.5-2.6,0.5c-2.4,0-3.8-1.6-3.8-3.9
			c0-2.3,1.4-4.2,3.6-4.2c2.5,0,3.2,2.2,3.2,3.6c0,0.3,0,0.5,0,0.7H166.2z M170.3,292.9c0-0.9-0.4-2.3-2-2.3c-1.4,0-2,1.3-2.2,2.3
			H170.3z"/>
		<path d="M174.8,289.8v3.4h0.3l2.9-3.4h1.7l-3.4,3.5c1.2,0.1,2,1,2.6,2.4c0.2,0.5,0.5,1.3,0.8,1.9h-1.5c-0.2-0.3-0.5-0.9-0.7-1.6
			c-0.5-1.2-1.2-1.8-2.6-1.8h-0.3v3.4h-1.4v-7.7H174.8z"/>
		<path d="M181.7,289.8l1.7,4.6c0.2,0.5,0.4,1.1,0.5,1.6h0c0.1-0.5,0.3-1.1,0.5-1.6l1.5-4.5h1.5l-2.1,5.5c-1,2.7-1.7,4-2.7,4.9
			c-0.7,0.6-1.4,0.8-1.7,0.9l-0.4-1.2c0.4-0.1,0.8-0.3,1.2-0.7c0.4-0.3,0.9-0.8,1.2-1.6c0.1-0.1,0.1-0.3,0.1-0.3s0-0.2-0.1-0.4
			l-2.9-7.1H181.7z"/>
		<path d="M190.1,289.8v6.6h2.7v-6.6h1.4v6.6h2.7v-6.6h1.4v6.7l0.8,0l-0.1,3.5h-1.1l-0.1-2.5h-9.1v-7.7H190.1z"/>
		<path d="M201.4,293.9c0,1.9,1.2,2.7,2.7,2.7c1,0,1.6-0.2,2.1-0.4l0.2,1c-0.5,0.2-1.3,0.5-2.6,0.5c-2.4,0-3.8-1.6-3.8-3.9
			c0-2.3,1.4-4.2,3.6-4.2c2.5,0,3.2,2.2,3.2,3.6c0,0.3,0,0.5,0,0.7H201.4z M205.5,292.9c0-0.9-0.4-2.3-2-2.3c-1.4,0-2,1.3-2.2,2.3
			H205.5z"/>
		<path d="M208.7,289.8h1.7l1.4,3.9c0.2,0.6,0.5,1.5,0.7,2.1h0c0.2-0.6,0.6-1.8,0.9-2.7l1.2-3.4h1.7l0.5,7.7h-1.3l-0.2-3.7
			c0-0.8-0.1-1.8-0.1-2.8h0c-0.2,0.7-0.4,1.3-0.8,2.5l-1.5,3.9h-1l-1.4-3.8c-0.2-0.7-0.6-1.9-0.8-2.6h-0.1c0,0.9-0.1,1.9-0.1,2.8
			l-0.2,3.7h-1.3L208.7,289.8z"/>
		<path d="M222.3,292.3c0-1,0-1.8-0.1-2.5h1.3l0.1,1.3h0c0.6-0.9,1.5-1.5,2.8-1.5c1.9,0,3.3,1.6,3.3,3.9c0,2.8-1.7,4.2-3.5,4.2
			c-1,0-1.9-0.4-2.4-1.2h0v4.2h-1.4V292.3z M223.7,294.3c0,0.2,0,0.4,0.1,0.6c0.3,1,1.1,1.6,2.1,1.6c1.5,0,2.4-1.2,2.4-3
			c0-1.6-0.8-2.9-2.3-2.9c-1,0-1.9,0.7-2.1,1.7c0,0.2-0.1,0.4-0.1,0.6V294.3z"/>
		<path d="M235.7,297.5l-0.1-1h0c-0.4,0.6-1.3,1.2-2.4,1.2c-1.6,0-2.4-1.1-2.4-2.2c0-1.9,1.7-2.9,4.7-2.9v-0.2
			c0-0.6-0.2-1.8-1.8-1.8c-0.7,0-1.5,0.2-2,0.6l-0.3-0.9c0.6-0.4,1.6-0.7,2.5-0.7c2.4,0,2.9,1.6,2.9,3.2v2.9c0,0.7,0,1.3,0.1,1.9
			H235.7z M235.4,293.5c-1.5,0-3.3,0.2-3.3,1.7c0,0.9,0.6,1.3,1.3,1.3c1,0,1.6-0.6,1.9-1.3c0-0.1,0.1-0.3,0.1-0.4V293.5z"/>
		<path d="M239.7,293h0.7c1.2,0,2-0.5,2-1.3c0-0.7-0.6-1.1-1.5-1.1c-0.6,0-1.3,0.2-1.9,0.5l-0.4-0.9c0.8-0.5,1.7-0.7,2.6-0.7
			c1.2,0,2.6,0.5,2.6,2c0,1-0.9,1.6-1.7,1.8v0c1.2,0.1,2.1,0.8,2.1,1.9c0,1.7-1.7,2.3-3.3,2.3c-0.9,0-1.8-0.2-2.5-0.6l0.4-0.9
			c0.6,0.3,1.3,0.5,2,0.5c1.2,0,1.9-0.6,1.9-1.3c0-1-1.1-1.3-2.3-1.3h-0.7V293z"/>
		<path d="M252,289.8v6.7l0.8,0l-0.1,3.5h-1.1l-0.1-2.5h-5.4l-0.1,2.5H245l-0.1-3.5l0.7,0c0.3-0.5,0.6-1,0.8-1.6
			c0.3-1,0.4-2,0.4-3.1v-2H252z M248.1,292.1c0,1-0.1,2-0.4,2.9c-0.2,0.5-0.4,1-0.6,1.4h3.6v-5.6h-2.5V292.1z"/>
		<path d="M255.2,293.9c0,1.9,1.2,2.7,2.7,2.7c1,0,1.6-0.2,2.1-0.4l0.2,1c-0.5,0.2-1.3,0.5-2.6,0.5c-2.4,0-3.8-1.6-3.8-3.9
			c0-2.3,1.4-4.2,3.6-4.2c2.5,0,3.2,2.2,3.2,3.6c0,0.3,0,0.5,0,0.7H255.2z M259.3,292.9c0-0.9-0.4-2.3-2-2.3c-1.4,0-2,1.3-2.2,2.3
			H259.3z"/>
		<path d="M268.3,289.8v7.7h-1.4v-6.6h-2.7v2c0,2.2-0.2,3.6-1.2,4.3c-0.4,0.3-0.8,0.5-1.5,0.5l-0.1-1.1c0.3,0,0.6-0.2,0.8-0.3
			c0.7-0.5,0.8-1.6,0.8-3.3v-3.1H268.3z"/>
		<path d="M271.4,293.9c0,1.9,1.2,2.7,2.7,2.7c1,0,1.6-0.2,2.1-0.4l0.2,1c-0.5,0.2-1.3,0.5-2.6,0.5c-2.4,0-3.8-1.6-3.8-3.9
			c0-2.3,1.4-4.2,3.6-4.2c2.5,0,3.2,2.2,3.2,3.6c0,0.3,0,0.5,0,0.7H271.4z M275.5,292.9c0-0.9-0.4-2.3-2-2.3c-1.4,0-2,1.3-2.2,2.3
			H275.5z"/>
	</g>
	<g>
		<g>
			<path fill="none" stroke="#000000" stroke-miterlimit="10" d="M288,291.5c0,0,23.2,5.9,33.4-32.9"/>
			<g>
				<polygon points="324.3,262.9 323.5,263.3 321.2,258.9 317,261.4 316.5,260.6 321.6,257.5 				"/>
			</g>
		</g>
	</g>
	<g>
		<path d="M356,157.7v10.8h-1.4v-9.6h-5v9.6h-1.4v-10.8H356z"/>
		<path d="M359.2,164.9c0,1.9,1.2,2.7,2.7,2.7c1,0,1.6-0.2,2.1-0.4l0.2,1c-0.5,0.2-1.3,0.5-2.6,0.5c-2.4,0-3.8-1.6-3.8-3.9
			c0-2.3,1.4-4.2,3.6-4.2c2.5,0,3.2,2.2,3.2,3.6c0,0.3,0,0.5,0,0.7H359.2z M363.3,163.9c0-0.9-0.4-2.3-2-2.3c-1.4,0-2,1.3-2.2,2.3
			H363.3z"/>
		<path d="M366.4,163.3c0-1,0-1.8-0.1-2.5h1.3l0.1,1.3h0c0.6-0.9,1.5-1.5,2.8-1.5c1.9,0,3.3,1.6,3.3,3.9c0,2.8-1.7,4.2-3.5,4.2
			c-1,0-1.9-0.4-2.4-1.2h0v4.2h-1.4V163.3z M367.8,165.3c0,0.2,0,0.4,0.1,0.6c0.3,1,1.1,1.6,2.1,1.6c1.5,0,2.4-1.2,2.4-3
			c0-1.6-0.8-2.9-2.3-2.9c-1,0-1.9,0.7-2.1,1.7c0,0.2-0.1,0.4-0.1,0.6V165.3z"/>
		<path d="M376.3,164.9c0,1.9,1.2,2.7,2.7,2.7c1,0,1.6-0.2,2.1-0.4l0.2,1c-0.5,0.2-1.3,0.5-2.6,0.5c-2.4,0-3.8-1.6-3.8-3.9
			c0-2.3,1.4-4.2,3.6-4.2c2.5,0,3.2,2.2,3.2,3.6c0,0.3,0,0.5,0,0.7H376.3z M380.4,163.9c0-0.9-0.4-2.3-2-2.3c-1.4,0-2,1.3-2.2,2.3
			H380.4z"/>
		<path d="M384.1,160.8l1.1,1.7c0.3,0.4,0.5,0.8,0.8,1.3h0c0.3-0.5,0.5-0.9,0.8-1.3l1.1-1.6h1.5l-2.6,3.7l2.7,4h-1.6l-1.1-1.7
			c-0.3-0.4-0.6-0.9-0.8-1.3h0c-0.3,0.5-0.5,0.9-0.8,1.3l-1.1,1.7h-1.6l2.8-4l-2.6-3.8H384.1z"/>
		<path d="M397.6,164.6c0,2.9-2,4.1-3.9,4.1c-2.1,0-3.7-1.5-3.7-4c0-2.6,1.7-4.1,3.8-4.1C396.1,160.6,397.6,162.2,397.6,164.6z
			 M391.5,164.6c0,1.7,1,3,2.4,3c1.3,0,2.4-1.3,2.4-3c0-1.3-0.7-3-2.3-3C392.2,161.6,391.5,163.2,391.5,164.6z"/>
		<path d="M405.3,160.8v6.7l0.8,0L406,171h-1.1l-0.1-2.5h-5.4l-0.1,2.5h-1.1l-0.1-3.5l0.7,0c0.3-0.5,0.6-1,0.8-1.6
			c0.3-1,0.4-2,0.4-3.1v-2H405.3z M401.4,163.1c0,1-0.1,2-0.4,2.9c-0.2,0.5-0.4,1-0.6,1.4h3.6v-5.6h-2.5V163.1z"/>
		<path d="M412.6,160.8v3.4h0.3l2.9-3.4h1.7l-3.4,3.5c1.2,0.1,2,1,2.6,2.4c0.2,0.5,0.5,1.3,0.8,1.9h-1.5c-0.2-0.3-0.5-0.9-0.7-1.6
			c-0.5-1.2-1.2-1.8-2.6-1.8h-0.3v3.4h-1.4v-7.7H412.6z"/>
		<path d="M428.2,160.8v6.7l0.8,0l-0.1,3.5h-1.1l-0.1-2.5h-5.4l-0.1,2.5h-1.1l-0.1-3.5l0.7,0c0.3-0.5,0.6-1,0.8-1.6
			c0.3-1,0.4-2,0.4-3.1v-2H428.2z M424.3,163.1c0,1-0.1,2-0.4,2.9c-0.2,0.5-0.4,1-0.6,1.4h3.6v-5.6h-2.5V163.1z"/>
		<path d="M430.7,163.3c0-1,0-1.8-0.1-2.5h1.3l0.1,1.3h0c0.6-0.9,1.5-1.5,2.8-1.5c1.9,0,3.3,1.6,3.3,3.9c0,2.8-1.7,4.2-3.5,4.2
			c-1,0-1.9-0.4-2.4-1.2h0v4.2h-1.4V163.3z M432.1,165.3c0,0.2,0,0.4,0.1,0.6c0.3,1,1.1,1.6,2.1,1.6c1.5,0,2.4-1.2,2.4-3
			c0-1.6-0.8-2.9-2.3-2.9c-1,0-1.9,0.7-2.1,1.7c0,0.2-0.1,0.4-0.1,0.6V165.3z"/>
		<path d="M440.2,160.8l1.7,4.6c0.2,0.5,0.4,1.1,0.5,1.6h0c0.1-0.5,0.3-1.1,0.5-1.6l1.5-4.5h1.5l-2.1,5.5c-1,2.7-1.7,4-2.7,4.9
			c-0.7,0.6-1.4,0.8-1.7,0.9l-0.4-1.2c0.4-0.1,0.8-0.3,1.2-0.7c0.4-0.3,0.9-0.8,1.2-1.6c0.1-0.1,0.1-0.3,0.1-0.3s0-0.2-0.1-0.4
			l-2.9-7.1H440.2z"/>
		<path d="M451.9,160.8v1.1h-3.4v6.6h-1.4v-7.7H451.9z"/>
		<path d="M454.5,160.8v3.3c0,1.2,0,2-0.1,3.1l0,0c0.5-0.9,0.7-1.5,1.2-2.4l2.4-4h1.6v7.7h-1.3v-3.3c0-1.3,0-1.9,0.1-3.2h0
			c-0.5,1-0.8,1.6-1.3,2.4c-0.7,1.2-1.6,2.7-2.4,4h-1.6v-7.7H454.5z"/>
		<path d="M462.2,160.8h1.7l1.4,3.9c0.2,0.6,0.5,1.5,0.7,2.1h0c0.2-0.6,0.6-1.8,0.9-2.7l1.2-3.4h1.7l0.5,7.7h-1.3l-0.2-3.7
			c0-0.8-0.1-1.8-0.1-2.8h0c-0.2,0.7-0.4,1.3-0.8,2.5l-1.5,3.9h-1l-1.4-3.8c-0.2-0.7-0.6-1.9-0.8-2.6h-0.1c0,0.9-0.1,1.9-0.1,2.8
			l-0.2,3.7h-1.3L462.2,160.8z"/>
		<path d="M475.7,163.3c0-1,0-1.8-0.1-2.5h1.3l0.1,1.3h0c0.6-0.9,1.5-1.5,2.8-1.5c1.9,0,3.3,1.6,3.3,3.9c0,2.8-1.7,4.2-3.5,4.2
			c-1,0-1.9-0.4-2.4-1.2h0v4.2h-1.4V163.3z M477.1,165.3c0,0.2,0,0.4,0.1,0.6c0.3,1,1.1,1.6,2.1,1.6c1.5,0,2.4-1.2,2.4-3
			c0-1.6-0.8-2.9-2.3-2.9c-1,0-1.9,0.7-2.1,1.7c0,0.2-0.1,0.4-0.1,0.6V165.3z"/>
		<path d="M489.1,168.5l-0.1-1h0c-0.4,0.6-1.3,1.2-2.4,1.2c-1.6,0-2.4-1.1-2.4-2.2c0-1.9,1.7-2.9,4.7-2.9v-0.2
			c0-0.6-0.2-1.8-1.8-1.8c-0.7,0-1.5,0.2-2,0.6l-0.3-0.9c0.6-0.4,1.6-0.7,2.5-0.7c2.4,0,2.9,1.6,2.9,3.2v2.9c0,0.7,0,1.3,0.1,1.9
			H489.1z M488.9,164.5c-1.5,0-3.3,0.2-3.3,1.7c0,0.9,0.6,1.3,1.3,1.3c1,0,1.6-0.6,1.9-1.3c0-0.1,0.1-0.3,0.1-0.4V164.5z"/>
		<path d="M493.2,164h0.7c1.2,0,2-0.5,2-1.3c0-0.7-0.6-1.1-1.5-1.1c-0.6,0-1.3,0.2-1.9,0.5l-0.4-0.9c0.8-0.5,1.7-0.7,2.6-0.7
			c1.2,0,2.6,0.5,2.6,2c0,1-0.9,1.6-1.7,1.8v0c1.2,0.1,2.1,0.8,2.1,1.9c0,1.7-1.7,2.3-3.3,2.3c-0.9,0-1.8-0.2-2.5-0.6l0.4-0.9
			c0.6,0.3,1.3,0.5,2,0.5c1.2,0,1.9-0.6,1.9-1.3c0-1-1.1-1.3-2.3-1.3h-0.7V164z"/>
		<path d="M505.4,160.8v6.7l0.8,0l-0.1,3.5H505l-0.1-2.5h-5.4l-0.1,2.5h-1.1l-0.1-3.5l0.7,0c0.3-0.5,0.6-1,0.8-1.6
			c0.3-1,0.4-2,0.4-3.1v-2H505.4z M501.5,163.1c0,1-0.1,2-0.4,2.9c-0.2,0.5-0.4,1-0.6,1.4h3.6v-5.6h-2.5V163.1z"/>
		<path d="M508.6,164.9c0,1.9,1.2,2.7,2.7,2.7c1,0,1.6-0.2,2.1-0.4l0.2,1c-0.5,0.2-1.3,0.5-2.6,0.5c-2.4,0-3.8-1.6-3.8-3.9
			c0-2.3,1.4-4.2,3.6-4.2c2.5,0,3.2,2.2,3.2,3.6c0,0.3,0,0.5,0,0.7H508.6z M512.8,163.9c0-0.9-0.4-2.3-2-2.3c-1.4,0-2,1.3-2.2,2.3
			H512.8z"/>
		<path d="M521.7,160.8v7.7h-1.4v-6.6h-2.7v2c0,2.2-0.2,3.6-1.2,4.3c-0.4,0.3-0.8,0.5-1.5,0.5l-0.1-1.1c0.3,0,0.6-0.2,0.8-0.3
			c0.7-0.5,0.8-1.6,0.8-3.3v-3.1H521.7z"/>
		<path d="M528.3,168.5l-0.1-1h0c-0.4,0.6-1.3,1.2-2.4,1.2c-1.6,0-2.4-1.1-2.4-2.2c0-1.9,1.7-2.9,4.7-2.9v-0.2
			c0-0.6-0.2-1.8-1.8-1.8c-0.7,0-1.5,0.2-2,0.6l-0.3-0.9c0.6-0.4,1.6-0.7,2.5-0.7c2.4,0,2.9,1.6,2.9,3.2v2.9c0,0.7,0,1.3,0.1,1.9
			H528.3z M528.1,164.5c-1.5,0-3.3,0.2-3.3,1.7c0,0.9,0.6,1.3,1.3,1.3c1,0,1.6-0.6,1.9-1.3c0-0.1,0.1-0.3,0.1-0.4V164.5z"/>
		<path d="M531.8,160.8h1.7l1.4,3.9c0.2,0.6,0.5,1.5,0.7,2.1h0c0.2-0.6,0.6-1.8,0.9-2.7l1.2-3.4h1.7l0.5,7.7h-1.3l-0.2-3.7
			c0-0.8-0.1-1.8-0.1-2.8h0c-0.2,0.7-0.4,1.3-0.8,2.5l-1.5,3.9h-1l-1.4-3.8c-0.2-0.7-0.6-1.9-0.8-2.6h-0.1c0,0.9-0.1,1.9-0.1,2.8
			l-0.2,3.7h-1.3L531.8,160.8z"/>
	</g>
	<g>
		<g>
			<path fill="none" stroke="#000000" stroke-miterlimit="10" d="M342.8,163c0,0-16.9,1.3-28.6,23.2"/>
			<g>
				<polygon points="312.3,181.3 313.2,181.1 314.4,185.9 319.1,184.4 319.4,185.3 313.7,187.2 				"/>
			</g>
		</g>
	</g>
	<g>
		<path d="M10.6,157.7v4.5h5.2v-4.5h1.4v10.8h-1.4v-5.1h-5.2v5.1H9.2v-10.8H10.6z"/>
		<path d="M23.9,168.5l-0.1-1h0c-0.4,0.6-1.3,1.2-2.4,1.2c-1.6,0-2.4-1.1-2.4-2.2c0-1.9,1.7-2.9,4.7-2.9v-0.2c0-0.6-0.2-1.8-1.8-1.8
			c-0.7,0-1.5,0.2-2,0.6l-0.3-0.9c0.6-0.4,1.6-0.7,2.5-0.7c2.4,0,2.9,1.6,2.9,3.2v2.9c0,0.7,0,1.3,0.1,1.9H23.9z M23.7,164.5
			c-1.5,0-3.3,0.2-3.3,1.7c0,0.9,0.6,1.3,1.3,1.3c1,0,1.6-0.6,1.9-1.3c0-0.1,0.1-0.3,0.1-0.4V164.5z"/>
		<path d="M27.9,164h0.7c1.2,0,2-0.5,2-1.3c0-0.7-0.6-1.1-1.5-1.1c-0.6,0-1.3,0.2-1.9,0.5l-0.4-0.9c0.8-0.5,1.7-0.7,2.6-0.7
			c1.2,0,2.6,0.5,2.6,2c0,1-0.9,1.6-1.7,1.8v0c1.2,0.1,2.1,0.8,2.1,1.9c0,1.7-1.7,2.3-3.3,2.3c-0.9,0-1.8-0.2-2.5-0.6l0.4-0.9
			c0.6,0.3,1.3,0.5,2,0.5c1.2,0,1.9-0.6,1.9-1.3c0-1-1.1-1.3-2.3-1.3h-0.7V164z"/>
		<path d="M34.2,160.8c0.5-0.1,1.6-0.2,2.5-0.2c1.3,0,3.4,0.2,3.4,1.9c0,1-0.7,1.6-1.6,1.7v0c1.1,0.2,2,0.8,2,1.9
			c0,2-2.6,2.3-4.1,2.3c-0.9,0-1.8-0.1-2.2-0.1V160.8z M35.5,167.6c0.4,0,0.7,0.1,1.1,0.1c0.9,0,2.4-0.2,2.4-1.3s-1.1-1.4-2.5-1.4
			h-1V167.6z M35.5,164h1.1c1,0,2.1-0.3,2.1-1.2c0-0.8-0.7-1.1-2.1-1.1c-0.5,0-0.8,0-1.1,0.1V164z"/>
		<path d="M46.5,168.5l-0.1-1h0c-0.4,0.6-1.3,1.2-2.4,1.2c-1.6,0-2.4-1.1-2.4-2.2c0-1.9,1.7-2.9,4.7-2.9v-0.2c0-0.6-0.2-1.8-1.8-1.8
			c-0.7,0-1.5,0.2-2,0.6l-0.3-0.9c0.6-0.4,1.6-0.7,2.5-0.7c2.4,0,2.9,1.6,2.9,3.2v2.9c0,0.7,0,1.3,0.1,1.9H46.5z M46.3,164.5
			c-1.5,0-3.3,0.2-3.3,1.7c0,0.9,0.6,1.3,1.3,1.3c1,0,1.6-0.6,1.9-1.3c0-0.1,0.1-0.3,0.1-0.4V164.5z"/>
		<path d="M51.3,160.8v3.1h3.7v-3.1h1.4v7.7h-1.4V165h-3.7v3.5h-1.4v-7.7H51.3z"/>
		<path d="M59.9,160.8v3.3c0,1.2,0,2-0.1,3.1l0,0c0.5-0.9,0.7-1.5,1.2-2.4l2.4-4h1.6v7.7h-1.3v-3.3c0-1.3,0-1.9,0.1-3.2h0
			c-0.5,1-0.8,1.6-1.3,2.4c-0.7,1.2-1.6,2.7-2.4,4h-1.6v-7.7H59.9z"/>
		<path d="M68.3,164.9c0,1.9,1.2,2.7,2.7,2.7c1,0,1.6-0.2,2.1-0.4l0.2,1c-0.5,0.2-1.3,0.5-2.6,0.5c-2.4,0-3.8-1.6-3.8-3.9
			c0-2.3,1.4-4.2,3.6-4.2c2.5,0,3.2,2.2,3.2,3.6c0,0.3,0,0.5,0,0.7H68.3z M72.4,163.9c0-0.9-0.4-2.3-2-2.3c-1.4,0-2,1.3-2.2,2.3
			H72.4z"/>
		<path d="M78.9,163.3c0-1,0-1.8-0.1-2.5h1.3l0.1,1.3h0c0.6-0.9,1.5-1.5,2.8-1.5c1.9,0,3.3,1.6,3.3,3.9c0,2.8-1.7,4.2-3.5,4.2
			c-1,0-1.9-0.4-2.4-1.2h0v4.2h-1.4V163.3z M80.3,165.3c0,0.2,0,0.4,0.1,0.6c0.3,1,1.1,1.6,2.1,1.6c1.5,0,2.4-1.2,2.4-3
			c0-1.6-0.8-2.9-2.3-2.9c-1,0-1.9,0.7-2.1,1.7c0,0.2-0.1,0.4-0.1,0.6V165.3z"/>
		<path d="M92.3,168.5l-0.1-1h0c-0.4,0.6-1.3,1.2-2.4,1.2c-1.6,0-2.4-1.1-2.4-2.2c0-1.9,1.7-2.9,4.7-2.9v-0.2c0-0.6-0.2-1.8-1.8-1.8
			c-0.7,0-1.5,0.2-2,0.6l-0.3-0.9c0.6-0.4,1.6-0.7,2.5-0.7c2.4,0,2.9,1.6,2.9,3.2v2.9c0,0.7,0,1.3,0.1,1.9H92.3z M92.1,164.5
			c-1.5,0-3.3,0.2-3.3,1.7c0,0.9,0.6,1.3,1.3,1.3c1,0,1.6-0.6,1.9-1.3c0-0.1,0.1-0.3,0.1-0.4V164.5z"/>
		<path d="M96.4,164H97c1.2,0,2-0.5,2-1.3c0-0.7-0.6-1.1-1.5-1.1c-0.6,0-1.3,0.2-1.9,0.5l-0.4-0.9c0.8-0.5,1.7-0.7,2.6-0.7
			c1.2,0,2.6,0.5,2.6,2c0,1-0.9,1.6-1.7,1.8v0c1.2,0.1,2.1,0.8,2.1,1.9c0,1.7-1.7,2.3-3.3,2.3c-0.9,0-1.8-0.2-2.5-0.6l0.4-0.9
			c0.6,0.3,1.3,0.5,2,0.5c1.2,0,1.9-0.6,1.9-1.3c0-1-1.1-1.3-2.3-1.3h-0.7V164z"/>
		<path d="M108.6,160.8v6.7l0.8,0l-0.1,3.5h-1.1l-0.1-2.5h-5.4l-0.1,2.5h-1.1l-0.1-3.5l0.7,0c0.3-0.5,0.6-1,0.8-1.6
			c0.3-1,0.4-2,0.4-3.1v-2H108.6z M104.7,163.1c0,1-0.1,2-0.4,2.9c-0.2,0.5-0.4,1-0.6,1.4h3.6v-5.6h-2.5V163.1z"/>
		<path d="M111.8,164.9c0,1.9,1.2,2.7,2.7,2.7c1,0,1.6-0.2,2.1-0.4l0.2,1c-0.5,0.2-1.3,0.5-2.6,0.5c-2.4,0-3.8-1.6-3.8-3.9
			c0-2.3,1.4-4.2,3.6-4.2c2.5,0,3.2,2.2,3.2,3.6c0,0.3,0,0.5,0,0.7H111.8z M115.9,163.9c0-0.9-0.4-2.3-2-2.3c-1.4,0-2,1.3-2.2,2.3
			H115.9z"/>
		<path d="M124.9,160.8v7.7h-1.4v-6.6h-2.7v2c0,2.2-0.2,3.6-1.2,4.3c-0.4,0.3-0.8,0.5-1.5,0.5l-0.1-1.1c0.3,0,0.6-0.2,0.8-0.3
			c0.7-0.5,0.8-1.6,0.8-3.3v-3.1H124.9z"/>
		<path d="M131.5,168.5l-0.1-1h0c-0.4,0.6-1.3,1.2-2.4,1.2c-1.6,0-2.4-1.1-2.4-2.2c0-1.9,1.7-2.9,4.7-2.9v-0.2
			c0-0.6-0.2-1.8-1.8-1.8c-0.7,0-1.5,0.2-2,0.6l-0.3-0.9c0.6-0.4,1.6-0.7,2.5-0.7c2.4,0,2.9,1.6,2.9,3.2v2.9c0,0.7,0,1.3,0.1,1.9
			H131.5z M131.3,164.5c-1.5,0-3.3,0.2-3.3,1.7c0,0.9,0.6,1.3,1.3,1.3c1,0,1.6-0.6,1.9-1.3c0-0.1,0.1-0.3,0.1-0.4V164.5z"/>
	</g>
	<g>
		<g>
			<path fill="none" stroke="#000000" stroke-miterlimit="10" d="M138.7,163c0,0,16.9,1.3,28.6,23.2"/>
			<g>
				<polygon points="162.1,185.3 162.4,184.4 167.1,185.9 168.3,181.1 169.2,181.3 167.8,187.2 				"/>
			</g>
		</g>
	</g>
	<g>
		<path d="M36.4,28.3v14.8h-1.9V29.9h-6.9v13.2h-1.9V28.3H36.4z"/>
		<path d="M45.5,43.1l-0.2-1.3h-0.1c-0.6,0.8-1.7,1.6-3.3,1.6c-2.2,0-3.3-1.5-3.3-3.1c0-2.6,2.3-4,6.4-4v-0.2c0-0.9-0.2-2.5-2.4-2.5
			c-1,0-2,0.3-2.8,0.8l-0.4-1.3c0.9-0.6,2.2-0.9,3.5-0.9c3.3,0,4,2.2,4,4.4v4c0,0.9,0,1.8,0.2,2.6H45.5z M45.3,37.7
			c-2.1,0-4.5,0.3-4.5,2.4c0,1.3,0.8,1.8,1.8,1.8c1.4,0,2.3-0.9,2.6-1.8c0.1-0.2,0.1-0.4,0.1-0.6V37.7z"/>
		<path d="M52.1,32.5v4.3h5.1v-4.3h1.9v10.6h-1.9v-4.8h-5.1v4.8h-1.9V32.5H52.1z"/>
		<path d="M63.3,38.1c0,2.6,1.7,3.7,3.7,3.7c1.4,0,2.2-0.2,2.9-0.5l0.3,1.4c-0.7,0.3-1.8,0.7-3.5,0.7c-3.3,0-5.2-2.2-5.2-5.4
			c0-3.2,1.9-5.7,5-5.7c3.5,0,4.4,3.1,4.4,5c0,0.4,0,0.7-0.1,0.9H63.3z M69,36.8c0-1.2-0.5-3.1-2.7-3.1c-2,0-2.8,1.8-3,3.1H69z"/>
		<path d="M81.4,32.5v10.6h-1.9V34h-3.7v2.8c0,3-0.3,5-1.7,5.9c-0.5,0.4-1.1,0.7-2.1,0.7l-0.2-1.5c0.4-0.1,0.8-0.2,1.1-0.4
			c1-0.7,1.1-2.2,1.1-4.6v-4.3H81.4z"/>
		<path d="M86.4,32.5v3.6c0.4-0.1,1.2-0.1,1.8-0.1c2.4,0,4.9,0.7,4.9,3.6c0,1.1-0.4,1.9-1.1,2.4c-1.2,1-3.1,1.2-4.6,1.2
			c-1.1,0-2.1-0.1-2.9-0.2V32.5H86.4z M86.4,41.8c0.4,0,0.8,0.1,1.4,0.1c1.5,0,3.3-0.5,3.3-2.3c0-1.8-1.9-2.2-3.4-2.2
			c-0.5,0-0.9,0-1.4,0.1V41.8z"/>
		<path d="M108.4,32.5v9.2l1.1,0l-0.1,4.8h-1.5l-0.1-3.4h-7.4l-0.1,3.4h-1.5l-0.1-4.8l0.9,0c0.5-0.7,0.8-1.4,1.1-2.2
			c0.4-1.3,0.6-2.8,0.6-4.2v-2.8H108.4z M103,35.7c0,1.4-0.2,2.8-0.5,4c-0.2,0.7-0.5,1.4-0.9,2h4.9v-7.7H103V35.7z"/>
		<path d="M112.8,38.1c0,2.6,1.7,3.7,3.7,3.7c1.4,0,2.2-0.2,2.9-0.5l0.3,1.4c-0.7,0.3-1.8,0.7-3.5,0.7c-3.3,0-5.2-2.2-5.2-5.4
			c0-3.2,1.9-5.7,5-5.7c3.5,0,4.4,3.1,4.4,5c0,0.4,0,0.7-0.1,0.9H112.8z M118.5,36.8c0-1.2-0.5-3.1-2.7-3.1c-2,0-2.8,1.8-3,3.1
			H118.5z"/>
		<path d="M124.5,32.5V37c0,1.7,0,2.8-0.1,4.3l0.1,0c0.6-1.3,1-2,1.7-3.3l3.3-5.5h2.3v10.6h-1.8v-4.5c0-1.7,0-2.6,0.1-4.4H130
			c-0.7,1.4-1.1,2.2-1.8,3.3c-1,1.6-2.2,3.7-3.3,5.6h-2.2V32.5H124.5z M125.8,28.1c0.1,0.9,0.5,1.7,1.4,1.7c0.9,0,1.4-0.7,1.5-1.7
			h1.4c-0.1,1.8-1.2,2.7-2.9,2.7c-1.9,0-2.7-1.2-2.8-2.7H125.8z"/>
		<path d="M142.5,42.7c-0.5,0.3-1.6,0.6-3.1,0.6c-3.2,0-5.3-2.2-5.3-5.4c0-3.3,2.2-5.7,5.7-5.7c1.1,0,2.2,0.3,2.7,0.5l-0.4,1.5
			c-0.5-0.3-1.2-0.5-2.2-0.5c-2.4,0-3.8,1.8-3.8,4c0,2.5,1.6,4,3.7,4c1.1,0,1.8-0.3,2.4-0.5L142.5,42.7z"/>
		<path d="M152.3,32.5V34H149v9.1h-1.9V34h-3.3v-1.5H152.3z"/>
		<path d="M154,32.6c0.7-0.1,2.1-0.2,3.4-0.2c1.8,0,4.7,0.3,4.7,2.7c0,1.3-1,2.1-2.2,2.4v0c1.6,0.2,2.7,1.1,2.7,2.6
			c0,2.8-3.5,3.1-5.6,3.1c-1.2,0-2.4-0.1-3-0.1V32.6z M155.8,41.8c0.5,0.1,0.9,0.1,1.6,0.1c1.3,0,3.2-0.3,3.2-1.8
			c0-1.5-1.5-1.9-3.4-1.9h-1.4V41.8z M155.8,36.9h1.5c1.4,0,2.9-0.4,2.9-1.7c0-1.1-0.9-1.6-2.9-1.6c-0.6,0-1,0-1.5,0.1V36.9z"/>
		<path d="M166.8,32.5V37c0,1.7,0,2.8-0.1,4.3l0.1,0c0.6-1.3,1-2,1.7-3.3l3.3-5.5h2.3v10.6h-1.8v-4.5c0-1.7,0-2.6,0.1-4.4h-0.1
			c-0.7,1.4-1.1,2.2-1.8,3.3c-1,1.6-2.2,3.7-3.3,5.6H165V32.5H166.8z"/>
		<path d="M179,32.5V37c0,1.7,0,2.8-0.1,4.3l0.1,0c0.6-1.3,1-2,1.7-3.3l3.3-5.5h2.3v10.6h-1.8v-4.5c0-1.7,0-2.6,0.1-4.4h-0.1
			c-0.7,1.4-1.1,2.2-1.8,3.3c-1,1.6-2.2,3.7-3.3,5.6h-2.2V32.5H179z M180.3,28.1c0.1,0.9,0.5,1.7,1.4,1.7c0.9,0,1.4-0.7,1.5-1.7h1.4
			c-0.1,1.8-1.2,2.7-2.9,2.7c-1.9,0-2.7-1.2-2.8-2.7H180.3z"/>
		<path d="M188.9,34.2c0-0.8,0.6-1.4,1.3-1.4c0.8,0,1.3,0.6,1.3,1.4c0,0.8-0.5,1.4-1.3,1.4C189.5,35.6,188.9,35,188.9,34.2z
			 M188.9,42c0-0.8,0.6-1.4,1.3-1.4c0.8,0,1.3,0.6,1.3,1.4c0,0.8-0.5,1.4-1.3,1.4C189.5,43.4,188.9,42.8,188.9,42z"/>
		<path d="M206.9,32.5v9.2l1.1,0l-0.1,4.8h-1.5l-0.1-3.4h-7.4l-0.1,3.4h-1.5l-0.1-4.8l0.9,0c0.5-0.7,0.8-1.4,1.1-2.2
			c0.4-1.3,0.6-2.8,0.6-4.2v-2.8H206.9z M201.5,35.7c0,1.4-0.2,2.8-0.6,4c-0.2,0.7-0.5,1.4-0.9,2h4.9v-7.7h-3.5V35.7z"/>
		<path d="M219.8,37.7c0,3.9-2.7,5.7-5.3,5.7c-2.9,0-5.1-2.1-5.1-5.5c0-3.6,2.3-5.7,5.3-5.7C217.8,32.2,219.8,34.5,219.8,37.7z
			 M211.4,37.8c0,2.3,1.3,4.1,3.2,4.1c1.8,0,3.2-1.7,3.2-4.1c0-1.8-0.9-4.1-3.2-4.1C212.4,33.7,211.4,35.8,211.4,37.8z"/>
		<path d="M229.9,42.7c-0.5,0.3-1.6,0.6-3.1,0.6c-3.2,0-5.3-2.2-5.3-5.4c0-3.3,2.2-5.7,5.7-5.7c1.1,0,2.2,0.3,2.7,0.5l-0.4,1.5
			c-0.5-0.3-1.2-0.5-2.2-0.5c-2.4,0-3.8,1.8-3.8,4c0,2.5,1.6,4,3.7,4c1.1,0,1.8-0.3,2.4-0.5L229.9,42.7z"/>
		<path d="M239.7,32.5V34h-3.3v9.1h-1.9V34h-3.3v-1.5H239.7z"/>
		<path d="M242.5,32.5l2.3,6.3c0.2,0.7,0.5,1.5,0.7,2.2h0c0.2-0.6,0.4-1.5,0.7-2.2l2.1-6.2h2l-2.9,7.6c-1.4,3.7-2.3,5.5-3.7,6.7
			c-0.9,0.8-1.9,1.2-2.4,1.3l-0.5-1.6c0.5-0.2,1.1-0.5,1.7-0.9c0.5-0.4,1.2-1.2,1.6-2.2c0.1-0.2,0.2-0.4,0.2-0.5s0-0.3-0.1-0.5
			l-3.9-9.8H242.5z"/>
		<path d="M261,32.5v10.6H259V34h-5v9.1h-1.9V32.5H261z"/>
		<path d="M266,32.5v4.3h5.1v-4.3h1.9v10.6H271v-4.8H266v4.8h-1.9V32.5H266z"/>
		<path d="M278,32.5v3.6c0.4-0.1,1-0.1,1.7-0.1c2.3,0,4.6,0.9,4.6,3.6c0,1.1-0.4,1.9-1.1,2.5c-1.2,1-2.9,1.2-4.3,1.2
			c-1.1,0-2.1-0.1-2.9-0.2V32.5H278z M278,41.8c0.4,0,0.8,0.1,1.3,0.1c1.5,0,3.1-0.6,3.1-2.3c0-1.7-1.5-2.2-3-2.2
			c-0.5,0-1,0-1.4,0.1V41.8z M287.6,32.5v10.6h-1.9V32.5H287.6z"/>
		<path d="M291.8,38.1c0,2.6,1.7,3.7,3.7,3.7c1.4,0,2.2-0.2,2.9-0.5l0.3,1.4c-0.7,0.3-1.8,0.7-3.5,0.7c-3.3,0-5.2-2.2-5.2-5.4
			c0-3.2,1.9-5.7,5-5.7c3.5,0,4.4,3.1,4.4,5c0,0.4,0,0.7-0.1,0.9H291.8z M297.5,36.8c0-1.2-0.5-3.1-2.7-3.1c-2,0-2.8,1.8-3,3.1
			H297.5z"/>
		<path d="M314.7,32.5v9.2l1.1,0l-0.1,4.8h-1.5l-0.1-3.4h-7.4l-0.1,3.4h-1.5l-0.1-4.8l0.9,0c0.5-0.7,0.8-1.4,1.1-2.2
			c0.4-1.3,0.6-2.8,0.6-4.2v-2.8H314.7z M309.3,35.7c0,1.4-0.2,2.8-0.6,4c-0.2,0.7-0.5,1.4-0.9,2h4.9v-7.7h-3.5V35.7z"/>
		<path d="M319.1,38.1c0,2.6,1.7,3.7,3.7,3.7c1.4,0,2.2-0.2,2.9-0.5l0.3,1.4c-0.7,0.3-1.8,0.7-3.5,0.7c-3.3,0-5.2-2.2-5.2-5.4
			c0-3.2,1.9-5.7,5-5.7c3.5,0,4.4,3.1,4.4,5c0,0.4,0,0.7-0.1,0.9H319.1z M324.8,36.8c0-1.2-0.5-3.1-2.7-3.1c-2,0-2.8,1.8-3,3.1
			H324.8z"/>
		<path d="M330.8,32.5V37c0,1.7,0,2.8-0.1,4.3l0.1,0c0.6-1.3,1-2,1.7-3.3l3.3-5.5h2.3v10.6h-1.8v-4.5c0-1.7,0-2.6,0.1-4.4h-0.1
			c-0.7,1.4-1.1,2.2-1.8,3.3c-1,1.6-2.2,3.7-3.3,5.6H329V32.5H330.8z M332.1,28.1c0.1,0.9,0.5,1.7,1.4,1.7c0.9,0,1.4-0.7,1.5-1.7
			h1.4c-0.1,1.8-1.2,2.7-2.9,2.7c-1.9,0-2.7-1.2-2.8-2.7H332.1z"/>
		<path d="M348.8,42.7c-0.5,0.3-1.6,0.6-3.1,0.6c-3.2,0-5.3-2.2-5.3-5.4c0-3.3,2.2-5.7,5.7-5.7c1.1,0,2.2,0.3,2.7,0.5l-0.4,1.5
			c-0.5-0.3-1.2-0.5-2.2-0.5c-2.4,0-3.8,1.8-3.8,4c0,2.5,1.6,4,3.7,4c1.1,0,1.8-0.3,2.4-0.5L348.8,42.7z"/>
		<path d="M358.6,32.5V34h-3.3v9.1h-1.9V34h-3.3v-1.5H358.6z"/>
		<path d="M360.3,32.6c0.7-0.1,2.1-0.2,3.4-0.2c1.8,0,4.7,0.3,4.7,2.7c0,1.3-1,2.1-2.2,2.4v0c1.6,0.2,2.7,1.1,2.7,2.6
			c0,2.8-3.5,3.1-5.6,3.1c-1.2,0-2.4-0.1-3-0.1V32.6z M362.1,41.8c0.6,0.1,0.9,0.1,1.6,0.1c1.3,0,3.2-0.3,3.2-1.8
			c0-1.5-1.5-1.9-3.4-1.9h-1.4V41.8z M362.1,36.9h1.5c1.4,0,2.9-0.4,2.9-1.7c0-1.1-0.9-1.6-2.9-1.6c-0.6,0-1,0-1.5,0.1V36.9z"/>
		<path d="M373.1,32.5V37c0,1.7,0,2.8-0.1,4.3l0.1,0c0.6-1.3,1-2,1.7-3.3l3.3-5.5h2.3v10.6h-1.8v-4.5c0-1.7,0-2.6,0.1-4.4h-0.1
			c-0.7,1.4-1.1,2.2-1.8,3.3c-1,1.6-2.2,3.7-3.3,5.6h-2.2V32.5H373.1z"/>
		<path d="M391.3,43.1h-1.9v-4.5H388c-0.8,0-1.4,0.2-1.8,0.6c-0.8,0.6-1.1,2-1.5,3c-0.1,0.3-0.3,0.6-0.4,0.9h-2.1
			c0.2-0.4,0.5-0.7,0.7-1.2c0.5-1,0.7-2.4,1.7-3.2c0.3-0.3,0.7-0.5,1.2-0.6V38c-1.4-0.2-2.8-1-2.8-2.6c0-1.1,0.6-1.8,1.4-2.3
			c0.9-0.5,2.2-0.7,3.6-0.7c1.3,0,2.5,0.1,3.4,0.2V43.1z M389.4,33.7c-0.5-0.1-0.9-0.1-1.6-0.1c-1.3,0-2.9,0.4-2.9,1.8
			c0,1.4,1.7,1.8,2.8,1.8c0.8,0,1.2,0,1.7,0V33.7z"/>
		<path d="M399.1,32.6c0.7-0.1,2.1-0.2,3.4-0.2c1.8,0,4.7,0.3,4.7,2.7c0,1.3-1,2.1-2.2,2.4v0c1.6,0.2,2.7,1.1,2.7,2.6
			c0,2.8-3.5,3.1-5.6,3.1c-1.2,0-2.4-0.1-3-0.1V32.6z M400.9,41.8c0.5,0.1,0.9,0.1,1.6,0.1c1.3,0,3.2-0.3,3.2-1.8
			c0-1.5-1.5-1.9-3.4-1.9h-1.4V41.8z M401,36.9h1.5c1.4,0,2.9-0.4,2.9-1.7c0-1.1-0.9-1.6-2.9-1.6c-0.6,0-1,0-1.5,0.1V36.9z"/>
		<path d="M34.3,58.9v10.6h-1.9v-9.1h-5v9.1h-1.9V58.9H34.3z"/>
		<path d="M37.5,62.3c0-1.4,0-2.5-0.1-3.5h1.7l0.1,1.8h0c0.8-1.3,2-2.1,3.8-2.1c2.6,0,4.5,2.2,4.5,5.4c0,3.8-2.3,5.7-4.8,5.7
			c-1.4,0-2.6-0.6-3.3-1.7h0v5.8h-1.9V62.3z M39.4,65.2c0,0.3,0,0.6,0.1,0.8c0.4,1.3,1.5,2.3,2.9,2.3c2,0,3.2-1.7,3.2-4.1
			c0-2.1-1.1-4-3.2-4c-1.3,0-2.6,0.9-2.9,2.4c-0.1,0.2-0.1,0.5-0.1,0.8V65.2z"/>
		<path d="M51.8,58.9v4.5c0,1.7,0,2.8-0.1,4.3l0.1,0c0.6-1.3,1-2,1.7-3.3l3.3-5.5H59v10.6h-1.8V65c0-1.7,0-2.6,0.1-4.4h-0.1
			c-0.7,1.4-1.1,2.2-1.8,3.3c-1,1.6-2.2,3.7-3.3,5.6H50V58.9H51.8z"/>
		<path d="M70.3,58.9v10.6h-1.9v-9.1h-3.7v2.8c0,3-0.3,5-1.7,5.9c-0.5,0.4-1.1,0.7-2.1,0.7l-0.2-1.5c0.4-0.1,0.8-0.2,1.1-0.4
			c1-0.7,1.1-2.2,1.1-4.6v-4.3H70.3z"/>
		<path d="M83.1,64.1c0,3.9-2.7,5.7-5.3,5.7c-2.9,0-5.1-2.1-5.1-5.5c0-3.6,2.3-5.7,5.3-5.7C81,58.6,83.1,60.9,83.1,64.1z M74.6,64.2
			c0,2.3,1.3,4.1,3.2,4.1c1.8,0,3.2-1.7,3.2-4.1c0-1.8-0.9-4.1-3.2-4.1C75.6,60.1,74.6,62.2,74.6,64.2z"/>
		<path d="M86.2,58.9l3.5,4.6h0.4v-4.6H92v4.6h0.4l3.5-4.6h2.2l-4.2,4.8c1.6,0.2,2.6,1.1,3.2,2.8c0.4,1,0.7,2.2,1.2,3h-1.9
			c-0.4-0.6-0.7-1.5-1-2.4c-0.7-1.7-1.7-2.3-3-2.3H92v4.7h-1.8v-4.7h-0.4c-1.5,0-2.4,0.6-3.1,2.3c-0.4,0.9-0.6,1.8-1,2.4h-1.9
			c0.4-0.9,0.8-2,1.2-3c0.7-1.7,1.6-2.7,3.2-2.8L84,58.9H86.2z"/>
		<path d="M101,64.5c0,2.6,1.7,3.7,3.7,3.7c1.4,0,2.2-0.2,2.9-0.5l0.3,1.4c-0.7,0.3-1.8,0.7-3.5,0.7c-3.3,0-5.2-2.2-5.2-5.4
			c0-3.2,1.9-5.7,5-5.7c3.5,0,4.4,3.1,4.4,5c0,0.4,0,0.7-0.1,0.9H101z M106.6,63.2c0-1.2-0.5-3.1-2.7-3.1c-2,0-2.8,1.8-3,3.1H106.6z
			"/>
		<path d="M112.8,58.9v4.3h5.1v-4.3h1.9v10.6h-1.9v-4.8h-5.1v4.8h-1.9V58.9H112.8z"/>
		<path d="M124.7,58.9v4.5c0,1.7,0,2.8-0.1,4.3l0.1,0c0.6-1.3,1-2,1.7-3.3l3.3-5.5h2.3v10.6h-1.8V65c0-1.7,0-2.6,0.1-4.4h-0.1
			c-0.7,1.4-1.1,2.2-1.8,3.3c-1,1.6-2.2,3.7-3.3,5.6h-2.2V58.9H124.7z"/>
		<path d="M136.9,58.9v4.5c0,1.7,0,2.8-0.1,4.3l0.1,0c0.6-1.3,1-2,1.7-3.3l3.3-5.5h2.3v10.6h-1.8V65c0-1.7,0-2.6,0.1-4.4h-0.1
			c-0.7,1.4-1.1,2.2-1.8,3.3c-1,1.6-2.2,3.7-3.3,5.6h-2.2V58.9H136.9z"/>
		<path d="M146.8,68.4c0-0.8,0.6-1.4,1.3-1.4c0.8,0,1.3,0.6,1.3,1.4c0,0.8-0.5,1.4-1.3,1.4C147.3,69.8,146.8,69.2,146.8,68.4z"/>
		<path d="M167.3,54.7v14.8h-1.9V56.3h-6.9v13.2h-1.9V54.7H167.3z"/>
		<path d="M176.5,69.5l-0.2-1.3h-0.1c-0.6,0.8-1.7,1.6-3.3,1.6c-2.2,0-3.3-1.5-3.3-3.1c0-2.6,2.3-4,6.4-4v-0.2
			c0-0.9-0.2-2.5-2.4-2.5c-1,0-2,0.3-2.8,0.8l-0.4-1.3c0.9-0.6,2.2-0.9,3.5-0.9c3.3,0,4,2.2,4,4.4v4c0,0.9,0,1.8,0.2,2.6H176.5z
			 M176.2,64.1c-2.1,0-4.5,0.3-4.5,2.4c0,1.3,0.8,1.8,1.8,1.8c1.4,0,2.3-0.9,2.6-1.8c0.1-0.2,0.1-0.4,0.1-0.6V64.1z"/>
		<path d="M183,58.9v4.3h5.1v-4.3h1.9v10.6h-1.9v-4.8H183v4.8h-1.9V58.9H183z"/>
		<path d="M194.3,64.5c0,2.6,1.7,3.7,3.7,3.7c1.4,0,2.2-0.2,2.9-0.5l0.3,1.4c-0.7,0.3-1.8,0.7-3.5,0.7c-3.3,0-5.2-2.2-5.2-5.4
			c0-3.2,1.9-5.7,5-5.7c3.5,0,4.4,3.1,4.4,5c0,0.4,0,0.7-0.1,0.9H194.3z M199.9,63.2c0-1.2-0.5-3.1-2.7-3.1c-2,0-2.8,1.8-3,3.1
			H199.9z"/>
		<path d="M212.3,58.9v10.6h-1.9v-9.1h-3.7v2.8c0,3-0.3,5-1.7,5.9c-0.5,0.4-1.1,0.7-2.1,0.7l-0.2-1.5c0.4-0.1,0.8-0.2,1.1-0.4
			c1-0.7,1.1-2.2,1.1-4.6v-4.3H212.3z"/>
		<path d="M217.3,58.9v3.6c0.4-0.1,1.2-0.1,1.8-0.1c2.4,0,4.9,0.7,4.9,3.6c0,1.1-0.4,1.9-1.1,2.4c-1.2,1-3.1,1.2-4.6,1.2
			c-1.1,0-2.1-0.1-2.9-0.2V58.9H217.3z M217.3,68.2c0.4,0,0.8,0.1,1.4,0.1c1.5,0,3.3-0.5,3.3-2.3c0-1.8-1.9-2.2-3.4-2.2
			c-0.5,0-0.9,0-1.4,0.1V68.2z"/>
		<path d="M239.3,58.9v9.2l1.1,0l-0.1,4.8h-1.5l-0.1-3.4h-7.4l-0.1,3.4h-1.5l-0.1-4.8l0.9,0c0.5-0.7,0.8-1.4,1.1-2.2
			c0.4-1.3,0.6-2.8,0.6-4.2v-2.8H239.3z M233.9,62.1c0,1.4-0.2,2.8-0.6,4c-0.2,0.7-0.5,1.4-0.9,2h4.9v-7.7h-3.5V62.1z"/>
		<path d="M243.7,64.5c0,2.6,1.7,3.7,3.7,3.7c1.4,0,2.2-0.2,2.9-0.5l0.3,1.4c-0.7,0.3-1.8,0.7-3.5,0.7c-3.3,0-5.2-2.2-5.2-5.4
			c0-3.2,1.9-5.7,5-5.7c3.5,0,4.4,3.1,4.4,5c0,0.4,0,0.7-0.1,0.9H243.7z M249.4,63.2c0-1.2-0.5-3.1-2.7-3.1c-2,0-2.8,1.8-3,3.1
			H249.4z"/>
		<path d="M255.5,58.9v4.5c0,1.7,0,2.8-0.1,4.3l0.1,0c0.6-1.3,1-2,1.7-3.3l3.3-5.5h2.3v10.6h-1.8V65c0-1.7,0-2.6,0.1-4.4h-0.1
			c-0.7,1.4-1.1,2.2-1.8,3.3c-1,1.6-2.2,3.7-3.3,5.6h-2.2V58.9H255.5z M256.7,54.5c0.1,0.9,0.5,1.7,1.4,1.7c0.9,0,1.4-0.7,1.5-1.7
			h1.4c-0.1,1.8-1.2,2.7-2.9,2.7c-1.9,0-2.7-1.2-2.8-2.7H256.7z"/>
		<path d="M273.5,69.1c-0.5,0.3-1.6,0.6-3.1,0.6c-3.2,0-5.3-2.2-5.3-5.4c0-3.3,2.2-5.7,5.7-5.7c1.1,0,2.2,0.3,2.7,0.5l-0.4,1.5
			c-0.5-0.3-1.2-0.5-2.2-0.5c-2.4,0-3.8,1.8-3.8,4c0,2.5,1.6,4,3.7,4c1.1,0,1.8-0.3,2.4-0.5L273.5,69.1z"/>
		<path d="M283.3,58.9v1.5h-3.3v9.1H278v-9.1h-3.3v-1.5H283.3z"/>
		<path d="M284.9,59c0.7-0.1,2.1-0.2,3.4-0.2c1.8,0,4.7,0.3,4.7,2.7c0,1.3-1,2.1-2.2,2.4v0c1.6,0.2,2.7,1.1,2.7,2.6
			c0,2.8-3.5,3.1-5.6,3.1c-1.2,0-2.4-0.1-3-0.1V59z M286.7,68.2c0.5,0.1,0.9,0.1,1.6,0.1c1.3,0,3.2-0.3,3.2-1.8s-1.5-1.9-3.4-1.9
			h-1.4V68.2z M286.8,63.3h1.5c1.4,0,2.9-0.4,2.9-1.7c0-1.1-0.9-1.6-2.9-1.6c-0.6,0-1,0-1.5,0.1V63.3z"/>
		<path d="M297.7,58.9v4.5c0,1.7,0,2.8-0.1,4.3l0.1,0c0.6-1.3,1-2,1.7-3.3l3.3-5.5h2.3v10.6h-1.8V65c0-1.7,0-2.6,0.1-4.4h-0.1
			c-0.7,1.4-1.1,2.2-1.8,3.3c-1,1.6-2.2,3.7-3.3,5.6h-2.2V58.9H297.7z"/>
		<path d="M309.9,58.9v4.5c0,1.7,0,2.8-0.1,4.3l0.1,0c0.6-1.3,1-2,1.7-3.3l3.3-5.5h2.3v10.6h-1.8V65c0-1.7,0-2.6,0.1-4.4h-0.1
			c-0.7,1.4-1.1,2.2-1.8,3.3c-1,1.6-2.2,3.7-3.3,5.6h-2.2V58.9H309.9z M311.2,54.5c0.1,0.9,0.5,1.7,1.4,1.7c0.9,0,1.4-0.7,1.5-1.7
			h1.4c-0.1,1.8-1.2,2.7-2.9,2.7c-1.9,0-2.7-1.2-2.8-2.7H311.2z"/>
		<path d="M326.8,58.9v4.5c0,1.7,0,2.8-0.1,4.3l0.1,0c0.6-1.3,1-2,1.7-3.3l3.3-5.5h2.3v10.6h-1.8V65c0-1.7,0-2.6,0.1-4.4h-0.1
			c-0.7,1.4-1.1,2.2-1.8,3.3c-1,1.6-2.2,3.7-3.3,5.6H325V58.9H326.8z"/>
		<path d="M337.3,58.9h2.4l1.9,5.4c0.3,0.8,0.7,2.1,1,2.9h0c0.2-0.8,0.8-2.5,1.3-3.7l1.7-4.6h2.4l0.7,10.6h-1.8l-0.2-5.1
			c-0.1-1.1-0.2-2.5-0.2-3.8h-0.1c-0.3,1-0.6,1.8-1.2,3.5l-2,5.4h-1.4l-1.9-5.3c-0.3-1-0.8-2.6-1.1-3.5h-0.1c0,1.3-0.1,2.7-0.2,3.8
			l-0.3,5h-1.8L337.3,58.9z"/>
		<path d="M352.3,64.5c0,2.6,1.7,3.7,3.7,3.7c1.4,0,2.2-0.2,2.9-0.5l0.3,1.4c-0.7,0.3-1.8,0.7-3.5,0.7c-3.3,0-5.2-2.2-5.2-5.4
			c0-3.2,1.9-5.7,5-5.7c3.5,0,4.4,3.1,4.4,5c0,0.4,0,0.7-0.1,0.9H352.3z M358,63.2c0-1.2-0.5-3.1-2.7-3.1c-2,0-2.8,1.8-3,3.1H358z"
			/>
		<path d="M363.3,64.5c0,2.6,1.7,3.7,3.7,3.7c1.4,0,2.2-0.2,2.9-0.5l0.3,1.4c-0.7,0.3-1.8,0.7-3.5,0.7c-3.3,0-5.2-2.2-5.2-5.4
			c0-3.2,1.9-5.7,5-5.7c3.5,0,4.4,3.1,4.4,5c0,0.4,0,0.7-0.1,0.9H363.3z M369,63.2c0-1.2-0.5-3.1-2.7-3.1c-2,0-2.8,1.8-3,3.1H369z"
			/>
		<path d="M380.4,58.9v1.5h-3.3v9.1h-1.9v-9.1h-3.3v-1.5H380.4z"/>
		<path d="M388.8,58.9v4.3h5.1v-4.3h1.9v10.6h-1.9v-4.8h-5.1v4.8h-1.9V58.9H388.8z"/>
		<path d="M400,64.5c0,2.6,1.7,3.7,3.7,3.7c1.4,0,2.2-0.2,2.9-0.5l0.3,1.4c-0.7,0.3-1.8,0.7-3.5,0.7c-3.3,0-5.2-2.2-5.2-5.4
			c0-3.2,1.9-5.7,5-5.7c3.5,0,4.4,3.1,4.4,5c0,0.4,0,0.7-0.1,0.9H400z M405.7,63.2c0-1.2-0.5-3.1-2.7-3.1c-2,0-2.8,1.8-3,3.1H405.7z
			"/>
		<path d="M417.5,69.1c-0.5,0.3-1.6,0.6-3.1,0.6c-3.2,0-5.3-2.2-5.3-5.4c0-3.3,2.2-5.7,5.7-5.7c1.1,0,2.2,0.3,2.7,0.5l-0.4,1.5
			c-0.5-0.3-1.2-0.5-2.2-0.5c-2.4,0-3.8,1.8-3.8,4c0,2.5,1.6,4,3.7,4c1.1,0,1.8-0.3,2.4-0.5L417.5,69.1z"/>
		<path d="M421.7,58.9v4.6h0.5l4-4.6h2.4l-4.6,4.8c1.7,0.2,2.8,1.3,3.6,3.2c0.3,0.7,0.7,1.7,1.1,2.6h-2c-0.3-0.5-0.7-1.3-1-2.2
			c-0.7-1.7-1.7-2.5-3.5-2.5h-0.4v4.7h-1.9V58.9H421.7z"/>
		<path d="M439.8,64.1c0,3.9-2.7,5.7-5.3,5.7c-2.9,0-5.1-2.1-5.1-5.5c0-3.6,2.3-5.7,5.3-5.7C437.8,58.6,439.8,60.9,439.8,64.1z
			 M431.4,64.2c0,2.3,1.3,4.1,3.2,4.1c1.8,0,3.2-1.7,3.2-4.1c0-1.8-0.9-4.1-3.2-4.1S431.4,62.2,431.4,64.2z"/>
		<path d="M450.3,58.9v10.6h-1.9v-9.1h-3.7v2.8c0,3-0.3,5-1.7,5.9c-0.5,0.4-1.1,0.7-2.1,0.7l-0.2-1.5c0.4-0.1,0.8-0.2,1.1-0.4
			c1-0.7,1.1-2.2,1.1-4.6v-4.3H450.3z"/>
		<path d="M455.4,58.9v3.6c0.4-0.1,1.2-0.1,1.8-0.1c2.4,0,4.9,0.7,4.9,3.6c0,1.1-0.4,1.9-1.1,2.4c-1.2,1-3.1,1.2-4.6,1.2
			c-1.1,0-2.1-0.1-2.9-0.2V58.9H455.4z M455.4,68.2c0.4,0,0.8,0.1,1.4,0.1c1.5,0,3.3-0.5,3.3-2.3c0-1.8-1.9-2.2-3.4-2.2
			c-0.5,0-0.9,0-1.4,0.1V68.2z"/>
		<path d="M466.4,58.9v4.6h0.5l4-4.6h2.4l-4.6,4.8c1.7,0.2,2.8,1.3,3.6,3.2c0.3,0.7,0.7,1.7,1.1,2.6h-2c-0.3-0.5-0.7-1.3-1-2.2
			c-0.7-1.7-1.7-2.5-3.5-2.5h-0.4v4.7h-1.9V58.9H466.4z"/>
		<path d="M484.5,64.1c0,3.9-2.7,5.7-5.3,5.7c-2.9,0-5.1-2.1-5.1-5.5c0-3.6,2.3-5.7,5.3-5.7C482.4,58.6,484.5,60.9,484.5,64.1z
			 M476.1,64.2c0,2.3,1.3,4.1,3.2,4.1c1.8,0,3.2-1.7,3.2-4.1c0-1.8-0.9-4.1-3.2-4.1C477.1,60.1,476.1,62.2,476.1,64.2z"/>
		<path d="M25.6,88.7c0-1.4,0-2.5-0.1-3.5h1.7l0.1,1.8h0c0.8-1.3,2-2.1,3.8-2.1c2.6,0,4.5,2.2,4.5,5.4c0,3.8-2.3,5.7-4.8,5.7
			c-1.4,0-2.6-0.6-3.3-1.7h0v5.8h-1.9V88.7z M27.5,91.6c0,0.3,0,0.6,0.1,0.8c0.4,1.3,1.5,2.3,2.9,2.3c2,0,3.2-1.7,3.2-4.1
			c0-2.1-1.1-4-3.2-4c-1.3,0-2.6,0.9-2.9,2.4c-0.1,0.2-0.1,0.5-0.1,0.8V91.6z"/>
		<path d="M44,95.9l-0.2-1.3h-0.1c-0.6,0.8-1.7,1.6-3.3,1.6c-2.2,0-3.3-1.5-3.3-3.1c0-2.6,2.3-4,6.4-4v-0.2c0-0.9-0.2-2.5-2.4-2.5
			c-1,0-2,0.3-2.8,0.8L38,86c0.9-0.6,2.2-0.9,3.5-0.9c3.3,0,4,2.2,4,4.4v4c0,0.9,0,1.8,0.2,2.6H44z M43.7,90.5
			c-2.1,0-4.5,0.3-4.5,2.4c0,1.3,0.8,1.8,1.8,1.8c1.4,0,2.3-0.9,2.6-1.8c0.1-0.2,0.1-0.4,0.1-0.6V90.5z"/>
		<path d="M49.6,89.7h0.9c1.6,0,2.7-0.7,2.7-1.7c0-0.9-0.9-1.5-2.1-1.5c-0.9,0-1.8,0.3-2.6,0.7L48.1,86c1.1-0.7,2.3-1,3.5-1
			c1.6,0,3.6,0.7,3.6,2.8c0,1.3-1.2,2.2-2.4,2.4v0c1.6,0.1,2.9,1.1,2.9,2.7c0,2.3-2.4,3.2-4.6,3.2c-1.3,0-2.5-0.3-3.5-0.9l0.5-1.3
			c0.8,0.4,1.8,0.7,2.8,0.7c1.6,0,2.6-0.8,2.6-1.8c0-1.4-1.5-1.8-3.1-1.8h-1V89.7z"/>
		<path d="M66.4,85.3v9.2l1.1,0l-0.1,4.8h-1.5l-0.1-3.4h-7.4l-0.1,3.4h-1.5l-0.1-4.8l0.9,0c0.5-0.7,0.8-1.4,1.1-2.2
			c0.4-1.3,0.6-2.8,0.6-4.2v-2.8H66.4z M61,88.5c0,1.4-0.2,2.8-0.5,4c-0.2,0.7-0.5,1.4-0.9,2h4.9v-7.7H61V88.5z"/>
		<path d="M70.8,90.9c0,2.6,1.7,3.7,3.7,3.7c1.4,0,2.2-0.2,2.9-0.5l0.3,1.4c-0.7,0.3-1.8,0.7-3.5,0.7c-3.3,0-5.2-2.2-5.2-5.4
			c0-3.2,1.9-5.7,5-5.7c3.5,0,4.4,3.1,4.4,5c0,0.4,0,0.7-0.1,0.9H70.8z M76.5,89.6c0-1.2-0.5-3.1-2.7-3.1c-2,0-2.8,1.8-3,3.1H76.5z"
			/>
		<path d="M88.9,85.3v10.6H87v-9.1h-3.7v2.8c0,3-0.3,5-1.7,5.9c-0.5,0.4-1.1,0.7-2.1,0.7l-0.2-1.5c0.4-0.1,0.8-0.2,1.1-0.4
			c1-0.7,1.1-2.2,1.1-4.6v-4.3H88.9z"/>
		<path d="M101.7,90.5c0,3.9-2.7,5.7-5.3,5.7c-2.9,0-5.1-2.1-5.1-5.5c0-3.6,2.3-5.7,5.3-5.7C99.6,85,101.7,87.3,101.7,90.5z
			 M93.2,90.6c0,2.3,1.3,4.1,3.2,4.1c1.8,0,3.2-1.7,3.2-4.1c0-1.8-0.9-4.1-3.2-4.1C94.2,86.5,93.2,88.6,93.2,90.6z"/>
		<path d="M104.1,85.4c0.7-0.1,2.1-0.2,3.4-0.2c1.8,0,4.7,0.3,4.7,2.7c0,1.3-1,2.1-2.2,2.4v0c1.6,0.2,2.7,1.1,2.7,2.6
			c0,2.8-3.5,3.1-5.6,3.1c-1.2,0-2.4-0.1-3-0.1V85.4z M105.9,94.6c0.5,0.1,0.9,0.1,1.6,0.1c1.3,0,3.2-0.3,3.2-1.8s-1.5-1.9-3.4-1.9
			h-1.4V94.6z M105.9,89.7h1.5c1.4,0,2.9-0.4,2.9-1.7c0-1.1-0.9-1.6-2.9-1.6c-0.6,0-1,0-1.5,0.1V89.7z"/>
		<path d="M114.7,94.8c0-0.8,0.6-1.4,1.3-1.4c0.8,0,1.3,0.6,1.3,1.4c0,0.8-0.5,1.4-1.3,1.4C115.2,96.2,114.7,95.6,114.7,94.8z"/>
	</g>
	
		<use xlink:href="#ab"  width="504.1" height="67.6" x="-251.9" y="-33.8" transform="matrix(1 0 0 -1 272.173 219.8333)" overflow="visible"/>
</g>
<g id="Layer_2">
</g>
</svg>
