<?xml version="1.0" encoding="utf-8"?>
<!-- Generator: Adobe Illustrator 23.0.0, SVG Export Plug-In . SVG Version: 6.00 Build 0)  -->
<svg version="1.1" xmlns="http://www.w3.org/2000/svg" xmlns:xlink="http://www.w3.org/1999/xlink" x="0px" y="0px"
	 viewBox="0 0 560 380" style="enable-background:new 0 0 560 380;" xml:space="preserve">
<style type="text/css">
	.st0{fill:none;stroke:#000000;stroke-miterlimit:10;}
	.st1{fill:#202020;}
	.st2{fill:#525252;}
	.st3{display:none;}
	.st4{display:inline;fill:#5B5D5E;}
	.st5{display:inline;filter:url(#Adobe_OpacityMaskFilter);}
	.st6{fill:#FFFFFF;}
	.st7{display:inline;mask:url(#SVGID_1_);}
	.st8{fill:none;}
	.st9{fill:#707272;}
	.st10{display:inline;filter:url(#Adobe_OpacityMaskFilter_1_);}
	.st11{display:inline;mask:url(#SVGID_2_);}
	.st12{display:inline;}
	.st13{fill:#E87B00;}
	.st14{fill:#0087A3;}
	.st15{display:none;fill:none;stroke:#E87B00;stroke-miterlimit:10;}
</style>
<g id="Layer_1">
	<g>
		<path d="M31.7,24.2h7.9l0,1.5H22.7v-1.5h7.5v-2.4h1.5V24.2z M37.5,16c0,2.5-0.3,5-1,7.6c-0.2,0-0.4,0-0.8-0.1
			c-0.4-0.1-0.7-0.1-0.9-0.1c0.3-1.2,0.5-2.1,0.6-2.8c-4.9,0.4-8.5,0.6-10.6,0.7l-0.4-1.8c4.4,0,8.1-0.1,11.1-0.2
			c0.1-0.2,0.1-0.8,0.1-1.7H24.9V16H37.5z M37.5,32.4H24.9v-6.1h1.6v4.5h11.1V32.4z"/>
		<path d="M52.8,24.9c-2.7,0.3-5.8,0.4-9.4,0.4V16h8.2v1.6H45v2.1h6.1v1.6H45v2.5c3.3-0.1,5.9-0.2,7.8-0.3V24.9z M59.3,32.4H46v-6.1
			h1.6v4.5h11.7V32.4z M54.6,27.1v-5.3h-2.7v-1.5h2.7V15h1.5v12.1H54.6z M57.7,28.2V14.6h1.5v13.5H57.7z"/>
		<path d="M80,30.6H62.2V29H80V30.6z M78.6,26c-0.5,0.3-0.9,0.8-1.3,1.5c-2.7-1.5-4.7-3.4-6.2-5.7c-1.8,2.6-4,4.5-6.6,5.8
			c-0.3-0.5-0.7-1-1.1-1.3c1.3-0.5,2.5-1.2,3.6-2.2s2-2,2.5-2.9H64v-1.6h14.3V21h-5.6C74.1,23.3,76,24.9,78.6,26z M74.3,18H68v-1.6
			h6.4V18z"/>
		<path d="M89.4,25.4c-0.4-0.6-0.7-1-1-1.3c1.6-0.6,3.1-1.5,4.4-2.8s2.2-2.6,2.7-4H89v-1.5h8.6c-0.4,2.1-1.3,4-2.8,5.7
			S91.6,24.5,89.4,25.4z M103.3,32.7V32h-9.9v0.7h-1.5v-6.9h12.9v6.9H103.3z M103.3,27.4h-9.9v3.1h9.9V27.4z M104.8,25.3h-1.5v-4.5
			h-5.6v-1.6h5.6v-4.5h1.5V25.3z"/>
		<path d="M117.6,24.6c-1.7-1.1-3.1-2.5-4.2-4.2c-1,1.7-2.2,3.2-3.9,4.4c-0.5-0.6-1-1-1.4-1.1c1.1-0.7,2.1-1.6,3.2-3
			c1-1.3,1.5-3.1,1.3-5.2c0.7,0.1,1.3,0.2,2,0.2c-0.3,0.6-0.4,1.5-0.4,2.7c0,0.4,0.5,1.1,1.4,2.2c0.9,1.1,2,2,3.2,2.6
			C118.3,23.5,117.9,23.9,117.6,24.6z M123.3,32.7v-4.9h-11.6v-1.6h13v6.5H123.3z M124.8,25.3h-1.5V21h-2.5v4.1h-1.5v-9.8h1.5v4.2
			h2.5v-4.8h1.5V25.3z"/>
	</g>
	<g>
		<path d="M411.3,198.6c-0.3-0.5-0.6-0.8-0.8-1c1.3-0.5,2.5-1.2,3.6-2.3c1.1-1.1,1.8-2.1,2.1-3.2H411v-1.2h6.9
			c-0.3,1.7-1.1,3.2-2.2,4.6C414.5,196.8,413,197.9,411.3,198.6z M422.4,204.5v-0.5h-7.9v0.6h-1.2V199h10.3v5.5H422.4z M422.4,200.2
			h-7.9v2.5h7.9V200.2z M423.6,198.5h-1.2v-3.6h-4.5v-1.2h4.5V190h1.2V198.5z"/>
		<path d="M433.8,198c-1.3-0.9-2.4-2-3.3-3.4c-0.8,1.4-1.8,2.6-3.1,3.5c-0.4-0.5-0.8-0.8-1.1-0.9c0.9-0.5,1.7-1.3,2.5-2.4
			c0.8-1.1,1.2-2.4,1.1-4.2c0.5,0.1,1.1,0.2,1.6,0.2c-0.2,0.5-0.4,1.2-0.4,2.1c0,0.3,0.4,0.9,1.1,1.8c0.7,0.9,1.6,1.6,2.5,2.1
			C434.4,197.1,434.1,197.5,433.8,198z M438.4,204.5v-4h-9.3v-1.3h10.4v5.2H438.4z M439.6,198.5h-1.2v-3.5h-2v3.3h-1.2v-7.9h1.2v3.3
			h2V190h1.2V198.5z"/>
		<path d="M456,201.6c-1.6-1.2-2.8-2.9-3.8-5.1c-1,2.3-2.3,4.1-4.1,5.5c-0.4-0.5-0.8-0.9-1.1-1.1c1.3-0.8,2.4-2,3.3-3.6
			c0.8-1.6,1.3-3,1.3-4.3c0-1,0-1.7-0.1-2l1.8,0.2c-0.2,0.4-0.3,0.8-0.4,1.2c-0.1,0.4-0.1,1.1-0.1,2.2c0,0.2,0.2,0.5,0.5,1.2
			c0.3,0.6,0.6,1.2,0.9,1.6c0.3,0.4,0.6,0.8,0.9,1.2c0.3,0.4,0.7,0.7,1,1.1c0.4,0.3,0.7,0.6,1.1,0.9
			C456.6,200.8,456.2,201.1,456,201.6z M460.1,204.6h-1.2V190h1.2V204.6z"/>
		<path d="M471,197.3c-0.5,0.4-0.9,0.7-1.1,1c-1.6-1.2-2.6-2.3-3.1-3.3c-0.7,1.2-1.6,2.3-2.8,3.4c-0.4-0.4-0.8-0.8-1.1-1
			c2-1.5,3.1-3.2,3.3-5.1h-2.9v-1.3h7.4v1.3h-3.1l-0.1,0.9c0,0.3,0.3,0.9,1,1.7C469.1,195.9,469.9,196.7,471,197.3z M472.8,204.4
			v-3.9h-8.2v-1.3h9.4v5.2H472.8z M476.5,194.9H474v3.6h-1.2V190h1.2v3.6h2.5V194.9z"/>
	</g>
	<g>
		<path d="M110.2,156.6c-0.2-0.5-0.4-0.8-0.6-1c1.4-0.5,2.7-1.2,4-2.3c1.3-1.1,2.2-2.1,2.7-3.2H111l0.2-1.2h6.9
			c-0.6,1.7-1.6,3.2-3,4.6S112,155.9,110.2,156.6z M120.2,162.5l0.1-0.5h-7.9l-0.1,0.6h-1.2l1-5.5h10.3l-1,5.5H120.2z M121,158.3
			h-7.9l-0.4,2.5h7.9L121,158.3z M122.5,156.5h-1.2l0.6-3.6h-4.5l0.2-1.2h4.5l0.6-3.6h1.2L122.5,156.5z"/>
		<path d="M132.8,156c-1.2-0.9-2.1-2-2.7-3.4c-1,1.4-2.2,2.6-3.7,3.5c-0.3-0.5-0.6-0.8-0.9-0.9c1-0.5,1.9-1.3,2.9-2.4
			c1-1.1,1.6-2.4,1.8-4.2c0.5,0.1,1,0.2,1.6,0.2c-0.3,0.5-0.6,1.2-0.7,2.1c-0.1,0.3,0.2,0.9,0.8,1.8c0.6,0.9,1.3,1.6,2.2,2.1
			C133.6,155.1,133.2,155.5,132.8,156z M136.3,162.5l0.7-4h-9.3l0.2-1.3h10.4l-0.9,5.2H136.3z M138.5,156.5h-1.2l0.6-3.5h-2
			l-0.6,3.3h-1.2l1.4-7.9h1.2l-0.6,3.3h2l0.7-3.8h1.2L138.5,156.5z"/>
	</g>
	<g>
		<g>
			<path class="st0" d="M404.9,199.7c0,0-16.9-1.3-28.6-23.2"/>
			<g>
				<polygon points="381.5,177.3 381.2,178.3 376.5,176.8 375.4,181.6 374.4,181.3 375.8,175.5 				"/>
			</g>
		</g>
	</g>
	<g>
		<g>
			<g>
				<g>
					<g>
						<path class="st1" d="M386.8,168.5c0,0.3,0.1,0.1,0.1-0.8l-0.2-0.7L386.8,168.5z"/>
						<path class="st1" d="M387.1,162.3c-0.1-1.1-0.2-2.3-0.4-1.6c0.2,1.1,0.1,1.3,0.3,2.5c0,0.9-0.1,1.6-0.1,1.5
							c0,0.3,0,1.4,0.1,1.9c0.1-1.2,0.1-2.7,0-4.3C387,161.9,387,162.2,387.1,162.3z"/>
						<path class="st1" d="M316.8,140.3l0.6,0C317.2,140.3,317,140.3,316.8,140.3z"/>
						<path class="st1" d="M260.8,140.2c0.4,0,0.6,0,0.6,0C261.1,140.2,260.7,140.2,260.8,140.2z"/>
						<path class="st1" d="M251.3,140c0.2,0,0.4,0,0.6,0C251.6,140,251.4,140,251.3,140z"/>
						<path class="st1" d="M316.8,140.3l-1.5-0.1C315.2,140.3,316.1,140.3,316.8,140.3z"/>
						<path class="st1" d="M386.7,149.8c0,0.3,0,0.6,0,0.8C386.7,150.4,386.7,150.1,386.7,149.8
							C386.7,149.9,386.7,149.8,386.7,149.8z"/>
						<path class="st1" d="M341.5,140.1l0.5,0c0.1,0,0.3,0,0.4-0.1L341.5,140.1z"/>
						<path class="st1" d="M360.4,140.1c-0.4,0-0.6,0.1-0.7,0.2c0.2-0.1,0.6-0.1,0.9-0.1C360.6,140.2,360.6,140.1,360.4,140.1z"/>
						<path class="st1" d="M387.3,145.6l0,0.5C387.3,146,387.3,145.7,387.3,145.6z"/>
						<path class="st1" d="M327.9,140.1c0,0-0.1,0-0.2-0.1C327.8,140.1,327.8,140.1,327.9,140.1z"/>
						<path class="st1" d="M367.4,171.8C367.4,171.8,367.4,171.9,367.4,171.8C367.5,171.8,367.6,171.8,367.4,171.8z"/>
						<path class="st1" d="M387.1,168.5l0,0.3c0,0,0,0.1,0.1,0.1L387.1,168.5z"/>
						<path class="st1" d="M233.8,139.8C233.8,139.8,233.8,139.8,233.8,139.8C234.3,139.8,234.1,139.8,233.8,139.8z"/>
						<path class="st1" d="M96.5,166.1c0.1-1.8,0.2,3,0.3,0.2C96.8,166.6,96.6,163.9,96.5,166.1z"/>
						<path class="st1" d="M386.7,149.3c0-0.3,0-0.5,0-0.8C386.7,148.9,386.7,149.1,386.7,149.3z"/>
						<path class="st1" d="M96.8,166.3L96.8,166.3l0-0.3C96.8,166.2,96.8,166.2,96.8,166.3z"/>
						<path class="st1" d="M193.5,139.9c0.1,0,0.2,0,0.4,0.1C193.9,139.9,193.8,139.9,193.5,139.9z"/>
						<path class="st1" d="M223.5,140.1l-0.7,0C223.1,140.1,223.3,140.1,223.5,140.1z"/>
						<path class="st1" d="M177.9,140.1c-0.4,0-0.5,0-1.1,0c0.1,0,0.1,0,0.2,0C177.2,140.1,177.4,140.1,177.9,140.1z"/>
						<path class="st1" d="M161.7,140.1c0.1,0,0.2,0,0.3,0c0.2,0,0.3,0,0.5,0L161.7,140.1z"/>
						<path class="st1" d="M318.1,171.9c0.4,0,0.6,0.1,0.7,0.1C318.6,171.9,321,171.9,318.1,171.9z"/>
						<path class="st1" d="M386.8,149.8c0-0.1-0.1-0.2-0.1-0.5C386.7,149.5,386.7,149.7,386.8,149.8
							C386.7,149.9,386.7,149.9,386.8,149.8z"/>
						<path class="st1" d="M177.2,141.2l-2.6,0C175.4,141.2,176.3,141.2,177.2,141.2z"/>
						<path class="st1" d="M201.7,171.9l0.6,0C202.1,171.9,201.9,171.9,201.7,171.9z"/>
						<path class="st1" d="M167,141.2c-0.5,0-0.9-0.1-1.5-0.1c-0.1,0-0.2,0-0.3,0L167,141.2z"/>
						<path class="st1" d="M318.9,172C318.9,172,318.9,172,318.9,172C318.9,172,318.9,172,318.9,172z"/>
						<path class="st1" d="M335.9,171.7c-2.5,0-1.2,0.2-1.7,0.3c-2.9,0.1-1.4-0.1-2.4-0.2c-1.8,0-3.2,0.2-4.6,0.2
							c-0.1,0-0.4,0-0.1-0.1c-1.9,0.1-5.7,0-8,0.2c-0.2,0-0.3,0-0.3,0c0.4,0.1,0.4,0.2,0.3,0.3c-1.1,0-2,0.1-2.5,0
							c0.7,0,0.7,0,1-0.1l-1.2,0.1c-1-0.2,1.6-0.1,1.6-0.2c-2.3,0.1-4.9,0.2-6.6,0.2c-0.4-0.2,4-0.1,1.7-0.2l2.7,0.1
							c-2-0.3,1.6,0-0.3-0.3c-3.5,0-3.9,0.1-7.4,0c-0.8,0.1,0.3,0.1-0.5,0.2c-5,0.2-3.9-0.4-7.6-0.2c-0.9,0.1-1.3,0.3-3.9,0.2
							l0.9-0.2c-3.4,0-1.9,0.3-5.5,0.1c0.6-0.1,2.7-0.1,2.2-0.1c-2.3-0.2-1.6,0.1-3.4,0.1l-0.4-0.2c-3.6,0.1-7.6,0.1-11.6,0.2
							c0.2-0.1,0.9-0.1,0-0.2c-5.1,0.1-10.8,0-15.7-0.1l-1.9,0.1c-0.4,0-0.8-0.1-0.3-0.1c-1.9-0.1-0.1,0.1-1,0.2
							c-1.1,0-1.4-0.1-0.7-0.1c-3.4,0.1-9.6,0.3-13.1,0.1l0.7,0c-2.8-0.1-3.1,0.3-5.7,0.2l0.5,0c-6-0.1-12.6,0.1-17.1-0.2
							c-0.9,0.2-5.9-0.1-6.3,0.2c-3.4-0.1-2.4-0.2-7.2-0.3c-1.3,0-1.9,0.2-3.5,0.2l0-0.2l-2.2,0.2l-1.1-0.2l-1.5,0
							c0.6,0,1.3,0.1,1.2,0.1c-1.2,0-2.6,0-3.7,0c-1.1,0-2-0.1-2-0.1l-5.5,0.1c0.1-0.1,1-0.1,1.8-0.1c-2.9,0.2-0.5-0.2-3.2,0
							c0.4,0-0.2,0.1-0.3,0.1c-1.3-0.1-4.4-0.1-6.6-0.1l0.4-0.1c-4.1,0-8.6,0-13.2,0c1.6,0,1.3,0.2-0.1,0.3l-0.5-0.2
							c-0.9,0.1,1.4,0.1-0.4,0.2c-1.7,0-1.1-0.2-0.2-0.2l-2.1,0.1c-0.1,0,0.4-0.1,0.5-0.1c-0.9,0.1-3.6-0.2-4.8,0l-0.1,0
							c-4.6,0-6.6,0-10.4,0.1c-0.1,0.1-1.5,0.1-2.6,0.2c-2.7,0-5.8-0.2-9.1-0.1c-2.3,0.1-0.7,0.1-1.7,0.2c-0.2-0.1-3.5-0.1-1.8-0.2
							c-4,0-5.1,0-10.1,0.1c0.5,0.1,1.2,0.1,0.8,0.1c-0.9,0-2.1-0.1-1.9-0.1l0.2,0c-5.6,0.2-13-0.4-17.4-0.1l0.3,0l-4.6,0.1
							c-2.1,0,1.3-0.1-0.3-0.2c-1.3,0.1-2.4,0.1-3.4,0.1c-1,0.1-1.8-0.2-2.4-0.7c-0.6-0.5-1.1-1.2-1.3-2c-0.2-0.7-0.1-1.8-0.1-2.8
							c0.4-3.2,0-11.3,0.2-15.6l-0.1,0.2c-0.1-1.1,0.1-1.3,0.1-2.2c-0.1,0.1-0.1,1.2-0.1,0.5c0-1.2,0-2.4,0-3.6c0-0.6,0-1.3,0-1.7
							c0-0.5,0.2-1,0.5-1.5c0.5-0.9,1.5-1.5,2.5-1.6l0.4,0l0.5,0l0.9,0l1.8,0c4.9,0.1,9.8,0.1,14.7,0.2c3.5,0,2-0.5,6.5-0.2
							l-1.3,0.2c7.1-0.2,14.6,0,21.6-0.2c-0.4,0-0.4,0.1-1.1,0.1c0.7,0.1,2.1,0.1,3.3,0c1.2,0,2.2-0.1,2.2-0.1
							c1.1,0,0.3,0.1,0.9,0.1c1.5,0.1,3.7-0.2,4.5,0c0.1,0-0.4,0-0.7,0c1-0.1,4.5,0,3.6-0.1c2.6,0.1,5-0.1,7.1,0
							c1.4-0.2,4.5,0.1,4.9-0.1c-0.2,0.2,4.6,0.2,6.3,0.1c-0.6,0.1,1.4,0.1,0.8,0.2c1.9,0,3.6,0,3.3-0.2c3.5,0.3,7-0.2,9,0.1
							c5.6-0.1,10.8-0.2,15.9-0.3c-0.2,0.2-5.6,0-5.4,0.3c4.8-0.1,7.6-0.3,12.3-0.2c1.2,0-0.7,0.1-1.1,0.1c4.8-0.1,9.3,0,13.5-0.1
							c0,0-0.5,0-0.9,0.1c0.8,0,2,0,1.9-0.1l-0.8,0c-1.3-0.1,3.3-0.3,3.5-0.4c-1.4,0.3,4.2,0.1,1.9,0.4c0.6,0,1.2-0.1,1.1-0.1
							c0.8,0,1.1,0.1,0.2,0.1c3-0.1,1.9-0.2,4.7-0.2c0,0-0.6,0.1-0.8,0.1c1.4-0.1,2.8-0.2,5.1-0.2c-0.1,0,0.1,0.1-0.6,0.1
							c4,0,6.7-0.3,11.1-0.2c-1.3,0.2,1.5,0.1,1.7,0.3l2.3-0.1l-0.9-0.1c2,0,3.9-0.1,5.6-0.1l-1.5,0.1l3.8,0l-2.2-0.1
							c2.1-0.1-0.2-0.2,2.5-0.2c-0.6,0,2,0,3.1,0.1l0,0c1-0.1,2.1-0.1,3.6-0.1c0.4,0.1-0.3,0.2-0.1,0.2c1-0.2,4.8,0,6.1-0.2
							c-0.4,0-0.4,0.1-0.3,0.2l0.8-0.1c0.9,0,1.1,0.1,0.9,0.1c2.8,0-0.9-0.2,2.5-0.1c-0.3,0-0.1,0-0.7,0c3.4,0.1,6.6-0.1,9.7,0
							c0.9,0.2-2.7,0-1.7,0.2c4.5,0,9.3-0.2,13.7-0.2l-0.8,0c0.6-0.3,3.2,0.1,5.4,0c-0.5,0-0.7,0.1-0.6,0.1c3,0,6.1-0.1,10.6-0.1
							l-0.6,0.1c1.8,0.1,4.6,0,6.5,0.1c0.6-0.1,1.6-0.1,1-0.2c5.9,0.4,11.2-0.2,16.4,0.1c-0.6,0-1.5,0.1-1,0.1l4.4-0.1
							c-0.4-0.1-0.6-0.1-1.5-0.2c0.6-0.1,1.8-0.1,2.9-0.1c-2,0.1,0,0.2,0.9,0.3c-0.1,0,0.2-0.1,0.1-0.1c2.3,0.2,0.4-0.2,3.5-0.1
							l-0.2,0.1c1.2,0,2.3-0.1,3.5-0.1c0.5,0.1-1.3,0.1-1.3,0.2c1.8,0,3.5-0.3,5.1-0.1c-0.8,0-1.8,0.1-2.6,0.1
							c1.8,0.2,2,0.1,3.3,0.1l-0.1,0l3,0.1l-0.8,0c2.2-0.3,4.6-0.1,7.6-0.3c-2.9,0.2-0.5,0.1-0.7,0.3c0.8,0,1.9,0.1,1.6,0.1
							c1.4-0.1,2.4,0.1,4.4-0.1c0.1,0,1.5,0,1.2,0.1c1.9,0-0.4-0.1-0.3-0.1c2.9-0.2,6.7,0.2,10.8,0c1.8-0.2,2.7,0.2,3.5,0.9
							c0.7,0.6,1.4,1.5,1.4,3.2c-0.1,1.1-0.2-0.9-0.2-0.9c0,1.7,0,3.1,0,4.8c0-0.3-0.1,0-0.1,0.5c0,1.4,0.2,0.9,0.1,2.7
							c-0.1-0.3-0.1-0.7-0.2-1.4c0.1,1.6,0.1,3.2,0.2,4.8c-0.1,0.4-0.1-1-0.2-1.6c0,1.9,0.1,4.8,0.2,5.4l0-1.2
							c0,0.7-0.1,0.3-0.1-0.2c-0.1-1.6,0-2.3,0.1-2.4l0,1.2c0.3-1.2,0-4.7,0-7.1l0.2,1l-0.2-2.4c0.1-0.5,0.2-0.9,0.2,0.3
							c0.1-1.7-0.1-1.5,0-3c0-0.2,0-0.1,0,0.1c0,0-0.1-1.7-0.1-1.7c0.1,0.3,0.2-0.3,0.2,0.8c0.1-1.6-0.7-2.8-1.5-3.4
							c-0.8-0.6-1.6-0.8-2.1-1l0.3,0c-0.5-0.1-1-0.1-1.2-0.1c-0.3,0-0.5,0-0.6,0c-0.3,0-0.3,0-0.3,0.1c0,0.1,0.2,0.1-1.4,0.2
							l-2.1-0.4l-0.4,0.2c-0.4,0-1.3,0-1.1-0.1c-1.6,0.1,0.3,0.1-0.7,0.2c-2.1-0.1-5.7,0.1-6.1-0.2c-0.7,0.1,2,0.1-0.2,0.2
							c-0.6-0.3-2.5,0-4.4-0.1c0.6-0.1,2.3-0.1,0.5-0.2c-1.1,0.2-3.6,0-5.2,0c-0.1,0.2-3.4,0.1-6.1,0.1c0.2-0.1-5-0.1-7.5-0.2l0.1,0
							c-0.5,0.2-3,0.1-4.9,0.2c0.1-0.1,0.4-0.2,1.4-0.2l-1.7,0c-0.4,0.1-1,0.1-2.1,0.1l0.4-0.1c-2.3,0-4.7,0.2-7.7,0.1
							c-0.2,0.1,2.4,0.4-0.8,0.4c-0.1-0.1-0.2-0.2,0.6-0.2c-0.3,0-1,0.1-1.5,0l1.3-0.1c-1.4-0.1-0.7,0.1-1.8,0.1
							c0-0.1-0.8-0.1-0.6-0.1c0.3,0,0.9,0,1.4,0c-1.2,0-2.7-0.1-3.2-0.2c0.1,0.1,0,0.1-0.9,0.1c-2.3,0-0.8-0.1-2.1-0.2
							c-0.6,0.1-2,0-2.1,0.1c-0.7,0-0.8-0.1-1.1-0.1c-1.2,0.1-5.6,0-4.3,0.2l0.3,0c-0.1,0-0.1,0-0.2,0c0,0,0,0,0,0h0
							c-3.9,0.1-8.2-0.1-12.1,0l0,0c-2.3,0.1-5.2,0-6.8,0.1c-0.7,0-1.6-0.1-1.3-0.1c-1.8,0-2,0.1-4.6,0c1.8-0.1-0.6-0.1,1.8-0.1
							c-2.3,0-2.8-0.1-5.3,0c0.8-0.1-1.7-0.2-2.8-0.1l1.6,0.1c-1.2,0-2.3,0-3.4,0l0.6-0.2c-4.7-0.2-8.5,0.3-12.1,0
							c-1.3,0.1,2.6,0.1,1.5,0.2c-2.2,0-4.4-0.3-5.1-0.3c-3-0.1-2.8,0.2-5.9,0.2c0.4,0.1,0.8,0.2-1.6,0.3c-2.2,0-2.7-0.2-1.3-0.3
							c0.5,0,0.8,0,0.8,0c0.7,0,1.6,0,0.8-0.1l-0.3,0.1c-1.1-0.1-4.1-0.1-3.4-0.2c-1.6,0.1-0.7,0.1,0.5,0.1c-2.8-0.1-4.4,0-7.2-0.1
							c0.5,0,0.9,0.1,0.4,0.1c-4.2-0.1-1.9,0.1-4.7,0.1c-1.6-0.1,0.6-0.2-2.3-0.1c-1.8-0.1-0.4-0.2,0.3-0.2
							c-2.6,0.1-4.9-0.1-6.4-0.1l1.4,0c-0.8,0-1.5,0-2.2,0l0.8,0.1c-0.8,0-1.5,0-1.5-0.1c-0.8,0.1,0.6,0.2-1,0.3
							c-1.1-0.1-3.3,0.1-3.7-0.1c3.4,0.1-0.4-0.2,2.5-0.2c-0.6,0-1.2,0-2,0c-0.1,0,0.1,0,0.3,0c-3.3-0.1-1.5,0.2-4.9,0.2
							c0.4-0.1-0.8-0.2-1.3-0.1c1.4,0,0.6,0.1-0.6,0.2c-2.2-0.1-2.3,0.1-3.5,0l1.3,0c-0.4,0.1-1.5,0.1-3,0.1c-0.1-0.1,1.4,0,0.8-0.1
							c-1.7,0.2-3.8-0.2-6.1-0.1c-1.1-0.1-0.1-0.2-1.1-0.2c-2.6,0.1-2.8-0.1-5.6,0c0.8,0.1,0.9,0.1-1,0.2l4.5-0.1l-2.9,0.2
							c1.4,0,2.9-0.1,3.7-0.1c-1.4,0.1-1.2,0.1-0.6,0.2c-1.9-0.2-3.7,0.1-5.9,0l0.1-0.3c-3.2-0.1-5.8,0.2-10,0.1l1.4,0.1
							c-0.6,0.1-2.6,0-4,0.1c0.1-0.1-0.7-0.1-1.3-0.2c0.1,0.1-3.1,0-3.5,0.2l-1.9-0.1c-3.4-0.1-3.9,0.3-7.1,0.2
							c1-0.1-0.5-0.2,1.7-0.3c-1.1,0-2.1,0-2.1,0c-0.6-0.1-3,0.1-4,0c-0.5,0-0.6,0.1-1.8,0.1c-0.1,0,0,0,0,0c0,0-1.9,0.1-0.8,0.2
							c-3.4-0.3-9.4,0-12.3-0.2c-2.4,0-5.3,0.1-7.4,0.1c0.1,0,0,0,0.4,0c-3-0.1-1.8,0.3-5.2,0.2c-1.7-0.2,1.8-0.1,0.7-0.1
							c-0.5-0.3-4.1,0-6.4-0.1l0.6,0c-1.7-0.1-4.3,0.1-7.1,0.1c0,0,0.1,0,0,0c-2,0.2-5.6,0.2-8.4,0.3c0.9-0.1,1.2-0.1,0.7-0.2
							c-1.2,0,0.4,0.2-2.1,0.2c-0.8-0.1-2.6-0.1-2.8-0.3l2.3,0c-1.2-0.2-3,0-4.2,0l0.2-0.1c-3.5,0-3.6,0.2-7.4,0.2l0.4,0.1
							c-2.1,0.2-1.7-0.1-3.8,0l-0.6-0.2c-1.4,0-4.8,0.2-7.3,0.2c1.4-0.1,4.3-0.2,6.1-0.3c-1.4,0-4.6,0-5.3,0.1c0.5,0,1.2-0.1,1.8,0
							c-0.8,0.1-1.8,0.1-2.9,0.2c-0.6,0-1.1,0-1.7,0c-0.6,0-1.3,0-2,0.1c0.1-0.1-0.3-0.1-1,0.1c-0.7,0.3-1.6,0.9-2.1,1.9
							c-0.3,0.5-0.5,1.1-0.5,1.7c0,0.6,0,1.1,0,1.6c0,1-0.1,1.8-0.1,2.3c0.1,4.8-0.1,9.5,0,15.1c0.3-2,0,1.6,0.3,1.3
							c0,1.3,0,1.8,0,1.9c0,0,0,1-0.1,2c0,0.5,0,1.1,0.1,1.5c0.1,0.4,0.2,0.6,0.2,0.6c0.2,0.5,0,0.2-0.2-0.2c-0.2-0.4-0.3-1-0.3-0.9
							c0.1,0.8,0.4,1.3,0.5,1.5c0.2,0.3,0.2,0.4,0.3,0.5c0,0.1,0.1,0.2,0.2,0.3c0.1,0.1,0.3,0.4,0.7,0.8c-0.1-0.2,0.1,0,0.6,0.3
							c0.5,0.3,1.4,0.6,2.3,0.6c0,0-0.7,0-1.3-0.2c-0.6-0.2-1.2-0.6-1.2-0.6c1,0.6,1.8,0.6,2.5,0.6c0.6,0,1,0,1.4,0.1
							c0.9,0.1,1.7,0.1,3.7,0l-1.3,0.1c2.1-0.1,7.6,0,9.6-0.2c0.4,0,0.8,0.1-0.1,0.1c4.9,0,11-0.3,14.8-0.1l-0.4,0.1
							c0.9,0,1.6-0.1,2.8-0.1c-0.1,0-0.4,0.1,0.1,0.1c0.5,0,2.4-0.1,3.7-0.1l-1,0.1c4.8,0.1,7.4-0.2,11.4-0.3c0,0.2,3.8,0.3,5.7,0.3
							l-0.1,0c5.6,0,9.5-0.2,14.7-0.3c3.2,0.2,10.9,0.1,16.1,0.2c-0.8,0,0.1-0.2,1-0.2c1.2,0,3.4-0.2,3.2,0l-0.4,0
							c0.9,0.2,3.4,0.1,5.4,0.2l0.3-0.3c5.1,0.4,13.4-0.1,16.1,0.2c1.2,0,2.8-0.1,4-0.1l-0.1,0.1c3.4,0,5.1,0.1,9.3,0l-0.9,0.1
							c2.4,0,3-0.4,5.2-0.4l0.7,0.2c4.1,0,8.3,0.2,12.4,0c-0.1,0-0.2,0.1-0.9,0.1c2,0,7.6,0.1,6.8-0.1c0,0.2,4.3,0,6.5-0.1l-0.3,0.1
							c1.9-0.2,2-0.2,4.6-0.3c0.6,0,0.5,0.1-0.3,0.1c2.1,0.1,1.6-0.1,4.2-0.1l-0.9,0.1c2.1,0,2,0,3.2-0.1c1.3-0.1,4.1,0,4.4,0.2
							c0.3-0.1,1.5-0.2,2.7-0.1c0.2,0-0.3,0.1-0.5,0.1c3.6,0.1,5.3-0.2,7.8,0c0.1,0,0.2,0.1,0.4,0.1c-2.8,0-5.1,0-4.9,0
							c0,0.1,2.3,0.2,0.5,0.3c1.8-0.1,5-0.3,7.2-0.2c0.1,0,0.2,0,0.3,0l-0.2,0c0.5,0,1,0,1.4,0c0.7,0,1.2,0,1.9,0
							c0.3,0.1,2.6,0.1,3.8,0.1c-0.1-0.1,1.4-0.1,0-0.2c0.2,0-0.2,0-1,0c-0.2,0-0.4,0-0.5,0c0,0,0,0,0.1,0c-0.8,0-1.7,0-2.9,0
							c0.9-0.1,1.9-0.1,3.1-0.1c0.6-0.1,1.2-0.2,1.6-0.2c1.6,0.2,4.6,0.3,5,0.4c3.5-0.1,8.3-0.1,10.5-0.3c1,0,1.1,0.1,1.5,0.1
							c-0.6,0-1.3,0-1.6,0.1c2-0.1,5.9,0,6.4-0.2c2.5,0.1-1.4,0.2,2,0.1l-0.5,0.1c6.8,0.3,11-0.5,18.6-0.1c-0.5,0-0.8,0-0.9-0.1
							c8.6,0.2,17.7-0.2,26.1,0.1c2.4,0.1,2.7-0.1,4.1-0.2l0.5,0.2l2.5-0.2c3.6-0.1,6.2,0.4,10.7,0.1l-0.6-0.1
							c1.6,0,5.1-0.1,4.9,0.1c0.2,0,0.5-0.1,1.2-0.1l0,0.1l4-0.1c1.5,0,1.4,0.1,1.5,0.2c0,0,0.1,0.1,0.4,0.1c0.4,0,1.1,0.1,2.2-0.6
							c0.8-0.4,1.7-1.6,1.9-2.5c0.2-1,0.1-1.6,0.1-1.3c0,0.4-0.1,0.8-0.2,1.2c-0.1,0.3-0.3,0.6-0.3,0.6c0,0,0.2-0.4,0.3-0.7
							c0.1-0.4,0.1-0.8,0.1-0.8c-0.1-0.1-0.2-0.5-0.3-0.4c-0.1,0.1-0.1,0.3-0.2,0.6c-0.1,0.3-0.3,0.9-0.8,1.5c0,0-0.3,0.5-0.8,0.8
							c-0.5,0.4-1,0.5-1,0.5c0,0-0.7,0-0.7,0c0,0,0.5,0,0.9-0.2c0.4-0.2,0.8-0.4,0.8-0.4c-0.5,0.3-0.9,0.4-1.3,0.5
							c-0.4,0.1-0.7,0.1-1.2,0.2c-0.2-0.1-0.6-0.1-1.1-0.1l-2.6,0.2c-0.3-0.1,1.2-0.2-0.6-0.2c-1.2,0.1,1.2,0.2-0.8,0.3
							c-1.3-0.1-0.9-0.2-2.4-0.1c-0.2-0.1,0.1-0.1,0.7-0.1c-1.3,0.1-3.5,0-4.1,0.2c-1.3-0.1-4.4,0-4.3-0.2c-0.4,0.1-2.3,0.2-3.5,0.2
							c2.2-0.3-4.5,0-3.9-0.3c-1.6,0.2-5.9,0.1-8.7,0.2c0.2,0,0.5-0.1,0.7,0c-1.6,0-2.1-0.1-3.1-0.1c-0.2,0.2-2.7,0.2-4.1,0.4
							c-2-0.2,1.2-0.2,0.6-0.4c0.1,0.2-3.4,0.2-2.8,0.3c-1.5-0.1-1.3-0.1-2.1-0.2c-0.3,0.2-1.4,0-2.7,0.2c-2.2-0.1-0.6-0.2-3-0.2
							C333.7,171.8,335.9,171.7,335.9,171.7z M278.5,172.1L278.5,172.1c0.5,0,0.9,0,1.2,0C279.4,172.1,279.1,172.1,278.5,172.1z
							 M273.7,172.1c0.6,0,1.3,0,2.1,0c0.2,0,0,0.1-0.5,0.1C275.5,172.2,274.4,172.2,273.7,172.1z M283.9,173.1c-0.8,0-1,0-1.1,0
							c0.4,0,0.8,0,1.3,0c0,0,0.1,0,0.1,0C284.1,173.1,284,173.1,283.9,173.1z"/>
						<path class="st1" d="M285.2,172.9c0.1,0,0.2,0,0.3,0c-0.2,0-0.3,0-0.5,0c-0.1,0-0.2,0-0.3,0
							C285,172.9,285.1,172.9,285.2,172.9z"/>
						<path class="st1" d="M317.5,140.3l-0.1,0c0.1,0,0.2,0,0.2,0C317.5,140.3,317.5,140.3,317.5,140.3z"/>
						<polygon class="st1" points="207.1,171.9 207.1,171.9 207.5,171.9 						"/>
						<path class="st1" d="M344.1,140.8c0.1,0,0.2,0,0.3,0C344.4,140.8,344.2,140.8,344.1,140.8z"/>
						<path class="st1" d="M355.5,140.8l1.6,0.1C356.4,140.8,355.9,140.8,355.5,140.8z"/>
						<path class="st1" d="M364.3,140.9c0.1,0,0.1,0,0.2-0.1l0,0L364.3,140.9z"/>
						<path class="st1" d="M224.1,141c-0.1,0-0.2,0-0.3,0C223,141.1,223.5,141.1,224.1,141z"/>
						<path class="st1" d="M265.8,140.7c-0.4,0-0.9,0-1.3,0.1C265.2,140.8,265.8,140.8,265.8,140.7z"/>
						<path class="st1" d="M177.5,141.2C177.5,141.2,177.5,141.2,177.5,141.2c-0.1,0-0.2,0-0.3,0L177.5,141.2z"/>
						<path class="st1" d="M262.6,140.8c0.7,0,1.4,0,1.9,0C263.9,140.8,263.2,140.8,262.6,140.8z"/>
						<path class="st1" d="M386.7,157.7l0,0.4c0,0,0,0,0,0.1L386.7,157.7z"/>
						<path class="st1" d="M386.7,158.2l0,0.5C386.7,158.4,386.7,158.2,386.7,158.2z"/>
						<path class="st1" d="M386.7,159.6l0-1C386.7,159,386.7,159.4,386.7,159.6z"/>
						<path class="st1" d="M386.7,146l-0.1-0.1C386.7,145.9,386.7,146,386.7,146z"/>
						<path class="st1" d="M386.3,142.7c0.2,0.3,0.3,0.8,0.4,1.3c0,0.5,0,1.1,0,1.7l0,0.1c0-0.3,0-1,0-1.6
							C386.7,143.7,386.5,143,386.3,142.7z"/>
						<path class="st1" d="M372.5,140.3l3,0c-0.5-0.1-1.2-0.1,0.1-0.1C371.9,140,376.4,140.3,372.5,140.3z"/>
						<path class="st1" d="M363.3,140.2c1.6,0,0-0.1,0.1-0.1C362.4,140.1,362.1,140.1,363.3,140.2z"/>
						<path class="st1" d="M296.7,140.2l0.2-0.1C295.6,140.1,296.8,140.1,296.7,140.2z"/>
						<polygon class="st1" points="284,140.8 285.2,140.9 285.7,140.8 						"/>
						<polygon class="st1" points="276.4,139.9 277,139.9 274.9,140 						"/>
						<path class="st1" d="M164.6,140l0.4,0.2C165.8,140.1,165.9,139.9,164.6,140z"/>
						<path class="st1" d="M116.3,140.1c-0.5-0.1-1.9-0.1-2.7-0.1C114.6,140.1,115.7,140.2,116.3,140.1z"/>
						<polygon class="st1" points="194.3,173.1 193.3,173.2 195.1,173.1 						"/>
					</g>
				</g>
			</g>
		</g>
	</g>
	<path class="st2" d="M379.1,161.8l-5.1-4.5c0.6-0.9,1-2,1-3.2c0-3.3-2.7-5.9-5.9-5.9c-3.3,0-6,2.7-6,5.9c0,3.3,2.7,5.9,6,5.9
		c1.1,0,2.2-0.3,3.1-0.9l0.2-0.2l5.1,4.5L379.1,161.8z M364.8,154.1c0-2.3,1.9-4.2,4.2-4.2c2.3,0,4.2,1.9,4.2,4.2
		c0,2.3-1.9,4.2-4.2,4.2C366.7,158.3,364.8,156.4,364.8,154.1z"/>
	<g>
		<g class="st3">
			<polygon class="st4" points="-2100.3,-149.2 -2103.3,-149.2 -2103.3,-145.6 			"/>
			<polygon class="st4" points="-2105,-138.9 -2095.5,-148.8 -2086.1,-138.9 -2084.3,-138.9 -2095.5,-150.4 -2106.9,-138.9 			"/>
			<path class="st4" d="M-2097.9-128.8c0,0,0-5.3,0-6.4c0-1.1,1.1-1.1,1.1-1.1h2.3c0,0,1.1,0.1,1.1,1.1c0,1.1,0,6.6,0,6.6h5.7v-10
				l-7.9-7.8l-7.9,7.8v10L-2097.9-128.8z"/>
			<defs>
				<filter id="Adobe_OpacityMaskFilter" filterUnits="userSpaceOnUse" x="-2107.9" y="-152.1" width="24" height="24.5">
					<feColorMatrix  type="matrix" values="1 0 0 0 0  0 1 0 0 0  0 0 1 0 0  0 0 0 1 0"/>
				</filter>
			</defs>
			<mask maskUnits="userSpaceOnUse" x="-2107.9" y="-152.1" width="24" height="24.5" id="SVGID_1_" class="st12">
				<g style="filter:url(#Adobe_OpacityMaskFilter);">
					<rect x="-2112" y="-154.7" class="st6" width="32.5" height="31.4"/>
					<rect x="-2114.7" y="-143.2" width="38.5" height="7.9"/>
					<rect x="-2097.8" y="-158.4" width="4.6" height="38.8"/>
				</g>
			</mask>
			<g class="st7">
				<g>
					<g>
						<path class="st8" d="M-2086.8-151.3h-18.1c-1.2,0-2.3,1-2.3,2.3v18.3c0,1.3,1,2.3,2.3,2.3h18.1c1.2,0,2.3-1,2.3-2.3V-149
							C-2084.5-150.2-2085.5-151.3-2086.8-151.3L-2086.8-151.3z"/>
						<g>
							<g>
								<g>
									<path class="st9" d="M-2086.8-151.6c0,0,0,0.1,0.1,0.1l0.1-0.2L-2086.8-151.6z"/>
									<path class="st9" d="M-2085.9-151.1c0.2,0,0.4-0.1,0.4-0.2c-0.2,0.1-0.2,0-0.5,0.1c-0.1,0-0.2-0.1-0.2-0.2
										c-0.1,0-0.2-0.1-0.3,0C-2086.3-151.3-2086.1-151.2-2085.9-151.1C-2085.8-151.2-2085.9-151.2-2085.9-151.1z"/>
									<path class="st9" d="M-2084.7-139.3L-2084.7-139.3C-2084.7-139.4-2084.7-139.4-2084.7-139.3z"/>
									<path class="st9" d="M-2084.8-131.7C-2084.8-131.7-2084.8-131.8-2084.8-131.7C-2084.8-131.7-2084.8-131.7-2084.8-131.7z"/>
									<path class="st9" d="M-2085-130.4C-2085-130.5-2085-130.5-2085-130.4C-2085-130.5-2085-130.5-2085-130.4z"/>
									<path class="st9" d="M-2084.7-139.3l-0.1,0.2C-2084.7-139.1-2084.7-139.2-2084.7-139.3z"/>
									<path class="st9" d="M-2084.3-150.2C-2084.4-150.2-2084.4-150.2-2084.3-150.2L-2084.3-150.2L-2084.3-150.2z"/>
									<path class="st9" d="M-2084.9-142.7L-2084.9-142.7c0-0.1,0-0.1-0.1-0.1L-2084.9-142.7z"/>
									<path class="st9" d="M-2084.9-145.3c0,0.1,0.1,0.1,0.2,0.1C-2084.7-145.2-2084.8-145.3-2084.9-145.3
										C-2084.8-145.3-2084.8-145.3-2084.9-145.3z"/>
									<path class="st9" d="M-2084.7-149.4C-2084.7-149.4-2084.7-149.4-2084.7-149.4C-2084.7-149.4-2084.7-149.4-2084.7-149.4z"/>
									<path class="st9" d="M-2084.9-140.9C-2084.9-140.9-2084.9-140.9-2084.9-140.9C-2084.9-140.8-2084.9-140.9-2084.9-140.9z"/>
									<path class="st9" d="M-2089.8-151.9C-2089.8-151.9-2089.8-151.9-2089.8-151.9C-2089.7-151.9-2089.7-151.9-2089.8-151.9z"/>
									<path class="st9" d="M-2086.8-151.2L-2086.8-151.2C-2086.8-151.2-2086.8-151.2-2086.8-151.2L-2086.8-151.2z"/>
									<path class="st9" d="M-2086.2-129.2L-2086.2-129.2C-2086.1-129.2-2086.1-129.2-2086.2-129.2z"/>
									<path class="st9" d="M-2106.5-130.2c-0.1,0.2-0.2-0.3-0.3,0.1C-2106.8-130.2-2106.5-130-2106.5-130.2z"/>
									<path class="st9" d="M-2084.3-150.1c0,0,0,0.1,0,0.1C-2084.3-150-2084.3-150.1-2084.3-150.1z"/>
									<path class="st9" d="M-2106.8-130.2L-2106.8-130.2L-2106.8-130.2C-2106.8-130.1-2106.8-130.1-2106.8-130.2z"/>
									<path class="st9" d="M-2091.4-129C-2091.4-129-2091.4-128.9-2091.4-129C-2091.3-128.9-2091.3-129-2091.4-129z"/>
									<path class="st9" d="M-2087.3-128.8l-0.1,0C-2087.3-128.8-2087.3-128.8-2087.3-128.8z"/>
									<path class="st9" d="M-2093.5-128.8c-0.1,0-0.1,0-0.1,0l0,0C-2093.6-128.8-2093.6-128.8-2093.5-128.8z"/>
									<polygon class="st9" points="-2095.7,-128.8 -2095.7,-128.8 -2095.6,-128.8 									"/>
									<path class="st9" d="M-2096.5-151.9c0,0,0.1,0.1,0.1,0.1C-2096.4-151.8-2096.1-151.9-2096.5-151.9z"/>
									<path class="st9" d="M-2084.4-150.1C-2084.4-150.1-2084.3-150.1-2084.4-150.1L-2084.4-150.1
										C-2084.4-150.2-2084.4-150.1-2084.4-150.1z"/>
									<path class="st9" d="M-2093.6-127.7l-0.4,0C-2093.9-127.7-2093.7-127.7-2093.6-127.7z"/>
									<path class="st9" d="M-2107.7-145L-2107.7-145C-2107.7-145.1-2107.7-145-2107.7-145z"/>
									<path class="st9" d="M-2095-127.7c-0.1,0-0.1-0.1-0.2-0.1c0,0,0,0,0,0L-2095-127.7z"/>
									<path class="st9" d="M-2096.4-151.7L-2096.4-151.7L-2096.4-151.7z"/>
									<path class="st9" d="M-2094.1-152.1c-0.3,0-0.2,0.2-0.2,0.3c-0.4,0.1-0.2-0.1-0.3-0.2c-0.3,0-0.4,0.2-0.6,0.2
										c0,0-0.1,0,0-0.1c-0.3,0.1-0.8,0-1.1,0.2c0,0,0,0,0,0c0.1,0.1,0.1,0.2,0,0.3c-0.2,0-0.3,0.1-0.3,0c0.1,0,0.1,0,0.1-0.1
										l-0.2,0.1c-0.1-0.2,0.2-0.1,0.2-0.2c-0.3,0.1-0.7,0.2-0.9,0.2c0-0.2,0.6-0.1,0.2-0.2l0.4,0.1c-0.3-0.3,0.2,0,0-0.3
										c-0.5,0-0.5,0.1-1,0c-0.1,0.1,0,0.1-0.1,0.2c-0.7,0.2-0.5-0.4-1-0.2c-0.1,0.1-0.2,0.3-0.5,0.2l0.1-0.2
										c-0.5,0-0.3,0.3-0.8,0.1c0.1-0.1,0.4-0.1,0.3-0.1c-0.3-0.2-0.2,0.1-0.5,0.1l-0.1-0.2c-0.5,0-1,0.1-1.6,0.2
										c0-0.1,0.1-0.1,0-0.2c-0.7,0.1-1.5,0-2.1-0.1l-0.3,0.1c-0.1,0-0.1-0.1,0-0.1c-0.3-0.1,0,0.1-0.1,0.2
										c-0.1,0-0.2-0.1-0.1-0.1c-0.2,0.1-0.6,0.1-1,0.3c-0.4,0.1-0.7,0.3-1,0.5l0.1-0.1c-0.4,0.3-0.2,0.5-0.5,0.8l0-0.1
										c-0.3,0.4-0.5,0.9-0.5,1.4c0,0.5,0,0.8-0.1,1.1c0.2,0.1-0.1,0.8,0.2,0.9c-0.1,0.5-0.2,0.3-0.3,1c0,0.2,0.2,0.3,0.2,0.5
										l-0.2,0l0.2,0.3l-0.2,0.2l0,0.2c0-0.1,0.1-0.2,0.1-0.2c0.1,0.3-0.1,0.8-0.2,0.8l0.1,0.8c-0.1,0-0.1-0.1-0.1-0.2
										c0.2,0.4-0.2,0.1,0,0.4c0,0,0.1,0,0.1,0c-0.1,0.2-0.1,0.6-0.1,0.9l-0.1-0.1c0,0.6,0.1,1.2,0,1.8c0-0.2,0.2-0.2,0.3,0
										l-0.2,0.1c0.1,0.1,0.1-0.2,0.2,0.1c0,0.2-0.2,0.2-0.2,0l0.1,0.3c0,0-0.1,0-0.1-0.1c0.1,0.1-0.2,0.5,0,0.7l0,0
										c0,0.6,0.1,0.9,0.1,1.4c0.1,0,0.1,0.2,0.2,0.4c0,0.4-0.2,0.8-0.1,1.2c0.1,0.3,0.1,0.1,0.2,0.2c-0.1,0-0.1,0.5-0.2,0.2
										c0,0.5,0,0.7,0.1,1.4c0.1-0.1,0.1-0.2,0.1-0.1c0,0.1-0.1,0.3-0.1,0.3l0,0c0.2,0.8-0.4,1.8-0.1,2.4l0,0l0.1,0.6
										c0,0.3-0.1-0.2-0.2,0c0.1,0.3,0.1,0.6,0.1,0.9c0,0.2,0,0.6,0.1,0.9c-0.1,0.3,0.1,0.8,0.4,1.2c0.4,0.4,0.8,0.7,1.1,0.9
										l0-0.1c0.2,0,0.2,0.1,0.3,0.2c0-0.1-0.2-0.1-0.1-0.1c0.4,0.1,0.9,0.1,1.2,0.1c0.3,0,0.7,0,1,0.1c0.7,0.1,1.3,0.1,2,0.2
										c0.5,0,0.3-0.5,0.9-0.2l-0.2,0.2c1-0.2,2,0,3-0.2c-0.1,0-0.1,0.1-0.2,0.1c0.2,0.1,0.7,0,0.8-0.1c0.1,0,0,0.1,0.1,0.1
										c0.2,0.1,0.5-0.2,0.6,0c0,0-0.1,0-0.1,0c0.1-0.1,0.6,0,0.5-0.1c0.4,0.1,0.7-0.1,1,0c0.2-0.2,0.6,0.1,0.7-0.1
										c0,0.2,0.6,0.2,0.9,0.1c-0.1,0.1,0.2,0.1,0.1,0.2c0.3,0,0.5,0,0.5-0.2c0.5,0.3,1-0.2,1.2,0.1c0.8-0.1,1.5-0.2,2.2-0.3
										c0,0.2-0.8,0-0.7,0.3c0.7-0.1,1-0.3,1.7-0.2c0.2,0-0.1,0.1-0.2,0.1c0.7-0.1,1.3,0,1.9-0.1c0,0-0.1,0-0.1,0.1
										c0.1,0,0.3,0,0.3-0.1l-0.1,0c-0.2-0.1,0.5-0.3,0.5-0.4c-0.2,0.3,0.6,0,0.4,0.4c0.1,0,0.2-0.1,0.1-0.2c0.1,0,0.2,0,0.1,0.1
										c0.5-0.2,0.3-0.3,0.6-0.5c0,0,0,0.1-0.1,0.2c0.2-0.2,0.3-0.4,0.6-0.6c0,0,0.1,0,0,0.1c0.4-0.5,0.4-1,0.6-1.6
										c0.2,0.2,0.1-0.2,0.3-0.3c0-0.1,0-0.2-0.1-0.3l-0.1,0.1c0-0.3-0.1-0.5-0.1-0.8l0.1,0.2l0-0.5l-0.1,0.3
										c-0.1-0.3-0.2,0-0.2-0.3c0,0.1,0-0.3,0.1-0.4l0,0c-0.1-0.1-0.1-0.3-0.1-0.5c0.1-0.1,0.2,0,0.2,0c-0.2-0.1,0-0.7-0.2-0.8
										c0,0.1,0.1,0.1,0.2,0l-0.1-0.1c0-0.1,0.1-0.1,0.1-0.1c0-0.4-0.2,0.1-0.1-0.3c0,0,0,0,0,0.1c0.1-0.5-0.1-0.9,0-1.3
										c0.2-0.1,0,0.4,0.2,0.2c0-0.6-0.2-1.3-0.2-1.9l0,0.1c-0.3-0.1,0.1-0.4,0-0.7c0,0.1,0.1,0.1,0.1,0.1c0-0.4-0.1-0.8-0.1-1.5
										l0.1,0.1c0.1-0.2,0-0.6,0.1-0.9c-0.1-0.1-0.1-0.2-0.2-0.1c0.4-0.8-0.2-1.5,0.1-2.2c0,0.1,0.1,0.2,0.1,0.1l-0.1-0.6
										c-0.1,0-0.1,0.1-0.2,0.2c-0.1-0.1-0.1-0.2-0.1-0.4c0.1,0.3,0.2,0,0.3-0.1c0,0-0.1,0-0.1,0c0.2-0.3-0.2-0.1-0.1-0.5l0.1,0
										c0-0.2-0.1-0.3-0.1-0.5c0.1-0.1,0.1,0.2,0.2,0.2c0-0.2-0.3-0.5-0.1-0.7c0,0.1,0,0.3,0.1,0.4c0.2-0.2,0.1-0.3,0.1-0.4l0,0
										l0.1-0.4l0,0.1c-0.3-0.3-0.1-0.6-0.3-1c0.2,0.4,0.1,0.1,0.3,0.1c0-0.1,0.1-0.3,0.1-0.2c-0.1-0.2,0.1-0.3-0.1-0.6
										c0,0,0-0.2,0.1-0.2c0-0.3-0.1,0.1-0.1,0c-0.2-0.4,0.2-0.9,0-1.5c-0.1-0.5-0.2-0.6-0.4-1c0.1-0.2,0.2,0.1,0.2,0.1
										c0-0.3,0-0.5-0.2-0.7c0.1,0,0.1,0,0.1-0.1c-0.1-0.2-0.2,0-0.3-0.3c0.1,0,0.2,0,0.3,0.1c-0.2-0.2-0.4-0.3-0.6-0.5
										c0-0.1,0.2,0,0.3,0.1c-0.2-0.2-0.6-0.5-0.8-0.4c0,0,0.1,0.1,0.1,0.1c-0.1-0.1,0-0.1,0.1-0.1c0.3,0.1,0.2,0.3,0.2,0.3
										l-0.1-0.1c-0.1,0.3,0.5,0.4,0.6,0.8c-0.1,0-0.2,0-0.2,0c0.1,0.1,0.2,0.1,0.3,0.2c0,0.1-0.1,0.2-0.2,0
										c0,0.2,0.1,0.2,0.1,0.4c0,0,0,0,0,0l0.1,0.2c0,0-0.1,0-0.1-0.1c-0.1,0.4,0.2,0.6,0,0.8l0,0c0.1,0.6,0.2,0.1,0.3,0.5
										l-0.4,0.3l0.2,0.1c0,0.1,0,0.2-0.1,0.2c0.1,0.2,0.1,0,0.2,0.1c-0.1,0.3,0.1,0.8-0.2,0.8c0.1,0.1,0.1-0.3,0.2,0
										c-0.3,0.1,0,0.3-0.1,0.6c-0.1-0.1-0.1-0.3-0.2-0.1c0.2,0.2,0,0.5,0,0.7c0.2,0,0.1,0.5,0.1,0.8c-0.1,0-0.1,0.7-0.2,1l0,0
										c0.2,0.1,0.1,0.4,0.2,0.7c-0.1,0-0.2-0.1-0.2-0.2l0,0.2c0.1,0.1,0.1,0.1,0.1,0.3l-0.1-0.1c0,0.3,0.2,0.6,0.1,1
										c0.1,0,0.4-0.3,0.4,0.1c-0.1,0-0.2,0-0.2-0.1c0,0,0.1,0.1,0,0.2l-0.1-0.2c-0.1,0.2,0.1,0.1,0.1,0.2c-0.1,0-0.1,0.1-0.1,0.1
										c0,0,0-0.1,0-0.2c0,0.2-0.1,0.4-0.2,0.4c0.1,0,0.1,0,0.1,0.1c0,0.3-0.1,0.1-0.2,0.3c0.1,0.1,0,0.3,0.1,0.3
										c0,0.1-0.1,0.1-0.1,0.1c0.1,0.2,0,0.8,0.2,0.6l0,0l0,0v0v0c0.1,0.5-0.1,1.1,0,1.7l0,0c0.1,0.3,0,0.7,0.1,0.9
										c0,0.1-0.1,0.2-0.1,0.2c0,0.2,0.1,0.3,0,0.6c-0.1-0.2-0.1,0.1-0.1-0.3c0,0.3-0.1,0.4,0,0.7c-0.1-0.1-0.2,0.2-0.1,0.4
										l0.1-0.2c0,0.2,0,0.3,0,0.5l-0.2-0.1c-0.2,0.6,0.3,1.2,0,1.7c0.1,0.2,0.1-0.4,0.2-0.2c0,0.3-0.3,0.6-0.3,0.7
										c-0.1,0.4,0.2,0.4,0.2,0.8c0.1-0.1,0.2-0.1,0.3,0.2c0,0.3-0.2,0.4-0.3,0.2c0-0.1,0-0.1,0-0.1c0-0.1,0-0.2-0.1-0.1l0.1,0
										c-0.1,0.1-0.1,0.6-0.2,0.5c0.1,0.2,0.1,0.1,0.1-0.1c-0.1,0.4,0,0.6-0.1,0.9c0,0,0.1-0.1,0.1,0c-0.1,0.5,0.1,0.2,0,0.6
										c-0.2,0.1-0.2-0.1-0.2,0.2c-0.2,0.1-0.2,0-0.2-0.1c0,0.3-0.3,0.4-0.5,0.4c0,0,0-0.1,0.1-0.1c0,0.1-0.1,0.1-0.1,0.2
										c0,0,0.1,0,0.1,0c-0.1,0-0.1,0.1-0.2,0c0,0.1,0.2,0.1,0.1,0.3c-0.1,0-0.3,0.2-0.4,0.1c0.4-0.1-0.1-0.1,0.2-0.3
										c0,0-0.1,0.1-0.2,0.1c0,0,0,0,0,0c-0.3,0-0.1,0.2-0.4,0.3c0-0.1-0.1-0.2-0.1-0.1c0.1,0,0.1,0.1-0.1,0.2
										c-0.3-0.1-0.3,0.1-0.5,0l0.2,0c-0.1,0.1-0.2,0.1-0.4,0.1c0-0.1,0.2,0,0.1-0.1c-0.2,0.2-0.5-0.2-0.8-0.1
										c-0.1-0.1,0-0.2-0.1-0.2c-0.4,0.1-0.4-0.1-0.8,0c0.1,0.1,0.1,0.1-0.1,0.2l0.6-0.1l-0.4,0.2c0.2,0,0.4-0.1,0.5-0.1
										c-0.2,0.1-0.2,0.1-0.1,0.2c-0.3-0.2-0.5,0.1-0.8,0l0-0.3c-0.4-0.1-0.8,0.2-1.4,0.1l0.2,0.1c-0.1,0.1-0.4,0-0.5,0.1
										c0-0.1-0.1-0.1-0.2-0.2c0,0.1-0.4,0-0.5,0.2l-0.3-0.1c-0.5-0.1-0.5,0.3-1,0.2c0.1-0.1-0.1-0.2,0.2-0.3c-0.1,0-0.3,0-0.3,0
										c-0.1-0.1-0.4,0.1-0.6,0c-0.1,0-0.1,0.1-0.3,0.1c0,0,0,0,0,0c0,0-0.3,0.1-0.1,0.2c-0.5-0.3-1.3,0-1.7-0.2
										c-0.3,0-0.7,0.1-1,0.1c0,0,0,0,0.1,0c-0.4-0.1-0.3,0.3-0.7,0.2c-0.2-0.2,0.2-0.1,0.1-0.1c-0.1-0.3-0.6,0-0.9-0.1l0.1,0
										c-0.2-0.1-0.6,0.1-1,0.1c0,0,0,0,0,0c-0.3,0.2-0.8,0.2-1.1,0.3c0.1-0.1,0.2-0.1,0.1-0.2c-0.2,0,0,0.2-0.3,0.2
										c-0.1-0.1-0.4-0.1-0.4-0.3l0.3,0c-0.2-0.2-0.4,0-0.6,0l0-0.1c-0.5,0-0.5,0.2-1,0.2l0.1,0.1c-0.3,0.2-0.2-0.1-0.5,0
										l-0.1-0.2c-0.2,0-0.7,0.2-1,0.2c0.2-0.1,0.6-0.2,0.8-0.3c-0.2,0-0.6,0-0.7,0.1c0.1,0,0.2-0.1,0.2,0
										c-0.2,0.2-0.5,0.2-0.9,0.2c0.1-0.4-1-0.1-1.1-0.4c-0.5,0-0.9-0.5-1.2-1c-0.2,0.3-0.1-0.1-0.3,0c-0.1-0.1-0.1-0.2-0.1-0.2
										c0-0.2,0.1-0.3,0.1-0.5c0.1-0.1,0.1,0.1,0.1,0.1c0-0.3,0.1-0.1,0.2-0.4c-0.1,0.1-0.2-0.1-0.1-0.4l-0.1,0.3
										c-0.2-0.5,0.3-0.5,0.1-1l0.1,0.2c-0.1-0.3,0-1-0.2-1.3c0-0.1,0.1-0.1,0.1,0c0-0.7-0.3-1.5-0.1-2l0.1,0.1
										c0-0.1-0.1-0.2-0.1-0.4c0,0,0.1,0.1,0.1,0c0-0.1-0.1-0.3-0.1-0.5l0.1,0.1c0.1-0.7-0.2-1-0.3-1.6c0.2,0,0.3-0.5,0.3-0.8l0,0
										c0-0.8-0.2-1.3-0.3-2c0.2-0.4,0.1-1.5,0.2-2.2c0,0.1-0.2,0-0.2-0.1c0-0.2-0.2-0.5,0-0.4l0,0.1c0.2-0.1,0.1-0.5,0.2-0.7
										l-0.3,0c0.4-0.7-0.1-1.8,0.2-2.2c-0.1-0.2-0.1-0.4-0.1-0.5l0.1,0c0-0.5,0.1-0.7,0-1.3l0.1,0.1c0-0.3-0.4-0.4-0.4-0.7
										l0.2-0.1c0-0.3,0-0.6,0.1-0.8c0-0.2,0.1-0.4,0.1-0.6c0,0,0.1,0.1,0.1,0.1c0.1-0.2,0.5-0.5,0.3-0.7c0.1,0.1,0.3-0.3,0.6-0.4
										l0,0.1c0.1-0.2,0.1-0.3,0.4-0.4c0.1,0,0.1,0.1,0,0.1c0.2,0.1,0.2-0.1,0.5-0.1l-0.1,0.1c0.3,0,0.3,0,0.4-0.1
										c0.2-0.1,0.6,0,0.6,0.2c0-0.1,0.2-0.2,0.4-0.1c0,0,0,0.1-0.1,0.1c0.5,0.1,0.7-0.2,1.1,0c0,0,0,0.1,0.1,0.1
										c-0.4,0-0.7,0-0.7,0c0,0.1,0.3,0.2,0.1,0.3c0.3-0.1,0.7-0.3,1-0.2c0,0,0,0,0,0l0,0c0.1,0,0.1,0,0.2,0c0.1,0,0.2,0,0.3,0
										c0,0.1,0.4,0.1,0.5,0.1c0-0.1,0.2-0.1,0-0.2c0,0,0,0-0.1,0c0,0-0.1,0-0.1,0l0,0c-0.1,0-0.2,0-0.4,0
										c0.1-0.1,0.3-0.1,0.4-0.1c0.1-0.1,0.2-0.2,0.2-0.2c0.2,0.2,0.6,0.3,0.7,0.4c0.5-0.1,1.1-0.1,1.4-0.3c0.1,0,0.2,0.1,0.2,0.1
										c-0.1,0-0.2,0-0.2,0.1c0.3-0.1,0.8,0,0.9-0.2c0.3,0.1-0.2,0.2,0.3,0.1l-0.1,0.1c0.9,0.3,1.5-0.5,2.5-0.1
										c-0.1,0-0.1,0-0.1-0.1c1.2,0.2,2.4-0.2,3.6,0.1c0.3,0.1,0.4-0.1,0.6-0.2l0.1,0.2l0.3-0.2c0.5-0.1,0.8,0.4,1.5,0.1l-0.1-0.1
										c0.2,0,0.7-0.1,0.7,0.1c0,0,0.1-0.1,0.2-0.1l0,0.1l0.5-0.1c0.4,0.1-0.1,0.3,0.5,0.3c0.2,0,0.7-0.2,0.6-0.3
										c-0.1,0-0.2,0-0.2-0.1l0.2,0c0-0.2,0.2-0.5-0.3-0.6l-0.4,0.1l-0.1-0.1l0.3,0c-0.2-0.1-0.3,0-0.4,0.1c0-0.1-0.1-0.1-0.1-0.1
										l-0.4,0.2c0-0.1,0.2-0.2-0.1-0.2c-0.2,0.1,0.2,0.2-0.1,0.3c-0.2-0.1-0.1-0.2-0.3-0.1c0-0.1,0-0.1,0.1-0.1
										c-0.2,0.1-0.5,0-0.6,0.2c-0.2-0.1-0.6,0-0.6-0.2c-0.1,0.1-0.3,0.2-0.5,0.2c0.3-0.3-0.6,0-0.5-0.3c-0.2,0.2-0.8,0.1-1.2,0.2
										c0,0,0.1-0.1,0.1,0c-0.2,0-0.3-0.1-0.4-0.1c0,0.2-0.4,0.2-0.6,0.4c-0.3-0.2,0.2-0.2,0.1-0.4c0,0.2-0.5,0.2-0.4,0.3
										c-0.2-0.1-0.2-0.1-0.3-0.2c0,0.2-0.2,0-0.4,0.2c-0.3-0.1-0.1-0.2-0.4-0.2C-2094.4-152-2094.1-152.1-2094.1-152.1z
										 M-2101.9-151.7L-2101.9-151.7c0.1,0,0.1,0,0.2,0C-2101.8-151.7-2101.9-151.7-2101.9-151.7z M-2102.6-151.7
										c0.1,0,0.2,0,0.3,0c0,0,0,0.1-0.1,0.1C-2102.3-151.6-2102.5-151.6-2102.6-151.7z M-2101.2-150.7c-0.1,0-0.1,0-0.2,0
										C-2101.3-150.7-2101.2-150.7-2101.2-150.7L-2101.2-150.7C-2101.2-150.7-2101.2-150.7-2101.2-150.7z"/>
									<path class="st9" d="M-2101-150.9C-2101-150.9-2101-150.9-2101-150.9C-2101-150.9-2101-150.9-2101-150.9L-2101-150.9
										L-2101-150.9z"/>
									<path class="st9" d="M-2084.7-139.4L-2084.7-139.4C-2084.7-139.4-2084.7-139.4-2084.7-139.4
										C-2084.7-139.4-2084.7-139.4-2084.7-139.4z"/>
									<polygon class="st9" points="-2107.8,-145.7 -2107.8,-145.7 -2107.8,-145.8 									"/>
									<path class="st9" d="M-2084.2-143.1C-2084.2-143.1-2084.2-143.1-2084.2-143.1C-2084.2-143.1-2084.2-143.1-2084.2-143.1z"/>
									<path class="st9" d="M-2084.2-144.6l0.1-0.2C-2084.2-144.8-2084.2-144.7-2084.2-144.6z"/>
									<path class="st9" d="M-2084.1-145.9C-2084.1-145.9-2084.2-145.9-2084.1-145.9L-2084.1-145.9L-2084.1-145.9z"/>
									<path class="st9" d="M-2087.2-127.8C-2087.2-127.8-2087.2-127.8-2087.2-127.8C-2087.3-127.8-2087.3-127.8-2087.2-127.8z"/>
									<path class="st9" d="M-2084.3-132.4c0,0.1,0.1,0.1,0.1,0.2C-2084.2-132.3-2084.2-132.4-2084.3-132.4z"/>
									<polygon class="st9" points="-2093.6,-127.7 -2093.6,-127.7 -2093.6,-127.7 									"/>
									<path class="st9" d="M-2084.2-131.9c0-0.1,0-0.2,0-0.3C-2084.2-132.1-2084.2-132-2084.2-131.9z"/>
									<path class="st9" d="M-2085.1-151.2L-2085.1-151.2C-2085.2-151.2-2085.2-151.2-2085.1-151.2L-2085.1-151.2z"/>
									<path class="st9" d="M-2085.2-151.2L-2085.2-151.2C-2085.2-151.2-2085.2-151.2-2085.2-151.2z"/>
									<path class="st9" d="M-2085.4-151.3l0.2,0.1C-2085.3-151.2-2085.4-151.3-2085.4-151.3z"/>
									<path class="st9" d="M-2084.2-149.6L-2084.2-149.6C-2084.1-149.6-2084.2-149.6-2084.2-149.6z"/>
									<path class="st9" d="M-2084.1-149c0-0.1,0.1-0.4,0-0.5l0,0C-2084-149.5-2084.2-149.1-2084.1-149z"/>
									<path class="st9" d="M-2084.7-147l0-0.4c-0.1,0.1-0.1,0.2-0.1,0C-2085-146.9-2084.7-147.5-2084.7-147z"/>
									<path class="st9" d="M-2084.8-145.7c0-0.2-0.1,0-0.1,0C-2084.9-145.6-2084.9-145.5-2084.8-145.7z"/>
									<path class="st9" d="M-2084.8-136.6l-0.1,0C-2084.9-136.4-2084.9-136.6-2084.8-136.6z"/>
									<polygon class="st9" points="-2084.1,-134.8 -2084.1,-135 -2084.2,-135.1 									"/>
									<polygon class="st9" points="-2085.1,-133.8 -2085.1,-133.9 -2085,-133.6 									"/>
									<path class="st9" d="M-2095.3-128.9l0.1,0.2C-2095.2-128.8-2095.2-129-2095.3-128.9z"/>
									<path class="st9" d="M-2102-128.7c-0.1-0.1-0.3-0.1-0.4-0.1C-2102.2-128.8-2102-128.7-2102-128.7z"/>
									<polygon class="st9" points="-2106.5,-144 -2106.5,-143.9 -2106.5,-144.1 									"/>
								</g>
							</g>
						</g>
					</g>
				</g>
			</g>
		</g>
	</g>
	<g>
		<g class="st3">
			<polygon class="st4" points="-448.3,-553.2 -451.3,-553.2 -451.3,-549.6 			"/>
			<polygon class="st4" points="-453.1,-542.9 -443.5,-552.8 -434.2,-542.9 -432.3,-542.9 -443.6,-554.4 -455,-542.9 			"/>
			<path class="st4" d="M-445.9-532.8c0,0,0-5.3,0-6.4c0-1.1,1.1-1.1,1.1-1.1h2.3c0,0,1.1,0.1,1.1,1.1c0,1.1,0,6.6,0,6.6h5.7v-10
				l-7.9-7.8l-7.9,7.8v10L-445.9-532.8z"/>
			<defs>
				<filter id="Adobe_OpacityMaskFilter_1_" filterUnits="userSpaceOnUse" x="-455.9" y="-556.1" width="24" height="24.5">
					<feColorMatrix  type="matrix" values="1 0 0 0 0  0 1 0 0 0  0 0 1 0 0  0 0 0 1 0"/>
				</filter>
			</defs>
			<mask maskUnits="userSpaceOnUse" x="-455.9" y="-556.1" width="24" height="24.5" id="SVGID_2_" class="st12">
				<g style="filter:url(#Adobe_OpacityMaskFilter_1_);">
					<rect x="-460" y="-558.7" class="st6" width="32.5" height="31.4"/>
					<rect x="-462.7" y="-547.2" width="38.5" height="7.9"/>
					<rect x="-445.8" y="-562.4" width="4.6" height="38.8"/>
				</g>
			</mask>
			<g class="st11">
				<g>
					<g>
						<path class="st8" d="M-434.8-555.3h-18.1c-1.2,0-2.3,1-2.3,2.3v18.3c0,1.3,1,2.3,2.3,2.3h18.1c1.2,0,2.3-1,2.3-2.3V-553
							C-432.5-554.2-433.5-555.3-434.8-555.3L-434.8-555.3z"/>
						<g>
							<g>
								<g>
									<path class="st9" d="M-434.8-555.6c0,0,0,0.1,0.1,0.1l0.1-0.2L-434.8-555.6z"/>
									<path class="st9" d="M-433.9-555.1c0.2,0,0.4-0.1,0.4-0.2c-0.2,0.1-0.2,0-0.5,0.1c-0.1,0-0.2-0.1-0.2-0.2
										c-0.1,0-0.2-0.1-0.3,0C-434.3-555.3-434.1-555.2-433.9-555.1C-433.9-555.2-433.9-555.2-433.9-555.1z"/>
									<path class="st9" d="M-432.7-543.3L-432.7-543.3C-432.7-543.4-432.7-543.4-432.7-543.3z"/>
									<path class="st9" d="M-432.8-535.7C-432.8-535.7-432.9-535.8-432.8-535.7C-432.9-535.7-432.9-535.7-432.8-535.7z"/>
									<path class="st9" d="M-433-534.4C-433-534.5-433-534.5-433-534.4C-433-534.5-433.1-534.5-433-534.4z"/>
									<path class="st9" d="M-432.7-543.3l-0.1,0.2C-432.7-543.1-432.8-543.2-432.7-543.3z"/>
									<path class="st9" d="M-432.4-554.2C-432.4-554.2-432.4-554.2-432.4-554.2L-432.4-554.2L-432.4-554.2z"/>
									<path class="st9" d="M-432.9-546.7L-432.9-546.7c0-0.1,0-0.1-0.1-0.1L-432.9-546.7z"/>
									<path class="st9" d="M-432.9-549.3c0,0.1,0.1,0.1,0.2,0.1C-432.8-549.2-432.8-549.3-432.9-549.3
										C-432.8-549.3-432.9-549.3-432.9-549.3z"/>
									<path class="st9" d="M-432.7-553.4C-432.7-553.4-432.7-553.4-432.7-553.4C-432.7-553.4-432.7-553.4-432.7-553.4z"/>
									<path class="st9" d="M-432.9-544.9C-432.9-544.9-433-544.9-432.9-544.9C-432.9-544.8-432.9-544.9-432.9-544.9z"/>
									<path class="st9" d="M-437.8-555.9C-437.8-555.9-437.8-555.9-437.8-555.9C-437.8-555.9-437.8-555.9-437.8-555.9z"/>
									<path class="st9" d="M-434.8-555.2L-434.8-555.2C-434.8-555.2-434.8-555.2-434.8-555.2L-434.8-555.2z"/>
									<path class="st9" d="M-434.2-533.2L-434.2-533.2C-434.1-533.2-434.2-533.2-434.2-533.2z"/>
									<path class="st9" d="M-454.5-534.2c-0.1,0.2-0.2-0.3-0.3,0.1C-454.8-534.2-454.6-534-454.5-534.2z"/>
									<path class="st9" d="M-432.3-554.1c0,0,0,0.1,0,0.1C-432.3-554-432.3-554.1-432.3-554.1z"/>
									<path class="st9" d="M-454.8-534.2L-454.8-534.2L-454.8-534.2C-454.8-534.1-454.8-534.1-454.8-534.2z"/>
									<path class="st9" d="M-439.4-533C-439.4-533-439.4-532.9-439.4-533C-439.4-532.9-439.4-533-439.4-533z"/>
									<path class="st9" d="M-435.3-532.8l-0.1,0C-435.4-532.8-435.3-532.8-435.3-532.8z"/>
									<path class="st9" d="M-441.5-532.8c-0.1,0-0.1,0-0.1,0l0,0C-441.6-532.8-441.6-532.8-441.5-532.8z"/>
									<polygon class="st9" points="-443.8,-532.8 -443.7,-532.8 -443.7,-532.8 									"/>
									<path class="st9" d="M-444.5-555.9c0,0,0.1,0.1,0.1,0.1C-444.5-555.8-444.1-555.9-444.5-555.9z"/>
									<path class="st9" d="M-432.4-554.1C-432.4-554.1-432.4-554.1-432.4-554.1L-432.4-554.1
										C-432.4-554.2-432.4-554.1-432.4-554.1z"/>
									<path class="st9" d="M-441.6-531.7l-0.4,0C-441.9-531.7-441.8-531.7-441.6-531.7z"/>
									<path class="st9" d="M-455.8-549L-455.8-549C-455.8-549.1-455.8-549-455.8-549z"/>
									<path class="st9" d="M-443-531.7c-0.1,0-0.1-0.1-0.2-0.1c0,0,0,0,0,0L-443-531.7z"/>
									<path class="st9" d="M-444.4-555.7L-444.4-555.7L-444.4-555.7z"/>
									<path class="st9" d="M-442.1-556.1c-0.3,0-0.2,0.2-0.2,0.3c-0.4,0.1-0.2-0.1-0.3-0.2c-0.3,0-0.4,0.2-0.6,0.2
										c0,0-0.1,0,0-0.1c-0.3,0.1-0.8,0-1.1,0.2c0,0,0,0,0,0c0.1,0.1,0.1,0.2,0,0.3c-0.2,0-0.3,0.1-0.3,0c0.1,0,0.1,0,0.1-0.1
										l-0.2,0.1c-0.1-0.2,0.2-0.1,0.2-0.2c-0.3,0.1-0.7,0.2-0.9,0.2c0-0.2,0.6-0.1,0.2-0.2l0.4,0.1c-0.3-0.3,0.2,0,0-0.3
										c-0.5,0-0.5,0.1-1,0c-0.1,0.1,0,0.1-0.1,0.2c-0.7,0.2-0.5-0.4-1-0.2c-0.1,0.1-0.2,0.3-0.5,0.2l0.1-0.2
										c-0.5,0-0.3,0.3-0.8,0.1c0.1-0.1,0.4-0.1,0.3-0.1c-0.3-0.2-0.2,0.1-0.5,0.1l-0.1-0.2c-0.5,0-1,0.1-1.6,0.2
										c0-0.1,0.1-0.1,0-0.2c-0.7,0.1-1.5,0-2.1-0.1l-0.3,0.1c-0.1,0-0.1-0.1,0-0.1c-0.3-0.1,0,0.1-0.1,0.2
										c-0.1,0-0.2-0.1-0.1-0.1c-0.2,0.1-0.6,0.1-1,0.3c-0.4,0.1-0.7,0.3-1,0.5l0.1-0.1c-0.4,0.3-0.2,0.5-0.5,0.8l0-0.1
										c-0.3,0.4-0.5,0.9-0.5,1.4c0,0.5,0,0.8-0.1,1.1c0.2,0.1-0.1,0.8,0.2,0.9c-0.1,0.5-0.2,0.3-0.3,1c0,0.2,0.2,0.3,0.2,0.5
										l-0.2,0l0.2,0.3l-0.2,0.2l0,0.2c0-0.1,0.1-0.2,0.1-0.2c0.1,0.3-0.1,0.8-0.2,0.8l0.1,0.8c-0.1,0-0.1-0.1-0.1-0.2
										c0.2,0.4-0.2,0.1,0,0.4c0,0,0.1,0,0.1,0c-0.1,0.2-0.1,0.6-0.1,0.9l-0.1-0.1c0,0.6,0.1,1.2,0,1.8c0-0.2,0.2-0.2,0.3,0
										l-0.2,0.1c0.1,0.1,0.1-0.2,0.2,0.1c0,0.2-0.2,0.2-0.2,0l0.1,0.3c0,0-0.1,0-0.1-0.1c0.1,0.1-0.2,0.5,0,0.7l0,0
										c0,0.6,0.1,0.9,0.1,1.4c0.1,0,0.1,0.2,0.2,0.4c0,0.4-0.2,0.8-0.1,1.2c0.1,0.3,0.1,0.1,0.2,0.2c-0.1,0-0.1,0.5-0.2,0.2
										c0,0.5,0,0.7,0.1,1.4c0.1-0.1,0.1-0.2,0.1-0.1c0,0.1-0.1,0.3-0.1,0.3l0,0c0.2,0.8-0.4,1.8-0.1,2.4l0,0l0.1,0.6
										c0,0.3-0.1-0.2-0.2,0c0.1,0.3,0.1,0.6,0.1,0.9c0,0.2,0,0.6,0.1,0.9c-0.1,0.3,0.1,0.8,0.4,1.2c0.4,0.4,0.8,0.7,1.1,0.9
										l0-0.1c0.2,0,0.2,0.1,0.3,0.2c0-0.1-0.2-0.1-0.1-0.1c0.4,0.1,0.9,0.1,1.2,0.1c0.3,0,0.7,0,1,0.1c0.7,0.1,1.3,0.1,2,0.2
										c0.5,0,0.3-0.5,0.9-0.2l-0.2,0.2c1-0.2,2,0,3-0.2c-0.1,0-0.1,0.1-0.2,0.1c0.2,0.1,0.7,0,0.8-0.1c0.1,0,0,0.1,0.1,0.1
										c0.2,0.1,0.5-0.2,0.6,0c0,0-0.1,0-0.1,0c0.1-0.1,0.6,0,0.5-0.1c0.4,0.1,0.7-0.1,1,0c0.2-0.2,0.6,0.1,0.7-0.1
										c0,0.2,0.6,0.2,0.9,0.1c-0.1,0.1,0.2,0.1,0.1,0.2c0.3,0,0.5,0,0.5-0.2c0.5,0.3,1-0.2,1.2,0.1c0.8-0.1,1.5-0.2,2.2-0.3
										c0,0.2-0.8,0-0.7,0.3c0.7-0.1,1-0.3,1.7-0.2c0.2,0-0.1,0.1-0.2,0.1c0.7-0.1,1.3,0,1.9-0.1c0,0-0.1,0-0.1,0.1
										c0.1,0,0.3,0,0.3-0.1l-0.1,0c-0.2-0.1,0.5-0.3,0.5-0.4c-0.2,0.3,0.6,0,0.4,0.4c0.1,0,0.2-0.1,0.1-0.2c0.1,0,0.2,0,0.1,0.1
										c0.5-0.2,0.3-0.3,0.6-0.5c0,0,0,0.1-0.1,0.2c0.2-0.2,0.3-0.4,0.6-0.6c0,0,0.1,0,0,0.1c0.4-0.5,0.4-1,0.6-1.6
										c0.2,0.2,0.1-0.2,0.3-0.3c0-0.1,0-0.2-0.1-0.3l-0.1,0.1c0-0.3-0.1-0.5-0.1-0.8l0.1,0.2l0-0.5l-0.1,0.3
										c-0.1-0.3-0.2,0-0.2-0.3c0,0.1,0-0.3,0.1-0.4l0,0c-0.1-0.1-0.1-0.3-0.1-0.5c0.1-0.1,0.2,0,0.2,0c-0.2-0.1,0-0.7-0.2-0.8
										c0,0.1,0.1,0.1,0.2,0l-0.1-0.1c0-0.1,0.1-0.1,0.1-0.1c0-0.4-0.2,0.1-0.1-0.3c0,0,0,0,0,0.1c0.1-0.5-0.1-0.9,0-1.3
										c0.2-0.1,0,0.4,0.2,0.2c0-0.6-0.2-1.3-0.2-1.9l0,0.1c-0.3-0.1,0.1-0.4,0-0.7c0,0.1,0.1,0.1,0.1,0.1c0-0.4-0.1-0.8-0.1-1.5
										l0.1,0.1c0.1-0.2,0-0.6,0.1-0.9c-0.1-0.1-0.1-0.2-0.2-0.1c0.4-0.8-0.2-1.5,0.1-2.2c0,0.1,0.1,0.2,0.1,0.1l-0.1-0.6
										c-0.1,0-0.1,0.1-0.2,0.2c-0.1-0.1-0.1-0.2-0.1-0.4c0.1,0.3,0.2,0,0.3-0.1c0,0-0.1,0-0.1,0c0.2-0.3-0.2-0.1-0.1-0.5l0.1,0
										c0-0.2-0.1-0.3-0.1-0.5c0.1-0.1,0.1,0.2,0.2,0.2c0-0.2-0.3-0.5-0.1-0.7c0,0.1,0,0.3,0.1,0.4c0.2-0.2,0.1-0.3,0.1-0.4l0,0
										l0.1-0.4l0,0.1c-0.3-0.3-0.1-0.6-0.3-1c0.2,0.4,0.1,0.1,0.3,0.1c0-0.1,0.1-0.3,0.1-0.2c-0.1-0.2,0.1-0.3-0.1-0.6
										c0,0,0-0.2,0.1-0.2c0-0.3-0.1,0.1-0.1,0c-0.2-0.4,0.2-0.9,0-1.5c-0.1-0.5-0.2-0.6-0.4-1c0.1-0.2,0.2,0.1,0.2,0.1
										c0-0.3,0-0.5-0.2-0.7c0.1,0,0.1,0,0.1-0.1c-0.1-0.2-0.2,0-0.3-0.3c0.1,0,0.2,0,0.3,0.1c-0.2-0.2-0.4-0.3-0.6-0.5
										c0-0.1,0.2,0,0.3,0.1c-0.2-0.2-0.6-0.5-0.8-0.4c0,0,0.1,0.1,0.1,0.1c-0.1-0.1,0-0.1,0.1-0.1c0.3,0.1,0.2,0.3,0.2,0.3
										l-0.1-0.1c-0.1,0.3,0.5,0.4,0.6,0.8c-0.1,0-0.2,0-0.2,0c0.1,0.1,0.2,0.1,0.3,0.2c0,0.1-0.1,0.2-0.2,0
										c0,0.2,0.1,0.2,0.1,0.4c0,0,0,0,0,0l0.1,0.2c0,0-0.1,0-0.1-0.1c-0.1,0.4,0.2,0.6,0,0.8l0,0c0.1,0.6,0.2,0.1,0.3,0.5
										l-0.4,0.3l0.2,0.1c0,0.1,0,0.2-0.1,0.2c0.1,0.2,0.1,0,0.2,0.1c-0.1,0.3,0.1,0.8-0.2,0.8c0.1,0.1,0.1-0.3,0.2,0
										c-0.3,0.1,0,0.3-0.1,0.6c-0.1-0.1-0.1-0.3-0.2-0.1c0.2,0.2-0.1,0.5,0,0.7c0.2,0,0.1,0.5,0.1,0.8c-0.1,0-0.1,0.7-0.2,1l0,0
										c0.2,0.1,0.1,0.4,0.2,0.7c-0.1,0-0.2-0.1-0.2-0.2l0,0.2c0.1,0.1,0.1,0.1,0.1,0.3l-0.1-0.1c0,0.3,0.2,0.6,0.1,1
										c0.1,0,0.4-0.3,0.4,0.1c-0.1,0-0.2,0-0.2-0.1c0,0,0.1,0.1,0,0.2l-0.1-0.2c-0.1,0.2,0.1,0.1,0.1,0.2c-0.1,0-0.1,0.1-0.1,0.1
										c0,0,0-0.1,0-0.2c0,0.2-0.1,0.4-0.2,0.4c0.1,0,0.1,0,0.1,0.1c0,0.3-0.1,0.1-0.2,0.3c0.1,0.1,0,0.3,0.1,0.3
										c0,0.1-0.1,0.1-0.1,0.1c0.1,0.2,0,0.8,0.2,0.6l0,0l0,0v0v0c0.1,0.5-0.1,1.1,0,1.7l0,0c0.1,0.3,0,0.7,0.1,0.9
										c0,0.1-0.1,0.2-0.1,0.2c0,0.2,0.1,0.3,0,0.6c-0.1-0.2-0.1,0.1-0.1-0.3c0,0.3-0.1,0.4,0,0.7c-0.1-0.1-0.2,0.2-0.1,0.4
										l0.1-0.2c0,0.2,0,0.3,0,0.5l-0.2-0.1c-0.2,0.6,0.3,1.2,0,1.7c0.1,0.2,0.1-0.4,0.2-0.2c0,0.3-0.3,0.6-0.3,0.7
										c-0.1,0.4,0.2,0.4,0.2,0.8c0.1-0.1,0.2-0.1,0.3,0.2c0,0.3-0.2,0.4-0.3,0.2c0-0.1,0-0.1,0-0.1c0-0.1,0-0.2-0.1-0.1l0.1,0
										c-0.1,0.1-0.1,0.6-0.2,0.5c0.1,0.2,0.1,0.1,0.1-0.1c-0.1,0.4,0,0.6-0.1,0.9c0,0,0.1-0.1,0.1,0c-0.1,0.5,0.1,0.2,0,0.6
										c-0.2,0.1-0.2-0.1-0.2,0.2c-0.2,0.1-0.2,0-0.2-0.1c0,0.3-0.3,0.4-0.5,0.4c0,0,0-0.1,0.1-0.1c0,0.1-0.1,0.1-0.1,0.2
										c0,0,0.1,0,0.1,0c-0.1,0-0.1,0.1-0.2,0c0,0.1,0.2,0.1,0.1,0.3c-0.1,0-0.3,0.2-0.4,0.1c0.4-0.1-0.1-0.1,0.2-0.3
										c0,0-0.1,0.1-0.2,0.1c0,0,0,0,0,0c-0.3,0-0.1,0.2-0.4,0.3c0-0.1-0.1-0.2-0.1-0.1c0.1,0,0.1,0.1-0.1,0.2
										c-0.3-0.1-0.3,0.1-0.5,0l0.2,0c-0.1,0.1-0.2,0.1-0.4,0.1c0-0.1,0.2,0,0.1-0.1c-0.2,0.2-0.5-0.2-0.8-0.1
										c-0.1-0.1,0-0.2-0.1-0.2c-0.4,0.1-0.4-0.1-0.8,0c0.1,0.1,0.1,0.1-0.1,0.2l0.6-0.1l-0.4,0.2c0.2,0,0.4-0.1,0.5-0.1
										c-0.2,0.1-0.2,0.1-0.1,0.2c-0.3-0.2-0.5,0.1-0.8,0l0-0.3c-0.4-0.1-0.8,0.2-1.4,0.1l0.2,0.1c-0.1,0.1-0.4,0-0.5,0.1
										c0-0.1-0.1-0.1-0.2-0.2c0,0.1-0.4,0-0.5,0.2l-0.3-0.1c-0.5-0.1-0.5,0.3-1,0.2c0.1-0.1-0.1-0.2,0.2-0.3c-0.1,0-0.3,0-0.3,0
										c-0.1-0.1-0.4,0.1-0.6,0c-0.1,0-0.1,0.1-0.3,0.1c0,0,0,0,0,0c0,0-0.3,0.1-0.1,0.2c-0.5-0.3-1.3,0-1.7-0.2
										c-0.3,0-0.7,0.1-1,0.1c0,0,0,0,0.1,0c-0.4-0.1-0.3,0.3-0.7,0.2c-0.2-0.2,0.2-0.1,0.1-0.1c-0.1-0.3-0.6,0-0.9-0.1l0.1,0
										c-0.2-0.1-0.6,0.1-1,0.1c0,0,0,0,0,0c-0.3,0.2-0.8,0.2-1.1,0.3c0.1-0.1,0.2-0.1,0.1-0.2c-0.2,0,0,0.2-0.3,0.2
										c-0.1-0.1-0.4-0.1-0.4-0.3l0.3,0c-0.2-0.2-0.4,0-0.6,0l0-0.1c-0.5,0-0.5,0.2-1,0.2l0.1,0.1c-0.3,0.2-0.2-0.1-0.5,0
										l-0.1-0.2c-0.2,0-0.7,0.2-1,0.2c0.2-0.1,0.6-0.2,0.8-0.3c-0.2,0-0.6,0-0.7,0.1c0.1,0,0.2-0.1,0.2,0
										c-0.2,0.2-0.5,0.2-0.9,0.2c0.1-0.4-1-0.1-1.1-0.4c-0.5,0-0.9-0.5-1.2-1c-0.2,0.3-0.1-0.1-0.3,0c-0.1-0.1-0.1-0.2-0.1-0.2
										c0-0.2,0.1-0.3,0.1-0.5c0.1-0.1,0.1,0.1,0.1,0.1c0-0.3,0.1-0.1,0.2-0.4c-0.1,0.1-0.2-0.1-0.1-0.4l-0.1,0.3
										c-0.2-0.5,0.3-0.5,0.1-1l0.1,0.2c-0.1-0.3,0-1-0.2-1.3c0-0.1,0.1-0.1,0.1,0c0-0.7-0.3-1.5-0.1-2l0.1,0.1
										c0-0.1-0.1-0.2-0.1-0.4c0,0,0.1,0.1,0.1,0c0-0.1-0.1-0.3-0.1-0.5l0.1,0.1c0.1-0.7-0.2-1-0.3-1.6c0.2,0,0.3-0.5,0.3-0.8l0,0
										c0-0.8-0.2-1.3-0.3-2c0.2-0.4,0.1-1.5,0.2-2.2c0,0.1-0.2,0-0.2-0.1c0-0.2-0.2-0.5,0-0.4l0,0.1c0.2-0.1,0.1-0.5,0.2-0.7
										l-0.3,0c0.4-0.7-0.1-1.8,0.2-2.2c-0.1-0.2-0.1-0.4-0.1-0.5l0.1,0c0-0.5,0.1-0.7,0-1.3l0.1,0.1c0-0.3-0.4-0.4-0.4-0.7
										l0.2-0.1c0-0.3,0-0.6,0.1-0.8c0-0.2,0.1-0.4,0.1-0.6c0,0,0.1,0.1,0.1,0.1c0.1-0.2,0.5-0.5,0.3-0.7c0.1,0.1,0.3-0.3,0.6-0.4
										l0,0.1c0.1-0.2,0.1-0.3,0.4-0.4c0.1,0,0.1,0.1,0,0.1c0.2,0.1,0.2-0.1,0.5-0.1l-0.1,0.1c0.3,0,0.3,0,0.4-0.1
										c0.2-0.1,0.6,0,0.6,0.2c0-0.1,0.2-0.2,0.4-0.1c0,0,0,0.1-0.1,0.1c0.5,0.1,0.7-0.2,1.1,0c0,0,0,0.1,0.1,0.1
										c-0.4,0-0.7,0-0.7,0c0,0.1,0.3,0.2,0.1,0.3c0.3-0.1,0.7-0.3,1-0.2c0,0,0,0,0,0l0,0c0.1,0,0.1,0,0.2,0c0.1,0,0.2,0,0.3,0
										c0,0.1,0.4,0.1,0.5,0.1c0-0.1,0.2-0.1,0-0.2c0,0,0,0-0.1,0c0,0-0.1,0-0.1,0l0,0c-0.1,0-0.2,0-0.4,0
										c0.1-0.1,0.3-0.1,0.4-0.1c0.1-0.1,0.2-0.2,0.2-0.2c0.2,0.2,0.6,0.3,0.7,0.4c0.5-0.1,1.1-0.1,1.4-0.3c0.1,0,0.2,0.1,0.2,0.1
										c-0.1,0-0.2,0-0.2,0.1c0.3-0.1,0.8,0,0.9-0.2c0.3,0.1-0.2,0.2,0.3,0.1l-0.1,0.1c0.9,0.3,1.5-0.5,2.5-0.1
										c-0.1,0-0.1,0-0.1-0.1c1.2,0.2,2.4-0.2,3.6,0.1c0.3,0.1,0.4-0.1,0.6-0.2l0.1,0.2l0.3-0.2c0.5-0.1,0.8,0.4,1.5,0.1l-0.1-0.1
										c0.2,0,0.7-0.1,0.7,0.1c0,0,0.1-0.1,0.2-0.1l0,0.1l0.5-0.1c0.4,0.1-0.1,0.3,0.5,0.3c0.2,0,0.7-0.2,0.6-0.3
										c-0.1,0-0.2,0-0.2-0.1l0.2,0c0-0.2,0.2-0.5-0.3-0.6l-0.4,0.1l-0.1-0.1l0.3,0c-0.2-0.1-0.3,0-0.4,0.1c0-0.1-0.1-0.1-0.2-0.1
										l-0.4,0.2c0-0.1,0.2-0.2-0.1-0.2c-0.2,0.1,0.2,0.2-0.1,0.3c-0.2-0.1-0.1-0.2-0.3-0.1c0-0.1,0-0.1,0.1-0.1
										c-0.2,0.1-0.5,0-0.6,0.2c-0.2-0.1-0.6,0-0.6-0.2c-0.1,0.1-0.3,0.2-0.5,0.2c0.3-0.3-0.6,0-0.5-0.3c-0.2,0.2-0.8,0.1-1.2,0.2
										c0,0,0.1-0.1,0.1,0c-0.2,0-0.3-0.1-0.4-0.1c0,0.2-0.4,0.2-0.6,0.4c-0.3-0.2,0.2-0.2,0.1-0.4c0,0.2-0.5,0.2-0.4,0.3
										c-0.2-0.1-0.2-0.1-0.3-0.2c0,0.2-0.2,0-0.4,0.2c-0.3-0.1-0.1-0.2-0.4-0.2C-442.4-556-442.1-556.1-442.1-556.1z M-450-555.7
										L-450-555.7c0.1,0,0.1,0,0.2,0C-449.8-555.7-449.9-555.7-450-555.7z M-450.6-555.7c0.1,0,0.2,0,0.3,0c0,0,0,0.1-0.1,0.1
										C-450.4-555.6-450.5-555.6-450.6-555.7z M-449.2-554.7c-0.1,0-0.1,0-0.2,0C-449.3-554.7-449.3-554.7-449.2-554.7
										L-449.2-554.7C-449.2-554.7-449.2-554.7-449.2-554.7z"/>
									<path class="st9" d="M-449-554.9C-449-554.9-449-554.9-449-554.9C-449-554.9-449-554.9-449-554.9L-449-554.9L-449-554.9z"
										/>
									<path class="st9" d="M-432.7-543.4L-432.7-543.4C-432.7-543.4-432.7-543.4-432.7-543.4
										C-432.7-543.4-432.7-543.4-432.7-543.4z"/>
									<polygon class="st9" points="-455.8,-549.7 -455.8,-549.7 -455.8,-549.8 									"/>
									<path class="st9" d="M-432.2-547.1C-432.2-547.1-432.2-547.1-432.2-547.1C-432.2-547.1-432.2-547.1-432.2-547.1z"/>
									<path class="st9" d="M-432.2-548.6l0.1-0.2C-432.2-548.8-432.2-548.7-432.2-548.6z"/>
									<path class="st9" d="M-432.1-549.9C-432.2-549.9-432.2-549.9-432.1-549.9L-432.1-549.9L-432.1-549.9z"/>
									<path class="st9" d="M-435.2-531.8C-435.2-531.8-435.3-531.8-435.2-531.8C-435.4-531.8-435.3-531.8-435.2-531.8z"/>
									<path class="st9" d="M-432.3-536.4c0,0.1,0.1,0.1,0.1,0.2C-432.2-536.3-432.2-536.4-432.3-536.4z"/>
									<polygon class="st9" points="-441.6,-531.7 -441.6,-531.7 -441.6,-531.7 									"/>
									<path class="st9" d="M-432.2-535.9c0-0.1,0-0.2,0-0.3C-432.2-536.1-432.3-536-432.2-535.9z"/>
									<path class="st9" d="M-433.1-555.2L-433.1-555.2C-433.2-555.2-433.2-555.2-433.1-555.2L-433.1-555.2z"/>
									<path class="st9" d="M-433.2-555.2L-433.2-555.2C-433.3-555.2-433.2-555.2-433.2-555.2z"/>
									<path class="st9" d="M-433.4-555.3l0.2,0.1C-433.3-555.2-433.4-555.3-433.4-555.3z"/>
									<path class="st9" d="M-432.2-553.6L-432.2-553.6C-432.2-553.6-432.2-553.6-432.2-553.6z"/>
									<path class="st9" d="M-432.1-553c0-0.1,0.1-0.4,0-0.5l0,0C-432.1-553.5-432.2-553.1-432.1-553z"/>
									<path class="st9" d="M-432.8-551l0-0.4c-0.1,0.1-0.1,0.2-0.1,0C-433-550.9-432.7-551.5-432.8-551z"/>
									<path class="st9" d="M-432.8-549.7c0-0.2-0.1,0-0.1,0C-432.9-549.6-432.9-549.5-432.8-549.7z"/>
									<path class="st9" d="M-432.8-540.6l-0.1,0C-432.9-540.4-432.9-540.6-432.8-540.6z"/>
									<polygon class="st9" points="-432.2,-538.8 -432.1,-539 -432.2,-539.1 									"/>
									<polygon class="st9" points="-433.1,-537.8 -433.1,-537.9 -433.1,-537.6 									"/>
									<path class="st9" d="M-443.4-532.9l0.1,0.2C-443.2-532.8-443.2-533-443.4-532.9z"/>
									<path class="st9" d="M-450-532.7c-0.1-0.1-0.3-0.1-0.4-0.1C-450.2-532.8-450.1-532.7-450-532.7z"/>
									<polygon class="st9" points="-454.6,-548 -454.5,-547.9 -454.6,-548.1 									"/>
								</g>
							</g>
						</g>
					</g>
				</g>
			</g>
		</g>
	</g>
	<g id="_x30_1" class="st3">
		<text transform="matrix(1 0 0 1 -2027.4531 -1531.501)" class="st12"><tspan x="0" y="0" style="font-family:'ArialMT'; font-size:20px;">Welcome!</tspan><tspan x="-146.8" y="19.2" style="font-family:'ArialMT'; font-size:16px;">Learn more about the </tspan><tspan x="10.7" y="19.2" style="font-family:'Arial-BoldMT'; font-size:16px;">3D</tspan><tspan x="31.1" y="19.2" style="font-family:'ArialMT'; font-size:16px;">EXPERIENCE user interface</tspan><tspan x="3.5" y="38.4" style="font-family:'ArialMT'; font-size:16px;">in 5 steps...</tspan></text>
		<g class="st12">
			<g>
				<path class="st13" d="M-2095.8-1600.5c0.5,0,1,0.4,1,1l2.4,52.6c0,0.4-0.2,0.6-0.3,0.7c-0.1,0.1-0.3,0.3-0.7,0.3l-160,7.3
					c-0.5,0-1-0.4-1-1l-2.4-52.6c0-0.5,0.4-1,1-1L-2095.8-1600.5L-2095.8-1600.5 M-2095.8-1603.5c-0.1,0-0.1,0-0.2,0l-159.9,7.3
					c-2.2,0.1-3.9,2-3.8,4.2l2.4,52.6c0.1,2.1,1.9,3.8,4,3.8c0.1,0,0.1,0,0.2,0l159.9-7.3c2.2-0.1,3.9-2,3.8-4.2l-2.4-52.6
					C-2091.9-1601.8-2093.7-1603.5-2095.8-1603.5L-2095.8-1603.5z"/>
			</g>
			<text transform="matrix(0.999 -4.543000e-02 4.543000e-02 0.999 -2215.5015 -1576.9248)"><tspan x="0" y="0" class="st13" style="font-family:'3ds-Regular'; font-size:14px;">Discover our</tspan><tspan x="-28.3" y="21.6" class="st13" style="font-family:'3ds-SemiBold'; font-size:18px;">R2017x updates</tspan></text>
		</g>
		<g>
			<g class="st12">
				<g>
					<path class="st14" d="M-2095.8-1600.5c0.5,0,1,0.4,1,1l2.4,52.6c0,0.4-0.2,0.6-0.3,0.7c-0.1,0.1-0.3,0.3-0.7,0.3l-160,7.3
						c-0.5,0-1-0.4-1-1l-2.4-52.6c0-0.5,0.4-1,1-1L-2095.8-1600.5L-2095.8-1600.5 M-2095.8-1603.5c-0.1,0-0.1,0-0.2,0l-159.9,7.3
						c-2.2,0.1-3.9,2-3.8,4.2l2.4,52.6c0.1,2.1,1.9,3.8,4,3.8c0.1,0,0.1,0,0.2,0l159.9-7.3c2.2-0.1,3.9-2,3.8-4.2l-2.4-52.6
						C-2091.9-1601.8-2093.7-1603.5-2095.8-1603.5L-2095.8-1603.5z"/>
				</g>
			</g>
			<text transform="matrix(0.999 -4.543000e-02 4.543000e-02 0.999 -2215.5015 -1576.9248)" class="st12"><tspan x="0" y="0" class="st14" style="font-family:'3ds-Regular'; font-size:14px;">Discover our</tspan><tspan x="-28.3" y="21.6" class="st14" style="font-family:'3ds-SemiBold'; font-size:18px;">R2017x updates</tspan></text>
		</g>
	</g>
	<g id="_x30_2">
		<polygon class="st15" points="-1831.3,-1492.5 -2134.8,-1492.5 -2128.9,-1504.8 -2134.8,-1516.5 -1831.3,-1516.5 -1837.4,-1504.8 
					"/>
		
			<text transform="matrix(1 0 0 1 -2088.8149 -1499.5)" style="display:none;fill:#E87B00; font-family:'3ds-Regular'; font-size:16px;">Discover our R2017x updates</text>
	</g>
	<g id="Layer_3">
	</g>
</g>
<g id="Layer_2">
</g>
</svg>
