<?xml version="1.0" encoding="utf-8"?>
<!-- Generator: Adobe Illustrator 23.0.0, SVG Export Plug-In . SVG Version: 6.00 Build 0)  -->
<svg version="1.1" xmlns="http://www.w3.org/2000/svg" xmlns:xlink="http://www.w3.org/1999/xlink" x="0px" y="0px"
	 viewBox="0 0 560 380" style="enable-background:new 0 0 560 380;" xml:space="preserve">
<style type="text/css">
	.st0{display:none;}
	.st1{display:inline;fill:#5B5D5E;}
	.st2{display:inline;filter:url(#Adobe_OpacityMaskFilter);}
	.st3{fill:#FFFFFF;}
	.st4{display:inline;mask:url(#SVGID_1_);}
	.st5{fill:none;}
	.st6{fill:#707272;}
	.st7{display:inline;filter:url(#Adobe_OpacityMaskFilter_1_);}
	.st8{display:inline;mask:url(#SVGID_2_);}
	.st9{fill:none;stroke:#000000;stroke-miterlimit:10;}
	.st10{fill:#5B5D5E;}
	.st11{display:inline;}
	.st12{fill:#E87B00;}
	.st13{fill:#0087A3;}
	.st14{display:none;fill:none;stroke:#E87B00;stroke-miterlimit:10;}
</style>
<g id="Layer_1">
	<g>
		<g class="st0">
			<polygon class="st1" points="-2102.3,263.8 -2105.3,263.8 -2105.3,267.4 			"/>
			<polygon class="st1" points="-2107,274.1 -2097.5,264.2 -2088.1,274.1 -2086.3,274.1 -2097.5,262.6 -2108.9,274.1 			"/>
			<path class="st1" d="M-2099.9,284.2c0,0,0-5.3,0-6.4c0-1.1,1.1-1.1,1.1-1.1h2.3c0,0,1.1,0.1,1.1,1.1c0,1.1,0,6.6,0,6.6h5.7v-10
				l-7.9-7.8l-7.9,7.8v10L-2099.9,284.2z"/>
			<defs>
				<filter id="Adobe_OpacityMaskFilter" filterUnits="userSpaceOnUse" x="-2109.9" y="260.9" width="24" height="24.5">
					<feColorMatrix  type="matrix" values="1 0 0 0 0  0 1 0 0 0  0 0 1 0 0  0 0 0 1 0"/>
				</filter>
			</defs>
			<mask maskUnits="userSpaceOnUse" x="-2109.9" y="260.9" width="24" height="24.5" id="SVGID_1_" class="st11">
				<g style="filter:url(#Adobe_OpacityMaskFilter);">
					<rect x="-2114" y="258.3" class="st3" width="32.5" height="31.4"/>
					<rect x="-2116.7" y="269.8" width="38.5" height="7.9"/>
					<rect x="-2099.8" y="254.6" width="4.6" height="38.8"/>
				</g>
			</mask>
			<g class="st4">
				<g>
					<g>
						<path class="st5" d="M-2088.8,261.7h-18.1c-1.2,0-2.3,1-2.3,2.3v18.3c0,1.3,1,2.3,2.3,2.3h18.1c1.2,0,2.3-1,2.3-2.3V264
							C-2086.5,262.8-2087.5,261.7-2088.8,261.7L-2088.8,261.7z"/>
						<g>
							<g>
								<g>
									<path class="st6" d="M-2088.8,261.4c0,0,0,0.1,0.1,0.1l0.1-0.2L-2088.8,261.4z"/>
									<path class="st6" d="M-2087.9,261.9c0.2,0,0.4-0.1,0.4-0.2c-0.2,0.1-0.2,0-0.5,0.1c-0.1,0-0.2-0.1-0.2-0.2
										c-0.1,0-0.2-0.1-0.3,0C-2088.3,261.7-2088.1,261.8-2087.9,261.9C-2087.8,261.8-2087.9,261.8-2087.9,261.9z"/>
									<path class="st6" d="M-2086.7,273.7L-2086.7,273.7C-2086.7,273.6-2086.7,273.6-2086.7,273.7z"/>
									<path class="st6" d="M-2086.8,281.3C-2086.8,281.3-2086.8,281.2-2086.8,281.3C-2086.8,281.3-2086.8,281.3-2086.8,281.3z"/>
									<path class="st6" d="M-2087,282.6C-2087,282.5-2087,282.5-2087,282.6C-2087,282.5-2087,282.5-2087,282.6z"/>
									<path class="st6" d="M-2086.7,273.7l-0.1,0.2C-2086.7,273.9-2086.7,273.8-2086.7,273.7z"/>
									<path class="st6" d="M-2086.3,262.8C-2086.4,262.8-2086.4,262.8-2086.3,262.8L-2086.3,262.8L-2086.3,262.8z"/>
									<path class="st6" d="M-2086.9,270.3L-2086.9,270.3c0-0.1,0-0.1-0.1-0.1L-2086.9,270.3z"/>
									<path class="st6" d="M-2086.9,267.7c0,0.1,0.1,0.1,0.2,0.1C-2086.7,267.8-2086.8,267.7-2086.9,267.7
										C-2086.8,267.7-2086.8,267.7-2086.9,267.7z"/>
									<path class="st6" d="M-2086.7,263.6C-2086.7,263.6-2086.7,263.6-2086.7,263.6C-2086.7,263.6-2086.7,263.6-2086.7,263.6z"/>
									<path class="st6" d="M-2086.9,272.1C-2086.9,272.1-2086.9,272.1-2086.9,272.1C-2086.9,272.2-2086.9,272.1-2086.9,272.1z"/>
									<path class="st6" d="M-2091.8,261.1C-2091.8,261.1-2091.8,261.1-2091.8,261.1C-2091.7,261.1-2091.7,261.1-2091.8,261.1z"/>
									<path class="st6" d="M-2088.8,261.8L-2088.8,261.8C-2088.8,261.8-2088.8,261.8-2088.8,261.8L-2088.8,261.8z"/>
									<path class="st6" d="M-2088.2,283.8L-2088.2,283.8C-2088.1,283.8-2088.1,283.8-2088.2,283.8z"/>
									<path class="st6" d="M-2108.5,282.8c-0.1,0.2-0.2-0.3-0.3,0.1C-2108.8,282.8-2108.5,283-2108.5,282.8z"/>
									<path class="st6" d="M-2086.3,262.9c0,0,0,0.1,0,0.1C-2086.3,263-2086.3,262.9-2086.3,262.9z"/>
									<path class="st6" d="M-2108.8,282.8L-2108.8,282.8L-2108.8,282.8C-2108.8,282.9-2108.8,282.9-2108.8,282.8z"/>
									<path class="st6" d="M-2093.4,284C-2093.4,284-2093.4,284.1-2093.4,284C-2093.3,284.1-2093.3,284-2093.4,284z"/>
									<path class="st6" d="M-2089.3,284.2l-0.1,0C-2089.3,284.2-2089.3,284.2-2089.3,284.2z"/>
									<path class="st6" d="M-2095.5,284.2c-0.1,0-0.1,0-0.1,0l0,0C-2095.6,284.2-2095.6,284.2-2095.5,284.2z"/>
									<polygon class="st6" points="-2097.7,284.2 -2097.7,284.2 -2097.6,284.2 									"/>
									<path class="st6" d="M-2098.5,261.1c0,0,0.1,0.1,0.1,0.1C-2098.4,261.2-2098.1,261.1-2098.5,261.1z"/>
									<path class="st6" d="M-2086.4,262.9C-2086.4,262.9-2086.3,262.9-2086.4,262.9L-2086.4,262.9
										C-2086.4,262.8-2086.4,262.9-2086.4,262.9z"/>
									<path class="st6" d="M-2095.6,285.3l-0.4,0C-2095.9,285.3-2095.7,285.3-2095.6,285.3z"/>
									<path class="st6" d="M-2109.7,268L-2109.7,268C-2109.7,267.9-2109.7,268-2109.7,268z"/>
									<path class="st6" d="M-2097,285.3c-0.1,0-0.1-0.1-0.2-0.1c0,0,0,0,0,0L-2097,285.3z"/>
									<path class="st6" d="M-2098.4,261.3L-2098.4,261.3L-2098.4,261.3z"/>
									<path class="st6" d="M-2096.1,260.9c-0.3,0-0.2,0.2-0.2,0.3c-0.4,0.1-0.2-0.1-0.3-0.2c-0.3,0-0.4,0.2-0.6,0.2
										c0,0-0.1,0,0-0.1c-0.3,0.1-0.8,0-1.1,0.2c0,0,0,0,0,0c0.1,0.1,0.1,0.2,0,0.3c-0.2,0-0.3,0.1-0.3,0c0.1,0,0.1,0,0.1-0.1
										l-0.2,0.1c-0.1-0.2,0.2-0.1,0.2-0.2c-0.3,0.1-0.7,0.2-0.9,0.2c0-0.2,0.6-0.1,0.2-0.2l0.4,0.1c-0.3-0.3,0.2,0,0-0.3
										c-0.5,0-0.5,0.1-1,0c-0.1,0.1,0,0.1-0.1,0.2c-0.7,0.2-0.5-0.4-1-0.2c-0.1,0.1-0.2,0.3-0.5,0.2l0.1-0.2
										c-0.5,0-0.3,0.3-0.8,0.1c0.1-0.1,0.4-0.1,0.3-0.1c-0.3-0.2-0.2,0.1-0.5,0.1l-0.1-0.2c-0.5,0-1,0.1-1.6,0.2
										c0-0.1,0.1-0.1,0-0.2c-0.7,0.1-1.5,0-2.1-0.1l-0.3,0.1c-0.1,0-0.1-0.1,0-0.1c-0.3-0.1,0,0.1-0.1,0.2
										c-0.1,0-0.2-0.1-0.1-0.1c-0.2,0.1-0.6,0.1-1,0.3c-0.4,0.1-0.7,0.3-1,0.5l0.1-0.1c-0.4,0.3-0.2,0.5-0.5,0.8l0-0.1
										c-0.3,0.4-0.5,0.9-0.5,1.4c0,0.5,0,0.8-0.1,1.1c0.2,0.1-0.1,0.8,0.2,0.9c-0.1,0.5-0.2,0.3-0.3,1c0,0.2,0.2,0.3,0.2,0.5
										l-0.2,0l0.2,0.3l-0.2,0.2l0,0.2c0-0.1,0.1-0.2,0.1-0.2c0.1,0.3-0.1,0.8-0.2,0.8l0.1,0.8c-0.1,0-0.1-0.1-0.1-0.2
										c0.2,0.4-0.2,0.1,0,0.4c0,0,0.1,0,0.1,0c-0.1,0.2-0.1,0.6-0.1,0.9l-0.1-0.1c0,0.6,0.1,1.2,0,1.8c0-0.2,0.2-0.2,0.3,0
										l-0.2,0.1c0.1,0.1,0.1-0.2,0.2,0.1c0,0.2-0.2,0.2-0.2,0l0.1,0.3c0,0-0.1,0-0.1-0.1c0.1,0.1-0.2,0.5,0,0.7l0,0
										c0,0.6,0.1,0.9,0.1,1.4c0.1,0,0.1,0.2,0.2,0.4c0,0.4-0.2,0.8-0.1,1.2c0.1,0.3,0.1,0.1,0.2,0.2c-0.1,0-0.1,0.5-0.2,0.2
										c0,0.5,0,0.7,0.1,1.4c0.1-0.1,0.1-0.2,0.1-0.1c0,0.1-0.1,0.3-0.1,0.3l0,0c0.2,0.8-0.4,1.8-0.1,2.4l0,0l0.1,0.6
										c0,0.3-0.1-0.2-0.2,0c0.1,0.3,0.1,0.6,0.1,0.9c0,0.2,0,0.6,0.1,0.9c-0.1,0.3,0.1,0.8,0.4,1.2c0.4,0.4,0.8,0.7,1.1,0.9
										l0-0.1c0.2,0,0.2,0.1,0.3,0.2c0-0.1-0.2-0.1-0.1-0.1c0.4,0.1,0.9,0.1,1.2,0.1c0.3,0,0.7,0,1,0.1c0.7,0.1,1.3,0.1,2,0.2
										c0.5,0,0.3-0.5,0.9-0.2l-0.2,0.2c1-0.2,2,0,3-0.2c-0.1,0-0.1,0.1-0.2,0.1c0.2,0.1,0.7,0,0.8-0.1c0.1,0,0,0.1,0.1,0.1
										c0.2,0.1,0.5-0.2,0.6,0c0,0-0.1,0-0.1,0c0.1-0.1,0.6,0,0.5-0.1c0.4,0.1,0.7-0.1,1,0c0.2-0.2,0.6,0.1,0.7-0.1
										c0,0.2,0.6,0.2,0.9,0.1c-0.1,0.1,0.2,0.1,0.1,0.2c0.3,0,0.5,0,0.5-0.2c0.5,0.3,1-0.2,1.2,0.1c0.8-0.1,1.5-0.2,2.2-0.3
										c0,0.2-0.8,0-0.7,0.3c0.7-0.1,1-0.3,1.7-0.2c0.2,0-0.1,0.1-0.2,0.1c0.7-0.1,1.3,0,1.9-0.1c0,0-0.1,0-0.1,0.1
										c0.1,0,0.3,0,0.3-0.1l-0.1,0c-0.2-0.1,0.5-0.3,0.5-0.4c-0.2,0.3,0.6,0,0.4,0.4c0.1,0,0.2-0.1,0.1-0.2c0.1,0,0.2,0,0.1,0.1
										c0.5-0.2,0.3-0.3,0.6-0.5c0,0,0,0.1-0.1,0.2c0.2-0.2,0.3-0.4,0.6-0.6c0,0,0.1,0,0,0.1c0.4-0.5,0.4-1,0.6-1.6
										c0.2,0.2,0.1-0.2,0.3-0.3c0-0.1,0-0.2-0.1-0.3l-0.1,0.1c0-0.3-0.1-0.5-0.1-0.8l0.1,0.2l0-0.5l-0.1,0.3
										c-0.1-0.3-0.2,0-0.2-0.3c0,0.1,0-0.3,0.1-0.4l0,0c-0.1-0.1-0.1-0.3-0.1-0.5c0.1-0.1,0.2,0,0.2,0c-0.2-0.1,0-0.7-0.2-0.8
										c0,0.1,0.1,0.1,0.2,0l-0.1-0.1c0-0.1,0.1-0.1,0.1-0.1c0-0.4-0.2,0.1-0.1-0.3c0,0,0,0,0,0.1c0.1-0.5-0.1-0.9,0-1.3
										c0.2-0.1,0,0.4,0.2,0.2c0-0.6-0.2-1.3-0.2-1.9l0,0.1c-0.3-0.1,0.1-0.4,0-0.7c0,0.1,0.1,0.1,0.1,0.1c0-0.4-0.1-0.8-0.1-1.5
										l0.1,0.1c0.1-0.2,0-0.6,0.1-0.9c-0.1-0.1-0.1-0.2-0.2-0.1c0.4-0.8-0.2-1.5,0.1-2.2c0,0.1,0.1,0.2,0.1,0.1l-0.1-0.6
										c-0.1,0-0.1,0.1-0.2,0.2c-0.1-0.1-0.1-0.2-0.1-0.4c0.1,0.3,0.2,0,0.3-0.1c0,0-0.1,0-0.1,0c0.2-0.3-0.2-0.1-0.1-0.5l0.1,0
										c0-0.2-0.1-0.3-0.1-0.5c0.1-0.1,0.1,0.2,0.2,0.2c0-0.2-0.3-0.5-0.1-0.7c0,0.1,0,0.3,0.1,0.4c0.2-0.2,0.1-0.3,0.1-0.4l0,0
										l0.1-0.4l0,0.1c-0.3-0.3-0.1-0.6-0.3-1c0.2,0.4,0.1,0.1,0.3,0.1c0-0.1,0.1-0.3,0.1-0.2c-0.1-0.2,0.1-0.3-0.1-0.6
										c0,0,0-0.2,0.1-0.2c0-0.3-0.1,0.1-0.1,0c-0.2-0.4,0.2-0.9,0-1.5c-0.1-0.5-0.2-0.6-0.4-1c0.1-0.2,0.2,0.1,0.2,0.1
										c0-0.3,0-0.5-0.2-0.7c0.1,0,0.1,0,0.1-0.1c-0.1-0.2-0.2,0-0.3-0.3c0.1,0,0.2,0,0.3,0.1c-0.2-0.2-0.4-0.3-0.6-0.5
										c0-0.1,0.2,0,0.3,0.1c-0.2-0.2-0.6-0.5-0.8-0.4c0,0,0.1,0.1,0.1,0.1c-0.1-0.1,0-0.1,0.1-0.1c0.3,0.1,0.2,0.3,0.2,0.3
										l-0.1-0.1c-0.1,0.3,0.5,0.4,0.6,0.8c-0.1,0-0.2,0-0.2,0c0.1,0.1,0.2,0.1,0.3,0.2c0,0.1-0.1,0.2-0.2,0
										c0,0.2,0.1,0.2,0.1,0.4c0,0,0,0,0,0l0.1,0.2c0,0-0.1,0-0.1-0.1c-0.1,0.4,0.2,0.6,0,0.8l0,0c0.1,0.6,0.2,0.1,0.3,0.5
										l-0.4,0.3l0.2,0.1c0,0.1,0,0.2-0.1,0.2c0.1,0.2,0.1,0,0.2,0.1c-0.1,0.3,0.1,0.8-0.2,0.8c0.1,0.1,0.1-0.3,0.2,0
										c-0.3,0.1,0,0.3-0.1,0.6c-0.1-0.1-0.1-0.3-0.2-0.1c0.2,0.2,0,0.5,0,0.7c0.2,0,0.1,0.5,0.1,0.8c-0.1,0-0.1,0.7-0.2,1l0,0
										c0.2,0.1,0.1,0.4,0.2,0.7c-0.1,0-0.2-0.1-0.2-0.2l0,0.2c0.1,0.1,0.1,0.1,0.1,0.3l-0.1-0.1c0,0.3,0.2,0.6,0.1,1
										c0.1,0,0.4-0.3,0.4,0.1c-0.1,0-0.2,0-0.2-0.1c0,0,0.1,0.1,0,0.2l-0.1-0.2c-0.1,0.2,0.1,0.1,0.1,0.2c-0.1,0-0.1,0.1-0.1,0.1
										c0,0,0-0.1,0-0.2c0,0.2-0.1,0.4-0.2,0.4c0.1,0,0.1,0,0.1,0.1c0,0.3-0.1,0.1-0.2,0.3c0.1,0.1,0,0.3,0.1,0.3
										c0,0.1-0.1,0.1-0.1,0.1c0.1,0.2,0,0.8,0.2,0.6l0,0l0,0v0v0c0.1,0.5-0.1,1.1,0,1.7l0,0c0.1,0.3,0,0.7,0.1,0.9
										c0,0.1-0.1,0.2-0.1,0.2c0,0.2,0.1,0.3,0,0.6c-0.1-0.2-0.1,0.1-0.1-0.3c0,0.3-0.1,0.4,0,0.7c-0.1-0.1-0.2,0.2-0.1,0.4
										l0.1-0.2c0,0.2,0,0.3,0,0.5l-0.2-0.1c-0.2,0.6,0.3,1.2,0,1.7c0.1,0.2,0.1-0.4,0.2-0.2c0,0.3-0.3,0.6-0.3,0.7
										c-0.1,0.4,0.2,0.4,0.2,0.8c0.1-0.1,0.2-0.1,0.3,0.2c0,0.3-0.2,0.4-0.3,0.2c0-0.1,0-0.1,0-0.1c0-0.1,0-0.2-0.1-0.1l0.1,0
										c-0.1,0.1-0.1,0.6-0.2,0.5c0.1,0.2,0.1,0.1,0.1-0.1c-0.1,0.4,0,0.6-0.1,0.9c0,0,0.1-0.1,0.1,0c-0.1,0.5,0.1,0.2,0,0.6
										c-0.2,0.1-0.2-0.1-0.2,0.2c-0.2,0.1-0.2,0-0.2-0.1c0,0.3-0.3,0.4-0.5,0.4c0,0,0-0.1,0.1-0.1c0,0.1-0.1,0.1-0.1,0.2
										c0,0,0.1,0,0.1,0c-0.1,0-0.1,0.1-0.2,0c0,0.1,0.2,0.1,0.1,0.3c-0.1,0-0.3,0.2-0.4,0.1c0.4-0.1-0.1-0.1,0.2-0.3
										c0,0-0.1,0.1-0.2,0.1c0,0,0,0,0,0c-0.3,0-0.1,0.2-0.4,0.3c0-0.1-0.1-0.2-0.1-0.1c0.1,0,0.1,0.1-0.1,0.2
										c-0.3-0.1-0.3,0.1-0.5,0l0.2,0c-0.1,0.1-0.2,0.1-0.4,0.1c0-0.1,0.2,0,0.1-0.1c-0.2,0.2-0.5-0.2-0.8-0.1
										c-0.1-0.1,0-0.2-0.1-0.2c-0.4,0.1-0.4-0.1-0.8,0c0.1,0.1,0.1,0.1-0.1,0.2l0.6-0.1l-0.4,0.2c0.2,0,0.4-0.1,0.5-0.1
										c-0.2,0.1-0.2,0.1-0.1,0.2c-0.3-0.2-0.5,0.1-0.8,0l0-0.3c-0.4-0.1-0.8,0.2-1.4,0.1l0.2,0.1c-0.1,0.1-0.4,0-0.5,0.1
										c0-0.1-0.1-0.1-0.2-0.2c0,0.1-0.4,0-0.5,0.2l-0.3-0.1c-0.5-0.1-0.5,0.3-1,0.2c0.1-0.1-0.1-0.2,0.2-0.3c-0.1,0-0.3,0-0.3,0
										c-0.1-0.1-0.4,0.1-0.6,0c-0.1,0-0.1,0.1-0.3,0.1c0,0,0,0,0,0c0,0-0.3,0.1-0.1,0.2c-0.5-0.3-1.3,0-1.7-0.2
										c-0.3,0-0.7,0.1-1,0.1c0,0,0,0,0.1,0c-0.4-0.1-0.3,0.3-0.7,0.2c-0.2-0.2,0.2-0.1,0.1-0.1c-0.1-0.3-0.6,0-0.9-0.1l0.1,0
										c-0.2-0.1-0.6,0.1-1,0.1c0,0,0,0,0,0c-0.3,0.2-0.8,0.2-1.1,0.3c0.1-0.1,0.2-0.1,0.1-0.2c-0.2,0,0,0.2-0.3,0.2
										c-0.1-0.1-0.4-0.1-0.4-0.3l0.3,0c-0.2-0.2-0.4,0-0.6,0l0-0.1c-0.5,0-0.5,0.2-1,0.2l0.1,0.1c-0.3,0.2-0.2-0.1-0.5,0
										l-0.1-0.2c-0.2,0-0.7,0.2-1,0.2c0.2-0.1,0.6-0.2,0.8-0.3c-0.2,0-0.6,0-0.7,0.1c0.1,0,0.2-0.1,0.2,0
										c-0.2,0.2-0.5,0.2-0.9,0.2c0.1-0.4-1-0.1-1.1-0.4c-0.5,0-0.9-0.5-1.2-1c-0.2,0.3-0.1-0.1-0.3,0c-0.1-0.1-0.1-0.2-0.1-0.2
										c0-0.2,0.1-0.3,0.1-0.5c0.1-0.1,0.1,0.1,0.1,0.1c0-0.3,0.1-0.1,0.2-0.4c-0.1,0.1-0.2-0.1-0.1-0.4l-0.1,0.3
										c-0.2-0.5,0.3-0.5,0.1-1l0.1,0.2c-0.1-0.3,0-1-0.2-1.3c0-0.1,0.1-0.1,0.1,0c0-0.7-0.3-1.5-0.1-2l0.1,0.1
										c0-0.1-0.1-0.2-0.1-0.4c0,0,0.1,0.1,0.1,0c0-0.1-0.1-0.3-0.1-0.5l0.1,0.1c0.1-0.7-0.2-1-0.3-1.6c0.2,0,0.3-0.5,0.3-0.8l0,0
										c0-0.8-0.2-1.3-0.3-2c0.2-0.4,0.1-1.5,0.2-2.2c0,0.1-0.2,0-0.2-0.1c0-0.2-0.2-0.5,0-0.4l0,0.1c0.2-0.1,0.1-0.5,0.2-0.7
										l-0.3,0c0.4-0.7-0.1-1.8,0.2-2.2c-0.1-0.2-0.1-0.4-0.1-0.5l0.1,0c0-0.5,0.1-0.7,0-1.3l0.1,0.1c0-0.3-0.4-0.4-0.4-0.7
										l0.2-0.1c0-0.3,0-0.6,0.1-0.8c0-0.2,0.1-0.4,0.1-0.6c0,0,0.1,0.1,0.1,0.1c0.1-0.2,0.5-0.5,0.3-0.7c0.1,0.1,0.3-0.3,0.6-0.4
										l0,0.1c0.1-0.2,0.1-0.3,0.4-0.4c0.1,0,0.1,0.1,0,0.1c0.2,0.1,0.2-0.1,0.5-0.1l-0.1,0.1c0.3,0,0.3,0,0.4-0.1
										c0.2-0.1,0.6,0,0.6,0.2c0-0.1,0.2-0.2,0.4-0.1c0,0,0,0.1-0.1,0.1c0.5,0.1,0.7-0.2,1.1,0c0,0,0,0.1,0.1,0.1
										c-0.4,0-0.7,0-0.7,0c0,0.1,0.3,0.2,0.1,0.3c0.3-0.1,0.7-0.3,1-0.2c0,0,0,0,0,0l0,0c0.1,0,0.1,0,0.2,0c0.1,0,0.2,0,0.3,0
										c0,0.1,0.4,0.1,0.5,0.1c0-0.1,0.2-0.1,0-0.2c0,0,0,0-0.1,0c0,0-0.1,0-0.1,0l0,0c-0.1,0-0.2,0-0.4,0
										c0.1-0.1,0.3-0.1,0.4-0.1c0.1-0.1,0.2-0.2,0.2-0.2c0.2,0.2,0.6,0.3,0.7,0.4c0.5-0.1,1.1-0.1,1.4-0.3c0.1,0,0.2,0.1,0.2,0.1
										c-0.1,0-0.2,0-0.2,0.1c0.3-0.1,0.8,0,0.9-0.2c0.3,0.1-0.2,0.2,0.3,0.1l-0.1,0.1c0.9,0.3,1.5-0.5,2.5-0.1
										c-0.1,0-0.1,0-0.1-0.1c1.2,0.2,2.4-0.2,3.6,0.1c0.3,0.1,0.4-0.1,0.6-0.2l0.1,0.2l0.3-0.2c0.5-0.1,0.8,0.4,1.5,0.1l-0.1-0.1
										c0.2,0,0.7-0.1,0.7,0.1c0,0,0.1-0.1,0.2-0.1l0,0.1l0.5-0.1c0.4,0.1-0.1,0.3,0.5,0.3c0.2,0,0.7-0.2,0.6-0.3
										c-0.1,0-0.2,0-0.2-0.1l0.2,0c0-0.2,0.2-0.5-0.3-0.6l-0.4,0.1l-0.1-0.1l0.3,0c-0.2-0.1-0.3,0-0.4,0.1c0-0.1-0.1-0.1-0.1-0.1
										l-0.4,0.2c0-0.1,0.2-0.2-0.1-0.2c-0.2,0.1,0.2,0.2-0.1,0.3c-0.2-0.1-0.1-0.2-0.3-0.1c0-0.1,0-0.1,0.1-0.1
										c-0.2,0.1-0.5,0-0.6,0.2c-0.2-0.1-0.6,0-0.6-0.2c-0.1,0.1-0.3,0.2-0.5,0.2c0.3-0.3-0.6,0-0.5-0.3c-0.2,0.2-0.8,0.1-1.2,0.2
										c0,0,0.1-0.1,0.1,0c-0.2,0-0.3-0.1-0.4-0.1c0,0.2-0.4,0.2-0.6,0.4c-0.3-0.2,0.2-0.2,0.1-0.4c0,0.2-0.5,0.2-0.4,0.3
										c-0.2-0.1-0.2-0.1-0.3-0.2c0,0.2-0.2,0-0.4,0.2c-0.3-0.1-0.1-0.2-0.4-0.2C-2096.4,261-2096.1,260.9-2096.1,260.9z
										 M-2103.9,261.3L-2103.9,261.3c0.1,0,0.1,0,0.2,0C-2103.8,261.3-2103.9,261.3-2103.9,261.3z M-2104.6,261.3
										c0.1,0,0.2,0,0.3,0c0,0,0,0.1-0.1,0.1C-2104.3,261.4-2104.5,261.4-2104.6,261.3z M-2103.2,262.3c-0.1,0-0.1,0-0.2,0
										C-2103.3,262.3-2103.2,262.3-2103.2,262.3L-2103.2,262.3C-2103.2,262.3-2103.2,262.3-2103.2,262.3z"/>
									<path class="st6" d="M-2103,262.1C-2103,262.1-2103,262.1-2103,262.1C-2103,262.1-2103,262.1-2103,262.1L-2103,262.1
										L-2103,262.1z"/>
									<path class="st6" d="M-2086.7,273.6L-2086.7,273.6C-2086.7,273.6-2086.7,273.6-2086.7,273.6
										C-2086.7,273.6-2086.7,273.6-2086.7,273.6z"/>
									<polygon class="st6" points="-2109.8,267.3 -2109.8,267.3 -2109.8,267.2 									"/>
									<path class="st6" d="M-2086.2,269.9C-2086.2,269.9-2086.2,269.9-2086.2,269.9C-2086.2,269.9-2086.2,269.9-2086.2,269.9z"/>
									<path class="st6" d="M-2086.2,268.4l0.1-0.2C-2086.2,268.2-2086.2,268.3-2086.2,268.4z"/>
									<path class="st6" d="M-2086.1,267.1C-2086.1,267.1-2086.2,267.1-2086.1,267.1L-2086.1,267.1L-2086.1,267.1z"/>
									<path class="st6" d="M-2089.2,285.2C-2089.2,285.2-2089.2,285.2-2089.2,285.2C-2089.3,285.2-2089.3,285.2-2089.2,285.2z"/>
									<path class="st6" d="M-2086.3,280.6c0,0.1,0.1,0.1,0.1,0.2C-2086.2,280.7-2086.2,280.6-2086.3,280.6z"/>
									<polygon class="st6" points="-2095.6,285.3 -2095.6,285.3 -2095.6,285.3 									"/>
									<path class="st6" d="M-2086.2,281.1c0-0.1,0-0.2,0-0.3C-2086.2,280.9-2086.2,281-2086.2,281.1z"/>
									<path class="st6" d="M-2087.1,261.8L-2087.1,261.8C-2087.2,261.8-2087.2,261.8-2087.1,261.8L-2087.1,261.8z"/>
									<path class="st6" d="M-2087.2,261.8L-2087.2,261.8C-2087.2,261.8-2087.2,261.8-2087.2,261.8z"/>
									<path class="st6" d="M-2087.4,261.7l0.2,0.1C-2087.3,261.8-2087.4,261.7-2087.4,261.7z"/>
									<path class="st6" d="M-2086.2,263.4L-2086.2,263.4C-2086.1,263.4-2086.2,263.4-2086.2,263.4z"/>
									<path class="st6" d="M-2086.1,264c0-0.1,0.1-0.4,0-0.5l0,0C-2086,263.5-2086.2,263.9-2086.1,264z"/>
									<path class="st6" d="M-2086.7,266l0-0.4c-0.1,0.1-0.1,0.2-0.1,0C-2087,266.1-2086.7,265.5-2086.7,266z"/>
									<path class="st6" d="M-2086.8,267.3c0-0.2-0.1,0-0.1,0C-2086.9,267.4-2086.9,267.5-2086.8,267.3z"/>
									<path class="st6" d="M-2086.8,276.4l-0.1,0C-2086.9,276.6-2086.9,276.4-2086.8,276.4z"/>
									<polygon class="st6" points="-2086.1,278.2 -2086.1,278 -2086.2,277.9 									"/>
									<polygon class="st6" points="-2087.1,279.2 -2087.1,279.1 -2087,279.4 									"/>
									<path class="st6" d="M-2097.3,284.1l0.1,0.2C-2097.2,284.2-2097.2,284-2097.3,284.1z"/>
									<path class="st6" d="M-2104,284.3c-0.1-0.1-0.3-0.1-0.4-0.1C-2104.2,284.2-2104,284.3-2104,284.3z"/>
									<polygon class="st6" points="-2108.5,269 -2108.5,269.1 -2108.5,268.9 									"/>
								</g>
							</g>
						</g>
					</g>
				</g>
			</g>
		</g>
	</g>
	<g>
		<g class="st0">
			<polygon class="st1" points="-450.3,-140.2 -453.3,-140.2 -453.3,-136.6 			"/>
			<polygon class="st1" points="-455.1,-129.9 -445.5,-139.8 -436.2,-129.9 -434.3,-129.9 -445.6,-141.4 -457,-129.9 			"/>
			<path class="st1" d="M-447.9-119.8c0,0,0-5.3,0-6.4c0-1.1,1.1-1.1,1.1-1.1h2.3c0,0,1.1,0.1,1.1,1.1c0,1.1,0,6.6,0,6.6h5.7v-10
				l-7.9-7.8l-7.9,7.8v10L-447.9-119.8z"/>
			<defs>
				<filter id="Adobe_OpacityMaskFilter_1_" filterUnits="userSpaceOnUse" x="-457.9" y="-143.1" width="24" height="24.5">
					<feColorMatrix  type="matrix" values="1 0 0 0 0  0 1 0 0 0  0 0 1 0 0  0 0 0 1 0"/>
				</filter>
			</defs>
			<mask maskUnits="userSpaceOnUse" x="-457.9" y="-143.1" width="24" height="24.5" id="SVGID_2_" class="st11">
				<g style="filter:url(#Adobe_OpacityMaskFilter_1_);">
					<rect x="-462" y="-145.7" class="st3" width="32.5" height="31.4"/>
					<rect x="-464.7" y="-134.2" width="38.5" height="7.9"/>
					<rect x="-447.8" y="-149.4" width="4.6" height="38.8"/>
				</g>
			</mask>
			<g class="st8">
				<g>
					<g>
						<path class="st5" d="M-436.8-142.3h-18.1c-1.2,0-2.3,1-2.3,2.3v18.3c0,1.3,1,2.3,2.3,2.3h18.1c1.2,0,2.3-1,2.3-2.3V-140
							C-434.5-141.2-435.5-142.3-436.8-142.3L-436.8-142.3z"/>
						<g>
							<g>
								<g>
									<path class="st6" d="M-436.8-142.6c0,0,0,0.1,0.1,0.1l0.1-0.2L-436.8-142.6z"/>
									<path class="st6" d="M-435.9-142.1c0.2,0,0.4-0.1,0.4-0.2c-0.2,0.1-0.2,0-0.5,0.1c-0.1,0-0.2-0.1-0.2-0.2
										c-0.1,0-0.2-0.1-0.3,0C-436.3-142.3-436.1-142.2-435.9-142.1C-435.9-142.2-435.9-142.2-435.9-142.1z"/>
									<path class="st6" d="M-434.7-130.3L-434.7-130.3C-434.7-130.4-434.7-130.4-434.7-130.3z"/>
									<path class="st6" d="M-434.8-122.7C-434.8-122.7-434.9-122.8-434.8-122.7C-434.9-122.7-434.9-122.7-434.8-122.7z"/>
									<path class="st6" d="M-435-121.4C-435-121.5-435-121.5-435-121.4C-435-121.5-435.1-121.5-435-121.4z"/>
									<path class="st6" d="M-434.7-130.3l-0.1,0.2C-434.7-130.1-434.8-130.2-434.7-130.3z"/>
									<path class="st6" d="M-434.4-141.2C-434.4-141.2-434.4-141.2-434.4-141.2L-434.4-141.2L-434.4-141.2z"/>
									<path class="st6" d="M-434.9-133.7L-434.9-133.7c0-0.1,0-0.1-0.1-0.1L-434.9-133.7z"/>
									<path class="st6" d="M-434.9-136.3c0,0.1,0.1,0.1,0.2,0.1C-434.8-136.2-434.8-136.3-434.9-136.3
										C-434.8-136.3-434.9-136.3-434.9-136.3z"/>
									<path class="st6" d="M-434.7-140.4C-434.7-140.4-434.7-140.4-434.7-140.4C-434.7-140.4-434.7-140.4-434.7-140.4z"/>
									<path class="st6" d="M-434.9-131.9C-434.9-131.9-435-131.9-434.9-131.9C-434.9-131.8-434.9-131.9-434.9-131.9z"/>
									<path class="st6" d="M-439.8-142.9C-439.8-142.9-439.8-142.9-439.8-142.9C-439.8-142.9-439.8-142.9-439.8-142.9z"/>
									<path class="st6" d="M-436.8-142.2L-436.8-142.2C-436.8-142.2-436.8-142.2-436.8-142.2L-436.8-142.2z"/>
									<path class="st6" d="M-436.2-120.2L-436.2-120.2C-436.1-120.2-436.2-120.2-436.2-120.2z"/>
									<path class="st6" d="M-456.5-121.2c-0.1,0.2-0.2-0.3-0.3,0.1C-456.8-121.2-456.6-121-456.5-121.2z"/>
									<path class="st6" d="M-434.3-141.1c0,0,0,0.1,0,0.1C-434.3-141-434.3-141.1-434.3-141.1z"/>
									<path class="st6" d="M-456.8-121.2L-456.8-121.2L-456.8-121.2C-456.8-121.1-456.8-121.1-456.8-121.2z"/>
									<path class="st6" d="M-441.4-120C-441.4-120-441.4-119.9-441.4-120C-441.4-119.9-441.4-120-441.4-120z"/>
									<path class="st6" d="M-437.3-119.8l-0.1,0C-437.4-119.8-437.3-119.8-437.3-119.8z"/>
									<path class="st6" d="M-443.5-119.8c-0.1,0-0.1,0-0.1,0l0,0C-443.6-119.8-443.6-119.8-443.5-119.8z"/>
									<polygon class="st6" points="-445.8,-119.8 -445.7,-119.8 -445.7,-119.8 									"/>
									<path class="st6" d="M-446.5-142.9c0,0,0.1,0.1,0.1,0.1C-446.5-142.8-446.1-142.9-446.5-142.9z"/>
									<path class="st6" d="M-434.4-141.1C-434.4-141.1-434.4-141.1-434.4-141.1L-434.4-141.1
										C-434.4-141.2-434.4-141.1-434.4-141.1z"/>
									<path class="st6" d="M-443.6-118.7l-0.4,0C-443.9-118.7-443.8-118.7-443.6-118.7z"/>
									<path class="st6" d="M-457.8-136L-457.8-136C-457.8-136.1-457.8-136-457.8-136z"/>
									<path class="st6" d="M-445-118.7c-0.1,0-0.1-0.1-0.2-0.1c0,0,0,0,0,0L-445-118.7z"/>
									<path class="st6" d="M-446.4-142.7L-446.4-142.7L-446.4-142.7z"/>
									<path class="st6" d="M-444.1-143.1c-0.3,0-0.2,0.2-0.2,0.3c-0.4,0.1-0.2-0.1-0.3-0.2c-0.3,0-0.4,0.2-0.6,0.2
										c0,0-0.1,0,0-0.1c-0.3,0.1-0.8,0-1.1,0.2c0,0,0,0,0,0c0.1,0.1,0.1,0.2,0,0.3c-0.2,0-0.3,0.1-0.3,0c0.1,0,0.1,0,0.1-0.1
										l-0.2,0.1c-0.1-0.2,0.2-0.1,0.2-0.2c-0.3,0.1-0.7,0.2-0.9,0.2c0-0.2,0.6-0.1,0.2-0.2l0.4,0.1c-0.3-0.3,0.2,0,0-0.3
										c-0.5,0-0.5,0.1-1,0c-0.1,0.1,0,0.1-0.1,0.2c-0.7,0.2-0.5-0.4-1-0.2c-0.1,0.1-0.2,0.3-0.5,0.2l0.1-0.2
										c-0.5,0-0.3,0.3-0.8,0.1c0.1-0.1,0.4-0.1,0.3-0.1c-0.3-0.2-0.2,0.1-0.5,0.1l-0.1-0.2c-0.5,0-1,0.1-1.6,0.2
										c0-0.1,0.1-0.1,0-0.2c-0.7,0.1-1.5,0-2.1-0.1l-0.3,0.1c-0.1,0-0.1-0.1,0-0.1c-0.3-0.1,0,0.1-0.1,0.2
										c-0.1,0-0.2-0.1-0.1-0.1c-0.2,0.1-0.6,0.1-1,0.3c-0.4,0.1-0.7,0.3-1,0.5l0.1-0.1c-0.4,0.3-0.2,0.5-0.5,0.8l0-0.1
										c-0.3,0.4-0.5,0.9-0.5,1.4c0,0.5,0,0.8-0.1,1.1c0.2,0.1-0.1,0.8,0.2,0.9c-0.1,0.5-0.2,0.3-0.3,1c0,0.2,0.2,0.3,0.2,0.5
										l-0.2,0l0.2,0.3l-0.2,0.2l0,0.2c0-0.1,0.1-0.2,0.1-0.2c0.1,0.3-0.1,0.8-0.2,0.8l0.1,0.8c-0.1,0-0.1-0.1-0.1-0.2
										c0.2,0.4-0.2,0.1,0,0.4c0,0,0.1,0,0.1,0c-0.1,0.2-0.1,0.6-0.1,0.9l-0.1-0.1c0,0.6,0.1,1.2,0,1.8c0-0.2,0.2-0.2,0.3,0
										l-0.2,0.1c0.1,0.1,0.1-0.2,0.2,0.1c0,0.2-0.2,0.2-0.2,0l0.1,0.3c0,0-0.1,0-0.1-0.1c0.1,0.1-0.2,0.5,0,0.7l0,0
										c0,0.6,0.1,0.9,0.1,1.4c0.1,0,0.1,0.2,0.2,0.4c0,0.4-0.2,0.8-0.1,1.2c0.1,0.3,0.1,0.1,0.2,0.2c-0.1,0-0.1,0.5-0.2,0.2
										c0,0.5,0,0.7,0.1,1.4c0.1-0.1,0.1-0.2,0.1-0.1c0,0.1-0.1,0.3-0.1,0.3l0,0c0.2,0.8-0.4,1.8-0.1,2.4l0,0l0.1,0.6
										c0,0.3-0.1-0.2-0.2,0c0.1,0.3,0.1,0.6,0.1,0.9c0,0.2,0,0.6,0.1,0.9c-0.1,0.3,0.1,0.8,0.4,1.2c0.4,0.4,0.8,0.7,1.1,0.9
										l0-0.1c0.2,0,0.2,0.1,0.3,0.2c0-0.1-0.2-0.1-0.1-0.1c0.4,0.1,0.9,0.1,1.2,0.1c0.3,0,0.7,0,1,0.1c0.7,0.1,1.3,0.1,2,0.2
										c0.5,0,0.3-0.5,0.9-0.2l-0.2,0.2c1-0.2,2,0,3-0.2c-0.1,0-0.1,0.1-0.2,0.1c0.2,0.1,0.7,0,0.8-0.1c0.1,0,0,0.1,0.1,0.1
										c0.2,0.1,0.5-0.2,0.6,0c0,0-0.1,0-0.1,0c0.1-0.1,0.6,0,0.5-0.1c0.4,0.1,0.7-0.1,1,0c0.2-0.2,0.6,0.1,0.7-0.1
										c0,0.2,0.6,0.2,0.9,0.1c-0.1,0.1,0.2,0.1,0.1,0.2c0.3,0,0.5,0,0.5-0.2c0.5,0.3,1-0.2,1.2,0.1c0.8-0.1,1.5-0.2,2.2-0.3
										c0,0.2-0.8,0-0.7,0.3c0.7-0.1,1-0.3,1.7-0.2c0.2,0-0.1,0.1-0.2,0.1c0.7-0.1,1.3,0,1.9-0.1c0,0-0.1,0-0.1,0.1
										c0.1,0,0.3,0,0.3-0.1l-0.1,0c-0.2-0.1,0.5-0.3,0.5-0.4c-0.2,0.3,0.6,0,0.4,0.4c0.1,0,0.2-0.1,0.1-0.2c0.1,0,0.2,0,0.1,0.1
										c0.5-0.2,0.3-0.3,0.6-0.5c0,0,0,0.1-0.1,0.2c0.2-0.2,0.3-0.4,0.6-0.6c0,0,0.1,0,0,0.1c0.4-0.5,0.4-1,0.6-1.6
										c0.2,0.2,0.1-0.2,0.3-0.3c0-0.1,0-0.2-0.1-0.3l-0.1,0.1c0-0.3-0.1-0.5-0.1-0.8l0.1,0.2l0-0.5l-0.1,0.3
										c-0.1-0.3-0.2,0-0.2-0.3c0,0.1,0-0.3,0.1-0.4l0,0c-0.1-0.1-0.1-0.3-0.1-0.5c0.1-0.1,0.2,0,0.2,0c-0.2-0.1,0-0.7-0.2-0.8
										c0,0.1,0.1,0.1,0.2,0l-0.1-0.1c0-0.1,0.1-0.1,0.1-0.1c0-0.4-0.2,0.1-0.1-0.3c0,0,0,0,0,0.1c0.1-0.5-0.1-0.9,0-1.3
										c0.2-0.1,0,0.4,0.2,0.2c0-0.6-0.2-1.3-0.2-1.9l0,0.1c-0.3-0.1,0.1-0.4,0-0.7c0,0.1,0.1,0.1,0.1,0.1c0-0.4-0.1-0.8-0.1-1.5
										l0.1,0.1c0.1-0.2,0-0.6,0.1-0.9c-0.1-0.1-0.1-0.2-0.2-0.1c0.4-0.8-0.2-1.5,0.1-2.2c0,0.1,0.1,0.2,0.1,0.1l-0.1-0.6
										c-0.1,0-0.1,0.1-0.2,0.2c-0.1-0.1-0.1-0.2-0.1-0.4c0.1,0.3,0.2,0,0.3-0.1c0,0-0.1,0-0.1,0c0.2-0.3-0.2-0.1-0.1-0.5l0.1,0
										c0-0.2-0.1-0.3-0.1-0.5c0.1-0.1,0.1,0.2,0.2,0.2c0-0.2-0.3-0.5-0.1-0.7c0,0.1,0,0.3,0.1,0.4c0.2-0.2,0.1-0.3,0.1-0.4l0,0
										l0.1-0.4l0,0.1c-0.3-0.3-0.1-0.6-0.3-1c0.2,0.4,0.1,0.1,0.3,0.1c0-0.1,0.1-0.3,0.1-0.2c-0.1-0.2,0.1-0.3-0.1-0.6
										c0,0,0-0.2,0.1-0.2c0-0.3-0.1,0.1-0.1,0c-0.2-0.4,0.2-0.9,0-1.5c-0.1-0.5-0.2-0.6-0.4-1c0.1-0.2,0.2,0.1,0.2,0.1
										c0-0.3,0-0.5-0.2-0.7c0.1,0,0.1,0,0.1-0.1c-0.1-0.2-0.2,0-0.3-0.3c0.1,0,0.2,0,0.3,0.1c-0.2-0.2-0.4-0.3-0.6-0.5
										c0-0.1,0.2,0,0.3,0.1c-0.2-0.2-0.6-0.5-0.8-0.4c0,0,0.1,0.1,0.1,0.1c-0.1-0.1,0-0.1,0.1-0.1c0.3,0.1,0.2,0.3,0.2,0.3
										l-0.1-0.1c-0.1,0.3,0.5,0.4,0.6,0.8c-0.1,0-0.2,0-0.2,0c0.1,0.1,0.2,0.1,0.3,0.2c0,0.1-0.1,0.2-0.2,0
										c0,0.2,0.1,0.2,0.1,0.4c0,0,0,0,0,0l0.1,0.2c0,0-0.1,0-0.1-0.1c-0.1,0.4,0.2,0.6,0,0.8l0,0c0.1,0.6,0.2,0.1,0.3,0.5
										l-0.4,0.3l0.2,0.1c0,0.1,0,0.2-0.1,0.2c0.1,0.2,0.1,0,0.2,0.1c-0.1,0.3,0.1,0.8-0.2,0.8c0.1,0.1,0.1-0.3,0.2,0
										c-0.3,0.1,0,0.3-0.1,0.6c-0.1-0.1-0.1-0.3-0.2-0.1c0.2,0.2-0.1,0.5,0,0.7c0.2,0,0.1,0.5,0.1,0.8c-0.1,0-0.1,0.7-0.2,1l0,0
										c0.2,0.1,0.1,0.4,0.2,0.7c-0.1,0-0.2-0.1-0.2-0.2l0,0.2c0.1,0.1,0.1,0.1,0.1,0.3l-0.1-0.1c0,0.3,0.2,0.6,0.1,1
										c0.1,0,0.4-0.3,0.4,0.1c-0.1,0-0.2,0-0.2-0.1c0,0,0.1,0.1,0,0.2l-0.1-0.2c-0.1,0.2,0.1,0.1,0.1,0.2c-0.1,0-0.1,0.1-0.1,0.1
										c0,0,0-0.1,0-0.2c0,0.2-0.1,0.4-0.2,0.4c0.1,0,0.1,0,0.1,0.1c0,0.3-0.1,0.1-0.2,0.3c0.1,0.1,0,0.3,0.1,0.3
										c0,0.1-0.1,0.1-0.1,0.1c0.1,0.2,0,0.8,0.2,0.6l0,0l0,0v0v0c0.1,0.5-0.1,1.1,0,1.7l0,0c0.1,0.3,0,0.7,0.1,0.9
										c0,0.1-0.1,0.2-0.1,0.2c0,0.2,0.1,0.3,0,0.6c-0.1-0.2-0.1,0.1-0.1-0.3c0,0.3-0.1,0.4,0,0.7c-0.1-0.1-0.2,0.2-0.1,0.4
										l0.1-0.2c0,0.2,0,0.3,0,0.5l-0.2-0.1c-0.2,0.6,0.3,1.2,0,1.7c0.1,0.2,0.1-0.4,0.2-0.2c0,0.3-0.3,0.6-0.3,0.7
										c-0.1,0.4,0.2,0.4,0.2,0.8c0.1-0.1,0.2-0.1,0.3,0.2c0,0.3-0.2,0.4-0.3,0.2c0-0.1,0-0.1,0-0.1c0-0.1,0-0.2-0.1-0.1l0.1,0
										c-0.1,0.1-0.1,0.6-0.2,0.5c0.1,0.2,0.1,0.1,0.1-0.1c-0.1,0.4,0,0.6-0.1,0.9c0,0,0.1-0.1,0.1,0c-0.1,0.5,0.1,0.2,0,0.6
										c-0.2,0.1-0.2-0.1-0.2,0.2c-0.2,0.1-0.2,0-0.2-0.1c0,0.3-0.3,0.4-0.5,0.4c0,0,0-0.1,0.1-0.1c0,0.1-0.1,0.1-0.1,0.2
										c0,0,0.1,0,0.1,0c-0.1,0-0.1,0.1-0.2,0c0,0.1,0.2,0.1,0.1,0.3c-0.1,0-0.3,0.2-0.4,0.1c0.4-0.1-0.1-0.1,0.2-0.3
										c0,0-0.1,0.1-0.2,0.1c0,0,0,0,0,0c-0.3,0-0.1,0.2-0.4,0.3c0-0.1-0.1-0.2-0.1-0.1c0.1,0,0.1,0.1-0.1,0.2
										c-0.3-0.1-0.3,0.1-0.5,0l0.2,0c-0.1,0.1-0.2,0.1-0.4,0.1c0-0.1,0.2,0,0.1-0.1c-0.2,0.2-0.5-0.2-0.8-0.1
										c-0.1-0.1,0-0.2-0.1-0.2c-0.4,0.1-0.4-0.1-0.8,0c0.1,0.1,0.1,0.1-0.1,0.2l0.6-0.1l-0.4,0.2c0.2,0,0.4-0.1,0.5-0.1
										c-0.2,0.1-0.2,0.1-0.1,0.2c-0.3-0.2-0.5,0.1-0.8,0l0-0.3c-0.4-0.1-0.8,0.2-1.4,0.1l0.2,0.1c-0.1,0.1-0.4,0-0.5,0.1
										c0-0.1-0.1-0.1-0.2-0.2c0,0.1-0.4,0-0.5,0.2l-0.3-0.1c-0.5-0.1-0.5,0.3-1,0.2c0.1-0.1-0.1-0.2,0.2-0.3c-0.1,0-0.3,0-0.3,0
										c-0.1-0.1-0.4,0.1-0.6,0c-0.1,0-0.1,0.1-0.3,0.1c0,0,0,0,0,0c0,0-0.3,0.1-0.1,0.2c-0.5-0.3-1.3,0-1.7-0.2
										c-0.3,0-0.7,0.1-1,0.1c0,0,0,0,0.1,0c-0.4-0.1-0.3,0.3-0.7,0.2c-0.2-0.2,0.2-0.1,0.1-0.1c-0.1-0.3-0.6,0-0.9-0.1l0.1,0
										c-0.2-0.1-0.6,0.1-1,0.1c0,0,0,0,0,0c-0.3,0.2-0.8,0.2-1.1,0.3c0.1-0.1,0.2-0.1,0.1-0.2c-0.2,0,0,0.2-0.3,0.2
										c-0.1-0.1-0.4-0.1-0.4-0.3l0.3,0c-0.2-0.2-0.4,0-0.6,0l0-0.1c-0.5,0-0.5,0.2-1,0.2l0.1,0.1c-0.3,0.2-0.2-0.1-0.5,0
										l-0.1-0.2c-0.2,0-0.7,0.2-1,0.2c0.2-0.1,0.6-0.2,0.8-0.3c-0.2,0-0.6,0-0.7,0.1c0.1,0,0.2-0.1,0.2,0
										c-0.2,0.2-0.5,0.2-0.9,0.2c0.1-0.4-1-0.1-1.1-0.4c-0.5,0-0.9-0.5-1.2-1c-0.2,0.3-0.1-0.1-0.3,0c-0.1-0.1-0.1-0.2-0.1-0.2
										c0-0.2,0.1-0.3,0.1-0.5c0.1-0.1,0.1,0.1,0.1,0.1c0-0.3,0.1-0.1,0.2-0.4c-0.1,0.1-0.2-0.1-0.1-0.4l-0.1,0.3
										c-0.2-0.5,0.3-0.5,0.1-1l0.1,0.2c-0.1-0.3,0-1-0.2-1.3c0-0.1,0.1-0.1,0.1,0c0-0.7-0.3-1.5-0.1-2l0.1,0.1
										c0-0.1-0.1-0.2-0.1-0.4c0,0,0.1,0.1,0.1,0c0-0.1-0.1-0.3-0.1-0.5l0.1,0.1c0.1-0.7-0.2-1-0.3-1.6c0.2,0,0.3-0.5,0.3-0.8l0,0
										c0-0.8-0.2-1.3-0.3-2c0.2-0.4,0.1-1.5,0.2-2.2c0,0.1-0.2,0-0.2-0.1c0-0.2-0.2-0.5,0-0.4l0,0.1c0.2-0.1,0.1-0.5,0.2-0.7
										l-0.3,0c0.4-0.7-0.1-1.8,0.2-2.2c-0.1-0.2-0.1-0.4-0.1-0.5l0.1,0c0-0.5,0.1-0.7,0-1.3l0.1,0.1c0-0.3-0.4-0.4-0.4-0.7
										l0.2-0.1c0-0.3,0-0.6,0.1-0.8c0-0.2,0.1-0.4,0.1-0.6c0,0,0.1,0.1,0.1,0.1c0.1-0.2,0.5-0.5,0.3-0.7c0.1,0.1,0.3-0.3,0.6-0.4
										l0,0.1c0.1-0.2,0.1-0.3,0.4-0.4c0.1,0,0.1,0.1,0,0.1c0.2,0.1,0.2-0.1,0.5-0.1l-0.1,0.1c0.3,0,0.3,0,0.4-0.1
										c0.2-0.1,0.6,0,0.6,0.2c0-0.1,0.2-0.2,0.4-0.1c0,0,0,0.1-0.1,0.1c0.5,0.1,0.7-0.2,1.1,0c0,0,0,0.1,0.1,0.1
										c-0.4,0-0.7,0-0.7,0c0,0.1,0.3,0.2,0.1,0.3c0.3-0.1,0.7-0.3,1-0.2c0,0,0,0,0,0l0,0c0.1,0,0.1,0,0.2,0c0.1,0,0.2,0,0.3,0
										c0,0.1,0.4,0.1,0.5,0.1c0-0.1,0.2-0.1,0-0.2c0,0,0,0-0.1,0c0,0-0.1,0-0.1,0l0,0c-0.1,0-0.2,0-0.4,0
										c0.1-0.1,0.3-0.1,0.4-0.1c0.1-0.1,0.2-0.2,0.2-0.2c0.2,0.2,0.6,0.3,0.7,0.4c0.5-0.1,1.1-0.1,1.4-0.3c0.1,0,0.2,0.1,0.2,0.1
										c-0.1,0-0.2,0-0.2,0.1c0.3-0.1,0.8,0,0.9-0.2c0.3,0.1-0.2,0.2,0.3,0.1l-0.1,0.1c0.9,0.3,1.5-0.5,2.5-0.1
										c-0.1,0-0.1,0-0.1-0.1c1.2,0.2,2.4-0.2,3.6,0.1c0.3,0.1,0.4-0.1,0.6-0.2l0.1,0.2l0.3-0.2c0.5-0.1,0.8,0.4,1.5,0.1l-0.1-0.1
										c0.2,0,0.7-0.1,0.7,0.1c0,0,0.1-0.1,0.2-0.1l0,0.1l0.5-0.1c0.4,0.1-0.1,0.3,0.5,0.3c0.2,0,0.7-0.2,0.6-0.3
										c-0.1,0-0.2,0-0.2-0.1l0.2,0c0-0.2,0.2-0.5-0.3-0.6l-0.4,0.1l-0.1-0.1l0.3,0c-0.2-0.1-0.3,0-0.4,0.1c0-0.1-0.1-0.1-0.2-0.1
										l-0.4,0.2c0-0.1,0.2-0.2-0.1-0.2c-0.2,0.1,0.2,0.2-0.1,0.3c-0.2-0.1-0.1-0.2-0.3-0.1c0-0.1,0-0.1,0.1-0.1
										c-0.2,0.1-0.5,0-0.6,0.2c-0.2-0.1-0.6,0-0.6-0.2c-0.1,0.1-0.3,0.2-0.5,0.2c0.3-0.3-0.6,0-0.5-0.3c-0.2,0.2-0.8,0.1-1.2,0.2
										c0,0,0.1-0.1,0.1,0c-0.2,0-0.3-0.1-0.4-0.1c0,0.2-0.4,0.2-0.6,0.4c-0.3-0.2,0.2-0.2,0.1-0.4c0,0.2-0.5,0.2-0.4,0.3
										c-0.2-0.1-0.2-0.1-0.3-0.2c0,0.2-0.2,0-0.4,0.2c-0.3-0.1-0.1-0.2-0.4-0.2C-444.4-143-444.1-143.1-444.1-143.1z M-452-142.7
										L-452-142.7c0.1,0,0.1,0,0.2,0C-451.8-142.7-451.9-142.7-452-142.7z M-452.6-142.7c0.1,0,0.2,0,0.3,0c0,0,0,0.1-0.1,0.1
										C-452.4-142.6-452.5-142.6-452.6-142.7z M-451.2-141.7c-0.1,0-0.1,0-0.2,0C-451.3-141.7-451.3-141.7-451.2-141.7
										L-451.2-141.7C-451.2-141.7-451.2-141.7-451.2-141.7z"/>
									<path class="st6" d="M-451-141.9C-451-141.9-451-141.9-451-141.9C-451-141.9-451-141.9-451-141.9L-451-141.9L-451-141.9z"
										/>
									<path class="st6" d="M-434.7-130.4L-434.7-130.4C-434.7-130.4-434.7-130.4-434.7-130.4
										C-434.7-130.4-434.7-130.4-434.7-130.4z"/>
									<polygon class="st6" points="-457.8,-136.7 -457.8,-136.7 -457.8,-136.8 									"/>
									<path class="st6" d="M-434.2-134.1C-434.2-134.1-434.2-134.1-434.2-134.1C-434.2-134.1-434.2-134.1-434.2-134.1z"/>
									<path class="st6" d="M-434.2-135.6l0.1-0.2C-434.2-135.8-434.2-135.7-434.2-135.6z"/>
									<path class="st6" d="M-434.1-136.9C-434.2-136.9-434.2-136.9-434.1-136.9L-434.1-136.9L-434.1-136.9z"/>
									<path class="st6" d="M-437.2-118.8C-437.2-118.8-437.3-118.8-437.2-118.8C-437.4-118.8-437.3-118.8-437.2-118.8z"/>
									<path class="st6" d="M-434.3-123.4c0,0.1,0.1,0.1,0.1,0.2C-434.2-123.3-434.2-123.4-434.3-123.4z"/>
									<polygon class="st6" points="-443.6,-118.7 -443.6,-118.7 -443.6,-118.7 									"/>
									<path class="st6" d="M-434.2-122.9c0-0.1,0-0.2,0-0.3C-434.2-123.1-434.3-123-434.2-122.9z"/>
									<path class="st6" d="M-435.1-142.2L-435.1-142.2C-435.2-142.2-435.2-142.2-435.1-142.2L-435.1-142.2z"/>
									<path class="st6" d="M-435.2-142.2L-435.2-142.2C-435.3-142.2-435.2-142.2-435.2-142.2z"/>
									<path class="st6" d="M-435.4-142.3l0.2,0.1C-435.3-142.2-435.4-142.3-435.4-142.3z"/>
									<path class="st6" d="M-434.2-140.6L-434.2-140.6C-434.2-140.6-434.2-140.6-434.2-140.6z"/>
									<path class="st6" d="M-434.1-140c0-0.1,0.1-0.4,0-0.5l0,0C-434.1-140.5-434.2-140.1-434.1-140z"/>
									<path class="st6" d="M-434.8-138l0-0.4c-0.1,0.1-0.1,0.2-0.1,0C-435-137.9-434.7-138.5-434.8-138z"/>
									<path class="st6" d="M-434.8-136.7c0-0.2-0.1,0-0.1,0C-434.9-136.6-434.9-136.5-434.8-136.7z"/>
									<path class="st6" d="M-434.8-127.6l-0.1,0C-434.9-127.4-434.9-127.6-434.8-127.6z"/>
									<polygon class="st6" points="-434.2,-125.8 -434.1,-126 -434.2,-126.1 									"/>
									<polygon class="st6" points="-435.1,-124.8 -435.1,-124.9 -435.1,-124.6 									"/>
									<path class="st6" d="M-445.4-119.9l0.1,0.2C-445.2-119.8-445.2-120-445.4-119.9z"/>
									<path class="st6" d="M-452-119.7c-0.1-0.1-0.3-0.1-0.4-0.1C-452.2-119.8-452.1-119.7-452-119.7z"/>
									<polygon class="st6" points="-456.6,-135 -456.5,-134.9 -456.6,-135.1 									"/>
								</g>
							</g>
						</g>
					</g>
				</g>
			</g>
		</g>
	</g>
	<g>
		<g>
			<path d="M50.3,195.6c-1.3-1-2.3-2.5-3.1-4.4c-0.8,2-1.9,3.6-3.3,4.8c-0.4-0.5-0.7-0.9-1-1c1.1-0.7,2-1.8,2.7-3.2
				c0.7-1.4,1-2.7,1-3.8l0-1.1c0-0.3,0-0.6-0.1-0.7l1.6,0.2c-0.3,0.5-0.4,1.5-0.4,3c0,0.2,0.2,0.6,0.5,1.3c0.3,0.7,0.6,1.2,1,1.7
				c0.3,0.5,0.6,0.9,1,1.2c0.4,0.4,0.7,0.7,1.1,1C50.8,194.9,50.5,195.3,50.3,195.6z M55.3,192.1h-2.2v5.8H52v-12.7h1.1v5.9h2.2
				V192.1z"/>
			<path d="M69.1,191.1l0,1.1H57.3v-1.1h3.5V190c-1.5-0.4-2.2-1.1-2.2-2c0-0.6,0.5-1.2,1.4-1.6c0.9-0.5,2-0.7,3.3-0.7
				c1.3,0,2.4,0.2,3.3,0.7c0.9,0.5,1.3,1,1.3,1.6c0,0.9-0.7,1.5-2.2,2v1.2H69.1z M68,195.5c0,0.8-0.4,1.4-1.3,1.8
				c-0.9,0.4-2,0.7-3.4,0.7c-1.4,0-2.6-0.2-3.5-0.7s-1.3-1.1-1.3-1.8c0-0.8,0.5-1.4,1.4-1.8c0.9-0.5,2.1-0.7,3.4-0.7
				c1.4,0,2.5,0.2,3.4,0.7C67.5,194,68,194.7,68,195.5z M63.4,194c-1.1,0-2,0.1-2.7,0.4c-0.7,0.3-1.1,0.6-1.1,1c0,0.4,0.4,0.7,1.1,1
				c0.8,0.3,1.6,0.4,2.5,0.4c1,0,1.8-0.1,2.5-0.4c0.7-0.3,1-0.6,1-1c0-0.4-0.3-0.7-1-1C65.1,194.2,64.3,194,63.4,194z M63.2,189.2
				c0.9,0,1.7-0.1,2.4-0.4c0.6-0.2,0.9-0.5,0.9-0.9c0-0.3-0.3-0.6-0.9-0.9c-0.6-0.2-1.4-0.4-2.4-0.4c-0.9,0-1.7,0.1-2.4,0.4
				s-0.9,0.5-0.9,0.9c0,0.3,0.3,0.6,0.9,0.9C61.5,189.1,62.3,189.2,63.2,189.2z M64.6,191.1v-1c-0.4,0.1-0.9,0.1-1.4,0.1
				c-0.5,0-0.9,0-1.3-0.1v1H64.6z"/>
			<path d="M79.2,195c-0.4,0.2-0.7,0.5-1,0.8c-0.5-0.4-1.1-1-1.7-1.9s-1.1-1.6-1.4-2.3c-0.7,1.7-1.6,3.1-2.9,4.3
				c-0.3-0.4-0.6-0.6-0.9-0.8c1.1-0.9,1.9-2,2.5-3.3c0.6-1.4,0.9-2.6,0.9-3.8h-2.8V187h6.8v1.1h-2.9c0,0.3-0.1,0.7-0.1,1.3l-0.1,0.8
				c0,0.2,0.4,0.9,1.1,2.1C77.4,193.4,78.2,194.3,79.2,195z M83.3,192.1h-2.2v5.8H80v-12.7h1.1v5.9h2.2V192.1z"/>
			<path d="M93.5,195.4c-3.5,0.5-6.2,0.9-8.1,1.1l-0.4-1.2l3.8-0.3v-2.4c-0.9-0.1-1.6-0.4-2.1-1c-0.5-0.6-0.7-1.3-0.7-2.1
				c0-0.9,0.3-1.7,1-2.3c0.6-0.6,1.4-0.9,2.4-0.9c1,0,1.8,0.3,2.4,0.9c0.6,0.6,0.9,1.3,0.9,2.2c0,0.8-0.2,1.5-0.7,2.1
				c-0.5,0.6-1.2,0.9-2.1,1.1v2.3l3.6-0.4V195.4z M89.3,191.6c0.6,0,1.2-0.2,1.6-0.6c0.4-0.4,0.7-0.9,0.7-1.5c0-0.6-0.2-1.1-0.7-1.5
				c-0.4-0.4-1-0.6-1.6-0.6c-0.6,0-1.2,0.2-1.6,0.6c-0.4,0.4-0.7,0.9-0.7,1.5c0,0.6,0.2,1.1,0.7,1.5
				C88.1,191.4,88.6,191.6,89.3,191.6z M97.3,192.1h-2.2v5.8H94v-12.7h1.1v5.9h2.2V192.1z"/>
			<path d="M106.8,191.8l4.6-0.1l0,0.8c-4.1,0.3-6.8,0.5-8.2,0.5l-0.2-1.1l2.8,0v-3.1h1.1V191.8z M108.7,191.1
				c0.2-1.1,0.4-2.3,0.4-3.4h-5.1v-1.1h6.3c0,1.6-0.1,3.2-0.4,4.6C109.4,191.2,109,191.2,108.7,191.1z M113,197.6h-8.2v-4.3h1.1v3.2
				h7.2V197.6z M115.2,190.5H113v4.2h-1.1v-9.5h1.1v4.2h2.2V190.5z"/>
			<path d="M117.6,193.1v-4.4h4.5v-1.7h-4.5v-1.1h5.6v3.9h-4.5v2.1c1.9,0,3.8-0.2,5.7-0.5l0,1.1C122.6,192.9,120.3,193,117.6,193.1z
				 M128.8,197.6h-9.3v-4.3h1.1v3.2h8.2V197.6z M128.8,194.4h-1.1V191H125v-1.1h2.7v-1.1H125v-1.1h2.7v-2.5h1.1V194.4z"/>
			<path d="M58.2,209.3c-4,0.3-7.2,0.4-9.8,0.5l-0.2-1.1l4.3-0.1v-1.9h-2.9v-3.9h7.2v1.1h-6.1v1.6H57v1.1h-3.4v1.9
				c2.7-0.1,4.2-0.1,4.6-0.2V209.3z M60,214.4h-9.3v-4.3h1.1v3.2H60V214.4z M60,211.5h-1.1V202H60V211.5z"/>
			<path d="M78.4,213.6H66v-1.1h5.6v-3.2h-4v-5.8h9.1v5.8h-4v3.2h5.7V213.6z M75.6,208.1v-3.6h-6.9v3.6H75.6z"/>
			<path d="M92.1,209.5H80.3v-1.1h11.8V209.5z M90.5,203.9h-7.8v2.4h7.9v1.1h-9v-4.6h8.9V203.9z M90.7,214.4h-8.9v-4.3h1.1v3.2h7.8
				V214.4z"/>
			<path d="M105.2,208.4c-0.5,0.3-0.8,0.6-1,0.9c-1.4-1.1-2.2-2-2.7-2.9c-0.6,1.1-1.4,2.1-2.5,3c-0.4-0.4-0.7-0.7-0.9-0.9
				c1.8-1.4,2.7-2.8,2.9-4.5h-2.5V203h6.4v1.1h-2.7l-0.1,0.8c0,0.2,0.3,0.7,0.9,1.5S104.3,207.9,105.2,208.4z M109.8,212.3
				c0,0.8-0.4,1.4-1.3,1.8c-0.9,0.4-2,0.7-3.4,0.7c-1.4,0-2.6-0.2-3.5-0.7c-0.9-0.4-1.3-1.1-1.3-1.8c0-0.8,0.5-1.4,1.4-1.8
				c0.9-0.5,2.1-0.7,3.4-0.7c1.4,0,2.5,0.2,3.4,0.7C109.4,210.8,109.8,211.5,109.8,212.3z M108.6,212.3c0-0.4-0.3-0.7-1-1
				c-0.7-0.3-1.5-0.4-2.5-0.4c-1,0-1.8,0.1-2.5,0.4c-0.7,0.3-1.1,0.6-1.1,1c0,0.4,0.4,0.7,1.1,1c0.8,0.3,1.6,0.4,2.5,0.4
				c1,0,1.8-0.1,2.5-0.4C108.3,213,108.6,212.6,108.6,212.3z M109.7,209.4h-1.1v-3.2h-2.8v-1.1h2.8V202h1.1V209.4z"/>
			<path d="M124.3,213.7h-12.3v-1.1h5.6v-3h1.1v3h5.7V213.7z M113.5,209.2v-6.6h1.1v2.4h6.9v-2.4h1.1v6.6H113.5z M114.6,206.2v2h6.9
				v-2H114.6z"/>
		</g>
		<g>
			<g>
				<path d="M79.2,55.8v10.5c2.7,0,5.7-0.2,9.1-0.7v1.5c-2.8,0.4-6.4,0.7-10.7,0.9V55.8H79.2z M94.1,63.1H91v8.3h-1.5V53.2H91v8.4
					h3.2V63.1z"/>
			</g>
		</g>
		<g>
			<g>
				<path class="st9" d="M89.7,173.3c-3.2-14.6-5.4-14.6-6.7-26.1"/>
				<g>
					<polygon points="87.5,150 86.8,150.7 83,147.6 80.2,151.6 79.4,151 82.9,146.1 					"/>
				</g>
			</g>
		</g>
		<g>
			<g>
				<path class="st10" d="M85.6,94.3c9.3,0,16.9,7.6,16.9,16.9s-7.6,16.9-16.9,16.9s-16.9-7.6-16.9-16.9S76.2,94.3,85.6,94.3
					 M85.6,91.5c-10.9,0-19.7,8.8-19.7,19.7c0,10.9,8.8,19.7,19.7,19.7s19.7-8.8,19.7-19.7C105.3,100.3,96.5,91.5,85.6,91.5
					L85.6,91.5z"/>
			</g>
			<g>
				<path class="st10" d="M90.4,110.3c0.7,0.3,1.3,0.6,1.8,1c0.5,0.4,1,0.9,1.4,1.5c0.4,0.6,0.7,1.2,0.9,1.9
					c0.2,0.7,0.3,1.4,0.3,2.1v4.1c0,0.3-0.1,0.6-0.3,0.8c-0.2,0.2-0.5,0.3-0.8,0.3H77.4c-0.3,0-0.6-0.1-0.8-0.3
					c-0.2-0.2-0.3-0.5-0.3-0.8v-4.1c0-0.7,0.1-1.5,0.3-2.1c0.2-0.7,0.5-1.3,0.9-1.9c0.4-0.6,0.9-1.1,1.4-1.5c0.5-0.4,1.2-0.8,1.8-1
					c0.7,0.5,1.4,0.9,2.3,1.2c0.8,0.3,1.7,0.4,2.6,0.4C87.4,111.9,89,111.3,90.4,110.3z M91.7,103.7c0,0.9-0.2,1.7-0.5,2.4
					c-0.3,0.7-0.8,1.4-1.3,1.9s-1.2,1-2,1.3c-0.8,0.3-1.5,0.5-2.4,0.5c-0.9,0-1.7-0.2-2.4-0.5s-1.4-0.8-1.9-1.3
					c-0.6-0.6-1-1.2-1.3-1.9c-0.3-0.7-0.5-1.5-0.5-2.4c0-0.8,0.2-1.6,0.5-2.4c0.3-0.8,0.8-1.4,1.3-2c0.6-0.6,1.2-1,1.9-1.3
					c0.7-0.3,1.5-0.5,2.4-0.5c0.8,0,1.6,0.2,2.4,0.5c0.8,0.3,1.4,0.8,2,1.3c0.6,0.6,1,1.2,1.3,2C91.6,102,91.7,102.8,91.7,103.7z"/>
			</g>
		</g>
	</g>
	<g>
		<g>
			<path d="M171.1,191.9h5.5l0,1.1h-11.8v-1.1h5.2v-1.7h1.1V191.9z M175.2,186.1c0,1.8-0.2,3.5-0.7,5.3c-0.1,0-0.3,0-0.6-0.1
				c-0.3,0-0.5-0.1-0.6-0.1c0.2-0.8,0.3-1.5,0.4-1.9c-3.5,0.3-5.9,0.4-7.4,0.5l-0.3-1.3c3.1,0,5.7,0,7.8-0.1c0-0.1,0.1-0.5,0.1-1.2
				h-7.5v-1.1H175.2z M175.2,197.6h-8.9v-4.3h1.1v3.2h7.8V197.6z"/>
			<path d="M185.9,192.3c-1.9,0.2-4.1,0.3-6.6,0.3v-6.5h5.7v1.1h-4.6v1.5h4.3v1.1h-4.3v1.7c2.3,0,4.2-0.1,5.5-0.2V192.3z
				 M190.4,197.6h-9.3v-4.3h1.1v3.2h8.2V197.6z M187.1,193.9v-3.7h-1.9v-1.1h1.9v-3.7h1.1v8.5H187.1z M189.3,194.7v-9.5h1.1v9.5
				H189.3z"/>
			<path d="M204.9,196.3h-12.4v-1.1h12.4V196.3z M203.9,193.1c-0.3,0.2-0.6,0.6-0.9,1.1c-1.9-1.1-3.3-2.4-4.3-4
				c-1.2,1.8-2.8,3.2-4.6,4c-0.2-0.4-0.5-0.7-0.8-0.9c0.9-0.3,1.7-0.8,2.5-1.5s1.4-1.4,1.7-2.1h-3.8v-1.1h10v1.1h-3.9
				C200.8,191.3,202.2,192.4,203.9,193.1z M201,187.6h-4.5v-1.1h4.5V187.6z"/>
			<path d="M217.2,192.2c-1.2-0.8-2.1-1.7-2.9-2.9c-0.7,1.2-1.6,2.3-2.7,3.1c-0.4-0.4-0.7-0.7-1-0.8c0.8-0.5,1.5-1.1,2.2-2.1
				c0.7-0.9,1-2.1,0.9-3.6c0.5,0.1,0.9,0.1,1.4,0.2c-0.2,0.4-0.3,1.1-0.3,1.9c0,0.3,0.3,0.8,1,1.6c0.6,0.8,1.4,1.4,2.2,1.8
				C217.8,191.4,217.5,191.7,217.2,192.2z M222.3,195.5c0,0.8-0.4,1.4-1.3,1.8c-0.9,0.4-2,0.7-3.4,0.7c-1.4,0-2.6-0.2-3.5-0.7
				s-1.3-1.1-1.3-1.8c0-0.8,0.5-1.4,1.4-1.8c0.9-0.5,2.1-0.7,3.4-0.7c1.4,0,2.5,0.2,3.4,0.7C221.9,194,222.3,194.7,222.3,195.5z
				 M221.2,195.5c0-0.4-0.3-0.7-1-1c-0.7-0.3-1.5-0.4-2.5-0.4c-1,0-1.8,0.1-2.5,0.4c-0.7,0.3-1.1,0.6-1.1,1c0,0.4,0.4,0.7,1.1,1
				s1.6,0.4,2.5,0.4c1,0,1.8-0.1,2.5-0.4C220.8,196.2,221.2,195.8,221.2,195.5z M222.3,192.6h-1.1v-3h-1.7v2.9h-1.1v-6.9h1.1v2.9
				h1.7v-3.3h1.1V192.6z"/>
			<path d="M231.2,192.4c-0.8-0.6-1.8-1.5-2.9-3c-0.7,1.1-1.6,2.1-2.7,3.1c-0.4-0.4-0.8-0.7-1-0.8c2.1-1.5,3.2-3.2,3.2-5.2
				c0-0.2,0-0.4,0-0.5c0.5,0.1,0.9,0.1,1.4,0.2c-0.2,0.4-0.3,1.1-0.3,1.9c0,0.2,0.3,0.7,1,1.5c0.6,0.8,1.4,1.5,2.4,2.1
				C231.9,191.7,231.5,192,231.2,192.4z M236.3,195.5c0,0.8-0.4,1.4-1.3,1.8c-0.9,0.4-2,0.7-3.4,0.7c-1.4,0-2.6-0.2-3.5-0.7
				s-1.3-1.1-1.3-1.8c0-0.8,0.5-1.4,1.4-1.8c0.9-0.5,2.1-0.7,3.4-0.7c1.4,0,2.5,0.2,3.4,0.7C235.9,194,236.3,194.7,236.3,195.5z
				 M235.2,195.5c0-0.4-0.3-0.7-1-1c-0.7-0.3-1.5-0.4-2.5-0.4c-1,0-1.8,0.1-2.5,0.4c-0.7,0.3-1.1,0.6-1.1,1c0,0.4,0.4,0.7,1.1,1
				s1.6,0.4,2.5,0.4c1,0,1.8-0.1,2.5-0.4C234.8,196.2,235.2,195.8,235.2,195.5z M236.3,192.6h-1.1v-3.2h-3.5v-1.1h3.5v-3.1h1.1
				V192.6z"/>
			<path d="M188.1,202.9v5.7h-6.2v-5.7H188.1z M188.1,212.1c0.4,0.4,1.1,0.8,2,1.1c1,0.3,1.8,0.5,2.6,0.5c-0.3,0.3-0.6,0.6-0.7,1
				c-1.8-0.2-3.3-0.8-4.5-1.7c-1.2,0.9-2.7,1.5-4.6,1.7c0-0.2-0.2-0.5-0.6-1c2-0.1,3.5-0.7,4.6-1.7h-4.1v-1h9.4v1H188.1z
				 M182.9,204.1v3.4h4.1v-3.4H182.9z M189.6,210.7h-4.2v-1h4.2V210.7z M191.3,209.4V202h1v7.4H191.3z"/>
			<path d="M210.4,210.3h-5.4v4.4H204v-4.4h-5.3v-1.1h11.8L210.4,210.3z M209.5,207.5c-0.3,0.4-0.5,0.7-0.7,1.1
				c-1.6-0.6-3-1.6-4.3-2.9c-1.3,1.5-2.9,2.5-4.7,3c-0.1-0.5-0.3-0.8-0.6-1.1c1.9-0.5,3.2-1.3,4.1-2.4h-3.7v-1.1h9.8v1.1h-3.7
				C206.7,206.3,208,207.1,209.5,207.5z M206.8,203.4h-4.5v-1.1h4.5V203.4z"/>
			<path d="M213.6,213c-0.3-0.4-0.5-0.7-0.7-0.9c1.4-0.6,2.5-1.6,3.4-3c0.9-1.3,1.4-2.7,1.6-4.2h-4.7v-1.1h5.9
				c-0.1,2-0.7,3.8-1.6,5.4C216.5,210.9,215.2,212.1,213.6,213z M224.6,208.9h-2.2v5.8h-1.1V202h1.1v5.9h2.2V208.9z"/>
		</g>
		<g>
			<g>
				<path d="M192.6,65.1h-7.7v6.2h-1.5v-6.2h-7.6v-1.5h16.8L192.6,65.1z M191.3,61.1c-0.4,0.5-0.7,1-1,1.6c-2.3-0.8-4.4-2.2-6.2-4.2
					c-1.9,2.2-4.1,3.6-6.7,4.3c-0.2-0.7-0.5-1.2-0.8-1.5c2.7-0.7,4.6-1.9,5.8-3.5h-5.3v-1.5h14v1.5h-5.3
					C187.2,59.3,189,60.4,191.3,61.1z M187.4,55.1H181v-1.5h6.4V55.1z"/>
				<path d="M197.2,68.9c-0.4-0.6-0.7-1-1.1-1.3c2-0.9,3.6-2.3,4.8-4.2c1.2-1.9,2-3.9,2.2-6h-6.7v-1.6h8.4c-0.2,2.9-0.9,5.4-2.3,7.8
					S199.4,67.6,197.2,68.9z M212.9,63.1h-3.2v8.3h-1.5V53.2h1.5v8.4h3.2V63.1z"/>
			</g>
		</g>
		<g>
			<polygon class="st10" points="211,116 196,116 196,131 191,131 191,116 177,116 177,111 191,111 191,96 196,96 196,111 211,111 
							"/>
		</g>
	</g>
	<g>
		<g>
			<path d="M293.4,191.1h5.6v1.1h-11.8v-1.1h5.1v-2.4h1.1V191.1z M297.9,195.5c0,0.8-0.4,1.4-1.3,1.8c-0.9,0.4-2,0.7-3.4,0.7
				c-1.4,0-2.6-0.2-3.5-0.7s-1.3-1.1-1.3-1.8c0-0.8,0.5-1.4,1.4-1.8c0.9-0.5,2.1-0.7,3.4-0.7c1.4,0,2.5,0.2,3.4,0.7
				C297.5,194,297.9,194.7,297.9,195.5z M297.7,186.2c0,1-0.2,2.4-0.4,4l-1.1-0.2c0.2-1.1,0.3-2,0.3-2.7h-7.9v-1.1H297.7z
				 M293.3,194c-1.1,0-2,0.1-2.7,0.4s-1.1,0.6-1.1,1c0,0.4,0.4,0.7,1.1,1c0.8,0.3,1.6,0.4,2.5,0.4c1,0,1.8-0.1,2.5-0.4s1-0.6,1-1
				c0-0.4-0.3-0.7-1-1C295.1,194.2,294.3,194,293.3,194z"/>
			<path d="M313.2,193.1h-3.3v4.8h-1.1v-4.8h-3.3v4.8h-1.1v-4.8h-3.3V192h12V193.1z M311.8,188.6c0,0.7-0.4,1.4-1.3,1.9
				s-2,0.8-3.3,0.8c-1.4,0-2.5-0.3-3.3-0.8c-0.9-0.5-1.3-1.2-1.3-1.9c0-0.7,0.5-1.4,1.4-1.9s2-0.8,3.3-0.8c1.3,0,2.4,0.3,3.3,0.8
				S311.8,187.9,311.8,188.6z M310.5,188.6c0-0.5-0.3-0.8-1-1.2c-0.6-0.3-1.4-0.5-2.4-0.5c-1,0-1.8,0.2-2.4,0.5
				c-0.6,0.3-1,0.7-1,1.2c0,0.5,0.3,0.9,1,1.2c0.6,0.3,1.4,0.5,2.4,0.5c0.9,0,1.7-0.2,2.4-0.5S310.5,189.1,310.5,188.6z"/>
			<path d="M316.8,197c0,0.6-0.1,1-0.3,1.3c-0.2,0.3-0.5,0.5-0.8,0.6l-0.3-0.5c0.5-0.2,0.8-0.7,0.8-1.5h-0.7v-1.4h1.4V197z"/>
			<path d="M330.8,195c-0.4,0.2-0.7,0.5-1,0.8c-0.5-0.4-1.1-1-1.7-1.9c-0.6-0.9-1.1-1.6-1.4-2.3c-0.7,1.7-1.6,3.1-2.9,4.3
				c-0.3-0.4-0.6-0.6-0.9-0.8c1.1-0.9,1.9-2,2.5-3.3c0.6-1.4,0.9-2.6,0.9-3.8h-2.8V187h6.8v1.1h-2.9c0,0.3-0.1,0.7-0.1,1.3l-0.1,0.8
				c0,0.2,0.4,0.9,1.1,2.1C329.1,193.4,329.9,194.3,330.8,195z M333.6,198v-5.9h-2.8V191h2.8v-5.8h1.1V198H333.6z"/>
			<path d="M344.2,191.6c-0.5,0.3-0.8,0.6-1,0.9c-1.4-1-2.2-2-2.7-2.9c-0.6,1-1.4,2-2.5,3c-0.4-0.4-0.7-0.7-1-0.9
				c1.8-1.3,2.7-2.8,2.9-4.4h-2.5v-1.1h6.5v1.1h-2.7l-0.1,0.8c0,0.3,0.3,0.8,0.9,1.5C342.5,190.4,343.3,191,344.2,191.6z
				 M347.1,195.4c0,0.8-0.4,1.4-1.2,1.8c-0.8,0.5-1.8,0.7-3,0.7c-1.3,0-2.3-0.2-3.1-0.7c-0.8-0.4-1.2-1.1-1.2-1.8
				c0-0.7,0.4-1.3,1.2-1.8c0.8-0.5,1.8-0.7,3-0.7c1.2,0,2.2,0.2,3,0.7C346.7,194.1,347.1,194.7,347.1,195.4z M345.9,195.5
				c0-0.4-0.3-0.8-0.8-1.1c-0.5-0.3-1.2-0.4-2.1-0.4c-0.9,0-1.6,0.1-2.2,0.4c-0.5,0.3-0.8,0.6-0.8,1c0,0.4,0.3,0.8,0.8,1
				s1.3,0.4,2.2,0.4c0.9,0,1.6-0.1,2.1-0.4C345.6,196.2,345.9,195.9,345.9,195.5z M349.1,189.5h-2.2v3.2h-1.1v-7.4h1.1v3.2h2.2
				V189.5z"/>
			<path d="M362.3,186.1v5.7h-6.2v-5.7H362.3z M362.3,195.3c0.4,0.4,1.1,0.8,2,1.1s1.8,0.5,2.6,0.5c-0.3,0.3-0.6,0.6-0.7,1
				c-1.8-0.2-3.3-0.8-4.5-1.7c-1.2,0.9-2.7,1.5-4.6,1.7c0-0.2-0.2-0.5-0.6-1c2-0.1,3.5-0.7,4.6-1.7H357v-1h9.4v1H362.3z
				 M357.1,187.3v3.4h4.1v-3.4H357.1z M363.8,193.9h-4.2v-1h4.2V193.9z M365.5,192.6v-7.4h1v7.4H365.5z"/>
			<path d="M306.3,207.9h5.6v1.1h-11.8v-1.1h5.1v-2.4h1.1V207.9z M310.8,212.3c0,0.8-0.4,1.4-1.3,1.8c-0.9,0.4-2,0.7-3.4,0.7
				c-1.4,0-2.6-0.2-3.5-0.7s-1.3-1.1-1.3-1.8c0-0.8,0.5-1.4,1.4-1.8c0.9-0.5,2.1-0.7,3.4-0.7c1.4,0,2.5,0.2,3.4,0.7
				C310.3,210.8,310.8,211.5,310.8,212.3z M310.5,203c0,1-0.2,2.4-0.4,4l-1.1-0.2c0.2-1.1,0.3-2,0.3-2.7h-7.9V203H310.5z
				 M306.2,210.8c-1.1,0-2,0.1-2.7,0.4s-1.1,0.6-1.1,1c0,0.4,0.4,0.7,1.1,1c0.8,0.3,1.6,0.4,2.5,0.4c1,0,1.8-0.1,2.5-0.4s1-0.6,1-1
				c0-0.4-0.3-0.7-1-1C307.9,211,307.1,210.8,306.2,210.8z"/>
			<path d="M325.9,209.1h-11.8v-1h5.4v-1h-4v-4.4h8.9v1.1h-7.8v2.2h7.9v1.1h-4v1h5.4V209.1z M324.8,212.3c0,0.8-0.4,1.4-1.3,1.8
				c-0.9,0.4-2,0.7-3.4,0.7c-1.4,0-2.6-0.2-3.5-0.7s-1.3-1.1-1.3-1.8c0-0.8,0.5-1.4,1.4-1.8c0.9-0.5,2.1-0.7,3.4-0.7
				c1.4,0,2.5,0.2,3.4,0.7C324.3,210.8,324.8,211.5,324.8,212.3z M320.2,210.8c-1.1,0-2,0.1-2.7,0.4s-1.1,0.6-1.1,1
				c0,0.4,0.4,0.7,1.1,1c0.8,0.3,1.6,0.4,2.5,0.4c1,0,1.8-0.1,2.5-0.4s1-0.6,1-1c0-0.4-0.3-0.7-1-1
				C321.9,211,321.1,210.8,320.2,210.8z"/>
			<path d="M339.1,208.4c-0.5,0.3-0.8,0.6-1,0.9c-1.4-1-2.2-2-2.7-2.9c-0.6,1-1.4,2-2.5,3c-0.4-0.4-0.7-0.7-1-0.9
				c1.8-1.3,2.7-2.8,2.9-4.4h-2.5V203h6.5v1.1h-2.7l-0.1,0.8c0,0.3,0.3,0.8,0.9,1.5C337.5,207.2,338.2,207.8,339.1,208.4z
				 M340.7,214.6v-3.4h-7.2v-1.1h8.2v4.5H340.7z M344,206.3h-2.2v3.2h-1.1V202h1.1v3.2h2.2V206.3z"/>
			<path d="M352.6,205.9c0,0.9-0.3,1.6-0.9,2.2c-0.6,0.6-1.4,0.9-2.3,0.9c-1,0-1.8-0.3-2.4-0.8c-0.6-0.6-0.9-1.3-0.9-2.2
				c0-0.8,0.3-1.5,0.9-2.1c0.6-0.6,1.4-0.9,2.3-0.9c1,0,1.7,0.3,2.3,0.9C352.3,204.3,352.6,205,352.6,205.9z M351.5,205.9
				c0-0.5-0.2-1-0.6-1.4c-0.4-0.4-0.9-0.6-1.5-0.6c-0.6,0-1.1,0.2-1.5,0.6c-0.4,0.4-0.6,0.8-0.6,1.4c0,0.5,0.2,1,0.6,1.4
				c0.4,0.4,0.9,0.6,1.5,0.6c0.6,0,1.1-0.2,1.5-0.6S351.5,206.4,351.5,205.9z M356.5,214.7v-0.5h-6.9v0.5h-1.1v-4.8h1.1v1.3h6.9
				v-1.3h1.1v4.8H356.5z M349.6,212.2v0.9h6.9v-0.9H349.6z M357.6,209.4h-1.1v-3.2h-2.8v-1.1h2.8V202h1.1V209.4z"/>
		</g>
		<g>
			<g>
				<path d="M315,61.5h8.1v1.5h-16.8v-1.5h7.2v-3.4h1.5V61.5z M321.4,67.8c0,1.1-0.6,2-1.9,2.6s-2.9,0.9-4.9,0.9
					c-2.1,0-3.7-0.3-5-0.9s-1.9-1.5-1.9-2.6c0-1.1,0.7-2,2-2.6s2.9-1,4.8-1c2,0,3.6,0.3,4.8,1S321.4,66.7,321.4,67.8z M321.1,54.6
					c0,1.5-0.2,3.4-0.6,5.7l-1.6-0.2c0.3-1.6,0.5-2.9,0.5-3.9h-11.3v-1.6H321.1z M314.9,65.7c-1.5,0-2.8,0.2-3.8,0.5
					s-1.5,0.9-1.5,1.5c0,0.6,0.5,1,1.6,1.4s2.3,0.6,3.5,0.6c1.4,0,2.6-0.2,3.6-0.6s1.5-0.9,1.5-1.5c0-0.6-0.5-1-1.4-1.4
					S316.2,65.7,314.9,65.7z"/>
				<path d="M343.2,64.5h-4.7v6.8H337v-6.8h-4.8v6.8h-1.5v-6.8h-4.7v-1.5h17.1V64.5z M341.2,58c0,1-0.6,1.9-1.9,2.7
					s-2.8,1.2-4.7,1.2c-1.9,0-3.5-0.4-4.8-1.1S328,59.1,328,58c0-1,0.6-1.9,1.9-2.7s2.8-1.2,4.7-1.2s3.4,0.4,4.7,1.2
					S341.2,57,341.2,58z M339.4,58c0-0.7-0.5-1.2-1.4-1.7s-2.1-0.7-3.4-0.7c-1.4,0-2.5,0.2-3.4,0.7s-1.4,1-1.4,1.7
					c0,0.7,0.5,1.2,1.4,1.7s2.1,0.7,3.4,0.7c1.4,0,2.5-0.2,3.4-0.7S339.4,58.6,339.4,58z"/>
			</g>
		</g>
		<g>
			<g>
				<path class="st9" d="M326.9,173.3c0.2-3.4,0.9-16.9-1.1-25.6"/>
				<g>
					<polygon points="330.4,150.1 329.9,151 325.8,148.1 323.3,152.3 322.4,151.8 325.5,146.7 					"/>
				</g>
			</g>
		</g>
		<g>
			<g>
				<path class="st9" d="M203.9,173.3c0.2-3.4,0.9-16.9-1.1-25.6"/>
				<g>
					<polygon points="207.4,150.1 206.9,151 202.8,148.1 200.3,152.3 199.4,151.8 202.5,146.7 					"/>
				</g>
			</g>
		</g>
		<g>
			<path class="st10" d="M344.2,108l-17.8,17.7v-11.1c-2.4,0.3-4.6,0.9-6.7,1.7c-2.1,0.8-4,1.9-5.8,3.2c-1.7,1.3-3.2,2.8-4.5,4.5
				c-1.3,1.7-2.3,3.5-3,5.4c-0.8-2.2-1.2-4.4-1.2-6.7c0-2.7,0.5-5.3,1.6-7.8c1.1-2.5,2.6-4.6,4.5-6.6s4.1-3.5,6.7-4.8
				s5.4-2.1,8.4-2.5V90.3L344.2,108z M329.5,103.9l-2.8,0.3c-2.3,0.3-4.4,0.9-6.5,1.7c-2,0.9-3.9,2-5.5,3.3c-1.6,1.4-3,3-4.1,4.7
				s-1.8,3.8-2.2,5.9c2.2-2.3,4.8-4.2,7.7-5.7c3-1.5,6.2-2.4,9.7-2.9l3.6-0.4v7.1l10.1-10l-10.1-10V103.9z"/>
		</g>
	</g>
	<g>
		<g>
			<path d="M430.2,195.6c-1.3-1-2.3-2.5-3.1-4.4c-0.8,2-1.9,3.6-3.3,4.8c-0.4-0.5-0.7-0.9-1-1c1.1-0.7,2-1.8,2.7-3.2s1-2.7,1-3.8
				l0-1.1c0-0.3,0-0.6-0.1-0.7l1.6,0.2c-0.3,0.5-0.4,1.5-0.4,3c0,0.2,0.2,0.6,0.5,1.3c0.3,0.7,0.6,1.2,1,1.7c0.3,0.5,0.6,0.9,1,1.2
				c0.4,0.4,0.7,0.7,1.1,1C430.7,194.9,430.4,195.3,430.2,195.6z M435.2,192.1H433v5.8h-1.1v-12.7h1.1v5.9h2.2V192.1z"/>
			<path d="M449,191.1l0,1.1h-11.8v-1.1h3.5V190c-1.5-0.4-2.2-1.1-2.2-2c0-0.6,0.5-1.2,1.4-1.6c0.9-0.5,2-0.7,3.3-0.7
				c1.3,0,2.4,0.2,3.3,0.7c0.9,0.5,1.4,1,1.4,1.6c0,0.9-0.7,1.5-2.2,2v1.2H449z M447.9,195.5c0,0.8-0.4,1.4-1.3,1.8
				c-0.9,0.4-2,0.7-3.4,0.7c-1.4,0-2.6-0.2-3.5-0.7c-0.9-0.4-1.3-1.1-1.3-1.8c0-0.8,0.5-1.4,1.4-1.8c0.9-0.5,2.1-0.7,3.4-0.7
				c1.4,0,2.5,0.2,3.4,0.7C447.4,194,447.9,194.7,447.9,195.5z M443.3,194c-1.1,0-2,0.1-2.7,0.4c-0.7,0.3-1.1,0.6-1.1,1
				c0,0.4,0.4,0.7,1.1,1s1.6,0.4,2.5,0.4c1,0,1.8-0.1,2.5-0.4c0.7-0.3,1-0.6,1-1c0-0.4-0.3-0.7-1-1S444.2,194,443.3,194z
				 M443.1,189.2c0.9,0,1.7-0.1,2.4-0.4c0.6-0.2,0.9-0.5,0.9-0.9c0-0.3-0.3-0.6-0.9-0.9c-0.6-0.2-1.4-0.4-2.4-0.4
				c-0.9,0-1.7,0.1-2.4,0.4s-0.9,0.5-0.9,0.9c0,0.3,0.3,0.6,0.9,0.9C441.4,189.1,442.2,189.2,443.1,189.2z M444.5,191.1v-1
				c-0.4,0.1-0.9,0.1-1.4,0.1c-0.5,0-0.9,0-1.3-0.1v1H444.5z"/>
			<path d="M459,195c-0.4,0.2-0.7,0.5-1,0.8c-0.5-0.4-1.1-1-1.7-1.9c-0.6-0.9-1.1-1.6-1.4-2.3c-0.7,1.7-1.6,3.1-2.9,4.3
				c-0.3-0.4-0.6-0.6-0.9-0.8c1.1-0.9,1.9-2,2.5-3.3c0.6-1.4,0.9-2.6,0.9-3.8h-2.8V187h6.8v1.1h-2.9c0,0.3-0.1,0.7-0.1,1.3l-0.1,0.8
				c0,0.2,0.4,0.9,1.1,2.1C457.3,193.4,458.1,194.3,459,195z M463.2,192.1H461v5.8h-1.1v-12.7h1.1v5.9h2.2V192.1z"/>
			<path d="M477.3,194.7c-0.5,0.4-0.8,0.7-1,1.1c-1.2-1.1-2.3-2.4-3.1-3.8c-0.6,1.5-1.5,2.8-2.7,3.8c-0.2-0.3-0.4-0.6-0.9-1
				c1-0.8,1.8-1.7,2.3-3c0.5-1.2,0.8-2.4,0.8-3.7h-2.8v-1.1h7v1.1H474c-0.1,1-0.2,1.7-0.3,2.1c0.4,0.8,0.9,1.7,1.6,2.5
				C476.1,193.7,476.7,194.3,477.3,194.7z M480.7,198h-1.1v-12.7h1.1V198z"/>
			<path d="M491.8,191l-3.9,0.6v2.4h-1.1v-2.3l-3.5,0.3l-0.3-1.1c4-0.2,6.9-0.5,8.8-0.9V191z M490.7,188c0,0.6-0.3,1.1-0.9,1.5
				c-0.6,0.4-1.4,0.6-2.3,0.6s-1.7-0.2-2.3-0.6s-0.9-0.9-0.9-1.5c0-0.6,0.3-1.1,0.9-1.5c0.6-0.4,1.4-0.6,2.3-0.6
				c1,0,1.8,0.2,2.3,0.6S490.7,187.4,490.7,188z M489.6,188c0-0.3-0.2-0.6-0.6-0.8c-0.4-0.2-0.9-0.3-1.5-0.3s-1.1,0.1-1.5,0.3
				c-0.4,0.2-0.6,0.5-0.6,0.8s0.2,0.6,0.6,0.8c0.4,0.2,0.9,0.3,1.5,0.3s1.1-0.1,1.5-0.3C489.4,188.5,489.6,188.3,489.6,188z
				 M494.7,197.6h-9.3v-4.3h1.1v3.2h8.2V197.6z M494.7,194.7h-1.1v-2h-2.8v-1h2.8v-6.4h1.1V194.7z"/>
			<path d="M508.3,186.1v5.7h-6.2v-5.7H508.3z M508.4,195.3c0.4,0.4,1.1,0.8,2,1.1c1,0.3,1.8,0.5,2.6,0.5c-0.3,0.3-0.6,0.6-0.7,1
				c-1.8-0.2-3.3-0.8-4.5-1.7c-1.2,0.9-2.7,1.5-4.6,1.7c0-0.2-0.2-0.5-0.6-1c2-0.1,3.5-0.7,4.6-1.7h-4.1v-1h9.4v1H508.4z
				 M503.2,187.3v3.4h4.1v-3.4H503.2z M509.9,193.9h-4.2v-1h4.2V193.9z M511.6,192.6v-7.4h1v7.4H511.6z"/>
			<path d="M435.3,211.5c-0.5,0.4-0.8,0.7-1,1.1c-1.2-1.1-2.3-2.4-3.1-3.8c-0.6,1.5-1.5,2.8-2.7,3.8c-0.2-0.3-0.4-0.6-0.9-1
				c1-0.8,1.8-1.7,2.3-3c0.5-1.2,0.8-2.4,0.8-3.7h-2.8V204h7v1.1H432c-0.1,1-0.2,1.7-0.3,2.1c0.4,0.8,0.9,1.7,1.6,2.5
				C434.1,210.5,434.7,211.1,435.3,211.5z M438.7,214.8h-1.1V202h1.1V214.8z"/>
			<path d="M449.8,207.8l-3.9,0.6v2.4h-1.1v-2.3l-3.5,0.3l-0.3-1.1c4-0.2,6.9-0.5,8.8-0.9V207.8z M448.7,204.8
				c0,0.6-0.3,1.1-0.9,1.5c-0.6,0.4-1.4,0.6-2.3,0.6s-1.7-0.2-2.3-0.6s-0.9-0.9-0.9-1.5c0-0.6,0.3-1.1,0.9-1.5
				c0.6-0.4,1.4-0.6,2.3-0.6c1,0,1.8,0.2,2.3,0.6S448.7,204.2,448.7,204.8z M447.6,204.8c0-0.3-0.2-0.6-0.6-0.8
				c-0.4-0.2-0.9-0.3-1.5-0.3s-1.1,0.1-1.5,0.3c-0.4,0.2-0.6,0.5-0.6,0.8s0.2,0.6,0.6,0.8c0.4,0.2,0.9,0.3,1.5,0.3s1.1-0.1,1.5-0.3
				C447.4,205.3,447.6,205.1,447.6,204.8z M452.7,214.4h-9.3v-4.3h1.1v3.2h8.2V214.4z M452.7,211.5h-1.1v-2h-2.8v-1h2.8V202h1.1
				V211.5z"/>
			<path d="M466.3,203.7c-0.6,4.1-2.7,7.1-6.2,8.8c-0.4-0.5-0.7-0.8-0.8-0.8c2.3-1.1,3.9-2.6,4.7-4.3l-4.4,0.6l-0.3-1.2l5-0.4
				c0.3-0.7,0.4-1.2,0.5-1.6h-5.1v-1.1H466.3z M469.5,214.8V209H466v-1.1h3.5V202h1.1v12.7H469.5z"/>
			<path d="M484.9,209.4h-3.3v5.3h-1.1v-5.3h-3.3v5.3h-1.1v-5.3h-3.3v-1.1h12V209.4z M483.4,207.1h-9.1v-4.5h9.1V207.1z
				 M475.4,203.7v2.3h6.9v-2.3H475.4z"/>
			<path d="M487.8,204.2h1.1l0,7.3c2.4-0.1,5-0.5,7.8-1.1v1.1c-3.4,0.7-6.3,1.1-8.9,1.1V204.2z M498.6,214.8h-1.1V202h1.1V214.8z"/>
			<path d="M509.6,211.2c-1.1,0.2-2.5,0.4-4.2,0.5c-1.7,0.1-2.9,0.2-3.7,0.2v-8.2h7.3v1.1h-6.2v2.2h5.9v1.1h-5.9v2.7
				c2.5-0.1,4.8-0.3,6.8-0.6V211.2z M512.6,214.8h-1.1V202h1.1V214.8z"/>
		</g>
		<g>
			<g>
				<path d="M454.5,63.7v5h8.1v1.6H445v-1.6h8v-5H454.5z M460.1,56.4h-11.2v5.5h11.4v1.6h-13v-8.6h12.8V56.4z"/>
				<path d="M482.2,62.7h-7.7v1.4H473v-1.4h-7.7v-1.5h16.8V62.7z M480.4,57.1c0,0.9-0.6,1.7-1.9,2.3s-2.8,1-4.7,1
					c-1.9,0-3.5-0.3-4.8-0.9s-1.8-1.4-1.8-2.3c0-0.9,0.6-1.7,1.9-2.3c1.3-0.6,2.8-1,4.7-1c1.8,0,3.4,0.3,4.7,1
					C479.7,55.4,480.4,56.2,480.4,57.1z M478.7,71.2v-0.7h-9.9v0.7h-1.5v-6.9h12.9v6.9H478.7z M478.7,65.9h-9.9V69h9.9V65.9z
					 M478.5,57.1c0-0.5-0.4-0.9-1.3-1.2c-0.9-0.3-2-0.5-3.4-0.5c-1.3,0-2.5,0.2-3.4,0.5s-1.3,0.8-1.3,1.2c0,0.5,0.4,0.9,1.3,1.2
					c0.9,0.3,2,0.5,3.4,0.5c1.4,0,2.5-0.2,3.4-0.5C478,58,478.5,57.6,478.5,57.1z"/>
				<path d="M494.6,54.7v8.1h-8.4v-8.1H494.6z M487.7,56.3v4.9h5.4v-4.9H487.7z M499.3,64.3v4h-9.8v1.3h10.1v1.6H488v-4.4h9.8v-0.9
					h-9.8v-1.6H499.3z M502.5,59.3h-3.2v4.5h-1.5V53.2h1.5v4.6h3.2V59.3z"/>
			</g>
		</g>
		<g>
			<g>
				<path class="st9" d="M467.6,173.3c-0.2-3.4,0.9-18.4,5-27.4"/>
				<g>
					<polygon points="475.1,150.7 474.1,151 472.5,146.3 468,148.3 467.6,147.4 473.1,145 					"/>
				</g>
			</g>
		</g>
		<g>
			<path class="st10" d="M473.8,90.3c2.7,0,5.3,0.5,7.6,1.5c2.4,1,4.4,2.4,6.2,4.2c1.8,1.8,3.2,3.8,4.2,6.2c1,2.4,1.5,4.9,1.5,7.6
				c0,2.7-0.5,5.3-1.5,7.6c-1,2.4-2.4,4.4-4.2,6.2c-1.8,1.8-3.8,3.2-6.2,4.2c-2.4,1-4.9,1.5-7.6,1.5c-2.7,0-5.3-0.5-7.6-1.5
				c-2.4-1-4.4-2.4-6.2-4.2s-3.2-3.8-4.2-6.2c-1-2.4-1.5-4.9-1.5-7.6c0-2.7,0.5-5.3,1.5-7.6c1-2.4,2.4-4.4,4.2-6.2s3.8-3.2,6.2-4.2
				C468.5,90.8,471,90.3,473.8,90.3z M473.8,126.2c2.3,0,4.4-0.4,6.4-1.3s3.7-2,5.2-3.5c1.5-1.5,2.6-3.2,3.5-5.2s1.3-4.1,1.3-6.4
				s-0.4-4.4-1.3-6.4c-0.9-2-2-3.7-3.5-5.2c-1.5-1.5-3.2-2.6-5.2-3.5s-4.1-1.3-6.4-1.3s-4.4,0.4-6.4,1.3c-2,0.9-3.7,2-5.2,3.5
				c-1.5,1.5-2.6,3.2-3.5,5.2c-0.9,2-1.3,4.1-1.3,6.4s0.4,4.4,1.3,6.4c0.9,2,2,3.7,3.5,5.2c1.5,1.5,3.2,2.6,5.2,3.5
				C469.4,125.8,471.5,126.2,473.8,126.2z M473.6,96.5c1.8,0,3.4,0.3,4.6,0.8c1.2,0.5,2.2,1.1,3,1.9s1.3,1.6,1.6,2.5
				c0.3,0.9,0.5,1.7,0.5,2.4c0,1-0.1,1.8-0.3,2.5c-0.2,0.7-0.4,1.3-0.7,1.8c-0.3,0.5-0.7,1-1,1.3c-0.4,0.4-0.8,0.7-1.2,1
				c-0.4,0.3-0.8,0.6-1.3,0.9s-0.8,0.6-1.1,0.9s-0.6,0.7-0.9,1.1c-0.3,0.4-0.4,0.9-0.5,1.5H471c0.1-0.9,0.2-1.6,0.4-2.2
				c0.2-0.6,0.5-1.2,0.8-1.7c0.3-0.5,0.7-0.9,1-1.3c0.4-0.4,0.8-0.7,1.2-1l0.2-0.2c0.3-0.3,0.7-0.5,1-0.8c0.3-0.3,0.6-0.6,0.8-0.9
				c0.2-0.3,0.4-0.6,0.6-1c0.1-0.4,0.2-0.8,0.2-1.3c0-1.2-0.3-2.1-0.9-2.6s-1.4-0.8-2.4-0.8c-0.7,0-1.3,0.1-1.8,0.4
				c-0.5,0.3-0.9,0.6-1.3,1.1c-0.3,0.5-0.6,1-0.7,1.6c-0.2,0.6-0.2,1.3-0.2,2h-5.7c0-1.4,0.3-2.7,0.7-3.8c0.5-1.2,1.1-2.2,1.9-3.1
				c0.8-0.8,1.8-1.5,3-2C470.9,96.7,472.2,96.5,473.6,96.5z M471,117.9h5.3v5.3H471V117.9z"/>
		</g>
	</g>
	<g id="_x30_1" class="st0">
		<text transform="matrix(1 0 0 1 -2029.4531 -1118.501)" class="st11"><tspan x="0" y="0" style="font-family:'ArialMT'; font-size:20px;">Welcome!</tspan><tspan x="-146.8" y="19.2" style="font-family:'ArialMT'; font-size:16px;">Learn more about the </tspan><tspan x="10.7" y="19.2" style="font-family:'Arial-BoldMT'; font-size:16px;">3D</tspan><tspan x="31.1" y="19.2" style="font-family:'ArialMT'; font-size:16px;">EXPERIENCE user interface</tspan><tspan x="3.5" y="38.4" style="font-family:'ArialMT'; font-size:16px;">in 5 steps...</tspan></text>
		<g class="st11">
			<g>
				<path class="st12" d="M-2097.8-1187.5c0.5,0,1,0.4,1,1l2.4,52.6c0,0.4-0.2,0.6-0.3,0.7c-0.1,0.1-0.3,0.3-0.7,0.3l-160,7.3
					c-0.5,0-1-0.4-1-1l-2.4-52.6c0-0.5,0.4-1,1-1L-2097.8-1187.5L-2097.8-1187.5 M-2097.8-1190.5c-0.1,0-0.1,0-0.2,0l-159.9,7.3
					c-2.2,0.1-3.9,2-3.8,4.2l2.4,52.6c0.1,2.1,1.9,3.8,4,3.8c0.1,0,0.1,0,0.2,0l159.9-7.3c2.2-0.1,3.9-2,3.8-4.2l-2.4-52.6
					C-2093.9-1188.8-2095.7-1190.5-2097.8-1190.5L-2097.8-1190.5z"/>
			</g>
			<text transform="matrix(0.999 -4.543000e-02 4.543000e-02 0.999 -2217.5015 -1163.9248)"><tspan x="0" y="0" class="st12" style="font-family:'3ds-Regular'; font-size:14px;">Discover our</tspan><tspan x="-28.3" y="21.6" class="st12" style="font-family:'3ds-SemiBold'; font-size:18px;">R2017x updates</tspan></text>
		</g>
		<g>
			<g class="st11">
				<g>
					<path class="st13" d="M-2097.8-1187.5c0.5,0,1,0.4,1,1l2.4,52.6c0,0.4-0.2,0.6-0.3,0.7c-0.1,0.1-0.3,0.3-0.7,0.3l-160,7.3
						c-0.5,0-1-0.4-1-1l-2.4-52.6c0-0.5,0.4-1,1-1L-2097.8-1187.5L-2097.8-1187.5 M-2097.8-1190.5c-0.1,0-0.1,0-0.2,0l-159.9,7.3
						c-2.2,0.1-3.9,2-3.8,4.2l2.4,52.6c0.1,2.1,1.9,3.8,4,3.8c0.1,0,0.1,0,0.2,0l159.9-7.3c2.2-0.1,3.9-2,3.8-4.2l-2.4-52.6
						C-2093.9-1188.8-2095.7-1190.5-2097.8-1190.5L-2097.8-1190.5z"/>
				</g>
			</g>
			<text transform="matrix(0.999 -4.543000e-02 4.543000e-02 0.999 -2217.5015 -1163.9248)" class="st11"><tspan x="0" y="0" class="st13" style="font-family:'3ds-Regular'; font-size:14px;">Discover our</tspan><tspan x="-28.3" y="21.6" class="st13" style="font-family:'3ds-SemiBold'; font-size:18px;">R2017x updates</tspan></text>
		</g>
	</g>
	<g id="_x30_2">
		<polygon class="st14" points="-1833.3,-1079.5 -2136.8,-1079.5 -2130.9,-1091.8 -2136.8,-1103.5 -1833.3,-1103.5 -1839.4,-1091.8 
					"/>
		
			<text transform="matrix(1 0 0 1 -2090.8149 -1086.5)" style="display:none;fill:#E87B00; font-family:'3ds-Regular'; font-size:16px;">Discover our R2017x updates</text>
	</g>
	<g>
		<path d="M303.9,315.5v8.5c0,0.3,0,0.7-0.1,1s-0.2,0.6-0.4,0.8c-0.2,0.3-0.4,0.6-0.7,0.8c-0.3,0.3-0.6,0.6-1,0.9l-0.5-0.6
			c0.4-0.3,0.7-0.6,0.9-0.8c0.2-0.3,0.4-0.5,0.6-0.7c0.1-0.2,0.2-0.5,0.3-0.7c0.1-0.2,0.1-0.5,0.1-0.7v-8.5H303.9z"/>
		<path d="M309.4,318c1,0,1.7,0.3,2.2,0.8c0.5,0.5,0.8,1.4,0.8,2.7s-0.3,2.1-0.8,2.7c-0.5,0.5-1.3,0.8-2.2,0.8s-1.7-0.3-2.2-0.8
			c-0.5-0.5-0.8-1.4-0.8-2.7s0.3-2.1,0.8-2.7S308.4,318,309.4,318z M309.4,318.7c-0.3,0-0.6,0-0.9,0.1s-0.5,0.2-0.7,0.4
			c-0.2,0.2-0.3,0.5-0.4,0.8c-0.1,0.4-0.2,0.8-0.2,1.4s0.1,1,0.2,1.4c0.1,0.4,0.2,0.6,0.4,0.8c0.2,0.2,0.4,0.4,0.7,0.4
			c0.3,0.1,0.6,0.1,0.9,0.1c0.3,0,0.6,0,0.9-0.1c0.3-0.1,0.5-0.2,0.7-0.4c0.2-0.2,0.3-0.5,0.4-0.8c0.1-0.4,0.2-0.8,0.2-1.4
			s-0.1-1-0.2-1.4c-0.1-0.4-0.2-0.6-0.4-0.8c-0.2-0.2-0.4-0.4-0.7-0.4C310,318.7,309.7,318.7,309.4,318.7z"/>
		<path d="M314.6,314.6h0.8v3.7c0.3-0.1,0.7-0.1,1-0.2s0.7-0.1,1.1-0.1s0.7,0,1,0.1c0.3,0.1,0.6,0.2,0.9,0.4
			c0.3,0.2,0.5,0.4,0.6,0.7c0.1,0.3,0.2,0.6,0.2,1.1v4.6h-0.8v-4.5c0-0.3-0.1-0.6-0.2-0.8c-0.1-0.2-0.2-0.4-0.4-0.5
			s-0.4-0.2-0.6-0.3c-0.2-0.1-0.5-0.1-0.8-0.1c-0.3,0-0.7,0-1,0.1c-0.4,0.1-0.7,0.1-1,0.2v5.8h-0.8V314.6z"/>
		<path d="M322.8,318.5c0.2-0.1,0.4-0.1,0.6-0.2s0.5-0.1,0.7-0.2s0.5-0.1,0.8-0.1c0.3,0,0.5,0,0.8,0c0.4,0,0.7,0,1,0.1
			c0.3,0.1,0.6,0.2,0.9,0.4c0.3,0.2,0.5,0.4,0.6,0.7c0.1,0.3,0.2,0.6,0.2,1.1v4.6h-0.8v-4.5c0-0.3-0.1-0.6-0.2-0.8
			c-0.1-0.2-0.2-0.4-0.4-0.5s-0.4-0.2-0.6-0.3c-0.2-0.1-0.5-0.1-0.8-0.1c-0.3,0-0.7,0-1,0.1c-0.4,0.1-0.7,0.1-1,0.2v5.8h-0.8V318.5z
			"/>
		<path d="M339.5,316.3c-0.1,0-0.3-0.1-0.4-0.1c-0.2,0-0.4-0.1-0.6-0.1c-0.2,0-0.4,0-0.6-0.1c-0.2,0-0.4,0-0.5,0c-0.3,0-0.6,0-0.8,0
			c-0.3,0-0.5,0.1-0.7,0.2c-0.2,0.1-0.4,0.2-0.5,0.3c-0.1,0.2-0.2,0.4-0.2,0.6c0,0.3,0.1,0.6,0.4,0.8c0.2,0.3,0.5,0.6,0.9,0.8
			s0.8,0.6,1.2,0.8c0.4,0.3,0.8,0.6,1.2,0.9s0.7,0.6,0.9,1c0.2,0.4,0.4,0.7,0.4,1.1c0,0.4-0.1,0.8-0.2,1c-0.2,0.3-0.4,0.5-0.6,0.6
			c-0.3,0.2-0.6,0.3-0.9,0.3s-0.7,0.1-1.2,0.1c-0.6,0-1.1-0.1-1.6-0.2s-1-0.2-1.3-0.3l0.2-0.7c0.3,0.1,0.7,0.2,1.2,0.3
			c0.5,0.1,1,0.1,1.6,0.1c0.6,0,1.1-0.1,1.4-0.3c0.4-0.2,0.6-0.5,0.6-1c0-0.3-0.1-0.7-0.4-1c-0.2-0.3-0.5-0.6-0.9-0.9
			c-0.4-0.3-0.8-0.6-1.2-0.9c-0.4-0.3-0.8-0.6-1.2-0.9c-0.4-0.3-0.7-0.6-0.9-0.9c-0.2-0.3-0.4-0.7-0.4-1c0-0.4,0.1-0.8,0.3-1
			s0.4-0.5,0.7-0.6c0.3-0.1,0.6-0.2,1-0.3c0.4-0.1,0.7-0.1,1.1-0.1c0.4,0,0.9,0,1.3,0.1c0.4,0.1,0.8,0.1,1,0.1L339.5,316.3z"/>
		<path d="M347,321.8l-3.5-5.2v8.2h-0.8v-9.3h1.1l3.6,5.5l3.6-5.5h1.1v9.3h-0.8v-8.2l-3.5,5.2H347z"/>
		<path d="M356.2,315.5v9.3h-0.8v-9.3H356.2z"/>
		<path d="M365.4,315.5v0.7h-3.2v8.6h-0.8v-8.6h-3.2v-0.7H365.4z"/>
		<path d="M368.2,315.5v4.1h5.5v-4.1h0.8v9.3h-0.8v-4.4h-5.5v4.4h-0.8v-9.3H368.2z"/>
		<path d="M215.2,344v-10.6h1.8l3.8,5.7l3.8-5.7h1.8V344h-1.6v-8.4l-3.3,5h-1.3l-3.3-5v8.4H215.2z"/>
		<path d="M229.9,345.6c0.4,0.1,0.8,0.2,1.2,0.2c0.5,0.1,0.9,0.1,1.3,0.1c0.7,0,1.2-0.1,1.5-0.4s0.5-0.7,0.5-1.3v-0.4
			c-0.3,0.1-0.6,0.1-0.9,0.1c-0.3,0-0.6,0.1-0.9,0.1c-0.4,0-0.9,0-1.3-0.1c-0.4-0.1-0.8-0.2-1.1-0.5c-0.3-0.2-0.5-0.5-0.7-0.9
			s-0.3-0.8-0.3-1.3v-4.9h1.6v4.9c0,0.3,0,0.5,0.1,0.7c0.1,0.2,0.2,0.4,0.4,0.5c0.2,0.1,0.3,0.2,0.6,0.3c0.2,0.1,0.4,0.1,0.7,0.1
			c0.3,0,0.6,0,0.9-0.1c0.3,0,0.6-0.1,0.8-0.2v-6.3h1.6v7.7c0,0.6-0.1,1.1-0.2,1.5c-0.2,0.4-0.4,0.7-0.7,1c-0.3,0.2-0.7,0.4-1.1,0.5
			c-0.4,0.1-0.9,0.2-1.5,0.2c-0.5,0-0.9,0-1.4-0.1s-0.9-0.2-1.3-0.3L229.9,345.6z"/>
		<path d="M248.2,343.9c-0.3,0.1-0.6,0.2-1,0.2c-0.4,0.1-0.7,0.1-1.1,0.1c-0.5,0-1-0.1-1.5-0.2c-0.4-0.1-0.8-0.4-1.2-0.7
			s-0.6-0.7-0.8-1.2s-0.3-1.1-0.3-1.9c0-0.8,0.1-1.4,0.3-1.9s0.4-0.9,0.8-1.2c0.3-0.3,0.7-0.5,1.2-0.6c0.5-0.1,1-0.2,1.5-0.2
			c0.3,0,0.7,0,1,0.1c0.3,0,0.6,0.1,0.9,0.1l-0.2,1.2c-0.3-0.1-0.5-0.1-0.8-0.1c-0.3,0-0.6-0.1-0.9-0.1c-0.3,0-0.6,0-0.9,0.1
			c-0.3,0.1-0.5,0.2-0.6,0.4c-0.2,0.2-0.3,0.5-0.4,0.8s-0.1,0.8-0.1,1.4c0,0.5,0,0.9,0.1,1.3c0.1,0.4,0.2,0.6,0.4,0.9
			c0.2,0.2,0.4,0.4,0.6,0.5c0.3,0.1,0.6,0.1,1,0.1c0.3,0,0.6,0,0.9-0.1s0.6-0.1,0.9-0.2L248.2,343.9z"/>
		<path d="M253,344.2c-1.2,0-2.1-0.3-2.7-0.9c-0.6-0.6-0.9-1.7-0.9-3.1c0-1.4,0.3-2.4,0.9-3.1c0.6-0.6,1.5-0.9,2.7-0.9
			c1.2,0,2.1,0.3,2.7,0.9c0.6,0.6,1,1.7,1,3.1c0,1.4-0.3,2.4-1,3.1C255.1,343.8,254.2,344.2,253,344.2z M251.6,342.3
			c0.2,0.2,0.4,0.4,0.6,0.4c0.2,0.1,0.5,0.1,0.8,0.1c0.3,0,0.6,0,0.8-0.1c0.2-0.1,0.4-0.2,0.6-0.4s0.3-0.5,0.4-0.9
			c0.1-0.4,0.1-0.8,0.1-1.4c0-0.5,0-1-0.1-1.4c-0.1-0.4-0.2-0.6-0.4-0.9s-0.4-0.4-0.6-0.4c-0.2-0.1-0.5-0.1-0.8-0.1
			c-0.3,0-0.6,0-0.8,0.1c-0.2,0.1-0.5,0.2-0.6,0.4s-0.3,0.5-0.4,0.9c-0.1,0.4-0.1,0.8-0.1,1.4c0,0.5,0,1,0.1,1.4
			C251.3,341.9,251.4,342.1,251.6,342.3z"/>
		<path d="M258.9,344v-11.7h1.6V344H258.9z"/>
		<path d="M263.2,344v-11.7h1.6V344H263.2z"/>
		<path d="M273.3,343.6c-0.4,0.1-0.9,0.2-1.5,0.4c-0.6,0.1-1.2,0.2-1.8,0.2c-0.4,0-0.9,0-1.2-0.1s-0.7-0.2-1-0.4s-0.5-0.5-0.7-0.8
			s-0.2-0.7-0.2-1.2c0-0.4,0.1-0.8,0.3-1.1c0.2-0.3,0.4-0.5,0.7-0.7c0.3-0.2,0.6-0.3,1-0.4c0.4-0.1,0.8-0.1,1.2-0.1
			c0.3,0,0.6,0,0.9,0c0.3,0,0.5,0.1,0.7,0.1v-0.8c0-0.5-0.2-0.9-0.5-1.1c-0.3-0.2-0.8-0.3-1.3-0.3c-0.4,0-0.7,0-1.1,0.1
			c-0.4,0.1-0.7,0.1-1,0.2l-0.1-1.2c0.3-0.1,0.7-0.1,1.1-0.2c0.4-0.1,0.8-0.1,1.2-0.1c0.4,0,0.9,0,1.3,0.1c0.4,0.1,0.8,0.2,1.1,0.4
			s0.5,0.5,0.7,0.8c0.2,0.3,0.3,0.7,0.3,1.2V343.6z M271.7,340.6c-0.2,0-0.5-0.1-0.7-0.1c-0.3,0-0.5,0-0.8,0c-0.2,0-0.5,0-0.7,0
			s-0.4,0.1-0.5,0.2c-0.2,0.1-0.3,0.2-0.4,0.4c-0.1,0.2-0.1,0.4-0.1,0.6c0,0.5,0.2,0.8,0.5,1c0.3,0.2,0.7,0.3,1.1,0.3
			c0.3,0,0.6,0,0.9-0.1c0.3,0,0.5-0.1,0.7-0.1V340.6z"/>
		<path d="M277.4,336.4c0.3-0.1,0.6-0.1,0.9-0.2c0.3,0,0.6-0.1,0.9-0.1c0.5,0,0.9,0.1,1.4,0.2c0.4,0.1,0.8,0.4,1.1,0.7
			c0.3,0.3,0.6,0.7,0.7,1.2c0.2,0.5,0.3,1.1,0.3,1.9c0,0.8-0.1,1.5-0.3,2c-0.2,0.5-0.5,0.9-0.8,1.3c-0.3,0.3-0.7,0.5-1.2,0.7
			c-0.4,0.1-0.9,0.2-1.4,0.2c-0.3,0-0.5,0-0.8,0c-0.3,0-0.6-0.1-0.9-0.1s-0.6-0.1-0.9-0.1c-0.3-0.1-0.5-0.1-0.8-0.2v-11.4h1.6V336.4
			z M277.4,342.8c0.3,0.1,0.6,0.1,0.8,0.1c0.3,0,0.6,0.1,0.8,0.1c0.3,0,0.6,0,0.8-0.1s0.5-0.2,0.6-0.4s0.3-0.5,0.4-0.9
			c0.1-0.4,0.1-0.8,0.1-1.4c0-0.5,0-1-0.1-1.3c-0.1-0.3-0.2-0.6-0.4-0.8c-0.2-0.2-0.4-0.4-0.6-0.4c-0.2-0.1-0.5-0.1-0.8-0.1
			c-0.3,0-0.6,0-0.9,0.1s-0.6,0.1-0.9,0.2V342.8z"/>
		<path d="M288,344.2c-1.2,0-2.1-0.3-2.7-0.9c-0.6-0.6-0.9-1.7-0.9-3.1c0-1.4,0.3-2.4,0.9-3.1c0.6-0.6,1.5-0.9,2.7-0.9
			c1.2,0,2.1,0.3,2.7,0.9c0.6,0.6,1,1.7,1,3.1c0,1.4-0.3,2.4-1,3.1C290.1,343.8,289.2,344.2,288,344.2z M286.6,342.3
			c0.2,0.2,0.4,0.4,0.6,0.4c0.2,0.1,0.5,0.1,0.8,0.1c0.3,0,0.6,0,0.8-0.1c0.2-0.1,0.4-0.2,0.6-0.4s0.3-0.5,0.4-0.9
			c0.1-0.4,0.1-0.8,0.1-1.4c0-0.5,0-1-0.1-1.4c-0.1-0.4-0.2-0.6-0.4-0.9s-0.4-0.4-0.6-0.4c-0.2-0.1-0.5-0.1-0.8-0.1
			c-0.3,0-0.6,0-0.8,0.1c-0.2,0.1-0.5,0.2-0.6,0.4s-0.3,0.5-0.4,0.9c-0.1,0.4-0.1,0.8-0.1,1.4c0,0.5,0,1,0.1,1.4
			C286.3,341.9,286.4,342.1,286.6,342.3z"/>
		<path d="M293.8,344v-7.3c0.7-0.2,1.3-0.3,2-0.4c0.7-0.1,1.4-0.1,2.2-0.1v1.3c-0.1,0-0.2,0-0.4,0s-0.3,0-0.4,0c-0.3,0-0.7,0-1,0.1
			c-0.3,0-0.6,0.1-0.8,0.2v6.4H293.8z"/>
		<path d="M305.3,343.6c-0.4,0.1-0.9,0.2-1.5,0.4c-0.6,0.1-1.2,0.2-1.8,0.2c-0.4,0-0.9,0-1.2-0.1c-0.4-0.1-0.7-0.2-1-0.4
			c-0.3-0.2-0.5-0.5-0.7-0.8c-0.2-0.3-0.2-0.7-0.2-1.2c0-0.4,0.1-0.8,0.3-1.1s0.4-0.5,0.7-0.7s0.6-0.3,1-0.4s0.8-0.1,1.2-0.1
			c0.3,0,0.6,0,0.9,0c0.3,0,0.5,0.1,0.7,0.1v-0.8c0-0.5-0.2-0.9-0.5-1.1c-0.3-0.2-0.8-0.3-1.3-0.3c-0.4,0-0.7,0-1.1,0.1
			s-0.7,0.1-1,0.2l-0.1-1.2c0.3-0.1,0.7-0.1,1.1-0.2c0.4-0.1,0.8-0.1,1.2-0.1c0.4,0,0.9,0,1.3,0.1c0.4,0.1,0.8,0.2,1.1,0.4
			c0.3,0.2,0.5,0.5,0.7,0.8s0.3,0.7,0.3,1.2V343.6z M303.7,340.6c-0.2,0-0.5-0.1-0.7-0.1c-0.3,0-0.5,0-0.8,0c-0.2,0-0.5,0-0.7,0
			s-0.4,0.1-0.5,0.2c-0.2,0.1-0.3,0.2-0.4,0.4c-0.1,0.2-0.1,0.4-0.1,0.6c0,0.5,0.2,0.8,0.5,1c0.3,0.2,0.7,0.3,1.1,0.3
			c0.3,0,0.6,0,0.9-0.1c0.3,0,0.5-0.1,0.7-0.1V340.6z"/>
		<path d="M309.7,342.1c0,0.3,0.1,0.5,0.3,0.6c0.2,0.1,0.4,0.2,0.7,0.2c0.2,0,0.5,0,0.8-0.1c0.3,0,0.5-0.1,0.7-0.2l0,1.2
			c-0.2,0.1-0.5,0.1-0.8,0.2s-0.6,0.1-0.9,0.1c-0.7,0-1.3-0.2-1.7-0.5s-0.7-0.9-0.7-1.6v-4.5h-1.3v-1.2h1.3l0.4-2.2h1.2v2.2h2.2v1.2
			h-2.2V342.1z"/>
		<path d="M314,334.1c-0.2-0.2-0.3-0.4-0.3-0.7c0-0.3,0.1-0.5,0.3-0.7s0.4-0.2,0.8-0.2c0.7,0,1,0.3,1,0.9c0,0.3-0.1,0.5-0.3,0.7
			s-0.4,0.2-0.8,0.2C314.4,334.3,314.2,334.2,314,334.1z M313.9,344v-7.7h1.6v7.7H313.9z"/>
		<path d="M320,344l-3-7.7h1.7l2.3,6.3c0.4-0.8,0.8-1.7,1.2-2.8c0.4-1,0.7-2.2,0.9-3.6h1.5c-0.2,1.4-0.6,2.8-1.1,4
			c-0.5,1.3-1.1,2.5-1.8,3.7H320z"/>
		<path d="M327.3,340.6c0,0.4,0.1,0.7,0.1,1c0.1,0.3,0.2,0.5,0.4,0.7s0.4,0.3,0.8,0.4c0.3,0.1,0.7,0.1,1.2,0.1c0.2,0,0.4,0,0.6,0
			c0.2,0,0.4,0,0.6-0.1c0.2,0,0.4-0.1,0.6-0.1c0.2,0,0.3-0.1,0.4-0.1l0.1,1.2c-0.3,0.1-0.7,0.2-1.1,0.2c-0.4,0.1-0.9,0.1-1.4,0.1
			c-0.6,0-1.2-0.1-1.7-0.2c-0.5-0.1-0.9-0.3-1.3-0.6c-0.4-0.3-0.6-0.7-0.8-1.2s-0.3-1.2-0.3-2c0-0.7,0.1-1.4,0.2-1.9
			c0.2-0.5,0.4-0.9,0.7-1.2s0.7-0.5,1.1-0.7s0.9-0.2,1.5-0.2s1,0.1,1.4,0.2s0.7,0.4,1,0.6s0.5,0.6,0.6,1c0.1,0.4,0.2,0.8,0.2,1.3
			v1.3H327.3z M330.8,339.5c0-1.5-0.5-2.2-1.6-2.2c-0.6,0-1.1,0.2-1.3,0.6c-0.3,0.4-0.4,0.9-0.5,1.7H330.8z"/>
		<path d="M338.5,342.5c0.1,0.1,0.3,0.1,0.5,0.1c0.2,0,0.4,0.1,0.6,0.1c0.2,0,0.4,0.1,0.7,0.1c0.2,0,0.4,0,0.7,0
			c0.5,0,0.9-0.1,1.1-0.2s0.4-0.3,0.4-0.7c0-0.2-0.1-0.5-0.3-0.6s-0.5-0.3-0.8-0.5c-0.3-0.2-0.7-0.3-1-0.5c-0.4-0.2-0.7-0.3-1-0.5
			s-0.6-0.4-0.8-0.7s-0.3-0.6-0.3-1c0-0.4,0.1-0.8,0.3-1s0.4-0.5,0.7-0.6c0.3-0.2,0.7-0.3,1.1-0.3c0.4-0.1,0.9-0.1,1.3-0.1
			c0.4,0,0.8,0,1.2,0.1c0.4,0,0.7,0.1,0.9,0.1l-0.1,1.2c-0.3-0.1-0.6-0.1-0.9-0.1c-0.3,0-0.7-0.1-1.1-0.1c-0.6,0-1,0.1-1.3,0.2
			s-0.5,0.3-0.5,0.7c0,0.2,0.1,0.4,0.3,0.5c0.2,0.2,0.5,0.3,0.8,0.5s0.7,0.3,1,0.5c0.4,0.2,0.7,0.4,1,0.6c0.3,0.2,0.6,0.5,0.8,0.8
			c0.2,0.3,0.3,0.6,0.3,1.1c0,0.4-0.1,0.7-0.2,1c-0.2,0.3-0.4,0.5-0.7,0.6s-0.6,0.3-1,0.4s-0.8,0.1-1.2,0.1c-0.5,0-1,0-1.5-0.1
			s-0.9-0.2-1.2-0.3L338.5,342.5z"/>
		<path d="M346.1,347v-10.3c0.5-0.2,1.1-0.3,1.7-0.4c0.6-0.1,1.2-0.2,1.7-0.2c0.5,0,1,0.1,1.4,0.2c0.4,0.1,0.8,0.4,1.1,0.7
			c0.3,0.3,0.6,0.7,0.8,1.2c0.2,0.5,0.3,1.1,0.3,1.9c0,0.8-0.1,1.5-0.3,2c-0.2,0.5-0.4,0.9-0.8,1.3c-0.3,0.3-0.7,0.5-1.1,0.6
			c-0.4,0.1-0.9,0.2-1.4,0.2c-0.3,0-0.6,0-1-0.1c-0.3,0-0.6-0.1-0.9-0.1v3.1H346.1z M347.7,342.7c0.3,0.1,0.6,0.1,0.9,0.1
			s0.6,0.1,0.9,0.1s0.6,0,0.8-0.1c0.2-0.1,0.4-0.2,0.6-0.4c0.2-0.2,0.3-0.5,0.4-0.9c0.1-0.4,0.1-0.8,0.1-1.4c0-0.6,0-1-0.1-1.4
			c-0.1-0.4-0.2-0.6-0.4-0.8c-0.2-0.2-0.4-0.3-0.6-0.4c-0.2-0.1-0.5-0.1-0.8-0.1c-0.1,0-0.3,0-0.4,0c-0.2,0-0.3,0-0.5,0.1
			s-0.3,0-0.5,0.1c-0.1,0-0.3,0.1-0.4,0.1V342.7z"/>
		<path d="M361,343.6c-0.4,0.1-0.9,0.2-1.5,0.4c-0.6,0.1-1.2,0.2-1.8,0.2c-0.4,0-0.9,0-1.2-0.1c-0.4-0.1-0.7-0.2-1-0.4
			c-0.3-0.2-0.5-0.5-0.7-0.8c-0.2-0.3-0.2-0.7-0.2-1.2c0-0.4,0.1-0.8,0.3-1.1s0.4-0.5,0.7-0.7s0.6-0.3,1-0.4s0.8-0.1,1.2-0.1
			c0.3,0,0.6,0,0.9,0c0.3,0,0.5,0.1,0.7,0.1v-0.8c0-0.5-0.2-0.9-0.5-1.1c-0.3-0.2-0.8-0.3-1.3-0.3c-0.4,0-0.7,0-1.1,0.1
			s-0.7,0.1-1,0.2l-0.1-1.2c0.3-0.1,0.7-0.1,1.1-0.2c0.4-0.1,0.8-0.1,1.2-0.1c0.4,0,0.9,0,1.3,0.1c0.4,0.1,0.8,0.2,1.1,0.4
			c0.3,0.2,0.5,0.5,0.7,0.8s0.3,0.7,0.3,1.2V343.6z M359.4,340.6c-0.2,0-0.5-0.1-0.7-0.1c-0.3,0-0.5,0-0.8,0c-0.2,0-0.5,0-0.7,0
			s-0.4,0.1-0.5,0.2c-0.2,0.1-0.3,0.2-0.4,0.4c-0.1,0.2-0.1,0.4-0.1,0.6c0,0.5,0.2,0.8,0.5,1c0.3,0.2,0.7,0.3,1.1,0.3
			c0.3,0,0.6,0,0.9-0.1c0.3,0,0.5-0.1,0.7-0.1V340.6z"/>
		<path d="M368.7,343.9c-0.3,0.1-0.6,0.2-1,0.2c-0.4,0.1-0.7,0.1-1.1,0.1c-0.5,0-1-0.1-1.5-0.2c-0.4-0.1-0.8-0.4-1.2-0.7
			s-0.6-0.7-0.8-1.2s-0.3-1.1-0.3-1.9c0-0.8,0.1-1.4,0.3-1.9s0.4-0.9,0.8-1.2c0.3-0.3,0.7-0.5,1.2-0.6c0.5-0.1,1-0.2,1.5-0.2
			c0.3,0,0.7,0,1,0.1c0.3,0,0.6,0.1,0.9,0.1l-0.2,1.2c-0.3-0.1-0.5-0.1-0.8-0.1c-0.3,0-0.6-0.1-0.9-0.1c-0.3,0-0.6,0-0.9,0.1
			c-0.3,0.1-0.5,0.2-0.6,0.4c-0.2,0.2-0.3,0.5-0.4,0.8s-0.1,0.8-0.1,1.4c0,0.5,0,0.9,0.1,1.3c0.1,0.4,0.2,0.6,0.4,0.9
			c0.2,0.2,0.4,0.4,0.6,0.5c0.3,0.1,0.6,0.1,1,0.1c0.3,0,0.6,0,0.9-0.1s0.6-0.1,0.9-0.2L368.7,343.9z"/>
		<path d="M371.5,340.6c0,0.4,0.1,0.7,0.1,1c0.1,0.3,0.2,0.5,0.4,0.7c0.2,0.2,0.4,0.3,0.8,0.4s0.7,0.1,1.2,0.1c0.2,0,0.4,0,0.6,0
			c0.2,0,0.4,0,0.6-0.1c0.2,0,0.4-0.1,0.6-0.1c0.2,0,0.3-0.1,0.4-0.1l0.1,1.2c-0.3,0.1-0.7,0.2-1.1,0.2c-0.4,0.1-0.9,0.1-1.4,0.1
			c-0.6,0-1.2-0.1-1.7-0.2s-0.9-0.3-1.3-0.6c-0.4-0.3-0.6-0.7-0.8-1.2c-0.2-0.5-0.3-1.2-0.3-2c0-0.7,0.1-1.4,0.2-1.9
			c0.2-0.5,0.4-0.9,0.7-1.2c0.3-0.3,0.7-0.5,1.1-0.7c0.4-0.1,0.9-0.2,1.5-0.2s1,0.1,1.4,0.2s0.7,0.4,1,0.6c0.3,0.3,0.5,0.6,0.6,1
			c0.1,0.4,0.2,0.8,0.2,1.3v1.3H371.5z M375,339.5c0-1.5-0.5-2.2-1.6-2.2c-0.6,0-1.1,0.2-1.3,0.6s-0.4,0.9-0.5,1.7H375z"/>
		<path d="M394.2,338.1l-4.1,2.5c-0.1,0.1-0.3,0.1-0.4,0.1s-0.3,0-0.4-0.1l-4.1-2.5v-2.3l4.1,2.5c0.1,0.1,0.3,0.1,0.4,0.1
			s0.3,0,0.4-0.1l4.1-2.5V338.1z"/>
	</g>
	<g>
		<path d="M141.9,267.2c-0.1,0.2-0.2,0.5-0.2,1.1l-0.1,0.8c0,0.3,0.3,0.9,1,1.8c0.7,0.9,1.5,1.7,2.6,2.3c-0.3,0.2-0.6,0.5-0.9,1
			c-1.3-0.8-2.4-2-3.3-3.5c-0.8,1.5-1.9,2.7-3.2,3.7c-0.1-0.3-0.4-0.6-0.8-0.9c2.5-1.7,3.7-3.8,3.5-6.3L141.9,267.2z M148.2,278.7
			h-9.3v-4.3h1.1v3.2h8.2V278.7z M147.1,275.7v-9.5h1.1v9.5H147.1z"/>
		<path d="M162.5,273.3h-3.3v5.6h-1.1v-5.6h-3.3v5.6h-1.1v-5.6h-3.3v-1.1h8.6c0.4-2.2,0.6-3.5,0.6-4h-8.1v-1.1h9.4
			c0,0.9-0.3,2.6-0.8,5.1h2.2V273.3z"/>
		<path d="M170.1,272.2h-1.4v-1.4h1.4V272.2z M170.1,278h-1.4v-1.4h1.4V278z"/>
		<path d="M183.4,269.5h-7.1v-1h7.1V269.5z M182.8,271.9c0,0.5-0.3,0.9-0.9,1.3c-0.6,0.4-1.3,0.5-2.1,0.5c-0.8,0-1.5-0.2-2.1-0.5
			s-0.9-0.8-0.9-1.3c0-0.5,0.3-1,0.9-1.3c0.6-0.4,1.3-0.5,2.1-0.5c0.9,0,1.6,0.2,2.1,0.5C182.6,270.9,182.8,271.4,182.8,271.9z
			 M181.6,271.9c0-0.2-0.2-0.4-0.5-0.6c-0.3-0.2-0.7-0.2-1.3-0.2c-0.5,0-0.9,0.1-1.3,0.2c-0.3,0.2-0.5,0.3-0.5,0.6
			c0,0.2,0.2,0.4,0.5,0.6s0.7,0.2,1.3,0.2c0.5,0,1-0.1,1.3-0.2C181.5,272.3,181.6,272.1,181.6,271.9z M181.6,267.8h-3.3v-1.1h3.3
			V267.8z M187.9,278.7h-9.3v-4.3h1.1v3.2h8.2V278.7z M187.9,275.7h-1.1v-2.9H184v-1.1h2.9v-1H184v-1.1h2.9v-3.4h1.1V275.7z"/>
		<path d="M197.6,276c-0.4,0.2-0.7,0.5-1,0.9c-0.5-0.4-1-1-1.7-1.9c-0.6-0.9-1.1-1.6-1.4-2.3c-0.6,1.7-1.6,3.1-2.8,4.3
			c-0.3-0.4-0.7-0.7-1-0.9c1-0.9,1.8-2,2.4-3.3c0.6-1.3,0.9-2.6,0.9-3.8h-2.7V268h6.6v1.1h-2.8l-0.3,2.1c0,0.3,0.4,0.9,1.1,2.1
			C195.9,274.4,196.7,275.3,197.6,276z M201.9,279h-1.1v-6h-1.7v5.2H198V267h1.1v5h1.7v-5.7h1.1V279z"/>
		<path d="M215.4,269.3h-7.3v-1h7.3V269.3z M214.8,271.6c0,0.5-0.3,0.9-0.9,1.3c-0.6,0.4-1.3,0.5-2.1,0.5c-0.8,0-1.5-0.2-2.1-0.5
			c-0.6-0.4-0.9-0.8-0.9-1.3c0-0.5,0.3-1,0.9-1.3c0.6-0.4,1.3-0.5,2.1-0.5c0.9,0,1.6,0.2,2.2,0.5
			C214.5,270.6,214.8,271.1,214.8,271.6z M213.5,271.6c0-0.2-0.2-0.4-0.5-0.6c-0.3-0.2-0.8-0.2-1.3-0.2c-0.5,0-1,0.1-1.3,0.2
			s-0.5,0.3-0.5,0.6c0,0.3,0.2,0.5,0.5,0.6s0.8,0.2,1.3,0.2c0.5,0,1-0.1,1.3-0.2C213.4,272.1,213.5,271.9,213.5,271.6z M213.4,267.8
			h-3.3v-1h3.3V267.8z M218.7,278.9v-0.5h-6.9v0.5h-1.1v-4.8h1.1v1.3h6.9v-1.3h1.1v4.8H218.7z M211.8,276.4v0.9h6.9v-0.9H211.8z
			 M219.8,273.7h-1.1v-1.8h-2.8v-1.1h2.8V270h-2.8v-1.1h2.8v-2.6h1.1V273.7z"/>
		<path d="M228.7,270.1c0,0.9-0.3,1.6-0.9,2.2c-0.6,0.6-1.4,0.9-2.3,0.9c-1,0-1.8-0.3-2.4-0.8c-0.6-0.6-0.9-1.3-0.9-2.2
			c0-0.8,0.3-1.5,0.9-2.1c0.6-0.6,1.4-0.9,2.3-0.9c1,0,1.7,0.3,2.3,0.9C228.4,268.6,228.7,269.3,228.7,270.1z M227.7,270.1
			c0-0.5-0.2-1-0.6-1.4s-0.9-0.6-1.5-0.6c-0.6,0-1.1,0.2-1.5,0.6c-0.4,0.4-0.6,0.8-0.6,1.4c0,0.5,0.2,1,0.6,1.4
			c0.4,0.4,0.9,0.6,1.5,0.6c0.6,0,1.1-0.2,1.5-0.6C227.5,271.1,227.7,270.7,227.7,270.1z M232.7,278.9v-0.5h-6.9v0.5h-1.1v-4.8h1.1
			v1.3h6.9v-1.3h1.1v4.8H232.7z M225.8,276.4v0.9h6.9v-0.9H225.8z M233.7,273.7h-1.1v-3.2h-2.8v-1.1h2.8v-3.2h1.1V273.7z"/>
		<path d="M246.2,272.1h5.6v1.1h-11.8v-1.1h5.1v-2.4h1.1V272.1z M250.7,276.5c0,0.8-0.4,1.4-1.3,1.8s-2,0.7-3.4,0.7
			c-1.4,0-2.6-0.2-3.5-0.7s-1.3-1.1-1.3-1.8c0-0.8,0.5-1.4,1.4-1.8c0.9-0.5,2.1-0.7,3.4-0.7c1.4,0,2.5,0.2,3.4,0.7
			C250.3,275.1,250.7,275.7,250.7,276.5z M250.5,267.3c0,1-0.2,2.4-0.4,4l-1.1-0.2c0.2-1.1,0.3-2,0.3-2.7h-7.9v-1.1H250.5z
			 M246.1,275.1c-1.1,0-2,0.1-2.7,0.4c-0.7,0.3-1.1,0.6-1.1,1c0,0.4,0.4,0.7,1.1,1c0.8,0.3,1.6,0.4,2.5,0.4c1,0,1.8-0.1,2.5-0.4
			c0.7-0.3,1-0.6,1-1c0-0.4-0.3-0.7-1-1C247.9,275.2,247.1,275.1,246.1,275.1z"/>
		<path d="M254.9,274.4c-0.3-0.4-0.5-0.7-0.7-0.9c1.1-0.4,2.2-1.1,3.1-2.1c0.9-1,1.6-1.9,1.9-2.9h-4.6v-1.1h6
			c-0.3,1.5-0.9,2.9-2,4.2C257.7,272.8,256.4,273.7,254.9,274.4z M263.8,278.7h-8.2v-4.3h1.1v3.2h7.2V278.7z M266.1,271.5h-2.2v4.2
			h-1.1v-9.5h1.1v4.2h2.2V271.5z"/>
		<path d="M284,277.8h-12.3v-1.1h3.6v-2.8h1.2v2.8h2.7v-2.8h1.2v2.8h3.7V277.8z M282.3,273.4h-9v-1.1h2.7l-0.5-3.2h1.2l0.5,3.2h1.4
			l0.5-3.2h1.2l-0.6,3.2h2.6V273.4z M282.2,268.8h-8.7v-1.1h8.7V268.8z"/>
		<path d="M294,276.4c-1.4-1-2.5-2.5-3.4-4.4c-0.8,2-2,3.6-3.6,4.8c-0.4-0.5-0.7-0.8-1-0.9c1.2-0.7,2.1-1.8,2.9-3.2
			c0.7-1.4,1.1-2.7,1.1-3.8c0-0.9,0-1.5-0.1-1.8l1.6,0.2c-0.2,0.4-0.3,0.7-0.4,1.1c-0.1,0.3-0.1,1-0.1,1.9c0,0.1,0.1,0.5,0.4,1
			c0.3,0.5,0.5,1,0.8,1.4c0.2,0.4,0.5,0.7,0.8,1.1c0.3,0.3,0.6,0.6,0.9,0.9c0.3,0.3,0.6,0.5,1,0.8C294.5,275.7,294.2,276,294,276.4z
			 M297.5,279h-1.1v-12.7h1.1V279z"/>
		<path d="M311.2,267.2v5.7h-6.2v-5.7H311.2z M311.2,276.4c0.4,0.4,1.1,0.8,2,1.1c1,0.3,1.8,0.5,2.6,0.5c-0.3,0.3-0.6,0.6-0.7,1
			c-1.8-0.2-3.3-0.8-4.5-1.7c-1.2,0.9-2.7,1.5-4.6,1.7c0-0.2-0.2-0.5-0.6-0.9c2-0.1,3.5-0.7,4.6-1.7h-4.1v-1h9.4v1H311.2z
			 M306,268.3v3.4h4.1v-3.4H306z M312.7,274.9h-4.2v-1h4.2V274.9z M314.4,273.7v-7.4h1v7.4H314.4z"/>
		<path d="M328.8,269.3h-5.6v6.2c1.8,0,3.9-0.2,6.2-0.5v1.1c-2,0.3-4.4,0.5-7.3,0.6v-8.4h6.7V269.3z M333.7,273.2h-2.2v5.8h-1.1
			v-12.7h1.1v5.9h2.2V273.2z"/>
		<path d="M347.5,273.7h-11.8v-1.1h11.8V273.7z M337.2,271.9v-3.1h7.5V268h-7.5v-1.1h8.6v3h-7.5v0.9h7.8v1.1H337.2z M346.1,278.7
			h-8.9v-4.3h1.1v3.2h7.8V278.7z"/>
		<path d="M361.2,269.3h-7.5v-1h7.5V269.3z M360.4,271.6c0,0.5-0.3,0.9-0.9,1.3c-0.6,0.4-1.3,0.5-2.1,0.5c-0.8,0-1.5-0.2-2.1-0.5
			c-0.6-0.4-0.9-0.8-0.9-1.3c0-0.5,0.3-1,0.9-1.3c0.6-0.4,1.3-0.5,2.1-0.5c0.9,0,1.6,0.2,2.1,0.5C360.2,270.6,360.4,271,360.4,271.6
			z M363.7,276.5c0,0.8-0.4,1.4-1.2,1.8c-0.8,0.5-1.8,0.7-3,0.7c-1.3,0-2.3-0.2-3.1-0.7c-0.8-0.4-1.2-1.1-1.2-1.8
			c0-0.7,0.4-1.3,1.2-1.8s1.8-0.7,3-0.7c1.2,0,2.2,0.2,3,0.7C363.3,275.1,363.7,275.7,363.7,276.5z M359.2,271.6
			c0-0.2-0.2-0.4-0.5-0.6c-0.3-0.2-0.7-0.2-1.3-0.2s-1,0.1-1.3,0.2s-0.5,0.3-0.5,0.6c0,0.2,0.2,0.4,0.5,0.6c0.3,0.2,0.7,0.2,1.3,0.2
			c0.5,0,1-0.1,1.3-0.2C359.1,272,359.2,271.8,359.2,271.6z M359.1,267.8h-3.3v-1h3.3V267.8z M362.4,276.5c0-0.4-0.3-0.8-0.8-1.1
			c-0.5-0.3-1.2-0.4-2.1-0.4c-0.9,0-1.6,0.1-2.2,0.4c-0.5,0.3-0.8,0.6-0.8,1c0,0.4,0.3,0.8,0.8,1s1.3,0.4,2.2,0.4
			c0.9,0,1.6-0.1,2.1-0.4C362.2,277.3,362.4,276.9,362.4,276.5z M365.6,270.5h-2.2v3.2h-1.1v-7.4h1.1v3.2h2.2V270.5z"/>
		<path d="M379.4,273.2h-11.8v-1.1h5.4v-1.3h-4v-4h9.1v4h-4v1.3h5.4V273.2z M376.8,278.9v-3.5H369v-1.1h8.9v4.6H376.8z M377,269.7
			V268h-6.9v1.8H377z"/>
		<path d="M390.2,267.4c-0.1,0.2-0.2,0.5-0.3,1c-0.1,0.5-0.1,0.7-0.1,0.7c0,0.2,0.3,0.8,1,1.7c0.7,0.9,1.5,1.6,2.5,2.3
			c-0.4,0.2-0.7,0.4-1,0.9c-1.2-0.8-2.2-1.9-3.1-3.3c-0.6,1.3-1.6,2.5-3.1,3.5c-0.1-0.3-0.4-0.6-0.8-0.9c0.8-0.5,1.5-1,2-1.7
			c0.5-0.6,0.9-1.3,1.2-1.9s0.4-1,0.4-1.3c0-0.3,0-0.7,0-1.2L390.2,267.4z M397.1,278.7h-9.3v-4.3h1.1v3.2h8.2V278.7z M396,275.7
			v-4.5h-3.3v-1.1h3.3v-3.9h1.1v9.4H396z"/>
		<path d="M406.6,272.8c-2.8,0.3-5,0.4-6.6,0.4v-6.1h5.7v1.1h-4.6v1.3h4.3v1.1h-4.3v1.5c1.7,0,3.5-0.2,5.5-0.4V272.8z M410.1,278.9
			v-3.5H402v-1.1h9.1v4.6H410.1z M411.1,273.7H410v-3h-1.7v2.9h-1.1v-6.9h1.1v2.9h1.7v-3.3h1.1V273.7z"/>
		<path d="M418.4,277.6c0,0-0.1-0.2-0.4-0.4c-0.2-0.2-0.4-0.4-0.5-0.5c1.7-0.6,3.1-1.6,4.2-3c1.1-1.4,1.8-2.8,2-4.3h-5.9v-1.1h7.3
			c-0.2,2-0.8,3.8-2,5.5C421.9,275.5,420.3,276.8,418.4,277.6z M429,279h-1.1v-12.7h1.1V279z"/>
		<path d="M443.2,273.1h-11.8V272h11.8V273.1z M442,276.5c0,0.8-0.4,1.4-1.3,1.8s-2,0.7-3.4,0.7c-1.4,0-2.6-0.2-3.5-0.7
			s-1.3-1.1-1.3-1.8c0-0.8,0.5-1.4,1.4-1.8c0.9-0.5,2.1-0.7,3.4-0.7c1.4,0,2.5,0.2,3.4,0.7C441.6,275.1,442,275.7,442,276.5z
			 M432.7,266.8h1.1v2.7h7.9v1.1h-9V266.8z M437.5,275.1c-1.1,0-2,0.1-2.7,0.4c-0.7,0.3-1.1,0.6-1.1,1c0,0.4,0.4,0.7,1.1,1
			c0.8,0.3,1.6,0.4,2.5,0.4c1,0,1.8-0.1,2.5-0.4c0.7-0.3,1-0.6,1-1c0-0.4-0.3-0.7-1-1C439.2,275.2,438.4,275.1,437.5,275.1z"/>
	</g>
	<g>
		<g>
			<path class="st9" d="M398.9,334.1c3.5-5.8,19.4-37.5-51.5-31.5c-67.2,5.6-58.9-18.6-58.9-18.6"/>
			<g>
				<polygon points="404.1,333.2 403.8,332.2 399.1,333.7 397.9,328.9 396.9,329.2 398.3,335 				"/>
			</g>
		</g>
	</g>
	<g id="Layer_3">
	</g>
</g>
<g id="Layer_2">
</g>
</svg>
