<?xml version="1.0" encoding="utf-8"?>
<!-- Generator: Adobe Illustrator 18.1.0, SVG Export Plug-In . SVG Version: 6.00 Build 0)  -->
<svg version="1.1" xmlns="http://www.w3.org/2000/svg" xmlns:xlink="http://www.w3.org/1999/xlink" x="0px" y="0px"
	 viewBox="0 0 560 380" enable-background="new 0 0 560 380" xml:space="preserve">
<symbol  id="ab" viewBox="-251.9 -33.8 504.1 67.6">
	<path fill="#D1D4D4" d="M-61.5,14.7h-75.7v15.1c0,0.5,0.5,1,1,1h74.7V14.7z"/>
	<g>
		<path d="M-123.2,21.6l1.3,0.2c0-0.3,0.2-0.6,0.3-0.8c0.2-0.2,0.4-0.3,0.7-0.3c0.3,0,0.5,0.1,0.7,0.3s0.3,0.5,0.3,0.9
			c0,0.3-0.1,0.6-0.3,0.8c-0.2,0.2-0.4,0.3-0.7,0.3c-0.2,0-0.4,0-0.6-0.1l0.2,1.1c0.4,0,0.7,0.1,0.8,0.2s0.3,0.4,0.3,0.7
			c0,0.2-0.1,0.4-0.2,0.6c-0.1,0.1-0.3,0.2-0.6,0.2c-0.2,0-0.4-0.1-0.6-0.2c-0.2-0.2-0.3-0.4-0.3-0.7l-1.3,0.2
			c0.1,0.4,0.2,0.8,0.4,1s0.4,0.5,0.7,0.6s0.7,0.2,1.1,0.2c0.7,0,1.2-0.2,1.6-0.6c0.3-0.4,0.5-0.7,0.5-1.2c0-0.6-0.3-1.1-1-1.5
			c0.4-0.1,0.7-0.3,1-0.6c0.2-0.3,0.4-0.7,0.4-1.1c0-0.6-0.2-1.2-0.7-1.6c-0.5-0.4-1-0.7-1.7-0.7c-0.6,0-1.2,0.2-1.6,0.6
			S-123.1,21-123.2,21.6z"/>
		<path d="M-117.3,26.9h2.6c0.6,0,1,0,1.4-0.1c0.4-0.1,0.8-0.3,1.1-0.7c0.3-0.3,0.5-0.7,0.7-1.2s0.2-1,0.2-1.7
			c0-0.6-0.1-1.1-0.2-1.5c-0.2-0.5-0.4-0.9-0.8-1.3c-0.3-0.2-0.6-0.4-1-0.6c-0.3-0.1-0.7-0.2-1.3-0.2h-2.7V26.9z M-115.8,25.7V21
			h1.1c0.4,0,0.7,0,0.9,0.1c0.2,0.1,0.4,0.2,0.6,0.3c0.2,0.1,0.3,0.4,0.4,0.7s0.1,0.8,0.1,1.3c0,0.6,0,1-0.1,1.3
			c-0.1,0.3-0.2,0.5-0.4,0.7s-0.4,0.3-0.7,0.3c-0.2,0-0.6,0.1-1.2,0.1H-115.8z"/>
		<path d="M-107.6,22.1l1.4,0.1c0.1-0.5,0.3-0.8,0.5-1c0.3-0.2,0.6-0.3,1-0.3c0.5,0,0.8,0.1,1.1,0.3s0.4,0.4,0.4,0.7
			c0,0.2,0,0.3-0.1,0.4s-0.3,0.2-0.5,0.3c-0.2,0.1-0.6,0.2-1.2,0.3c-0.8,0.2-1.3,0.4-1.6,0.7c-0.4,0.4-0.7,0.9-0.7,1.4
			c0,0.4,0.1,0.7,0.3,1s0.5,0.6,0.9,0.7s0.9,0.2,1.4,0.2c0.9,0,1.6-0.2,2-0.6c0.5-0.4,0.7-0.9,0.7-1.6l-1.4-0.1
			c-0.1,0.4-0.2,0.6-0.4,0.8s-0.5,0.2-0.9,0.2c-0.4,0-0.7-0.1-1-0.3c-0.2-0.1-0.2-0.3-0.2-0.4c0-0.2,0.1-0.3,0.2-0.4
			c0.2-0.2,0.6-0.3,1.3-0.5s1.2-0.3,1.6-0.5s0.6-0.4,0.8-0.7s0.3-0.7,0.3-1.1c0-0.4-0.1-0.8-0.3-1.2c-0.2-0.4-0.6-0.6-1-0.8
			s-0.9-0.3-1.6-0.3c-0.9,0-1.6,0.2-2.1,0.6S-107.5,21.3-107.6,22.1z"/>
		<path d="M-99.2,26.9v-2.6c0.4,0.5,1,0.8,1.6,0.8c0.3,0,0.6-0.1,0.9-0.2s0.4-0.3,0.6-0.4c0.1-0.2,0.2-0.4,0.3-0.6
			c0-0.2,0.1-0.6,0.1-1v-3h-1.4v2.7c0,0.5,0,0.9-0.1,1s-0.1,0.3-0.3,0.3s-0.3,0.1-0.5,0.1c-0.2,0-0.4-0.1-0.6-0.2
			c-0.2-0.1-0.3-0.3-0.4-0.5s-0.1-0.6-0.1-1v-2.6h-1.4v7.2H-99.2z"/>
		<path d="M-93.5,23.4l-1.2,0.2c0.1,0.5,0.4,0.9,0.7,1.1c0.3,0.2,0.8,0.4,1.5,0.4c0.6,0,1.1-0.1,1.4-0.2s0.5-0.3,0.6-0.6
			s0.2-0.6,0.2-1.2l0-1.6c0-0.5,0-0.8,0.1-1s0.1-0.4,0.2-0.7h-1.4c0,0.1-0.1,0.2-0.1,0.4c0,0.1,0,0.1,0,0.2
			c-0.2-0.2-0.5-0.4-0.8-0.5c-0.3-0.1-0.6-0.2-0.9-0.2c-0.5,0-1,0.1-1.3,0.4c-0.3,0.3-0.5,0.7-0.5,1.1c0,0.3,0.1,0.6,0.2,0.8
			s0.3,0.4,0.6,0.5s0.6,0.2,1.1,0.3c0.6,0.1,1.1,0.2,1.3,0.3v0.1c0,0.3-0.1,0.5-0.2,0.6s-0.4,0.2-0.7,0.2c-0.2,0-0.4,0-0.6-0.1
			S-93.4,23.6-93.5,23.4z M-91.6,22.2c-0.2-0.1-0.5-0.1-0.8-0.2c-0.4-0.1-0.6-0.2-0.7-0.2c-0.2-0.1-0.3-0.3-0.3-0.5
			c0-0.2,0.1-0.4,0.2-0.5c0.1-0.1,0.3-0.2,0.5-0.2c0.2,0,0.5,0.1,0.7,0.2c0.2,0.1,0.3,0.3,0.3,0.5c0,0.1,0.1,0.3,0.1,0.7V22.2z"/>
		<path d="M-89,24.9h1.3v-0.8c0.2,0.3,0.4,0.5,0.7,0.6c0.3,0.2,0.6,0.2,0.9,0.2c0.6,0,1.1-0.2,1.5-0.7c0.4-0.5,0.6-1.1,0.6-2
			c0-0.9-0.2-1.5-0.6-2s-0.9-0.7-1.5-0.7c-0.3,0-0.5,0.1-0.8,0.2c-0.2,0.1-0.5,0.3-0.7,0.6v-2.6H-89V24.9z M-87.6,22.4
			c0-0.6,0.1-1,0.3-1.3s0.5-0.4,0.8-0.4c0.3,0,0.6,0.1,0.8,0.4s0.3,0.7,0.3,1.3c0,0.5-0.1,0.9-0.3,1.2s-0.5,0.4-0.8,0.4
			c-0.3,0-0.6-0.1-0.8-0.4S-87.6,22.9-87.6,22.4z"/>
		<path d="M-79.8,21.4l1.4-0.2c-0.2-0.5-0.5-0.9-0.8-1.1s-0.9-0.4-1.4-0.4c-0.9,0-1.6,0.3-2,0.9c-0.3,0.5-0.5,1.1-0.5,1.8
			c0,0.9,0.2,1.5,0.7,2s1,0.7,1.7,0.7c0.8,0,1.4-0.3,1.8-0.8s0.7-1.3,0.6-2.3h-3.4c0-0.4,0.1-0.7,0.3-1s0.5-0.3,0.8-0.3
			c0.2,0,0.4,0.1,0.5,0.2S-79.9,21.1-79.8,21.4z M-79.7,22.8c0,0.4-0.1,0.7-0.3,0.9s-0.4,0.3-0.7,0.3c-0.3,0-0.5-0.1-0.7-0.3
			c-0.2-0.2-0.3-0.5-0.3-0.9H-79.7z"/>
		<path d="M-77.7,21.2l1.4,0.2c0.1-0.3,0.2-0.5,0.4-0.6s0.4-0.2,0.8-0.2c0.4,0,0.6,0.1,0.8,0.2c0.1,0.1,0.2,0.2,0.2,0.4
			c0,0.1,0,0.2-0.1,0.3c-0.1,0.1-0.2,0.1-0.5,0.2c-1.1,0.2-1.8,0.5-2.1,0.7c-0.4,0.3-0.6,0.7-0.6,1.2c0,0.4,0.2,0.8,0.5,1.1
			c0.4,0.3,0.9,0.5,1.7,0.5c0.7,0,1.2-0.1,1.6-0.3c0.3-0.2,0.6-0.6,0.7-1l-1.3-0.2c-0.1,0.2-0.2,0.4-0.3,0.5s-0.4,0.2-0.7,0.2
			c-0.4,0-0.6-0.1-0.8-0.2c-0.1-0.1-0.2-0.2-0.2-0.3c0-0.1,0-0.2,0.1-0.3c0.1-0.1,0.6-0.2,1.3-0.4s1.2-0.4,1.5-0.6
			c0.3-0.2,0.4-0.6,0.4-1c0-0.5-0.2-0.9-0.6-1.2s-1-0.5-1.8-0.5c-0.7,0-1.3,0.1-1.7,0.4C-77.3,20.3-77.6,20.7-77.7,21.2z"/>
	</g>
	<g>
		<path d="M-49.3,19.5v7.2h1.4l1.7-5.1c0.2-0.5,0.3-0.8,0.3-1.1c0.1,0.3,0.2,0.6,0.4,1.1l1.7,5h1.3v-7.2h-0.9v6l-2.1-6h-0.9
			l-2.1,6.1v-6.1H-49.3z"/>
		<path d="M-37.7,20.1c-0.3-0.3-0.6-0.5-0.9-0.6c-0.3-0.1-0.6-0.2-1-0.2c-0.6,0-1,0.1-1.3,0.4s-0.5,0.6-0.5,1.1
			c0,0.3,0.1,0.5,0.2,0.7s0.3,0.4,0.5,0.5s0.4,0.2,0.6,0.3c0.2,0,0.4,0.1,0.8,0.1c0.7,0.1,1.2,0.2,1.6,0.3c0,0.1,0,0.2,0,0.2
			c0,0.4-0.1,0.6-0.2,0.8c-0.2,0.2-0.6,0.3-1,0.3c-0.4,0-0.7-0.1-0.9-0.2s-0.3-0.4-0.4-0.8l-0.9,0.1c0.1,0.4,0.2,0.7,0.4,0.9
			s0.4,0.4,0.8,0.5s0.7,0.2,1.2,0.2c0.4,0,0.8-0.1,1.1-0.2c0.3-0.1,0.5-0.2,0.6-0.4s0.2-0.4,0.3-0.6c0-0.1,0-0.4,0-0.8v-1.2
			c0-0.8,0-1.3,0.1-1.5s0.1-0.4,0.2-0.6h-0.9C-37.6,19.7-37.7,19.9-37.7,20.1z M-37.8,22.1c-0.3-0.1-0.8-0.2-1.4-0.3
			c-0.4-0.1-0.6-0.1-0.8-0.2c-0.1-0.1-0.3-0.2-0.3-0.3s-0.1-0.3-0.1-0.4c0-0.2,0.1-0.4,0.3-0.6s0.4-0.2,0.8-0.2
			c0.3,0,0.6,0.1,0.9,0.2s0.5,0.4,0.6,0.6c0.1,0.2,0.1,0.5,0.1,0.9V22.1z"/>
		<path d="M-33.6,20.3l0.1-0.8c-0.2-0.1-0.5-0.1-0.7-0.1c-0.3,0-0.6,0-0.7,0.2c-0.2,0.1-0.3,0.2-0.4,0.4s-0.1,0.5-0.1,1v3H-36v0.7
			h0.6V26l0.9,0.5v-1.8h0.9V24h-0.9v-3c0-0.3,0-0.4,0-0.5c0-0.1,0.1-0.1,0.2-0.2c0.1,0,0.2-0.1,0.3-0.1
			C-33.9,20.3-33.8,20.3-33.6,20.3z"/>
		<path d="M-29.2,21.2l0.9-0.1c-0.1-0.5-0.4-0.9-0.8-1.2s-0.9-0.4-1.5-0.4c-0.8,0-1.4,0.2-1.8,0.7s-0.7,1.1-0.7,2
			c0,0.9,0.2,1.5,0.7,2c0.4,0.5,1,0.7,1.7,0.7c0.7,0,1.3-0.2,1.7-0.7c0.4-0.5,0.7-1.1,0.7-2c0-0.1,0-0.1,0-0.2h-3.9
			c0-0.6,0.2-1,0.5-1.3s0.7-0.5,1.1-0.5c0.3,0,0.6,0.1,0.8,0.3C-29.5,20.5-29.3,20.8-29.2,21.2z M-32.1,22.6h2.9
			c0,0.4-0.1,0.8-0.3,1c-0.3,0.3-0.6,0.5-1.1,0.5c-0.4,0-0.7-0.1-1-0.4C-31.9,23.4-32.1,23-32.1,22.6z"/>
		<path d="M-27.2,19.5v5.2h0.8v-0.8c0.2,0.4,0.4,0.6,0.6,0.7s0.4,0.2,0.6,0.2c0.3,0,0.6-0.1,0.9-0.3l-0.3-0.8
			c-0.2,0.1-0.4,0.2-0.6,0.2c-0.2,0-0.4-0.1-0.5-0.2s-0.3-0.3-0.3-0.5c-0.1-0.3-0.1-0.7-0.1-1v-2.7H-27.2z"/>
		<path d="M-23.9,25.6v1h0.9v-1H-23.9z M-23.9,19.5v5.2h0.9v-5.2H-23.9z"/>
		<path d="M-18.3,20.1c-0.3-0.3-0.6-0.5-0.9-0.6c-0.3-0.1-0.6-0.2-1-0.2c-0.6,0-1,0.1-1.3,0.4s-0.5,0.6-0.5,1.1
			c0,0.3,0.1,0.5,0.2,0.7s0.3,0.4,0.5,0.5s0.4,0.2,0.6,0.3c0.2,0,0.4,0.1,0.8,0.1c0.7,0.1,1.2,0.2,1.6,0.3c0,0.1,0,0.2,0,0.2
			c0,0.4-0.1,0.6-0.2,0.8c-0.2,0.2-0.6,0.3-1,0.3c-0.4,0-0.7-0.1-0.9-0.2s-0.3-0.4-0.4-0.8l-0.9,0.1c0.1,0.4,0.2,0.7,0.4,0.9
			s0.4,0.4,0.8,0.5s0.7,0.2,1.2,0.2c0.4,0,0.8-0.1,1.1-0.2c0.3-0.1,0.5-0.2,0.6-0.4s0.2-0.4,0.3-0.6c0-0.1,0-0.4,0-0.8v-1.2
			c0-0.8,0-1.3,0.1-1.5s0.1-0.4,0.2-0.6h-0.9C-18.2,19.7-18.2,19.9-18.3,20.1z M-18.3,22.1c-0.3-0.1-0.8-0.2-1.4-0.3
			c-0.4-0.1-0.6-0.1-0.8-0.2c-0.1-0.1-0.3-0.2-0.3-0.3S-21,21-21,20.9c0-0.2,0.1-0.4,0.3-0.6s0.4-0.2,0.8-0.2c0.3,0,0.6,0.1,0.9,0.2
			s0.5,0.4,0.6,0.6c0.1,0.2,0.1,0.5,0.1,0.9V22.1z"/>
		<path d="M-16.1,19.5v7.2h0.9v-7.2H-16.1z"/>
		<path d="M-14.2,21l0.9,0.1c0-0.3,0.2-0.6,0.4-0.8s0.5-0.3,0.9-0.3c0.4,0,0.7,0.1,0.9,0.2s0.3,0.4,0.3,0.6c0,0.2-0.1,0.4-0.3,0.5
			c-0.1,0.1-0.4,0.2-0.9,0.3c-0.6,0.2-1.1,0.3-1.3,0.4s-0.4,0.3-0.6,0.5s-0.2,0.4-0.2,0.7c0,0.2,0.1,0.4,0.2,0.6s0.3,0.4,0.4,0.5
			c0.1,0.1,0.3,0.2,0.6,0.3s0.5,0.1,0.8,0.1c0.4,0,0.8-0.1,1.1-0.2s0.5-0.3,0.7-0.5s0.2-0.5,0.3-0.8l-0.9-0.1c0,0.3-0.2,0.5-0.3,0.6
			c-0.2,0.1-0.5,0.2-0.8,0.2c-0.4,0-0.7-0.1-0.9-0.2c-0.2-0.1-0.3-0.3-0.3-0.5c0-0.1,0-0.2,0.1-0.3c0.1-0.1,0.2-0.2,0.3-0.2
			c0.1,0,0.3-0.1,0.8-0.2c0.6-0.2,1.1-0.3,1.3-0.4s0.4-0.3,0.6-0.5c0.1-0.2,0.2-0.5,0.2-0.8c0-0.3-0.1-0.6-0.3-0.8s-0.4-0.5-0.7-0.6
			s-0.7-0.2-1.1-0.2c-0.7,0-1.2,0.1-1.5,0.4C-13.9,20.1-14.1,20.5-14.2,21z"/>
	</g>
	<g>
		<path d="M30.4,19.5l-2.8,7.2h1l1.9-5.2c0.1-0.4,0.3-0.8,0.4-1.2c0.1,0.4,0.2,0.8,0.4,1.2l1.9,5.2h1l-2.8-7.2H30.4z"/>
		<path d="M34.8,25.6v1h0.9v-1H34.8z M34.8,19.5v5.2h0.9v-5.2H34.8z"/>
		<path d="M40.5,21.2l0.9-0.1c-0.1-0.5-0.4-0.9-0.8-1.2s-0.9-0.4-1.5-0.4c-0.8,0-1.4,0.2-1.8,0.7s-0.7,1.1-0.7,2
			c0,0.9,0.2,1.5,0.7,2c0.4,0.5,1,0.7,1.7,0.7c0.7,0,1.3-0.2,1.7-0.7c0.4-0.5,0.7-1.1,0.7-2c0-0.1,0-0.1,0-0.2h-3.9
			c0-0.6,0.2-1,0.5-1.3s0.7-0.5,1.1-0.5c0.3,0,0.6,0.1,0.8,0.3C40.2,20.5,40.4,20.8,40.5,21.2z M37.7,22.6h2.9c0,0.4-0.1,0.8-0.3,1
			c-0.3,0.3-0.6,0.5-1.1,0.5c-0.4,0-0.7-0.1-1-0.4C37.8,23.4,37.7,23,37.7,22.6z"/>
		<path d="M43.5,19.5l-1.6,5.2h0.9l0.8-3l0.3-1.1c0,0.1,0.1,0.4,0.3,1.1l0.8,3H46l0.8-3l0.3-1l0.3,1l0.9,3H49l-1.6-5.2h-0.9
			l-0.8,3.1l-0.2,0.9l-1-4H43.5z"/>
	</g>
	<g>
		<path d="M87.8,19.5v7.2h0.9v-6.3h3.5v-0.8H87.8z"/>
		<path d="M93.3,25.6v1h0.9v-1H93.3z M93.3,19.5v5.2h0.9v-5.2H93.3z"/>
		<path d="M95.7,19.5V24H95v0.7h0.8v0.6c0,0.3,0,0.6,0.1,0.8c0.1,0.2,0.2,0.4,0.4,0.6s0.5,0.2,0.9,0.2c0.2,0,0.5,0,0.8-0.1l-0.1-0.8
			c-0.2,0-0.4,0-0.5,0c-0.3,0-0.5-0.1-0.6-0.2c-0.1-0.1-0.2-0.3-0.2-0.6v-0.5h1V24h-1v-4.5H95.7z"/>
		<path d="M101.9,21.2l0.9-0.1c-0.1-0.5-0.4-0.9-0.8-1.2s-0.9-0.4-1.5-0.4c-0.8,0-1.4,0.2-1.8,0.7S98,21.2,98,22
			c0,0.9,0.2,1.5,0.7,2c0.4,0.5,1,0.7,1.7,0.7c0.7,0,1.3-0.2,1.7-0.7c0.4-0.5,0.7-1.1,0.7-2c0-0.1,0-0.1,0-0.2h-3.9
			c0-0.6,0.2-1,0.5-1.3s0.7-0.5,1.1-0.5c0.3,0,0.6,0.1,0.8,0.3C101.5,20.5,101.7,20.8,101.9,21.2z M99,22.6h2.9c0,0.4-0.1,0.8-0.3,1
			c-0.3,0.3-0.6,0.5-1.1,0.5c-0.4,0-0.7-0.1-1-0.4C99.2,23.4,99,23,99,22.6z"/>
		<path d="M107.3,21.4l0.9-0.1c-0.1-0.6-0.3-1.1-0.7-1.4s-0.9-0.5-1.4-0.5c-0.7,0-1.3,0.2-1.7,0.7s-0.6,1.1-0.6,2
			c0,0.6,0.1,1.1,0.3,1.5s0.5,0.7,0.8,0.9s0.8,0.3,1.2,0.3c0.6,0,1-0.1,1.4-0.4s0.6-0.7,0.7-1.2l-0.9-0.1c-0.1,0.3-0.2,0.6-0.4,0.8
			s-0.5,0.3-0.7,0.3c-0.4,0-0.8-0.2-1.1-0.5s-0.4-0.8-0.4-1.5c0-0.7,0.1-1.2,0.4-1.5c0.3-0.3,0.6-0.5,1-0.5c0.3,0,0.6,0.1,0.9,0.3
			C107,20.6,107.2,21,107.3,21.4z"/>
		<path d="M108.8,17.5l-0.1,0.8c0.2-0.1,0.4-0.1,0.5-0.1c0.2,0,0.4,0,0.5,0.1c0.1,0.1,0.2,0.2,0.3,0.3c0.1,0.1,0.1,0.3,0.3,0.7
			c0,0,0,0.1,0.1,0.2l-2,5.2h0.9l1.1-3c0.1-0.4,0.3-0.8,0.4-1.2c0.1,0.4,0.2,0.8,0.4,1.2l1.1,3h0.9l-2-5.3c-0.2-0.6-0.4-1-0.5-1.2
			c-0.2-0.3-0.3-0.5-0.5-0.6s-0.4-0.2-0.7-0.2C109.2,17.4,109,17.4,108.8,17.5z"/>
		<path d="M117.3,21.4l0.9-0.1c-0.1-0.6-0.3-1.1-0.7-1.4s-0.9-0.5-1.4-0.5c-0.7,0-1.3,0.2-1.7,0.7s-0.6,1.1-0.6,2
			c0,0.6,0.1,1.1,0.3,1.5s0.5,0.7,0.8,0.9s0.8,0.3,1.2,0.3c0.6,0,1-0.1,1.4-0.4s0.6-0.7,0.7-1.2l-0.9-0.1c-0.1,0.3-0.2,0.6-0.4,0.8
			s-0.5,0.3-0.7,0.3c-0.4,0-0.8-0.2-1.1-0.5s-0.4-0.8-0.4-1.5c0-0.7,0.1-1.2,0.4-1.5c0.3-0.3,0.6-0.5,1-0.5c0.3,0,0.6,0.1,0.9,0.3
			C117,20.6,117.2,21,117.3,21.4z"/>
		<path d="M118.8,19.5v7.2h0.9v-7.2H118.8z"/>
		<path d="M124.6,21.2l0.9-0.1c-0.1-0.5-0.4-0.9-0.8-1.2s-0.9-0.4-1.5-0.4c-0.8,0-1.4,0.2-1.8,0.7s-0.7,1.1-0.7,2
			c0,0.9,0.2,1.5,0.7,2c0.4,0.5,1,0.7,1.7,0.7c0.7,0,1.3-0.2,1.7-0.7c0.4-0.5,0.7-1.1,0.7-2c0-0.1,0-0.1,0-0.2h-3.9
			c0-0.6,0.2-1,0.5-1.3s0.7-0.5,1.1-0.5c0.3,0,0.6,0.1,0.8,0.3C124.3,20.5,124.5,20.8,124.6,21.2z M121.8,22.6h2.9
			c0,0.4-0.1,0.8-0.3,1c-0.3,0.3-0.6,0.5-1.1,0.5c-0.4,0-0.7-0.1-1-0.4C121.9,23.4,121.8,23,121.8,22.6z"/>
	</g>
	<g>
		<g>
			<g>
				<g>
					<g>
						<path fill="#202020" d="M251.3-31c0-0.6,0.1-0.3,0.1,1.3l-0.2,1.1L251.3-31z"/>
						<path fill="#202020" d="M251.6-20.3c-0.1,1.9-0.2,4-0.4,2.8c0.2-1.8,0.1-2.3,0.3-4.3c0-1.6-0.1-2.8-0.1-2.5
							c0-0.6,0-2.5,0.1-3.3c0.1,2.1,0.1,4.7,0,7.4C251.6-19.6,251.6-20.2,251.6-20.3z"/>
						<path fill="#202020" d="M128.9,13.2l1,0C129.6,13.2,129.3,13.2,128.9,13.2z"/>
						<path fill="#202020" d="M32.7,13.3c0.7,0,1,0,1.1,0C33.1,13.3,32.6,13.3,32.7,13.3z"/>
						<path fill="#202020" d="M16.3,13.5c0.4,0,0.6,0,1,0C16.9,13.5,16.5,13.5,16.3,13.5z"/>
						<path fill="#202020" d="M128.9,13.2l-2.6,0.1C126.2,13.2,127.7,13.2,128.9,13.2z"/>
						<path fill="#202020" d="M251.2,1.1c0-0.5,0-1,0-1.4C251.3,0.1,251.3,0.6,251.2,1.1C251.3,1,251.3,1,251.2,1.1z"/>
						<path fill="#202020" d="M171.3,13.4l0.8,0c0.2,0,0.4,0,0.6,0.1L171.3,13.4z"/>
						<path fill="#202020" d="M203.8,13.4c-0.7,0-1-0.1-1.3-0.2c0.4,0.1,1,0.1,1.6,0.1C204.2,13.3,204.1,13.4,203.8,13.4z"/>
						<path fill="#202020" d="M251.8,8.4l0-0.9C251.8,7.7,251.8,8.1,251.8,8.4z"/>
						<path fill="#202020" d="M148,13.4c-0.1,0-0.2,0-0.3,0.1C147.7,13.4,147.8,13.4,148,13.4z"/>
						<path fill="#202020" d="M215.1-32.3C215.1-32.4,215.1-32.4,215.1-32.3C215.3-32.4,215.3-32.3,215.1-32.3z"/>
						<path fill="#202020" d="M251.7-31c0,0,0-0.5-0.1-0.5c0-0.1,0-0.1,0-0.1C251.7-31.7,251.7-31,251.7-31z"/>
						<path fill="#202020" d="M-13.7,13.7c0.1,0,0.1,0,0.1,0C-12.8,13.7-13.3,13.7-13.7,13.7z"/>
						<path fill="#202020" d="M-251.9-26.1c0.1,3.1,0.2-5.1,0.3-0.4C-251.7-27-251.8-22.2-251.9-26.1z"/>
						<path fill="#202020" d="M251.3,1.9c0,0.4,0,0.9,0,1.3C251.3,2.7,251.3,2.2,251.3,1.9z"/>
						<path fill="#202020" d="M-251.6-26.5L-251.6-26.5l0,0.5C-251.6-26.2-251.6-26.4-251.6-26.5z"/>
						<path fill="#202020" d="M-83,13.6c0.1,0,0.4,0,0.7-0.1C-82.3,13.6-82.5,13.6-83,13.6z"/>
						<path fill="#202020" d="M-31.4,13.4l-1.3,0C-32.2,13.4-31.8,13.4-31.4,13.4z"/>
						<path fill="#202020" d="M-109.8,13.4c-0.7,0-0.9,0-1.9,0c0.1,0,0.2,0,0.3,0C-111,13.4-110.6,13.4-109.8,13.4z"/>
						<path fill="#202020" d="M-137.6,13.4c0.1,0,0.3,0,0.5,0c0.3,0,0.6,0,0.9,0L-137.6,13.4z"/>
						<path fill="#202020" d="M130.4-32.4c0.6,0,1-0.1,1.3-0.1C131.2-32.4,135.3-32.4,130.4-32.4z"/>
						<path fill="#202020" d="M251.3,1.1c0,0.2-0.1,0.4-0.1,0.8C251.3,1.6,251.3,1.3,251.3,1.1C251.3,0.9,251.3,0.9,251.3,1.1z"/>
						<path fill="#202020" d="M-110.9,12.3l-4.4,0C-114.1,12.3-112.5,12.3-110.9,12.3z"/>
						<path fill="#202020" d="M-69.6-32.4l1,0C-69-32.4-69.4-32.4-69.6-32.4z"/>
						<path fill="#202020" d="M-128.5,12.3c-0.8,0-1.6,0.1-2.5,0.1c-0.2,0-0.4,0-0.5,0L-128.5,12.3z"/>
						<path fill="#202020" d="M131.7-32.5C131.7-32.5,131.7-32.5,131.7-32.5C131.7-32.5,131.7-32.5,131.7-32.5z"/>
						<path fill="#202020" d="M160.8-32.2c-4.2,0-2-0.2-2.9-0.3c-5-0.1-2.3,0.1-4,0.2c-3.1,0-5.6-0.2-7.9-0.2c-0.2,0-0.6,0-0.1,0.1
							c-3.3-0.1-9.9,0-13.7-0.2c-0.3,0-0.4,0-0.5,0c0.6-0.1,0.7-0.2,0.6-0.3c-1.9,0-3.5-0.1-4.2,0c1.2,0,1.3,0,1.8,0.1l-2-0.1
							c-1.8,0.2,2.7,0.1,2.7,0.2c-3.9-0.1-8.4-0.2-11.3-0.2c-0.6,0.2,6.9,0.1,3,0.2l4.6-0.1c-3.5,0.3,2.8,0-0.4,0.3
							c-6,0-6.7-0.1-12.8,0c-1.4-0.1,0.4-0.1-0.9-0.2c-8.6-0.2-6.7,0.4-13,0.2c-1.6-0.1-2.3-0.3-6.7-0.2l1.5,0.2
							c-5.8,0-3.3-0.3-9.4-0.1c1.1,0.1,4.6,0.1,3.7,0.1c-4,0.2-2.8-0.1-5.8-0.1l-0.6,0.2c-6.2-0.1-13.1-0.1-20-0.2
							c0.4,0.1,1.6,0.1-0.1,0.2c-8.7-0.1-18.5,0-26.9,0.1l-3.2-0.1c-0.7,0-1.4,0.1-0.6,0.1c-3.3,0.1-0.2-0.1-1.7-0.2
							c-1.9,0-2.5,0.1-1.3,0.1c-5.8-0.1-16.4-0.3-22.5-0.1l1.2,0c-4.7,0.1-5.3-0.3-9.7-0.2l0.8,0c-10.3,0.1-21.6-0.1-29.4,0.2
							c-1.5-0.2-10.2,0.1-10.8-0.2c-5.9,0.1-4.2,0.2-12.4,0.3c-2.2,0-3.3-0.2-6-0.2l-0.1,0.2l-3.7-0.2l-2,0.2l-2.6,0
							c1,0,2.2-0.1,2-0.1c-2,0-4.4,0-6.4,0c-1,0-1.8,0.1-2.4,0.1c-0.6,0-1,0.1-1,0.1l-9.4-0.1c0.2,0.1,1.8,0.1,3,0.1
							c-5-0.2-0.9,0.2-5.5,0c0.6,0-0.3-0.1-0.4-0.1c-2.3,0.1-7.5,0.1-11.4,0.1l0.7,0.1c-7,0-14.8,0-22.6,0c2.8,0,2.2-0.2-0.1-0.3
							l-0.9,0.2c-1.5-0.1,2.4-0.1-0.6-0.2c-2.9,0-2,0.2-0.3,0.2l-3.6-0.1c-0.2,0,0.6,0.1,0.8,0.1c-1.5-0.1-6.2,0.2-8.3,0l-0.2,0
							c-7.9,0-11.4,0-17.8-0.1c-0.1-0.1-2.6-0.1-4.5-0.2c-4.7,0-9.9,0.2-15.6,0.1c-4-0.1-1.2-0.1-3-0.2c-0.3,0.1-6,0.1-3,0.2
							c-6.8,0-8.7,0-17.3-0.1c0.9-0.1,2-0.1,1.4-0.1c-1.6,0-3.6,0.1-3.3,0.1l0.4,0c-9.7-0.2-22.3,0.4-30,0.1l0.4,0l-8-0.1
							c-3.7,0,2.2,0.1-0.5,0.2c-4.3-0.1-7.7-0.1-10.9-0.1c-0.8,0-1.6,0-2.4,0c-0.6,0-1.1,0.3-1.4,0.9c-0.1,0.3-0.1,0.5-0.1,1
							c0,0.4,0,0.8,0,1.2c0,0.8,0,1.7,0,2.6c0.4,5.5,0,19.5,0.2,26.9l-0.1-0.4c-0.1,1.9,0.1,2.3,0.1,3.7c-0.1-0.2-0.1-2.1-0.1-0.9
							c0,2,0,4.1,0,6.1l0,1.5l0,0.8c0,0.2,0,0.4,0.1,0.6c0.1,0.3,0.4,0.6,0.7,0.8c0.2,0.1,0.3,0.1,0.5,0.1c0.2,0,0.5,0,0.7,0
							c4.2,0,8.3,0,12.6-0.1c8.4-0.1,16.9-0.1,25.2-0.2c6.1,0,3.4,0.5,11.1,0.2l-2.2-0.2c12.3,0.2,25.1,0,37.1,0.2
							c-0.7,0-0.7-0.1-1.9-0.1c1.3-0.1,3.6-0.1,5.6,0c1,0,2,0,2.6,0.1c0.7,0,1.1,0,1.1,0.1c1.9,0,0.4-0.1,1.6-0.1
							c2.5-0.1,6.4,0.2,7.7,0c0.2,0-0.7,0-1.2,0c1.7,0.1,7.7,0,6.1,0.1c4.5-0.1,8.6,0.1,12.2,0c2.3,0.2,7.7-0.1,8.5,0.1
							c-0.3-0.2,7.9-0.2,10.7-0.1c-1-0.1,2.5-0.1,1.4-0.2c3.3,0,6.2,0,5.7,0.2c6-0.3,12,0.2,15.4-0.1c9.7,0.1,18.6,0.2,27.3,0.3
							c-0.3-0.2-9.6,0-9.2-0.3c8.2,0.1,13,0.3,21.2,0.2c2.1,0-1.2-0.1-1.9-0.1c8.2,0.1,15.9,0,23.2,0.1c0,0-0.2,0-0.5,0
							c-0.3,0-0.7,0-1.1,0c1.4,0,3.4,0,3.2,0.1l-1.4,0c-2.3,0.1,5.7,0.3,6,0.4c-2.5-0.3,7.2-0.1,3.3-0.4c1,0,2.1,0.1,1.9,0.1
							c1.4,0,1.9-0.1,0.4-0.1c5.2,0.1,3.3,0.2,8,0.2c0,0-1-0.1-1.4-0.1c2.4,0.1,4.8,0.2,8.7,0.2c-0.2,0,0.2-0.1-1-0.1
							c6.8,0,11.6,0.3,19,0.2c-2.2-0.2,2.5-0.1,2.9-0.3l4,0.1l-1.6,0.1c3.5,0,6.6,0.1,9.6,0.1l-2.6-0.1l6.6,0l-3.7,0.1
							c3.6,0.1-0.4,0.2,4.3,0.2c-1,0,3.5,0,5.3-0.1l0,0c1.7,0.1,3.5,0.1,6.1,0.1c0.7-0.1-0.5-0.2-0.1-0.2c1.7,0.2,8.2,0,10.4,0.2
							c-0.7,0-0.8-0.1-0.5-0.2l1.4,0.1c1.6,0,1.9-0.1,1.6-0.1c4.9,0-1.6,0.2,4.3,0.1c-0.5,0-0.2,0-1.2,0c5.8-0.1,11.3,0.1,16.6,0
							c1.6-0.2-4.7,0-2.9-0.2c7.7,0,16,0.2,23.5,0.2l-1.4,0c1,0.3,5.6-0.1,9.4,0c-0.9,0-1.2-0.1-1-0.1c5.1,0,10.5,0.1,18.2,0.1
							l-1-0.1c3-0.1,8,0,11.2-0.1c1,0.1,2.8,0.1,1.7,0.2c10.1-0.4,19.2,0.2,28.1-0.1c-1.1,0-2.5-0.1-1.7-0.1l7.6,0.1
							c-0.6,0.1-1,0.1-2.6,0.2c1,0.1,3.1,0.1,5,0.1c-3.4-0.1,0-0.2,1.5-0.3c-0.2,0,0.3,0.1,0.1,0.1c4-0.2,0.7,0.2,6.1,0.1l-0.3-0.1
							c2,0,3.9,0.1,6.1,0.1c0.9-0.1-2.2-0.1-2.3-0.2c3.1,0,6.1,0.3,8.8,0.1c-1.3,0-3.2-0.1-4.5-0.1c3-0.2,3.4-0.1,5.6-0.1l-0.2,0
							l5.2-0.1l-1.3,0c3.8,0.3,7.8,0.1,13,0.3c-5-0.2-0.8-0.1-1.2-0.3c1.3,0,3.3-0.1,2.8-0.1c2.4,0.1,4.1-0.1,7.5,0.1
							c0.2,0,2.6,0,2.1-0.1c3.2,0-0.8,0.1-0.5,0.1c4.9,0.2,11.5-0.2,18.6,0c3,0,4.8,0.1,6.6,0.2c0.4,0,0.9,0,1.3,0
							c0.5,0,0.9,0,1.3-0.2c0.4-0.2,0.8-0.6,1-1.2c0.2-0.6,0.1-1.2,0.1-1.9c-0.1-1.9-0.2,1.6-0.2,1.5c-0.1-3-0.1-5.4,0-8.3
							c0,0.6-0.1,0-0.1-0.9c0-2.3,0.2-1.6,0.1-4.6c-0.1,0.5-0.1,1.2-0.2,2.3c0.1-2.7,0.1-5.4,0.2-8.3c-0.1-0.8-0.1,1.7-0.2,2.7
							c0-3.2,0.1-8.3,0.2-9.2l0,2c0-1.2-0.1-0.6-0.1,0.3c-0.1,2.7,0,3.9,0.1,4.1l0-2c0.3,2.1,0,8.1,0,12.2l0.2-1.7l-0.2,4.2
							c0.1,0.9,0.2,1.5,0.2-0.5c0.1,2.9-0.1,2.6,0,5.1c0,0.3,0,0.2,0-0.1c0,0,0,0.7,0,1.4c0,0.4,0,0.7,0,1c0,0.3,0,0.5,0,0.5
							c0.1-0.6,0.2,0.5,0.1-1.3c0,0.3,0,0.6,0,0.9c0,0.3,0,0.7-0.2,1c-0.2,0.6-0.7,1-1.3,1.2c-0.3,0.1-0.6,0.1-0.8,0.1
							c-0.2,0-0.5,0-0.7,0c-0.5,0-0.9,0-1.3,0c-1.7,0-2.9-0.1-3.9,0l0.4,0c-7.1-0.1-0.7-0.2-6-0.3l-3.6,0.4l-0.7-0.2
							c-0.7,0-2.2,0-1.9,0.1c-2.7-0.1,0.5-0.1-1.1-0.2c-3.5,0.1-9.7-0.1-10.5,0.2c-1.3-0.1,3.4-0.1-0.4-0.2c-1.1,0.3-4.3,0-7.6,0.1
							c1,0.1,4,0.1,0.8,0.2c-1.9-0.2-6.3,0-9,0c-0.1-0.2-5.9-0.1-10.5-0.1c0.3,0.1-8.6,0.1-12.8,0.2l0.1,0c-0.8-0.2-5.2-0.1-8.4-0.2
							c0.1,0.1,0.7,0.2,2.4,0.2l-3,0c-0.7-0.1-1.6-0.1-3.6-0.1l0.8,0.1c-4,0-8-0.2-13.1-0.1c-0.3-0.1,4.1-0.4-1.3-0.4
							c-0.2,0.1-0.4,0.2,1,0.2c-0.5,0-1.7-0.1-2.6,0l2.2,0.1c-2.3,0.1-1.2-0.1-3.1-0.1c0,0.1-1.4,0.1-1.1,0.1c0.5,0,1.6,0,2.3,0
							c-2.1,0-4.6,0.1-5.5,0.2c0.2-0.1,0-0.1-1.5-0.1c-4,0-1.4,0.1-3.7,0.2c-1-0.1-3.5,0-3.6-0.1c-1.2,0-1.4,0.1-1.8,0.1
							c-2.1-0.1-9.6,0-7.3-0.2l0.5,0c-0.1,0-0.2,0-0.3,0c0,0,0,0,0,0h0c-6.8-0.1-14,0.1-20.7,0l0,0c-4-0.1-8.9,0-11.8-0.1
							c-1.2,0-2.8,0.1-2.3,0.1c-3.1,0-3.4-0.1-7.8,0c3.1,0.1-1.1,0.1,3.2,0.1c-4,0-4.9,0.1-9.1,0c1.5,0.1-3,0.2-4.9,0.1l2.8-0.1
							c-2.1,0-4,0-5.9,0l1,0.2c-8.1,0.2-14.7-0.3-20.9,0c-2.2-0.1,4.4-0.1,2.5-0.2c-3.7,0-7.6,0.3-8.8,0.3
							c-5.1,0.1-4.8-0.2-10.1-0.2c0.7-0.1,1.3-0.2-2.7-0.3c-3.7,0-4.6,0.2-2.2,0.3c0.9,0,1.3,0,1.3,0c1.2,0,2.8,0,1.3,0.1l-0.5-0.1
							c-1.9,0.1-7,0.1-5.8,0.2c-2.8-0.1-1.2-0.1,0.9-0.1c-4.8,0.1-7.5,0-12.4,0.1c0.8,0,1.5-0.1,0.7-0.1c-7.2,0.1-3.2-0.1-8.1-0.1
							c-2.8,0.1,1,0.2-3.9,0.1c-3,0.1-0.6,0.2,0.6,0.2c-4.5-0.1-8.4,0.1-11,0.1l2.4,0c-1.4,0-2.6,0-3.8,0l1.4-0.1
							c-1.4,0-2.6,0-2.5,0.1c-1.4-0.1,1.1-0.2-1.8-0.3c-1.9,0.1-5.7-0.1-6.3,0.1c5.8-0.1-0.6,0.2,4.3,0.2c-1,0-2.1,0-3.5,0
							c-0.2,0,0.2,0,0.6,0c-5.6,0.1-2.6-0.2-8.4-0.2c0.7,0.1-1.3,0.2-2.3,0.1c2.3,0,1.1-0.1-1-0.2c-3.7,0.1-4-0.1-6,0l2.2,0
							c-0.8-0.1-2.6-0.1-5.2-0.1c-0.2,0.1,2.4,0,1.4,0.1c-2.9-0.2-6.5,0.2-10.5,0.1c-1.9,0.1-0.2,0.2-1.8,0.2
							c-4.5-0.1-4.9,0.1-9.6,0c1.4-0.1,1.6-0.1-1.7-0.2l7.8,0.1l-5-0.2c2.3,0,4.9,0.1,6.3,0.1c-2.4-0.1-2.1-0.1-1-0.2
							c-3.2,0.2-6.4-0.1-10.1,0l0.1,0.3c-5.6,0.1-9.9-0.2-17.1-0.1l2.3-0.1c-1-0.1-4.5,0-6.8-0.1c0.2,0.1-1.2,0.1-2.2,0.2
							c0.1-0.1-5.3,0-6-0.2l-3.2,0.1c-5.8,0.1-6.7-0.3-12.3-0.2c1.7,0.1-0.9,0.2,2.9,0.3c-1.9,0-3.6,0-3.6,0c-1.1,0.1-5.2-0.1-6.9,0
							c-0.8,0-1-0.1-3.2-0.1c-0.2,0,0,0,0,0c0,0-3.3-0.1-1.5-0.2c-5.8,0.3-16.1,0-21.2,0.2c-4.1,0-9-0.1-12.7-0.1c0.2,0,0,0,0.7,0
							c-5.1,0.1-3.2-0.3-9-0.2c-3,0.2,3.1,0.1,1.2,0.1c-0.8,0.3-7,0-11,0.1l1,0c-3,0.1-7.3-0.1-12.2-0.1c0,0,0.2,0,0,0
							c-3.4-0.2-9.7-0.2-14.4-0.3c1.5,0.1,2.1,0.1,1.2,0.2c-2.1,0,0.6-0.2-3.6-0.2c-1.4,0.1-4.4,0.1-4.8,0.3l4,0c-2,0.2-5.2,0-7.2,0
							l0.3,0.1c-6.1,0-6.2-0.2-12.7-0.2l0.7-0.1c-3.6-0.2-3,0.1-6.6,0l-1.1,0.2c-2.4,0-8.3-0.2-12.5-0.2c2.4,0.1,7.4,0.2,10.4,0.3
							c-2.3,0-8,0-9.2-0.1c0.9,0,2.1,0.1,3.1,0c-2.9-0.2-6.7-0.2-11.3-0.2c0.4,0.2-2.6,0.2-6.2,0.2c-0.4,0-1.1-0.1-1.5-0.4
							c-0.5-0.3-0.8-0.7-1-1.3c-0.1-0.3-0.1-0.5-0.1-0.8c0-0.2,0-0.4,0-0.7c0-0.4,0-0.9,0-1.3c0-1.7-0.1-3.1-0.1-4
							c0.1-8.3-0.1-16.4,0-26c0.3,3.4,0-2.8,0.3-2.2c0-2.2,0-3.1,0-3.3c0,0,0-1.7-0.1-3.4c0-0.4,0-0.8,0-1.3c0-0.5,0.2-0.9,0.4-1.2
							c0.2-0.3,0.5-0.5,0.7-0.7c0.2-0.1,0.3-0.2,0.3-0.2c0.5-0.2,0.6-0.2,0.4-0.2c-0.2,0-0.5,0.1-0.9,0.4c-0.4,0.3-0.7,0.7-0.8,1
							c-0.2,0.3-0.2,0.6-0.2,0.5c0.2-0.8,0.6-1.3,1-1.6c0.4-0.3,0.8-0.4,1.1-0.5c0.2,0,0.3,0,0.4,0c0.1,0,0.2,0,0.2,0
							c0.1,0,0.2,0,0.3,0c0.3,0,0.4-0.1,2-0.1c-0.7,0.1,1.7,0.2,4.5,0.1l-3.9,0.1c6.9,0.2,5.9-0.3,12.8-0.1l-2.2-0.1
							c3.5,0.1,13.1,0,16.6,0.2c0.6,0,1.5-0.1-0.1-0.1c8.5,0,18.9,0.3,25.5,0.1l-0.6-0.1c1.6,0,2.8,0.1,4.7,0.1
							c-0.1,0-0.6-0.1,0.1-0.1c0.8,0,4.2,0.1,6.3,0.1l-1.8-0.1c8.3-0.1,12.7,0.2,19.6,0.3c0-0.2,6.5-0.3,9.7-0.3l-0.1,0
							c9.6,0,16.4,0.2,25.3,0.3c5.5-0.2,18.7-0.1,27.6-0.2c-1.4,0,0.2,0.2,1.8,0.2c2.1,0,5.8,0.2,5.4,0l-0.7,0
							c1.6-0.2,5.9-0.1,9.2-0.2l0.6,0.3c8.8-0.4,23,0.1,27.7-0.2c2.1,0,4.7,0.1,6.8,0.1l-0.1-0.1c5.9,0,8.8-0.1,16,0l-1.5-0.1
							c4.1,0,5.2,0.4,8.9,0.4l1.1-0.2c7.1,0,14.3-0.2,21.4,0c-0.1,0-0.3-0.1-1.5-0.1c3.4,0,13-0.1,11.8,0.1c0-0.1,1.9-0.1,4.2-0.1
							c2.3,0,5.1,0.1,7,0.1l-0.6-0.1c3.2,0.2,3.4,0.2,7.9,0.3c1.1,0,0.9-0.1-0.5-0.1c3.6-0.1,2.8,0.1,7.1,0.1l-1.6-0.1
							c3.7,0,3.4,0,5.4,0.1c2.3,0.1,7,0,7.5-0.2c0.5,0.1,2.5,0.2,4.7,0.1c0.3,0-0.5-0.1-0.9-0.1c6.2-0.1,9.2,0.2,13.4,0
							c0.1,0,0.4-0.1,0.7-0.1c-4.9,0-8.1,0-8.5,0c0-0.1,4-0.2,0.8-0.3c3.2,0.1,8.6,0.3,12.5,0.2c0.2,0,0.4,0,0.5,0l-0.4,0
							c0.9,0,1.7,0,2.4,0c1.2,0,2,0,3.2,0c0.5-0.1,4.5-0.1,6.5-0.1c-0.2,0.1,2.4,0.1,0,0.2c0.3,0-0.4,0-1.7,0c-0.3,0-0.6,0-0.8,0
							c0,0,0.1,0,0.1,0c-1.3,0-3,0-4.9,0c1.6,0.1,3.2,0.1,5.4,0.1c1,0.1,2.1,0.2,2.8,0.2c2.7-0.2,7.9-0.3,8.6-0.4
							c6,0.1,14.2,0.1,18,0.3c1.7,0,2-0.1,2.6-0.1c-1,0-2.2,0-2.7-0.1c3.4,0.1,10.1,0,11,0.2c4.3-0.1-2.4-0.2,3.5-0.1l-0.8-0.1
							c11.7-0.3,19,0.5,31.9,0.1c-0.9,0-1.3,0-1.5,0.1c14.7-0.2,30.4,0.2,44.9-0.1c4.1-0.1,4.6,0.1,7.1,0.2l0.9-0.2l4.3,0.2
							c6.1,0.1,10.6-0.4,18.3-0.1l-1,0.1c2.8,0,8.8,0.1,8.3-0.1c0.3,0,0.9,0.1,2,0.1l0.1-0.1l6.8,0.1c5.3-0.1-0.8-0.3,6.9-0.3
							c0.7,0,1.6,0,2.5,0c0.4,0,0.9,0,1.3,0c0.2,0,0.5,0,0.7,0.1c0.2,0.1,0.5,0.1,0.7,0.3c0.8,0.5,1.1,1.3,1.1,1.7
							c0,0.4,0,0.6,0,0.3c0-0.7-0.5-1.4-1.1-1.7c-0.6-0.3-1.1-0.3-1.2-0.2c0,0,0.2,0,0.4,0c0.3,0.1,0.6,0.2,0.8,0.4
							c0.3,0.2,0.5,0.5,0.6,0.7c0.1,0.2,0.1,0.4,0.1,0.4c0,0.3-0.2,0.9-0.3,0.6c-0.1-0.1-0.1-0.4-0.4-0.9c-0.2-0.2-0.4-0.5-0.8-0.6
							c-0.1,0-0.2-0.1-0.3-0.1c-0.1,0-0.2,0-0.4,0c-0.3,0-0.7,0-1.1,0l-4.5-0.1l-1.4,0.1l3.8,0c-2.1,0.1-3.5,0-5-0.1
							c-0.4,0.1-1,0.1-1.9,0.1l-4.4-0.2c-0.5,0.1,2,0.2-1,0.2c-2.1-0.1,2-0.2-1.4-0.3c-2.2,0.1-1.5,0.2-4,0.1
							c-0.4,0.1,0.2,0.1,1.2,0.1c-2.2-0.1-5.9,0-7.1-0.2c-2.2,0.1-7.6,0-7.4,0.2c-0.7-0.1-4-0.2-6-0.2c3.8,0.3-7.7,0-6.7,0.3
							c-2.8-0.2-10.1-0.1-15-0.2c0.3,0,0.8,0.1,1.3,0c-2.8,0-3.6,0.1-5.4,0.1c-0.4-0.2-4.7-0.2-7-0.4c-3.4,0.2,2.1,0.2,1,0.4
							c0.2-0.2-5.9-0.2-4.8-0.3c-2.6,0.1-2.2,0.1-3.6,0.2c-0.5-0.2-2.4,0-4.6-0.2c-3.8,0.1-1,0.2-5.1,0.2
							C157.2-32.3,160.8-32.2,160.8-32.2z M62.3-32.6L62.3-32.6c0.8,0,1.6,0,2,0C63.9-32.6,63.3-32.6,62.3-32.6z M54-32.6
							c1,0,2.3,0,3.6,0c0.3,0,0-0.1-0.9-0.1C57.2-32.7,55.2-32.7,54-32.6z M71.5-33.6c-1.3,0-1.8,0-1.9,0c0.6,0,1.3,0,2.3,0
							c0,0,0.1,0,0.2,0C71.9-33.6,71.8-33.6,71.5-33.6z"/>
						<path fill="#202020" d="M73.9-33.4c0.2,0,0.3,0,0.5,0c-0.3,0-0.5,0-0.8,0c-0.2,0-0.3,0-0.5,0C73.4-33.4,73.6-33.4,73.9-33.4z"
							/>
						<path fill="#202020" d="M130.1,13.2l-0.2,0c0.1,0,0.3,0,0.4,0C130.2,13.2,130.2,13.2,130.1,13.2z"/>
						<polygon fill="#202020" points="-60.4,-32.4 -60.4,-32.4 -59.7,-32.4 						"/>
						<path fill="#202020" d="M175.7,12.7c0.1,0,0.3,0,0.6,0C176.3,12.7,176,12.7,175.7,12.7z"/>
						<path fill="#202020" d="M195.4,12.7l2.8-0.1C197,12.7,196.1,12.7,195.4,12.7z"/>
						<path fill="#202020" d="M210.6,12.6c0.2,0,0.2,0,0.3,0.1c0,0,0,0,0,0L210.6,12.6z"/>
						<path fill="#202020" d="M-30.4,12.5c-0.2,0-0.4,0-0.6,0C-32.3,12.4-31.4,12.4-30.4,12.5z"/>
						<path fill="#202020" d="M41.3,12.8c-0.8,0-1.5,0-2.3-0.1C40.3,12.7,41.3,12.7,41.3,12.8z"/>
						<path fill="#202020" d="M-110.4,12.3C-110.4,12.3-110.4,12.3-110.4,12.3c-0.2,0-0.3,0-0.5,0L-110.4,12.3z"/>
						<path fill="#202020" d="M35.7,12.7c1.3,0,2.3,0,3.3,0C38,12.7,36.8,12.7,35.7,12.7z"/>
						<path fill="#202020" d="M251.2-12.4l0-0.7c0,0,0,0,0-0.1L251.2-12.4z"/>
						<path fill="#202020" d="M251.2-13.2l0-0.8C251.3-13.7,251.3-13.4,251.2-13.2z"/>
						<path fill="#202020" d="M251.3-15.8l0,1.7C251.3-14.6,251.3-15.4,251.3-15.8z"/>
						<path fill="#202020" d="M251.3,7.6l-0.1,0.2C251.3,7.7,251.3,7.7,251.3,7.6z"/>
						<path fill="#202020" d="M250,12.6c0.6-0.1,1.2-0.7,1.2-1.5c0-0.9,0-2,0-3l0-0.2c0,0.5,0,1.6,0,2.8c0,0.3,0,0.6,0,0.8
							c-0.1,0.2-0.2,0.4-0.3,0.6C250.7,12.4,250.3,12.5,250,12.6z"/>
						<path fill="#202020" d="M224.6,13.2l5.1,0c-0.9,0.1-2.1,0.1,0.3,0.1C223.6,13.5,231.3,13.2,224.6,13.2z"/>
						<path fill="#202020" d="M208.8,13.3c2.7,0,0,0.1,0.1,0.1C207.2,13.4,206.8,13.4,208.8,13.3z"/>
						<path fill="#202020" d="M94.3,13.3l0.3,0.1C92.5,13.4,94.6,13.4,94.3,13.3z"/>
						<polygon fill="#202020" points="72.5,12.7 74.5,12.6 75.5,12.7 						"/>
						<polygon fill="#202020" points="59.5,13.6 60.5,13.6 56.9,13.5 						"/>
						<path fill="#202020" d="M-132.7,13.5l0.6-0.2C-130.6,13.4-130.3,13.6-132.7,13.5z"/>
						<path fill="#202020" d="M-215.7,13.4c-0.9,0.1-3.2,0.1-4.7,0.1C-218.5,13.4-216.6,13.3-215.7,13.4z"/>
						<polygon fill="#202020" points="-82.4,-33.6 -84.1,-33.7 -80.9,-33.6 						"/>
					</g>
				</g>
			</g>
		</g>
	</g>
	<g>
		<g>
			<g>
				<g>
					<g>
						<path fill="#202020" d="M142.3,13.5c0-0.2,0.1-0.1,0.1,0.4l-0.2,0.3L142.3,13.5z"/>
						<path fill="#202020" d="M142.6,16.6c-0.1,0.5-0.2,1.2-0.4,0.8c0.2-0.5,0.1-0.7,0.3-1.2c0-0.5-0.1-0.8-0.1-0.7
							c0-0.2,0-0.7,0.1-1c0.1,0.6,0.1,1.4,0,2.2C142.6,16.8,142.6,16.6,142.6,16.6z"/>
						<path fill="#202020" d="M113.1,33.2l0.3,0C113.3,33.2,113.2,33.2,113.1,33.2z"/>
						<path fill="#202020" d="M85.1,33.3c0.2,0,0.3,0,0.3,0C85.2,33.3,85.1,33.3,85.1,33.3z"/>
						<path fill="#202020" d="M80.3,33.5c0.1,0,0.2,0,0.3,0C80.5,33.5,80.4,33.5,80.3,33.5z"/>
						<path fill="#202020" d="M113.1,33.2l-0.7,0.1C112.3,33.2,112.7,33.2,113.1,33.2z"/>
						<path fill="#202020" d="M142.2,22.8c0-0.2,0-0.3,0-0.4L142.2,22.8C142.3,22.8,142.3,22.8,142.2,22.8z"/>
						<path fill="#202020" d="M125.4,33.4l0.2,0c0.1,0,0.1,0,0.2,0.1L125.4,33.4z"/>
						<path fill="#202020" d="M134.9,33.4c-0.2,0-0.3-0.1-0.4-0.2C134.6,33.3,134.8,33.3,134.9,33.4C135,33.3,134.9,33.4,134.9,33.4
							z"/>
						<path fill="#202020" d="M142.8,25l0-0.3C142.8,24.8,142.8,24.9,142.8,25z"/>
						<path fill="#202020" d="M118.6,33.4C118.6,33.4,118.6,33.4,118.6,33.4C118.5,33.4,118.6,33.4,118.6,33.4z"/>
						<path fill="#202020" d="M-138.7,25.5C-138.7,25.5-138.7,25.5-138.7,25.5C-138.7,25.4-138.7,25.4-138.7,25.5z"/>
						<path fill="#202020" d="M-139.4,14.5l0,0.2c0,0-0.1,0-0.1,0L-139.4,14.5z"/>
						<path fill="#202020" d="M71.6,33.7C71.6,33.7,71.6,33.7,71.6,33.7C71.9,33.7,71.7,33.7,71.6,33.7z"/>
						<path fill="#202020" d="M-8.6,33.6c0.9-0.1-1.5-0.2-0.1-0.3C-8.9,33.3-7.5,33.5-8.6,33.6z"/>
						<path fill="#202020" d="M142.3,23.1l0,0.4C142.3,23.3,142.3,23.2,142.3,23.1z"/>
						<path fill="#202020" d="M-8.7,33.3L-8.7,33.3l0.1,0C-8.7,33.3-8.7,33.3-8.7,33.3z"/>
						<path fill="#202020" d="M51.5,33.6c0,0,0.1,0,0.2-0.1C51.7,33.6,51.6,33.6,51.5,33.6z"/>
						<path fill="#202020" d="M66.5,33.4l-0.4,0C66.2,33.4,66.3,33.4,66.5,33.4z"/>
						<path fill="#202020" d="M43.7,33.4c-0.2,0-0.3,0-0.5,0c0,0,0.1,0,0.1,0C43.3,33.4,43.4,33.4,43.7,33.4z"/>
						<path fill="#202020" d="M35.6,33.4c0,0,0.1,0,0.1,0c0.1,0,0.2,0,0.3,0L35.6,33.4z"/>
						<path fill="#202020" d="M-121.4,32.4c-0.2,0-0.3,0.1-0.4,0.1C-121.6,32.4-122.8,32.4-121.4,32.4z"/>
						<path fill="#202020" d="M142.3,22.8c0,0-0.1,0.1-0.1,0.2C142.3,23,142.3,22.9,142.3,22.8C142.3,22.8,142.3,22.8,142.3,22.8z"
							/>
						<path fill="#202020" d="M43.3,32.3l-1.3,0C42.4,32.3,42.9,32.3,43.3,32.3z"/>
						<path fill="#202020" d="M-63.2,32.4l-0.3,0C-63.4,32.4-63.3,32.4-63.2,32.4z"/>
						<path fill="#202020" d="M38.2,32.3c-0.2,0-0.5,0.1-0.7,0.1c-0.1,0-0.1,0-0.1,0L38.2,32.3z"/>
						<path fill="#202020" d="M-121.7,32.5L-121.7,32.5L-121.7,32.5z"/>
						<path fill="#202020" d="M-130.2,32.2c1.2,0,0.6,0.2,0.8,0.3c1.5,0.1,0.7-0.1,1.2-0.2c0.9,0,1.6,0.2,2.3,0.2c0.1,0,0.2,0,0-0.1
							c1,0.1,2.9,0,4,0.2c0.1,0,0.1,0,0.1,0c-0.2,0.1-0.2,0.2-0.2,0.3c0.6,0,1,0.1,1.2,0c-0.3,0-0.4,0-0.5-0.1l0.6,0.1
							c0.5-0.2-0.8-0.1-0.8-0.2c1.1,0.1,2.4,0.2,3.3,0.2c0.2-0.2-2-0.1-0.9-0.2l-1.3,0.1c1-0.3-0.8,0,0.1-0.3c1.8,0,2,0.1,3.7,0
							c0.4,0.1-0.1,0.1,0.3,0.2c2.5,0.2,2-0.4,3.8-0.2c0.5,0.1,0.7,0.3,2,0.2l-0.4-0.2c1.7,0,1,0.3,2.7,0.1
							c-0.3-0.1-1.3-0.1-1.1-0.1c1.2-0.2,0.8,0.1,1.7,0.1l0.2-0.2c1.8,0.1,3.8,0.1,5.8,0.2c-0.1-0.1-0.5-0.1,0-0.2
							c2.5,0.1,5.4,0,7.8-0.1l0.9,0.1c0.2,0,0.4-0.1,0.2-0.1c0.9-0.1,0,0.1,0.5,0.2c0.5,0,0.7-0.1,0.4-0.1c1.7,0.1,4.8,0.3,6.5,0.1
							l-0.3,0c1.4-0.1,1.6,0.3,2.8,0.2l-0.2,0c3-0.1,6.3,0.1,8.6-0.2c0.4,0.2,3-0.1,3.1,0.2c1.7-0.1,1.2-0.2,3.6-0.3
							c0.6,0,1,0.2,1.7,0.2l0-0.2l1.1,0.2l0.6-0.2l0.7,0c-0.3,0-0.6,0.1-0.6,0.1c1.2,0.1,2.8-0.1,2.9-0.2l2.7,0.1
							c-0.1-0.1-0.5-0.1-0.9-0.1c1.5,0.2,0.3-0.2,1.6,0c-0.2,0,0.1,0.1,0.1,0.1c0.7-0.1,2.2-0.1,3.3-0.1l-0.2-0.1c2,0,4.3,0.1,6.6,0
							c-0.8,0-0.6,0.2,0,0.3l0.3-0.2c0.4,0.1-0.7,0.1,0.2,0.2c0.9,0,0.6-0.2,0.1-0.2l1,0.1c0.1,0-0.2-0.1-0.2-0.1
							c0.4,0.1,1.8-0.2,2.4,0l0.1,0c2.3,0,3.3,0,5.2,0.1c0,0.1,0.8,0.1,1.3,0.2c1.4,0,2.9-0.2,4.5-0.1c1.2,0.1,0.3,0.1,0.9,0.2
							c0.1-0.1,1.7-0.1,0.9-0.2c2,0,2.5,0,5,0.1c-0.3,0.1-0.6,0.1-0.4,0.1c0.5,0,1-0.1,1-0.1l-0.1,0c2.8,0.2,6.5-0.4,8.7-0.1l-0.1,0
							l2.3,0.1c1.1,0-0.6-0.1,0.1-0.2c2.5,0.2,4,0,6,0.1c1.6-0.4,5.7,0,7.8-0.2l-0.1,0.1c0.6,0.1,0.7-0.1,1.1-0.1
							c-0.1,0.1-0.6,0.1-0.3,0.1c4.7,0.1,9.7-0.1,14.6-0.2c1.8,0,1,0.5,3.2,0.2l-0.6-0.2c3.6,0.2,7.3,0,10.8,0.2
							c-0.2,0-0.2-0.1-0.6-0.1c0.7-0.1,2.7,0,2.7,0.1c0.5,0,0.1-0.1,0.5-0.1c0.7-0.1,1.9,0.2,2.2,0c0.1,0-0.2,0-0.3,0
							c0.5,0.1,2.2,0,1.8,0.1c1.3-0.1,2.5,0.1,3.6,0c0.7,0.2,2.2-0.1,2.5,0.1c-0.1-0.2,2.3-0.2,3.1-0.1c-0.3-0.1,0.7-0.1,0.4-0.2
							c0.9,0,1.8,0,1.6,0.2c1.7-0.3,3.5,0.2,4.5-0.1c2.8,0.1,5.4,0.2,7.9,0.3c-0.1-0.2-2.8,0-2.7-0.3c2.4,0.1,3.8,0.3,6.2,0.2
							c0.6,0-0.3-0.1-0.6-0.1c2.4,0.1,4.6,0,6.8,0.1c0,0-0.2,0-0.5-0.1c0.4,0,1,0,0.9,0.1l-0.4,0c-0.7,0.1,1.7,0.3,1.7,0.4
							c-0.7-0.3,2.1-0.1,1-0.4c0.3,0,0.6,0.1,0.6,0.1c0.4,0,0.5-0.1,0.1-0.1c1.5,0.1,1,0.2,2.3,0.2c0,0-0.3-0.1-0.4-0.1
							c0.7,0.1,1.4,0.2,2.5,0.2c-0.1,0,0.1-0.1-0.3-0.1c2,0,3.4,0.3,5.5,0.2c-0.6-0.2,0.7-0.1,0.9-0.3l1.2,0.1l-0.5,0.1
							c1,0,1.9,0.1,2.8,0.1L84,32.6l1.9,0l-1.1,0.1c1,0.1-0.1,0.2,1.2,0.2c-0.3,0,1,0,1.6-0.1l0,0c0.5,0.1,1,0.1,1.8,0.1
							c0.2-0.1-0.2-0.2,0-0.2c0.5,0.2,2.4,0,3,0.2c-0.2,0-0.2-0.1-0.2-0.2l0.4,0.1c0.5,0,0.5-0.1,0.5-0.1c1.4,0-0.5,0.2,1.2,0.1
							c-0.1,0-0.1,0-0.3,0c1.7-0.1,3.3,0.1,4.8,0c0.5-0.2-1.4,0-0.8-0.2c2.2,0,4.7,0.2,6.8,0.2l-0.4,0c0.3,0.3,1.6-0.1,2.7,0
							c-0.3,0-0.4-0.1-0.3-0.1c1.5,0,3,0.1,5.3,0.1l-0.3-0.1c0.9-0.1,2.3,0,3.3-0.1c0.3,0.1,0.8,0.1,0.5,0.2
							c2.9-0.4,5.6,0.2,8.2-0.1c-0.3,0-0.7-0.1-0.5-0.1l2.2,0.1c-0.2,0.1-0.3,0.1-0.8,0.2c0.3,0.1,0.9,0.1,1.5,0.1
							c-1-0.1,0-0.2,0.4-0.3c-0.1,0,0.1,0.1,0,0.1c1.2-0.2,0.2,0.2,1.8,0.1l-0.1-0.1c0.6,0,1.1,0.1,1.8,0.1c0.3-0.1-0.6-0.1-0.7-0.2
							c0.9,0,1.8,0.3,2.6,0.1c-0.4,0-0.9-0.1-1.3-0.1c0.9-0.2,1-0.1,1.6-0.1l-0.1,0l1.5-0.1l-0.4,0c1.1,0.3,2.3,0.1,3.8,0.3
							c-1.5-0.2-0.2-0.1-0.4-0.3c0.4,0,1-0.1,0.8-0.1c0.7,0.1,1.2-0.1,2.2,0.1c0,0,0.8,0,0.6-0.1c0.4,0,0.3,0,0.2,0.1
							c-0.1,0-0.4,0.1-0.4,0.1c0.4,0,0.7,0.1,1-0.1c0.3-0.1,0.6-0.4,0.8-0.8c0.2-0.4,0.2-0.7,0.2-1.2c0-0.5,0-1,0.1-1.5
							c0.1-1.8,0.3-2.1,0.3-3.7c-0.1-0.6-0.2,0.5-0.2,0.5c-0.1-0.9-0.1-1.6,0-2.4c0,0.2-0.1,0-0.1-0.3c0-0.7,0.2-0.5,0.1-1.3
							c-0.1,0.2-0.1,0.3-0.2,0.7c0.1-0.8,0.1-1.6,0.2-2.4c-0.1-0.2-0.1,0.5-0.2,0.8c0-0.9,0.1-2.4,0.2-2.7l0,0.6
							c0-0.3-0.1-0.2-0.1,0.1c-0.1,0.8,0,1.1,0.1,1.2l0-0.6c0.3,0.6,0,2.4,0,3.5l0.2-0.5l-0.2,1.2c0.1,0.3,0.2,0.4,0.2-0.1
							c0.1,0.8-0.1,0.8,0,1.5c0,0.1,0,0,0,0l-0.1,0.8c0-0.2,0.1,0.1,0.1-0.4c0.1,1.5-0.2,2.4,0,3l0-0.1c-0.1,2.1-0.2,0.2-0.3,1.7
							l0.4,1c0,0-0.2,0.2-0.2,0.2c0,0.2-0.2,0.6-0.1,0.6c-0.5,0.7,0-0.1-0.3,0.2c-0.2,0.5-0.9,1-1.5,1c-0.6,0-1.1,0-1.2,0.1
							c-0.4-0.1,1-0.1-0.1-0.2c-0.3,0.3-1.3,0-2.2,0.1c0.3,0.1,1.2,0.1,0.2,0.2c-0.6-0.2-1.8,0-2.6,0c0-0.2-1.7-0.1-3-0.1
							c0.1,0.1-2.5,0.1-3.7,0.2l0,0c-0.2-0.2-1.5-0.1-2.4-0.2c0,0.1,0.2,0.2,0.7,0.2l-0.9,0c-0.2-0.1-0.5-0.1-1-0.1l0.2,0.1
							c-1.2,0-2.3-0.2-3.8-0.1c-0.1-0.1,1.2-0.4-0.4-0.4c-0.1,0.1-0.1,0.2,0.3,0.2c-0.1,0-0.5-0.1-0.8,0l0.6,0.1
							c-0.7,0.1-0.4-0.1-0.9-0.1c0,0.1-0.4,0.1-0.3,0.1c0.1,0,0.5,0,0.7,0c-0.6,0-1.4,0.1-1.6,0.2c0.1-0.1,0-0.1-0.4-0.1
							c-1.2,0-0.4,0.1-1.1,0.2c-0.3-0.1-1,0-1-0.1c-0.3,0-0.4,0.1-0.5,0.1c-0.6-0.1-2.8,0-2.1-0.2l0.2,0c0,0-0.1,0-0.1,0h0h0
							c-2-0.1-4.1,0.1-6,0l0,0c-1.2-0.1-2.6,0-3.4-0.1c-0.3,0-0.8,0.1-0.7,0.1c-0.9,0-1-0.1-2.3,0c0.9,0.1-0.3,0.1,0.9,0.1
							c-1.2,0-1.4,0.1-2.7,0c0.4,0.1-0.9,0.2-1.4,0.1l0.8-0.1c-0.6,0-1.2,0-1.7,0l0.3,0.2c-2.4,0.2-4.3-0.3-6.1,0
							c-0.6-0.1,1.3-0.1,0.7-0.2c-1.1,0-2.2,0.3-2.6,0.3c-1.5,0.1-1.4-0.2-2.9-0.2c0.2-0.1,0.4-0.2-0.8-0.3c-1.1,0-1.3,0.2-0.7,0.3
							c0.3,0,0.4,0,0.4,0c0.4,0,0.8,0,0.4,0.1l-0.1-0.1c-0.5,0.1-2,0.1-1.7,0.2c-0.8-0.1-0.4-0.1,0.3-0.1c-1.4,0.1-2.2,0-3.6,0.1
							c0.2,0,0.4-0.1,0.2-0.1c-2.1,0.1-0.9-0.1-2.4-0.1c-0.8,0.1,0.3,0.2-1.1,0.1c-0.9,0.1-0.2,0.2,0.2,0.2
							c-1.3-0.1-2.4,0.1-3.2,0.1l0.7,0c-0.4,0-0.8,0-1.1,0l0.4-0.1c-0.4,0-0.7,0-0.7,0.1c-0.4-0.1,0.3-0.2-0.5-0.3
							c-0.5,0.1-1.6-0.1-1.8,0.1c1.7-0.1-0.2,0.2,1.3,0.2c-0.3,0-0.6,0-1,0c-0.1,0,0.1,0,0.2,0c-1.6,0.1-0.7-0.2-2.4-0.2
							c0.2,0.1-0.4,0.2-0.7,0.1c0.7,0,0.3-0.1-0.3-0.2c-1.1,0.1-1.2-0.1-1.7,0l0.6,0c-0.2-0.1-0.8-0.1-1.5-0.1
							c-0.1,0.1,0.7,0,0.4,0.1c-0.8-0.2-1.9,0.2-3.1,0.1c-0.5,0.1-0.1,0.2-0.5,0.2c-1.3-0.1-1.4,0.1-2.8,0c0.4-0.1,0.5-0.1-0.5-0.2
							l2.3,0.1l-1.4-0.2c0.7,0,1.4,0.1,1.8,0.1c-0.7-0.1-0.6-0.1-0.3-0.2c-0.9,0.2-1.8-0.1-2.9,0l0,0.3c-1.6,0.1-2.9-0.2-5-0.1
							l0.7-0.1c-0.3-0.1-1.3,0-2-0.1c0.1,0.1-0.4,0.1-0.7,0.2c0-0.1-1.5,0-1.7-0.2L49,33.5c-1.7,0.1-1.9-0.3-3.6-0.2
							c0.5,0.1-0.3,0.2,0.8,0.3c-0.5,0-1,0-1,0c-0.3,0.1-1.5-0.1-2,0c-0.2,0-0.3-0.1-0.9-0.1c-0.1,0,0,0,0,0c0,0-1-0.1-0.4-0.2
							c-1.7,0.3-4.7,0-6.2,0.2c-1.2,0-2.6-0.1-3.7-0.1c0.1,0,0,0,0.2,0c-1.5,0.1-0.9-0.3-2.6-0.2c-0.9,0.2,0.9,0.1,0.4,0.1
							c-0.2,0.3-2,0-3.2,0.1l0.3,0c-0.9,0.1-2.1-0.1-3.6-0.1c0,0,0.1,0,0,0c-1-0.2-2.8-0.2-4.2-0.3c0.4,0.1,0.6,0.1,0.4,0.2
							c-0.6,0,0.2-0.2-1-0.2c-0.4,0.1-1.3,0.1-1.4,0.3l1.2,0c-0.6,0.2-1.5,0-2.1,0l0.1,0.1c-1.8,0-1.8-0.2-3.7-0.2l0.2-0.1
							c-1-0.2-0.9,0.1-1.9,0l-0.3,0.2c-0.7,0-2.4-0.2-3.6-0.2c0.7,0.1,2.1,0.2,3,0.3c-0.7,0-2.3,0-2.7-0.1c0.3,0,0.6,0.1,0.9,0
							c-0.8-0.2-1.9-0.2-3.3-0.2c0.2,0.4-3.5,0.1-4.5,0.4c-2.4-0.1-4.8,0.1-7.6,0c1-0.3-0.8,0-0.6-0.3c-0.7,0-0.9,0-1,0l-2,0.2
							c-0.5,0.1,0.6,0.1,0.6,0.1c-1.4,0-0.6,0.1-1.5,0.2c0.2-0.1-0.5-0.2-1.3-0.1l1.1-0.1c-2-0.2-1.7,0.3-3.7,0.1l0.6,0.1
							c-1-0.1-3.8,0-4.8-0.2c-0.2,0-0.4,0.1,0,0.1c-2.5,0-5.5-0.3-7.4-0.1l0.2,0.1c-0.5,0-0.8-0.1-1.4-0.1c0,0,0.2,0.1,0,0.1
							c-0.2,0-1.2-0.1-1.8-0.1l0.5,0.1c-2.4,0.1-3.7-0.2-5.7-0.3c0,0.2-1.9,0.3-2.8,0.3l0,0c-2.8,0-4.8-0.2-7.3-0.3
							c-1.6,0.2-5.5,0.1-8,0.2c0.4,0-0.1-0.2-0.5-0.2c-0.6,0-1.7-0.2-1.6,0l0.2,0c-0.5,0.2-1.7,0.1-2.7,0.2l-0.2-0.3
							c-2.5,0.4-6.7-0.1-8.1,0.2c-0.6-0.1-1.4-0.1-2-0.1l0,0.1c-1.7,0-2.6,0.1-4.7,0l0.4,0.1c-1.2,0-1.5-0.4-2.6-0.4l-0.3,0.2
							c-2.1,0-4.2,0.2-6.2,0c0,0,0.1,0.1,0.4,0.1c-1,0-3.8,0.1-3.4-0.1c0,0.2-2.1,0-3.3-0.1l0.2,0.1c-0.9-0.2-1-0.2-2.3-0.3
							c-0.3,0-0.3,0.1,0.1,0.1c-1,0.1-0.8-0.1-2.1-0.1l0.5,0.1c-1.1,0-1,0-1.6-0.1c-0.7-0.1-2,0-2.2,0.2c-0.1-0.1-0.7-0.2-1.4-0.1
							c-0.1,0,0.1,0.1,0.3,0.1c-1.8,0.1-2.7-0.2-3.9,0c0,0-0.1,0.1-0.2,0.1c1.4,0,2.6,0,2.5,0c0,0.1-1.1,0.2-0.2,0.3
							c-0.9-0.1-2.5-0.3-3.6-0.2c-0.1,0-0.1,0-0.1,0l0.1,0c-0.3,0-0.5,0-0.7,0c-0.4,0-0.6,0-0.9,0c-0.1,0.1-1.3,0.1-1.9,0.1
							c0-0.1-0.7-0.1,0-0.2c-0.1,0,0.1,0,0.5,0c0.1,0,0.2,0,0.2,0l0,0c0.4,0,0.9,0,1.4,0c-0.5-0.1-0.9-0.1-1.6-0.1
							c-0.3-0.1-0.6-0.2-0.8-0.2c-0.8,0.2-2.3,0.3-2.5,0.4c-1.8-0.1-4.1-0.1-5.2-0.3c-0.5,0-0.6,0.1-0.8,0.1c0.3,0,0.6,0,0.8,0.1
							c-1-0.1-2.9,0-3.2-0.2c-1.3,0.1,0.7,0.2-1,0.1l0.2,0.1c-3.4,0.3-5.5-0.5-9.3-0.1c0.3,0,0.4,0,0.4-0.1c-2.1,0.1-4.4,0-6.6,0
							c-1.1,0-2.2,0-3.3,0c-0.6,0-1,0-1.7,0c-0.6-0.1-1.2-0.4-1.6-0.9c-0.4-0.6-0.4-1-0.4-1.3c0-0.3,0.1-0.5,0.1-0.9l-0.2-0.3
							l0.2-1.3c0.1-1.8-0.4-3.1-0.1-5.3l0.1,0.3c0-0.8,0.1-2.6-0.1-2.4c0-0.1,0.1-0.3,0.1-0.6l-0.1,0l0.1-2c-0.1-1.5-0.3,0.2-0.3-2
							c0-0.8,0.2-2.4,0.3-2.1c0,0.3,0,0.9,0.1,0.9l0-0.8c0.2-0.1,0.5-0.7,0.6,1.1l-0.1,1.3l0.1,0.4l0-1.1c0.1,0.6,0,1-0.1,1.5
							c0.1,0.1,0.1,0.3,0.1,0.5l-0.2,1.3c0.1,0.2,0.2-0.6,0.2,0.3c-0.1,0.6-0.2-0.6-0.3,0.4c0.1,0.6,0.2,0.4,0.1,1.2
							c0.1,0.1,0.1-0.1,0.1-0.3c-0.1,0.7,0,1.7-0.2,2.1c0.1,0.7,0,2.2,0.2,2.1c-0.1,0.2-0.2,1.2-0.2,1.8c0.3-1.1,0,2.2,0.3,2
							c-0.1,0.4-0.1,1.2-0.2,1.9c0,0.6,0.5,1.1,1,1.3c-0.1,0-0.1-0.1-0.2-0.1c0.3,0.1,0.5,0.1,0.6,0.1c0.2,0,0.4,0,0.7-0.1
							c0.1,0.2,1.4,0.2,2,0.4c1-0.2-0.6-0.2-0.3-0.4c0,0.2,1.7,0.2,1.4,0.3c0.8-0.1,0.7-0.1,1-0.2c0.1,0.2,0.7,0,1.3,0.2
							c1.1-0.1,0.3-0.2,1.5-0.2C-129.2,32.3-130.2,32.2-130.2,32.2z M-101.6,32.6L-101.6,32.6c-0.2,0-0.5,0-0.6,0
							C-102,32.6-101.9,32.6-101.6,32.6z M-99.2,32.6c-0.3,0-0.7,0-1,0c-0.1,0,0,0.1,0.2,0.1C-100.1,32.7-99.5,32.7-99.2,32.6z
							 M-104.3,33.6c0.4,0,0.5,0,0.6,0c-0.2,0-0.4,0-0.7,0c0,0,0,0,0,0C-104.4,33.6-104.3,33.6-104.3,33.6z"/>
						<path fill="#202020" d="M-104.9,33.4c-0.1,0-0.1,0-0.2,0C-105,33.4-104.9,33.4-104.9,33.4c0.1,0,0.2,0,0.2,0
							C-104.8,33.4-104.9,33.4-104.9,33.4z"/>
						<path fill="#202020" d="M113.4,33.2L113.4,33.2C113.4,33.2,113.4,33.2,113.4,33.2C113.4,33.2,113.4,33.2,113.4,33.2z"/>
						<polygon fill="#202020" points="-65.9,32.4 -65.9,32.4 -66.1,32.4 						"/>
						<path fill="#202020" d="M126.7,32.7c0,0,0.1,0,0.2,0C126.8,32.7,126.8,32.7,126.7,32.7z"/>
						<path fill="#202020" d="M132.4,32.7l0.8-0.1C132.9,32.7,132.6,32.7,132.4,32.7z"/>
						<path fill="#202020" d="M136.8,32.6C136.9,32.6,136.9,32.7,136.8,32.6L136.8,32.6L136.8,32.6z"/>
						<path fill="#202020" d="M66.8,32.5c-0.1,0-0.1,0-0.2,0C66.2,32.4,66.5,32.4,66.8,32.5z"/>
						<path fill="#202020" d="M87.6,32.8c-0.2,0-0.4,0-0.7-0.1C87.3,32.7,87.6,32.7,87.6,32.8z"/>
						<path fill="#202020" d="M43.5,32.3L43.5,32.3c0,0-0.1,0-0.1,0L43.5,32.3z"/>
						<path fill="#202020" d="M86,32.7c0.4,0,0.7,0,1,0C86.6,32.7,86.3,32.7,86,32.7z"/>
						<path fill="#202020" d="M142.2,18.9l0-0.2c0,0,0,0,0,0L142.2,18.9z"/>
						<path fill="#202020" d="M142.2,18.7l0-0.2C142.3,18.5,142.3,18.6,142.2,18.7z"/>
						<path fill="#202020" d="M142.3,17.9l0,0.5C142.3,18.3,142.3,18,142.3,17.9z"/>
						<path fill="#202020" d="M142.3,24.7L142.3,24.7C142.3,24.8,142.3,24.7,142.3,24.7z"/>
						<path fill="#202020" d="M142.3,26.5c0-0.4-0.1-1.1-0.1-1.7l0-0.1C142.2,25.1,142.4,26.1,142.3,26.5z"/>
						<path fill="#202020" d="M140.9,33.2c0,0,0.4-0.1,0.8-0.3c0.4-0.2,0.6-0.5,0.6-0.5c-0.2,0.2-0.4,0.6,0.2,0
							c-0.3,0.4-0.6,0.6-0.6,0.6c-0.1,0,0,0,0,0c0,0,0.1-0.1,0-0.1C141.7,33,141.5,33.1,140.9,33.2z"/>
						<path fill="#202020" d="M136.3,33.3c0.8,0,0,0.1,0,0.1C135.8,33.4,135.7,33.4,136.3,33.3z"/>
						<path fill="#202020" d="M103,33.3l0.1,0.1C102.5,33.4,103.1,33.4,103,33.3z"/>
						<polygon fill="#202020" points="96.7,32.7 97.3,32.6 97.5,32.7 						"/>
						<polygon fill="#202020" points="92.9,33.6 93.2,33.6 92.1,33.5 						"/>
						<path fill="#202020" d="M37,33.5l0.2-0.2C37.6,33.4,37.7,33.6,37,33.5z"/>
						<path fill="#202020" d="M12.9,33.4c-0.3,0.1-0.9,0.1-1.4,0.1C12.1,33.4,12.6,33.3,12.9,33.4z"/>
						<polygon fill="#202020" points="-59.5,33.6 -59,33.7 -59.9,33.6 						"/>
					</g>
				</g>
			</g>
		</g>
	</g>
	<g>
		<path fill="none" stroke="#000300" stroke-miterlimit="10" d="M-89.5,2.3c-1,0.8-2.1,0.9-2.6,0.3l-15.8-19.3
			c-1.2-1.5-1.9-5.9-1.9-5.9s4.1,1.6,5.3,3.1l15.8,19.3C-88.1,0.4-88.5,1.5-89.5,2.3z"/>
		<line fill="none" stroke="#000300" stroke-miterlimit="10" x1="-104.4" y1="-19.4" x2="-107.8" y2="-16.6"/>
		<line fill="none" stroke="#000300" stroke-miterlimit="10" x1="-94.8" y1="-0.8" x2="-91.4" y2="-3.6"/>
		<path fill="none" stroke="#000300" stroke-miterlimit="10" d="M-107.3-21.5l-1.8,1.5c-0.3-1.3-0.5-2.5-0.5-2.5
			S-108.6-22.1-107.3-21.5z"/>
		<path fill="none" stroke="#000300" stroke-miterlimit="10" d="M-88.6-0.2c0.5,0.6,0.1,1.7-0.9,2.5c-1,0.8-2.1,0.9-2.6,0.3
			l-1.1-1.4l3.5-2.8L-88.6-0.2z"/>
	</g>
	<path fill="none" stroke="#000300" stroke-miterlimit="10" d="M-47.6-15.3c4.8,5.4,5,13.1,0.3,17.2c-4.6,4.2-12.3,3.2-17.1-2.2
		c-4.8-5.4-5-13.1-0.3-17.2C-60-21.6-52.4-20.6-47.6-15.3z"/>
	<path fill="none" stroke="#000300" stroke-miterlimit="10" d="M-54.5-9c0.8,0.9,0.8,2.2,0.1,2.9c-0.8,0.7-2.1,0.5-2.9-0.4
		c-0.8-0.9-0.8-2.2-0.1-2.9C-56.7-10.1-55.4-9.9-54.5-9z"/>
	<path fill="none" stroke="#000300" stroke-miterlimit="10" d="M-12.5-16c0.8,0.9,0.8,2.2,0.1,2.9c-0.8,0.7-2.1,0.5-2.9-0.4
		c-0.8-0.9-0.8-2.2-0.1-2.9C-14.7-17.1-13.4-16.9-12.5-16z"/>
	<path fill="none" stroke="#000300" stroke-miterlimit="10" d="M1.5-21c0.8,0.9,0.8,2.2,0.1,2.9c-0.8,0.7-2.1,0.5-2.9-0.4
		c-0.8-0.9-0.8-2.2-0.1-2.9C-0.7-22.1,0.6-21.9,1.5-21z"/>
	<path fill="none" stroke="#000300" stroke-miterlimit="10" d="M9.5-1c0.8,0.9,0.8,2.2,0.1,2.9C8.7,2.6,7.4,2.4,6.6,1.5
		C5.8,0.6,5.8-0.7,6.6-1.4C7.3-2.1,8.6-1.9,9.5-1z"/>
	<path fill="none" stroke="#000300" stroke-miterlimit="10" d="M-4.5,3c0.8,0.9,0.8,2.2,0.1,2.9c-0.8,0.7-2.1,0.5-2.9-0.4
		c-0.8-0.9-0.8-2.2-0.1-2.9C-6.7,1.9-5.4,2.1-4.5,3z"/>
	<line fill="none" stroke="#000300" stroke-miterlimit="10" x1="-4.8" y1="3.5" x2="7.2" y2="0.5"/>
	<line fill="none" stroke="#000300" stroke-miterlimit="10" x1="-12.8" y1="-16.5" x2="-0.8" y2="-20.5"/>
	<line fill="none" stroke="#000300" stroke-miterlimit="10" x1="8.2" y1="-1.5" x2="1.2" y2="-18.5"/>
	<line fill="none" stroke="#000300" stroke-miterlimit="10" x1="-6.8" y1="3.5" x2="-13.8" y2="-13.5"/>
	<path fill="none" stroke="#000300" stroke-miterlimit="10" d="M64.2-9.5c0,6.6-5.4,12-12,12c-6.6,0-12-5.4-12-12s5.4-12,12-12
		C58.8-21.5,64.2-16.1,64.2-9.5z"/>
	<path fill="none" stroke="#000300" stroke-miterlimit="10" d="M49.3-18.2c0.1-1.1,4.5,0,5.1,0.2c1.8,0.6,3.9,2,5,3.6
		c1,1.4,1.3,3.1,1.6,4.7c0.1,0.7,0.4,1.7,0.3,2.4c-0.2,0.8-0.8,1.5-1.1,2.3"/>
	<path fill="none" stroke="#000300" stroke-miterlimit="10" d="M54.6-13.9c1.1-0.3,2.6,1.9,3.1,2.7c0.5,0.8,1,2.9,0.4,3.9"/>
	<path fill="none" stroke="#000300" stroke-miterlimit="10" d="M99.8-9.2c-1.1-6.1,2-11.8,7-12.7c5-0.9,10,3.3,11.1,9.4
		c1.1,6.1-2,11.8-7,12.7C105.9,1.1,100.9-3.1,99.8-9.2z"/>
	<path fill="none" stroke="#000300" stroke-miterlimit="10" d="M110.9,0.1l-9.8,2.4c-4,0.7-8.3-3.1-9.4-7.9
		c-1.6-7.1,2.5-8.1,5.4-11.1l7-5"/>
	<path fill="none" stroke="#000300" stroke-miterlimit="10" d="M93.4-10.1c0.9-0.9,5.5-3.9,6.3-4.9"/>
</symbol>
<g id="Layer_1">
	<g>
		<path d="M59,298l4.4-11.5H65l4.7,11.5H68l-1.3-3.5h-4.8l-1.3,3.5H59z M62.3,293.3h3.9l-1.2-3.2c-0.4-1-0.6-1.8-0.8-2.4
			c-0.1,0.7-0.4,1.5-0.6,2.2L62.3,293.3z"/>
		<path d="M70.7,298v-11.5h1.4v6.5l3.3-3.4h1.8l-3.2,3.1l3.5,5.2h-1.7l-2.7-4.2l-1,1v3.3H70.7z"/>
		<path d="M81.8,296.7L82,298c-0.4,0.1-0.8,0.1-1.1,0.1c-0.5,0-0.9-0.1-1.2-0.2s-0.5-0.4-0.6-0.6c-0.1-0.3-0.2-0.8-0.2-1.7v-4.8h-1
			v-1.1h1v-2.1l1.4-0.8v2.9h1.4v1.1h-1.4v4.9c0,0.4,0,0.7,0.1,0.8c0,0.1,0.1,0.2,0.2,0.3c0.1,0.1,0.3,0.1,0.5,0.1
			C81.3,296.8,81.5,296.8,81.8,296.7z"/>
		<path d="M83.2,288.2v-1.6h1.4v1.6H83.2z M83.2,298v-8.3h1.4v8.3H83.2z"/>
		<path d="M86.2,293.9c0-1.5,0.4-2.7,1.3-3.4c0.7-0.6,1.6-0.9,2.6-0.9c1.1,0,2.1,0.4,2.8,1.1c0.7,0.7,1.1,1.8,1.1,3.1
			c0,1.1-0.2,1.9-0.5,2.5c-0.3,0.6-0.8,1.1-1.4,1.4c-0.6,0.3-1.3,0.5-2,0.5c-1.2,0-2.1-0.4-2.8-1.1
			C86.6,296.3,86.2,295.3,86.2,293.9z M87.6,293.9c0,1.1,0.2,1.9,0.7,2.4c0.5,0.5,1,0.8,1.8,0.8c0.7,0,1.3-0.3,1.7-0.8
			c0.5-0.5,0.7-1.3,0.7-2.4c0-1-0.2-1.8-0.7-2.3c-0.5-0.5-1-0.8-1.7-0.8c-0.7,0-1.3,0.3-1.8,0.8C87.9,292,87.6,292.8,87.6,293.9z"/>
		<path d="M95.6,298v-8.3h1.3v1.2c0.6-0.9,1.5-1.4,2.6-1.4c0.5,0,1,0.1,1.4,0.3c0.4,0.2,0.7,0.4,0.9,0.7c0.2,0.3,0.4,0.6,0.4,1
			c0.1,0.3,0.1,0.7,0.1,1.4v5.1H101v-5c0-0.6-0.1-1-0.2-1.3c-0.1-0.3-0.3-0.5-0.6-0.7c-0.3-0.2-0.6-0.3-1-0.3
			c-0.6,0-1.1,0.2-1.6,0.6c-0.4,0.4-0.7,1.1-0.7,2.2v4.5H95.6z"/>
		<path d="M110.2,295.3l1.5,0.2c-0.2,0.8-0.7,1.5-1.3,2c-0.6,0.5-1.4,0.7-2.4,0.7c-1.2,0-2.2-0.4-2.9-1.1c-0.7-0.7-1.1-1.8-1.1-3.1
			c0-1.4,0.4-2.5,1.1-3.3c0.7-0.8,1.7-1.2,2.8-1.2c1.1,0,2,0.4,2.7,1.1c0.7,0.8,1.1,1.8,1.1,3.2c0,0.1,0,0.2,0,0.4h-6.2
			c0.1,0.9,0.3,1.6,0.8,2.1c0.5,0.5,1,0.7,1.7,0.7c0.5,0,1-0.1,1.3-0.4C109.7,296.4,110,295.9,110.2,295.3z M105.6,293.1h4.6
			c-0.1-0.7-0.2-1.2-0.5-1.6c-0.4-0.5-1-0.8-1.7-0.8c-0.6,0-1.2,0.2-1.6,0.6C105.9,291.8,105.6,292.3,105.6,293.1z"/>
		<path d="M113.4,298v-8.3h1.3v1.2c0.6-0.9,1.5-1.4,2.6-1.4c0.5,0,1,0.1,1.4,0.3c0.4,0.2,0.7,0.4,0.9,0.7c0.2,0.3,0.4,0.6,0.4,1
			c0.1,0.3,0.1,0.7,0.1,1.4v5.1h-1.4v-5c0-0.6-0.1-1-0.2-1.3c-0.1-0.3-0.3-0.5-0.6-0.7c-0.3-0.2-0.6-0.3-1-0.3
			c-0.6,0-1.1,0.2-1.6,0.6c-0.4,0.4-0.7,1.1-0.7,2.2v4.5H113.4z"/>
		<path d="M126.8,288.2v-1.6h1.4v1.6H126.8z M126.8,298v-8.3h1.4v8.3H126.8z"/>
		<path d="M130.3,298v-8.3h1.3v1.2c0.3-0.4,0.6-0.7,1-1c0.4-0.2,0.9-0.4,1.5-0.4c0.6,0,1.1,0.1,1.5,0.4c0.4,0.3,0.7,0.6,0.8,1.1
			c0.7-1,1.5-1.5,2.6-1.5c0.8,0,1.5,0.2,1.9,0.7c0.4,0.5,0.7,1.2,0.7,2.1v5.7h-1.4v-5.2c0-0.6,0-1-0.1-1.2c-0.1-0.2-0.3-0.4-0.5-0.6
			c-0.2-0.2-0.5-0.2-0.8-0.2c-0.6,0-1.1,0.2-1.5,0.6c-0.4,0.4-0.6,1-0.6,1.9v4.8h-1.4v-5.4c0-0.6-0.1-1.1-0.3-1.4
			c-0.2-0.3-0.6-0.5-1.1-0.5c-0.4,0-0.8,0.1-1.1,0.3c-0.3,0.2-0.6,0.5-0.7,0.9c-0.2,0.4-0.2,1-0.2,1.7v4.3H130.3z"/>
		<path d="M153.5,297c-0.5,0.4-1,0.8-1.5,0.9c-0.5,0.2-1,0.3-1.6,0.3c-0.9,0-1.6-0.2-2.1-0.7c-0.5-0.4-0.7-1-0.7-1.7
			c0-0.4,0.1-0.8,0.3-1.1c0.2-0.3,0.4-0.6,0.7-0.8c0.3-0.2,0.6-0.4,1-0.5c0.3-0.1,0.7-0.1,1.3-0.2c1.1-0.1,2-0.3,2.5-0.5
			c0-0.2,0-0.3,0-0.4c0-0.6-0.1-1-0.4-1.2c-0.4-0.3-0.9-0.5-1.6-0.5c-0.7,0-1.1,0.1-1.5,0.3c-0.3,0.2-0.5,0.6-0.7,1.2l-1.4-0.2
			c0.1-0.6,0.3-1.1,0.6-1.4c0.3-0.4,0.7-0.6,1.2-0.8c0.5-0.2,1.2-0.3,1.9-0.3c0.7,0,1.3,0.1,1.7,0.3c0.4,0.2,0.8,0.4,1,0.6
			c0.2,0.3,0.4,0.6,0.4,1c0,0.2,0.1,0.7,0.1,1.3v1.9c0,1.3,0,2.1,0.1,2.5c0.1,0.3,0.2,0.7,0.4,1h-1.5
			C153.6,297.7,153.5,297.4,153.5,297z M153.4,293.8c-0.5,0.2-1.3,0.4-2.3,0.5c-0.6,0.1-1,0.2-1.2,0.3c-0.2,0.1-0.4,0.3-0.6,0.5
			c-0.1,0.2-0.2,0.4-0.2,0.7c0,0.4,0.1,0.7,0.4,0.9c0.3,0.3,0.7,0.4,1.2,0.4c0.5,0,1-0.1,1.4-0.4c0.4-0.2,0.7-0.6,0.9-1
			c0.2-0.3,0.2-0.8,0.2-1.4V293.8z"/>
		<path d="M157,298v-11.5h1.4v6.5l3.3-3.4h1.8l-3.2,3.1l3.5,5.2h-1.7l-2.7-4.2l-1,1v3.3H157z"/>
		<path d="M168.1,296.7l0.2,1.2c-0.4,0.1-0.8,0.1-1.1,0.1c-0.5,0-0.9-0.1-1.2-0.2s-0.5-0.4-0.6-0.6c-0.1-0.3-0.2-0.8-0.2-1.7v-4.8
			h-1v-1.1h1v-2.1l1.4-0.8v2.9h1.4v1.1h-1.4v4.9c0,0.4,0,0.7,0.1,0.8c0,0.1,0.1,0.2,0.2,0.3c0.1,0.1,0.3,0.1,0.5,0.1
			C167.6,296.8,167.8,296.8,168.1,296.7z"/>
		<path d="M174.9,298v-1.2c-0.6,0.9-1.5,1.4-2.6,1.4c-0.5,0-0.9-0.1-1.4-0.3c-0.4-0.2-0.7-0.4-0.9-0.7c-0.2-0.3-0.4-0.6-0.4-1
			c-0.1-0.3-0.1-0.7-0.1-1.3v-5.1h1.4v4.6c0,0.7,0,1.2,0.1,1.5c0.1,0.4,0.3,0.7,0.6,0.9c0.3,0.2,0.6,0.3,1.1,0.3s0.8-0.1,1.2-0.3
			c0.4-0.2,0.6-0.5,0.8-0.9c0.2-0.4,0.2-0.9,0.2-1.6v-4.4h1.4v8.3H174.9z"/>
		<path d="M184,295.3l1.5,0.2c-0.2,0.8-0.7,1.5-1.3,2c-0.6,0.5-1.4,0.7-2.4,0.7c-1.2,0-2.2-0.4-2.9-1.1c-0.7-0.7-1.1-1.8-1.1-3.1
			c0-1.4,0.4-2.5,1.1-3.3c0.7-0.8,1.7-1.2,2.8-1.2c1.1,0,2,0.4,2.7,1.1c0.7,0.8,1.1,1.8,1.1,3.2c0,0.1,0,0.2,0,0.4h-6.2
			c0.1,0.9,0.3,1.6,0.8,2.1c0.5,0.5,1,0.7,1.7,0.7c0.5,0,1-0.1,1.3-0.4C183.5,296.4,183.8,295.9,184,295.3z M179.4,293.1h4.6
			c-0.1-0.7-0.2-1.2-0.5-1.6c-0.4-0.5-1-0.8-1.7-0.8c-0.6,0-1.2,0.2-1.6,0.6C179.7,291.8,179.4,292.3,179.4,293.1z"/>
		<path d="M187.2,298v-11.5h1.4V298H187.2z"/>
		<path d="M190.8,298v-11.5h1.4V298H190.8z"/>
		<path d="M200,295.3l1.5,0.2c-0.2,0.8-0.7,1.5-1.3,2c-0.6,0.5-1.4,0.7-2.4,0.7c-1.2,0-2.2-0.4-2.9-1.1c-0.7-0.7-1.1-1.8-1.1-3.1
			c0-1.4,0.4-2.5,1.1-3.3c0.7-0.8,1.7-1.2,2.8-1.2c1.1,0,2,0.4,2.7,1.1c0.7,0.8,1.1,1.8,1.1,3.2c0,0.1,0,0.2,0,0.4h-6.2
			c0.1,0.9,0.3,1.6,0.8,2.1c0.5,0.5,1,0.7,1.7,0.7c0.5,0,1-0.1,1.3-0.4C199.5,296.4,199.8,295.9,200,295.3z M195.4,293.1h4.6
			c-0.1-0.7-0.2-1.2-0.5-1.6c-0.4-0.5-1-0.8-1.7-0.8c-0.6,0-1.2,0.2-1.6,0.6C195.7,291.8,195.5,292.3,195.4,293.1z"/>
		<path d="M203.2,298v-8.3h1.3v1.2c0.6-0.9,1.5-1.4,2.6-1.4c0.5,0,1,0.1,1.4,0.3c0.4,0.2,0.7,0.4,0.9,0.7c0.2,0.3,0.4,0.6,0.4,1
			c0.1,0.3,0.1,0.7,0.1,1.4v5.1h-1.4v-5c0-0.6-0.1-1-0.2-1.3c-0.1-0.3-0.3-0.5-0.6-0.7c-0.3-0.2-0.6-0.3-1-0.3
			c-0.6,0-1.1,0.2-1.6,0.6c-0.4,0.4-0.7,1.1-0.7,2.2v4.5H203.2z"/>
		<path d="M214.6,298l4.4-11.5h1.6l4.7,11.5h-1.7l-1.3-3.5h-4.8l-1.3,3.5H214.6z M217.9,293.3h3.9l-1.2-3.2c-0.4-1-0.6-1.8-0.8-2.4
			c-0.1,0.7-0.4,1.5-0.6,2.2L217.9,293.3z"/>
		<path d="M227.7,298h-1.3v-11.5h1.4v4.1c0.6-0.7,1.4-1.1,2.3-1.1c0.5,0,1,0.1,1.4,0.3c0.5,0.2,0.8,0.5,1.1,0.9
			c0.3,0.4,0.5,0.8,0.7,1.3c0.2,0.5,0.3,1.1,0.3,1.7c0,1.4-0.4,2.5-1.1,3.3c-0.7,0.8-1.5,1.2-2.5,1.2c-1,0-1.7-0.4-2.3-1.2V298z
			 M227.7,293.8c0,1,0.1,1.7,0.4,2.2c0.4,0.7,1,1.1,1.8,1.1c0.6,0,1.1-0.3,1.6-0.8c0.4-0.5,0.7-1.3,0.7-2.4c0-1.1-0.2-1.9-0.6-2.4
			s-0.9-0.8-1.6-0.8c-0.6,0-1.1,0.3-1.6,0.8C227.9,292,227.7,292.8,227.7,293.8z"/>
		<path d="M234.7,295.5l1.4-0.2c0.1,0.6,0.3,1,0.7,1.3c0.4,0.3,0.9,0.4,1.5,0.4c0.6,0,1.1-0.1,1.4-0.4c0.3-0.3,0.5-0.6,0.5-0.9
			c0-0.3-0.1-0.6-0.4-0.8c-0.2-0.1-0.7-0.3-1.4-0.5c-1-0.3-1.7-0.5-2.1-0.7c-0.4-0.2-0.7-0.5-0.9-0.8c-0.2-0.3-0.3-0.7-0.3-1.1
			c0-0.4,0.1-0.7,0.3-1c0.2-0.3,0.4-0.6,0.7-0.8c0.2-0.2,0.5-0.3,0.9-0.4c0.4-0.1,0.8-0.2,1.2-0.2c0.7,0,1.2,0.1,1.7,0.3
			s0.9,0.4,1.1,0.8s0.4,0.7,0.5,1.3l-1.4,0.2c-0.1-0.4-0.2-0.8-0.5-1c-0.3-0.2-0.7-0.4-1.3-0.4c-0.6,0-1.1,0.1-1.4,0.3
			c-0.3,0.2-0.4,0.5-0.4,0.8c0,0.2,0.1,0.3,0.2,0.5c0.1,0.2,0.3,0.3,0.5,0.4c0.1,0.1,0.6,0.2,1.2,0.4c1,0.3,1.7,0.5,2.1,0.7
			c0.4,0.2,0.7,0.4,0.9,0.7c0.2,0.3,0.3,0.7,0.3,1.2c0,0.5-0.1,0.9-0.4,1.3s-0.7,0.7-1.2,1s-1.1,0.3-1.8,0.3c-1.1,0-1.9-0.2-2.5-0.7
			C235.2,297.1,234.9,296.4,234.7,295.5z"/>
		<path d="M248.7,295l1.4,0.2c-0.2,1-0.5,1.7-1.2,2.2c-0.6,0.5-1.4,0.8-2.3,0.8c-1.1,0-2-0.4-2.7-1.1c-0.7-0.7-1-1.8-1-3.2
			c0-0.9,0.1-1.7,0.4-2.4s0.7-1.2,1.4-1.5c0.6-0.3,1.3-0.5,2-0.5c0.9,0,1.6,0.2,2.2,0.7c0.6,0.5,0.9,1.1,1.1,1.9l-1.4,0.2
			c-0.1-0.6-0.4-1-0.7-1.3c-0.3-0.3-0.7-0.4-1.2-0.4c-0.7,0-1.3,0.3-1.7,0.8c-0.4,0.5-0.7,1.3-0.7,2.4c0,1.1,0.2,1.9,0.6,2.4
			c0.4,0.5,1,0.8,1.7,0.8c0.6,0,1-0.2,1.4-0.5C248.4,296.2,248.6,295.7,248.7,295z"/>
		<path d="M251.3,298v-11.5h1.4v4.1c0.7-0.8,1.5-1.1,2.5-1.1c0.6,0,1.1,0.1,1.6,0.4s0.8,0.6,1,1c0.2,0.4,0.3,1,0.3,1.9v5.3h-1.4
			v-5.3c0-0.7-0.2-1.2-0.5-1.5s-0.7-0.5-1.3-0.5c-0.4,0-0.8,0.1-1.2,0.3c-0.4,0.2-0.6,0.5-0.8,0.9c-0.2,0.4-0.2,0.9-0.2,1.5v4.5
			H251.3z"/>
		<path d="M260.2,298v-8.3h1.3v1.2c0.6-0.9,1.5-1.4,2.6-1.4c0.5,0,1,0.1,1.4,0.3c0.4,0.2,0.7,0.4,0.9,0.7c0.2,0.3,0.4,0.6,0.4,1
			c0.1,0.3,0.1,0.7,0.1,1.4v5.1h-1.4v-5c0-0.6-0.1-1-0.2-1.3c-0.1-0.3-0.3-0.5-0.6-0.7c-0.3-0.2-0.6-0.3-1-0.3
			c-0.6,0-1.1,0.2-1.6,0.6c-0.4,0.4-0.7,1.1-0.7,2.2v4.5H260.2z"/>
		<path d="M269.1,288.2v-1.6h1.4v1.6H269.1z M269.1,298v-8.3h1.4v8.3H269.1z"/>
		<path d="M275.7,296.7l0.2,1.2c-0.4,0.1-0.8,0.1-1.1,0.1c-0.5,0-0.9-0.1-1.2-0.2s-0.5-0.4-0.6-0.6c-0.1-0.3-0.2-0.8-0.2-1.7v-4.8
			h-1v-1.1h1v-2.1l1.4-0.8v2.9h1.4v1.1h-1.4v4.9c0,0.4,0,0.7,0.1,0.8c0,0.1,0.1,0.2,0.2,0.3c0.1,0.1,0.3,0.1,0.5,0.1
			C275.2,296.8,275.4,296.8,275.7,296.7z"/>
		<path d="M280.1,296.7l0.2,1.2c-0.4,0.1-0.8,0.1-1.1,0.1c-0.5,0-0.9-0.1-1.2-0.2s-0.5-0.4-0.6-0.6c-0.1-0.3-0.2-0.8-0.2-1.7v-4.8
			h-1v-1.1h1v-2.1l1.4-0.8v2.9h1.4v1.1h-1.4v4.9c0,0.4,0,0.7,0.1,0.8c0,0.1,0.1,0.2,0.2,0.3c0.1,0.1,0.3,0.1,0.5,0.1
			C279.7,296.8,279.9,296.8,280.1,296.7z"/>
	</g>
	<g>
		<g>
			<path fill="none" stroke="#000000" stroke-miterlimit="10" d="M287,292c0,0,23.2,5.9,33.4-32.9"/>
			<g>
				<polygon points="323.4,263.4 322.5,263.8 320.3,259.4 316,261.9 315.5,261.1 320.7,258 				"/>
			</g>
		</g>
	</g>
	<g>
		<path d="M347.3,158v-1.4l5.9-7.3c0.4-0.5,0.8-1,1.2-1.4H348v-1.4h8.2v1.4l-6.4,7.9l-0.7,0.8h7.3v1.4H347.3z"/>
		<path d="M363.3,158v-1.2c-0.6,0.9-1.5,1.4-2.6,1.4c-0.5,0-0.9-0.1-1.4-0.3c-0.4-0.2-0.7-0.4-0.9-0.7c-0.2-0.3-0.4-0.6-0.4-1
			c-0.1-0.3-0.1-0.7-0.1-1.3v-5.1h1.4v4.6c0,0.7,0,1.2,0.1,1.5c0.1,0.4,0.3,0.7,0.6,0.9c0.3,0.2,0.6,0.3,1.1,0.3s0.8-0.1,1.2-0.3
			c0.4-0.2,0.6-0.5,0.8-0.9c0.2-0.4,0.2-0.9,0.2-1.6v-4.4h1.4v8.3H363.3z"/>
		<path d="M366.5,158.7l1.4,0.2c0.1,0.4,0.2,0.7,0.5,0.9c0.3,0.3,0.8,0.4,1.4,0.4c0.7,0,1.2-0.1,1.5-0.4c0.4-0.3,0.6-0.6,0.7-1.1
			c0.1-0.3,0.1-0.9,0.1-1.8c-0.6,0.7-1.4,1.1-2.3,1.1c-1.1,0-2-0.4-2.6-1.2c-0.6-0.8-0.9-1.8-0.9-3c0-0.8,0.1-1.5,0.4-2.2
			c0.3-0.7,0.7-1.2,1.2-1.6c0.5-0.4,1.2-0.5,1.9-0.5c1,0,1.8,0.4,2.4,1.2v-1h1.3v7.2c0,1.3-0.1,2.2-0.4,2.7c-0.3,0.5-0.7,1-1.3,1.3
			s-1.3,0.5-2.1,0.5c-1,0-1.8-0.2-2.4-0.7S366.4,159.6,366.5,158.7z M367.6,153.7c0,1.1,0.2,1.9,0.6,2.4c0.4,0.5,1,0.8,1.6,0.8
			c0.6,0,1.2-0.2,1.6-0.7c0.4-0.5,0.7-1.3,0.7-2.3c0-1-0.2-1.8-0.7-2.3c-0.5-0.5-1-0.8-1.6-0.8c-0.6,0-1.2,0.3-1.6,0.8
			S367.6,152.7,367.6,153.7z"/>
		<path d="M375.6,158v-8.3h1.3v1.3c0.3-0.6,0.6-1,0.9-1.2s0.6-0.3,0.9-0.3c0.5,0,1,0.2,1.4,0.5l-0.5,1.3c-0.3-0.2-0.7-0.3-1-0.3
			c-0.3,0-0.6,0.1-0.8,0.3c-0.2,0.2-0.4,0.4-0.5,0.8c-0.2,0.5-0.2,1-0.2,1.6v4.3H375.6z"/>
		<path d="M381,148.2v-1.6h1.4v1.6H381z M381,158v-8.3h1.4v8.3H381z"/>
		<path d="M384.8,158v-7.2h-1.2v-1.1h1.2v-0.9c0-0.6,0-1,0.1-1.2c0.1-0.4,0.4-0.7,0.7-0.9c0.3-0.2,0.8-0.3,1.4-0.3
			c0.4,0,0.8,0,1.3,0.1l-0.2,1.2c-0.3-0.1-0.6-0.1-0.8-0.1c-0.4,0-0.7,0.1-0.9,0.3c-0.2,0.2-0.3,0.5-0.3,1v0.8h1.6v1.1h-1.6v7.2
			H384.8z"/>
		<path d="M389,158v-7.2h-1.2v-1.1h1.2v-0.9c0-0.6,0-1,0.1-1.2c0.1-0.4,0.4-0.7,0.7-0.9c0.3-0.2,0.8-0.3,1.4-0.3
			c0.4,0,0.8,0,1.3,0.1l-0.2,1.2c-0.3-0.1-0.6-0.1-0.8-0.1c-0.4,0-0.7,0.1-0.9,0.3c-0.2,0.2-0.3,0.5-0.3,1v0.8h1.6v1.1h-1.6v7.2H389
			z"/>
		<path d="M403,157c-0.5,0.4-1,0.8-1.5,0.9c-0.5,0.2-1,0.3-1.6,0.3c-0.9,0-1.6-0.2-2.1-0.7c-0.5-0.4-0.7-1-0.7-1.7
			c0-0.4,0.1-0.8,0.3-1.1c0.2-0.3,0.4-0.6,0.7-0.8c0.3-0.2,0.6-0.4,1-0.5c0.3-0.1,0.7-0.1,1.3-0.2c1.1-0.1,2-0.3,2.5-0.5
			c0-0.2,0-0.3,0-0.4c0-0.6-0.1-1-0.4-1.2c-0.4-0.3-0.9-0.5-1.6-0.5c-0.7,0-1.1,0.1-1.5,0.3c-0.3,0.2-0.5,0.6-0.7,1.2l-1.4-0.2
			c0.1-0.6,0.3-1.1,0.6-1.4c0.3-0.4,0.7-0.6,1.2-0.8c0.5-0.2,1.2-0.3,1.9-0.3c0.7,0,1.3,0.1,1.7,0.3c0.4,0.2,0.8,0.4,1,0.6
			c0.2,0.3,0.4,0.6,0.4,1c0,0.2,0.1,0.7,0.1,1.3v1.9c0,1.3,0,2.1,0.1,2.5c0.1,0.3,0.2,0.7,0.4,1h-1.5C403.1,157.7,403,157.4,403,157
			z M402.9,153.8c-0.5,0.2-1.3,0.4-2.3,0.5c-0.6,0.1-1,0.2-1.2,0.3c-0.2,0.1-0.4,0.3-0.6,0.5c-0.1,0.2-0.2,0.4-0.2,0.7
			c0,0.4,0.1,0.7,0.4,0.9c0.3,0.3,0.7,0.4,1.2,0.4c0.5,0,1-0.1,1.4-0.4c0.4-0.2,0.7-0.6,0.9-1c0.2-0.3,0.2-0.8,0.2-1.4V153.8z"/>
		<path d="M411.9,158v-1.2c-0.6,0.9-1.5,1.4-2.6,1.4c-0.5,0-0.9-0.1-1.4-0.3c-0.4-0.2-0.7-0.4-0.9-0.7c-0.2-0.3-0.4-0.6-0.4-1
			c-0.1-0.3-0.1-0.7-0.1-1.3v-5.1h1.4v4.6c0,0.7,0,1.2,0.1,1.5c0.1,0.4,0.3,0.7,0.6,0.9c0.3,0.2,0.6,0.3,1.1,0.3s0.8-0.1,1.2-0.3
			c0.4-0.2,0.6-0.5,0.8-0.9c0.2-0.4,0.2-0.9,0.2-1.6v-4.4h1.4v8.3H411.9z"/>
		<path d="M415.7,158v-7.2h-1.2v-1.1h1.2v-0.9c0-0.6,0-1,0.1-1.2c0.1-0.4,0.4-0.7,0.7-0.9c0.3-0.2,0.8-0.3,1.4-0.3
			c0.4,0,0.8,0,1.3,0.1l-0.2,1.2c-0.3-0.1-0.6-0.1-0.8-0.1c-0.4,0-0.7,0.1-0.9,0.3c-0.2,0.2-0.3,0.5-0.3,1v0.8h1.6v1.1h-1.6v7.2
			H415.7z"/>
		<path d="M429.7,157c-0.5,0.4-1,0.8-1.5,0.9c-0.5,0.2-1,0.3-1.6,0.3c-0.9,0-1.6-0.2-2.1-0.7c-0.5-0.4-0.7-1-0.7-1.7
			c0-0.4,0.1-0.8,0.3-1.1c0.2-0.3,0.4-0.6,0.7-0.8c0.3-0.2,0.6-0.4,1-0.5c0.3-0.1,0.7-0.1,1.3-0.2c1.1-0.1,2-0.3,2.5-0.5
			c0-0.2,0-0.3,0-0.4c0-0.6-0.1-1-0.4-1.2c-0.4-0.3-0.9-0.5-1.6-0.5c-0.7,0-1.1,0.1-1.5,0.3c-0.3,0.2-0.5,0.6-0.7,1.2l-1.4-0.2
			c0.1-0.6,0.3-1.1,0.6-1.4c0.3-0.4,0.7-0.6,1.2-0.8c0.5-0.2,1.2-0.3,1.9-0.3c0.7,0,1.3,0.1,1.7,0.3c0.4,0.2,0.8,0.4,1,0.6
			c0.2,0.3,0.4,0.6,0.4,1c0,0.2,0.1,0.7,0.1,1.3v1.9c0,1.3,0,2.1,0.1,2.5c0.1,0.3,0.2,0.7,0.4,1h-1.5
			C429.8,157.7,429.7,157.4,429.7,157z M429.5,153.8c-0.5,0.2-1.3,0.4-2.3,0.5c-0.6,0.1-1,0.2-1.2,0.3c-0.2,0.1-0.4,0.3-0.6,0.5
			c-0.1,0.2-0.2,0.4-0.2,0.7c0,0.4,0.1,0.7,0.4,0.9c0.3,0.3,0.7,0.4,1.2,0.4c0.5,0,1-0.1,1.4-0.4c0.4-0.2,0.7-0.6,0.9-1
			c0.2-0.3,0.2-0.8,0.2-1.4V153.8z"/>
		<path d="M433.1,158v-8.3h1.3v1.2c0.6-0.9,1.5-1.4,2.6-1.4c0.5,0,1,0.1,1.4,0.3c0.4,0.2,0.7,0.4,0.9,0.7c0.2,0.3,0.4,0.6,0.4,1
			c0.1,0.3,0.1,0.7,0.1,1.4v5.1h-1.4v-5c0-0.6-0.1-1-0.2-1.3c-0.1-0.3-0.3-0.5-0.6-0.7c-0.3-0.2-0.6-0.3-1-0.3
			c-0.6,0-1.1,0.2-1.6,0.6c-0.4,0.4-0.7,1.1-0.7,2.2v4.5H433.1z"/>
		<path d="M447.4,158v-1c-0.5,0.8-1.3,1.2-2.3,1.2c-0.7,0-1.3-0.2-1.8-0.5s-1-0.9-1.3-1.5c-0.3-0.7-0.5-1.4-0.5-2.3
			c0-0.8,0.1-1.6,0.4-2.3c0.3-0.7,0.7-1.2,1.2-1.6c0.6-0.4,1.2-0.5,1.9-0.5c0.5,0,0.9,0.1,1.3,0.3s0.7,0.5,1,0.8v-4.1h1.4V158H447.4
			z M443,153.9c0,1.1,0.2,1.9,0.7,2.4c0.4,0.5,1,0.8,1.6,0.8c0.6,0,1.1-0.3,1.6-0.8c0.4-0.5,0.6-1.3,0.6-2.3c0-1.1-0.2-2-0.7-2.5
			s-1-0.8-1.6-0.8c-0.6,0-1.1,0.3-1.6,0.8C443.2,152,443,152.8,443,153.9z"/>
		<path d="M456.6,155.3l1.5,0.2c-0.2,0.8-0.7,1.5-1.3,2c-0.6,0.5-1.4,0.7-2.4,0.7c-1.2,0-2.2-0.4-2.9-1.1c-0.7-0.7-1.1-1.8-1.1-3.1
			c0-1.4,0.4-2.5,1.1-3.3c0.7-0.8,1.7-1.2,2.8-1.2c1.1,0,2,0.4,2.7,1.1c0.7,0.8,1.1,1.8,1.1,3.2c0,0.1,0,0.2,0,0.4h-6.2
			c0.1,0.9,0.3,1.6,0.8,2.1c0.5,0.5,1,0.7,1.7,0.7c0.5,0,1-0.1,1.3-0.4C456.1,156.4,456.4,155.9,456.6,155.3z M452,153.1h4.6
			c-0.1-0.7-0.2-1.2-0.5-1.6c-0.4-0.5-1-0.8-1.7-0.8c-0.6,0-1.2,0.2-1.6,0.6C452.3,151.8,452,152.3,452,153.1z"/>
		<path d="M459.8,158v-8.3h1.3v1.3c0.3-0.6,0.6-1,0.9-1.2s0.6-0.3,0.9-0.3c0.5,0,1,0.2,1.4,0.5l-0.5,1.3c-0.3-0.2-0.7-0.3-1-0.3
			c-0.3,0-0.6,0.1-0.8,0.3c-0.2,0.2-0.4,0.4-0.5,0.8c-0.2,0.5-0.2,1-0.2,1.6v4.3H459.8z"/>
		<path d="M470.8,155.3l1.5,0.2c-0.2,0.8-0.7,1.5-1.3,2c-0.6,0.5-1.4,0.7-2.4,0.7c-1.2,0-2.2-0.4-2.9-1.1c-0.7-0.7-1.1-1.8-1.1-3.1
			c0-1.4,0.4-2.5,1.1-3.3c0.7-0.8,1.7-1.2,2.8-1.2c1.1,0,2,0.4,2.7,1.1c0.7,0.8,1.1,1.8,1.1,3.2c0,0.1,0,0.2,0,0.4h-6.2
			c0.1,0.9,0.3,1.6,0.8,2.1c0.5,0.5,1,0.7,1.7,0.7c0.5,0,1-0.1,1.3-0.4C470.3,156.4,470.6,155.9,470.8,155.3z M466.2,153.1h4.6
			c-0.1-0.7-0.2-1.2-0.5-1.6c-0.4-0.5-1-0.8-1.7-0.8c-0.6,0-1.2,0.2-1.6,0.6C466.5,151.8,466.3,152.3,466.2,153.1z"/>
		<path d="M347,177.2l4.4-11.5h1.6l4.7,11.5H356l-1.3-3.5h-4.8l-1.3,3.5H347z M350.3,172.5h3.9l-1.2-3.2c-0.4-1-0.6-1.8-0.8-2.4
			c-0.1,0.7-0.4,1.5-0.6,2.2L350.3,172.5z"/>
		<path d="M360,177.2h-1.3v-11.5h1.4v4.1c0.6-0.7,1.4-1.1,2.3-1.1c0.5,0,1,0.1,1.4,0.3c0.5,0.2,0.8,0.5,1.1,0.9
			c0.3,0.4,0.5,0.8,0.7,1.3c0.2,0.5,0.3,1.1,0.3,1.7c0,1.4-0.4,2.5-1.1,3.3s-1.5,1.2-2.5,1.2c-1,0-1.7-0.4-2.3-1.2V177.2z M360,173
			c0,1,0.1,1.7,0.4,2.2c0.4,0.7,1,1.1,1.8,1.1c0.6,0,1.1-0.3,1.6-0.8c0.4-0.5,0.7-1.3,0.7-2.4c0-1.1-0.2-1.9-0.6-2.4
			s-0.9-0.8-1.6-0.8c-0.6,0-1.1,0.3-1.6,0.8C360.2,171.2,360,172,360,173z"/>
		<path d="M367.1,174.7l1.4-0.2c0.1,0.6,0.3,1,0.7,1.3c0.4,0.3,0.9,0.4,1.5,0.4c0.6,0,1.1-0.1,1.4-0.4s0.5-0.6,0.5-0.9
			c0-0.3-0.1-0.6-0.4-0.8c-0.2-0.1-0.7-0.3-1.4-0.5c-1-0.3-1.7-0.5-2.1-0.7s-0.7-0.5-0.9-0.8c-0.2-0.3-0.3-0.7-0.3-1.1
			c0-0.4,0.1-0.7,0.3-1c0.2-0.3,0.4-0.6,0.7-0.8c0.2-0.2,0.5-0.3,0.9-0.4c0.4-0.1,0.8-0.2,1.2-0.2c0.7,0,1.2,0.1,1.7,0.3
			s0.9,0.4,1.1,0.8s0.4,0.7,0.5,1.3l-1.4,0.2c-0.1-0.4-0.2-0.8-0.5-1c-0.3-0.2-0.7-0.4-1.3-0.4c-0.6,0-1.1,0.1-1.4,0.3
			c-0.3,0.2-0.4,0.5-0.4,0.8c0,0.2,0.1,0.3,0.2,0.5c0.1,0.2,0.3,0.3,0.5,0.4c0.1,0.1,0.6,0.2,1.2,0.4c1,0.3,1.7,0.5,2.1,0.7
			c0.4,0.2,0.7,0.4,0.9,0.7c0.2,0.3,0.3,0.7,0.3,1.2c0,0.5-0.1,0.9-0.4,1.3s-0.7,0.7-1.2,1s-1.1,0.3-1.8,0.3c-1.1,0-1.9-0.2-2.5-0.7
			C367.6,176.3,367.2,175.6,367.1,174.7z"/>
		<path d="M381,174.2l1.4,0.2c-0.2,1-0.5,1.7-1.2,2.2c-0.6,0.5-1.4,0.8-2.3,0.8c-1.1,0-2-0.4-2.7-1.1c-0.7-0.7-1-1.8-1-3.2
			c0-0.9,0.1-1.7,0.4-2.4s0.7-1.2,1.4-1.5c0.6-0.3,1.3-0.5,2-0.5c0.9,0,1.6,0.2,2.2,0.7c0.6,0.5,0.9,1.1,1.1,1.9l-1.4,0.2
			c-0.1-0.6-0.4-1-0.7-1.3c-0.3-0.3-0.7-0.4-1.2-0.4c-0.7,0-1.3,0.3-1.7,0.8c-0.4,0.5-0.7,1.3-0.7,2.4c0,1.1,0.2,1.9,0.6,2.4
			c0.4,0.5,1,0.8,1.7,0.8c0.6,0,1-0.2,1.4-0.5C380.7,175.4,380.9,174.9,381,174.2z"/>
		<path d="M383.6,177.2v-11.5h1.4v4.1c0.7-0.8,1.5-1.1,2.5-1.1c0.6,0,1.1,0.1,1.6,0.4s0.8,0.6,1,1s0.3,1,0.3,1.9v5.3H389v-5.3
			c0-0.7-0.2-1.2-0.5-1.5s-0.7-0.5-1.3-0.5c-0.4,0-0.8,0.1-1.2,0.3s-0.6,0.5-0.8,0.9s-0.2,0.9-0.2,1.5v4.5H383.6z"/>
		<path d="M392.5,177.2v-8.3h1.3v1.2c0.6-0.9,1.5-1.4,2.6-1.4c0.5,0,1,0.1,1.4,0.3c0.4,0.2,0.7,0.4,0.9,0.7c0.2,0.3,0.4,0.6,0.4,1
			c0.1,0.3,0.1,0.7,0.1,1.4v5.1h-1.4v-5c0-0.6-0.1-1-0.2-1.3s-0.3-0.5-0.6-0.7c-0.3-0.2-0.6-0.3-1-0.3c-0.6,0-1.1,0.2-1.6,0.6
			c-0.4,0.4-0.7,1.1-0.7,2.2v4.5H392.5z"/>
		<path d="M401.4,167.4v-1.6h1.4v1.6H401.4z M401.4,177.2v-8.3h1.4v8.3H401.4z"/>
		<path d="M408,175.9l0.2,1.2c-0.4,0.1-0.8,0.1-1.1,0.1c-0.5,0-0.9-0.1-1.2-0.2s-0.5-0.4-0.6-0.6c-0.1-0.3-0.2-0.8-0.2-1.7V170h-1
			v-1.1h1v-2.1l1.4-0.8v2.9h1.4v1.1h-1.4v4.9c0,0.4,0,0.7,0.1,0.8c0,0.1,0.1,0.2,0.2,0.3c0.1,0.1,0.3,0.1,0.5,0.1
			C407.6,176,407.8,176,408,175.9z"/>
		<path d="M412.5,175.9l0.2,1.2c-0.4,0.1-0.8,0.1-1.1,0.1c-0.5,0-0.9-0.1-1.2-0.2s-0.5-0.4-0.6-0.6c-0.1-0.3-0.2-0.8-0.2-1.7V170h-1
			v-1.1h1v-2.1l1.4-0.8v2.9h1.4v1.1h-1.4v4.9c0,0.4,0,0.7,0.1,0.8c0,0.1,0.1,0.2,0.2,0.3c0.1,0.1,0.3,0.1,0.5,0.1
			C412,176,412.2,176,412.5,175.9z"/>
		<path d="M419.5,174.5l1.5,0.2c-0.2,0.8-0.7,1.5-1.3,2c-0.6,0.5-1.4,0.7-2.4,0.7c-1.2,0-2.2-0.4-2.9-1.1s-1.1-1.8-1.1-3.1
			c0-1.4,0.4-2.5,1.1-3.3s1.7-1.2,2.8-1.2c1.1,0,2,0.4,2.7,1.1s1.1,1.8,1.1,3.2c0,0.1,0,0.2,0,0.4h-6.2c0.1,0.9,0.3,1.6,0.8,2.1
			c0.5,0.5,1,0.7,1.7,0.7c0.5,0,1-0.1,1.3-0.4C419,175.6,419.3,175.1,419.5,174.5z M414.9,172.3h4.6c-0.1-0.7-0.2-1.2-0.5-1.6
			c-0.4-0.5-1-0.8-1.7-0.8c-0.6,0-1.2,0.2-1.6,0.6C415.2,171,415,171.5,414.9,172.3z"/>
	</g>
	<g>
		<g>
			<path fill="none" stroke="#000000" stroke-miterlimit="10" d="M341.8,162.5c0,0-16.9,1.3-28.6,23.2"/>
			<g>
				<polygon points="311.3,180.8 312.3,180.6 313.4,185.4 318.1,183.9 318.4,184.8 312.7,186.7 				"/>
			</g>
		</g>
	</g>
	<g>
		<path d="M24,169l4.4-11.5H30l4.7,11.5H33l-1.3-3.5h-4.8l-1.3,3.5H24z M27.3,164.3h3.9l-1.2-3.2c-0.4-1-0.6-1.8-0.8-2.4
			c-0.1,0.7-0.4,1.5-0.6,2.2L27.3,164.3z"/>
		<path d="M37,169h-1.3v-11.5h1.4v4.1c0.6-0.7,1.4-1.1,2.3-1.1c0.5,0,1,0.1,1.4,0.3c0.5,0.2,0.8,0.5,1.1,0.9
			c0.3,0.4,0.5,0.8,0.7,1.3c0.2,0.5,0.3,1.1,0.3,1.7c0,1.4-0.4,2.5-1.1,3.3c-0.7,0.8-1.5,1.2-2.5,1.2c-1,0-1.7-0.4-2.3-1.2V169z
			 M37,164.8c0,1,0.1,1.7,0.4,2.2c0.4,0.7,1,1.1,1.8,1.1c0.6,0,1.1-0.3,1.6-0.8c0.4-0.5,0.7-1.3,0.7-2.4c0-1.1-0.2-1.9-0.6-2.4
			s-0.9-0.8-1.6-0.8c-0.6,0-1.1,0.3-1.6,0.8C37.2,163,37,163.8,37,164.8z"/>
		<path d="M44.1,166.5l1.4-0.2c0.1,0.6,0.3,1,0.7,1.3c0.4,0.3,0.9,0.4,1.5,0.4c0.6,0,1.1-0.1,1.4-0.4c0.3-0.3,0.5-0.6,0.5-0.9
			c0-0.3-0.1-0.6-0.4-0.8c-0.2-0.1-0.7-0.3-1.4-0.5c-1-0.3-1.7-0.5-2.1-0.7c-0.4-0.2-0.7-0.5-0.9-0.8c-0.2-0.3-0.3-0.7-0.3-1.1
			c0-0.4,0.1-0.7,0.3-1c0.2-0.3,0.4-0.6,0.7-0.8c0.2-0.2,0.5-0.3,0.9-0.4c0.4-0.1,0.8-0.2,1.2-0.2c0.7,0,1.2,0.1,1.7,0.3
			s0.9,0.4,1.1,0.8s0.4,0.7,0.5,1.3l-1.4,0.2c-0.1-0.4-0.2-0.8-0.5-1c-0.3-0.2-0.7-0.4-1.3-0.4c-0.6,0-1.1,0.1-1.4,0.3
			c-0.3,0.2-0.4,0.5-0.4,0.8c0,0.2,0.1,0.3,0.2,0.5c0.1,0.2,0.3,0.3,0.5,0.4c0.1,0.1,0.6,0.2,1.2,0.4c1,0.3,1.7,0.5,2.1,0.7
			c0.4,0.2,0.7,0.4,0.9,0.7c0.2,0.3,0.3,0.7,0.3,1.2c0,0.5-0.1,0.9-0.4,1.3s-0.7,0.7-1.2,1s-1.1,0.3-1.8,0.3c-1.1,0-1.9-0.2-2.5-0.7
			C44.6,168.1,44.2,167.4,44.1,166.5z"/>
		<path d="M58,166l1.4,0.2c-0.2,1-0.5,1.7-1.2,2.2c-0.6,0.5-1.4,0.8-2.3,0.8c-1.1,0-2-0.4-2.7-1.1c-0.7-0.7-1-1.8-1-3.2
			c0-0.9,0.1-1.7,0.4-2.4s0.7-1.2,1.4-1.5c0.6-0.3,1.3-0.5,2-0.5c0.9,0,1.6,0.2,2.2,0.7c0.6,0.5,0.9,1.1,1.1,1.9l-1.4,0.2
			c-0.1-0.6-0.4-1-0.7-1.3c-0.3-0.3-0.7-0.4-1.2-0.4c-0.7,0-1.3,0.3-1.7,0.8c-0.4,0.5-0.7,1.3-0.7,2.4c0,1.1,0.2,1.9,0.6,2.4
			c0.4,0.5,1,0.8,1.7,0.8c0.6,0,1-0.2,1.4-0.5C57.7,167.2,57.9,166.7,58,166z"/>
		<path d="M60.6,169v-11.5H62v4.1c0.7-0.8,1.5-1.1,2.5-1.1c0.6,0,1.1,0.1,1.6,0.4s0.8,0.6,1,1c0.2,0.4,0.3,1,0.3,1.9v5.3H66v-5.3
			c0-0.7-0.2-1.2-0.5-1.5s-0.7-0.5-1.3-0.5c-0.4,0-0.8,0.1-1.2,0.3c-0.4,0.2-0.6,0.5-0.8,0.9c-0.2,0.4-0.2,0.9-0.2,1.5v4.5H60.6z"/>
		<path d="M69.5,169v-8.3h1.3v1.2c0.6-0.9,1.5-1.4,2.6-1.4c0.5,0,1,0.1,1.4,0.3c0.4,0.2,0.7,0.4,0.9,0.7c0.2,0.3,0.4,0.6,0.4,1
			c0.1,0.3,0.1,0.7,0.1,1.4v5.1h-1.4v-5c0-0.6-0.1-1-0.2-1.3c-0.1-0.3-0.3-0.5-0.6-0.7c-0.3-0.2-0.6-0.3-1-0.3
			c-0.6,0-1.1,0.2-1.6,0.6c-0.4,0.4-0.7,1.1-0.7,2.2v4.5H69.5z"/>
		<path d="M78.4,159.2v-1.6h1.4v1.6H78.4z M78.4,169v-8.3h1.4v8.3H78.4z"/>
		<path d="M85,167.7l0.2,1.2c-0.4,0.1-0.8,0.1-1.1,0.1c-0.5,0-0.9-0.1-1.2-0.2s-0.5-0.4-0.6-0.6c-0.1-0.3-0.2-0.8-0.2-1.7v-4.8h-1
			v-1.1h1v-2.1l1.4-0.8v2.9H85v1.1h-1.4v4.9c0,0.4,0,0.7,0.1,0.8c0,0.1,0.1,0.2,0.2,0.3c0.1,0.1,0.3,0.1,0.5,0.1
			C84.6,167.8,84.8,167.8,85,167.7z"/>
		<path d="M89.5,167.7l0.2,1.2c-0.4,0.1-0.8,0.1-1.1,0.1c-0.5,0-0.9-0.1-1.2-0.2s-0.5-0.4-0.6-0.6c-0.1-0.3-0.2-0.8-0.2-1.7v-4.8h-1
			v-1.1h1v-2.1l1.4-0.8v2.9h1.4v1.1h-1.4v4.9c0,0.4,0,0.7,0.1,0.8c0,0.1,0.1,0.2,0.2,0.3c0.1,0.1,0.3,0.1,0.5,0.1
			C89,167.8,89.2,167.8,89.5,167.7z"/>
		<path d="M90.3,166.5l1.4-0.2c0.1,0.6,0.3,1,0.7,1.3c0.4,0.3,0.9,0.4,1.5,0.4c0.6,0,1.1-0.1,1.4-0.4c0.3-0.3,0.5-0.6,0.5-0.9
			c0-0.3-0.1-0.6-0.4-0.8c-0.2-0.1-0.7-0.3-1.4-0.5c-1-0.3-1.7-0.5-2.1-0.7c-0.4-0.2-0.7-0.5-0.9-0.8c-0.2-0.3-0.3-0.7-0.3-1.1
			c0-0.4,0.1-0.7,0.3-1c0.2-0.3,0.4-0.6,0.7-0.8c0.2-0.2,0.5-0.3,0.9-0.4c0.4-0.1,0.8-0.2,1.2-0.2c0.7,0,1.2,0.1,1.7,0.3
			s0.9,0.4,1.1,0.8s0.4,0.7,0.5,1.3l-1.4,0.2c-0.1-0.4-0.2-0.8-0.5-1c-0.3-0.2-0.7-0.4-1.3-0.4c-0.6,0-1.1,0.1-1.4,0.3
			c-0.3,0.2-0.4,0.5-0.4,0.8c0,0.2,0.1,0.3,0.2,0.5c0.1,0.2,0.3,0.3,0.5,0.4c0.1,0.1,0.6,0.2,1.2,0.4c1,0.3,1.7,0.5,2.1,0.7
			c0.4,0.2,0.7,0.4,0.9,0.7c0.2,0.3,0.3,0.7,0.3,1.2c0,0.5-0.1,0.9-0.4,1.3s-0.7,0.7-1.2,1s-1.1,0.3-1.8,0.3c-1.1,0-1.9-0.2-2.5-0.7
			C90.8,168.1,90.5,167.4,90.3,166.5z"/>
		<path d="M98.9,169v-8.3h1.3v1.2c0.6-0.9,1.5-1.4,2.6-1.4c0.5,0,1,0.1,1.4,0.3c0.4,0.2,0.7,0.4,0.9,0.7c0.2,0.3,0.4,0.6,0.4,1
			c0.1,0.3,0.1,0.7,0.1,1.4v5.1h-1.4v-5c0-0.6-0.1-1-0.2-1.3c-0.1-0.3-0.3-0.5-0.6-0.7c-0.3-0.2-0.6-0.3-1-0.3
			c-0.6,0-1.1,0.2-1.6,0.6c-0.4,0.4-0.7,1.1-0.7,2.2v4.5H98.9z"/>
		<path d="M113.2,168c-0.5,0.4-1,0.8-1.5,0.9c-0.5,0.2-1,0.3-1.6,0.3c-0.9,0-1.6-0.2-2.1-0.7c-0.5-0.4-0.7-1-0.7-1.7
			c0-0.4,0.1-0.8,0.3-1.1c0.2-0.3,0.4-0.6,0.7-0.8c0.3-0.2,0.6-0.4,1-0.5c0.3-0.1,0.7-0.1,1.3-0.2c1.1-0.1,2-0.3,2.5-0.5
			c0-0.2,0-0.3,0-0.4c0-0.6-0.1-1-0.4-1.2c-0.4-0.3-0.9-0.5-1.6-0.5c-0.7,0-1.1,0.1-1.5,0.3c-0.3,0.2-0.5,0.6-0.7,1.2l-1.4-0.2
			c0.1-0.6,0.3-1.1,0.6-1.4c0.3-0.4,0.7-0.6,1.2-0.8c0.5-0.2,1.2-0.3,1.9-0.3c0.7,0,1.3,0.1,1.7,0.3c0.4,0.2,0.8,0.4,1,0.6
			c0.2,0.3,0.4,0.6,0.4,1c0,0.2,0.1,0.7,0.1,1.3v1.9c0,1.3,0,2.1,0.1,2.5c0.1,0.3,0.2,0.7,0.4,1h-1.5
			C113.3,168.7,113.2,168.4,113.2,168z M113.1,164.8c-0.5,0.2-1.3,0.4-2.3,0.5c-0.6,0.1-1,0.2-1.2,0.3c-0.2,0.1-0.4,0.3-0.6,0.5
			c-0.1,0.2-0.2,0.4-0.2,0.7c0,0.4,0.1,0.7,0.4,0.9c0.3,0.3,0.7,0.4,1.2,0.4c0.5,0,1-0.1,1.4-0.4c0.4-0.2,0.7-0.6,0.9-1
			c0.2-0.3,0.2-0.8,0.2-1.4V164.8z"/>
		<path d="M116.7,169v-8.3h1.3v1.2c0.3-0.4,0.6-0.7,1-1c0.4-0.2,0.9-0.4,1.5-0.4c0.6,0,1.1,0.1,1.5,0.4c0.4,0.3,0.7,0.6,0.8,1.1
			c0.7-1,1.5-1.5,2.6-1.5c0.8,0,1.5,0.2,1.9,0.7c0.4,0.5,0.7,1.2,0.7,2.1v5.7h-1.4v-5.2c0-0.6,0-1-0.1-1.2c-0.1-0.2-0.3-0.4-0.5-0.6
			c-0.2-0.2-0.5-0.2-0.8-0.2c-0.6,0-1.1,0.2-1.5,0.6c-0.4,0.4-0.6,1-0.6,1.9v4.8h-1.4v-5.4c0-0.6-0.1-1.1-0.3-1.4
			c-0.2-0.3-0.6-0.5-1.1-0.5c-0.4,0-0.8,0.1-1.1,0.3c-0.3,0.2-0.6,0.5-0.7,0.9c-0.2,0.4-0.2,1-0.2,1.7v4.3H116.7z"/>
		<path d="M135.7,166.3l1.5,0.2c-0.2,0.8-0.7,1.5-1.3,2c-0.6,0.5-1.4,0.7-2.4,0.7c-1.2,0-2.2-0.4-2.9-1.1c-0.7-0.7-1.1-1.8-1.1-3.1
			c0-1.4,0.4-2.5,1.1-3.3c0.7-0.8,1.7-1.2,2.8-1.2c1.1,0,2,0.4,2.7,1.1c0.7,0.8,1.1,1.8,1.1,3.2c0,0.1,0,0.2,0,0.4H131
			c0.1,0.9,0.3,1.6,0.8,2.1c0.5,0.5,1,0.7,1.7,0.7c0.5,0,1-0.1,1.3-0.4C135.2,167.4,135.5,166.9,135.7,166.3z M131.1,164.1h4.6
			c-0.1-0.7-0.2-1.2-0.5-1.6c-0.4-0.5-1-0.8-1.7-0.8c-0.6,0-1.2,0.2-1.6,0.6C131.3,162.8,131.1,163.3,131.1,164.1z"/>
	</g>
	<g>
		<g>
			<path fill="none" stroke="#000000" stroke-miterlimit="10" d="M140.7,162.5c0,0,16.9,1.3,28.6,23.2"/>
			<g>
				<polygon points="164.1,184.8 164.4,183.9 169.1,185.4 170.3,180.6 171.2,180.8 169.8,186.7 				"/>
			</g>
		</g>
	</g>
	<g>
		<path d="M23,42.3L28.5,28h2l5.9,14.3h-2.2L32.5,38h-6L25,42.3H23z M27.1,36.4H32l-1.5-4c-0.5-1.2-0.8-2.2-1-3
			c-0.2,0.9-0.4,1.8-0.8,2.7L27.1,36.4z"/>
		<path d="M37.7,42.3V28h1.8v8.2l4.2-4.2h2.3l-4,3.8l4.4,6.5h-2.2L40.7,37l-1.2,1.2v4.1H37.7z"/>
		<path d="M51.5,40.7l0.3,1.6c-0.5,0.1-0.9,0.2-1.3,0.2c-0.6,0-1.1-0.1-1.5-0.3s-0.6-0.5-0.7-0.8s-0.2-1-0.2-2.1v-6h-1.3v-1.4H48
			v-2.6l1.7-1.1v3.6h1.8v1.4h-1.8v6.1c0,0.5,0,0.8,0.1,1s0.2,0.3,0.3,0.3s0.3,0.1,0.6,0.1C50.9,40.8,51.2,40.8,51.5,40.7z"/>
		<path d="M53.2,30v-2H55v2H53.2z M53.2,42.3V31.9H55v10.4H53.2z"/>
		<path d="M57,37.1c0-1.9,0.5-3.3,1.6-4.3c0.9-0.8,2-1.2,3.3-1.2c1.4,0,2.6,0.5,3.5,1.4s1.4,2.2,1.4,3.9c0,1.3-0.2,2.4-0.6,3.1
			s-1,1.4-1.7,1.8s-1.6,0.6-2.5,0.6c-1.5,0-2.6-0.5-3.5-1.4S57,38.9,57,37.1z M58.8,37.1c0,1.3,0.3,2.3,0.9,3s1.3,1,2.2,1
			c0.9,0,1.6-0.3,2.2-1s0.9-1.7,0.9-3c0-1.3-0.3-2.3-0.9-2.9s-1.3-1-2.2-1c-0.9,0-1.6,0.3-2.2,1S58.8,35.8,58.8,37.1z"/>
		<path d="M68.8,42.3V31.9h1.6v1.5c0.8-1.1,1.9-1.7,3.3-1.7c0.6,0,1.2,0.1,1.7,0.3s0.9,0.5,1.2,0.9s0.4,0.8,0.5,1.3
			c0.1,0.3,0.1,0.9,0.1,1.7v6.4h-1.8V36c0-0.7-0.1-1.3-0.2-1.6s-0.4-0.6-0.7-0.8s-0.8-0.3-1.2-0.3c-0.7,0-1.4,0.2-1.9,0.7
			s-0.8,1.4-0.8,2.7v5.7H68.8z"/>
		<path d="M79.2,39.2l1.7-0.3c0.1,0.7,0.4,1.2,0.8,1.6s1.1,0.6,1.9,0.6c0.8,0,1.4-0.2,1.8-0.5s0.6-0.7,0.6-1.2
			c0-0.4-0.2-0.7-0.5-0.9c-0.2-0.2-0.8-0.4-1.8-0.6c-1.3-0.3-2.2-0.6-2.7-0.8s-0.9-0.6-1.1-1s-0.4-0.9-0.4-1.4
			c0-0.5,0.1-0.9,0.3-1.3s0.5-0.7,0.9-1c0.3-0.2,0.6-0.4,1.1-0.5s1-0.2,1.5-0.2c0.8,0,1.5,0.1,2.1,0.4s1.1,0.6,1.4,1
			s0.5,0.9,0.6,1.6l-1.7,0.2c-0.1-0.5-0.3-1-0.7-1.3s-0.9-0.4-1.6-0.4c-0.8,0-1.4,0.1-1.7,0.4s-0.5,0.6-0.5,0.9
			c0,0.2,0.1,0.4,0.2,0.6c0.1,0.2,0.4,0.3,0.7,0.5c0.2,0.1,0.7,0.2,1.6,0.4c1.2,0.3,2.1,0.6,2.6,0.8s0.9,0.5,1.2,0.9
			s0.4,0.9,0.4,1.5c0,0.6-0.2,1.1-0.5,1.7s-0.8,0.9-1.5,1.2s-1.4,0.4-2.2,0.4c-1.3,0-2.4-0.3-3.1-0.8S79.4,40.3,79.2,39.2z"/>
		<path d="M89.9,42.3V28h1.8v14.3H89.9z"/>
		<path d="M101.4,39l1.8,0.2c-0.3,1.1-0.8,1.9-1.6,2.5s-1.8,0.9-3,0.9c-1.5,0-2.7-0.5-3.6-1.4s-1.3-2.2-1.3-3.9
			c0-1.7,0.4-3.1,1.3-4.1s2.1-1.4,3.5-1.4c1.4,0,2.5,0.5,3.4,1.4s1.3,2.3,1.3,4c0,0.1,0,0.3,0,0.5h-7.7c0.1,1.1,0.4,2,1,2.6
			s1.3,0.9,2.2,0.9c0.6,0,1.2-0.2,1.7-0.5S101.2,39.7,101.4,39z M95.7,36.1h5.8c-0.1-0.9-0.3-1.5-0.7-2c-0.6-0.7-1.3-1-2.2-1
			c-0.8,0-1.5,0.3-2,0.8S95.7,35.2,95.7,36.1z"/>
		<path d="M105.5,30v-2h1.8v2H105.5z M105.5,42.3V31.9h1.8v10.4H105.5z"/>
		<path d="M109.2,39.2l1.7-0.3c0.1,0.7,0.4,1.2,0.8,1.6s1.1,0.6,1.9,0.6c0.8,0,1.4-0.2,1.8-0.5s0.6-0.7,0.6-1.2
			c0-0.4-0.2-0.7-0.5-0.9c-0.2-0.2-0.8-0.4-1.8-0.6c-1.3-0.3-2.2-0.6-2.7-0.8s-0.9-0.6-1.1-1s-0.4-0.9-0.4-1.4
			c0-0.5,0.1-0.9,0.3-1.3s0.5-0.7,0.9-1c0.3-0.2,0.6-0.4,1.1-0.5s1-0.2,1.5-0.2c0.8,0,1.5,0.1,2.1,0.4s1.1,0.6,1.4,1
			s0.5,0.9,0.6,1.6l-1.7,0.2c-0.1-0.5-0.3-1-0.7-1.3s-0.9-0.4-1.6-0.4c-0.8,0-1.4,0.1-1.7,0.4s-0.5,0.6-0.5,0.9
			c0,0.2,0.1,0.4,0.2,0.6c0.1,0.2,0.4,0.3,0.7,0.5c0.2,0.1,0.7,0.2,1.6,0.4c1.2,0.3,2.1,0.6,2.6,0.8s0.9,0.5,1.2,0.9
			s0.4,0.9,0.4,1.5c0,0.6-0.2,1.1-0.5,1.7s-0.8,0.9-1.5,1.2s-1.4,0.4-2.2,0.4c-1.3,0-2.4-0.3-3.1-0.8S109.4,40.3,109.2,39.2z"/>
		<path d="M123.8,40.7l0.3,1.6c-0.5,0.1-0.9,0.2-1.3,0.2c-0.6,0-1.1-0.1-1.5-0.3s-0.6-0.5-0.7-0.8s-0.2-1-0.2-2.1v-6h-1.3v-1.4h1.3
			v-2.6l1.7-1.1v3.6h1.8v1.4H122v6.1c0,0.5,0,0.8,0.1,1s0.2,0.3,0.3,0.3s0.3,0.1,0.6,0.1C123.2,40.8,123.4,40.8,123.8,40.7z"/>
		<path d="M132.6,39l1.8,0.2c-0.3,1.1-0.8,1.9-1.6,2.5s-1.8,0.9-3,0.9c-1.5,0-2.7-0.5-3.6-1.4s-1.3-2.2-1.3-3.9
			c0-1.7,0.4-3.1,1.3-4.1s2.1-1.4,3.5-1.4c1.4,0,2.5,0.5,3.4,1.4s1.3,2.3,1.3,4c0,0.1,0,0.3,0,0.5h-7.7c0.1,1.1,0.4,2,1,2.6
			s1.3,0.9,2.2,0.9c0.6,0,1.2-0.2,1.7-0.5S132.3,39.7,132.6,39z M126.8,36.1h5.8c-0.1-0.9-0.3-1.5-0.7-2c-0.6-0.7-1.3-1-2.2-1
			c-0.8,0-1.5,0.3-2,0.8S126.9,35.2,126.8,36.1z"/>
		<path d="M137.1,34v-2h2v2H137.1z M137.1,42.3v-2h2v2H137.1z"/>
		<path d="M146.8,42.3v-1.8l7.3-9.2c0.5-0.7,1-1.2,1.5-1.7h-8V28h10.3v1.7l-8,9.9l-0.9,1h9.1v1.7H146.8z"/>
		<path d="M166.7,42.3v-1.5c-0.8,1.2-1.9,1.8-3.3,1.8c-0.6,0-1.2-0.1-1.7-0.4s-0.9-0.5-1.2-0.9s-0.4-0.8-0.5-1.3
			c-0.1-0.3-0.1-0.9-0.1-1.6v-6.4h1.8v5.8c0,0.9,0,1.5,0.1,1.9c0.1,0.5,0.3,0.8,0.7,1.1s0.8,0.4,1.3,0.4s1-0.1,1.5-0.4
			s0.8-0.6,1-1.1s0.3-1.1,0.3-2v-5.6h1.8v10.4H166.7z"/>
		<path d="M170.7,43.2l1.7,0.3c0.1,0.5,0.3,0.9,0.6,1.2c0.4,0.3,1,0.5,1.8,0.5c0.8,0,1.4-0.2,1.9-0.5s0.7-0.8,0.9-1.4
			c0.1-0.4,0.1-1.1,0.1-2.3c-0.8,0.9-1.7,1.4-2.9,1.4c-1.4,0-2.5-0.5-3.3-1.5s-1.2-2.3-1.2-3.7c0-1,0.2-1.9,0.5-2.7s0.9-1.5,1.6-1.9
			s1.5-0.7,2.4-0.7c1.2,0,2.2,0.5,3,1.5v-1.3h1.6v9c0,1.6-0.2,2.8-0.5,3.4s-0.8,1.2-1.6,1.6s-1.6,0.6-2.6,0.6c-1.2,0-2.2-0.3-3-0.8
			S170.7,44.3,170.7,43.2z M172.2,36.9c0,1.4,0.3,2.4,0.8,3s1.2,0.9,2,0.9c0.8,0,1.5-0.3,2-0.9s0.8-1.6,0.8-2.9
			c0-1.3-0.3-2.2-0.8-2.9s-1.2-1-2-1c-0.8,0-1.4,0.3-2,1S172.2,35.7,172.2,36.9z"/>
		<path d="M182.2,42.3V31.9h1.6v1.6c0.4-0.7,0.8-1.2,1.1-1.5s0.7-0.4,1.1-0.4c0.6,0,1.2,0.2,1.8,0.6l-0.6,1.6
			c-0.4-0.3-0.9-0.4-1.3-0.4c-0.4,0-0.7,0.1-1,0.3s-0.5,0.6-0.7,1c-0.2,0.6-0.3,1.3-0.3,2.1v5.4H182.2z"/>
		<path d="M188.8,30v-2h1.8v2H188.8z M188.8,42.3V31.9h1.8v10.4H188.8z"/>
		<path d="M193.7,42.3v-9h-1.6v-1.4h1.6v-1.1c0-0.7,0.1-1.2,0.2-1.6c0.2-0.5,0.5-0.8,0.9-1.1s1-0.4,1.8-0.4c0.5,0,1,0.1,1.6,0.2
			l-0.3,1.5c-0.4-0.1-0.7-0.1-1-0.1c-0.5,0-0.9,0.1-1.1,0.3s-0.3,0.7-0.3,1.3v1h2v1.4h-2v9H193.7z"/>
		<path d="M198.9,42.3v-9h-1.6v-1.4h1.6v-1.1c0-0.7,0.1-1.2,0.2-1.6c0.2-0.5,0.5-0.8,0.9-1.1s1-0.4,1.8-0.4c0.5,0,1,0.1,1.6,0.2
			l-0.3,1.5c-0.4-0.1-0.7-0.1-1-0.1c-0.5,0-0.9,0.1-1.1,0.3s-0.3,0.7-0.3,1.3v1h2v1.4h-2v9H198.9z"/>
		<path d="M216.3,41c-0.7,0.6-1.3,0.9-1.9,1.2s-1.2,0.3-1.9,0.3c-1.1,0-2-0.3-2.6-0.8s-0.9-1.3-0.9-2.1c0-0.5,0.1-1,0.3-1.4
			s0.5-0.8,0.9-1s0.8-0.4,1.3-0.6c0.3-0.1,0.9-0.2,1.6-0.3c1.4-0.2,2.5-0.4,3.1-0.6c0-0.2,0-0.4,0-0.5c0-0.7-0.2-1.2-0.5-1.5
			c-0.4-0.4-1.1-0.6-2-0.6c-0.8,0-1.4,0.1-1.8,0.4s-0.7,0.8-0.9,1.5l-1.7-0.2c0.2-0.7,0.4-1.3,0.8-1.8s0.9-0.8,1.6-1
			s1.5-0.4,2.4-0.4c0.9,0,1.6,0.1,2.2,0.3s1,0.5,1.2,0.8s0.4,0.7,0.5,1.2c0.1,0.3,0.1,0.8,0.1,1.6V38c0,1.6,0,2.7,0.1,3.1
			s0.2,0.8,0.4,1.2h-1.8C216.5,42,216.4,41.5,216.3,41z M216.2,37.1c-0.6,0.3-1.6,0.5-2.9,0.7c-0.7,0.1-1.2,0.2-1.5,0.4
			s-0.5,0.3-0.7,0.6s-0.2,0.5-0.2,0.8c0,0.5,0.2,0.9,0.5,1.2s0.9,0.5,1.6,0.5c0.7,0,1.3-0.1,1.8-0.4s0.9-0.7,1.2-1.2
			c0.2-0.4,0.3-1,0.3-1.8V37.1z"/>
		<path d="M227.5,42.3v-1.5c-0.8,1.2-1.9,1.8-3.3,1.8c-0.6,0-1.2-0.1-1.7-0.4s-0.9-0.5-1.2-0.9s-0.4-0.8-0.5-1.3
			c-0.1-0.3-0.1-0.9-0.1-1.6v-6.4h1.8v5.8c0,0.9,0,1.5,0.1,1.9c0.1,0.5,0.3,0.8,0.7,1.1s0.8,0.4,1.3,0.4s1-0.1,1.5-0.4
			s0.8-0.6,1-1.1s0.3-1.1,0.3-2v-5.6h1.8v10.4H227.5z"/>
		<path d="M232.2,42.3v-9h-1.6v-1.4h1.6v-1.1c0-0.7,0.1-1.2,0.2-1.6c0.2-0.5,0.5-0.8,0.9-1.1s1-0.4,1.8-0.4c0.5,0,1,0.1,1.6,0.2
			l-0.3,1.5c-0.4-0.1-0.7-0.1-1-0.1c-0.5,0-0.9,0.1-1.1,0.3S234,30.4,234,31v1h2v1.4h-2v9H232.2z"/>
		<path d="M249.7,41c-0.7,0.6-1.3,0.9-1.9,1.2s-1.2,0.3-1.9,0.3c-1.1,0-2-0.3-2.6-0.8s-0.9-1.3-0.9-2.1c0-0.5,0.1-1,0.3-1.4
			s0.5-0.8,0.9-1s0.8-0.4,1.3-0.6c0.3-0.1,0.9-0.2,1.6-0.3c1.4-0.2,2.5-0.4,3.1-0.6c0-0.2,0-0.4,0-0.5c0-0.7-0.2-1.2-0.5-1.5
			c-0.4-0.4-1.1-0.6-2-0.6c-0.8,0-1.4,0.1-1.8,0.4s-0.7,0.8-0.9,1.5l-1.7-0.2c0.2-0.7,0.4-1.3,0.8-1.8s0.9-0.8,1.6-1
			s1.5-0.4,2.4-0.4c0.9,0,1.6,0.1,2.2,0.3s1,0.5,1.2,0.8s0.4,0.7,0.5,1.2c0.1,0.3,0.1,0.8,0.1,1.6V38c0,1.6,0,2.7,0.1,3.1
			s0.2,0.8,0.4,1.2h-1.8C249.9,42,249.8,41.5,249.7,41z M249.6,37.1c-0.6,0.3-1.6,0.5-2.9,0.7c-0.7,0.1-1.2,0.2-1.5,0.4
			s-0.5,0.3-0.7,0.6s-0.2,0.5-0.2,0.8c0,0.5,0.2,0.9,0.5,1.2s0.9,0.5,1.6,0.5c0.7,0,1.3-0.1,1.8-0.4s0.9-0.7,1.2-1.2
			c0.2-0.4,0.3-1,0.3-1.8V37.1z"/>
		<path d="M254,42.3V28h1.8v14.3H254z"/>
		<path d="M258.5,42.3V28h1.8v14.3H258.5z"/>
		<path d="M270.1,39l1.8,0.2c-0.3,1.1-0.8,1.9-1.6,2.5s-1.8,0.9-3,0.9c-1.5,0-2.7-0.5-3.6-1.4s-1.3-2.2-1.3-3.9
			c0-1.7,0.4-3.1,1.3-4.1s2.1-1.4,3.5-1.4c1.4,0,2.5,0.5,3.4,1.4s1.3,2.3,1.3,4c0,0.1,0,0.3,0,0.5h-7.7c0.1,1.1,0.4,2,1,2.6
			s1.3,0.9,2.2,0.9c0.6,0,1.2-0.2,1.7-0.5S269.8,39.7,270.1,39z M264.3,36.1h5.8c-0.1-0.9-0.3-1.5-0.7-2c-0.6-0.7-1.3-1-2.2-1
			c-0.8,0-1.5,0.3-2,0.8S264.3,35.2,264.3,36.1z"/>
		<path d="M277.2,42.3l5.5-14.3h2l5.9,14.3h-2.2l-1.7-4.3h-6l-1.6,4.3H277.2z M281.3,36.4h4.9l-1.5-4c-0.5-1.2-0.8-2.2-1-3
			c-0.2,0.9-0.4,1.8-0.8,2.7L281.3,36.4z"/>
		<path d="M291.9,42.3V28h1.8v8.2l4.2-4.2h2.3l-4,3.8l4.4,6.5h-2.2l-3.4-5.3l-1.2,1.2v4.1H291.9z"/>
		<path d="M305.7,40.7l0.3,1.6c-0.5,0.1-0.9,0.2-1.3,0.2c-0.6,0-1.1-0.1-1.5-0.3s-0.6-0.5-0.7-0.8s-0.2-1-0.2-2.1v-6h-1.3v-1.4h1.3
			v-2.6l1.7-1.1v3.6h1.8v1.4h-1.8v6.1c0,0.5,0,0.8,0.1,1s0.2,0.3,0.3,0.3s0.3,0.1,0.6,0.1C305.1,40.8,305.4,40.8,305.7,40.7z"/>
		<path d="M307.4,30v-2h1.8v2H307.4z M307.4,42.3V31.9h1.8v10.4H307.4z"/>
		<path d="M311.2,37.1c0-1.9,0.5-3.3,1.6-4.3c0.9-0.8,2-1.2,3.3-1.2c1.4,0,2.6,0.5,3.5,1.4s1.4,2.2,1.4,3.9c0,1.3-0.2,2.4-0.6,3.1
			s-1,1.4-1.7,1.8s-1.6,0.6-2.5,0.6c-1.5,0-2.6-0.5-3.5-1.4S311.2,38.9,311.2,37.1z M313,37.1c0,1.3,0.3,2.3,0.9,3s1.3,1,2.2,1
			c0.9,0,1.6-0.3,2.2-1s0.9-1.7,0.9-3c0-1.3-0.3-2.3-0.9-2.9s-1.3-1-2.2-1c-0.9,0-1.6,0.3-2.2,1S313,35.8,313,37.1z"/>
		<path d="M323,42.3V31.9h1.6v1.5c0.8-1.1,1.9-1.7,3.3-1.7c0.6,0,1.2,0.1,1.7,0.3s0.9,0.5,1.2,0.9s0.4,0.8,0.5,1.3
			c0.1,0.3,0.1,0.9,0.1,1.7v6.4h-1.8V36c0-0.7-0.1-1.3-0.2-1.6s-0.4-0.6-0.7-0.8s-0.8-0.3-1.2-0.3c-0.7,0-1.4,0.2-1.9,0.7
			s-0.8,1.4-0.8,2.7v5.7H323z"/>
		<path d="M341.2,39l1.8,0.2c-0.3,1.1-0.8,1.9-1.6,2.5s-1.8,0.9-3,0.9c-1.5,0-2.7-0.5-3.6-1.4s-1.3-2.2-1.3-3.9
			c0-1.7,0.4-3.1,1.3-4.1s2.1-1.4,3.5-1.4c1.4,0,2.5,0.5,3.4,1.4s1.3,2.3,1.3,4c0,0.1,0,0.3,0,0.5h-7.7c0.1,1.1,0.4,2,1,2.6
			s1.3,0.9,2.2,0.9c0.6,0,1.2-0.2,1.7-0.5S340.9,39.7,341.2,39z M335.4,36.1h5.8c-0.1-0.9-0.3-1.5-0.7-2c-0.6-0.7-1.3-1-2.2-1
			c-0.8,0-1.5,0.3-2,0.8S335.5,35.2,335.4,36.1z"/>
		<path d="M345.2,42.3V31.9h1.6v1.5c0.8-1.1,1.9-1.7,3.3-1.7c0.6,0,1.2,0.1,1.7,0.3s0.9,0.5,1.2,0.9s0.4,0.8,0.5,1.3
			c0.1,0.3,0.1,0.9,0.1,1.7v6.4h-1.8V36c0-0.7-0.1-1.3-0.2-1.6s-0.4-0.6-0.7-0.8s-0.8-0.3-1.2-0.3c-0.7,0-1.4,0.2-1.9,0.7
			s-0.8,1.4-0.8,2.7v5.7H345.2z"/>
		<path d="M361.9,30v-2h1.8v2H361.9z M361.9,42.3V31.9h1.8v10.4H361.9z"/>
		<path d="M366.4,42.3V31.9h1.6v1.5c0.8-1.1,1.9-1.7,3.3-1.7c0.6,0,1.2,0.1,1.7,0.3s0.9,0.5,1.2,0.9s0.4,0.8,0.5,1.3
			c0.1,0.3,0.1,0.9,0.1,1.7v6.4H373V36c0-0.7-0.1-1.3-0.2-1.6s-0.4-0.6-0.7-0.8s-0.8-0.3-1.2-0.3c-0.7,0-1.4,0.2-1.9,0.7
			s-0.8,1.4-0.8,2.7v5.7H366.4z"/>
		<path d="M377.5,42.3V31.9h1.6v1.5c0.8-1.1,1.9-1.7,3.3-1.7c0.6,0,1.2,0.1,1.7,0.3s0.9,0.5,1.2,0.9s0.4,0.8,0.5,1.3
			c0.1,0.3,0.1,0.9,0.1,1.7v6.4h-1.8V36c0-0.7-0.1-1.3-0.2-1.6s-0.4-0.6-0.7-0.8s-0.8-0.3-1.2-0.3c-0.7,0-1.4,0.2-1.9,0.7
			s-0.8,1.4-0.8,2.7v5.7H377.5z"/>
		<path d="M395.7,39l1.8,0.2c-0.3,1.1-0.8,1.9-1.6,2.5s-1.8,0.9-3,0.9c-1.5,0-2.7-0.5-3.6-1.4s-1.3-2.2-1.3-3.9
			c0-1.7,0.4-3.1,1.3-4.1s2.1-1.4,3.5-1.4c1.4,0,2.5,0.5,3.4,1.4s1.3,2.3,1.3,4c0,0.1,0,0.3,0,0.5h-7.7c0.1,1.1,0.4,2,1,2.6
			s1.3,0.9,2.2,0.9c0.6,0,1.2-0.2,1.7-0.5S395.4,39.7,395.7,39z M389.9,36.1h5.8c-0.1-0.9-0.3-1.5-0.7-2c-0.6-0.7-1.3-1-2.2-1
			c-0.8,0-1.5,0.3-2,0.8S390,35.2,389.9,36.1z"/>
		<path d="M399.7,42.3V31.9h1.6v1.6c0.4-0.7,0.8-1.2,1.1-1.5s0.7-0.4,1.1-0.4c0.6,0,1.2,0.2,1.8,0.6l-0.6,1.6
			c-0.4-0.3-0.9-0.4-1.3-0.4c-0.4,0-0.7,0.1-1,0.3s-0.5,0.6-0.7,1c-0.2,0.6-0.3,1.3-0.3,2.1v5.4H399.7z"/>
		<path d="M406.4,42.3V28h1.8v5.1c0.8-1,1.9-1.4,3.1-1.4c0.8,0,1.4,0.2,2,0.5s1,0.7,1.2,1.3s0.4,1.3,0.4,2.3v6.6h-1.8v-6.6
			c0-0.9-0.2-1.5-0.6-1.9s-0.9-0.6-1.6-0.6c-0.5,0-1,0.1-1.5,0.4s-0.8,0.6-1,1.1s-0.3,1.1-0.3,1.9v5.7H406.4z"/>
		<path d="M424.3,41c-0.7,0.6-1.3,0.9-1.9,1.2s-1.2,0.3-1.9,0.3c-1.1,0-2-0.3-2.6-0.8s-0.9-1.3-0.9-2.1c0-0.5,0.1-1,0.3-1.4
			s0.5-0.8,0.9-1s0.8-0.4,1.3-0.6c0.3-0.1,0.9-0.2,1.6-0.3c1.4-0.2,2.5-0.4,3.1-0.6c0-0.2,0-0.4,0-0.5c0-0.7-0.2-1.2-0.5-1.5
			c-0.4-0.4-1.1-0.6-2-0.6c-0.8,0-1.4,0.1-1.8,0.4s-0.7,0.8-0.9,1.5l-1.7-0.2c0.2-0.7,0.4-1.3,0.8-1.8s0.9-0.8,1.6-1
			s1.5-0.4,2.4-0.4c0.9,0,1.6,0.1,2.2,0.3s1,0.5,1.2,0.8s0.4,0.7,0.5,1.2c0.1,0.3,0.1,0.8,0.1,1.6V38c0,1.6,0,2.7,0.1,3.1
			s0.2,0.8,0.4,1.2h-1.8C424.4,42,424.3,41.5,424.3,41z M424.1,37.1c-0.6,0.3-1.6,0.5-2.9,0.7c-0.7,0.1-1.2,0.2-1.5,0.4
			s-0.5,0.3-0.7,0.6s-0.2,0.5-0.2,0.8c0,0.5,0.2,0.9,0.5,1.2s0.9,0.5,1.6,0.5c0.7,0,1.3-0.1,1.8-0.4s0.9-0.7,1.2-1.2
			c0.2-0.4,0.3-1,0.3-1.8V37.1z"/>
		<path d="M428.6,42.3V28h1.8v14.3H428.6z"/>
		<path d="M434.7,42.3h-1.6V28h1.8v5.1c0.7-0.9,1.7-1.4,2.8-1.4c0.6,0,1.2,0.1,1.8,0.4s1,0.6,1.4,1.1s0.7,1,0.9,1.7s0.3,1.4,0.3,2.1
			c0,1.8-0.4,3.2-1.3,4.1s-1.9,1.5-3.2,1.5c-1.2,0-2.2-0.5-2.9-1.5V42.3z M434.7,37.1c0,1.2,0.2,2.1,0.5,2.7
			c0.6,0.9,1.3,1.4,2.2,1.4c0.8,0,1.4-0.3,2-1s0.8-1.7,0.8-3c0-1.4-0.3-2.4-0.8-3s-1.2-1-1.9-1c-0.8,0-1.4,0.3-2,1
			S434.7,35.8,434.7,37.1z"/>
		<path d="M456.5,42.3V41c-0.7,1-1.6,1.5-2.9,1.5c-0.8,0-1.6-0.2-2.3-0.7s-1.2-1.1-1.6-1.9s-0.6-1.8-0.6-2.8c0-1,0.2-2,0.5-2.8
			s0.9-1.5,1.6-1.9s1.5-0.7,2.3-0.7c0.6,0,1.2,0.1,1.7,0.4s0.9,0.6,1.2,1V28h1.7v14.3H456.5z M450.9,37.1c0,1.3,0.3,2.3,0.8,3
			s1.2,1,2,1c0.8,0,1.4-0.3,2-0.9s0.8-1.6,0.8-2.9c0-1.4-0.3-2.5-0.8-3.1s-1.2-1-2-1c-0.8,0-1.4,0.3-2,1S450.9,35.8,450.9,37.1z"/>
		<path d="M468,39l1.8,0.2c-0.3,1.1-0.8,1.9-1.6,2.5s-1.8,0.9-3,0.9c-1.5,0-2.7-0.5-3.6-1.4s-1.3-2.2-1.3-3.9c0-1.7,0.4-3.1,1.3-4.1
			s2.1-1.4,3.5-1.4c1.4,0,2.5,0.5,3.4,1.4s1.3,2.3,1.3,4c0,0.1,0,0.3,0,0.5h-7.7c0.1,1.1,0.4,2,1,2.6s1.3,0.9,2.2,0.9
			c0.6,0,1.2-0.2,1.7-0.5S467.7,39.7,468,39z M462.2,36.1h5.8c-0.1-0.9-0.3-1.5-0.7-2c-0.6-0.7-1.3-1-2.2-1c-0.8,0-1.5,0.3-2,0.8
			S462.3,35.2,462.2,36.1z"/>
		<path d="M472,42.3V31.9h1.6v1.6c0.4-0.7,0.8-1.2,1.1-1.5s0.7-0.4,1.1-0.4c0.6,0,1.2,0.2,1.8,0.6l-0.6,1.6
			c-0.4-0.3-0.9-0.4-1.3-0.4c-0.4,0-0.7,0.1-1,0.3s-0.5,0.6-0.7,1c-0.2,0.6-0.3,1.3-0.3,2.1v5.4H472z"/>
		<path d="M481.8,42.3l5.5-14.3h2l5.9,14.3H493l-1.7-4.3h-6l-1.6,4.3H481.8z M485.9,36.4h4.9l-1.5-4c-0.5-1.2-0.8-2.2-1-3
			c-0.2,0.9-0.4,1.8-0.8,2.7L485.9,36.4z"/>
		<path d="M496.5,46.3V31.9h1.6v1.3c0.4-0.5,0.8-0.9,1.3-1.2s1.1-0.4,1.7-0.4c0.9,0,1.7,0.2,2.3,0.7s1.2,1.1,1.5,1.9
			s0.5,1.7,0.5,2.7c0,1.1-0.2,2-0.6,2.9s-0.9,1.5-1.7,2s-1.5,0.7-2.3,0.7c-0.6,0-1.1-0.1-1.6-0.4s-0.8-0.6-1.1-0.9v5H496.5z
			 M498,37.2c0,1.3,0.3,2.3,0.8,3s1.2,1,2,1c0.8,0,1.5-0.3,2-1s0.8-1.7,0.8-3.1c0-1.3-0.3-2.3-0.8-3s-1.2-1-1.9-1
			c-0.7,0-1.4,0.3-2,1S498,35.9,498,37.2z"/>
		<path d="M507.6,46.3V31.9h1.6v1.3c0.4-0.5,0.8-0.9,1.3-1.2s1.1-0.4,1.7-0.4c0.9,0,1.7,0.2,2.3,0.7s1.2,1.1,1.5,1.9
			s0.5,1.7,0.5,2.7c0,1.1-0.2,2-0.6,2.9s-0.9,1.5-1.7,2s-1.5,0.7-2.3,0.7c-0.6,0-1.1-0.1-1.6-0.4s-0.8-0.6-1.1-0.9v5H507.6z
			 M509.2,37.2c0,1.3,0.3,2.3,0.8,3s1.2,1,2,1c0.8,0,1.5-0.3,2-1s0.8-1.7,0.8-3.1c0-1.3-0.3-2.3-0.8-3s-1.2-1-1.9-1
			c-0.7,0-1.4,0.3-2,1S509.2,35.9,509.2,37.2z"/>
		<path d="M519.2,42.3v-2h2v2H519.2z"/>
		<path d="M24.5,66.3V52h4.9c1.1,0,2,0.1,2.5,0.2c0.8,0.2,1.5,0.5,2.1,1c0.8,0.6,1.3,1.5,1.7,2.4s0.6,2.1,0.6,3.4
			c0,1.1-0.1,2.1-0.4,2.9s-0.6,1.5-1,2.1s-0.8,1-1.3,1.3s-1,0.6-1.7,0.7s-1.4,0.2-2.3,0.2H24.5z M26.4,64.6h3.1
			c0.9,0,1.7-0.1,2.2-0.3s1-0.4,1.3-0.7c0.4-0.4,0.8-1.1,1-1.8s0.4-1.7,0.4-2.8c0-1.5-0.2-2.6-0.7-3.5s-1.1-1.3-1.8-1.6
			c-0.5-0.2-1.3-0.3-2.5-0.3h-3V64.6z"/>
		<path d="M38.8,54v-2h1.8v2H38.8z M38.8,66.3V55.9h1.8v10.4H38.8z"/>
		<path d="M50.3,63l1.8,0.2c-0.3,1.1-0.8,1.9-1.6,2.5s-1.8,0.9-3,0.9c-1.5,0-2.7-0.5-3.6-1.4s-1.3-2.2-1.3-3.9
			c0-1.7,0.4-3.1,1.3-4.1s2.1-1.4,3.5-1.4c1.4,0,2.5,0.5,3.4,1.4s1.3,2.3,1.3,4c0,0.1,0,0.3,0,0.5h-7.7c0.1,1.1,0.4,2,1,2.6
			s1.3,0.9,2.2,0.9c0.6,0,1.2-0.2,1.7-0.5S50,63.7,50.3,63z M44.5,60.1h5.8c-0.1-0.9-0.3-1.5-0.7-2c-0.6-0.7-1.3-1-2.2-1
			c-0.8,0-1.5,0.3-2,0.8S44.6,59.2,44.5,60.1z"/>
		<path d="M57.4,66.3L62.9,52h2l5.9,14.3h-2.2L67,62h-6l-1.6,4.3H57.4z M61.6,60.4h4.9l-1.5-4c-0.5-1.2-0.8-2.2-1-3
			c-0.2,0.9-0.4,1.8-0.8,2.7L61.6,60.4z"/>
		<path d="M72.1,66.3V52h1.8v8.2l4.2-4.2h2.3l-4,3.8l4.4,6.5h-2.2L75.1,61l-1.2,1.2v4.1H72.1z"/>
		<path d="M86,64.7l0.3,1.6c-0.5,0.1-0.9,0.2-1.3,0.2c-0.6,0-1.1-0.1-1.5-0.3s-0.6-0.5-0.7-0.8s-0.2-1-0.2-2.1v-6h-1.3v-1.4h1.3
			v-2.6l1.7-1.1v3.6H86v1.4h-1.8v6.1c0,0.5,0,0.8,0.1,1s0.2,0.3,0.3,0.3s0.3,0.1,0.6,0.1C85.4,64.8,85.6,64.8,86,64.7z"/>
		<path d="M87.7,54v-2h1.8v2H87.7z M87.7,66.3V55.9h1.8v10.4H87.7z"/>
		<path d="M91.5,61.1c0-1.9,0.5-3.3,1.6-4.3c0.9-0.8,2-1.2,3.3-1.2c1.4,0,2.6,0.5,3.5,1.4s1.4,2.2,1.4,3.9c0,1.3-0.2,2.4-0.6,3.1
			s-1,1.4-1.7,1.8s-1.6,0.6-2.5,0.6c-1.5,0-2.6-0.5-3.5-1.4S91.5,62.9,91.5,61.1z M93.3,61.1c0,1.3,0.3,2.3,0.9,3s1.3,1,2.2,1
			c0.9,0,1.6-0.3,2.2-1s0.9-1.7,0.9-3c0-1.3-0.3-2.3-0.9-2.9s-1.3-1-2.2-1c-0.9,0-1.6,0.3-2.2,1S93.3,59.8,93.3,61.1z"/>
		<path d="M103.2,66.3V55.9h1.6v1.5c0.8-1.1,1.9-1.7,3.3-1.7c0.6,0,1.2,0.1,1.7,0.3s0.9,0.5,1.2,0.9s0.4,0.8,0.5,1.3
			c0.1,0.3,0.1,0.9,0.1,1.7v6.4h-1.8V60c0-0.7-0.1-1.3-0.2-1.6s-0.4-0.6-0.7-0.8s-0.8-0.3-1.2-0.3c-0.7,0-1.4,0.2-1.9,0.7
			s-0.8,1.4-0.8,2.7v5.7H103.2z"/>
		<path d="M113.7,63.2l1.7-0.3c0.1,0.7,0.4,1.2,0.8,1.6s1.1,0.6,1.9,0.6c0.8,0,1.4-0.2,1.8-0.5s0.6-0.7,0.6-1.2
			c0-0.4-0.2-0.7-0.5-0.9c-0.2-0.2-0.8-0.4-1.8-0.6c-1.3-0.3-2.2-0.6-2.7-0.8s-0.9-0.6-1.1-1s-0.4-0.9-0.4-1.4
			c0-0.5,0.1-0.9,0.3-1.3s0.5-0.7,0.9-1c0.3-0.2,0.6-0.4,1.1-0.5s1-0.2,1.5-0.2c0.8,0,1.5,0.1,2.1,0.4s1.1,0.6,1.4,1
			s0.5,0.9,0.6,1.6l-1.7,0.2c-0.1-0.5-0.3-1-0.7-1.3s-0.9-0.4-1.6-0.4c-0.8,0-1.4,0.1-1.7,0.4s-0.5,0.6-0.5,0.9
			c0,0.2,0.1,0.4,0.2,0.6c0.1,0.2,0.4,0.3,0.7,0.5c0.2,0.1,0.7,0.2,1.6,0.4c1.2,0.3,2.1,0.6,2.6,0.8s0.9,0.5,1.2,0.9
			s0.4,0.9,0.4,1.5c0,0.6-0.2,1.1-0.5,1.7s-0.8,0.9-1.5,1.2s-1.4,0.4-2.2,0.4c-1.3,0-2.4-0.3-3.1-0.8S113.9,64.3,113.7,63.2z"/>
		<path d="M124.3,66.3V52h1.8v14.3H124.3z"/>
		<path d="M135.9,63l1.8,0.2c-0.3,1.1-0.8,1.9-1.6,2.5s-1.8,0.9-3,0.9c-1.5,0-2.7-0.5-3.6-1.4s-1.3-2.2-1.3-3.9
			c0-1.7,0.4-3.1,1.3-4.1s2.1-1.4,3.5-1.4c1.4,0,2.5,0.5,3.4,1.4s1.3,2.3,1.3,4c0,0.1,0,0.3,0,0.5H130c0.1,1.1,0.4,2,1,2.6
			s1.3,0.9,2.2,0.9c0.6,0,1.2-0.2,1.7-0.5S135.6,63.7,135.9,63z M130.1,60.1h5.8c-0.1-0.9-0.3-1.5-0.7-2c-0.6-0.7-1.3-1-2.2-1
			c-0.8,0-1.5,0.3-2,0.8S130.2,59.2,130.1,60.1z"/>
		<path d="M139.9,54v-2h1.8v2H139.9z M139.9,66.3V55.9h1.8v10.4H139.9z"/>
		<path d="M143.7,63.2l1.7-0.3c0.1,0.7,0.4,1.2,0.8,1.6s1.1,0.6,1.9,0.6c0.8,0,1.4-0.2,1.8-0.5s0.6-0.7,0.6-1.2
			c0-0.4-0.2-0.7-0.5-0.9c-0.2-0.2-0.8-0.4-1.8-0.6c-1.3-0.3-2.2-0.6-2.7-0.8s-0.9-0.6-1.1-1s-0.4-0.9-0.4-1.4
			c0-0.5,0.1-0.9,0.3-1.3s0.5-0.7,0.9-1c0.3-0.2,0.6-0.4,1.1-0.5s1-0.2,1.5-0.2c0.8,0,1.5,0.1,2.1,0.4s1.1,0.6,1.4,1
			s0.5,0.9,0.6,1.6l-1.7,0.2c-0.1-0.5-0.3-1-0.7-1.3s-0.9-0.4-1.6-0.4c-0.8,0-1.4,0.1-1.7,0.4s-0.5,0.6-0.5,0.9
			c0,0.2,0.1,0.4,0.2,0.6c0.1,0.2,0.4,0.3,0.7,0.5c0.2,0.1,0.7,0.2,1.6,0.4c1.2,0.3,2.1,0.6,2.6,0.8s0.9,0.5,1.2,0.9
			s0.4,0.9,0.4,1.5c0,0.6-0.2,1.1-0.5,1.7s-0.8,0.9-1.5,1.2s-1.4,0.4-2.2,0.4c-1.3,0-2.4-0.3-3.1-0.8S143.9,64.3,143.7,63.2z"/>
		<path d="M158.2,64.7l0.3,1.6c-0.5,0.1-0.9,0.2-1.3,0.2c-0.6,0-1.1-0.1-1.5-0.3s-0.6-0.5-0.7-0.8s-0.2-1-0.2-2.1v-6h-1.3v-1.4h1.3
			v-2.6l1.7-1.1v3.6h1.8v1.4h-1.8v6.1c0,0.5,0,0.8,0.1,1s0.2,0.3,0.3,0.3s0.3,0.1,0.6,0.1C157.6,64.8,157.9,64.8,158.2,64.7z"/>
		<path d="M167,63l1.8,0.2c-0.3,1.1-0.8,1.9-1.6,2.5s-1.8,0.9-3,0.9c-1.5,0-2.7-0.5-3.6-1.4s-1.3-2.2-1.3-3.9c0-1.7,0.4-3.1,1.3-4.1
			s2.1-1.4,3.5-1.4c1.4,0,2.5,0.5,3.4,1.4s1.3,2.3,1.3,4c0,0.1,0,0.3,0,0.5h-7.7c0.1,1.1,0.4,2,1,2.6s1.3,0.9,2.2,0.9
			c0.6,0,1.2-0.2,1.7-0.5S166.8,63.7,167,63z M161.3,60.1h5.8c-0.1-0.9-0.3-1.5-0.7-2c-0.6-0.7-1.3-1-2.2-1c-0.8,0-1.5,0.3-2,0.8
			S161.3,59.2,161.3,60.1z"/>
		<path d="M176.6,54v-2h1.8v2H176.6z M176.6,66.3V55.9h1.8v10.4H176.6z"/>
		<path d="M180.4,63.2l1.7-0.3c0.1,0.7,0.4,1.2,0.8,1.6s1.1,0.6,1.9,0.6c0.8,0,1.4-0.2,1.8-0.5s0.6-0.7,0.6-1.2
			c0-0.4-0.2-0.7-0.5-0.9c-0.2-0.2-0.8-0.4-1.8-0.6c-1.3-0.3-2.2-0.6-2.7-0.8s-0.9-0.6-1.1-1s-0.4-0.9-0.4-1.4
			c0-0.5,0.1-0.9,0.3-1.3s0.5-0.7,0.9-1c0.3-0.2,0.6-0.4,1.1-0.5s1-0.2,1.5-0.2c0.8,0,1.5,0.1,2.1,0.4s1.1,0.6,1.4,1
			s0.5,0.9,0.6,1.6l-1.7,0.2c-0.1-0.5-0.3-1-0.7-1.3s-0.9-0.4-1.6-0.4c-0.8,0-1.4,0.1-1.7,0.4s-0.5,0.6-0.5,0.9
			c0,0.2,0.1,0.4,0.2,0.6c0.1,0.2,0.4,0.3,0.7,0.5c0.2,0.1,0.7,0.2,1.6,0.4c1.2,0.3,2.1,0.6,2.6,0.8s0.9,0.5,1.2,0.9
			s0.4,0.9,0.4,1.5c0,0.6-0.2,1.1-0.5,1.7s-0.8,0.9-1.5,1.2s-1.4,0.4-2.2,0.4c-1.3,0-2.4-0.3-3.1-0.8S180.5,64.3,180.4,63.2z"/>
		<path d="M194.9,64.7l0.3,1.6c-0.5,0.1-0.9,0.2-1.3,0.2c-0.6,0-1.1-0.1-1.5-0.3s-0.6-0.5-0.7-0.8s-0.2-1-0.2-2.1v-6h-1.3v-1.4h1.3
			v-2.6l1.7-1.1v3.6h1.8v1.4h-1.8v6.1c0,0.5,0,0.8,0.1,1s0.2,0.3,0.3,0.3s0.3,0.1,0.6,0.1C194.3,64.8,194.6,64.8,194.9,64.7z"/>
		<path d="M202.2,54v-2h1.8v2H202.2z M202.2,66.3V55.9h1.8v10.4H202.2z"/>
		<path d="M206.6,66.3V55.9h1.6v1.5c0.8-1.1,1.9-1.7,3.3-1.7c0.6,0,1.2,0.1,1.7,0.3s0.9,0.5,1.2,0.9s0.4,0.8,0.5,1.3
			c0.1,0.3,0.1,0.9,0.1,1.7v6.4h-1.8V60c0-0.7-0.1-1.3-0.2-1.6s-0.4-0.6-0.7-0.8s-0.8-0.3-1.2-0.3c-0.7,0-1.4,0.2-1.9,0.7
			s-0.8,1.4-0.8,2.7v5.7H206.6z"/>
		<path d="M220.8,66.3l5.5-14.3h2l5.9,14.3h-2.2l-1.7-4.3h-6l-1.6,4.3H220.8z M225,60.4h4.9l-1.5-4c-0.5-1.2-0.8-2.2-1-3
			c-0.2,0.9-0.4,1.8-0.8,2.7L225,60.4z"/>
		<path d="M237.2,66.3h-1.6V52h1.8v5.1c0.7-0.9,1.7-1.4,2.8-1.4c0.6,0,1.2,0.1,1.8,0.4s1,0.6,1.4,1.1s0.7,1,0.9,1.7s0.3,1.4,0.3,2.1
			c0,1.8-0.4,3.2-1.3,4.1s-1.9,1.5-3.2,1.5c-1.2,0-2.2-0.5-2.9-1.5V66.3z M237.1,61.1c0,1.2,0.2,2.1,0.5,2.7
			c0.6,0.9,1.3,1.4,2.2,1.4c0.8,0,1.4-0.3,2-1s0.8-1.7,0.8-3c0-1.4-0.3-2.4-0.8-3s-1.2-1-1.9-1c-0.8,0-1.4,0.3-2,1
			S237.1,59.8,237.1,61.1z"/>
		<path d="M245.9,63.2l1.7-0.3c0.1,0.7,0.4,1.2,0.8,1.6s1.1,0.6,1.9,0.6c0.8,0,1.4-0.2,1.8-0.5s0.6-0.7,0.6-1.2
			c0-0.4-0.2-0.7-0.5-0.9c-0.2-0.2-0.8-0.4-1.8-0.6c-1.3-0.3-2.2-0.6-2.7-0.8s-0.9-0.6-1.1-1s-0.4-0.9-0.4-1.4
			c0-0.5,0.1-0.9,0.3-1.3s0.5-0.7,0.9-1c0.3-0.2,0.6-0.4,1.1-0.5s1-0.2,1.5-0.2c0.8,0,1.5,0.1,2.1,0.4s1.1,0.6,1.4,1
			s0.5,0.9,0.6,1.6l-1.7,0.2c-0.1-0.5-0.3-1-0.7-1.3s-0.9-0.4-1.6-0.4c-0.8,0-1.4,0.1-1.7,0.4s-0.5,0.6-0.5,0.9
			c0,0.2,0.1,0.4,0.2,0.6c0.1,0.2,0.4,0.3,0.7,0.5c0.2,0.1,0.7,0.2,1.6,0.4c1.2,0.3,2.1,0.6,2.6,0.8s0.9,0.5,1.2,0.9
			s0.4,0.9,0.4,1.5c0,0.6-0.2,1.1-0.5,1.7s-0.8,0.9-1.5,1.2s-1.4,0.4-2.2,0.4c-1.3,0-2.4-0.3-3.1-0.8S246.1,64.3,245.9,63.2z"/>
		<path d="M263.4,62.5l1.7,0.2c-0.2,1.2-0.7,2.1-1.5,2.8s-1.7,1-2.9,1c-1.4,0-2.6-0.5-3.4-1.4s-1.3-2.3-1.3-4c0-1.1,0.2-2.1,0.6-2.9
			s0.9-1.5,1.7-1.9s1.6-0.6,2.5-0.6c1.1,0,2,0.3,2.8,0.9s1.2,1.4,1.4,2.4l-1.7,0.3c-0.2-0.7-0.5-1.2-0.9-1.6s-0.9-0.5-1.5-0.5
			c-0.9,0-1.6,0.3-2.2,1s-0.8,1.6-0.8,3c0,1.4,0.3,2.4,0.8,3s1.2,0.9,2.1,0.9c0.7,0,1.3-0.2,1.7-0.6S263.3,63.4,263.4,62.5z"/>
		<path d="M266.7,66.3V52h1.8v5.1c0.8-1,1.9-1.4,3.1-1.4c0.8,0,1.4,0.2,2,0.5s1,0.7,1.2,1.3s0.4,1.3,0.4,2.3v6.6h-1.8v-6.6
			c0-0.9-0.2-1.5-0.6-1.9s-0.9-0.6-1.6-0.6c-0.5,0-1,0.1-1.5,0.4s-0.8,0.6-1,1.1s-0.3,1.1-0.3,1.9v5.7H266.7z"/>
		<path d="M277.8,66.3V55.9h1.6v1.5c0.8-1.1,1.9-1.7,3.3-1.7c0.6,0,1.2,0.1,1.7,0.3s0.9,0.5,1.2,0.9s0.4,0.8,0.5,1.3
			c0.1,0.3,0.1,0.9,0.1,1.7v6.4h-1.8V60c0-0.7-0.1-1.3-0.2-1.6s-0.4-0.6-0.7-0.8s-0.8-0.3-1.2-0.3c-0.7,0-1.4,0.2-1.9,0.7
			s-0.8,1.4-0.8,2.7v5.7H277.8z"/>
		<path d="M288.9,54v-2h1.8v2H288.9z M288.9,66.3V55.9h1.8v10.4H288.9z"/>
		<path d="M297.2,64.7l0.3,1.6c-0.5,0.1-0.9,0.2-1.3,0.2c-0.6,0-1.1-0.1-1.5-0.3s-0.6-0.5-0.7-0.8s-0.2-1-0.2-2.1v-6h-1.3v-1.4h1.3
			v-2.6l1.7-1.1v3.6h1.8v1.4h-1.8v6.1c0,0.5,0,0.8,0.1,1s0.2,0.3,0.3,0.3s0.3,0.1,0.6,0.1C296.6,64.8,296.9,64.8,297.2,64.7z"/>
		<path d="M302.7,64.7l0.3,1.6c-0.5,0.1-0.9,0.2-1.3,0.2c-0.6,0-1.1-0.1-1.5-0.3s-0.6-0.5-0.7-0.8s-0.2-1-0.2-2.1v-6h-1.3v-1.4h1.3
			v-2.6l1.7-1.1v3.6h1.8v1.4H301v6.1c0,0.5,0,0.8,0.1,1s0.2,0.3,0.3,0.3s0.3,0.1,0.6,0.1C302.2,64.8,302.4,64.8,302.7,64.7z"/>
		<path d="M311.6,63l1.8,0.2c-0.3,1.1-0.8,1.9-1.6,2.5s-1.8,0.9-3,0.9c-1.5,0-2.7-0.5-3.6-1.4s-1.3-2.2-1.3-3.9
			c0-1.7,0.4-3.1,1.3-4.1s2.1-1.4,3.5-1.4c1.4,0,2.5,0.5,3.4,1.4s1.3,2.3,1.3,4c0,0.1,0,0.3,0,0.5h-7.7c0.1,1.1,0.4,2,1,2.6
			s1.3,0.9,2.2,0.9c0.6,0,1.2-0.2,1.7-0.5S311.3,63.7,311.6,63z M305.8,60.1h5.8c-0.1-0.9-0.3-1.5-0.7-2c-0.6-0.7-1.3-1-2.2-1
			c-0.8,0-1.5,0.3-2,0.8S305.8,59.2,305.8,60.1z"/>
		<path d="M315.6,66.3V55.9h1.6v1.5c0.8-1.1,1.9-1.7,3.3-1.7c0.6,0,1.2,0.1,1.7,0.3s0.9,0.5,1.2,0.9s0.4,0.8,0.5,1.3
			c0.1,0.3,0.1,0.9,0.1,1.7v6.4h-1.8V60c0-0.7-0.1-1.3-0.2-1.6s-0.4-0.6-0.7-0.8s-0.8-0.3-1.2-0.3c-0.7,0-1.4,0.2-1.9,0.7
			s-0.8,1.4-0.8,2.7v5.7H315.6z"/>
		<path d="M339,65c-0.7,0.6-1.3,0.9-1.9,1.2s-1.2,0.3-1.9,0.3c-1.1,0-2-0.3-2.6-0.8s-0.9-1.3-0.9-2.1c0-0.5,0.1-1,0.3-1.4
			s0.5-0.8,0.9-1s0.8-0.4,1.3-0.6c0.3-0.1,0.9-0.2,1.6-0.3c1.4-0.2,2.5-0.4,3.1-0.6c0-0.2,0-0.4,0-0.5c0-0.7-0.2-1.2-0.5-1.5
			c-0.4-0.4-1.1-0.6-2-0.6c-0.8,0-1.4,0.1-1.8,0.4s-0.7,0.8-0.9,1.5l-1.7-0.2c0.2-0.7,0.4-1.3,0.8-1.8s0.9-0.8,1.6-1
			s1.5-0.4,2.4-0.4c0.9,0,1.6,0.1,2.2,0.3s1,0.5,1.2,0.8s0.4,0.7,0.5,1.2c0.1,0.3,0.1,0.8,0.1,1.6V62c0,1.6,0,2.7,0.1,3.1
			s0.2,0.8,0.4,1.2h-1.8C339.2,66,339.1,65.5,339,65z M338.9,61.1c-0.6,0.3-1.6,0.5-2.9,0.7c-0.7,0.1-1.2,0.2-1.5,0.4
			s-0.5,0.3-0.7,0.6s-0.2,0.5-0.2,0.8c0,0.5,0.2,0.9,0.5,1.2s0.9,0.5,1.6,0.5c0.7,0,1.3-0.1,1.8-0.4s0.9-0.7,1.2-1.2
			c0.2-0.4,0.3-1,0.3-1.8V61.1z"/>
		<path d="M350.2,66.3v-1.5c-0.8,1.2-1.9,1.8-3.3,1.8c-0.6,0-1.2-0.1-1.7-0.4s-0.9-0.5-1.2-0.9s-0.4-0.8-0.5-1.3
			c-0.1-0.3-0.1-0.9-0.1-1.6v-6.4h1.8v5.8c0,0.9,0,1.5,0.1,1.9c0.1,0.5,0.3,0.8,0.7,1.1s0.8,0.4,1.3,0.4s1-0.1,1.5-0.4
			s0.8-0.6,1-1.1s0.3-1.1,0.3-2v-5.6h1.8v10.4H350.2z"/>
		<path d="M354.9,66.3v-9h-1.6v-1.4h1.6v-1.1c0-0.7,0.1-1.2,0.2-1.6c0.2-0.5,0.5-0.8,0.9-1.1s1-0.4,1.8-0.4c0.5,0,1,0.1,1.6,0.2
			l-0.3,1.5c-0.4-0.1-0.7-0.1-1-0.1c-0.5,0-0.9,0.1-1.1,0.3s-0.3,0.7-0.3,1.3v1h2v1.4h-2v9H354.9z"/>
		<path d="M359.7,67.2l1.7,0.3c0.1,0.5,0.3,0.9,0.6,1.2c0.4,0.3,1,0.5,1.8,0.5c0.8,0,1.4-0.2,1.9-0.5s0.7-0.8,0.9-1.4
			c0.1-0.4,0.1-1.1,0.1-2.3c-0.8,0.9-1.7,1.4-2.9,1.4c-1.4,0-2.5-0.5-3.3-1.5s-1.2-2.3-1.2-3.7c0-1,0.2-1.9,0.5-2.7s0.9-1.5,1.6-1.9
			s1.5-0.7,2.4-0.7c1.2,0,2.2,0.5,3,1.5v-1.3h1.6v9c0,1.6-0.2,2.8-0.5,3.4s-0.8,1.2-1.6,1.6s-1.6,0.6-2.6,0.6c-1.2,0-2.2-0.3-3-0.8
			S359.7,68.3,359.7,67.2z M361.2,60.9c0,1.4,0.3,2.4,0.8,3s1.2,0.9,2,0.9c0.8,0,1.5-0.3,2-0.9s0.8-1.6,0.8-2.9
			c0-1.3-0.3-2.2-0.8-2.9s-1.2-1-2-1c-0.8,0-1.4,0.3-2,1S361.2,59.7,361.2,60.9z"/>
		<path d="M378.3,63l1.8,0.2c-0.3,1.1-0.8,1.9-1.6,2.5s-1.8,0.9-3,0.9c-1.5,0-2.7-0.5-3.6-1.4s-1.3-2.2-1.3-3.9
			c0-1.7,0.4-3.1,1.3-4.1s2.1-1.4,3.5-1.4c1.4,0,2.5,0.5,3.4,1.4s1.3,2.3,1.3,4c0,0.1,0,0.3,0,0.5h-7.7c0.1,1.1,0.4,2,1,2.6
			s1.3,0.9,2.2,0.9c0.6,0,1.2-0.2,1.7-0.5S378,63.7,378.3,63z M372.5,60.1h5.8c-0.1-0.9-0.3-1.5-0.7-2c-0.6-0.7-1.3-1-2.2-1
			c-0.8,0-1.5,0.3-2,0.8S372.6,59.2,372.5,60.1z"/>
		<path d="M386.1,64.7l0.3,1.6c-0.5,0.1-0.9,0.2-1.3,0.2c-0.6,0-1.1-0.1-1.5-0.3s-0.6-0.5-0.7-0.8s-0.2-1-0.2-2.1v-6h-1.3v-1.4h1.3
			v-2.6l1.7-1.1v3.6h1.8v1.4h-1.8v6.1c0,0.5,0,0.8,0.1,1s0.2,0.3,0.3,0.3s0.3,0.1,0.6,0.1C385.6,64.8,385.8,64.8,386.1,64.7z"/>
		<path d="M395,63l1.8,0.2c-0.3,1.1-0.8,1.9-1.6,2.5s-1.8,0.9-3,0.9c-1.5,0-2.7-0.5-3.6-1.4s-1.3-2.2-1.3-3.9c0-1.7,0.4-3.1,1.3-4.1
			s2.1-1.4,3.5-1.4c1.4,0,2.5,0.5,3.4,1.4s1.3,2.3,1.3,4c0,0.1,0,0.3,0,0.5h-7.7c0.1,1.1,0.4,2,1,2.6s1.3,0.9,2.2,0.9
			c0.6,0,1.2-0.2,1.7-0.5S394.7,63.7,395,63z M389.2,60.1h5.8c-0.1-0.9-0.3-1.5-0.7-2c-0.6-0.7-1.3-1-2.2-1c-0.8,0-1.5,0.3-2,0.8
			S389.3,59.2,389.2,60.1z"/>
		<path d="M399,54v-2h1.8v2H399z M399,66.3V55.9h1.8v10.4H399z"/>
		<path d="M403.4,66.3V52h1.8v14.3H403.4z"/>
		<path d="M411.7,64.7l0.3,1.6c-0.5,0.1-0.9,0.2-1.3,0.2c-0.6,0-1.1-0.1-1.5-0.3s-0.6-0.5-0.7-0.8s-0.2-1-0.2-2.1v-6h-1.3v-1.4h1.3
			v-2.6l1.7-1.1v3.6h1.8v1.4h-1.8v6.1c0,0.5,0,0.8,0.1,1s0.2,0.3,0.3,0.3s0.3,0.1,0.6,0.1C411.1,64.8,411.4,64.8,411.7,64.7z"/>
		<path d="M413.9,66.3v-2h2v2H413.9z"/>
	</g>
	
		<use xlink:href="#ab"  width="504.1" height="67.6" id="XMLID_2_" x="-251.9" y="-33.8" transform="matrix(1 0 0 -1 273.1689 219.8291)" overflow="visible"/>
</g>
<g id="Layer_2">
</g>
</svg>
